<svg width="77" height="77" viewBox="0 0 77 77" fill="none" xmlns="http://www.w3.org/2000/svg">
<circle cx="38.5" cy="38.5" r="38.5" fill="#EFF2F7"/>
<path d="M56 17C51.582 17 48 18.3438 48 20C48 21.6562 51.582 23 56 23C60.418 23 64 21.6562 64 20C64 18.3438 60.418 17 56 17ZM48 21.9062V25C48 26.6992 51.6016 28 56 28C60.3984 28 64 26.6992 64 25V21.9062C62.3984 23.3047 59.1992 24 56 24C52.8008 24 49.6016 23.3047 48 21.9062ZM48 26.9062V30C48 31.6992 51.6016 33 56 33C60.3984 33 64 31.6992 64 30V26.9062C62.3984 28.3047 59.1992 29 56 29C52.8008 29 49.6016 28.3047 48 26.9062ZM48 31.9062V35C48 36.6992 51.6016 38 56 38C60.3984 38 64 36.6992 64 35V31.9062C62.3984 33.3047 59.1992 34 56 34C52.8008 34 49.6016 33.3047 48 31.9062ZM22 32C17.582 32 14 33.3438 14 35C14 36.6562 17.582 38 22 38C26.418 38 30 36.6562 30 35C30 33.3438 26.418 32 22 32ZM14 36.9062V40C14 41.6992 17.6016 43 22 43C26.3984 43 30 41.6992 30 40V36.9062C28.3984 38.3047 25.1992 39 22 39C18.8008 39 15.6016 38.3047 14 36.9062ZM48 36.9062V40C48 41.6992 51.6016 43 56 43C60.3984 43 64 41.6992 64 40V36.9062C62.3984 38.3047 59.1992 39 56 39C52.8008 39 49.6016 38.3047 48 36.9062ZM14 41.9062V45C14 46.6992 17.6016 48 22 48C26.3984 48 30 46.6992 30 45V41.9062C28.3984 43.3047 25.1992 44 22 44C18.8008 44 15.6016 43.3047 14 41.9062ZM48 41.9062V45C48 46.6992 51.6016 48 56 48C60.3984 48 64 46.6992 64 45V41.9062C62.3984 43.3047 59.1992 44 56 44C52.8008 44 49.6016 43.3047 48 41.9062ZM39 42C34.582 42 31 43.3438 31 45C31 46.6562 34.582 48 39 48C43.418 48 47 46.6562 47 45C47 43.3438 43.418 42 39 42ZM14 46.9062V50C14 51.6992 17.6016 53 22 53C26.3984 53 30 51.6992 30 50V46.9062C28.3984 48.3047 25.1992 49 22 49C18.8008 49 15.6016 48.3047 14 46.9062ZM31 46.9062V50C31 51.6992 34.6016 53 39 53C43.3984 53 47 51.6992 47 50V46.9062C45.3984 48.3047 42.1992 49 39 49C35.8008 49 32.6016 48.3047 31 46.9062ZM48 46.9062V50C48 51.6992 51.6016 53 56 53C60.3984 53 64 51.6992 64 50V46.9062C62.3984 48.3047 59.1992 49 56 49C52.8008 49 49.6016 48.3047 48 46.9062ZM14 51.9062V55C14 56.6992 17.6016 58 22 58C26.3984 58 30 56.6992 30 55V51.9062C28.3984 53.3047 25.1992 54 22 54C18.8008 54 15.6016 53.3047 14 51.9062ZM31 51.9062V55C31 56.6992 34.6016 58 39 58C43.3984 58 47 56.6992 47 55V51.9062C45.3984 53.3047 42.1992 54 39 54C35.8008 54 32.6016 53.3047 31 51.9062ZM48 51.9062V55C48 56.6992 51.6016 58 56 58C60.3984 58 64 56.6992 64 55V51.9062C62.3984 53.3047 59.1992 54 56 54C52.8008 54 49.6016 53.3047 48 51.9062ZM14 56.9062V60C14 61.6992 17.6016 63 22 63C26.3984 63 30 61.6992 30 60V56.9062C28.3984 58.3047 25.1992 59 22 59C18.8008 59 15.6016 58.3047 14 56.9062ZM31 56.9062V60C31 61.6992 34.6016 63 39 63C43.3984 63 47 61.6992 47 60V56.9062C45.3984 58.3047 42.1992 59 39 59C35.8008 59 32.6016 58.3047 31 56.9062ZM48 56.9062V60C48 61.6992 51.6016 63 56 63C60.3984 63 64 61.6992 64 60V56.9062C62.3984 58.3047 59.1992 59 56 59C52.8008 59 49.6016 58.3047 48 56.9062Z" fill="#F2C94C"/>
<path d="M39 20.625C28.2994 20.625 19.625 29.2994 19.625 40C19.625 50.7006 28.2994 59.375 39 59.375C49.7006 59.375 58.375 50.7006 58.375 40C58.375 29.2994 49.7006 20.625 39 20.625ZM22.125 40C22.125 35.79 23.67 31.9431 26.22 28.9875L50.0125 52.78C47.0562 55.3294 43.21 56.875 39 56.875C29.68 56.875 22.125 49.32 22.125 40ZM51.78 51.0125L27.9875 27.22C30.9431 24.6706 34.7894 23.125 39 23.125C48.32 23.125 55.875 30.68 55.875 40C55.875 44.21 54.3294 48.0569 51.78 51.0125Z" fill="#AA494A"/>
</svg>
