<svg width="77" height="77" viewBox="0 0 77 77" fill="none" xmlns="http://www.w3.org/2000/svg">
<circle cx="38.5" cy="38.5" r="38.5" fill="#EFF2F7"/>
<path d="M39 64C52.8071 64 64 52.8071 64 39C64 25.1929 52.8071 14 39 14C25.1929 14 14 25.1929 14 39C14 52.8071 25.1929 64 39 64Z" fill="#7073BE"/>
<path d="M39.7781 20.25V34.1094L51.4921 39.3437L39.7781 20.25Z" fill="white" fill-opacity="0.602"/>
<path d="M39.7781 20.25L28.0625 39.3437L39.7781 34.1094V20.25Z" fill="white"/>
<path d="M39.7781 48.3249V57.7421L51.5 41.5249L39.7781 48.3249Z" fill="white" fill-opacity="0.602"/>
<path d="M39.7781 57.7421V48.3233L28.0625 41.5249L39.7781 57.7421Z" fill="white"/>
<path d="M39.7781 46.1454L51.4921 39.3438L39.7781 34.1125V46.1454Z" fill="white" fill-opacity="0.2"/>
<path d="M28.0625 39.3438L39.7781 46.1454V34.1125L28.0625 39.3438Z" fill="white" fill-opacity="0.602"/>
<path d="M65.5588 1.74825L66.8289 3.16575C67.025 3.38437 67.3306 3.46875 67.6111 3.381L69.4726 2.79937C69.8911 2.6685 70.3321 2.92312 70.4281 3.351L70.8451 5.21137C70.9085 5.4945 71.1298 5.71575 71.4129 5.77912L73.2766 6.19687C73.7034 6.2925 73.958 6.73162 73.8294 7.14937L73.2545 9.01612C73.1686 9.29512 73.2523 9.5985 73.469 9.79387L74.8816 11.067C75.212 11.3647 75.212 11.8834 74.8816 12.1811L73.469 13.4542C73.2523 13.6496 73.1683 13.953 73.2545 14.232L73.8294 16.0987C73.958 16.5169 73.7034 16.9556 73.2766 17.0512L71.4129 17.469C71.1298 17.5324 70.9085 17.7536 70.8451 18.0367L70.4281 19.8971C70.3321 20.325 69.8911 20.5796 69.4726 20.4487L67.6111 19.8671C67.3306 19.7794 67.025 19.8637 66.8289 20.0824L65.5588 21.4999C65.2606 21.8325 64.7398 21.8325 64.4416 21.4999L63.1715 20.0824C62.9754 19.8637 62.6698 19.7794 62.3893 19.8671L60.5278 20.4487C60.1093 20.5796 59.6683 20.325 59.5723 19.8971L59.1553 18.0367C59.0919 17.7536 58.8706 17.5324 58.5875 17.469L56.7238 17.0512C56.297 16.9556 56.0424 16.5165 56.171 16.0987L56.7459 14.232C56.8318 13.953 56.7481 13.6496 56.5314 13.4542L55.1188 12.1811C54.7884 11.8834 54.7884 11.3647 55.1188 11.067L56.5314 9.79387C56.7481 9.5985 56.8321 9.29512 56.7459 9.01612L56.171 7.14937C56.0424 6.73125 56.297 6.2925 56.7238 6.19687L58.5875 5.77912C58.8706 5.71575 59.0919 5.4945 59.1553 5.21137L59.5723 3.351C59.6683 2.92312 60.1093 2.6685 60.5278 2.79937L62.3893 3.381C62.6698 3.46875 62.9754 3.38437 63.1715 3.16575L64.4416 1.74825C64.7394 1.41562 65.2606 1.41562 65.5588 1.74825Z" fill="url(#paint0_linear_1238_8788)"/>
<path d="M69.0104 8.14983L63.3123 13.8547L61.3492 11.8972C60.9828 11.532 60.3899 11.5323 60.0243 11.8983C59.6579 12.2647 59.6583 12.8591 60.0251 13.2251L62.6508 15.8445C63.0172 16.2101 63.6104 16.2093 63.9761 15.8433L70.3368 9.47508C70.7024 9.1087 70.7024 8.51545 70.3364 8.14945C69.9701 7.78345 69.3764 7.78345 69.0104 8.14983Z" fill="white"/>
<defs>
<linearGradient id="paint0_linear_1238_8788" x1="65" y1="1.49887" x2="65" y2="21.7511" gradientUnits="userSpaceOnUse">
<stop stop-color="#42D778"/>
<stop offset="0.996" stop-color="#34B171"/>
<stop offset="1" stop-color="#34B171"/>
</linearGradient>
</defs>
</svg>
