<svg width="80" height="44" viewBox="0 0 80 44" fill="none" xmlns="http://www.w3.org/2000/svg">
<path d="M79.436 0H0V44H79.436V0Z" fill="white"/>
<path d="M25.3102 3.61914H9.77368V20.4749H25.3102V3.61914Z" fill="#E6E6E6"/>
<path d="M47.4862 3.61914H31.9497V20.4749H47.4862V3.61914Z" fill="#7073BE"/>
<path d="M69.662 3.61914H54.1255V20.4749H69.662V3.61914Z" fill="#E6E6E6"/>
<path d="M25.3102 23.5259H9.77368V40.3816H25.3102V23.5259Z" fill="#7073BE"/>
<path d="M47.4862 23.5259H31.9497V40.3816H47.4862V23.5259Z" fill="#E6E6E6"/>
<path d="M69.662 23.5259H54.1255V40.3816H69.662V23.5259Z" fill="#7073BE"/>
<path d="M35.705 27.8577L38.5437 26.7354L38.8738 32.3467C38.8738 32.3467 39.4678 34.0631 39.2699 34.7233C39.2699 34.7233 39.4019 35.8456 39.0717 35.9116C38.7416 35.9776 37.8172 36.1098 37.7518 36.0436C37.6865 35.9775 37.6859 35.7795 37.6859 35.7795C37.6859 35.7795 37.0256 36.2416 36.9596 36.7697C36.9596 36.7697 34.187 37.6279 34.121 36.8357C34.055 36.0435 35.5072 35.3833 35.5072 35.3833L36.6295 33.6669L35.705 27.8577Z" fill="#7073BE"/>
<path d="M41.7126 27.8577L44.5509 26.7354L44.881 32.3467C44.881 32.3467 45.475 34.0631 45.2771 34.7233C45.2771 34.7233 45.409 35.8456 45.0789 35.9116C44.7488 35.9776 43.8244 36.1098 43.7591 36.0436C43.6937 35.9775 43.6931 35.7795 43.6931 35.7795C43.6931 35.7795 43.0328 36.2416 42.9669 36.7697C42.9669 36.7697 40.1942 37.6279 40.1282 36.8357C40.0622 36.0435 41.5144 35.3833 41.5144 35.3833L42.6367 33.6669L41.7126 27.8577Z" fill="#7073BE"/>
<path d="M41.9899 6.18877C41.9899 6.18877 41.3855 7.87772 42.0859 8.63934L41.502 10.6457C41.502 10.6457 43.5764 16.8691 42.9838 17.7384C42.9838 17.7384 40.7711 18.8448 36.3451 17.3432L38.1429 10.3691L37.8861 7.4253L38.2417 6.04228L39.0319 5.96387C39.0319 5.96387 38.5578 7.74194 39.4271 8.01859C40.2964 8.29525 41.1444 6.0083 41.1444 6.0083L41.9899 6.18877Z" fill="white"/>
<path d="M14.076 17.0911L14.8388 17.4031L18.4794 12.6184L19.6235 18.2352L20.3863 18.0965C20.8756 13.2541 21.275 8.31491 20.785 5.97883L17.9593 5.85742L16.6765 9.94923L16.0524 12.723L14.076 17.0911Z" fill="#7073BE"/>
<path d="M60.3713 5.94092C60.3713 5.94092 59.3302 7.3881 59.3811 7.97212C59.4319 8.55614 60.092 18.0774 60.092 18.0774L61.6408 18.1536L61.1835 11.2983L61.5643 9.44479L62.5037 18.0774L64.4081 18.1283L62.707 6.93123L62.3769 5.94105L60.3713 5.94092Z" fill="#7073BE"/>
<path d="M66.2546 29.255C65.9783 28.9233 65.5031 28.744 65.0469 28.647C65.0599 28.6056 63.6593 28.3162 63.6355 28.3757L63.1074 27.9551L61.4847 28.7976L60.5729 28.1768L60.1494 28.3271C60.1667 28.2524 58.8346 28.4832 58.8346 28.4832C58.5802 28.4923 58.2552 28.5083 57.8913 28.5362C56.6173 28.6342 56.5192 31.934 56.5192 31.934C57.1053 31.6942 57.7303 31.5633 58.3635 31.5478L58.7078 35.4944C60.479 35.3426 62.3365 35.5193 64.2619 35.9518L65.1647 32.8494L67.2673 32.0317C67.2673 32.0317 66.9081 30.0389 66.2546 29.255Z" fill="white"/>
<path d="M21.1353 27.3761C20.9076 27.1029 20.5162 26.9551 20.1402 26.8752C20.1514 26.841 18.9968 26.6026 18.9771 26.6517L18.5419 26.3052L17.2052 26.9994L16.4539 26.488L16.105 26.6119C16.1192 26.5503 15.0216 26.7403 15.0216 26.7403C14.8125 26.7479 14.5441 26.761 14.2444 26.7841C13.1947 26.8649 13.1139 29.5835 13.1139 29.5835C13.5969 29.3859 14.1119 29.2781 14.6336 29.2653L14.9173 37.2257C16.3766 37.1005 17.9072 37.2462 19.4932 37.6026L20.237 30.3379L21.9695 29.6642C21.9695 29.6642 21.6736 28.0224 21.1353 27.3761Z" fill="white"/>
</svg>
