<svg width="56" height="56" viewBox="0 0 56 56" fill="none" xmlns="http://www.w3.org/2000/svg">
<rect width="28" height="28" transform="translate(0 28)" fill="white"/>
<g clip-path="url(#clip0_1275_9171)">
<path fill-rule="evenodd" clip-rule="evenodd" d="M3.36008 33.6001C3.20544 33.6001 3.08008 33.7255 3.08008 33.8801C3.08008 34.0347 3.20544 34.1601 3.36008 34.1601H7.28008C7.43472 34.1601 7.56008 34.0347 7.56008 33.8801C7.56008 33.7255 7.43472 33.6001 7.28008 33.6001H3.36008ZM5.03999 34.4402C5.03999 34.2856 5.16535 34.1602 5.31999 34.1602H8.67999C8.83463 34.1602 8.95999 34.2856 8.95999 34.4402C8.95999 34.5948 8.83463 34.7202 8.67999 34.7202H7.84305C7.99626 34.7219 8.11994 34.8466 8.11994 35.0002C8.11994 35.1548 7.99458 35.2802 7.83994 35.2802H4.47994C4.3253 35.2802 4.19994 35.1548 4.19994 35.0002C4.19994 34.8455 4.3253 34.7202 4.47994 34.7202H5.31688C5.16367 34.7185 5.03999 34.5938 5.03999 34.4402Z" fill="#E5EEF7"/>
<path fill-rule="evenodd" clip-rule="evenodd" d="M19.6001 30.8003C19.7548 30.8003 19.8801 30.9257 19.8801 31.0803C19.8801 31.2349 19.7548 31.3603 19.6001 31.3603H17.3627C17.5162 31.3615 17.6403 31.4864 17.6403 31.6403C17.6403 31.7949 17.515 31.9203 17.3603 31.9203H14.0003C13.8457 31.9203 13.7203 31.7949 13.7203 31.6403C13.7203 31.4856 13.8457 31.3603 14.0003 31.3603H15.6778C15.5242 31.359 15.4001 31.2342 15.4001 31.0803C15.4001 30.9257 15.5255 30.8003 15.6801 30.8003H19.6001Z" fill="#E5EEF7"/>
<path fill-rule="evenodd" clip-rule="evenodd" d="M19.04 38.3601C19.04 38.2054 19.1654 38.0801 19.32 38.0801H22.68C22.8347 38.0801 22.96 38.2054 22.96 38.3601C22.96 38.512 22.8391 38.6356 22.6882 38.64H24.08C24.2347 38.64 24.36 38.7653 24.36 38.92C24.36 39.0736 24.2363 39.1983 24.0831 39.1999H24.9199C25.0746 39.1999 25.1999 39.3253 25.1999 39.4799C25.1999 39.6346 25.0746 39.7599 24.9199 39.7599H21.5599C21.4053 39.7599 21.2799 39.6346 21.2799 39.4799C21.2799 39.3263 21.4036 39.2016 21.5568 39.2H20.16C20.0054 39.2 19.88 39.0746 19.88 38.92C19.88 38.7681 20.001 38.6444 20.1518 38.6401H19.32C19.1654 38.6401 19.04 38.5147 19.04 38.3601Z" fill="#E5EEF7"/>
</g>
<path opacity="0.4" fill-rule="evenodd" clip-rule="evenodd" d="M11.7037 36.8958C11.4996 36.4749 10.9 36.4749 10.6959 36.8958L2.7998 53.1809H11.1997L11.1997 53.181H25.1997L18.7024 39.9375C18.4975 39.5197 17.9019 39.5197 17.6969 39.9375L15.4244 44.5696L11.7037 36.8958Z" fill="#E4DCEA"/>
<g clip-path="url(#clip1_1275_9171)">
<g clip-path="url(#clip2_1275_9171)">
<rect x="7.34985" y="50.3721" width="0.42" height="2.548" fill="#B6B0BB"/>
<path fill-rule="evenodd" clip-rule="evenodd" d="M7.55997 43.1201L8.39997 50.3721H6.71997L7.55997 43.1201Z" fill="#B6B0BB" stroke="#B6B0BB" stroke-width="0.196" stroke-linecap="round" stroke-linejoin="round"/>
</g>
<g clip-path="url(#clip3_1275_9171)">
<rect x="9.33228" y="50.8818" width="0.35" height="2.0384" fill="#B6B0BB"/>
<path fill-rule="evenodd" clip-rule="evenodd" d="M9.50762 45.0801L10.2076 50.8817H8.80762L9.50762 45.0801Z" fill="#B6B0BB" stroke="#B6B0BB" stroke-width="0.1568" stroke-linecap="round" stroke-linejoin="round"/>
</g>
<g clip-path="url(#clip4_1275_9171)">
<path fill-rule="evenodd" clip-rule="evenodd" d="M12.32 43.1201L13.16 50.3721H11.48L12.32 43.1201Z" fill="#B6B0BB" stroke="#B6B0BB" stroke-width="0.1568" stroke-linecap="round" stroke-linejoin="round"/>
</g>
<g clip-path="url(#clip5_1275_9171)">
<rect x="19.3899" y="50.3721" width="0.42" height="2.548" fill="#B6B0BB"/>
<path fill-rule="evenodd" clip-rule="evenodd" d="M19.6 43.1201L20.44 50.3721H18.76L19.6 43.1201Z" fill="#B6B0BB" stroke="#B6B0BB" stroke-width="0.1568" stroke-linecap="round" stroke-linejoin="round"/>
</g>
<g clip-path="url(#clip6_1275_9171)">
<path fill-rule="evenodd" clip-rule="evenodd" d="M14.84 43.1201L15.68 50.3721H14L14.84 43.1201Z" fill="#B6B0BB" stroke="#B6B0BB" stroke-width="0.1568" stroke-linecap="round" stroke-linejoin="round"/>
</g>
<g clip-path="url(#clip7_1275_9171)">
<rect x="22.6448" y="50.8818" width="0.35" height="2.0384" fill="#B6B0BB"/>
<path fill-rule="evenodd" clip-rule="evenodd" d="M22.8199 45.0801L23.5199 50.8817H22.1199L22.8199 45.0801Z" fill="#B6B0BB" stroke="#B6B0BB" stroke-width="0.1568" stroke-linecap="round" stroke-linejoin="round"/>
</g>
<g clip-path="url(#clip8_1275_9171)">
<rect x="4.47998" y="49.2803" width="0.56" height="3.64" fill="#4A4A4A"/>
<path fill-rule="evenodd" clip-rule="evenodd" d="M4.76014 38.9199L5.88014 49.2799H3.64014L4.76014 38.9199Z" fill="#73A33C" stroke="#4A4A4A" stroke-width="0.28" stroke-linecap="round" stroke-linejoin="round"/>
<path fill-rule="evenodd" clip-rule="evenodd" d="M3.91016 49.28L4.88466 40.04L3.91016 49.28Z" stroke="#537130" stroke-width="0.28" stroke-linecap="round" stroke-linejoin="round"/>
<path fill-rule="evenodd" clip-rule="evenodd" d="M4.76014 38.9199L5.88014 49.2799H3.64014L4.76014 38.9199Z" stroke="#4A4A4A" stroke-width="0.28" stroke-linecap="round" stroke-linejoin="round"/>
</g>
<g clip-path="url(#clip9_1275_9171)">
<rect x="9.52002" y="49.2803" width="0.56" height="3.64" fill="#4A4A4A"/>
<path fill-rule="evenodd" clip-rule="evenodd" d="M9.80018 38.9199L10.9202 49.2799H8.68018L9.80018 38.9199Z" fill="#73A33C" stroke="#4A4A4A" stroke-width="0.28" stroke-linecap="round" stroke-linejoin="round"/>
<path fill-rule="evenodd" clip-rule="evenodd" d="M8.9502 49.28L9.9247 40.04L8.9502 49.28Z" stroke="#537130" stroke-width="0.28" stroke-linecap="round" stroke-linejoin="round"/>
<path fill-rule="evenodd" clip-rule="evenodd" d="M9.80018 38.9199L10.9202 49.2799H8.68018L9.80018 38.9199Z" stroke="#4A4A4A" stroke-width="0.28" stroke-linecap="round" stroke-linejoin="round"/>
</g>
<g clip-path="url(#clip10_1275_9171)">
<rect x="15.9597" y="49.2803" width="0.56" height="3.64" fill="#4A4A4A"/>
<path fill-rule="evenodd" clip-rule="evenodd" d="M16.2399 38.9199L17.3599 49.2799H15.1199L16.2399 38.9199Z" fill="#73A33C" stroke="#4A4A4A" stroke-width="0.28" stroke-linecap="round" stroke-linejoin="round"/>
<path fill-rule="evenodd" clip-rule="evenodd" d="M15.3899 49.28L16.3644 40.04L15.3899 49.28Z" stroke="#537130" stroke-width="0.28" stroke-linecap="round" stroke-linejoin="round"/>
<path fill-rule="evenodd" clip-rule="evenodd" d="M16.2399 38.9199L17.3599 49.2799H15.1199L16.2399 38.9199Z" stroke="#4A4A4A" stroke-width="0.28" stroke-linecap="round" stroke-linejoin="round"/>
</g>
<g clip-path="url(#clip11_1275_9171)">
<rect x="20.9998" y="49.2803" width="0.56" height="3.64" fill="#4A4A4A"/>
<path fill-rule="evenodd" clip-rule="evenodd" d="M21.2799 38.9199L22.3999 49.2799H20.1599L21.2799 38.9199Z" fill="#73A33C" stroke="#4A4A4A" stroke-width="0.28" stroke-linecap="round" stroke-linejoin="round"/>
<path fill-rule="evenodd" clip-rule="evenodd" d="M20.4297 49.28L21.4042 40.04L20.4297 49.28Z" stroke="#537130" stroke-width="0.28" stroke-linecap="round" stroke-linejoin="round"/>
<path fill-rule="evenodd" clip-rule="evenodd" d="M21.2799 38.9199L22.3999 49.2799H20.1599L21.2799 38.9199Z" stroke="#4A4A4A" stroke-width="0.28" stroke-linecap="round" stroke-linejoin="round"/>
</g>
</g>
<g clip-path="url(#clip12_1275_9171)">
<path fill-rule="evenodd" clip-rule="evenodd" d="M18.48 47.8796L14 43.1196L9.52002 47.8796H10.387V52.9198H17.6128V47.8796H18.48Z" fill="#EA7474"/>
<path d="M14 43.1196L14.102 43.0237C14.0755 42.9956 14.0386 42.9796 14 42.9796C13.9614 42.9796 13.9245 42.9956 13.8981 43.0237L14 43.1196ZM18.48 47.8796V48.0196C18.5359 48.0196 18.5864 47.9864 18.6085 47.9352C18.6307 47.8839 18.6202 47.8243 18.582 47.7837L18.48 47.8796ZM9.52002 47.8796L9.41807 47.7837C9.37979 47.8243 9.36935 47.8839 9.3915 47.9352C9.41366 47.9864 9.46417 48.0196 9.52002 48.0196V47.8796ZM10.387 47.8796H10.527C10.527 47.8023 10.4643 47.7396 10.387 47.7396V47.8796ZM10.387 52.9198H10.247C10.247 52.9971 10.3096 53.0598 10.387 53.0598V52.9198ZM17.6128 52.9198V53.0598C17.6901 53.0598 17.7528 52.9971 17.7528 52.9198H17.6128ZM17.6128 47.8796V47.7396C17.5354 47.7396 17.4728 47.8023 17.4728 47.8796H17.6128ZM13.8981 43.2156L18.3781 47.9756L18.582 47.7837L14.102 43.0237L13.8981 43.2156ZM9.62197 47.9756L14.102 43.2156L13.8981 43.0237L9.41807 47.7837L9.62197 47.9756ZM10.387 47.7396H9.52002V48.0196H10.387V47.7396ZM10.527 52.9198V47.8796H10.247V52.9198H10.527ZM17.6128 52.7798H10.387V53.0598H17.6128V52.7798ZM17.4728 47.8796V52.9198H17.7528V47.8796H17.4728ZM18.48 47.7396H17.6128V48.0196H18.48V47.7396Z" fill="#4A4A4A"/>
<path fill-rule="evenodd" clip-rule="evenodd" d="M17.6408 48.1597H10.3608V48.2997H17.6408V48.1597ZM10.3601 48.7197H17.6401V48.8597H10.3601V48.7197ZM10.3601 49.2798H17.6401V49.4198H10.3601V49.2798ZM10.3601 50.9598H17.6401V51.0998H10.3601V50.9598ZM17.6401 50.3998H10.3601V50.5398H17.6401V50.3998ZM10.3601 49.8398H17.6401V49.9798H10.3601V49.8398ZM17.6401 52.6397H10.3601V52.7797H17.6401V52.6397ZM10.3601 52.0797H17.6401V52.2197H10.3601V52.0797ZM17.6401 51.5198H10.3601V51.6598H17.6401V51.5198Z" fill="#AC6060"/>
<rect x="10.3008" y="47.3198" width="0.56" height="5.6" rx="0.28" fill="#AC6060"/>
<rect x="9.72339" y="47.7051" width="6.25619" height="0.464027" rx="0.232014" transform="rotate(-47 9.72339 47.7051)" fill="#AC6060"/>
<rect width="6.25619" height="0.464027" rx="0.232014" transform="matrix(0.681998 0.731354 0.731354 -0.681998 13.6003 43.3682)" fill="#AC6060"/>
<path d="M14 43.1196L14.102 43.0237C14.0755 42.9956 14.0386 42.9796 14 42.9796C13.9614 42.9796 13.9245 42.9956 13.8981 43.0237L14 43.1196ZM18.48 47.8796V48.0196C18.5359 48.0196 18.5864 47.9864 18.6085 47.9352C18.6307 47.8839 18.6202 47.8243 18.582 47.7837L18.48 47.8796ZM9.52002 47.8796L9.41807 47.7837C9.37979 47.8243 9.36935 47.8839 9.3915 47.9352C9.41366 47.9864 9.46417 48.0196 9.52002 48.0196V47.8796ZM10.387 47.8796H10.527C10.527 47.8023 10.4643 47.7396 10.387 47.7396V47.8796ZM10.387 52.9198H10.247C10.247 52.9971 10.3096 53.0598 10.387 53.0598V52.9198ZM17.6128 52.9198V53.0598C17.6901 53.0598 17.7528 52.9971 17.7528 52.9198H17.6128ZM17.6128 47.8796V47.7396C17.5354 47.7396 17.4728 47.8023 17.4728 47.8796H17.6128ZM13.8981 43.2156L18.3781 47.9756L18.582 47.7837L14.102 43.0237L13.8981 43.2156ZM9.62197 47.9756L14.102 43.2156L13.8981 43.0237L9.41807 47.7837L9.62197 47.9756ZM10.387 47.7396H9.52002V48.0196H10.387V47.7396ZM10.527 52.9198V47.8796H10.247V52.9198H10.527ZM17.6128 52.7798H10.387V53.0598H17.6128V52.7798ZM17.4728 47.8796V52.9198H17.7528V47.8796H17.4728ZM18.48 47.7396H17.6128V48.0196H18.48V47.7396Z" fill="#4A4A4A"/>
<rect x="13.2999" y="50.5399" width="1.4" height="2.24" rx="0.14" fill="#DF8337" stroke="#4A4A4A" stroke-width="0.28"/>
<rect x="13.4399" y="50.6797" width="0.14" height="1.96" fill="#A6642E"/>
<rect x="11.0227" y="49.377" width="1.68" height="1.4" rx="0.28" fill="#AC6060"/>
<rect x="15.5024" y="49.377" width="1.68" height="1.4" rx="0.28" fill="#AC6060"/>
<rect x="11.0599" y="49.4198" width="1.4" height="1.12" rx="0.14" fill="#FEFCF1" stroke="#4A4A4A" stroke-width="0.28" stroke-linecap="round" stroke-linejoin="round"/>
<rect x="15.5399" y="49.4198" width="1.4" height="1.12" rx="0.14" fill="#FEFCF1" stroke="#4A4A4A" stroke-width="0.28" stroke-linecap="round" stroke-linejoin="round"/>
<circle cx="14.1137" cy="46.5405" r="0.56" stroke="#AC6060" stroke-width="0.28"/>
<circle cx="13.9999" cy="46.4799" r="0.56" fill="#FEFCF1" stroke="#4A4A4A" stroke-width="0.28"/>
</g>
<rect x="2.94005" y="52.7801" width="22.12" height="0.28" rx="0.14" fill="#D8D8D8" stroke="#4A4A4A" stroke-width="0.28"/>
<rect width="28" height="28" fill="white"/>
<g clip-path="url(#clip13_1275_9171)">
<rect x="2.80005" y="22.1201" width="22.4" height="3.08" fill="#4A90E2"/>
<rect x="3.91968" y="22.6802" width="3.08" height="0.28" rx="0.14" fill="#3B73B3"/>
<rect x="5.87988" y="22.9604" width="3.08" height="0.28" rx="0.14" fill="#3B73B3"/>
<rect x="5.31958" y="23.2402" width="2.24" height="0.28" rx="0.14" fill="#3B73B3"/>
</g>
<rect x="2.94005" y="24.7801" width="22.12" height="0.28" rx="0.14" fill="#D8D8D8" stroke="#4A4A4A" stroke-width="0.28"/>
<g clip-path="url(#clip14_1275_9171)">
<path fill-rule="evenodd" clip-rule="evenodd" d="M9.26108 22.4004L11.4298 23.9152L10.5594 23.3041L13.2409 21.5015L16.7985 23.8049V24.9243H7.28027L9.26108 22.4004Z" fill="#D8D8D8" stroke="#4A4A4A" stroke-width="0.28" stroke-linecap="round" stroke-linejoin="round"/>
<path d="M25.0602 22.2008V24.7865H14.1871L14.8259 22.6026L16.1606 21.9755C16.1707 21.9707 16.1802 21.9647 16.189 21.9577L16.8548 21.4203H22.388L24.4388 21.7031L25.0602 22.2008Z" fill="#D8D8D8" stroke="#4A4A4A" stroke-width="0.28" stroke-linecap="round" stroke-linejoin="round"/>
<g clip-path="url(#clip15_1275_9171)">
<path fill-rule="evenodd" clip-rule="evenodd" d="M14.1835 22.2808C14.1835 22.2808 13.2128 22.5771 12.9764 22.912C12.7399 23.247 12.6524 23.593 12.5991 23.9255C12.5458 24.258 12.3167 24.7855 12.3167 24.7855H14.0481L14.6815 22.5993L14.1835 22.2808Z" fill="#9B9B9B" fill-opacity="0.816633"/>
<path fill-rule="evenodd" clip-rule="evenodd" d="M21.9746 22.0352L18.7603 24.6425H24.9181V22.9316L24.2815 22.2748L21.9746 22.0352Z" fill="#9B9B9B" fill-opacity="0.816633"/>
</g>
</g>
<g clip-path="url(#clip16_1275_9171)">
<circle cx="8.12019" cy="8.11994" r="1.68" fill="#E7CC68"/>
<circle opacity="0.3" cx="8.12007" cy="8.11982" r="2.8" fill="#E7CC68"/>
<circle opacity="0.15" cx="8.11995" cy="8.11971" r="3.92" fill="#E7CC68"/>
</g>
<g clip-path="url(#clip17_1275_9171)">
<path fill-rule="evenodd" clip-rule="evenodd" d="M3.0798 8.68018C2.92516 8.68018 2.7998 8.80554 2.7998 8.96018C2.7998 9.11482 2.92517 9.24018 3.07981 9.24018H6.9998C7.15444 9.24018 7.2798 9.11482 7.2798 8.96018C7.2798 8.80554 7.15444 8.68018 6.9998 8.68018H3.0798ZM4.75958 9.52018C4.75958 9.36554 4.88494 9.24018 5.03958 9.24018H8.39958C8.55422 9.24018 8.67958 9.36554 8.67958 9.52018C8.67958 9.67482 8.55422 9.80018 8.39958 9.80018H5.03958C4.88494 9.80018 4.75958 9.67482 4.75958 9.52018ZM3.91953 10.0803C3.91953 9.92566 4.04489 9.8003 4.19953 9.8003H7.55953C7.71417 9.8003 7.83953 9.92566 7.83953 10.0803C7.83953 10.2349 7.71417 10.3603 7.55953 10.3603H4.19953C4.04489 10.3603 3.91953 10.2349 3.91953 10.0803Z" fill="#E5EEF7"/>
<path fill-rule="evenodd" clip-rule="evenodd" d="M19.5999 7.56006C19.7545 7.56006 19.8799 7.68542 19.8799 7.84006C19.8799 7.9947 19.7545 8.12006 19.5999 8.12006H17.3674C17.5186 8.12391 17.6401 8.24776 17.6401 8.39997C17.6401 8.55461 17.5147 8.67997 17.3601 8.67997H14.0001C13.8455 8.67997 13.7201 8.55461 13.7201 8.39997C13.7201 8.24533 13.8455 8.11997 14.0001 8.11997H15.6726C15.5213 8.11611 15.3999 7.99227 15.3999 7.84006C15.3999 7.68542 15.5252 7.56006 15.6799 7.56006H19.5999Z" fill="#E5EEF7"/>
<path fill-rule="evenodd" clip-rule="evenodd" d="M7.55981 15.4836C7.55981 15.329 7.68517 15.2036 7.83981 15.2036H11.1998C11.3545 15.2036 11.4798 15.329 11.4798 15.4836C11.4798 15.6366 11.3572 15.7609 11.2049 15.7636H12.5996C12.7543 15.7636 12.8796 15.8889 12.8796 16.0436C12.8796 16.1982 12.7543 16.3236 12.5996 16.3236H8.67964C8.525 16.3236 8.39964 16.1982 8.39964 16.0436C8.39964 15.8906 8.52228 15.7663 8.6746 15.7636H7.83981C7.68517 15.7636 7.55981 15.6383 7.55981 15.4836ZM9.79981 16.6037C9.79981 16.4491 9.92517 16.3237 10.0798 16.3237H13.4398C13.5945 16.3237 13.7198 16.4491 13.7198 16.6037C13.7198 16.7583 13.5945 16.8837 13.4398 16.8837H10.0798C9.92517 16.8837 9.79981 16.7583 9.79981 16.6037Z" fill="#E5EEF7"/>
</g>
<g clip-path="url(#clip18_1275_9171)">
<g clip-path="url(#clip19_1275_9171)">
<path fill-rule="evenodd" clip-rule="evenodd" d="M17.6405 8.96045H21.5605L22.4038 21.5604H16.8044L17.6405 8.96045Z" fill="white"/>
<mask id="mask0_1275_9171" style="mask-type:alpha" maskUnits="userSpaceOnUse" x="16" y="8" width="7" height="14">
<path fill-rule="evenodd" clip-rule="evenodd" d="M17.6405 8.96045H21.5605L22.4038 21.5604H16.8044L17.6405 8.96045Z" fill="white"/>
</mask>
<g mask="url(#mask0_1275_9171)">
<path fill-rule="evenodd" clip-rule="evenodd" d="M22.3998 10.6406H16.7998V12.8806H22.3998V10.6406ZM16.7993 14.2808H22.3993V16.5208H16.7993V14.2808ZM16.7993 17.9208H22.3993V20.1608H16.7993V17.9208Z" fill="#EA7474"/>
</g>
</g>
<path fill-rule="evenodd" clip-rule="evenodd" d="M21.4567 9.24023H20.4425L19.6028 21.5475H22.2544L21.4567 9.24023Z" fill="black" fill-opacity="0.15"/>
<path d="M16.9533 21.4204L17.7708 9.10045H21.4289L22.2534 21.4204H16.9533Z" stroke="#4A4A4A" stroke-width="0.28" stroke-linecap="round" stroke-linejoin="round"/>
<rect x="16.9398" y="7.98033" width="5.32" height="1.12" rx="0.14" fill="#EA7474" stroke="#4A4A4A" stroke-width="0.28" stroke-linecap="round" stroke-linejoin="round"/>
<rect x="20.4397" y="8.12012" width="1.68" height="0.84" fill="#AC6060"/>
<rect x="17.7799" y="4.90025" width="3.64" height="3.08" fill="#FEFCF1" stroke="#4A4A4A" stroke-width="0.28" stroke-linecap="round" stroke-linejoin="round"/>
<rect x="20.4397" y="5.17676" width="0.84" height="2.66345" fill="#C9C8BF"/>
<path fill-rule="evenodd" clip-rule="evenodd" d="M19.5998 3.64014L22.3998 5.04014H16.7998L19.5998 3.64014Z" fill="#EA7474" stroke="#4A4A4A" stroke-width="0.28" stroke-linecap="round" stroke-linejoin="round"/>
<path d="M19.4596 3.08029C19.4596 3.00297 19.5223 2.94029 19.5996 2.94029C19.6769 2.94029 19.7396 3.00297 19.7396 3.08029V3.78029H19.4596V3.08029Z" fill="#D8D8D8" stroke="#4A4A4A" stroke-width="0.28" stroke-linecap="round" stroke-linejoin="round"/>
<g clip-path="url(#clip20_1275_9171)">
<rect x="19.1798" y="16.1004" width="0.84" height="1.4" rx="0.14" fill="#FEFCF1" stroke="#4A4A4A" stroke-width="0.28"/>
<rect x="19.1798" y="18.9003" width="0.84" height="1.4" rx="0.14" fill="#FEFCF1" stroke="#4A4A4A" stroke-width="0.28"/>
<rect x="19.1798" y="13.3002" width="0.84" height="1.4" rx="0.14" fill="#FEFCF1" stroke="#4A4A4A" stroke-width="0.28"/>
<rect x="19.1798" y="10.5004" width="0.84" height="1.4" rx="0.14" fill="#FEFCF1" stroke="#4A4A4A" stroke-width="0.28"/>
</g>
<path d="M18.8997 5.18004V7.71555" stroke="#4A4A4A" stroke-width="0.28" stroke-linecap="square"/>
<path d="M20.2999 5.18004V7.71555" stroke="#4A4A4A" stroke-width="0.28" stroke-linecap="square"/>
<path fill-rule="evenodd" clip-rule="evenodd" d="M19.5962 3.92236L20.4373 4.90065H21.8144L19.8789 3.92236H19.5962Z" fill="#AC6060"/>
</g>
<rect width="28" height="28" transform="translate(28 28)" fill="white"/>
<rect x="30.94" y="52.7801" width="22.12" height="0.28" rx="0.14" fill="#D8D8D8" stroke="#4A4A4A" stroke-width="0.28"/>
<g clip-path="url(#clip21_1275_9171)">
<rect x="48.1597" y="40.6001" width="4.2" height="12.04" fill="#F4F1F7"/>
<rect x="43.9597" y="38.6401" width="3.64" height="14" fill="#F4F1F7"/>
<rect x="39.7598" y="41.1602" width="2.8" height="11.48" fill="#F4F1F7"/>
</g>
<g clip-path="url(#clip22_1275_9171)">
<rect x="49" y="42" width="4.2" height="10.64" fill="#B6B0BB"/>
<rect x="46.2" y="45.3599" width="2.24" height="7.28" fill="#B6B0BB"/>
<rect x="42" y="43.3999" width="3.64" height="9.24" fill="#B6B0BB"/>
<rect x="37.52" y="42" width="3.64" height="10.64" fill="#B6B0BB"/>
</g>
<g clip-path="url(#clip23_1275_9171)">
<rect x="39.34" y="50.8202" width="13.72" height="2.24" stroke="#4A4A4A" stroke-width="0.28"/>
<g clip-path="url(#clip24_1275_9171)">
<path d="M39.3403 52.2202L40.1937 53.0736" stroke="#4A4A4A" stroke-width="0.14" stroke-linecap="round" stroke-linejoin="round"/>
<path d="M39.34 50.8202L41.58 53.0602" stroke="#4A4A4A" stroke-width="0.14" stroke-linecap="round" stroke-linejoin="round"/>
<path d="M50.5401 50.8202L52.7801 53.0602" stroke="#4A4A4A" stroke-width="0.14" stroke-linecap="round" stroke-linejoin="round"/>
<path d="M47.7403 50.8202L49.9803 53.0602" stroke="#4A4A4A" stroke-width="0.14" stroke-linecap="round" stroke-linejoin="round"/>
<path d="M44.9403 50.8202L47.1803 53.0602" stroke="#4A4A4A" stroke-width="0.14" stroke-linecap="round" stroke-linejoin="round"/>
<path d="M42.1402 50.8202L44.3802 53.0602" stroke="#4A4A4A" stroke-width="0.14" stroke-linecap="round" stroke-linejoin="round"/>
<path d="M40.7403 50.8202L42.9803 53.0602" stroke="#4A4A4A" stroke-width="0.14" stroke-linecap="round" stroke-linejoin="round"/>
<path d="M51.9402 50.8203L52.9915 51.8716" stroke="#4A4A4A" stroke-width="0.14" stroke-linecap="round" stroke-linejoin="round"/>
<path d="M49.1402 50.8202L51.3802 53.0602" stroke="#4A4A4A" stroke-width="0.14" stroke-linecap="round" stroke-linejoin="round"/>
<path d="M46.3402 50.8202L48.5802 53.0602" stroke="#4A4A4A" stroke-width="0.14" stroke-linecap="round" stroke-linejoin="round"/>
<path d="M43.5401 50.8202L45.7801 53.0602" stroke="#4A4A4A" stroke-width="0.14" stroke-linecap="round" stroke-linejoin="round"/>
</g>
<g clip-path="url(#clip25_1275_9171)">
<path d="M53.0605 51.9404L52.0092 52.9918" stroke="#4A4A4A" stroke-width="0.14" stroke-linecap="round" stroke-linejoin="round"/>
<path d="M52.7804 50.8202L50.5404 53.0602" stroke="#4A4A4A" stroke-width="0.14" stroke-linecap="round" stroke-linejoin="round"/>
<path d="M41.5805 50.8202L39.3405 53.0602" stroke="#4A4A4A" stroke-width="0.14" stroke-linecap="round" stroke-linejoin="round"/>
<path d="M44.3805 50.8202L42.1405 53.0602" stroke="#4A4A4A" stroke-width="0.14" stroke-linecap="round" stroke-linejoin="round"/>
<path d="M47.1803 50.8202L44.9403 53.0602" stroke="#4A4A4A" stroke-width="0.14" stroke-linecap="round" stroke-linejoin="round"/>
<path d="M49.9804 50.8202L47.7404 53.0602" stroke="#4A4A4A" stroke-width="0.14" stroke-linecap="round" stroke-linejoin="round"/>
<path d="M51.3805 50.8202L49.1405 53.0602" stroke="#4A4A4A" stroke-width="0.14" stroke-linecap="round" stroke-linejoin="round"/>
<path d="M40.1807 50.8203L39.3273 51.6736" stroke="#4A4A4A" stroke-width="0.14" stroke-linecap="round" stroke-linejoin="round"/>
<path d="M42.9804 50.8202L40.7404 53.0602" stroke="#4A4A4A" stroke-width="0.14" stroke-linecap="round" stroke-linejoin="round"/>
<path d="M45.7804 50.8202L43.5404 53.0602" stroke="#4A4A4A" stroke-width="0.14" stroke-linecap="round" stroke-linejoin="round"/>
<path d="M48.5805 50.8202L46.3405 53.0602" stroke="#4A4A4A" stroke-width="0.14" stroke-linecap="round" stroke-linejoin="round"/>
</g>
</g>
<g clip-path="url(#clip26_1275_9171)">
<path d="M30.9398 36.1198C30.9398 36.0425 31.0025 35.9798 31.0798 35.9798H39.1998C39.2771 35.9798 39.3398 36.0425 39.3398 36.1198V52.7798H30.9398V36.1198Z" fill="#EA7474" stroke="#4A4A4A" stroke-width="0.28"/>
<g clip-path="url(#clip27_1275_9171)">
<g clip-path="url(#clip28_1275_9171)">
<rect x="31.9197" y="37.2397" width="0.56" height="0.28" fill="#AC6060"/>
<rect x="31.0798" y="37.2397" width="0.28" height="0.28" fill="#AC6060"/>
<rect x="33.0398" y="37.2397" width="0.56" height="0.28" fill="#AC6060"/>
<rect x="34.1597" y="37.2397" width="0.56" height="0.28" fill="#AC6060"/>
<rect x="35.2798" y="37.2397" width="0.56" height="0.28" fill="#AC6060"/>
<rect x="36.3997" y="37.2397" width="0.56" height="0.28" fill="#AC6060"/>
<rect x="37.5198" y="37.2397" width="0.56" height="0.28" fill="#AC6060"/>
<rect x="38.6399" y="37.2397" width="0.56" height="0.28" fill="#AC6060"/>
</g>
<g clip-path="url(#clip29_1275_9171)">
<rect x="32.4797" y="38.0796" width="0.56" height="0.28" fill="#AC6060"/>
<rect x="31.3596" y="38.0796" width="0.56" height="0.28" fill="#AC6060"/>
<rect x="33.5999" y="38.0796" width="0.56" height="0.28" fill="#AC6060"/>
<rect x="34.7197" y="38.0796" width="0.56" height="0.28" fill="#AC6060"/>
<rect x="35.8398" y="38.0796" width="0.56" height="0.28" fill="#AC6060"/>
<rect x="36.9597" y="38.0796" width="0.56" height="0.28" fill="#AC6060"/>
<rect x="38.0798" y="38.0796" width="0.56" height="0.28" fill="#AC6060"/>
</g>
<g clip-path="url(#clip30_1275_9171)">
<rect x="33.0398" y="38.9199" width="0.56" height="0.28" fill="#AC6060"/>
<rect x="31.9197" y="38.9199" width="0.56" height="0.28" fill="#AC6060"/>
<rect x="31.0798" y="38.9199" width="0.28" height="0.28" fill="#AC6060"/>
<rect x="34.1597" y="38.9199" width="0.56" height="0.28" fill="#AC6060"/>
<rect x="35.2798" y="38.9199" width="0.56" height="0.28" fill="#AC6060"/>
<rect x="36.3997" y="38.9199" width="0.56" height="0.28" fill="#AC6060"/>
<rect x="37.5198" y="38.9199" width="0.56" height="0.28" fill="#AC6060"/>
<rect x="38.6399" y="38.9199" width="0.56" height="0.28" fill="#AC6060"/>
</g>
<g clip-path="url(#clip31_1275_9171)">
<rect x="31.3596" y="39.7598" width="0.56" height="0.28" fill="#AC6060"/>
<rect x="32.4797" y="39.7598" width="0.56" height="0.28" fill="#AC6060"/>
<rect x="33.5999" y="39.7598" width="0.56" height="0.28" fill="#AC6060"/>
<rect x="34.7197" y="39.7598" width="0.56" height="0.28" fill="#AC6060"/>
<rect x="35.8398" y="39.7598" width="0.56" height="0.28" fill="#AC6060"/>
<rect x="36.9597" y="39.7598" width="0.56" height="0.28" fill="#AC6060"/>
<rect x="38.0798" y="39.7598" width="0.56" height="0.28" fill="#AC6060"/>
</g>
<g clip-path="url(#clip32_1275_9171)">
<rect x="31.9197" y="40.5996" width="0.56" height="0.28" fill="#AC6060"/>
<rect x="31.0798" y="40.5996" width="0.28" height="0.28" fill="#AC6060"/>
<rect x="33.0398" y="40.5996" width="0.56" height="0.28" fill="#AC6060"/>
<rect x="34.1597" y="40.5996" width="0.56" height="0.28" fill="#AC6060"/>
<rect x="35.2798" y="40.5996" width="0.56" height="0.28" fill="#AC6060"/>
<rect x="36.3997" y="40.5996" width="0.56" height="0.28" fill="#AC6060"/>
<rect x="37.5198" y="40.5996" width="0.56" height="0.28" fill="#AC6060"/>
<rect x="38.6399" y="40.5996" width="0.56" height="0.28" fill="#AC6060"/>
</g>
<g clip-path="url(#clip33_1275_9171)">
<rect x="32.4797" y="41.4399" width="0.56" height="0.28" fill="#AC6060"/>
<rect x="31.3596" y="41.4399" width="0.56" height="0.28" fill="#AC6060"/>
<rect x="33.5999" y="41.4399" width="0.56" height="0.28" fill="#AC6060"/>
<rect x="34.7197" y="41.4399" width="0.56" height="0.28" fill="#AC6060"/>
<rect x="35.8398" y="41.4399" width="0.56" height="0.28" fill="#AC6060"/>
<rect x="36.9597" y="41.4399" width="0.56" height="0.28" fill="#AC6060"/>
<rect x="38.0798" y="41.4399" width="0.56" height="0.28" fill="#AC6060"/>
</g>
<g clip-path="url(#clip34_1275_9171)">
<rect x="33.0398" y="42.2798" width="0.56" height="0.28" fill="#AC6060"/>
<rect x="31.9197" y="42.2798" width="0.56" height="0.28" fill="#AC6060"/>
<rect x="31.0798" y="42.2798" width="0.28" height="0.28" fill="#AC6060"/>
<rect x="34.1597" y="42.2798" width="0.56" height="0.28" fill="#AC6060"/>
<rect x="35.2798" y="42.2798" width="0.56" height="0.28" fill="#AC6060"/>
<rect x="36.3997" y="42.2798" width="0.56" height="0.28" fill="#AC6060"/>
<rect x="37.5198" y="42.2798" width="0.56" height="0.28" fill="#AC6060"/>
<rect x="38.6399" y="42.2798" width="0.56" height="0.28" fill="#AC6060"/>
</g>
<g clip-path="url(#clip35_1275_9171)">
<rect x="31.3596" y="43.1196" width="0.56" height="0.28" fill="#AC6060"/>
<rect x="32.4797" y="43.1196" width="0.56" height="0.28" fill="#AC6060"/>
<rect x="33.5999" y="43.1196" width="0.56" height="0.28" fill="#AC6060"/>
<rect x="34.7197" y="43.1196" width="0.56" height="0.28" fill="#AC6060"/>
<rect x="35.8398" y="43.1196" width="0.56" height="0.28" fill="#AC6060"/>
<rect x="36.9597" y="43.1196" width="0.56" height="0.28" fill="#AC6060"/>
<rect x="38.0798" y="43.1196" width="0.56" height="0.28" fill="#AC6060"/>
</g>
<g clip-path="url(#clip36_1275_9171)">
<rect x="31.9197" y="43.96" width="0.56" height="0.28" fill="#AC6060"/>
<rect x="31.0798" y="43.96" width="0.28" height="0.28" fill="#AC6060"/>
<rect x="33.0398" y="43.96" width="0.56" height="0.28" fill="#AC6060"/>
<rect x="34.1597" y="43.96" width="0.56" height="0.28" fill="#AC6060"/>
<rect x="35.2798" y="43.96" width="0.56" height="0.28" fill="#AC6060"/>
<rect x="36.3997" y="43.96" width="0.56" height="0.28" fill="#AC6060"/>
<rect x="37.5198" y="43.96" width="0.56" height="0.28" fill="#AC6060"/>
<rect x="38.6399" y="43.96" width="0.56" height="0.28" fill="#AC6060"/>
</g>
<g clip-path="url(#clip37_1275_9171)">
<rect x="32.4797" y="44.7998" width="0.56" height="0.28" fill="#AC6060"/>
<rect x="31.3596" y="44.7998" width="0.56" height="0.28" fill="#AC6060"/>
<rect x="33.5999" y="44.7998" width="0.56" height="0.28" fill="#AC6060"/>
<rect x="34.7197" y="44.7998" width="0.56" height="0.28" fill="#AC6060"/>
<rect x="35.8398" y="44.7998" width="0.56" height="0.28" fill="#AC6060"/>
<rect x="36.9597" y="44.7998" width="0.56" height="0.28" fill="#AC6060"/>
<rect x="38.0798" y="44.7998" width="0.56" height="0.28" fill="#AC6060"/>
</g>
<g clip-path="url(#clip38_1275_9171)">
<rect x="33.0398" y="45.6396" width="0.56" height="0.28" fill="#AC6060"/>
<rect x="31.9197" y="45.6396" width="0.56" height="0.28" fill="#AC6060"/>
<rect x="31.0798" y="45.6396" width="0.28" height="0.28" fill="#AC6060"/>
<rect x="34.1597" y="45.6396" width="0.56" height="0.28" fill="#AC6060"/>
<rect x="35.2798" y="45.6396" width="0.56" height="0.28" fill="#AC6060"/>
<rect x="36.3997" y="45.6396" width="0.56" height="0.28" fill="#AC6060"/>
<rect x="37.5198" y="45.6396" width="0.56" height="0.28" fill="#AC6060"/>
<rect x="38.6399" y="45.6396" width="0.56" height="0.28" fill="#AC6060"/>
</g>
<g clip-path="url(#clip39_1275_9171)">
<rect x="31.3596" y="46.48" width="0.56" height="0.28" fill="#AC6060"/>
<rect x="32.4797" y="46.48" width="0.56" height="0.28" fill="#AC6060"/>
<rect x="33.5999" y="46.48" width="0.56" height="0.28" fill="#AC6060"/>
<rect x="34.7197" y="46.48" width="0.56" height="0.28" fill="#AC6060"/>
<rect x="35.8398" y="46.48" width="0.56" height="0.28" fill="#AC6060"/>
<rect x="36.9597" y="46.48" width="0.56" height="0.28" fill="#AC6060"/>
<rect x="38.0798" y="46.48" width="0.56" height="0.28" fill="#AC6060"/>
</g>
<g clip-path="url(#clip40_1275_9171)">
<rect x="31.9197" y="47.3198" width="0.56" height="0.28" fill="#AC6060"/>
<rect x="31.0798" y="47.3198" width="0.28" height="0.28" fill="#AC6060"/>
<rect x="33.0398" y="47.3198" width="0.56" height="0.28" fill="#AC6060"/>
<rect x="34.1597" y="47.3198" width="0.56" height="0.28" fill="#AC6060"/>
<rect x="35.2798" y="47.3198" width="0.56" height="0.28" fill="#AC6060"/>
<rect x="36.3997" y="47.3198" width="0.56" height="0.28" fill="#AC6060"/>
<rect x="37.5198" y="47.3198" width="0.56" height="0.28" fill="#AC6060"/>
<rect x="38.6399" y="47.3198" width="0.56" height="0.28" fill="#AC6060"/>
</g>
<g clip-path="url(#clip41_1275_9171)">
<rect x="32.4797" y="48.1597" width="0.56" height="0.28" fill="#AC6060"/>
<rect x="31.3596" y="48.1597" width="0.56" height="0.28" fill="#AC6060"/>
<rect x="33.5999" y="48.1597" width="0.56" height="0.28" fill="#AC6060"/>
<rect x="34.7197" y="48.1597" width="0.56" height="0.28" fill="#AC6060"/>
<rect x="35.8398" y="48.1597" width="0.56" height="0.28" fill="#AC6060"/>
<rect x="36.9597" y="48.1597" width="0.56" height="0.28" fill="#AC6060"/>
<rect x="38.0798" y="48.1597" width="0.56" height="0.28" fill="#AC6060"/>
</g>
<g clip-path="url(#clip42_1275_9171)">
<rect x="33.0398" y="49" width="0.56" height="0.28" fill="#AC6060"/>
<rect x="31.9197" y="49" width="0.56" height="0.28" fill="#AC6060"/>
<rect x="31.0798" y="49" width="0.28" height="0.28" fill="#AC6060"/>
<rect x="34.1597" y="49" width="0.56" height="0.28" fill="#AC6060"/>
<rect x="35.2798" y="49" width="0.56" height="0.28" fill="#AC6060"/>
<rect x="36.3997" y="49" width="0.56" height="0.28" fill="#AC6060"/>
<rect x="37.5198" y="49" width="0.56" height="0.28" fill="#AC6060"/>
<rect x="38.6399" y="49" width="0.56" height="0.28" fill="#AC6060"/>
</g>
<g clip-path="url(#clip43_1275_9171)">
<rect x="31.3596" y="49.8398" width="0.56" height="0.28" fill="#AC6060"/>
<rect x="32.4797" y="49.8398" width="0.56" height="0.28" fill="#AC6060"/>
<rect x="33.5999" y="49.8398" width="0.56" height="0.28" fill="#AC6060"/>
<rect x="34.7197" y="49.8398" width="0.56" height="0.28" fill="#AC6060"/>
<rect x="35.8398" y="49.8398" width="0.56" height="0.28" fill="#AC6060"/>
<rect x="36.9597" y="49.8398" width="0.56" height="0.28" fill="#AC6060"/>
<rect x="38.0798" y="49.8398" width="0.56" height="0.28" fill="#AC6060"/>
</g>
<g clip-path="url(#clip44_1275_9171)">
<rect x="31.9197" y="50.6797" width="0.56" height="0.28" fill="#AC6060"/>
<rect x="31.0798" y="50.6797" width="0.28" height="0.28" fill="#AC6060"/>
<rect x="33.0398" y="50.6797" width="0.56" height="0.28" fill="#AC6060"/>
<rect x="34.1597" y="50.6797" width="0.56" height="0.28" fill="#AC6060"/>
<rect x="35.2798" y="50.6797" width="0.56" height="0.28" fill="#AC6060"/>
<rect x="36.3997" y="50.6797" width="0.56" height="0.28" fill="#AC6060"/>
<rect x="37.5198" y="50.6797" width="0.56" height="0.28" fill="#AC6060"/>
<rect x="38.6399" y="50.6797" width="0.56" height="0.28" fill="#AC6060"/>
</g>
<g clip-path="url(#clip45_1275_9171)">
<rect x="32.4797" y="51.5195" width="0.56" height="0.28" fill="#AC6060"/>
<rect x="31.3596" y="51.5195" width="0.56" height="0.28" fill="#AC6060"/>
<rect x="33.5999" y="51.5195" width="0.56" height="0.28" fill="#AC6060"/>
<rect x="34.7197" y="51.5195" width="0.56" height="0.28" fill="#AC6060"/>
<rect x="35.8398" y="51.5195" width="0.56" height="0.28" fill="#AC6060"/>
<rect x="36.9597" y="51.5195" width="0.56" height="0.28" fill="#AC6060"/>
<rect x="38.0798" y="51.5195" width="0.56" height="0.28" fill="#AC6060"/>
</g>
<g clip-path="url(#clip46_1275_9171)">
<rect x="33.0398" y="52.3599" width="0.56" height="0.28" fill="#AC6060"/>
<rect x="31.9197" y="52.3599" width="0.56" height="0.28" fill="#AC6060"/>
<rect x="34.1597" y="52.3599" width="0.56" height="0.28" fill="#AC6060"/>
<rect x="35.2798" y="52.3599" width="0.56" height="0.28" fill="#AC6060"/>
<rect x="36.3997" y="52.3599" width="0.56" height="0.28" fill="#AC6060"/>
<rect x="37.5198" y="52.3599" width="0.56" height="0.28" fill="#AC6060"/>
<rect x="38.6399" y="52.3599" width="0.56" height="0.28" fill="#AC6060"/>
</g>
</g>
<g clip-path="url(#clip47_1275_9171)">
<mask id="path-254-inside-1_1275_9171" fill="white">
<path fill-rule="evenodd" clip-rule="evenodd" d="M34.7202 36.96C34.5655 36.96 34.4402 37.0853 34.4402 37.24V38.64C34.4402 38.7946 34.5655 38.92 34.7202 38.92H35.5602C35.7148 38.92 35.8402 38.7946 35.8402 38.64V37.24C35.8402 37.0853 35.7148 36.96 35.5602 36.96H34.7202ZM32.4797 36.96C32.3251 36.96 32.1997 37.0853 32.1997 37.24V38.64C32.1997 38.7946 32.3251 38.92 32.4797 38.92H33.3197C33.4743 38.92 33.5997 38.7946 33.5997 38.64V37.24C33.5997 37.0853 33.4743 36.96 33.3197 36.96H32.4797ZM36.6801 37.24C36.6801 37.0853 36.8055 36.96 36.9601 36.96H37.8001C37.9547 36.96 38.0801 37.0853 38.0801 37.24V38.64C38.0801 38.7946 37.9547 38.92 37.8001 38.92H36.9601C36.8055 38.92 36.6801 38.7946 36.6801 38.64V37.24ZM32.4799 40.5999C32.3253 40.5999 32.1999 40.7253 32.1999 40.8799V42.2799C32.1999 42.4346 32.3253 42.5599 32.4799 42.5599H33.3199C33.4746 42.5599 33.5999 42.4346 33.5999 42.2799V40.8799C33.5999 40.7253 33.4746 40.5999 33.3199 40.5999H32.4799ZM34.4402 40.8799C34.4402 40.7253 34.5655 40.5999 34.7202 40.5999H35.5602C35.7148 40.5999 35.8402 40.7253 35.8402 40.8799V42.2799C35.8402 42.4346 35.7148 42.5599 35.5602 42.5599H34.7202C34.5655 42.5599 34.4402 42.4346 34.4402 42.2799V40.8799ZM36.9601 40.5999C36.8055 40.5999 36.6801 40.7253 36.6801 40.8799V42.2799C36.6801 42.4346 36.8055 42.5599 36.9601 42.5599H37.8001C37.9547 42.5599 38.0801 42.4346 38.0801 42.2799V40.8799C38.0801 40.7253 37.9547 40.5999 37.8001 40.5999H36.9601ZM32.1999 44.52C32.1999 44.3654 32.3253 44.24 32.4799 44.24H33.3199C33.4746 44.24 33.5999 44.3654 33.5999 44.52V45.92C33.5999 46.0747 33.4746 46.2 33.3199 46.2H32.4799C32.3253 46.2 32.1999 46.0747 32.1999 45.92V44.52ZM34.7202 44.24C34.5655 44.24 34.4402 44.3654 34.4402 44.52V45.92C34.4402 46.0747 34.5655 46.2 34.7202 46.2H35.5602C35.7148 46.2 35.8402 46.0747 35.8402 45.92V44.52C35.8402 44.3654 35.7148 44.24 35.5602 44.24H34.7202ZM36.6801 44.52C36.6801 44.3654 36.8055 44.24 36.9601 44.24H37.8001C37.9547 44.24 38.0801 44.3654 38.0801 44.52V45.92C38.0801 46.0747 37.9547 46.2 37.8001 46.2H36.9601C36.8055 46.2 36.6801 46.0747 36.6801 45.92V44.52ZM32.4799 47.88C32.3253 47.88 32.1999 48.0053 32.1999 48.16V49.56C32.1999 49.7146 32.3253 49.84 32.4799 49.84H33.3199C33.4746 49.84 33.5999 49.7146 33.5999 49.56V48.16C33.5999 48.0053 33.4746 47.88 33.3199 47.88H32.4799ZM34.4402 48.16C34.4402 48.0053 34.5655 47.88 34.7202 47.88H35.5602C35.7148 47.88 35.8402 48.0053 35.8402 48.16V49.56C35.8402 49.7146 35.7148 49.84 35.5602 49.84H34.7202C34.5655 49.84 34.4402 49.7146 34.4402 49.56V48.16ZM36.9601 47.88C36.8055 47.88 36.6801 48.0053 36.6801 48.16V49.56C36.6801 49.7146 36.8055 49.84 36.9601 49.84H37.8001C37.9547 49.84 38.0801 49.7146 38.0801 49.56V48.16C38.0801 48.0053 37.9547 47.88 37.8001 47.88H36.9601Z"/>
</mask>
<path fill-rule="evenodd" clip-rule="evenodd" d="M34.7202 36.96C34.5655 36.96 34.4402 37.0853 34.4402 37.24V38.64C34.4402 38.7946 34.5655 38.92 34.7202 38.92H35.5602C35.7148 38.92 35.8402 38.7946 35.8402 38.64V37.24C35.8402 37.0853 35.7148 36.96 35.5602 36.96H34.7202ZM32.4797 36.96C32.3251 36.96 32.1997 37.0853 32.1997 37.24V38.64C32.1997 38.7946 32.3251 38.92 32.4797 38.92H33.3197C33.4743 38.92 33.5997 38.7946 33.5997 38.64V37.24C33.5997 37.0853 33.4743 36.96 33.3197 36.96H32.4797ZM36.6801 37.24C36.6801 37.0853 36.8055 36.96 36.9601 36.96H37.8001C37.9547 36.96 38.0801 37.0853 38.0801 37.24V38.64C38.0801 38.7946 37.9547 38.92 37.8001 38.92H36.9601C36.8055 38.92 36.6801 38.7946 36.6801 38.64V37.24ZM32.4799 40.5999C32.3253 40.5999 32.1999 40.7253 32.1999 40.8799V42.2799C32.1999 42.4346 32.3253 42.5599 32.4799 42.5599H33.3199C33.4746 42.5599 33.5999 42.4346 33.5999 42.2799V40.8799C33.5999 40.7253 33.4746 40.5999 33.3199 40.5999H32.4799ZM34.4402 40.8799C34.4402 40.7253 34.5655 40.5999 34.7202 40.5999H35.5602C35.7148 40.5999 35.8402 40.7253 35.8402 40.8799V42.2799C35.8402 42.4346 35.7148 42.5599 35.5602 42.5599H34.7202C34.5655 42.5599 34.4402 42.4346 34.4402 42.2799V40.8799ZM36.9601 40.5999C36.8055 40.5999 36.6801 40.7253 36.6801 40.8799V42.2799C36.6801 42.4346 36.8055 42.5599 36.9601 42.5599H37.8001C37.9547 42.5599 38.0801 42.4346 38.0801 42.2799V40.8799C38.0801 40.7253 37.9547 40.5999 37.8001 40.5999H36.9601ZM32.1999 44.52C32.1999 44.3654 32.3253 44.24 32.4799 44.24H33.3199C33.4746 44.24 33.5999 44.3654 33.5999 44.52V45.92C33.5999 46.0747 33.4746 46.2 33.3199 46.2H32.4799C32.3253 46.2 32.1999 46.0747 32.1999 45.92V44.52ZM34.7202 44.24C34.5655 44.24 34.4402 44.3654 34.4402 44.52V45.92C34.4402 46.0747 34.5655 46.2 34.7202 46.2H35.5602C35.7148 46.2 35.8402 46.0747 35.8402 45.92V44.52C35.8402 44.3654 35.7148 44.24 35.5602 44.24H34.7202ZM36.6801 44.52C36.6801 44.3654 36.8055 44.24 36.9601 44.24H37.8001C37.9547 44.24 38.0801 44.3654 38.0801 44.52V45.92C38.0801 46.0747 37.9547 46.2 37.8001 46.2H36.9601C36.8055 46.2 36.6801 46.0747 36.6801 45.92V44.52ZM32.4799 47.88C32.3253 47.88 32.1999 48.0053 32.1999 48.16V49.56C32.1999 49.7146 32.3253 49.84 32.4799 49.84H33.3199C33.4746 49.84 33.5999 49.7146 33.5999 49.56V48.16C33.5999 48.0053 33.4746 47.88 33.3199 47.88H32.4799ZM34.4402 48.16C34.4402 48.0053 34.5655 47.88 34.7202 47.88H35.5602C35.7148 47.88 35.8402 48.0053 35.8402 48.16V49.56C35.8402 49.7146 35.7148 49.84 35.5602 49.84H34.7202C34.5655 49.84 34.4402 49.7146 34.4402 49.56V48.16ZM36.9601 47.88C36.8055 47.88 36.6801 48.0053 36.6801 48.16V49.56C36.6801 49.7146 36.8055 49.84 36.9601 49.84H37.8001C37.9547 49.84 38.0801 49.7146 38.0801 49.56V48.16C38.0801 48.0053 37.9547 47.88 37.8001 47.88H36.9601Z" fill="#FEFCF1"/>
<path d="M34.7202 37.24V37.24V36.68C34.4109 36.68 34.1602 36.9307 34.1602 37.24H34.7202ZM34.7202 38.64V37.24H34.1602V38.64H34.7202ZM34.7202 38.64L34.7202 38.64H34.1602C34.1602 38.9492 34.4109 39.2 34.7202 39.2V38.64ZM35.5602 38.64H34.7202V39.2H35.5602V38.64ZM35.5602 38.64H35.5602V39.2C35.8694 39.2 36.1202 38.9492 36.1202 38.64H35.5602ZM35.5602 37.24V38.64H36.1202V37.24H35.5602ZM35.5602 37.24H35.5602H36.1202C36.1202 36.9307 35.8694 36.68 35.5602 36.68V37.24ZM34.7202 37.24H35.5602V36.68H34.7202V37.24ZM32.4797 37.24L32.4797 37.24V36.68C32.1704 36.68 31.9197 36.9307 31.9197 37.24H32.4797ZM32.4797 38.64V37.24H31.9197V38.64H32.4797ZM32.4797 38.64L32.4797 38.64H31.9197C31.9197 38.9492 32.1704 39.2 32.4797 39.2V38.64ZM33.3197 38.64H32.4797V39.2H33.3197V38.64ZM33.3197 38.64V39.2C33.629 39.2 33.8797 38.9492 33.8797 38.64H33.3197ZM33.3197 37.24V38.64H33.8797V37.24H33.3197ZM33.3197 37.24L33.3197 37.24H33.8797C33.8797 36.9307 33.629 36.68 33.3197 36.68V37.24ZM32.4797 37.24H33.3197V36.68H32.4797V37.24ZM36.9601 36.68C36.6508 36.68 36.4001 36.9307 36.4001 37.24H36.9601V37.24V36.68ZM37.8001 36.68H36.9601V37.24H37.8001V36.68ZM38.3601 37.24C38.3601 36.9307 38.1094 36.68 37.8001 36.68V37.24H37.8001H38.3601ZM38.3601 38.64V37.24H37.8001V38.64H38.3601ZM37.8001 39.2C38.1094 39.2 38.3601 38.9492 38.3601 38.64H37.8001V39.2ZM36.9601 39.2H37.8001V38.64H36.9601V39.2ZM36.4001 38.64C36.4001 38.9492 36.6508 39.2 36.9601 39.2V38.64L36.9601 38.64H36.4001ZM36.4001 37.24V38.64H36.9601V37.24H36.4001ZM32.4799 40.8799V40.8799V40.3199C32.1707 40.3199 31.9199 40.5706 31.9199 40.8799H32.4799ZM32.4799 42.2799V40.8799H31.9199V42.2799H32.4799ZM32.4799 42.2799L32.4799 42.2799H31.9199C31.9199 42.5892 32.1707 42.8399 32.4799 42.8399V42.2799ZM33.3199 42.2799H32.4799V42.8399H33.3199V42.2799ZM33.3199 42.2799L33.3199 42.2799V42.8399C33.6292 42.8399 33.8799 42.5892 33.8799 42.2799H33.3199ZM33.3199 40.8799V42.2799H33.8799V40.8799H33.3199ZM33.3199 40.8799H33.3199H33.8799C33.8799 40.5706 33.6292 40.3199 33.3199 40.3199V40.8799ZM32.4799 40.8799H33.3199V40.3199H32.4799V40.8799ZM34.7202 40.3199C34.4109 40.3199 34.1602 40.5706 34.1602 40.8799H34.7202V40.8799V40.3199ZM35.5602 40.3199H34.7202V40.8799H35.5602V40.3199ZM36.1202 40.8799C36.1202 40.5706 35.8694 40.3199 35.5602 40.3199V40.8799H35.5602H36.1202ZM36.1202 42.2799V40.8799H35.5602V42.2799H36.1202ZM35.5602 42.8399C35.8694 42.8399 36.1202 42.5892 36.1202 42.2799H35.5602L35.5602 42.2799V42.8399ZM34.7202 42.8399H35.5602V42.2799H34.7202V42.8399ZM34.1602 42.2799C34.1602 42.5892 34.4109 42.8399 34.7202 42.8399V42.2799L34.7202 42.2799H34.1602ZM34.1602 40.8799V42.2799H34.7202V40.8799H34.1602ZM36.9601 40.8799V40.8799V40.3199C36.6508 40.3199 36.4001 40.5706 36.4001 40.8799H36.9601ZM36.9601 42.2799V40.8799H36.4001V42.2799H36.9601ZM36.9601 42.2799L36.9601 42.2799H36.4001C36.4001 42.5892 36.6508 42.8399 36.9601 42.8399V42.2799ZM37.8001 42.2799H36.9601V42.8399H37.8001V42.2799ZM37.8001 42.2799V42.2799V42.8399C38.1094 42.8399 38.3601 42.5892 38.3601 42.2799H37.8001ZM37.8001 40.8799V42.2799H38.3601V40.8799H37.8001ZM37.8001 40.8799H37.8001H38.3601C38.3601 40.5706 38.1094 40.3199 37.8001 40.3199V40.8799ZM36.9601 40.8799H37.8001V40.3199H36.9601V40.8799ZM32.4799 43.96C32.1707 43.96 31.9199 44.2107 31.9199 44.52H32.4799V43.96ZM33.3199 43.96H32.4799V44.52H33.3199V43.96ZM33.8799 44.52C33.8799 44.2107 33.6292 43.96 33.3199 43.96V44.52H33.3199H33.8799ZM33.8799 45.92V44.52H33.3199V45.92H33.8799ZM33.3199 46.48C33.6292 46.48 33.8799 46.2293 33.8799 45.92H33.3199H33.3199V46.48ZM32.4799 46.48H33.3199V45.92H32.4799V46.48ZM31.9199 45.92C31.9199 46.2293 32.1707 46.48 32.4799 46.48V45.92H32.4799H31.9199ZM31.9199 44.52V45.92H32.4799V44.52H31.9199ZM34.7202 44.52V43.96C34.4109 43.96 34.1602 44.2107 34.1602 44.52H34.7202ZM34.7202 45.92V44.52H34.1602V45.92H34.7202ZM34.7202 45.92H34.7202H34.1602C34.1602 46.2293 34.4109 46.48 34.7202 46.48V45.92ZM35.5602 45.92H34.7202V46.48H35.5602V45.92ZM35.5602 45.92H35.5602V46.48C35.8694 46.48 36.1202 46.2293 36.1202 45.92H35.5602ZM35.5602 44.52V45.92H36.1202V44.52H35.5602ZM35.5602 44.52H35.5602H36.1202C36.1202 44.2107 35.8694 43.96 35.5602 43.96V44.52ZM34.7202 44.52H35.5602V43.96H34.7202V44.52ZM36.9601 43.96C36.6508 43.96 36.4001 44.2107 36.4001 44.52H36.9601V43.96ZM37.8001 43.96H36.9601V44.52H37.8001V43.96ZM38.3601 44.52C38.3601 44.2107 38.1094 43.96 37.8001 43.96V44.52H37.8001H38.3601ZM38.3601 45.92V44.52H37.8001V45.92H38.3601ZM37.8001 46.48C38.1094 46.48 38.3601 46.2293 38.3601 45.92H37.8001V46.48ZM36.9601 46.48H37.8001V45.92H36.9601V46.48ZM36.4001 45.92C36.4001 46.2293 36.6508 46.48 36.9601 46.48V45.92H36.9601H36.4001ZM36.4001 44.52V45.92H36.9601V44.52H36.4001ZM32.4799 48.16V47.6C32.1707 47.6 31.9199 47.8507 31.9199 48.16H32.4799ZM32.4799 49.56V48.16H31.9199V49.56H32.4799ZM32.4799 49.56H32.4799H31.9199C31.9199 49.8693 32.1707 50.12 32.4799 50.12V49.56ZM33.3199 49.56H32.4799V50.12H33.3199V49.56ZM33.3199 49.56H33.3199V50.12C33.6292 50.12 33.8799 49.8693 33.8799 49.56H33.3199ZM33.3199 48.16V49.56H33.8799V48.16H33.3199ZM33.3199 48.16H33.3199H33.8799C33.8799 47.8507 33.6292 47.6 33.3199 47.6V48.16ZM32.4799 48.16H33.3199V47.6H32.4799V48.16ZM34.7202 47.6C34.4109 47.6 34.1602 47.8507 34.1602 48.16H34.7202V47.6ZM35.5602 47.6H34.7202V48.16H35.5602V47.6ZM36.1202 48.16C36.1202 47.8507 35.8694 47.6 35.5602 47.6V48.16H35.5602H36.1202ZM36.1202 49.56V48.16H35.5602V49.56H36.1202ZM35.5602 50.12C35.8694 50.12 36.1202 49.8693 36.1202 49.56H35.5602H35.5602V50.12ZM34.7202 50.12H35.5602V49.56H34.7202V50.12ZM34.1602 49.56C34.1602 49.8693 34.4109 50.12 34.7202 50.12V49.56H34.7202H34.1602ZM34.1602 48.16V49.56H34.7202V48.16H34.1602ZM36.9601 48.16V47.6C36.6508 47.6 36.4001 47.8507 36.4001 48.16H36.9601ZM36.9601 49.56V48.16H36.4001V49.56H36.9601ZM36.9601 49.56H36.9601H36.4001C36.4001 49.8693 36.6508 50.12 36.9601 50.12V49.56ZM37.8001 49.56H36.9601V50.12H37.8001V49.56ZM37.8001 49.56V50.12C38.1094 50.12 38.3601 49.8693 38.3601 49.56H37.8001ZM37.8001 48.16V49.56H38.3601V48.16H37.8001ZM37.8001 48.16H37.8001H38.3601C38.3601 47.8507 38.1094 47.6 37.8001 47.6V48.16ZM36.9601 48.16H37.8001V47.6H36.9601V48.16Z" fill="#4A4A4A" mask="url(#path-254-inside-1_1275_9171)"/>
<path fill-rule="evenodd" clip-rule="evenodd" d="M34.7202 37.2417H34.8602V37.2418H35.5602V37.3818H34.8602V38.6417H34.7202V37.3818V37.2418V37.2417ZM32.4802 37.2419H32.6202V37.2424H33.3202V37.3824H32.6202V38.6419H32.4802V37.3824V37.2424V37.2419ZM32.4803 40.8817H32.6203V40.8818H33.3203V41.0218H32.6203V42.2817H32.4803V41.0218V40.8818V40.8817ZM32.4803 44.5218H32.6203V44.5219H33.3203V44.6619H32.6203V45.9218H32.4803V44.6619V44.5219V44.5218ZM32.6203 48.1617H32.4803V48.1619V48.3019V49.5617H32.6203V48.3019H33.3203V48.1619H32.6203V48.1617ZM34.7202 48.1617H34.8602V48.1619H35.5602V48.3019H34.8602V49.5617H34.7202V48.3019V48.1619V48.1617ZM36.9604 48.1617H37.1004V48.1619H37.8004V48.3019H37.1004V49.5617H36.9604V48.3019V48.1619V48.1617ZM34.7202 44.5218H34.8602V44.5219H35.5602V44.6619H34.8602V45.9218H34.7202V44.6619V44.5219V44.5218ZM36.9604 44.5218H37.1004V44.5219H37.8004V44.6619H37.1004V45.9218H36.9604V44.6619V44.5219V44.5218ZM34.7202 40.8817H34.8602V40.8818H35.5602V41.0218H34.8602V42.2817H34.7202V41.0218V40.8818V40.8817ZM36.9604 40.8817H37.1004V40.8818H37.8004V41.0218H37.1004V42.2817H36.9604V41.0218V40.8818V40.8817ZM36.9604 37.2417H37.1004V37.2418H37.8004V37.3818H37.1004V38.6417H36.9604V37.3818V37.2418V37.2417Z" fill="#BEBCB4"/>
</g>
<g clip-path="url(#clip48_1275_9171)">
<rect x="34.0199" y="50.5399" width="2.24" height="2.24" rx="0.14" fill="#FEFCF1" stroke="#4A4A4A" stroke-width="0.28"/>
<path fill-rule="evenodd" clip-rule="evenodd" d="M36.1198 50.6797H34.2998V50.6798H34.1599V52.6398H34.2999V50.8197H36.1198V50.6797Z" fill="#BEBCB4"/>
<rect x="35.0698" y="50.6763" width="0.14" height="1.96" fill="#4A4A4A"/>
</g>
<path fill-rule="evenodd" clip-rule="evenodd" d="M39.1997 36.1196H31.3597V36.3996H39.1997V36.1196ZM31.3587 36.1196H31.0798V52.6396H31.3587V36.1196Z" fill="#AC6060"/>
<g clip-path="url(#clip49_1275_9171)">
<rect x="39.2803" y="42.8398" width="1.59973" height="0.28" rx="0.14" fill="#4A4A4A"/>
<rect x="39.2803" y="39.1997" width="1.59973" height="0.28" rx="0.14" fill="#4A4A4A"/>
<rect x="39.2803" y="46.48" width="1.59973" height="0.28" rx="0.14" fill="#4A4A4A"/>
<rect x="39.2803" y="50.1196" width="1.59973" height="0.28" rx="0.14" fill="#4A4A4A"/>
<path fill-rule="evenodd" clip-rule="evenodd" d="M40.4601 50.1797V46.7393H40.3201V47.3197H39.4802V47.4597H40.3201V47.8797H39.4802V48.0197H40.3201V48.4396H39.4802V48.5796H40.3201V48.9996H39.4802V49.1396H40.3201V49.5596H39.4802V49.6996H40.3201V50.1797H40.4601Z" fill="#4A4A4A"/>
<path fill-rule="evenodd" clip-rule="evenodd" d="M40.4601 46.5396V43.0991H40.3201V43.6795H39.4802V43.8195H40.3201V44.2395H39.4802V44.3795H40.3201V44.7995H39.4802V44.9395H40.3201V45.3595H39.4802V45.4995H40.3201V45.9195H39.4802V46.0595H40.3201V46.5396H40.4601Z" fill="#4A4A4A"/>
<path fill-rule="evenodd" clip-rule="evenodd" d="M40.4601 42.8999V39.4595H40.3201V40.0399H39.4802V40.1799H40.3201V40.5999H39.4802V40.7399H40.3201V41.1599H39.4802V41.2999H40.3201V41.7198H39.4802V41.8598H40.3201V42.2798H39.4802V42.4198H40.3201V42.8999H40.4601Z" fill="#4A4A4A"/>
</g>
<g clip-path="url(#clip50_1275_9171)">
<rect x="35.4198" y="34.8597" width="2.8" height="1.12" rx="0.14" fill="#D8D8D8" stroke="#4A4A4A" stroke-width="0.28"/>
<rect x="35.5601" y="35" width="0.28" height="0.84" fill="#9B9B9B"/>
</g>
</g>
<g clip-path="url(#clip51_1275_9171)">
<rect x="41.8597" y="48.0204" width="6.16" height="4.76" fill="#D8D8D8" stroke="#4A4A4A" stroke-width="0.28"/>
<g clip-path="url(#clip52_1275_9171)">
<rect x="45.2198" y="50.5404" width="2.24" height="2.24" rx="0.14" fill="#FEFCF1" stroke="#4A4A4A" stroke-width="0.28"/>
<path fill-rule="evenodd" clip-rule="evenodd" d="M47.3198 50.6802H45.4998V50.8202H47.3198V50.6802ZM45.4996 50.6803H45.3596V52.6403H45.4996V50.6803Z" fill="#BEBCB4"/>
<rect x="46.2698" y="50.6768" width="0.14" height="1.96" fill="#4A4A4A"/>
</g>
<g clip-path="url(#clip53_1275_9171)">
<rect x="42.4198" y="50.5404" width="2.24" height="1.68" rx="0.14" fill="#FEFCF1" stroke="#4A4A4A" stroke-width="0.28"/>
<path fill-rule="evenodd" clip-rule="evenodd" d="M42.7001 50.6802H42.5601V52.0802H42.7001V50.6802ZM44.5202 50.6823H42.7002V50.8223H44.5202V50.6823Z" fill="#BEBCB4"/>
</g>
<rect x="42.0698" y="49.07" width="0.14" height="3.5" fill="#D8D8D8" stroke="#979797" stroke-width="0.14"/>
<g clip-path="url(#clip54_1275_9171)">
<ellipse cx="42.4198" cy="49.2099" rx="0.42" ry="0.21" transform="rotate(-180 42.4198 49.2099)" fill="#EA7474" stroke="#4A4A4A" stroke-width="0.14"/>
<ellipse cx="43.2599" cy="49.2099" rx="0.42" ry="0.21" transform="rotate(-180 43.2599 49.2099)" fill="#EA7474" stroke="#4A4A4A" stroke-width="0.14"/>
<ellipse cx="44.0998" cy="49.2099" rx="0.42" ry="0.21" transform="rotate(-180 44.0998 49.2099)" fill="#EA7474" stroke="#4A4A4A" stroke-width="0.14"/>
<ellipse cx="44.9396" cy="49.2099" rx="0.42" ry="0.21" transform="rotate(-180 44.9396 49.2099)" fill="#EA7474" stroke="#4A4A4A" stroke-width="0.14"/>
<ellipse cx="45.7797" cy="49.2099" rx="0.42" ry="0.21" transform="rotate(-180 45.7797 49.2099)" fill="#EA7474" stroke="#4A4A4A" stroke-width="0.14"/>
<ellipse cx="46.6198" cy="49.2099" rx="0.42" ry="0.21" transform="rotate(-180 46.6198 49.2099)" fill="#EA7474" stroke="#4A4A4A" stroke-width="0.14"/>
<ellipse cx="47.4599" cy="49.2099" rx="0.42" ry="0.21" transform="rotate(-180 47.4599 49.2099)" fill="#EA7474" stroke="#4A4A4A" stroke-width="0.14"/>
</g>
<g clip-path="url(#clip55_1275_9171)">
<path d="M41.7897 47.7404H41.7197L41.6777 47.7964L41.0477 48.6364L40.8797 48.8604H41.1597H48.7197H48.9989L48.8319 48.6366L48.2047 47.7966L48.1627 47.7404H48.0925H41.7897Z" fill="#7CA947" stroke="#4A4A4A" stroke-width="0.28"/>
<path fill-rule="evenodd" clip-rule="evenodd" d="M41.7897 47.8804H42.2762V48.7204H41.1597L41.7897 47.8804Z" fill="#628639"/>
</g>
<g clip-path="url(#clip56_1275_9171)">
<rect x="45.4996" y="46.9003" width="1.96" height="0.84" rx="0.14" fill="#D8D8D8" stroke="#4A4A4A" stroke-width="0.28"/>
<rect x="45.6399" y="47.04" width="0.28" height="0.56" fill="#9B9B9B"/>
</g>
</g>
<g clip-path="url(#clip57_1275_9171)">
<path fill-rule="evenodd" clip-rule="evenodd" d="M31.08 30.8003C30.9254 30.8003 30.8 30.9257 30.8 31.0803C30.8 31.2349 30.9254 31.3603 31.08 31.3603H33.0375C32.8839 31.3615 32.7598 31.4864 32.7598 31.6403C32.7598 31.7939 32.8835 31.9186 33.0367 31.9203H32.1998C32.0451 31.9203 31.9198 32.0456 31.9198 32.2003C31.9198 32.3549 32.0451 32.4803 32.1998 32.4803H35.5598C35.7144 32.4803 35.8398 32.3549 35.8398 32.2003C35.8398 32.0467 35.7161 31.9219 35.5629 31.9203H36.3998C36.5545 31.9203 36.6798 31.7949 36.6798 31.6403C36.6798 31.4856 36.5545 31.3603 36.3998 31.3603H35.0024C35.1559 31.359 35.28 31.2342 35.28 31.0803C35.28 30.9257 35.1547 30.8003 35 30.8003H31.08Z" fill="#E5EEF7"/>
<path fill-rule="evenodd" clip-rule="evenodd" d="M43.9597 36.4004C44.1144 36.4004 44.2397 36.5258 44.2397 36.6804C44.2397 36.835 44.1144 36.9604 43.9597 36.9604H42.2889C42.4395 36.965 42.5601 37.0886 42.5601 37.2403C42.5601 37.3949 42.4348 37.5203 42.2801 37.5203H40.0401C39.8855 37.5203 39.7601 37.3949 39.7601 37.2403C39.7601 37.0856 39.8855 36.9603 40.0401 36.9603H41.151C41.0004 36.9556 40.8797 36.8321 40.8797 36.6804C40.8797 36.5258 41.0051 36.4004 41.1597 36.4004H43.9597Z" fill="#E5EEF7"/>
<path fill-rule="evenodd" clip-rule="evenodd" d="M44.6598 31.9204C44.5825 31.9204 44.5198 31.9831 44.5198 32.0604C44.5198 32.1377 44.5825 32.2004 44.6598 32.2004H46.0598C46.1371 32.2004 46.1998 32.1377 46.1998 32.0604C46.1998 31.9831 46.1371 31.9204 46.0598 31.9204H44.6598ZM45.4997 32.2004C45.4223 32.2004 45.3597 32.2631 45.3597 32.3404C45.3597 32.4178 45.4223 32.4804 45.4997 32.4804H46.6197C46.697 32.4804 46.7597 32.4178 46.7597 32.3404C46.7597 32.2631 46.697 32.2004 46.6197 32.2004H45.4997Z" fill="#E5EEF7"/>
<path fill-rule="evenodd" clip-rule="evenodd" d="M47.0398 35.8401C47.0398 35.6854 47.1652 35.5601 47.3198 35.5601H50.6798C50.8344 35.5601 50.9598 35.6854 50.9598 35.8401C50.9598 35.9923 50.8383 36.1161 50.6871 36.12H52.0798C52.2344 36.12 52.3598 36.2453 52.3598 36.4C52.3598 36.5536 52.2361 36.6783 52.0829 36.6799H52.9197C53.0743 36.6799 53.1997 36.8053 53.1997 36.9599C53.1997 37.1146 53.0743 37.2399 52.9197 37.2399H49.5597C49.405 37.2399 49.2797 37.1146 49.2797 36.9599C49.2797 36.8063 49.4034 36.6816 49.5566 36.68H48.1598C48.0052 36.68 47.8798 36.5546 47.8798 36.4C47.8798 36.2478 48.0012 36.1239 48.1525 36.1201H47.3198C47.1652 36.1201 47.0398 35.9947 47.0398 35.8401Z" fill="#E5EEF7"/>
</g>
<rect width="28" height="28" transform="translate(28)" fill="white"/>
<rect x="30.8" y="20.7197" width="22.4" height="4.48" rx="0.28" fill="#E9ECF2"/>
<rect x="39.76" y="21.2803" width="4.76" height="0.56" rx="0.28" fill="white"/>
<g clip-path="url(#clip58_1275_9171)">
<g clip-path="url(#clip59_1275_9171)">
<path fill-rule="evenodd" clip-rule="evenodd" d="M41.6724 19.7211V18.4883H42.611V22.6186H41.6724V21.2049" fill="#AD621E"/>
<path d="M41.6724 19.7211V18.4883H42.611V22.6186H41.6724V21.2049" stroke="#4A4A4A" stroke-width="0.252" stroke-linecap="round" stroke-linejoin="round"/>
<path d="M41.6767 20.21V20.7079" stroke="#4A4A4A" stroke-width="0.252" stroke-linecap="round" stroke-linejoin="round"/>
</g>
<g clip-path="url(#clip60_1275_9171)">
<path opacity="0.8" fill-rule="evenodd" clip-rule="evenodd" d="M42.3876 3.55908L45.3599 18.4804H39.4153L42.3876 3.55908Z" fill="#5F8633"/>
<path d="M43.8098 10.9332L42.3868 4.00244C42.3317 3.73402 41.9482 3.73402 41.8931 4.00243L38.9821 18.1776C38.95 18.3339 39.0694 18.4803 39.229 18.4803H45.051C45.2105 18.4803 45.3299 18.3339 45.2978 18.1776L44.1245 12.4623" stroke="#4A4A4A" stroke-width="0.252" stroke-linecap="round" stroke-linejoin="round"/>
<path d="M43.9202 11.4648L44.0219 11.9537" stroke="#4A4A4A" stroke-width="0.252" stroke-linecap="round" stroke-linejoin="round"/>
</g>
</g>
<g clip-path="url(#clip61_1275_9171)">
<rect x="32.1997" y="21.8398" width="5.88" height="0.56" rx="0.28" fill="white"/>
<rect x="34.4397" y="22.3999" width="8.96" height="0.56" rx="0.28" fill="white"/>
<rect x="30.7998" y="24.6396" width="3.08" height="0.56" rx="0.28" fill="white"/>
<rect x="44.7998" y="24.0796" width="3.64" height="0.56" rx="0.28" fill="white"/>
<rect x="47.8799" y="21.8398" width="4.76" height="0.56" rx="0.28" fill="white"/>
<rect x="50.1196" y="22.3999" width="3.08" height="0.56" rx="0.28" fill="white"/>
</g>
<defs>
<clipPath id="clip0_1275_9171">
<rect width="22.12" height="8.96" fill="white" transform="translate(3.08008 30.8003)"/>
</clipPath>
<clipPath id="clip1_1275_9171">
<rect width="19.88" height="14" fill="white" transform="translate(3.64014 38.9199)"/>
</clipPath>
<clipPath id="clip2_1275_9171">
<rect width="1.68" height="9.8" fill="white" transform="translate(6.71997 43.1201)"/>
</clipPath>
<clipPath id="clip3_1275_9171">
<rect width="1.4" height="7.84" fill="white" transform="translate(8.80762 45.0801)"/>
</clipPath>
<clipPath id="clip4_1275_9171">
<rect width="1.68" height="7.28" fill="white" transform="translate(11.48 43.1201)"/>
</clipPath>
<clipPath id="clip5_1275_9171">
<rect width="1.68" height="9.8" fill="white" transform="translate(18.76 43.1201)"/>
</clipPath>
<clipPath id="clip6_1275_9171">
<rect width="1.68" height="7.28" fill="white" transform="translate(14 43.1201)"/>
</clipPath>
<clipPath id="clip7_1275_9171">
<rect width="1.4" height="7.84" fill="white" transform="translate(22.1199 45.0801)"/>
</clipPath>
<clipPath id="clip8_1275_9171">
<rect width="2.24" height="14" fill="white" transform="translate(3.64014 38.9199)"/>
</clipPath>
<clipPath id="clip9_1275_9171">
<rect width="2.24" height="14" fill="white" transform="translate(8.68018 38.9199)"/>
</clipPath>
<clipPath id="clip10_1275_9171">
<rect width="2.24" height="14" fill="white" transform="translate(15.1199 38.9199)"/>
</clipPath>
<clipPath id="clip11_1275_9171">
<rect width="2.24" height="14" fill="white" transform="translate(20.1599 38.9199)"/>
</clipPath>
<clipPath id="clip12_1275_9171">
<rect width="8.96" height="10.08" fill="white" transform="translate(9.52002 42.8398)"/>
</clipPath>
<clipPath id="clip13_1275_9171">
<rect width="22.4" height="3.08" fill="white" transform="translate(2.80005 22.1201)"/>
</clipPath>
<clipPath id="clip14_1275_9171">
<rect width="17.92" height="3.92" fill="white" transform="translate(7.28003 21.2803)"/>
</clipPath>
<clipPath id="clip15_1275_9171">
<rect width="12.88" height="3.08" fill="white" transform="translate(12.0403 21.8403)"/>
</clipPath>
<clipPath id="clip16_1275_9171">
<rect width="7.84" height="7.84" fill="white" transform="translate(4.19995 4.19971)"/>
</clipPath>
<clipPath id="clip17_1275_9171">
<rect width="17.08" height="9.52" fill="white" transform="translate(2.80005 7.56006)"/>
</clipPath>
<clipPath id="clip18_1275_9171">
<rect width="5.88" height="18.76" fill="white" transform="translate(16.8 2.80029)"/>
</clipPath>
<clipPath id="clip19_1275_9171">
<rect width="5.88" height="12.6" fill="white" transform="translate(16.7998 8.96045)"/>
</clipPath>
<clipPath id="clip20_1275_9171">
<rect width="1.12" height="10.08" fill="white" transform="translate(19.0398 10.3604)"/>
</clipPath>
<clipPath id="clip21_1275_9171">
<rect width="12.6" height="14" fill="white" transform="translate(39.76 38.6401)"/>
</clipPath>
<clipPath id="clip22_1275_9171">
<rect width="15.68" height="10.64" fill="white" transform="translate(37.52 42)"/>
</clipPath>
<clipPath id="clip23_1275_9171">
<rect width="14" height="2.52" fill="white" transform="translate(39.2 50.6802)"/>
</clipPath>
<clipPath id="clip24_1275_9171">
<rect width="14" height="2.52" fill="white" transform="translate(39.2 50.6802)"/>
</clipPath>
<clipPath id="clip25_1275_9171">
<rect width="14" height="2.52" fill="white" transform="matrix(-1 0 0 1 53.2002 50.6802)"/>
</clipPath>
<clipPath id="clip26_1275_9171">
<rect width="10.08" height="18.2" fill="white" transform="translate(30.8 34.7197)"/>
</clipPath>
<clipPath id="clip27_1275_9171">
<rect width="8.12" height="15.4" fill="white" transform="translate(31.0798 37.2397)"/>
</clipPath>
<clipPath id="clip28_1275_9171">
<rect width="8.12" height="0.28" fill="white" transform="translate(31.0798 37.2397)"/>
</clipPath>
<clipPath id="clip29_1275_9171">
<rect width="7.28" height="0.28" fill="white" transform="translate(31.3596 38.0796)"/>
</clipPath>
<clipPath id="clip30_1275_9171">
<rect width="8.12" height="0.28" fill="white" transform="translate(31.0798 38.9199)"/>
</clipPath>
<clipPath id="clip31_1275_9171">
<rect width="7.28" height="0.28" fill="white" transform="translate(31.3596 39.7598)"/>
</clipPath>
<clipPath id="clip32_1275_9171">
<rect width="8.12" height="0.28" fill="white" transform="translate(31.0798 40.5996)"/>
</clipPath>
<clipPath id="clip33_1275_9171">
<rect width="7.28" height="0.28" fill="white" transform="translate(31.3596 41.4399)"/>
</clipPath>
<clipPath id="clip34_1275_9171">
<rect width="8.12" height="0.28" fill="white" transform="translate(31.0798 42.2798)"/>
</clipPath>
<clipPath id="clip35_1275_9171">
<rect width="7.28" height="0.28" fill="white" transform="translate(31.3596 43.1196)"/>
</clipPath>
<clipPath id="clip36_1275_9171">
<rect width="8.12" height="0.28" fill="white" transform="translate(31.0798 43.96)"/>
</clipPath>
<clipPath id="clip37_1275_9171">
<rect width="7.28" height="0.28" fill="white" transform="translate(31.3596 44.7998)"/>
</clipPath>
<clipPath id="clip38_1275_9171">
<rect width="8.12" height="0.28" fill="white" transform="translate(31.0798 45.6396)"/>
</clipPath>
<clipPath id="clip39_1275_9171">
<rect width="7.28" height="0.28" fill="white" transform="translate(31.3596 46.48)"/>
</clipPath>
<clipPath id="clip40_1275_9171">
<rect width="8.12" height="0.28" fill="white" transform="translate(31.0798 47.3198)"/>
</clipPath>
<clipPath id="clip41_1275_9171">
<rect width="7.28" height="0.28" fill="white" transform="translate(31.3596 48.1597)"/>
</clipPath>
<clipPath id="clip42_1275_9171">
<rect width="8.12" height="0.28" fill="white" transform="translate(31.0798 49)"/>
</clipPath>
<clipPath id="clip43_1275_9171">
<rect width="7.28" height="0.28" fill="white" transform="translate(31.3596 49.8398)"/>
</clipPath>
<clipPath id="clip44_1275_9171">
<rect width="8.12" height="0.28" fill="white" transform="translate(31.0798 50.6797)"/>
</clipPath>
<clipPath id="clip45_1275_9171">
<rect width="7.28" height="0.28" fill="white" transform="translate(31.3596 51.5195)"/>
</clipPath>
<clipPath id="clip46_1275_9171">
<rect width="7.28" height="0.28" fill="white" transform="translate(31.9197 52.3599)"/>
</clipPath>
<clipPath id="clip47_1275_9171">
<rect width="5.88" height="12.88" fill="white" transform="translate(32.1997 36.96)"/>
</clipPath>
<clipPath id="clip48_1275_9171">
<rect width="2.52" height="2.52" fill="white" transform="translate(33.8799 50.3999)"/>
</clipPath>
<clipPath id="clip49_1275_9171">
<rect width="1.68" height="11.2" fill="white" transform="translate(39.1997 39.1997)"/>
</clipPath>
<clipPath id="clip50_1275_9171">
<rect width="3.08" height="1.4" fill="white" transform="translate(35.2798 34.7197)"/>
</clipPath>
<clipPath id="clip51_1275_9171">
<rect width="7.56" height="6.16" fill="white" transform="translate(41.1599 46.7603)"/>
</clipPath>
<clipPath id="clip52_1275_9171">
<rect width="2.52" height="2.52" fill="white" transform="translate(45.0798 50.4004)"/>
</clipPath>
<clipPath id="clip53_1275_9171">
<rect width="2.52" height="1.96" fill="white" transform="translate(42.2798 50.4004)"/>
</clipPath>
<clipPath id="clip54_1275_9171">
<rect width="5.88" height="0.56" fill="white" transform="translate(41.9998 49)"/>
</clipPath>
<clipPath id="clip55_1275_9171">
<rect width="7.56" height="0.84" fill="white" transform="translate(41.1597 47.8804)"/>
</clipPath>
<clipPath id="clip56_1275_9171">
<rect width="2.24" height="1.12" fill="white" transform="translate(45.3596 46.7603)"/>
</clipPath>
<clipPath id="clip57_1275_9171">
<rect width="22.4" height="6.72" fill="white" transform="translate(30.8 30.8003)"/>
</clipPath>
<clipPath id="clip58_1275_9171">
<rect width="6.44" height="19.88" fill="white" transform="translate(38.9199 2.80029)"/>
</clipPath>
<clipPath id="clip59_1275_9171">
<rect width="1.4" height="4.2" fill="white" transform="translate(41.4399 18.4805)"/>
</clipPath>
<clipPath id="clip60_1275_9171">
<rect width="6.44" height="15.68" fill="white" transform="translate(38.9199 2.80029)"/>
</clipPath>
<clipPath id="clip61_1275_9171">
<rect width="22.4" height="3.36" fill="white" transform="translate(30.8 21.8398)"/>
</clipPath>
</defs>
</svg>
