<svg width="77" height="77" viewBox="0 0 77 77" fill="none" xmlns="http://www.w3.org/2000/svg">
<circle cx="38.5" cy="38.5" r="38.5" fill="#EFF2F7"/>
<path d="M48 49H30C27.8 49 26 47.2 26 45V31C26 28.8 27.8 27 30 27H48C50.2 27 52 28.8 52 31V45C52 47.2 50.2 49 48 49Z" stroke="#7073BE" stroke-width="2" stroke-miterlimit="10" stroke-linecap="round" stroke-linejoin="round"/>
<path d="M26 32L39 40L52 32" stroke="#7073BE" stroke-width="2" stroke-miterlimit="10" stroke-linecap="round" stroke-linejoin="round"/>
<path d="M39 13.7812C25.6242 13.7812 14.7812 24.6242 14.7812 38C14.7812 51.3758 25.6242 62.2188 39 62.2188C52.3758 62.2188 63.2188 51.3758 63.2188 38C63.2188 24.6242 52.3758 13.7812 39 13.7812ZM17.9062 38C17.9062 32.7375 19.8375 27.9289 23.025 24.2344L52.7656 53.975C49.0703 57.1617 44.2625 59.0938 39 59.0938C27.35 59.0938 17.9062 49.65 17.9062 38ZM54.975 51.7656L25.2344 22.025C28.9289 18.8383 33.7367 16.9062 39 16.9062C50.65 16.9062 60.0938 26.35 60.0938 38C60.0938 43.2625 58.1617 48.0711 54.975 51.7656Z" fill="#AA494A"/>
</svg>
