<svg width="24" height="23" viewBox="0 0 24 23" fill="none" xmlns="http://www.w3.org/2000/svg">
<path fill-rule="evenodd" clip-rule="evenodd" d="M19.5423 17.6683V13.9628L23.5617 11.5531C23.8321 11.3879 23.9978 11.0891 23.9978 10.7665C23.9978 10.4439 23.8321 10.1451 23.5617 9.97993L19.5689 7.58384L23.5617 5.18774C23.8332 5.02449 24 4.72604 24 4.40345C24 4.08085 23.8332 3.7824 23.5617 3.61915L17.7456 0.122765C17.4682 -0.0409217 17.1268 -0.0409217 16.8494 0.122765L13.3313 2.23696H10.6694L7.15135 0.122765C6.87398 -0.0409217 6.53256 -0.0409217 6.25519 0.122765L0.43902 3.6146C0.167018 3.77854 0 4.07778 0 4.40117C0 4.72457 0.167018 5.0238 0.43902 5.18774L4.43181 7.58384L0.43902 9.97993C0.168628 10.1451 0.00299004 10.4439 0.00299004 10.7665C0.00299004 11.0891 0.168628 11.3879 0.43902 11.5531L4.45843 13.9628V17.6683H19.5423Z" fill="#FAC176"/>
<path fill-rule="evenodd" clip-rule="evenodd" d="M19.5423 13.9632V17.6687C19.5413 17.9907 19.3742 18.2881 19.1031 18.4507L12.4484 22.4609C12.3134 22.5449 12.1583 22.589 12.0003 22.5882L11.9781 22.5882L12.0003 22.279V12.1309L16.8493 15.0453C17.1267 15.209 17.4681 15.209 17.7455 15.0453L19.5423 13.9632Z" fill="#E57E25"/>
<path fill-rule="evenodd" clip-rule="evenodd" d="M12.0004 12.1309V22.279L11.9782 22.5882C11.828 22.5839 11.6813 22.5401 11.5523 22.4609L4.8977 18.4507C4.62653 18.2881 4.45948 17.9907 4.4585 17.6687V13.9632L6.25525 15.0453C6.53262 15.209 6.87404 15.209 7.15141 15.0453L12.0004 12.1309Z" fill="#F29C1F"/>
<path fill-rule="evenodd" clip-rule="evenodd" d="M19.5689 7.58433L19.5423 7.59797L12.0003 12.131L4.45838 7.59797L4.43176 7.58433L10.6694 3.83789V8.94833C10.6694 9.19944 10.868 9.403 11.113 9.403H12.8876C13.1326 9.403 13.3313 9.19944 13.3313 8.94833V3.83789L19.5689 7.58433Z" fill="#D25627"/>
</svg>
