<svg width="50" height="50" viewBox="0 0 50 50" fill="none" xmlns="http://www.w3.org/2000/svg">
<path d="M43.2514 9.59844V8.1958C43.2514 7.93764 43.2005 7.68202 43.1017 7.44351C43.0029 7.20501 42.8581 6.9883 42.6756 6.80575C42.493 6.62321 42.2763 6.47841 42.0378 6.37962C41.7993 6.28083 41.5437 6.22998 41.2855 6.22998H20.2439C19.9857 6.22998 19.7301 6.28083 19.4916 6.37962C19.2531 6.47841 19.0364 6.62321 18.8538 6.80576C18.6713 6.9883 18.5265 7.20501 18.4277 7.44351C18.3289 7.68202 18.2781 7.93765 18.2781 8.1958V9.59844L43.2514 9.59844Z" fill="#7073BE"/>
<path d="M18.2781 12.2021V20.4943C18.2781 20.7524 18.3289 21.0081 18.4277 21.2466C18.5265 21.4851 18.6713 21.7018 18.8538 21.8843C19.0364 22.0669 19.2531 22.2117 19.4916 22.3105C19.7301 22.4093 19.9857 22.4601 20.2439 22.4601H41.2855C41.8069 22.4601 42.3069 22.253 42.6756 21.8843C43.0442 21.5157 43.2514 21.0157 43.2514 20.4943V12.2021H18.2781ZM41.3927 19.9365C41.3927 20.0244 41.3754 20.1114 41.3418 20.1926C41.3081 20.2738 41.2589 20.3476 41.1967 20.4097C41.1346 20.4719 41.0608 20.5212 40.9796 20.5548C40.8984 20.5884 40.8114 20.6057 40.7235 20.6057H35.3556C35.2677 20.6057 35.1807 20.5884 35.0995 20.5548C35.0183 20.5212 34.9445 20.4719 34.8824 20.4097C34.8202 20.3476 34.7709 20.2738 34.7373 20.1926C34.7037 20.1114 34.6863 20.0244 34.6863 19.9365V18.3677C34.6863 18.2798 34.7037 18.1928 34.7373 18.1116C34.7709 18.0304 34.8202 17.9566 34.8824 17.8945C34.9445 17.8323 35.0183 17.783 35.0995 17.7494C35.1807 17.7158 35.2677 17.6985 35.3556 17.6985H40.7235C40.8114 17.6985 40.8984 17.7158 40.9796 17.7494C41.0608 17.783 41.1346 17.8323 41.1967 17.8945C41.2589 17.9566 41.3081 18.0304 41.3418 18.1116C41.3754 18.1928 41.3927 18.2798 41.3927 18.3677V19.9365Z" fill="#7073BE"/>
<path d="M47.7528 31.6573C42.0794 35.3622 29.1312 42.6695 29.1312 42.6695C29.1215 42.6744 29.1119 42.6798 29.1027 42.6858C27.1516 43.8487 25.105 43.946 23.0575 43.5825C22.8463 43.545 9.93862 41.9659 8.02703 41.7329L7.97412 40.5431V26.2865C8.99702 26.1929 10.9288 26.1142 11.1432 26.1006C16.6483 25.7452 21.9554 27.0123 27.3167 28.0664C27.8654 28.1745 28.3595 28.4698 28.7145 28.9019C29.0696 29.3339 29.2636 29.8758 29.2635 30.435C29.2638 30.5307 29.2579 30.6263 29.2459 30.7212C29.1762 31.3076 28.8938 31.8481 28.4522 32.2401C28.0106 32.6322 27.4406 32.8486 26.8501 32.8484H17.2466C17.0444 32.8424 16.8481 32.917 16.7009 33.0556C16.5536 33.1942 16.4674 33.3856 16.4611 33.5878C16.4625 33.7125 16.4958 33.8348 16.5578 33.9431C16.6198 34.0513 16.7084 34.142 16.8152 34.2064C16.9228 34.2931 17.0568 34.3404 17.195 34.3407H25.6698C25.9303 34.3231 27.4321 34.2932 28.4631 34.2376C28.9382 34.2113 29.4088 34.1312 29.8658 33.9988L31.1519 33.6271L45.5822 27.5698C46.1168 27.3456 46.7159 27.3294 47.2618 27.5242C47.8078 27.719 48.2612 28.1109 48.5331 28.6229C48.805 29.1349 48.8757 29.73 48.7313 30.2914C48.5869 30.8528 48.2379 31.34 47.7528 31.6573H47.7528Z" fill="#19233C"/>
<path d="M6.39846 24.6235H1.19482V41.7436H6.39846V24.6235Z" fill="#7073BE"/>
</svg>
