<svg width="77" height="77" viewBox="0 0 77 77" fill="none" xmlns="http://www.w3.org/2000/svg">
<circle cx="38.5" cy="38.5" r="38.5" fill="#EFF2F7"/>
<g clip-path="url(#clip0_1529_9163)">
<path d="M46.0911 14C45.708 14.015 45.3324 14.0826 44.9492 14.1803L18.8074 20.5505C15.7125 21.3092 13.7819 24.4267 14.5406 27.5216L18.2065 42.4856C18.6647 44.3636 20.0244 45.7834 21.692 46.4519V42.8462C21.692 37.5427 26.0039 33.2308 31.3074 33.2308H55.5262L51.9204 18.387C51.2593 15.6827 48.7729 13.8948 46.0911 14ZM48.4348 22.2933L49.9973 28.8438L43.5069 30.4063L41.8843 23.9159L48.4348 22.2933ZM31.3074 37.0769C28.1223 37.0769 25.5382 39.6611 25.5382 42.8462V58.2308C25.5382 61.4159 28.1223 64 31.3074 64H58.2305C61.4156 64 63.9997 61.4159 63.9997 58.2308V42.8462C63.9997 39.6611 61.4156 37.0769 58.2305 37.0769H31.3074ZM31.3074 40.1418H58.2305C59.7104 40.1418 60.9348 41.3663 60.9348 42.8462V44.7692H28.6031V42.8462C28.6031 41.3663 29.8275 40.1418 31.3074 40.1418ZM28.6031 50.5385H60.9348V58.2308C60.9348 59.7106 59.7104 60.9351 58.2305 60.9351H31.3074C29.8275 60.9351 28.6031 59.7106 28.6031 58.2308V50.5385Z" fill="#7073BE"/>
</g>
<defs>
<clipPath id="clip0_1529_9163">
<rect width="50" height="50" fill="white" transform="translate(14 14)"/>
</clipPath>
</defs>
</svg>
