<svg width="108" height="141" viewBox="0 0 108 141" fill="none" xmlns="http://www.w3.org/2000/svg">
<path d="M64.9929 50.2512C65.0235 50.092 64.9752 49.9251 64.8049 49.9971C64.8233 49.8405 64.7972 49.6818 64.7297 49.54C64.6883 49.4739 64.5957 49.4718 64.5569 49.407C64.518 49.3422 64.1022 47.3894 64.0791 47.3284C64.0452 47.2314 64.0062 47.1364 63.9621 47.0438C63.9383 46.9965 63.9117 46.9508 63.8823 46.907C63.8534 46.8688 63.7765 46.8828 63.7492 46.832C63.6372 46.6202 63.9018 46.6685 63.9857 46.5232C63.9915 46.5151 64.0551 46.1775 64.0543 46.1652C64.0448 46.0098 63.9914 46.05 63.9303 45.9391C63.872 45.8327 63.8425 45.7124 63.8447 45.5904C63.8034 45.2139 63.4959 44.9974 63.3934 44.6632C63.1495 44.7055 63.1917 44.4772 62.9995 44.4611C63.1317 44.3268 63.1326 44.3794 63.1859 44.2375C63.2165 44.1527 63.2425 43.988 63.2764 43.8918L63.2351 43.8829C63.2696 43.8016 63.2832 43.7125 63.2745 43.6242C63.2658 43.5359 63.235 43.4514 63.1852 43.3788C63.1354 43.3062 63.0682 43.248 62.99 43.2097C62.9119 43.1714 62.8255 43.1544 62.7391 43.1603C62.7248 42.999 62.6662 42.8453 62.5701 42.7168C62.4739 42.5884 62.3442 42.4905 62.196 42.4346C62.1884 42.3761 62.1724 42.319 62.1484 42.2652C62.1898 42.1568 62.3745 42.0005 62.2832 41.8988C62.2154 41.8226 61.9645 41.9162 61.8665 41.9039C61.8488 41.6976 61.6863 40.9796 61.4718 40.9427C61.5317 40.7975 61.4388 40.7013 61.2949 40.7182C61.0655 40.7462 61.2424 40.85 61.1494 40.9724C61.1341 40.9965 61.1136 41.0166 61.0895 41.0313C61.0654 41.046 61.0383 41.0548 61.0104 41.057C60.9824 41.0593 60.9543 41.0549 60.9283 41.0443C60.9022 41.0337 60.8789 41.017 60.8601 40.9957C60.7456 40.8686 60.8675 40.5814 60.8527 40.4243C60.8316 40.2087 60.6137 40.007 60.641 39.8029C60.6646 39.6305 60.8283 39.439 60.8646 39.2585C60.9333 38.9031 60.7146 38.962 60.5753 39.245C60.3228 39.1332 60.2773 39.5449 60.0884 39.3297C59.8995 39.1145 60.0496 38.7257 59.7937 38.5545C59.8226 38.5236 59.8351 38.4482 59.859 38.4156C59.7631 38.3605 59.4796 38.1758 59.4693 38.0949C59.4531 37.9712 59.692 37.8742 59.5709 37.7323C59.5089 37.6603 59.3754 37.69 59.2998 37.7069C59.2502 37.5864 59.2478 37.4509 59.2932 37.3286C59.1789 37.324 59.068 37.2878 58.972 37.224C59.0626 37.1122 59.3027 36.9046 59.2738 36.7356C59.2349 36.4916 58.9757 36.6039 58.8154 36.5467C58.6 36.4696 58.5674 36.273 58.5004 36.0939C58.5087 35.9885 58.507 35.8825 58.4955 35.7774C58.4769 35.5983 58.3835 35.5716 58.3219 35.4246C58.2702 35.3005 58.3153 35.2467 58.3091 35.1238C58.2962 34.887 58.1776 34.7943 57.9094 34.7617C58.0958 34.6193 58.0201 34.4948 57.8858 34.3686C57.7882 34.2762 57.7461 34.3347 57.6961 34.2118C57.676 34.067 57.676 33.92 57.6961 33.7751C57.6836 33.5894 57.6256 33.4099 57.5275 33.2532C57.47 33.1384 57.4522 32.8127 57.3241 32.7915C57.3121 32.905 57.229 33.055 57.1013 32.9876C56.9736 32.9203 57.0658 32.7576 57.0352 32.6547C56.9748 32.448 56.7872 32.3811 56.6421 32.2353C56.466 32.06 56.3288 31.5834 56.1267 31.8783C55.951 32.1324 56.0655 32.542 55.9113 32.8288C55.7998 32.9755 55.707 33.1362 55.6353 33.307C55.6109 33.4146 55.6601 33.5053 55.6485 33.6141C55.6303 33.7836 55.5245 33.8755 55.4575 34.0174C55.4087 34.1225 55.4017 34.233 55.3554 34.3368C55.2905 34.4859 55.155 34.5638 55.0748 34.6964C54.9632 34.8807 54.9867 35.0705 54.8681 35.2564C54.7607 35.4229 54.7226 35.4873 54.7177 35.5839C54.461 35.6262 54.1634 35.5559 54.0778 35.8859C54.0237 36.0977 54.1394 36.2578 54.0456 36.4645C53.941 36.6941 53.7149 36.8822 53.6629 37.1469C53.6066 37.446 53.722 37.2833 53.9026 37.46C54.1361 37.6883 53.8612 38.0068 53.5868 37.9899C53.1292 37.5354 52.8271 38.1496 52.8271 38.1496C52.8189 38.4757 52.9474 38.5537 53.0991 38.7782C53.2508 39.0027 53.1086 39.0599 52.8813 39.2263C52.6983 39.3846 52.5423 39.5728 52.4196 39.7834C52.2605 39.9332 52.1127 40.095 51.9773 40.2675C51.9215 40.3691 51.8959 40.4852 51.9037 40.6016C51.9116 40.7179 51.9526 40.8293 52.0215 40.922C52.0972 41.0283 52.341 41.149 52.3497 41.2909C52.3576 41.4468 52.2084 41.418 52.1455 41.5235C52.0691 41.6468 52.1398 41.659 52.1406 41.7946C52.1406 41.9518 52.1381 41.8793 52.0964 42.025C52.055 42.1627 52.0054 42.1648 52.0583 42.3216C52.0922 42.4228 52.2584 42.5245 52.265 42.6253C52.2794 42.8269 51.9757 43.0256 51.8897 43.1967C51.8252 43.3238 51.6417 43.575 51.6653 43.7181C51.5105 43.7071 51.3559 43.7421 51.2201 43.819C51.0843 43.8959 50.9731 44.0113 50.8998 44.1515C50.8842 44.2446 50.8904 44.3401 50.9178 44.4303C50.9452 44.5205 50.9929 44.6027 51.0572 44.6704C51.1217 44.7458 51.34 44.8356 51.3511 44.9419C51.3656 45.0825 51.1064 45.2041 51.1164 45.3803C51.1238 45.4922 51.2065 45.5498 51.2705 45.626C51.4917 45.8831 51.4644 46.0471 51.211 46.2614C50.939 46.4897 51.0316 46.5579 51.3379 46.6659C51.3267 46.793 51.0548 47.1886 51.3606 47.2263C51.2366 47.3729 51.3528 47.3932 51.3528 47.5114C51.3528 47.6762 51.254 47.7821 51.218 47.9643C51.1368 47.8752 51.0284 47.817 50.9106 47.7993C50.7929 47.7816 50.6728 47.8054 50.57 47.8668C50.286 48.0464 50.4402 48.4861 50.6311 48.6903C50.4489 48.7623 50.1525 48.8174 50.3947 49.0991C50.1413 49.2626 50.2232 49.4765 50.2951 49.7175C50.3299 49.8762 50.3465 50.0386 50.3447 50.2013C50.3641 50.3978 50.0554 51.0061 50.0814 51.1925C50.1041 51.3619 49.983 51.4606 50.002 51.6237C50.0296 51.7359 50.0838 51.8393 50.1598 51.9248C50.2358 52.0103 50.3313 52.0752 50.4377 52.1138C50.5881 52.1422 50.0785 52.2184 50.2104 52.3612C50.3145 52.4747 50.1913 52.6276 50.26 52.7479C50.3286 52.8682 50.5175 52.8419 50.5786 52.9733C50.6398 53.1046 50.5241 53.2473 50.62 53.3969C50.6989 53.5239 51.4979 53.3147 51.5594 53.4578C51.6917 53.7666 52.239 53.6129 52.6155 53.7205C52.8325 53.7823 52.8697 53.7332 52.9809 53.5578C53.0697 53.4185 53.1313 53.1647 53.3231 53.3511C53.426 53.4511 53.3595 53.6247 53.4264 53.7395C53.5122 53.843 53.6262 53.9176 53.7538 53.9539C54.0291 54.0986 54.3426 54.1485 54.6478 54.0962C54.8991 54.064 55.1934 53.9721 55.3868 54.1932C55.3983 54.1033 55.4396 54.0201 55.5038 53.9577C55.5244 53.9947 55.5526 54.0266 55.5865 54.0513C55.6358 54.1953 55.6872 54.3391 55.7407 54.4825C55.8601 54.779 55.9659 55.0806 56.1056 55.3661C56.2371 55.6163 56.3416 55.8803 56.4173 56.1536C56.4673 56.4078 56.4954 56.6823 56.5247 56.9224C56.5541 57.1626 56.578 57.3795 56.6 57.565C56.6148 57.6663 56.6235 57.7963 56.6371 57.9412C56.588 58.3118 56.5586 58.6647 56.5425 58.9667C56.5218 59.3479 56.5177 59.9122 56.4747 60.534C56.4648 60.689 56.4512 60.8479 56.4288 61.0063C56.4189 61.0859 56.4086 61.166 56.3982 61.2469L56.3524 61.4837C56.3363 61.5633 56.3243 61.6421 56.304 61.7222L56.2338 61.9628C56.187 62.1233 56.1399 62.2826 56.0949 62.4389L55.8349 63.3306C55.8155 63.3996 55.7935 63.467 55.7758 63.533C55.7526 63.5873 55.7415 63.6381 55.7121 63.6927C55.6646 63.7986 55.6047 63.902 55.5522 64.0028L55.5141 64.0765H58.2057C58.1615 63.9138 58.1202 63.7376 58.0863 63.5462C58.0086 63.0997 57.9416 62.6143 57.8821 62.1784C57.8408 61.7395 57.8077 61.3477 57.7845 61.0838C57.772 60.4306 57.9095 59.7834 58.1859 59.1946C58.4726 58.4436 58.721 57.6779 58.9299 56.9004C59.1291 56.0956 59.3287 55.2763 59.4846 54.4906C59.4895 54.4647 59.4932 54.4389 59.4982 54.4135C59.7048 54.1703 59.4982 54.1445 59.6404 54.0225C59.8528 54.0721 59.7867 54.5791 59.8681 54.519C59.9731 54.519 60.2223 54.5503 60.2814 54.4342C60.3426 54.3101 60.1483 54.172 60.1521 54.0369C60.2037 54.0327 60.2393 53.9895 60.2868 53.9789C60.1293 53.5532 60.746 54.4347 60.889 54.2906C61.2805 53.8954 62.1121 54.7418 62.0968 54.3059C62.1879 54.3142 62.279 54.2904 62.3552 54.2385C62.4314 54.1866 62.4881 54.1097 62.5159 54.0204C62.5261 54.0373 62.5398 54.0517 62.556 54.0626C62.5723 54.0735 62.5906 54.0807 62.6098 54.0836C62.629 54.0865 62.6486 54.0851 62.6672 54.0794C62.6858 54.0738 62.703 54.064 62.7176 54.0509C62.8416 53.9378 62.732 53.9111 62.7143 53.8493C62.6895 53.7603 62.5518 53.7535 62.6134 53.5879C62.6209 53.5514 62.64 53.5185 62.6678 53.4945C62.6956 53.4705 62.7304 53.4567 62.7668 53.4553C62.8887 53.4303 63.0974 53.6332 63.2657 53.5083C63.3843 53.421 63.4173 53.0868 63.4157 52.9546C63.6223 52.9288 63.6579 52.7475 63.6505 52.567C63.8513 52.5602 63.8071 52.4078 63.7385 52.318C63.6835 52.2455 63.5777 52.29 63.5285 52.1659C63.5171 52.1093 63.5174 52.0509 63.5295 51.9945C63.5416 51.9381 63.5652 51.8849 63.5988 51.8384C63.8881 51.564 64.5548 52.0968 64.4254 51.4093C64.8251 51.4852 64.5871 51.0129 64.6404 50.8045C64.6937 50.596 64.9508 50.463 64.9929 50.2512ZM56.9719 55.8041C56.8645 55.6957 56.7653 55.5923 56.7062 55.5246C56.6157 55.4119 56.5103 55.2683 56.3999 55.1099C56.3168 54.9819 56.2438 54.8474 56.1817 54.7075C56.2216 54.7072 56.2607 54.6959 56.2948 54.6747C56.3289 54.6536 56.3568 54.6233 56.3755 54.5872C56.3874 54.6309 56.408 54.6717 56.4361 54.7069C56.4641 54.7421 56.4989 54.771 56.5383 54.7917C56.5778 54.8124 56.621 54.8246 56.6652 54.8274C56.7095 54.8301 56.7538 54.8235 56.7954 54.8078C56.893 54.9112 56.9149 54.8655 57.0682 54.8663C57.0844 54.8663 57.1013 54.8688 57.1199 54.871C57.0732 55.1713 57.0261 55.4674 56.9802 55.755C56.9773 55.7719 56.9752 55.7876 56.9719 55.8041ZM59.103 55.1874C59.0642 55.3009 59.01 55.428 58.9617 55.5716C58.9133 55.7152 58.8687 55.8719 58.8178 56.0375C58.767 56.2032 58.7058 56.3696 58.6409 56.5387C58.5761 56.7077 58.5095 56.897 58.4504 57.0728C58.4182 57.1575 58.3884 57.2448 58.3537 57.327C58.319 57.4091 58.2818 57.4879 58.2408 57.5663C58.1582 57.7239 58.0755 57.8772 58.0011 58.0225C57.8536 58.2885 57.7184 58.5308 57.6291 58.7206C57.6166 58.4264 57.62 58.1316 57.6395 57.8378C57.6655 56.9402 57.8011 55.9655 57.8875 54.9701C57.8953 54.8587 57.9036 54.7481 57.9119 54.6363C57.9679 54.6448 58.0232 54.6581 58.0772 54.6761C58.2958 54.7426 58.5169 54.8303 58.6261 54.5575C58.7868 54.6376 58.9419 54.4351 59.0733 54.3355C59.2605 54.1932 59.2027 54.4821 59.2605 54.5579C59.2122 54.7668 59.1613 54.976 59.108 55.1874C59.1039 55.1878 59.1039 55.1857 59.103 55.1874Z" fill="#D4D5EB"/>
<path d="M33.9929 21.5557C34.0235 21.3964 33.9752 21.2295 33.8049 21.3015C33.8233 21.1449 33.7972 20.9862 33.7297 20.8445C33.6883 20.7784 33.5957 20.7763 33.5569 20.7115C33.518 20.6467 33.1022 18.6939 33.0791 18.6329C33.0452 18.5359 33.0062 18.4408 32.9621 18.3482C32.9383 18.301 32.9117 18.2553 32.8823 18.2114C32.8534 18.1733 32.7765 18.1873 32.7492 18.1364C32.6372 17.9246 32.9018 17.9729 32.9857 17.8276C32.9915 17.8196 33.0551 17.482 33.0543 17.4697C33.0448 17.3142 32.9914 17.3545 32.9303 17.2435C32.872 17.1371 32.8425 17.0168 32.8447 16.8949C32.8034 16.5183 32.4959 16.3018 32.3934 15.9676C32.1495 16.01 32.1917 15.7817 31.9995 15.7656C32.1317 15.6313 32.1326 15.6838 32.1859 15.5419C32.2165 15.4572 32.2425 15.2924 32.2764 15.1963L32.2351 15.1874C32.2696 15.106 32.2832 15.0169 32.2745 14.9286C32.2658 14.8403 32.235 14.7558 32.1852 14.6832C32.1354 14.6106 32.0682 14.5524 31.99 14.5141C31.9119 14.4759 31.8255 14.4588 31.7391 14.4647C31.7248 14.3035 31.6662 14.1497 31.5701 14.0213C31.4739 13.8928 31.3442 13.795 31.196 13.7391C31.1884 13.6805 31.1724 13.6234 31.1484 13.5697C31.1898 13.4612 31.3745 13.3049 31.2832 13.2032C31.2154 13.127 30.9645 13.2206 30.8665 13.2083C30.8488 13.002 30.6863 12.284 30.4718 12.2472C30.5317 12.1019 30.4388 12.0057 30.2949 12.0227C30.0655 12.0506 30.2424 12.1544 30.1494 12.2768C30.1341 12.3009 30.1136 12.3211 30.0895 12.3358C30.0654 12.3504 30.0383 12.3592 30.0104 12.3615C29.9824 12.3637 29.9543 12.3594 29.9283 12.3487C29.9022 12.3381 29.8789 12.3215 29.8601 12.3001C29.7456 12.1731 29.8675 11.8859 29.8527 11.7287C29.8316 11.5131 29.6137 11.3115 29.641 11.1073C29.6646 10.9349 29.8283 10.7434 29.8646 10.563C29.9333 10.2076 29.7146 10.2665 29.5753 10.5494C29.3228 10.4376 29.2773 10.8493 29.0884 10.6341C28.8995 10.419 29.0496 10.0301 28.7937 9.85897C28.8226 9.82804 28.8351 9.75265 28.859 9.72003C28.7631 9.66497 28.4796 9.48028 28.4693 9.39937C28.4531 9.27568 28.692 9.17868 28.5709 9.03677C28.5089 8.96476 28.3754 8.99441 28.2998 9.01136C28.2502 8.89084 28.2478 8.75535 28.2932 8.63308C28.1789 8.62841 28.068 8.59227 27.972 8.52846C28.0626 8.41663 28.3027 8.20907 28.2738 8.04006C28.2349 7.79606 27.9757 7.90832 27.8154 7.85113C27.6 7.77404 27.5674 7.57749 27.5004 7.39831C27.5087 7.29292 27.507 7.18695 27.4955 7.08188C27.4769 6.9027 27.3835 6.87602 27.3219 6.72903C27.2702 6.60492 27.3153 6.55112 27.3091 6.42828C27.2962 6.19149 27.1776 6.09872 26.9094 6.0661C27.0958 5.92378 27.0201 5.79924 26.8858 5.67301C26.7882 5.58067 26.7461 5.63912 26.6961 5.51628C26.676 5.37143 26.676 5.2244 26.6961 5.07955C26.6836 4.89384 26.6256 4.71434 26.5275 4.55768C26.47 4.44289 26.4522 4.11715 26.3241 4.09597C26.3121 4.20949 26.229 4.35944 26.1013 4.29209C25.9736 4.22474 26.0658 4.06208 26.0352 3.95915C25.9748 3.75243 25.7872 3.6855 25.6421 3.53978C25.466 3.36442 25.3288 2.88788 25.1267 3.1827C24.951 3.43686 25.0655 3.84647 24.9113 4.13324C24.7998 4.27992 24.707 4.44064 24.6353 4.61148C24.6109 4.71907 24.6601 4.80972 24.6485 4.91859C24.6303 5.08802 24.5245 5.17994 24.4575 5.32185C24.4087 5.4269 24.4017 5.53746 24.3554 5.64124C24.2905 5.79035 24.155 5.86829 24.0748 6.00087C23.9632 6.18514 23.9867 6.3749 23.8681 6.56086C23.7607 6.72733 23.7226 6.79172 23.7177 6.8883C23.461 6.93066 23.1634 6.86035 23.0778 7.19033C23.0237 7.40212 23.1394 7.56224 23.0456 7.76896C22.941 7.99854 22.7149 8.18662 22.6629 8.45136C22.6066 8.75042 22.722 8.58776 22.9026 8.7644C23.1361 8.99272 22.8612 9.31126 22.5868 9.29432C22.1292 8.8398 21.8271 9.45401 21.8271 9.45401C21.8189 9.78018 21.9474 9.85812 22.0991 10.0826C22.2508 10.3071 22.1086 10.3643 21.8813 10.5308C21.6983 10.689 21.5423 10.8772 21.4196 11.0878C21.2605 11.2376 21.1127 11.3995 20.9773 11.572C20.9215 11.6736 20.8959 11.7897 20.9037 11.906C20.9116 12.0223 20.9526 12.1337 21.0215 12.2264C21.0972 12.3328 21.341 12.4535 21.3497 12.5954C21.3576 12.7513 21.2084 12.7225 21.1455 12.8279C21.0691 12.9512 21.1398 12.9635 21.1406 13.099C21.1406 13.2562 21.1381 13.1838 21.0964 13.3295C21.055 13.4671 21.0054 13.4693 21.0583 13.626C21.0922 13.7272 21.2584 13.8289 21.265 13.9297C21.2794 14.1313 20.9757 14.33 20.8897 14.5011C20.8252 14.6282 20.6417 14.8794 20.6653 15.0226C20.5105 15.0116 20.3559 15.0466 20.2201 15.1235C20.0843 15.2003 19.9731 15.3158 19.8998 15.4559C19.8842 15.549 19.8904 15.6445 19.9178 15.7347C19.9452 15.8249 19.9929 15.9072 20.0572 15.9748C20.1217 16.0502 20.34 16.14 20.3511 16.2464C20.3656 16.387 20.1064 16.5086 20.1164 16.6848C20.1238 16.7966 20.2065 16.8542 20.2705 16.9305C20.4917 17.1876 20.4644 17.3515 20.211 17.5658C19.939 17.7942 20.0316 17.8624 20.3379 17.9704C20.3267 18.0975 20.0548 18.4931 20.3606 18.5308C20.2366 18.6774 20.3528 18.6977 20.3528 18.8159C20.3528 18.9807 20.254 19.0865 20.218 19.2687C20.1368 19.1796 20.0284 19.1215 19.9106 19.1038C19.7929 19.0861 19.6728 19.1099 19.57 19.1713C19.286 19.3509 19.4402 19.7906 19.6311 19.9947C19.4489 20.0667 19.1525 20.1218 19.3947 20.4035C19.1413 20.567 19.2232 20.7809 19.2951 21.022C19.3299 21.1807 19.3465 21.343 19.3447 21.5057C19.3641 21.7022 19.0554 22.3105 19.0814 22.4969C19.1041 22.6663 18.983 22.765 19.002 22.9281C19.0296 23.0403 19.0838 23.1437 19.1598 23.2293C19.2358 23.3148 19.3313 23.3797 19.4377 23.4182C19.5881 23.4466 19.0785 23.5229 19.2104 23.6656C19.3145 23.7791 19.1913 23.932 19.26 24.0523C19.3286 24.1726 19.5175 24.1464 19.5786 24.2777C19.6398 24.409 19.5241 24.5518 19.62 24.7013C19.6989 24.8284 20.4979 24.6191 20.5594 24.7623C20.6917 25.0711 21.239 24.9173 21.6155 25.0249C21.8325 25.0868 21.8697 25.0376 21.9809 24.8623C22.0697 24.7229 22.1313 24.4692 22.3231 24.6556C22.426 24.7555 22.3595 24.9292 22.4264 25.044C22.5122 25.1474 22.6262 25.2221 22.7538 25.2583C23.0291 25.403 23.3426 25.4529 23.6478 25.4007C23.8991 25.3685 24.1934 25.2765 24.3868 25.4977C24.3983 25.4077 24.4396 25.3246 24.5038 25.2621C24.5244 25.2991 24.5526 25.3311 24.5865 25.3557C24.6358 25.4998 24.6872 25.6435 24.7407 25.787C24.8601 26.0835 24.9659 26.3851 25.1056 26.6706C25.2371 26.9207 25.3416 27.1847 25.4173 27.458C25.4673 27.7122 25.4954 27.9867 25.5247 28.2269C25.5541 28.4671 25.578 28.6839 25.6 28.8695C25.6148 28.9707 25.6235 29.1007 25.6371 29.2456C25.588 29.6163 25.5586 29.9691 25.5425 30.2711C25.5218 30.6524 25.5177 31.2166 25.4747 31.8384C25.4648 31.9935 25.4512 32.1523 25.4288 32.3107C25.4189 32.3904 25.4086 32.4704 25.3982 32.5513L25.3524 32.7881C25.3363 32.8678 25.3243 32.9466 25.304 33.0266L25.2338 33.2672C25.187 33.4278 25.1399 33.587 25.0949 33.7433L24.8349 34.635C24.8155 34.7041 24.7935 34.7714 24.7758 34.8375C24.7526 34.8917 24.7415 34.9425 24.7121 34.9972C24.6646 35.1031 24.6047 35.2064 24.5522 35.3073L24.5141 35.381H27.2057C27.1615 35.2183 27.1202 35.0421 27.0863 34.8506C27.0086 34.4042 26.9416 33.9187 26.8821 33.4828C26.8408 33.044 26.8077 32.6522 26.7845 32.3883C26.772 31.735 26.9095 31.0878 27.1859 30.499C27.4726 29.7481 27.721 28.9823 27.9299 28.2048C28.1291 27.4 28.3287 26.5808 28.4846 25.795C28.4895 25.7692 28.4932 25.7433 28.4982 25.7179C28.7048 25.4748 28.4982 25.4489 28.6404 25.3269C28.8528 25.3765 28.7867 25.8835 28.8681 25.8234C28.9731 25.8234 29.2223 25.8547 29.2814 25.7387C29.3426 25.6146 29.1483 25.4765 29.1521 25.3413C29.2037 25.3371 29.2393 25.2939 29.2868 25.2833C29.1293 24.8576 29.746 25.7391 29.889 25.5951C30.2805 25.1999 31.1121 26.0462 31.0968 25.6103C31.1879 25.6186 31.279 25.5949 31.3552 25.543C31.4314 25.4911 31.4881 25.4141 31.5159 25.3248C31.5261 25.3417 31.5398 25.3561 31.556 25.3671C31.5723 25.378 31.5906 25.3851 31.6098 25.388C31.629 25.3909 31.6486 25.3895 31.6672 25.3839C31.6858 25.3782 31.703 25.3685 31.7176 25.3553C31.8416 25.2422 31.732 25.2155 31.7143 25.1537C31.6895 25.0647 31.5518 25.058 31.6134 24.8923C31.6209 24.8559 31.64 24.823 31.6678 24.799C31.6956 24.7749 31.7304 24.7611 31.7668 24.7598C31.8887 24.7348 32.0974 24.9377 32.2657 24.8127C32.3843 24.7254 32.4173 24.3912 32.4157 24.2591C32.6223 24.2332 32.6579 24.0519 32.6505 23.8715C32.8513 23.8647 32.8071 23.7122 32.7385 23.6224C32.6835 23.55 32.5777 23.5944 32.5285 23.4703C32.5171 23.4138 32.5174 23.3553 32.5295 23.2989C32.5416 23.2425 32.5652 23.1893 32.5988 23.1429C32.8881 22.8684 33.5548 23.4013 33.4254 22.7138C33.8251 22.7896 33.5871 22.3173 33.6404 22.1089C33.6937 21.9005 33.9508 21.7675 33.9929 21.5557ZM25.9719 27.1086C25.8645 27.0001 25.7653 26.8968 25.7062 26.829C25.6157 26.7163 25.5103 26.5727 25.3999 26.4143C25.3168 26.2864 25.2438 26.1518 25.1817 26.0119C25.2216 26.0117 25.2607 26.0004 25.2948 25.9792C25.3289 25.958 25.3568 25.9277 25.3755 25.8916C25.3874 25.9354 25.408 25.9761 25.4361 26.0113C25.4641 26.0465 25.4989 26.0754 25.5383 26.0961C25.5778 26.1169 25.621 26.129 25.6652 26.1318C25.7095 26.1346 25.7538 26.1279 25.7954 26.1123C25.893 26.2156 25.9149 26.1699 26.0682 26.1707C26.0844 26.1707 26.1013 26.1733 26.1199 26.1754C26.0732 26.4757 26.0261 26.7718 25.9802 27.0594C25.9773 27.0764 25.9752 27.0921 25.9719 27.1086ZM28.103 26.4918C28.0642 26.6054 28.01 26.7324 27.9617 26.876C27.9133 27.0196 27.8687 27.1764 27.8178 27.342C27.767 27.5076 27.7058 27.6741 27.6409 27.8431C27.5761 28.0121 27.5095 28.2015 27.4504 28.3772C27.4182 28.462 27.3884 28.5492 27.3537 28.6314C27.319 28.7136 27.2818 28.7924 27.2408 28.8707C27.1582 29.0283 27.0755 29.1817 27.0011 29.3269C26.8536 29.593 26.7184 29.8353 26.6291 30.025C26.6166 29.7308 26.62 29.4361 26.6395 29.1423C26.6655 28.2447 26.8011 27.27 26.8875 26.2745C26.8953 26.1631 26.9036 26.0526 26.9119 25.9407C26.9679 25.9493 27.0232 25.9626 27.0772 25.9805C27.2958 26.0471 27.5169 26.1347 27.6261 25.8619C27.7868 25.942 27.9419 25.7395 28.0733 25.64C28.2605 25.4977 28.2027 25.7865 28.2605 25.8624C28.2122 26.0712 28.1613 26.2805 28.108 26.4918C28.1039 26.4923 28.1039 26.4901 28.103 26.4918Z" fill="#D4D5EB"/>
<path d="M14.9929 75.8723C15.0235 75.7131 14.9752 75.5462 14.8049 75.6182C14.8233 75.4616 14.7972 75.3029 14.7297 75.1611C14.6883 75.095 14.5957 75.0929 14.5569 75.0281C14.518 74.9633 14.1022 73.0105 14.0791 72.9495C14.0452 72.8525 14.0062 72.7575 13.9621 72.6649C13.9383 72.6176 13.9117 72.5719 13.8823 72.5281C13.8534 72.4899 13.7765 72.5039 13.7492 72.4531C13.6372 72.2413 13.9018 72.2896 13.9857 72.1443C13.9915 72.1362 14.0551 71.7986 14.0543 71.7863C14.0448 71.6309 13.9914 71.6711 13.9303 71.5602C13.872 71.4538 13.8425 71.3335 13.8447 71.2115C13.8034 70.835 13.4959 70.6185 13.3934 70.2843C13.1495 70.3266 13.1917 70.0983 12.9995 70.0822C13.1317 69.9479 13.1326 70.0005 13.1859 69.8586C13.2165 69.7738 13.2425 69.6091 13.2764 69.5129L13.2351 69.504C13.2696 69.4227 13.2832 69.3335 13.2745 69.2453C13.2658 69.157 13.235 69.0725 13.1852 68.9999C13.1354 68.9273 13.0682 68.8691 12.99 68.8308C12.9119 68.7925 12.8255 68.7755 12.7391 68.7814C12.7248 68.6201 12.6662 68.4664 12.5701 68.3379C12.4739 68.2095 12.3442 68.1116 12.196 68.0557C12.1884 67.9972 12.1724 67.94 12.1484 67.8863C12.1898 67.7779 12.3745 67.6216 12.2832 67.5199C12.2154 67.4437 11.9645 67.5373 11.8665 67.525C11.8488 67.3187 11.6863 66.6007 11.4718 66.5638C11.5317 66.4186 11.4388 66.3224 11.2949 66.3393C11.0655 66.3673 11.2424 66.4711 11.1494 66.5935C11.1341 66.6176 11.1136 66.6377 11.0895 66.6524C11.0654 66.6671 11.0383 66.6759 11.0104 66.6781C10.9824 66.6804 10.9543 66.676 10.9283 66.6654C10.9022 66.6548 10.8789 66.6381 10.8601 66.6168C10.7456 66.4897 10.8675 66.2025 10.8527 66.0454C10.8316 65.8298 10.6137 65.6281 10.641 65.424C10.6646 65.2516 10.8283 65.0601 10.8646 64.8796C10.9333 64.5242 10.7146 64.5831 10.5753 64.8661C10.3228 64.7543 10.2773 65.166 10.0884 64.9508C9.89953 64.7356 10.0496 64.3468 9.79371 64.1756C9.82265 64.1447 9.83506 64.0693 9.85903 64.0367C9.76314 63.9816 9.4796 63.7969 9.46926 63.716C9.45315 63.5923 9.69204 63.4953 9.57093 63.3534C9.50893 63.2814 9.37543 63.3111 9.29979 63.328C9.25017 63.2075 9.24781 63.072 9.29318 62.9497C9.1789 62.9451 9.06797 62.9089 8.97203 62.8451C9.06255 62.7333 9.30269 62.5257 9.27375 62.3567C9.2349 62.1127 8.97574 62.225 8.81537 62.1678C8.60003 62.0907 8.56737 61.8941 8.50041 61.715C8.50865 61.6096 8.50701 61.5036 8.49546 61.3985C8.47686 61.2194 8.38346 61.1927 8.32187 61.0457C8.27021 60.9216 8.31526 60.8678 8.30906 60.7449C8.29624 60.5081 8.1776 60.4154 7.90936 60.3828C8.09577 60.2404 8.02012 60.1159 7.88579 59.9897C7.78825 59.8973 7.7461 59.9558 7.69608 59.8329C7.67602 59.6881 7.67602 59.5411 7.69608 59.3962C7.68357 59.2105 7.62559 59.031 7.52746 58.8743C7.47001 58.7595 7.45224 58.4338 7.32411 58.4126C7.31212 58.5261 7.22904 58.6761 7.10132 58.6087C6.9736 58.5414 7.06576 58.3787 7.03518 58.2758C6.97483 58.0691 6.78719 58.0022 6.64211 57.8564C6.46603 57.6811 6.3288 57.2045 6.12669 57.4994C5.95102 57.7535 6.06552 58.1631 5.91135 58.4499C5.79977 58.5966 5.70699 58.7573 5.63526 58.9281C5.61087 59.0357 5.66005 59.1264 5.64848 59.2352C5.63029 59.4047 5.52447 59.4966 5.45751 59.6385C5.40873 59.7435 5.40173 59.8541 5.35544 59.9579C5.29054 60.107 5.15497 60.1849 5.07478 60.3175C4.96318 60.5018 4.98674 60.6916 4.86812 60.8775C4.76065 61.044 4.72262 61.1084 4.71766 61.205C4.46099 61.2473 4.1634 61.177 4.07785 61.507C4.0237 61.7188 4.13943 61.8789 4.04561 62.0856C3.94103 62.3152 3.71493 62.5033 3.66286 62.768C3.60664 63.0671 3.72197 62.9044 3.90259 63.0811C4.13612 63.3094 3.86124 63.6279 3.58679 63.611C3.12924 63.1565 2.82712 63.7707 2.82712 63.7707C2.81886 64.0968 2.94738 64.1748 3.09907 64.3993C3.25076 64.6238 3.10859 64.681 2.88126 64.8474C2.69834 65.0057 2.54232 65.1939 2.41957 65.4045C2.26053 65.5543 2.11269 65.7161 1.97731 65.8886C1.92146 65.9902 1.89589 66.1063 1.90375 66.2227C1.91161 66.339 1.95255 66.4504 2.02154 66.5431C2.09718 66.6494 2.34104 66.7701 2.34972 66.912C2.35757 67.0679 2.20835 67.0391 2.14553 67.1446C2.06906 67.2679 2.13976 67.2801 2.14058 67.4157C2.14058 67.5728 2.13811 67.5004 2.09636 67.6461C2.05503 67.7838 2.00541 67.7859 2.05832 67.9426C2.09221 68.0439 2.25837 68.1455 2.26498 68.2464C2.27945 68.448 1.97567 68.6467 1.8897 68.8178C1.82522 68.9449 1.64169 69.1961 1.66525 69.3392C1.51048 69.3282 1.35591 69.3632 1.22011 69.4401C1.08431 69.517 0.97307 69.6324 0.899776 69.7726C0.884248 69.8657 0.89042 69.9612 0.917788 70.0514C0.945156 70.1416 0.992937 70.2238 1.05725 70.2915C1.12172 70.3669 1.33996 70.4567 1.35112 70.563C1.36559 70.7036 1.10643 70.8252 1.11635 71.0014C1.12379 71.1133 1.20648 71.1709 1.27054 71.2471C1.49167 71.5042 1.46437 71.6682 1.21101 71.8825C0.939038 72.1108 1.03163 72.179 1.3379 72.287C1.32674 72.4141 1.05477 72.8097 1.36063 72.8474C1.23663 72.994 1.35278 73.0143 1.35278 73.1325C1.35278 73.2973 1.254 73.4032 1.21804 73.5854C1.13675 73.4963 1.02836 73.4381 0.910624 73.4204C0.792884 73.4027 0.672777 73.4265 0.569953 73.4879C0.285998 73.6675 0.440173 74.1072 0.631129 74.3114C0.448853 74.3834 0.15249 74.4385 0.394698 74.7202C0.14133 74.8837 0.223157 75.0976 0.295075 75.3386C0.329864 75.4973 0.346507 75.6597 0.344672 75.8224C0.364099 76.0189 0.05536 76.6272 0.0813995 76.8136C0.104132 76.983 -0.0169788 77.0817 0.00203417 77.2448C0.0295919 77.357 0.0837982 77.4604 0.159806 77.5459C0.235814 77.6314 0.331272 77.6963 0.437686 77.7349C0.588136 77.7633 0.0785111 77.8395 0.210362 77.9823C0.31452 78.0958 0.191347 78.2487 0.259959 78.369C0.328571 78.4893 0.517459 78.463 0.578631 78.5944C0.639803 78.7257 0.524062 78.8684 0.619954 79.018C0.698899 79.145 1.49786 78.9358 1.55945 79.0789C1.69171 79.3877 2.23895 79.234 2.61549 79.3416C2.83249 79.4034 2.8697 79.3543 2.98088 79.1789C3.06975 79.0396 3.13134 78.7858 3.32312 78.9722C3.42604 79.0722 3.35949 79.2458 3.42645 79.3606C3.51217 79.4641 3.62621 79.5387 3.7538 79.575C4.02914 79.7197 4.34262 79.7696 4.64781 79.7173C4.89911 79.6851 5.19341 79.5932 5.38684 79.8143C5.39831 79.7244 5.43959 79.6412 5.5038 79.5788C5.52437 79.6158 5.55259 79.6477 5.58647 79.6724C5.63579 79.8164 5.6872 79.9602 5.74066 80.1036C5.86011 80.4001 5.96592 80.7017 6.10562 80.9872C6.2371 81.2374 6.34158 81.5014 6.41726 81.7747C6.46727 82.0289 6.49538 82.3034 6.52473 82.5435C6.55407 82.7837 6.57805 83.0006 6.59995 83.1861C6.61483 83.2874 6.6235 83.4174 6.63714 83.5623C6.58795 83.9329 6.55861 84.2858 6.54249 84.5878C6.52182 84.969 6.51771 85.5333 6.47472 86.1551C6.4648 86.3101 6.45116 86.469 6.42884 86.6274C6.41892 86.707 6.40857 86.7871 6.39824 86.868L6.35237 87.1048C6.33625 87.1844 6.32426 87.2632 6.30401 87.3433L6.23375 87.5839C6.18705 87.7444 6.13993 87.9037 6.09488 88.06L5.83488 88.9517C5.81546 89.0207 5.79355 89.0881 5.77577 89.1541C5.75263 89.2084 5.74147 89.2592 5.71213 89.3138C5.66459 89.4197 5.60465 89.5231 5.55216 89.6239L5.51414 89.6976H8.20573C8.1615 89.535 8.12017 89.3587 8.08628 89.1673C8.00857 88.7208 7.9416 88.2354 7.88208 87.7995C7.84075 87.3606 7.80768 86.9688 7.78453 86.7049C7.772 86.0517 7.90948 85.4045 8.18587 84.8157C8.47263 84.0647 8.72096 83.299 8.92985 82.5215C9.12908 81.7167 9.32873 80.8974 9.48455 80.1117C9.48951 80.0858 9.49322 80.06 9.49818 80.0346C9.70484 79.7914 9.4982 79.7656 9.64038 79.6436C9.85283 79.6932 9.78668 80.2002 9.86811 80.1401C9.97309 80.1401 10.2223 80.1714 10.2814 80.0553C10.3426 79.9312 10.1483 79.7931 10.1521 79.658C10.2037 79.6538 10.2393 79.6106 10.2868 79.6C10.1293 79.1743 10.746 80.0558 10.889 79.9117C11.2805 79.5165 12.1121 80.3629 12.0968 79.927C12.1879 79.9353 12.279 79.9115 12.3552 79.8596C12.4314 79.8077 12.4881 79.7308 12.5159 79.6415C12.5261 79.6584 12.5398 79.6728 12.556 79.6837C12.5723 79.6946 12.5906 79.7018 12.6098 79.7047C12.629 79.7076 12.6486 79.7062 12.6672 79.7005C12.6858 79.6949 12.703 79.6851 12.7176 79.672C12.8416 79.5589 12.732 79.5322 12.7143 79.4704C12.6895 79.3814 12.5518 79.3746 12.6134 79.209C12.6209 79.1725 12.64 79.1397 12.6678 79.1156C12.6956 79.0916 12.7304 79.0778 12.7668 79.0764C12.8887 79.0514 13.0974 79.2543 13.2657 79.1294C13.3843 79.0421 13.4173 78.7079 13.4157 78.5757C13.6223 78.5499 13.6579 78.3686 13.6505 78.1881C13.8513 78.1814 13.8071 78.0289 13.7385 77.9391C13.6835 77.8666 13.5777 77.9111 13.5285 77.787C13.5171 77.7304 13.5174 77.672 13.5295 77.6156C13.5416 77.5592 13.5652 77.506 13.5988 77.4595C13.8881 77.1851 14.5548 77.7179 14.4254 77.0304C14.8251 77.1063 14.5871 76.634 14.6404 76.4256C14.6937 76.2171 14.9508 76.0841 14.9929 75.8723ZM6.97193 81.4252C6.86447 81.3168 6.76529 81.2134 6.70619 81.1457C6.61567 81.033 6.51026 80.8894 6.3999 80.731C6.31677 80.603 6.24379 80.4685 6.18166 80.3286C6.22156 80.3283 6.26067 80.317 6.2948 80.2959C6.32894 80.2747 6.35682 80.2444 6.37551 80.2083C6.3874 80.252 6.40803 80.2928 6.43605 80.328C6.46408 80.3632 6.4989 80.3921 6.53835 80.4128C6.5778 80.4335 6.62099 80.4457 6.66524 80.4485C6.70949 80.4512 6.75382 80.4446 6.79544 80.4289C6.89298 80.5323 6.91491 80.4866 7.06825 80.4874C7.08437 80.4874 7.10132 80.4899 7.11991 80.4921C7.07321 80.7924 7.02608 81.0885 6.98021 81.3761C6.97731 81.393 6.97524 81.4087 6.97193 81.4252ZM9.10304 80.8085C9.06419 80.922 9.01005 81.0491 8.96169 81.1927C8.91333 81.3363 8.86868 81.493 8.81784 81.6586C8.767 81.8243 8.70584 81.9907 8.64095 82.1598C8.57606 82.3288 8.50951 82.5181 8.45041 82.6939C8.41817 82.7786 8.3884 82.8659 8.35369 82.9481C8.31897 83.0302 8.28176 83.109 8.24084 83.1874C8.15818 83.345 8.07553 83.4983 8.00113 83.6436C7.85358 83.9096 7.71841 84.1519 7.62913 84.3417C7.61658 84.0475 7.62004 83.7527 7.63947 83.4589C7.66551 82.5613 7.80107 81.5866 7.88746 80.5912C7.89531 80.4798 7.90359 80.3692 7.91185 80.2574C7.96795 80.2659 8.02324 80.2792 8.07717 80.2972C8.29582 80.3637 8.51695 80.4514 8.62607 80.1786C8.78685 80.2587 8.94186 80.0562 9.0733 79.9566C9.26053 79.8143 9.20267 80.1032 9.26053 80.179C9.21217 80.3879 9.16133 80.5971 9.10801 80.8085C9.10388 80.8089 9.10387 80.8068 9.10304 80.8085Z" fill="#D4D5EB"/>
<path d="M106.703 19.359C106.742 19.2022 106.703 19.0328 106.528 19.0937C106.555 18.9389 106.537 18.779 106.477 18.6335C106.439 18.565 106.346 18.557 106.31 18.4899C106.275 18.4229 105.962 16.4504 105.942 16.3881C105.913 16.2893 105.879 16.1921 105.84 16.097C105.819 16.0484 105.794 16.0011 105.767 15.9555C105.74 15.9157 105.662 15.9247 105.637 15.8723C105.536 15.6541 105.8 15.7191 105.892 15.5797C105.898 15.572 105.98 15.2397 105.98 15.2274C105.979 15.0719 105.923 15.1086 105.868 14.9941C105.815 14.8844 105.792 14.7626 105.8 14.6412C105.779 14.2633 105.482 14.028 105.397 13.6884C105.149 13.715 105.204 13.4902 105.012 13.4619C105.152 13.3365 105.15 13.3889 105.211 13.2509C105.247 13.1684 105.282 13.0059 105.321 12.9122L105.28 12.9007C105.319 12.8219 105.337 12.7339 105.333 12.6454C105.329 12.5569 105.303 12.4707 105.257 12.3952C105.211 12.3197 105.146 12.2574 105.07 12.2142C104.993 12.1711 104.908 12.1486 104.82 12.149C104.815 11.9874 104.764 11.8304 104.674 11.6963C104.585 11.5622 104.46 11.4564 104.314 11.3912C104.309 11.3324 104.296 11.2744 104.275 11.2194C104.322 11.1139 104.517 10.97 104.43 10.8628C104.366 10.7825 104.109 10.8598 104.011 10.8413C104.005 10.6346 103.88 9.90875 103.666 9.85835C103.734 9.71738 103.646 9.61563 103.501 9.62334C103.269 9.63657 103.441 9.75128 103.341 9.86734C103.324 9.89036 103.302 9.90913 103.277 9.92222C103.252 9.9353 103.225 9.94235 103.196 9.94281C103.168 9.94327 103.14 9.93713 103.115 9.92487C103.089 9.91261 103.066 9.89456 103.049 9.8721C102.941 9.73816 103.079 9.45974 103.072 9.30218C103.063 9.08598 102.854 8.87116 102.893 8.66944C102.926 8.49914 103.101 8.31878 103.147 8.14128C103.235 7.79149 103.012 7.83622 102.857 8.10932C102.609 7.98177 102.541 8.38917 102.363 8.16268C102.185 7.9362 102.357 7.55826 102.109 7.37141C102.139 7.34244 102.156 7.2681 102.182 7.23712C102.088 7.17613 101.813 6.974 101.807 6.89272C101.798 6.76843 102.043 6.687 101.929 6.53787C101.871 6.46215 101.735 6.48319 101.658 6.49525C101.615 6.37198 101.62 6.23682 101.672 6.11787C101.557 6.10592 101.448 6.06284 101.355 5.99313C101.452 5.88746 101.704 5.69594 101.684 5.52567C101.658 5.28005 101.392 5.37538 101.234 5.30817C101.022 5.21761 100.999 5.01966 100.942 4.83683C100.956 4.73233 100.96 4.62663 100.954 4.52119C100.945 4.34145 100.852 4.3089 100.798 4.1585C100.753 4.03152 100.801 3.98078 100.802 3.85797C100.802 3.62119 100.687 3.52118 100.42 3.47157C100.615 3.34162 100.545 3.2127 100.417 3.07834C100.324 2.9801 100.278 3.03565 100.235 2.91005C100.223 2.76443 100.23 2.61791 100.258 2.47485C100.256 2.28898 100.207 2.10641 100.117 1.94404C100.066 1.82598 100.065 1.50024 99.9376 1.47096C99.9195 1.58332 99.8279 1.72745 99.7032 1.65219C99.5784 1.57693 99.6798 1.42071 99.6546 1.31619C99.6051 1.10634 99.4202 1.02768 99.2822 0.873217C99.1147 0.68723 99.0025 0.203598 98.7835 0.484503C98.5932 0.726571 98.6862 1.14206 98.5157 1.418C98.3957 1.55705 98.2938 1.71129 98.2125 1.87696C98.1821 1.98263 98.2267 2.0761 98.2092 2.18385C98.1818 2.35154 98.0704 2.43638 97.9955 2.57352C97.9408 2.6751 97.9278 2.78483 97.8757 2.8853C97.8024 3.02975 97.6619 3.09877 97.5742 3.22578C97.4521 3.40228 97.4655 3.59289 97.3363 3.77064C97.2193 3.92967 97.1776 3.99141 97.1674 4.08734C96.9071 4.11318 96.6118 4.02413 96.508 4.34751C96.4422 4.55511 96.5499 4.72205 96.4444 4.92206C96.3269 5.14418 96.0895 5.31718 96.0229 5.57768C95.9503 5.87212 96.0749 5.71738 96.2469 5.90492C96.4693 6.14734 96.1759 6.44724 95.901 6.41286C95.4656 5.93074 95.1288 6.52354 95.1288 6.52354C95.1029 6.84805 95.2279 6.93391 95.3682 7.16731C95.5086 7.40071 95.3626 7.44863 95.1251 7.60003C94.9328 7.74602 94.7658 7.92364 94.6311 8.12566C94.4631 8.26481 94.3058 8.41666 94.1605 8.57994C94.0988 8.6776 94.0669 8.79169 94.0685 8.9081C94.0701 9.02452 94.1053 9.13815 94.1696 9.23494C94.2399 9.34571 94.4784 9.48157 94.4795 9.62354C94.479 9.77938 94.3306 9.74115 94.2617 9.84225C94.1782 9.96022 94.2486 9.97697 94.2421 10.1121C94.2337 10.2687 94.2351 10.1964 94.1853 10.3389C94.1363 10.4735 94.0863 10.4724 94.131 10.632C94.1596 10.735 94.3211 10.8469 94.3223 10.9478C94.326 11.1497 94.01 11.3283 93.9143 11.4933C93.8427 11.6158 93.6447 11.8544 93.6606 11.9986C93.5057 11.9778 93.3484 12.0028 93.2078 12.0708C93.0671 12.1387 92.9491 12.2467 92.8679 12.3816C92.8473 12.4734 92.8483 12.569 92.8709 12.6606C92.8936 12.7522 92.9372 12.8373 92.9981 12.9088C93.0589 12.988 93.2734 13.0914 93.2789 13.1981C93.2858 13.3392 93.0188 13.4438 93.0192 13.62C93.0207 13.7319 93.1007 13.7946 93.161 13.8747C93.3693 14.145 93.333 14.3066 93.0668 14.5041C92.7812 14.7142 92.8705 14.7881 93.1725 14.9153C93.1545 15.0412 92.8598 15.4181 93.1651 15.4752C93.0326 15.6133 93.1482 15.641 93.1419 15.7588C93.133 15.923 93.028 16.0222 92.982 16.2014C92.9051 16.1075 92.7993 16.0426 92.6819 16.0175C92.5646 15.9924 92.4426 16.0084 92.3359 16.063C92.0408 16.2239 92.1721 16.6719 92.353 16.8875C92.1659 16.9477 91.865 16.9836 92.0933 17.2798C91.8298 17.4266 91.9005 17.645 91.9598 17.8897C91.9862 18.0501 91.9941 18.213 91.9835 18.375C91.9924 18.5721 91.6493 19.1585 91.6654 19.3459C91.6791 19.5162 91.5521 19.6068 91.5624 19.7706C91.584 19.8841 91.6329 19.9907 91.7047 20.0807C91.7765 20.1708 91.8689 20.2416 91.9738 20.2868C92.1235 20.3246 91.6072 20.3681 91.732 20.5188C91.8305 20.6385 91.6985 20.7831 91.7609 20.9073C91.8234 21.0316 92.0147 21.0175 92.0691 21.1522C92.1235 21.287 91.9994 21.4219 92.0877 21.577C92.1602 21.7087 92.9745 21.5511 93.0287 21.6977C93.1449 22.0138 93.7032 21.8955 94.0759 22.0267C94.2906 22.1022 94.3307 22.0556 94.4519 21.888C94.5487 21.7548 94.6243 21.5058 94.807 21.7038C94.905 21.81 94.8288 21.9788 94.8899 22.0975C94.9705 22.206 95.081 22.2877 95.2073 22.3319C95.4762 22.4937 95.7886 22.5634 96.0982 22.5308C96.3525 22.5147 96.6532 22.4419 96.8357 22.6746C96.8521 22.5857 96.898 22.5055 96.9659 22.4474C96.9846 22.4855 97.0113 22.5192 97.044 22.5459C97.0858 22.6926 97.1297 22.8391 97.1757 22.9855C97.2797 23.2886 97.3698 23.5959 97.4948 23.8893C97.6134 24.1469 97.7042 24.4167 97.7655 24.6939C97.8021 24.9503 97.8155 25.2257 97.832 25.4669C97.8486 25.7081 97.861 25.9258 97.873 26.112C97.8824 26.2139 97.8841 26.344 97.89 26.4893C97.8206 26.8555 97.7721 27.2052 97.7396 27.5052C97.6982 27.8838 97.6636 28.4458 97.5869 29.0627C97.5685 29.2166 97.5463 29.374 97.5153 29.5304C97.501 29.6092 97.4863 29.6883 97.4715 29.7682L97.4127 30.0013C97.3922 30.0796 97.3759 30.1574 97.3512 30.2358L97.2676 30.4711C97.212 30.6281 97.156 30.7838 97.1023 30.9367L96.7929 31.8087C96.7696 31.8763 96.744 31.942 96.7226 32.0067C96.6964 32.0593 96.6824 32.1092 96.65 32.1618C96.5965 32.2643 96.5307 32.3635 96.4725 32.4606L96.4303 32.5316L99.1354 32.7033C99.0998 32.5384 99.0677 32.3601 99.044 32.1672C98.99 31.7173 98.9489 31.2293 98.9126 30.7911C98.8947 30.3512 98.8826 29.9586 98.8736 29.6941C98.8963 29.0423 99.0694 28.4062 99.3789 27.8371C99.7077 27.107 99.9986 26.3598 100.25 25.5983C100.494 24.809 100.739 24.0054 100.938 23.2323C100.944 23.2068 100.95 23.1813 100.956 23.1563C101.177 22.9272 100.97 22.8883 101.12 22.7758C101.331 22.8387 101.237 23.3398 101.322 23.285C101.427 23.2917 101.676 23.3388 101.742 23.227C101.81 23.1072 101.622 22.9572 101.633 22.8227C101.686 22.8218 101.724 22.781 101.772 22.7735C101.637 22.3392 102.209 23.257 102.36 23.1226C102.775 22.7537 103.565 23.6502 103.573 23.2148C103.664 23.2289 103.757 23.211 103.837 23.1642C103.916 23.1173 103.977 23.0443 104.01 22.957C104.019 22.9745 104.032 22.9898 104.048 23.0017C104.064 23.0136 104.082 23.0219 104.101 23.026C104.12 23.0301 104.14 23.03 104.159 23.0255C104.178 23.0211 104.196 23.0125 104.211 23.0003C104.342 22.8955 104.233 22.8619 104.219 22.7992C104.198 22.7089 104.061 22.6934 104.131 22.5323C104.141 22.4964 104.162 22.4649 104.191 22.4427C104.22 22.4205 104.256 22.409 104.293 22.4099C104.417 22.3928 104.615 22.6083 104.791 22.4945C104.915 22.4151 104.966 22.0842 104.972 21.9524C105.181 21.9398 105.226 21.7614 105.229 21.5811C105.431 21.5872 105.395 21.4324 105.331 21.3385C105.279 21.2628 105.171 21.3004 105.128 21.1736C105.119 21.1165 105.123 21.0583 105.138 21.0028C105.153 20.9474 105.18 20.8959 105.216 20.8518C105.522 20.5967 106.163 21.1702 106.07 20.4769C106.468 20.5779 106.254 20.0921 106.319 19.8878C106.384 19.6835 106.649 19.5674 106.703 19.359ZM98.3418 24.381C98.2397 24.2661 98.1456 24.1568 98.0898 24.0855C98.0049 23.9674 97.9068 23.8176 97.8044 23.6527C97.7277 23.5199 97.6617 23.3811 97.6068 23.2377C97.6469 23.2401 97.6868 23.2313 97.7222 23.2124C97.7577 23.1934 97.7873 23.165 97.8081 23.1302C97.8177 23.1746 97.8362 23.2165 97.8625 23.2534C97.8887 23.2903 97.9222 23.3213 97.9607 23.3444C97.9992 23.3676 98.042 23.3825 98.0863 23.3881C98.1306 23.3937 98.1755 23.3899 98.2182 23.3769C98.3107 23.4861 98.3352 23.442 98.4892 23.4526C98.5054 23.4536 98.5223 23.4572 98.5409 23.4605C98.4778 23.7568 98.4144 24.0489 98.3528 24.3326C98.349 24.3493 98.346 24.3648 98.3418 24.381ZM100.517 23.9023C100.472 24.013 100.411 24.1362 100.354 24.2762C100.298 24.4162 100.244 24.5695 100.184 24.7313C100.124 24.8931 100.054 25.0551 99.9796 25.2194C99.9053 25.3837 99.8282 25.5681 99.7593 25.7395C99.7223 25.8219 99.6877 25.907 99.6484 25.9867C99.609 26.0663 99.5674 26.1425 99.5221 26.218C99.4305 26.3697 99.3391 26.5172 99.2565 26.6573C99.0939 26.913 98.9449 27.1458 98.845 27.3292C98.8482 27.0352 98.8676 26.7417 98.903 26.4502C98.9776 25.5574 99.1664 24.5947 99.307 23.6082C99.3209 23.4977 99.3352 23.3881 99.3495 23.2772C99.4054 23.2893 99.4603 23.3061 99.5135 23.3274C99.7297 23.4076 99.9472 23.5091 100.072 23.2442C100.229 23.3342 100.396 23.1424 100.533 23.0515C100.729 22.9217 100.655 23.2058 100.709 23.2851C100.649 23.4901 100.587 23.6954 100.522 23.9026C100.518 23.9028 100.518 23.9007 100.517 23.9023Z" fill="#D4D5EB"/>
<path d="M23.7237 126.053C23.7487 125.892 23.6941 125.728 23.5257 125.807C23.5385 125.65 23.5065 125.493 23.4336 125.354C23.3897 125.29 23.2966 125.292 23.2553 125.229C23.2139 125.166 22.7257 123.235 22.7003 123.175C22.6628 123.08 22.6201 122.987 22.5725 122.896C22.5469 122.85 22.5185 122.806 22.4875 122.763C22.457 122.726 22.3803 122.744 22.3511 122.694C22.231 122.488 22.4984 122.524 22.5773 122.376C22.5829 122.367 22.6345 122.028 22.6333 122.016C22.6181 121.861 22.566 121.903 22.5006 121.795C22.4382 121.692 22.4042 121.573 22.4021 121.451C22.3469 121.077 22.0303 120.874 21.9153 120.545C21.6719 120.598 21.706 120.368 21.5124 120.36C21.6404 120.221 21.6431 120.273 21.6915 120.129C21.7192 120.043 21.7393 119.878 21.7699 119.78L21.7281 119.773C21.7598 119.691 21.7703 119.601 21.7583 119.513C21.7463 119.426 21.7124 119.343 21.6597 119.272C21.6071 119.202 21.5375 119.147 21.4576 119.112C21.3778 119.077 21.2904 119.064 21.2038 119.073C21.1837 118.913 21.1193 118.762 21.0181 118.638C20.9169 118.514 20.7831 118.422 20.6322 118.373C20.6226 118.315 20.6044 118.258 20.5784 118.206C20.616 118.096 20.7958 117.932 20.7004 117.834C20.6296 117.761 20.381 117.865 20.2822 117.857C20.2569 117.652 20.0678 116.943 19.8511 116.915C19.906 116.768 19.8091 116.676 19.6653 116.699C19.436 116.737 19.6174 116.832 19.5284 116.959C19.5139 116.983 19.494 117.004 19.4704 117.02C19.4467 117.036 19.4198 117.046 19.3918 117.049C19.3638 117.053 19.3355 117.049 19.3089 117.04C19.2824 117.03 19.2584 117.015 19.2387 116.994C19.1192 116.872 19.2312 116.581 19.2106 116.424C19.1816 116.21 18.9556 116.018 18.9756 115.813C18.993 115.64 19.1504 115.442 19.1804 115.261C19.2365 114.903 19.019 114.971 18.8894 115.26C18.6317 115.159 18.601 115.572 18.4035 115.365C18.2061 115.158 18.3427 114.764 18.0795 114.604C18.1075 114.572 18.1172 114.496 18.1401 114.463C18.0418 114.412 17.7504 114.24 17.7371 114.16C17.7165 114.037 17.9528 113.93 17.8261 113.793C17.7612 113.724 17.6282 113.759 17.5529 113.78C17.4987 113.661 17.4914 113.526 17.5326 113.402C17.4176 113.403 17.3049 113.371 17.2063 113.312C17.2931 113.196 17.5268 112.979 17.4916 112.811C17.4438 112.57 17.1876 112.693 17.0245 112.643C16.8054 112.575 16.7655 112.38 16.6918 112.204C16.6963 112.099 16.6908 111.993 16.6754 111.889C16.6502 111.711 16.5555 111.688 16.4883 111.544C16.4319 111.423 16.4752 111.367 16.4646 111.245C16.4431 111.009 16.3206 110.921 16.0501 110.9C16.2321 110.75 16.1517 110.629 16.0122 110.509C15.9109 110.421 15.8707 110.481 15.816 110.361C15.7906 110.217 15.7853 110.07 15.8002 109.925C15.7809 109.74 15.7162 109.564 15.612 109.412C15.5502 109.299 15.5205 108.975 15.3911 108.96C15.3832 109.073 15.3052 109.227 15.1745 109.165C15.0438 109.103 15.1305 108.937 15.096 108.835C15.0279 108.632 14.8371 108.573 14.6861 108.434C14.503 108.267 14.3479 107.797 14.1556 108.1C13.9884 108.361 14.1182 108.765 13.9738 109.058C13.8671 109.209 13.7797 109.373 13.7139 109.547C13.6933 109.655 13.7459 109.744 13.7383 109.853C13.7261 110.023 13.6232 110.119 13.5611 110.263C13.5159 110.37 13.5129 110.481 13.4701 110.587C13.4104 110.738 13.277 110.822 13.2013 110.958C13.0959 111.146 13.1265 111.335 13.0141 111.525C12.9122 111.696 12.8763 111.762 12.8748 111.859C12.6186 111.912 12.3173 111.855 12.2433 112.188C12.1966 112.401 12.3186 112.556 12.2318 112.766C12.1351 113 11.9149 113.198 11.8722 113.464C11.8266 113.765 11.9365 113.598 12.1243 113.766C12.367 113.984 12.1025 114.314 11.8263 114.309C11.3504 113.875 11.0693 114.501 11.0693 114.501C11.0728 114.827 11.2046 114.899 11.3651 115.116C11.5255 115.334 11.3848 115.397 11.1626 115.573C10.9846 115.739 10.8348 115.933 10.7191 116.149C10.5648 116.305 10.4222 116.473 10.2925 116.651C10.2401 116.755 10.2187 116.872 10.2308 116.987C10.2429 117.103 10.288 117.213 10.3606 117.302C10.4404 117.405 10.6897 117.515 10.7035 117.656C10.7171 117.811 10.5662 117.789 10.5069 117.897C10.4346 118.023 10.506 118.033 10.5118 118.168C10.5174 118.325 10.5123 118.253 10.4757 118.4C10.4392 118.539 10.3894 118.543 10.4482 118.697C10.4859 118.797 10.6564 118.891 10.6667 118.991C10.6886 119.192 10.3907 119.403 10.3106 119.578C10.2504 119.708 10.0752 119.966 10.104 120.108C9.94823 120.104 9.79429 120.145 9.6607 120.228C9.52712 120.31 9.41959 120.43 9.35106 120.573C9.33884 120.667 9.34849 120.762 9.37924 120.851C9.40998 120.94 9.46094 121.02 9.52796 121.084C9.59544 121.157 9.81784 121.237 9.83289 121.343C9.8525 121.483 9.59667 121.615 9.61301 121.79C9.62453 121.902 9.70964 121.956 9.77673 122.029C10.0081 122.276 9.98661 122.441 9.73994 122.666C9.4751 122.905 9.57054 122.969 9.882 123.064C9.87539 123.191 9.61661 123.598 9.92511 123.622C9.80589 123.774 9.92327 123.789 9.92754 123.907C9.93351 124.071 9.83815 124.181 9.80863 124.365C9.72378 124.279 9.61283 124.226 9.49396 124.213C9.37509 124.201 9.25534 124.23 9.15431 124.295C8.87567 124.487 9.0464 124.919 9.24554 125.115C9.06511 125.194 8.7695 125.262 9.02291 125.533C8.77441 125.707 8.86432 125.917 8.94526 126.154C8.98593 126.311 9.00852 126.472 9.01257 126.635C9.03918 126.83 8.75117 127.45 8.78406 127.635C8.81302 127.803 8.69498 127.907 8.71997 128.069C8.7517 128.18 8.80988 128.281 8.8893 128.363C8.96872 128.445 9.06692 128.506 9.17517 128.539C9.32728 128.561 8.81829 128.659 8.95585 128.796C9.06456 128.905 8.9464 129.063 9.01965 129.18C9.0929 129.297 9.28163 129.263 9.34781 129.391C9.41399 129.519 9.30293 129.667 9.40463 129.812C9.48851 129.935 10.2832 129.692 10.3503 129.832C10.4942 130.135 11.0382 129.958 11.4202 130.049C11.6403 130.101 11.6759 130.051 11.7812 129.871C11.8654 129.728 11.9181 129.472 12.1174 129.65C12.2244 129.745 12.1638 129.921 12.2352 130.033C12.3251 130.132 12.4423 130.202 12.5717 130.233C12.8534 130.365 13.17 130.401 13.4746 130.336C13.7258 130.293 14.018 130.189 14.2202 130.401C14.2285 130.311 14.2669 130.226 14.3291 130.161C14.3511 130.197 14.3806 130.228 14.4155 130.251C14.4703 130.392 14.5271 130.534 14.586 130.675C14.7167 130.965 14.8338 131.262 14.9844 131.541C15.1255 131.784 15.24 132.043 15.3259 132.313C15.3853 132.564 15.4234 132.837 15.4616 133.076C15.4998 133.314 15.5317 133.529 15.5604 133.714C15.579 133.814 15.5924 133.943 15.6114 134.087C15.5754 134.459 15.5587 134.813 15.5534 135.115C15.5465 135.496 15.5627 136.06 15.5421 136.682C15.5377 136.837 15.5298 136.996 15.5131 137.155C15.506 137.235 15.4985 137.315 15.4911 137.397L15.4536 137.635C15.4403 137.715 15.4311 137.794 15.4137 137.875L15.3518 138.118C15.3107 138.28 15.2692 138.441 15.2296 138.599L15.0008 139.5C14.9838 139.57 14.9642 139.638 14.9487 139.705C14.9275 139.76 14.9181 139.811 14.8906 139.867C14.8467 139.975 14.7903 140.081 14.7412 140.183L14.7057 140.259L17.4085 140.143C17.3582 139.982 17.3103 139.808 17.2694 139.618C17.1752 139.176 17.0904 138.695 17.0148 138.262C16.9574 137.826 16.91 137.436 16.8773 137.174C16.841 136.523 16.9557 135.871 17.2119 135.271C17.4727 134.51 17.6943 133.735 17.876 132.95C18.0469 132.138 18.2177 131.312 18.3458 130.521C18.3498 130.495 18.3526 130.469 18.3567 130.443C18.5554 130.192 18.347 130.175 18.4853 130.047C18.7004 130.087 18.6524 130.596 18.732 130.533C18.8374 130.528 19.0888 130.549 19.1439 130.43C19.2009 130.304 19.0008 130.174 18.9997 130.039C19.0514 130.033 19.0855 129.988 19.1329 129.976C18.9593 129.558 19.6105 130.411 19.7489 130.261C20.1276 129.85 20.9933 130.658 20.9622 130.224C21.054 130.228 21.1447 130.201 21.2193 130.146C21.2939 130.091 21.348 130.011 21.3727 129.921C21.3836 129.937 21.3979 129.951 21.4146 129.961C21.4313 129.972 21.45 129.978 21.4693 129.98C21.4887 129.982 21.5083 129.98 21.5268 129.973C21.5453 129.967 21.5622 129.956 21.5764 129.943C21.6968 129.824 21.5858 129.803 21.5657 129.742C21.5376 129.654 21.3992 129.653 21.455 129.485C21.4612 129.448 21.4792 129.415 21.5062 129.39C21.5333 129.364 21.5678 129.349 21.6042 129.346C21.7257 129.316 21.9427 129.51 22.1071 129.378C22.2231 129.285 22.2442 128.95 22.2377 128.819C22.4443 128.784 22.4734 128.601 22.4594 128.422C22.6609 128.406 22.611 128.256 22.5388 128.169C22.481 128.099 22.3764 128.148 22.3225 128.027C22.309 127.971 22.3072 127.912 22.3173 127.855C22.3274 127.799 22.3492 127.745 22.3812 127.697C22.6618 127.41 23.3505 127.913 23.1958 127.233C23.5999 127.291 23.3437 126.83 23.3897 126.62C23.4357 126.41 23.689 126.266 23.7237 126.053ZM15.8702 131.94C15.7584 131.837 15.655 131.738 15.5932 131.673C15.4983 131.564 15.3872 131.425 15.2707 131.272C15.1826 131.148 15.1044 131.017 15.037 130.88C15.077 130.878 15.1159 130.865 15.1494 130.842C15.1829 130.82 15.2098 130.788 15.2273 130.752C15.2408 130.795 15.263 130.834 15.2924 130.868C15.3218 130.902 15.3578 130.93 15.3982 130.949C15.4385 130.968 15.4824 130.978 15.5269 130.979C15.5714 130.98 15.6157 130.971 15.6569 130.954C15.7586 131.053 15.779 131.006 15.933 131C15.9492 131 15.9663 131.001 15.985 131.003C15.949 131.304 15.9124 131.602 15.8767 131.891C15.8744 131.908 15.8729 131.924 15.8702 131.94ZM17.9879 131.233C17.953 131.348 17.9032 131.477 17.8598 131.622C17.8165 131.768 17.7773 131.926 17.7323 132.094C17.6872 132.261 17.6318 132.43 17.5728 132.601C17.5137 132.773 17.4537 132.965 17.4008 133.143C17.3714 133.229 17.3447 133.317 17.3128 133.4C17.2809 133.484 17.2464 133.564 17.2082 133.644C17.1309 133.805 17.0534 133.962 16.984 134.11C16.8454 134.382 16.7185 134.629 16.6357 134.822C16.6124 134.529 16.6052 134.235 16.6141 133.941C16.6078 133.044 16.7086 132.066 16.7594 131.068C16.7632 130.957 16.7675 130.846 16.7718 130.734C16.8284 130.74 16.8844 130.751 16.9392 130.767C17.1612 130.824 17.3864 130.902 17.4861 130.625C17.6505 130.698 17.7988 130.489 17.9272 130.384C18.1101 130.234 18.0624 130.525 18.1233 130.598C18.0823 130.808 18.0388 131.019 17.9929 131.233C17.9887 131.233 17.9887 131.231 17.9879 131.233Z" fill="#D4D5EB"/>
</svg>
