<svg width="16" height="33" viewBox="0 0 16 33" fill="none" xmlns="http://www.w3.org/2000/svg">
<path d="M15.1528 18.8147C15.1834 18.6554 15.1351 18.4885 14.9648 18.5606C14.9832 18.404 14.9571 18.2453 14.8896 18.1035C14.8482 18.0374 14.7556 18.0353 14.7168 17.9705C14.6779 17.9057 14.2621 15.9529 14.239 15.8919C14.2051 15.7949 14.1661 15.6999 14.122 15.6073C14.0982 15.56 14.0716 15.5143 14.0423 15.4704C14.0133 15.4323 13.9364 15.4463 13.9092 15.3955C13.7971 15.1837 14.0617 15.232 14.1456 15.0867C14.1514 15.0786 14.215 14.741 14.2142 14.7287C14.2047 14.5733 14.1514 14.6135 14.0902 14.5025C14.032 14.3962 14.0024 14.2758 14.0046 14.1539C13.9633 13.7773 13.6558 13.5609 13.5533 13.2267C13.3094 13.269 13.3516 13.0407 13.1594 13.0246C13.2916 12.8903 13.2925 12.9428 13.3458 12.8009C13.3764 12.7162 13.4024 12.5515 13.4363 12.4553L13.395 12.4464C13.4296 12.365 13.4431 12.2759 13.4344 12.1876C13.4257 12.0993 13.3949 12.0148 13.3451 11.9423C13.2953 11.8697 13.2281 11.8115 13.1499 11.7732C13.0718 11.7349 12.9854 11.7179 12.899 11.7237C12.8847 11.5625 12.8261 11.4087 12.73 11.2803C12.6339 11.1518 12.5041 11.054 12.3559 10.9981C12.3484 10.9395 12.3323 10.8824 12.3084 10.8287C12.3497 10.7203 12.5344 10.5639 12.4431 10.4623C12.3753 10.386 12.1244 10.4797 12.0265 10.4674C12.0087 10.2611 11.8462 9.54308 11.6317 9.50623C11.6917 9.36093 11.5987 9.26478 11.4548 9.28172C11.2254 9.30968 11.4023 9.41346 11.3094 9.53588C11.294 9.55996 11.2735 9.58012 11.2494 9.59479C11.2253 9.60946 11.1982 9.61826 11.1703 9.62051C11.1423 9.62277 11.1142 9.6184 11.0882 9.60777C11.0621 9.59713 11.0388 9.58051 11.02 9.55918C10.9055 9.4321 11.0275 9.1449 11.0126 8.98775C10.9915 8.77214 10.7737 8.57051 10.8009 8.36634C10.8245 8.19393 10.9882 8.00247 11.0246 7.82202C11.0932 7.46662 10.8745 7.5255 10.7352 7.80846C10.4827 7.69663 10.4372 8.10837 10.2483 7.89318C10.0594 7.67799 10.2095 7.28913 9.95363 7.118C9.98256 7.08708 9.99497 7.01168 10.0189 6.97907C9.92305 6.924 9.63951 6.73931 9.62918 6.6584C9.61306 6.53471 9.85195 6.43771 9.73085 6.29581C9.66885 6.22379 9.53534 6.25345 9.4597 6.27039C9.41009 6.14987 9.40772 6.01438 9.45309 5.89212C9.33881 5.88745 9.22788 5.85131 9.13195 5.78749C9.22247 5.67566 9.4626 5.4681 9.43367 5.29909C9.39482 5.0551 9.13566 5.16735 8.97529 5.11017C8.75994 5.03307 8.72728 4.83652 8.66032 4.65734C8.66857 4.55195 8.66692 4.44598 8.65538 4.34091C8.63678 4.16173 8.54337 4.13505 8.48179 3.98806C8.43012 3.86395 8.47517 3.81015 8.46897 3.68731C8.45616 3.45052 8.33752 3.35775 8.06927 3.32514C8.25568 3.18281 8.18004 3.05828 8.04571 2.93204C7.94816 2.8397 7.90601 2.89815 7.856 2.77531C7.83594 2.63046 7.83594 2.48344 7.856 2.33859C7.84349 2.15287 7.7855 1.97338 7.68738 1.81672C7.62993 1.70192 7.61215 1.37618 7.48402 1.355C7.47203 1.46852 7.38895 1.61847 7.26124 1.55112C7.13352 1.48377 7.22568 1.32111 7.19509 1.21818C7.13475 1.01146 6.9471 0.944534 6.80202 0.798818C6.62595 0.62345 6.48872 0.146911 6.2866 0.441733C6.11094 0.69589 6.22543 1.1055 6.07126 1.39227C5.95968 1.53895 5.86691 1.69967 5.79517 1.87051C5.77079 1.9781 5.81996 2.06876 5.80839 2.17762C5.79021 2.34706 5.68438 2.43898 5.61742 2.58088C5.56865 2.68593 5.56164 2.7965 5.51535 2.90028C5.45046 3.04938 5.31488 3.12732 5.2347 3.25991C5.1231 3.44417 5.14666 3.63394 5.02803 3.8199C4.92057 3.98637 4.88254 4.05075 4.87758 4.14733C4.6209 4.18969 4.32332 4.11938 4.23776 4.44936C4.18361 4.66116 4.29934 4.82128 4.20552 5.02799C4.10095 5.25758 3.87485 5.44565 3.82277 5.7104C3.76656 6.00945 3.88188 5.84679 4.0625 6.02343C4.29603 6.25175 4.02116 6.5703 3.74671 6.55335C3.28916 6.09884 2.98704 6.71305 2.98704 6.71305C2.97877 7.03921 3.1073 7.11715 3.25899 7.34166C3.41068 7.56616 3.2685 7.62335 3.04117 7.78983C2.85825 7.94803 2.70224 8.13626 2.57949 8.34685C2.42044 8.49666 2.27261 8.65851 2.13723 8.83102C2.08137 8.9326 2.0558 9.04872 2.06366 9.16504C2.07152 9.28135 2.11247 9.39276 2.18145 9.48547C2.25709 9.59179 2.50095 9.71252 2.50963 9.85442C2.51749 10.0103 2.36827 9.9815 2.30544 10.087C2.22898 10.2102 2.29967 10.2225 2.3005 10.3581C2.3005 10.5152 2.29802 10.4428 2.25627 10.5885C2.21494 10.7262 2.16533 10.7283 2.21823 10.885C2.25212 10.9863 2.41828 11.0879 2.42489 11.1887C2.43936 11.3904 2.13558 11.589 2.04961 11.7602C1.98513 11.8873 1.8016 12.1384 1.82516 12.2816C1.6704 12.2706 1.51583 12.3056 1.38003 12.3825C1.24423 12.4594 1.13298 12.5748 1.05969 12.715C1.04416 12.8081 1.05033 12.9036 1.0777 12.9938C1.10507 13.0839 1.15285 13.1662 1.21716 13.2339C1.28164 13.3093 1.49987 13.3991 1.51103 13.5054C1.5255 13.646 1.26635 13.7676 1.27627 13.9438C1.28371 14.0556 1.36639 14.1132 1.43046 14.1895C1.65158 14.4466 1.62429 14.6105 1.37092 14.8249C1.09895 15.0532 1.19154 15.1214 1.49781 15.2294C1.48665 15.3565 1.21468 15.7521 1.52054 15.7898C1.39654 15.9364 1.5127 15.9567 1.5127 16.0749C1.5127 16.2397 1.41392 16.3456 1.37796 16.5277C1.29667 16.4387 1.18828 16.3805 1.07054 16.3628C0.952797 16.3451 0.832689 16.3689 0.729865 16.4303C0.445911 16.6099 0.600085 17.0496 0.791042 17.2538C0.608765 17.3258 0.312402 17.3809 0.554611 17.6625C0.301242 17.826 0.383069 18.04 0.454988 18.281C0.489776 18.4397 0.506419 18.6021 0.504585 18.7647C0.524011 18.9613 0.215272 19.5696 0.241312 19.7559C0.264045 19.9254 0.142933 20.0241 0.161946 20.1872C0.189504 20.2993 0.24371 20.4028 0.319718 20.4883C0.395726 20.5738 0.491184 20.6387 0.597598 20.6773C0.748049 20.7056 0.238423 20.7819 0.370274 20.9246C0.474432 21.0382 0.351259 21.1911 0.419871 21.3114C0.488483 21.4317 0.677371 21.4054 0.738544 21.5367C0.799716 21.6681 0.683974 21.8108 0.779866 21.9603C0.858811 22.0874 1.65777 21.8782 1.71936 22.0213C1.85162 22.3301 2.39886 22.1764 2.7754 22.284C2.9924 22.3458 3.02961 22.2967 3.1408 22.1213C3.22966 21.9819 3.29125 21.7282 3.48303 21.9146C3.58595 22.0146 3.5194 22.1882 3.58636 22.303C3.67208 22.4064 3.78612 22.4811 3.91371 22.5174C4.18905 22.662 4.50253 22.7119 4.80772 22.6597C5.05902 22.6275 5.35332 22.5356 5.54676 22.7567C5.55822 22.6668 5.59951 22.5836 5.66371 22.5212C5.68428 22.5582 5.7125 22.5901 5.74638 22.6148C5.79571 22.7588 5.84712 22.9025 5.90057 23.046C6.02002 23.3425 6.12583 23.6441 6.26554 23.9296C6.39701 24.1797 6.5015 24.4438 6.57717 24.7171C6.62718 24.9712 6.65529 25.2457 6.68464 25.4859C6.71399 25.7261 6.73796 25.943 6.75987 26.1285C6.77475 26.2297 6.78341 26.3598 6.79705 26.5047C6.74787 26.8753 6.71852 27.2282 6.7024 27.5302C6.68173 27.9114 6.67763 28.4756 6.63464 29.0975C6.62472 29.2525 6.61107 29.4114 6.58875 29.5698C6.57883 29.6494 6.56848 29.7295 6.55815 29.8104L6.51229 30.0472C6.49617 30.1268 6.48418 30.2056 6.46393 30.2857L6.39367 30.5263C6.34696 30.6868 6.29984 30.8461 6.25479 31.0024L5.9948 31.894C5.97537 31.9631 5.95346 32.0304 5.93569 32.0965C5.91254 32.1507 5.90139 32.2016 5.87204 32.2562C5.82451 32.3621 5.76457 32.4655 5.71207 32.5663L5.67406 32.64H8.36564C8.32142 32.4773 8.28008 32.3011 8.24619 32.1097C8.16848 31.6632 8.10152 31.1777 8.042 30.7419C8.00067 30.303 7.96759 29.9112 7.94445 29.6473C7.93192 28.994 8.0694 28.3469 8.34579 27.7581C8.63255 27.0071 8.88088 26.2414 9.08977 25.4639C9.28899 24.6591 9.48864 23.8398 9.64447 23.0541C9.64943 23.0282 9.65313 23.0024 9.65809 22.977C9.86475 22.7338 9.65811 22.708 9.8003 22.586C10.0127 22.6355 9.9466 23.1426 10.028 23.0824C10.133 23.0824 10.3822 23.1138 10.4414 22.9977C10.5025 22.8736 10.3083 22.7355 10.312 22.6004C10.3637 22.5961 10.3992 22.5529 10.4467 22.5424C10.2892 22.1166 10.9059 22.9981 11.049 22.8541C11.4404 22.4589 12.272 23.3052 12.2567 22.8694C12.3478 22.8777 12.439 22.8539 12.5151 22.802C12.5913 22.7501 12.648 22.6732 12.6758 22.5839C12.686 22.6008 12.6997 22.6152 12.716 22.6261C12.7322 22.637 12.7505 22.6442 12.7697 22.6471C12.7889 22.65 12.8085 22.6485 12.8271 22.6429C12.8457 22.6373 12.8629 22.6275 12.8775 22.6144C13.0015 22.5013 12.892 22.4746 12.8742 22.4127C12.8494 22.3238 12.7118 22.317 12.7733 22.1514C12.7808 22.1149 12.7999 22.082 12.8277 22.058C12.8555 22.034 12.8903 22.0202 12.9267 22.0188C13.0486 21.9938 13.2574 22.1967 13.4256 22.0717C13.5442 21.9845 13.5773 21.6503 13.5756 21.5181C13.7823 21.4923 13.8178 21.311 13.8104 21.1305C14.0112 21.1237 13.967 20.9712 13.8984 20.8814C13.8434 20.809 13.7376 20.8535 13.6884 20.7294C13.677 20.6728 13.6773 20.6144 13.6895 20.558C13.7016 20.5015 13.7252 20.4484 13.7587 20.4019C14.048 20.1274 14.7147 20.6603 14.5854 19.9728C14.985 20.0486 14.747 19.5763 14.8003 19.3679C14.8536 19.1595 15.1107 19.0265 15.1528 18.8147ZM7.13185 24.3676C7.02438 24.2592 6.92521 24.1558 6.8661 24.088C6.77558 23.9754 6.67017 23.8318 6.55981 23.6733C6.47669 23.5454 6.4037 23.4108 6.34157 23.2709C6.38148 23.2707 6.42058 23.2594 6.45472 23.2382C6.48885 23.217 6.51674 23.1868 6.53542 23.1506C6.54732 23.1944 6.56794 23.2352 6.59597 23.2704C6.62399 23.3056 6.65881 23.3344 6.69826 23.3552C6.73771 23.3759 6.78091 23.3881 6.82516 23.3908C6.8694 23.3936 6.91373 23.387 6.95535 23.3713C7.0529 23.4747 7.07482 23.4289 7.22816 23.4298C7.24428 23.4298 7.26123 23.4323 7.27983 23.4344C7.23312 23.7348 7.186 24.0309 7.14012 24.3185C7.13723 24.3354 7.13515 24.3511 7.13185 24.3676ZM9.26295 23.7509C9.2241 23.8644 9.16996 23.9915 9.12161 24.1351C9.07325 24.2787 9.0286 24.4354 8.97776 24.601C8.92692 24.7666 8.86576 24.9331 8.80086 25.1021C8.73597 25.2711 8.66943 25.4605 8.61032 25.6363C8.57808 25.721 8.54832 25.8083 8.5136 25.8904C8.47888 25.9726 8.44168 26.0514 8.40076 26.1298C8.31809 26.2873 8.23545 26.4407 8.16105 26.586C8.01349 26.852 7.87832 27.0943 7.78904 27.2841C7.77649 26.9898 7.77995 26.6951 7.79939 26.4013C7.82543 25.5037 7.96099 24.529 8.04737 23.5336C8.05523 23.4222 8.0635 23.3116 8.07177 23.1998C8.12786 23.2083 8.18315 23.2216 8.23708 23.2396C8.45573 23.3061 8.67686 23.3938 8.78598 23.121C8.94676 23.201 9.10177 22.9986 9.23321 22.899C9.42045 22.7567 9.36258 23.0456 9.42045 23.1214C9.37209 23.3302 9.32124 23.5395 9.26792 23.7509C9.26379 23.7513 9.26378 23.7492 9.26295 23.7509Z" fill="#D4D5EB"/>
</svg>
