<svg width="108" height="141" viewBox="0 0 108 141" fill="none" xmlns="http://www.w3.org/2000/svg">
<path d="M42.8159 50.2508C42.7853 50.0915 42.8336 49.9246 43.0039 49.9966C42.9855 49.84 43.0116 49.6813 43.0791 49.5395C43.1205 49.4735 43.2131 49.4713 43.2519 49.4065C43.2908 49.3417 43.7066 47.389 43.7297 47.328C43.7636 47.2309 43.8026 47.1359 43.8467 47.0433C43.8705 46.996 43.8971 46.9503 43.9264 46.9065C43.9554 46.8684 44.0323 46.8823 44.0595 46.8315C44.1716 46.6197 43.907 46.668 43.8231 46.5227C43.8173 46.5147 43.7537 46.1771 43.7545 46.1648C43.764 46.0093 43.8173 46.0496 43.8785 45.9386C43.9367 45.8322 43.9663 45.7119 43.9641 45.5899C44.0054 45.2134 44.3129 44.9969 44.4154 44.6627C44.6593 44.7051 44.6171 44.4767 44.8093 44.4606C44.6771 44.3264 44.6762 44.3789 44.6229 44.237C44.5923 44.1523 44.5663 43.9875 44.5324 43.8913L44.5737 43.8824C44.5391 43.8011 44.5256 43.712 44.5343 43.6237C44.543 43.5354 44.5738 43.4509 44.6236 43.3783C44.6734 43.3057 44.7406 43.2475 44.8188 43.2092C44.8969 43.171 44.9833 43.1539 45.0697 43.1598C45.084 42.9986 45.1426 42.8448 45.2387 42.7163C45.3348 42.5879 45.4646 42.49 45.6128 42.4342C45.6203 42.3756 45.6364 42.3185 45.6604 42.2647C45.619 42.1563 45.4343 42 45.5256 41.8983C45.5934 41.8221 45.8443 41.9157 45.9422 41.9034C45.96 41.6971 46.1225 40.9791 46.337 40.9423C46.277 40.797 46.37 40.7008 46.5139 40.7178C46.7433 40.7457 46.5664 40.8495 46.6594 40.9719C46.6747 40.996 46.6952 41.0162 46.7193 41.0308C46.7434 41.0455 46.7705 41.0543 46.7984 41.0566C46.8264 41.0588 46.8545 41.0544 46.8805 41.0438C46.9066 41.0332 46.9299 41.0165 46.9487 40.9952C47.0632 40.8681 46.9413 40.5809 46.9561 40.4238C46.9772 40.2082 47.195 40.0065 47.1678 39.8024C47.1442 39.63 46.9805 39.4385 46.9442 39.2581C46.8755 38.9027 47.0942 38.9615 47.2335 39.2445C47.486 39.1327 47.5315 39.5444 47.7204 39.3292C47.9093 39.114 47.7592 38.7252 48.0151 38.554C47.9862 38.5231 47.9737 38.4477 47.9498 38.4151C48.0457 38.36 48.3292 38.1753 48.3395 38.0944C48.3557 37.9708 48.1168 37.8737 48.2379 37.7318C48.2999 37.6598 48.4334 37.6895 48.509 37.7064C48.5586 37.5859 48.561 37.4504 48.5156 37.3282C48.6299 37.3235 48.7408 37.2873 48.8368 37.2235C48.7463 37.1117 48.5061 36.9041 48.535 36.7351C48.5739 36.4911 48.8331 36.6034 48.9934 36.5462C49.2088 36.4691 49.2414 36.2726 49.3084 36.0934C49.3001 35.988 49.3018 35.882 49.3133 35.777C49.3319 35.5978 49.4253 35.5711 49.4869 35.4241C49.5386 35.3 49.4935 35.2462 49.4997 35.1233C49.5126 34.8866 49.6312 34.7938 49.8995 34.7612C49.713 34.6188 49.7887 34.4943 49.923 34.3681C50.0206 34.2757 50.0627 34.3342 50.1127 34.2113C50.1328 34.0665 50.1328 33.9195 50.1127 33.7746C50.1252 33.5889 50.1832 33.4094 50.2813 33.2528C50.3388 33.138 50.3566 32.8122 50.4847 32.791C50.4967 32.9046 50.5798 33.0545 50.7075 32.9872C50.8352 32.9198 50.743 32.7571 50.7736 32.6542C50.834 32.4475 51.0216 32.3806 51.1667 32.2349C51.3428 32.0595 51.48 31.5829 51.6821 31.8778C51.8578 32.1319 51.7433 32.5415 51.8975 32.8283C52.009 32.975 52.1018 33.1357 52.1736 33.3065C52.1979 33.4141 52.1488 33.5048 52.1603 33.6137C52.1785 33.7831 52.2844 33.875 52.3513 34.0169C52.4001 34.122 52.4071 34.2325 52.4534 34.3363C52.5183 34.4854 52.6539 34.5634 52.734 34.6959C52.8456 34.8802 52.8221 35.07 52.9407 35.2559C53.0482 35.4224 53.0862 35.4868 53.0912 35.5834C53.3478 35.6257 53.6454 35.5554 53.731 35.8854C53.7851 36.0972 53.6694 36.2573 53.7632 36.464C53.8678 36.6936 54.0939 36.8817 54.146 37.1464C54.2022 37.4455 54.0869 37.2828 53.9062 37.4595C53.6727 37.6878 53.9476 38.0063 54.222 37.9894C54.6796 37.5349 54.9817 38.1491 54.9817 38.1491C54.99 38.4753 54.8614 38.5532 54.7098 38.7777C54.5581 39.0022 54.7002 39.0594 54.9276 39.2259C55.1105 39.3841 55.2665 39.5723 55.3893 39.7829C55.5483 39.9327 55.6961 40.0945 55.8315 40.2671C55.8874 40.3686 55.9129 40.4848 55.9051 40.6011C55.8972 40.7174 55.8563 40.8288 55.7873 40.9215C55.7117 41.0278 55.4678 41.1486 55.4591 41.2905C55.4513 41.4463 55.6005 41.4175 55.6633 41.523C55.7398 41.6463 55.6691 41.6586 55.6682 41.7941C55.6682 41.9513 55.6707 41.8788 55.7125 42.0246C55.7538 42.1622 55.8034 42.1643 55.7505 42.3211C55.7166 42.4223 55.5505 42.524 55.5438 42.6248C55.5294 42.8264 55.8332 43.0251 55.9191 43.1962C55.9836 43.3233 56.1671 43.5745 56.1436 43.7177C56.2983 43.7066 56.4529 43.7417 56.5887 43.8185C56.7245 43.8954 56.8358 44.0109 56.9091 44.151C56.9246 44.2441 56.9184 44.3396 56.891 44.4298C56.8637 44.52 56.8159 44.6023 56.7516 44.6699C56.6871 44.7453 56.4689 44.8351 56.4577 44.9414C56.4432 45.0821 56.7024 45.2036 56.6925 45.3798C56.685 45.4917 56.6024 45.5493 56.5383 45.6255C56.3172 45.8826 56.3445 46.0466 56.5978 46.2609C56.8698 46.4892 56.7772 46.5574 56.4709 46.6655C56.4821 46.7925 56.7541 47.1882 56.4482 47.2259C56.5722 47.3724 56.456 47.3928 56.456 47.5109C56.456 47.6757 56.5548 47.7816 56.5908 47.9638C56.6721 47.8747 56.7805 47.8166 56.8982 47.7989C57.016 47.7812 57.1361 47.805 57.2389 47.8663C57.5228 48.0459 57.3687 48.4856 57.1777 48.6898C57.36 48.7618 57.6563 48.8169 57.4141 49.0986C57.6675 49.2621 57.5857 49.476 57.5138 49.717C57.479 49.8758 57.4623 50.0381 57.4642 50.2008C57.4447 50.3973 57.7535 51.0056 57.7274 51.192C57.7047 51.3614 57.8258 51.4601 57.8068 51.6232C57.7792 51.7354 57.725 51.8388 57.649 51.9243C57.573 52.0098 57.4776 52.0748 57.3712 52.1133C57.2207 52.1417 57.7303 52.2179 57.5985 52.3607C57.4943 52.4742 57.6175 52.6271 57.5489 52.7474C57.4803 52.8677 57.2914 52.8415 57.2302 52.9728C57.169 53.1041 57.2848 53.2468 57.1889 53.3964C57.1099 53.5235 56.311 53.3142 56.2494 53.4574C56.1171 53.7662 55.5699 53.6124 55.1933 53.72C54.9763 53.7818 54.9391 53.7327 54.8279 53.5573C54.7391 53.418 54.6775 53.1642 54.4857 53.3506C54.3828 53.4506 54.4493 53.6243 54.3824 53.7391C54.2967 53.8425 54.1826 53.9172 54.055 53.9534C53.7797 54.0981 53.4662 54.148 53.161 54.0957C52.9097 54.0635 52.6154 53.9716 52.422 54.1927C52.4105 54.1028 52.3692 54.0196 52.305 53.9572C52.2844 53.9942 52.2562 54.0262 52.2223 54.0508C52.173 54.1948 52.1216 54.3386 52.0682 54.482C51.9487 54.7786 51.8429 55.0802 51.7032 55.3657C51.5717 55.6158 51.4672 55.8798 51.3916 56.1531C51.3415 56.4073 51.3134 56.6818 51.2841 56.922C51.2547 57.1621 51.2308 57.379 51.2089 57.5645C51.194 57.6658 51.1853 57.7958 51.1717 57.9407C51.2209 58.3113 51.2502 58.6642 51.2663 58.9662C51.287 59.3475 51.2911 59.9117 51.3341 60.5335C51.344 60.6886 51.3577 60.8474 51.38 61.0058C51.3899 61.0855 51.4002 61.1655 51.4106 61.2464L51.4564 61.4832C51.4726 61.5629 51.4845 61.6416 51.5048 61.7217L51.5751 61.9623C51.6218 62.1228 51.6689 62.2821 51.7139 62.4384L51.9739 63.3301C51.9934 63.3991 52.0153 63.4665 52.033 63.5326C52.0562 63.5868 52.0673 63.6376 52.0967 63.6923C52.1442 63.7982 52.2042 63.9015 52.2567 64.0023L52.2947 64.076H49.6031C49.6473 63.9134 49.6886 63.7372 49.7225 63.5457C49.8002 63.0992 49.8672 62.6138 49.9267 62.1779C49.9681 61.7391 50.0011 61.3472 50.0243 61.0833C50.0368 60.4301 49.8993 59.7829 49.6229 59.1941C49.3362 58.4432 49.0878 57.6774 48.8789 56.8999C48.6797 56.0951 48.4801 55.2759 48.3242 54.4901C48.3193 54.4643 48.3156 54.4384 48.3106 54.413C48.104 54.1699 48.3106 54.144 48.1684 54.022C47.956 54.0716 48.0221 54.5786 47.9407 54.5185C47.8357 54.5185 47.5865 54.5498 47.5274 54.4338C47.4662 54.3096 47.6604 54.1715 47.6567 54.0364C47.6051 54.0322 47.5695 53.989 47.522 53.9784C47.6795 53.5527 47.0628 54.4342 46.9198 54.2902C46.5283 53.8949 45.6967 54.7413 45.712 54.3054C45.6209 54.3137 45.5297 54.2899 45.4536 54.238C45.3774 54.1862 45.3207 54.1092 45.2929 54.0199C45.2827 54.0368 45.269 54.0512 45.2528 54.0621C45.2365 54.073 45.2182 54.0802 45.199 54.0831C45.1798 54.086 45.1602 54.0846 45.1416 54.0789C45.123 54.0733 45.1058 54.0635 45.0912 54.0504C44.9672 53.9373 45.0768 53.9106 45.0945 53.8488C45.1193 53.7598 45.2569 53.753 45.1954 53.5874C45.1879 53.5509 45.1688 53.5181 45.141 53.494C45.1132 53.47 45.0784 53.4562 45.042 53.4548C44.9201 53.4298 44.7114 53.6327 44.5431 53.5078C44.4245 53.4205 44.3914 53.0863 44.3931 52.9541C44.1864 52.9283 44.1509 52.747 44.1583 52.5665C43.9575 52.5598 44.0017 52.4073 44.0703 52.3175C44.1253 52.245 44.2311 52.2895 44.2803 52.1654C44.2917 52.1088 44.2914 52.0504 44.2792 51.994C44.2671 51.9376 44.2435 51.8844 44.21 51.838C43.9207 51.5635 43.254 52.0964 43.3833 51.4089C42.9837 51.4847 43.2217 51.0124 43.1684 50.804C43.1151 50.5956 42.858 50.4626 42.8159 50.2508ZM50.8369 55.8037C50.9443 55.6952 51.0435 55.5919 51.1026 55.5241C51.1931 55.4114 51.2986 55.2678 51.4089 55.1094C51.492 54.9814 51.565 54.8469 51.6272 54.707C51.5872 54.7068 51.5481 54.6955 51.514 54.6743C51.4799 54.6531 51.452 54.6228 51.4333 54.5867C51.4214 54.6304 51.4008 54.6712 51.3728 54.7064C51.3447 54.7416 51.3099 54.7705 51.2705 54.7912C51.231 54.812 51.1878 54.8241 51.1436 54.8269C51.0993 54.8297 51.055 54.823 51.0134 54.8074C50.9158 54.9107 50.8939 54.865 50.7406 54.8658C50.7244 54.8658 50.7075 54.8684 50.6889 54.8705C50.7356 55.1708 50.7827 55.4669 50.8286 55.7545C50.8315 55.7715 50.8336 55.7871 50.8369 55.8037ZM48.7058 55.1869C48.7446 55.3004 48.7988 55.4275 48.8471 55.5711C48.8955 55.7147 48.9401 55.8714 48.991 56.0371C49.0418 56.2027 49.103 56.3692 49.1679 56.5382C49.2327 56.7072 49.2993 56.8965 49.3584 57.0723C49.3906 57.157 49.4204 57.2443 49.4551 57.3265C49.4898 57.4087 49.527 57.4874 49.568 57.5658C49.6506 57.7234 49.7333 57.8767 49.8077 58.022C49.9552 58.288 50.0904 58.5303 50.1797 58.7201C50.1922 58.4259 50.1888 58.1312 50.1693 57.8373C50.1433 56.9397 50.0077 55.965 49.9213 54.9696C49.9135 54.8582 49.9052 54.7476 49.897 54.6358C49.8409 54.6443 49.7856 54.6577 49.7316 54.6756C49.513 54.7421 49.2919 54.8298 49.1827 54.557C49.022 54.6371 48.8669 54.4346 48.7355 54.3351C48.5483 54.1927 48.6061 54.4816 48.5483 54.5574C48.5966 54.7663 48.6475 54.9755 48.7008 55.1869C48.7049 55.1873 48.7049 55.1852 48.7058 55.1869Z" fill="#D4D5EB"/>
<path d="M73.8159 21.5552C73.7853 21.3959 73.8336 21.229 74.0039 21.301C73.9855 21.1444 74.0116 20.9857 74.0791 20.844C74.1205 20.7779 74.2131 20.7758 74.2519 20.711C74.2908 20.6462 74.7066 18.6934 74.7297 18.6324C74.7636 18.5354 74.8026 18.4403 74.8467 18.3477C74.8705 18.3005 74.8971 18.2548 74.9264 18.2109C74.9554 18.1728 75.0323 18.1868 75.0595 18.1359C75.1716 17.9241 74.907 17.9724 74.8231 17.8271C74.8173 17.8191 74.7537 17.4815 74.7545 17.4692C74.764 17.3137 74.8173 17.354 74.8785 17.243C74.9367 17.1367 74.9663 17.0163 74.9641 16.8944C75.0054 16.5178 75.3129 16.3014 75.4154 15.9671C75.6593 16.0095 75.6171 15.7812 75.8093 15.7651C75.6771 15.6308 75.6762 15.6833 75.6229 15.5414C75.5923 15.4567 75.5663 15.2919 75.5324 15.1958L75.5737 15.1869C75.5391 15.1055 75.5256 15.0164 75.5343 14.9281C75.543 14.8398 75.5738 14.7553 75.6236 14.6827C75.6734 14.6102 75.7406 14.5519 75.8188 14.5137C75.8969 14.4754 75.9833 14.4584 76.0697 14.4642C76.084 14.303 76.1426 14.1492 76.2387 14.0208C76.3348 13.8923 76.4646 13.7945 76.6128 13.7386C76.6203 13.68 76.6364 13.6229 76.6604 13.5692C76.619 13.4607 76.4343 13.3044 76.5256 13.2028C76.5934 13.1265 76.8443 13.2201 76.9422 13.2078C76.96 13.0016 77.1225 12.2836 77.337 12.2467C77.277 12.1014 77.37 12.0053 77.5139 12.0222C77.7433 12.0502 77.5664 12.1539 77.6594 12.2764C77.6747 12.3004 77.6952 12.3206 77.7193 12.3353C77.7434 12.3499 77.7705 12.3587 77.7984 12.361C77.8264 12.3632 77.8545 12.3589 77.8805 12.3482C77.9066 12.3376 77.9299 12.321 77.9487 12.2997C78.0632 12.1726 77.9413 11.8854 77.9561 11.7282C77.9772 11.5126 78.195 11.311 78.1678 11.1068C78.1442 10.9344 77.9805 10.7429 77.9442 10.5625C77.8755 10.2071 78.0942 10.266 78.2335 10.5489C78.486 10.4371 78.5315 10.8488 78.7204 10.6337C78.9093 10.4185 78.7592 10.0296 79.0151 9.85848C78.9862 9.82756 78.9737 9.75216 78.9498 9.71955C79.0457 9.66448 79.3292 9.47979 79.3395 9.39888C79.3557 9.27519 79.1168 9.17819 79.2379 9.03628C79.2999 8.96427 79.4334 8.99393 79.509 9.01087C79.5586 8.89035 79.561 8.75486 79.5156 8.6326C79.6299 8.62792 79.7408 8.59178 79.8368 8.52797C79.7463 8.41614 79.5061 8.20858 79.535 8.03957C79.5739 7.79558 79.8331 7.90783 79.9934 7.85065C80.2088 7.77355 80.2414 7.577 80.3084 7.39782C80.3001 7.29243 80.3018 7.18646 80.3133 7.08139C80.3319 6.90221 80.4253 6.87553 80.4869 6.72854C80.5386 6.60443 80.4935 6.55063 80.4997 6.42779C80.5126 6.191 80.6312 6.09823 80.8995 6.06562C80.713 5.92329 80.7887 5.79875 80.923 5.67252C81.0206 5.58018 81.0627 5.63863 81.1127 5.51579C81.1328 5.37094 81.1328 5.22392 81.1127 5.07907C81.1252 4.89335 81.1832 4.71386 81.2813 4.55719C81.3388 4.4424 81.3566 4.11666 81.4847 4.09548C81.4967 4.209 81.5798 4.35895 81.7075 4.2916C81.8352 4.22425 81.743 4.06159 81.7736 3.95866C81.834 3.75194 82.0216 3.68501 82.1667 3.5393C82.3428 3.36393 82.48 2.88739 82.6821 3.18221C82.8578 3.43637 82.7433 3.84598 82.8975 4.13275C83.009 4.27943 83.1018 4.44015 83.1736 4.61099C83.1979 4.71858 83.1488 4.80923 83.1603 4.9181C83.1785 5.08754 83.2844 5.17945 83.3513 5.32136C83.4001 5.42641 83.4071 5.53697 83.4534 5.64075C83.5183 5.78986 83.6539 5.8678 83.734 6.00039C83.8456 6.18465 83.8221 6.37442 83.9407 6.56037C84.0482 6.72685 84.0862 6.79123 84.0912 6.88781C84.3478 6.93017 84.6454 6.85986 84.731 7.18984C84.7851 7.40164 84.6694 7.56175 84.7632 7.76847C84.8678 7.99806 85.0939 8.18613 85.146 8.45088C85.2022 8.74993 85.0869 8.58727 84.9062 8.76391C84.6727 8.99223 84.9476 9.31077 85.222 9.29383C85.6796 8.83931 85.9817 9.45353 85.9817 9.45353C85.99 9.77969 85.8614 9.85763 85.7098 10.0821C85.5581 10.3066 85.7002 10.3638 85.9276 10.5303C86.1105 10.6885 86.2665 10.8767 86.3893 11.0873C86.5483 11.2371 86.6961 11.399 86.8315 11.5715C86.8874 11.6731 86.9129 11.7892 86.9051 11.9055C86.8972 12.0218 86.8563 12.1332 86.7873 12.226C86.7117 12.3323 86.4678 12.453 86.4591 12.5949C86.4513 12.7508 86.6005 12.722 86.6633 12.8275C86.7398 12.9507 86.6691 12.963 86.6682 13.0986C86.6682 13.2557 86.6707 13.1833 86.7125 13.329C86.7538 13.4667 86.8034 13.4688 86.7505 13.6255C86.7166 13.7267 86.5505 13.8284 86.5438 13.9292C86.5294 14.1309 86.8332 14.3295 86.9191 14.5007C86.9836 14.6277 87.1671 14.8789 87.1436 15.0221C87.2983 15.0111 87.4529 15.0461 87.5887 15.123C87.7245 15.1999 87.8358 15.3153 87.9091 15.4554C87.9246 15.5485 87.9184 15.6441 87.891 15.7342C87.8637 15.8244 87.8159 15.9067 87.7516 15.9743C87.6871 16.0497 87.4689 16.1395 87.4577 16.2459C87.4432 16.3865 87.7024 16.5081 87.6925 16.6843C87.685 16.7961 87.6024 16.8537 87.5383 16.93C87.3172 17.1871 87.3445 17.351 87.5978 17.5654C87.8698 17.7937 87.7772 17.8619 87.4709 17.9699C87.4821 18.097 87.7541 18.4926 87.4482 18.5303C87.5722 18.6769 87.456 18.6972 87.456 18.8154C87.456 18.9802 87.5548 19.0861 87.5908 19.2682C87.6721 19.1791 87.7805 19.121 87.8982 19.1033C88.016 19.0856 88.1361 19.1094 88.2389 19.1708C88.5228 19.3504 88.3687 19.7901 88.1777 19.9943C88.36 20.0663 88.6563 20.1213 88.4141 20.403C88.6675 20.5665 88.5857 20.7804 88.5138 21.0215C88.479 21.1802 88.4623 21.3425 88.4642 21.5052C88.4447 21.7018 88.7535 22.31 88.7274 22.4964C88.7047 22.6659 88.8258 22.7646 88.8068 22.9276C88.7792 23.0398 88.725 23.1433 88.649 23.2288C88.573 23.3143 88.4776 23.3792 88.3712 23.4177C88.2207 23.4461 88.7303 23.5224 88.5985 23.6651C88.4943 23.7786 88.6175 23.9316 88.5489 24.0519C88.4803 24.1722 88.2914 24.1459 88.2302 24.2772C88.169 24.4085 88.2848 24.5513 88.1889 24.7008C88.1099 24.8279 87.311 24.6186 87.2494 24.7618C87.1171 25.0706 86.5699 24.9168 86.1933 25.0244C85.9763 25.0863 85.9391 25.0372 85.8279 24.8618C85.7391 24.7224 85.6775 24.4687 85.4857 24.6551C85.3828 24.755 85.4493 24.9287 85.3824 25.0435C85.2967 25.1469 85.1826 25.2216 85.055 25.2578C84.7797 25.4025 84.4662 25.4524 84.161 25.4002C83.9097 25.368 83.6154 25.2761 83.422 25.4972C83.4105 25.4072 83.3692 25.3241 83.305 25.2617C83.2844 25.2987 83.2562 25.3306 83.2223 25.3553C83.173 25.4993 83.1216 25.643 83.0682 25.7865C82.9487 26.083 82.8429 26.3846 82.7032 26.6701C82.5717 26.9202 82.4672 27.1843 82.3916 27.4576C82.3415 27.7117 82.3134 27.9862 82.2841 28.2264C82.2547 28.4666 82.2308 28.6834 82.2089 28.869C82.194 28.9702 82.1853 29.1003 82.1717 29.2451C82.2209 29.6158 82.2502 29.9686 82.2663 30.2707C82.287 30.6519 82.2911 31.2161 82.3341 31.838C82.344 31.993 82.3577 32.1518 82.38 32.3103C82.3899 32.3899 82.4002 32.47 82.4106 32.5509L82.4564 32.7877C82.4726 32.8673 82.4845 32.9461 82.5048 33.0261L82.5751 33.2667C82.6218 33.4273 82.6689 33.5865 82.7139 33.7429L82.9739 34.6345C82.9934 34.7036 83.0153 34.7709 83.033 34.837C83.0562 34.8912 83.0673 34.9421 83.0967 34.9967C83.1442 35.1026 83.2042 35.206 83.2567 35.3068L83.2947 35.3805H80.6031C80.6473 35.2178 80.6886 35.0416 80.7225 34.8501C80.8002 34.4037 80.8672 33.9182 80.9267 33.4823C80.9681 33.0435 81.0011 32.6517 81.0243 32.3878C81.0368 31.7345 80.8993 31.0874 80.6229 30.4985C80.3362 29.7476 80.0878 28.9818 79.8789 28.2044C79.6797 27.3995 79.4801 26.5803 79.3242 25.7945C79.3193 25.7687 79.3156 25.7429 79.3106 25.7174C79.104 25.4743 79.3106 25.4485 79.1684 25.3265C78.956 25.376 79.0221 25.8831 78.9407 25.8229C78.8357 25.8229 78.5865 25.8543 78.5274 25.7382C78.4662 25.6141 78.6604 25.476 78.6567 25.3409C78.6051 25.3366 78.5695 25.2934 78.522 25.2828C78.6795 24.8571 78.0628 25.7386 77.9198 25.5946C77.5283 25.1994 76.6967 26.0457 76.712 25.6098C76.6209 25.6181 76.5297 25.5944 76.4536 25.5425C76.3774 25.4906 76.3207 25.4136 76.2929 25.3243C76.2827 25.3412 76.269 25.3557 76.2528 25.3666C76.2365 25.3775 76.2182 25.3846 76.199 25.3876C76.1798 25.3905 76.1602 25.389 76.1416 25.3834C76.123 25.3777 76.1058 25.368 76.0912 25.3548C75.9672 25.2417 76.0768 25.2151 76.0945 25.1532C76.1193 25.0643 76.2569 25.0575 76.1954 24.8919C76.1879 24.8554 76.1688 24.8225 76.141 24.7985C76.1132 24.7745 76.0784 24.7607 76.042 24.7593C75.9201 24.7343 75.7114 24.9372 75.5431 24.8122C75.4245 24.725 75.3914 24.3907 75.3931 24.2586C75.1864 24.2327 75.1509 24.0514 75.1583 23.871C74.9575 23.8642 75.0017 23.7117 75.0703 23.6219C75.1253 23.5495 75.2311 23.594 75.2803 23.4698C75.2917 23.4133 75.2914 23.3549 75.2792 23.2984C75.2671 23.242 75.2435 23.1888 75.21 23.1424C74.9207 22.8679 74.254 23.4008 74.3833 22.7133C73.9837 22.7891 74.2217 22.3168 74.1684 22.1084C74.1151 21.9 73.858 21.767 73.8159 21.5552ZM81.8369 27.1081C81.9443 26.9997 82.0435 26.8963 82.1026 26.8285C82.1931 26.7158 82.2986 26.5722 82.4089 26.4138C82.492 26.2859 82.565 26.1513 82.6272 26.0114C82.5872 26.0112 82.5481 25.9999 82.514 25.9787C82.4799 25.9575 82.452 25.9273 82.4333 25.8911C82.4214 25.9349 82.4008 25.9756 82.3728 26.0108C82.3447 26.046 82.3099 26.0749 82.2705 26.0957C82.231 26.1164 82.1878 26.1285 82.1436 26.1313C82.0993 26.1341 82.055 26.1274 82.0134 26.1118C81.9158 26.2152 81.8939 26.1694 81.7406 26.1703C81.7244 26.1703 81.7075 26.1728 81.6889 26.1749C81.7356 26.4752 81.7827 26.7713 81.8286 27.059C81.8315 27.0759 81.8336 27.0916 81.8369 27.1081ZM79.7058 26.4913C79.7446 26.6049 79.7988 26.732 79.8471 26.8756C79.8955 27.0191 79.9401 27.1759 79.991 27.3415C80.0418 27.5071 80.103 27.6736 80.1679 27.8426C80.2327 28.0116 80.2993 28.201 80.3584 28.3768C80.3906 28.4615 80.4204 28.5487 80.4551 28.6309C80.4898 28.7131 80.527 28.7919 80.568 28.8703C80.6506 29.0278 80.7333 29.1812 80.8077 29.3265C80.9552 29.5925 81.0904 29.8348 81.1797 30.0245C81.1922 29.7303 81.1888 29.4356 81.1693 29.1418C81.1433 28.2442 81.0077 27.2695 80.9213 26.274C80.9135 26.1626 80.9052 26.0521 80.897 25.9403C80.8409 25.9488 80.7856 25.9621 80.7316 25.9801C80.513 26.0466 80.2919 26.1343 80.1827 25.8615C80.022 25.9415 79.8669 25.739 79.7355 25.6395C79.5483 25.4972 79.6061 25.7861 79.5483 25.8619C79.5966 26.0707 79.6475 26.28 79.7008 26.4913C79.7049 26.4918 79.7049 26.4897 79.7058 26.4913Z" fill="#D4D5EB"/>
<path d="M92.8159 75.8719C92.7853 75.7126 92.8336 75.5457 93.0039 75.6177C92.9855 75.4611 93.0116 75.3024 93.0791 75.1606C93.1205 75.0946 93.2131 75.0924 93.2519 75.0276C93.2908 74.9628 93.7066 73.01 93.7297 72.9491C93.7636 72.852 93.8026 72.757 93.8467 72.6644C93.8705 72.6171 93.8971 72.5714 93.9264 72.5276C93.9554 72.4894 94.0323 72.5034 94.0595 72.4526C94.1716 72.2408 93.907 72.2891 93.8231 72.1438C93.8173 72.1357 93.7537 71.7981 93.7545 71.7859C93.764 71.6304 93.8173 71.6706 93.8785 71.5597C93.9367 71.4533 93.9663 71.333 93.9641 71.211C94.0054 70.8345 94.3129 70.618 94.4154 70.2838C94.6593 70.3262 94.6171 70.0978 94.8093 70.0817C94.6771 69.9475 94.6762 70 94.6229 69.8581C94.5923 69.7734 94.5663 69.6086 94.5324 69.5124L94.5737 69.5035C94.5391 69.4222 94.5256 69.3331 94.5343 69.2448C94.543 69.1565 94.5738 69.072 94.6236 68.9994C94.6734 68.9268 94.7406 68.8686 94.8188 68.8303C94.8969 68.792 94.9833 68.775 95.0697 68.7809C95.084 68.6196 95.1426 68.4659 95.2387 68.3374C95.3348 68.209 95.4646 68.1111 95.6128 68.0553C95.6203 67.9967 95.6364 67.9396 95.6604 67.8858C95.619 67.7774 95.4343 67.6211 95.5256 67.5194C95.5934 67.4432 95.8443 67.5368 95.9422 67.5245C95.96 67.3182 96.1225 66.6002 96.337 66.5634C96.277 66.4181 96.37 66.3219 96.5139 66.3389C96.7433 66.3668 96.5664 66.4706 96.6594 66.593C96.6747 66.6171 96.6952 66.6372 96.7193 66.6519C96.7434 66.6666 96.7705 66.6754 96.7984 66.6776C96.8264 66.6799 96.8545 66.6755 96.8805 66.6649C96.9066 66.6543 96.9299 66.6376 96.9487 66.6163C97.0632 66.4892 96.9413 66.202 96.9561 66.0449C96.9772 65.8293 97.195 65.6276 97.1678 65.4235C97.1442 65.2511 96.9805 65.0596 96.9442 64.8791C96.8755 64.5238 97.0942 64.5826 97.2335 64.8656C97.486 64.7538 97.5315 65.1655 97.7204 64.9503C97.9093 64.7351 97.7592 64.3463 98.0151 64.1751C97.9862 64.1442 97.9737 64.0688 97.9498 64.0362C98.0457 63.9811 98.3292 63.7964 98.3395 63.7155C98.3557 63.5918 98.1168 63.4948 98.2379 63.3529C98.2999 63.2809 98.4334 63.3106 98.509 63.3275C98.5586 63.207 98.561 63.0715 98.5156 62.9492C98.6299 62.9446 98.7408 62.9084 98.8368 62.8446C98.7463 62.7328 98.5061 62.5252 98.535 62.3562C98.5739 62.1122 98.8331 62.2245 98.9934 62.1673C99.2088 62.0902 99.2414 61.8937 99.3084 61.7145C99.3001 61.6091 99.3018 61.5031 99.3133 61.398C99.3319 61.2189 99.4253 61.1922 99.4869 61.0452C99.5386 60.9211 99.4935 60.8673 99.4997 60.7444C99.5126 60.5076 99.6312 60.4149 99.8995 60.3823C99.713 60.2399 99.7887 60.1154 99.923 59.9892C100.021 59.8968 100.063 59.9553 100.113 59.8324C100.133 59.6876 100.133 59.5406 100.113 59.3957C100.125 59.21 100.183 59.0305 100.281 58.8738C100.339 58.7591 100.357 58.4333 100.485 58.4121C100.497 58.5257 100.58 58.6756 100.707 58.6083C100.835 58.5409 100.743 58.3782 100.774 58.2753C100.834 58.0686 101.022 58.0017 101.167 57.8559C101.343 57.6806 101.48 57.204 101.682 57.4989C101.858 57.753 101.743 58.1626 101.897 58.4494C102.009 58.5961 102.102 58.7568 102.174 58.9276C102.198 59.0352 102.149 59.1259 102.16 59.2347C102.179 59.4042 102.284 59.4961 102.351 59.638C102.4 59.7431 102.407 59.8536 102.453 59.9574C102.518 60.1065 102.654 60.1845 102.734 60.317C102.846 60.5013 102.822 60.6911 102.941 60.877C103.048 61.0435 103.086 61.1079 103.091 61.2045C103.348 61.2468 103.645 61.1765 103.731 61.5065C103.785 61.7183 103.669 61.8784 103.763 62.0851C103.868 62.3147 104.094 62.5028 104.146 62.7675C104.202 63.0666 104.087 62.9039 103.906 63.0806C103.673 63.3089 103.948 63.6274 104.222 63.6105C104.68 63.156 104.982 63.7702 104.982 63.7702C104.99 64.0963 104.861 64.1743 104.71 64.3988C104.558 64.6233 104.7 64.6805 104.928 64.847C105.11 65.0052 105.267 65.1934 105.389 65.404C105.548 65.5538 105.696 65.7156 105.832 65.8882C105.887 65.9897 105.913 66.1059 105.905 66.2222C105.897 66.3385 105.856 66.4499 105.787 66.5426C105.712 66.6489 105.468 66.7697 105.459 66.9116C105.451 67.0674 105.6 67.0386 105.663 67.1441C105.74 67.2674 105.669 67.2797 105.668 67.4152C105.668 67.5724 105.671 67.4999 105.712 67.6456C105.754 67.7833 105.803 67.7854 105.751 67.9422C105.717 68.0434 105.55 68.1451 105.544 68.2459C105.529 68.4475 105.833 68.6462 105.919 68.8173C105.984 68.9444 106.167 69.1956 106.144 69.3388C106.298 69.3277 106.453 69.3628 106.589 69.4396C106.725 69.5165 106.836 69.632 106.909 69.7721C106.925 69.8652 106.918 69.9607 106.891 70.0509C106.864 70.1411 106.816 70.2233 106.752 70.291C106.687 70.3664 106.469 70.4562 106.458 70.5625C106.443 70.7032 106.702 70.8247 106.692 71.0009C106.685 71.1128 106.602 71.1704 106.538 71.2466C106.317 71.5037 106.344 71.6677 106.598 71.882C106.87 72.1103 106.777 72.1785 106.471 72.2865C106.482 72.4136 106.754 72.8093 106.448 72.847C106.572 72.9935 106.456 73.0139 106.456 73.132C106.456 73.2968 106.555 73.4027 106.591 73.5849C106.672 73.4958 106.78 73.4377 106.898 73.42C107.016 73.4023 107.136 73.4261 107.239 73.4874C107.523 73.667 107.369 74.1067 107.178 74.3109C107.36 74.3829 107.656 74.438 107.414 74.7197C107.668 74.8832 107.586 75.0971 107.514 75.3381C107.479 75.4969 107.462 75.6592 107.464 75.8219C107.445 76.0184 107.753 76.6267 107.727 76.8131C107.705 76.9825 107.826 77.0812 107.807 77.2443C107.779 77.3565 107.725 77.4599 107.649 77.5454C107.573 77.6309 107.478 77.6959 107.371 77.7344C107.221 77.7628 107.73 77.839 107.598 77.9818C107.494 78.0953 107.617 78.2482 107.549 78.3685C107.48 78.4888 107.291 78.4626 107.23 78.5939C107.169 78.7252 107.285 78.8679 107.189 79.0175C107.11 79.1445 106.311 78.9353 106.249 79.0785C106.117 79.3873 105.57 79.2335 105.193 79.3411C104.976 79.4029 104.939 79.3538 104.828 79.1784C104.739 79.0391 104.677 78.7853 104.486 78.9717C104.383 79.0717 104.449 79.2454 104.382 79.3602C104.297 79.4636 104.183 79.5382 104.055 79.5745C103.78 79.7192 103.466 79.7691 103.161 79.7168C102.91 79.6846 102.615 79.5927 102.422 79.8138C102.411 79.7239 102.369 79.6407 102.305 79.5783C102.284 79.6153 102.256 79.6473 102.222 79.6719C102.173 79.8159 102.122 79.9597 102.068 80.1031C101.949 80.3997 101.843 80.7013 101.703 80.9868C101.572 81.2369 101.467 81.5009 101.392 81.7742C101.342 82.0284 101.313 82.3029 101.284 82.543C101.255 82.7832 101.231 83.0001 101.209 83.1856C101.194 83.2869 101.185 83.4169 101.172 83.5618C101.221 83.9324 101.25 84.2853 101.266 84.5873C101.287 84.9685 101.291 85.5328 101.334 86.1546C101.344 86.3097 101.358 86.4685 101.38 86.6269C101.39 86.7066 101.4 86.7866 101.411 86.8675L101.456 87.1043C101.473 87.184 101.485 87.2627 101.505 87.3428L101.575 87.5834C101.622 87.7439 101.669 87.9032 101.714 88.0595L101.974 88.9512C101.993 89.0202 102.015 89.0876 102.033 89.1537C102.056 89.2079 102.067 89.2587 102.097 89.3134C102.144 89.4193 102.204 89.5226 102.257 89.6234L102.295 89.6971H99.6031C99.6473 89.5345 99.6886 89.3583 99.7225 89.1668C99.8002 88.7203 99.8672 88.2349 99.9267 87.799C99.9681 87.3602 100.001 86.9683 100.024 86.7044C100.037 86.0512 99.8993 85.404 99.6229 84.8152C99.3362 84.0643 99.0878 83.2985 98.8789 82.521C98.6797 81.7162 98.4801 80.897 98.3242 80.1112C98.3193 80.0854 98.3156 80.0595 98.3106 80.0341C98.104 79.791 98.3106 79.7651 98.1684 79.6431C97.956 79.6927 98.0221 80.1997 97.9407 80.1396C97.8357 80.1396 97.5865 80.1709 97.5274 80.0549C97.4662 79.9307 97.6604 79.7926 97.6567 79.6575C97.6051 79.6533 97.5695 79.6101 97.522 79.5995C97.6795 79.1738 97.0628 80.0553 96.9198 79.9112C96.5283 79.516 95.6967 80.3624 95.712 79.9265C95.6209 79.9348 95.5297 79.911 95.4536 79.8591C95.3774 79.8072 95.3207 79.7303 95.2929 79.641C95.2827 79.6579 95.269 79.6723 95.2528 79.6832C95.2365 79.6941 95.2182 79.7013 95.199 79.7042C95.1798 79.7071 95.1602 79.7057 95.1416 79.7C95.123 79.6944 95.1058 79.6846 95.0912 79.6715C94.9672 79.5584 95.0768 79.5317 95.0945 79.4699C95.1193 79.3809 95.2569 79.3741 95.1954 79.2085C95.1879 79.172 95.1688 79.1392 95.141 79.1151C95.1132 79.0911 95.0784 79.0773 95.042 79.0759C94.9201 79.0509 94.7114 79.2538 94.5431 79.1289C94.4245 79.0416 94.3914 78.7074 94.3931 78.5752C94.1864 78.5494 94.1509 78.3681 94.1583 78.1876C93.9575 78.1809 94.0017 78.0284 94.0703 77.9386C94.1253 77.8661 94.2311 77.9106 94.2803 77.7865C94.2917 77.7299 94.2914 77.6715 94.2792 77.6151C94.2671 77.5587 94.2435 77.5055 94.21 77.4591C93.9207 77.1846 93.254 77.7175 93.3833 77.03C92.9837 77.1058 93.2217 76.6335 93.1684 76.4251C93.1151 76.2167 92.858 76.0836 92.8159 75.8719ZM100.837 81.4248C100.944 81.3163 101.044 81.213 101.103 81.1452C101.193 81.0325 101.299 80.8889 101.409 80.7305C101.492 80.6025 101.565 80.468 101.627 80.3281C101.587 80.3279 101.548 80.3165 101.514 80.2954C101.48 80.2742 101.452 80.2439 101.433 80.2078C101.421 80.2515 101.401 80.2923 101.373 80.3275C101.345 80.3627 101.31 80.3916 101.27 80.4123C101.231 80.433 101.188 80.4452 101.144 80.448C101.099 80.4507 101.055 80.4441 101.013 80.4285C100.916 80.5318 100.894 80.4861 100.741 80.4869C100.724 80.4869 100.707 80.4895 100.689 80.4916C100.736 80.7919 100.783 81.088 100.829 81.3756C100.831 81.3926 100.834 81.4082 100.837 81.4248ZM98.7058 80.808C98.7446 80.9215 98.7988 81.0486 98.8471 81.1922C98.8955 81.3358 98.9401 81.4925 98.991 81.6581C99.0418 81.8238 99.103 81.9903 99.1679 82.1593C99.2327 82.3283 99.2993 82.5176 99.3584 82.6934C99.3906 82.7781 99.4204 82.8654 99.4551 82.9476C99.4898 83.0298 99.527 83.1085 99.568 83.1869C99.6506 83.3445 99.7333 83.4978 99.8077 83.6431C99.9552 83.9091 100.09 84.1514 100.18 84.3412C100.192 84.047 100.189 83.7523 100.169 83.4584C100.143 82.5608 100.008 81.5861 99.9213 80.5907C99.9135 80.4793 99.9052 80.3687 99.897 80.2569C99.8409 80.2654 99.7856 80.2788 99.7316 80.2967C99.513 80.3632 99.2919 80.4509 99.1827 80.1781C99.022 80.2582 98.8669 80.0557 98.7355 79.9562C98.5483 79.8138 98.6061 80.1027 98.5483 80.1785C98.5966 80.3874 98.6475 80.5966 98.7008 80.808C98.7049 80.8084 98.7049 80.8063 98.7058 80.808Z" fill="#D4D5EB"/>
<path d="M1.10582 19.359C1.06648 19.2022 1.10606 19.0328 1.28109 19.0937C1.25415 18.9389 1.27184 18.779 1.33204 18.6335C1.37001 18.565 1.46296 18.557 1.49851 18.4899C1.53407 18.4228 1.84659 16.4504 1.86656 16.3881C1.89534 16.2893 1.92945 16.1921 1.96874 16.097C1.99011 16.0483 2.01441 16.0011 2.04153 15.9555C2.06855 15.9157 2.14658 15.9247 2.17126 15.8723C2.2724 15.6541 2.00914 15.7191 1.91697 15.5797C1.91072 15.572 1.82855 15.2397 1.82871 15.2274C1.82988 15.0718 1.88563 15.1085 1.94112 14.994C1.99392 14.8844 2.01709 14.7626 2.00829 14.6412C2.02951 14.2633 2.32691 14.028 2.4119 13.6884C2.65927 13.715 2.60458 13.4902 2.79688 13.4619C2.6567 13.3365 2.65868 13.3889 2.59744 13.2509C2.56213 13.1684 2.52707 13.0059 2.48781 12.9122L2.52889 12.9007C2.48974 12.8219 2.47128 12.7339 2.4753 12.6454C2.47931 12.5569 2.50566 12.4707 2.55181 12.3952C2.59796 12.3197 2.66237 12.2574 2.73883 12.2142C2.81528 12.1711 2.90123 12.1486 2.98839 12.149C2.994 11.9874 3.04459 11.8304 3.13428 11.6963C3.22398 11.5621 3.34908 11.4564 3.49507 11.3912C3.49946 11.3324 3.51248 11.2744 3.53369 11.2194C3.4863 11.1139 3.29218 10.97 3.3785 10.8628C3.44251 10.7825 3.69971 10.8598 3.7975 10.8413C3.80423 10.6346 3.92875 9.90875 4.14236 9.85834C4.07428 9.71738 4.16255 9.61563 4.30803 9.62334C4.54009 9.63657 4.36789 9.75127 4.46797 9.86733C4.48465 9.89035 4.50636 9.90913 4.53139 9.92221C4.55641 9.9353 4.5841 9.94234 4.61231 9.9428C4.64053 9.94326 4.66852 9.93712 4.69413 9.92486C4.71974 9.91261 4.74228 9.89455 4.76002 9.87209C4.86823 9.73816 4.73019 9.45973 4.73666 9.30218C4.74621 9.08598 4.95426 8.87116 4.91582 8.66943C4.88284 8.49913 4.708 8.31877 4.66171 8.14127C4.57357 7.79149 4.7965 7.83622 4.95177 8.10931C5.19955 7.98176 5.26745 8.38916 5.44568 8.16268C5.62391 7.9362 5.45214 7.55826 5.70004 7.3714C5.6693 7.34243 5.65276 7.26809 5.6269 7.23712C5.72031 7.17613 5.99531 6.974 6.00133 6.89271C6.01085 6.76843 5.76552 6.687 5.87958 6.53786C5.93801 6.46215 6.07379 6.48318 6.15072 6.49524C6.19408 6.37198 6.18915 6.23681 6.13695 6.11787C6.25155 6.10592 6.36109 6.06283 6.45407 5.99312C6.35706 5.88746 6.10451 5.69593 6.12447 5.52566C6.15035 5.28004 6.41688 5.37538 6.57497 5.30816C6.78724 5.2176 6.80946 5.01966 6.86709 4.83683C6.85311 4.73233 6.84905 4.62662 6.85498 4.52119C6.864 4.34144 6.95644 4.30889 7.0104 4.15849C7.05563 4.03152 7.00745 3.98078 7.00705 3.85797C7.00715 3.62118 7.12139 3.52117 7.38923 3.47156C7.1942 3.34162 7.2635 3.21269 7.3917 3.07834C7.48475 2.98009 7.53027 3.03565 7.5739 2.91005C7.58625 2.76442 7.57832 2.61791 7.55034 2.47485C7.55289 2.28898 7.60148 2.10641 7.69164 1.94404C7.74319 1.82598 7.74348 1.50023 7.87111 1.47096C7.88929 1.58332 7.98088 1.72745 8.1056 1.65219C8.23033 1.57693 8.12893 1.42071 8.15412 1.31619C8.20361 1.10634 8.38859 1.02768 8.52653 0.873215C8.69404 0.687227 8.80624 0.203596 9.02528 0.484501C9.21555 0.726569 9.12258 1.14206 9.29301 1.418C9.41306 1.55705 9.51498 1.71129 9.5963 1.87696C9.62661 1.98263 9.58208 2.0761 9.59958 2.18384C9.627 2.35153 9.73832 2.43638 9.81328 2.57352C9.86797 2.6751 9.88097 2.78483 9.9331 2.8853C10.0064 3.02974 10.1468 3.09877 10.2346 3.22578C10.3567 3.40228 10.3432 3.59289 10.4725 3.77063C10.5895 3.92967 10.6312 3.99141 10.6414 4.08733C10.9016 4.11318 11.1969 4.02413 11.3007 4.3475C11.3666 4.55511 11.2589 4.72205 11.3644 4.92206C11.4818 5.14418 11.7192 5.31718 11.7859 5.57768C11.8585 5.87211 11.7338 5.71737 11.5618 5.90492C11.3394 6.14734 11.6329 6.44724 11.9078 6.41285C12.3431 5.93074 12.6799 6.52354 12.6799 6.52354C12.7058 6.84805 12.5809 6.93391 12.4405 7.16731C12.3002 7.40071 12.4462 7.44863 12.6836 7.60003C12.876 7.74601 13.043 7.92364 13.1777 8.12566C13.3456 8.26481 13.5029 8.41666 13.6483 8.57994C13.7099 8.6776 13.7419 8.79169 13.7403 8.9081C13.7386 9.02451 13.7035 9.13814 13.6392 9.23494C13.5689 9.34571 13.3303 9.48157 13.3293 9.62353C13.3298 9.77938 13.4782 9.74115 13.547 9.84225C13.6305 9.96021 13.5601 9.97696 13.5666 10.1121C13.5751 10.2687 13.5737 10.1964 13.6235 10.3389C13.6725 10.4735 13.7225 10.4724 13.6777 10.632C13.6491 10.735 13.4876 10.8469 13.4864 10.9478C13.4828 11.1497 13.7988 11.3283 13.8944 11.4933C13.9661 11.6158 14.1641 11.8544 14.1482 11.9986C14.3031 11.9778 14.4603 12.0028 14.601 12.0708C14.7416 12.1387 14.8597 12.2467 14.9409 12.3816C14.9615 12.4734 14.9605 12.569 14.9378 12.6606C14.9152 12.7522 14.8716 12.8373 14.8106 12.9088C14.7499 12.988 14.5354 13.0914 14.5299 13.1981C14.523 13.3392 14.79 13.4438 14.7895 13.62C14.7881 13.7319 14.7081 13.7946 14.6478 13.8747C14.4394 14.145 14.4757 14.3066 14.7419 14.5041C15.0276 14.7142 14.9382 14.7881 14.6362 14.9153C14.6543 15.0412 14.949 15.4181 14.6436 15.4752C14.7762 15.6133 14.6605 15.641 14.6669 15.7588C14.6758 15.923 14.7808 16.0222 14.8268 16.2014C14.9037 16.1075 15.0095 16.0426 15.1268 16.0175C15.2442 15.9923 15.3662 16.0084 15.4729 16.063C15.7679 16.2239 15.6367 16.6719 15.4558 16.8875C15.6429 16.9477 15.9437 16.9836 15.7155 17.2798C15.979 17.4266 15.9083 17.645 15.849 17.8897C15.8226 18.0501 15.8146 18.213 15.8253 18.3749C15.8163 18.5721 16.1595 19.1585 16.1433 19.3459C16.1296 19.5162 16.2567 19.6068 16.2464 19.7706C16.2247 19.8841 16.1758 19.9907 16.1041 20.0807C16.0323 20.1708 15.9398 20.2416 15.835 20.2868C15.6853 20.3246 16.2016 20.3681 16.0768 20.5188C15.9782 20.6385 16.1103 20.7831 16.0478 20.9073C15.9854 21.0316 15.7941 21.0175 15.7397 21.1522C15.6853 21.287 15.8093 21.4219 15.721 21.577C15.6485 21.7087 14.8343 21.5511 14.7801 21.6977C14.6638 22.0138 14.1055 21.8955 13.7329 22.0267C13.5181 22.1022 13.4781 22.0556 13.3569 21.888C13.26 21.7548 13.1845 21.5058 13.0018 21.7038C12.9037 21.81 12.98 21.9788 12.9189 22.0975C12.8383 22.206 12.7277 22.2877 12.6014 22.3319C12.3325 22.4937 12.0202 22.5634 11.7106 22.5308C11.4563 22.5147 11.1556 22.4419 10.9731 22.6746C10.9567 22.5857 10.9107 22.5055 10.8428 22.4474C10.8241 22.4855 10.7975 22.5192 10.7648 22.5459C10.723 22.6926 10.6791 22.8391 10.6331 22.9855C10.529 23.2886 10.439 23.5959 10.314 23.8893C10.1953 24.1469 10.1046 24.4167 10.0433 24.6939C10.0067 24.9503 9.99327 25.2257 9.97673 25.4669C9.9602 25.7081 9.94781 25.9257 9.9358 26.112C9.92631 26.2139 9.92462 26.344 9.91873 26.4892C9.98817 26.8555 10.0367 27.2052 10.0692 27.5052C10.1105 27.8837 10.1451 28.4458 10.2219 29.0627C10.2402 29.2165 10.2625 29.374 10.2935 29.5304C10.3078 29.6091 10.3225 29.6883 10.3372 29.7682L10.3961 30.0013C10.4166 30.0796 10.4329 30.1574 10.4576 30.2358L10.5412 30.4711C10.5968 30.6281 10.6527 30.7838 10.7064 30.9367L11.0159 31.8087C11.0391 31.8763 11.0648 31.942 11.0862 32.0067C11.1124 32.0593 11.1263 32.1092 11.1588 32.1618C11.2123 32.2643 11.2781 32.3635 11.3363 32.4606L11.3785 32.5316L8.67332 32.7033C8.70899 32.5383 8.74103 32.3601 8.76476 32.1672C8.81876 31.7173 8.85987 31.2293 8.89616 30.7911C8.91402 30.3512 8.92612 29.9586 8.93514 29.6941C8.91248 29.0423 8.73938 28.4062 8.42982 27.8371C8.10109 27.107 7.81019 26.3598 7.55829 25.5983C7.31463 24.809 7.06976 24.0054 6.87075 23.2323C6.86437 23.2068 6.85925 23.1813 6.85289 23.1563C6.63207 22.9272 6.83836 22.8883 6.68887 22.7758C6.47802 22.8387 6.57187 23.3398 6.48679 23.285C6.38127 23.2917 6.13247 23.3388 6.0668 23.2269C5.99863 23.1072 6.18641 22.9572 6.17538 22.8227C6.12323 22.8218 6.08517 22.781 6.03683 22.7735C6.17213 22.3392 5.59989 23.257 5.44839 23.1226C5.03367 22.7537 4.24354 23.6502 4.23538 23.2148C4.14426 23.2289 4.05136 23.211 3.97199 23.1642C3.89263 23.1173 3.83154 23.0443 3.79876 22.957C3.78939 22.9745 3.77639 22.9898 3.76068 23.0017C3.74496 23.0136 3.72689 23.0219 3.70775 23.026C3.68861 23.0301 3.66885 23.03 3.64984 23.0255C3.63084 23.0211 3.61304 23.0125 3.5977 23.0003C3.46697 22.8955 3.57561 22.8619 3.59014 22.7992C3.61026 22.7089 3.74821 22.6934 3.67738 22.5323C3.66792 22.4964 3.64692 22.4649 3.6177 22.4427C3.58847 22.4205 3.55271 22.409 3.51612 22.4099C3.39222 22.3928 3.19338 22.6083 3.01756 22.4945C2.89363 22.4151 2.84237 22.0842 2.8369 21.9524C2.6278 21.9398 2.58229 21.7614 2.58003 21.5811C2.37778 21.5872 2.41399 21.4324 2.4781 21.3385C2.52945 21.2628 2.63819 21.3004 2.68092 21.1736C2.68936 21.1165 2.68587 21.0583 2.67066 21.0028C2.65545 20.9474 2.62885 20.8959 2.59264 20.8518C2.28704 20.5967 1.64574 21.1702 1.73867 20.4769C1.34106 20.5779 1.55484 20.0921 1.49 19.8878C1.42517 19.6835 1.15962 19.5674 1.10582 19.359ZM9.46693 24.381C9.56908 24.2661 9.66318 24.1568 9.71892 24.0855C9.80382 23.9674 9.90201 23.8176 10.0044 23.6527C10.081 23.5199 10.1471 23.3811 10.202 23.2377C10.1619 23.2401 10.122 23.2313 10.0865 23.2124C10.0511 23.1934 10.0214 23.165 10.0007 23.1302C9.99109 23.1746 9.97256 23.2165 9.9463 23.2534C9.92003 23.2903 9.88659 23.3213 9.84806 23.3444C9.80953 23.3676 9.76677 23.3825 9.72245 23.3881C9.67813 23.3936 9.63322 23.3899 9.59054 23.3769C9.49808 23.4861 9.47358 23.4419 9.31951 23.4526C9.30331 23.4536 9.28642 23.4572 9.26784 23.4605C9.33099 23.7568 9.39433 24.0489 9.45596 24.3326C9.45978 24.3493 9.46271 24.3647 9.46693 24.381ZM7.29179 23.9023C7.33696 24.013 7.39823 24.1362 7.45458 24.2762C7.51093 24.4162 7.56427 24.5695 7.6243 24.7313C7.68433 24.8931 7.75479 25.0551 7.82913 25.2194C7.90347 25.3837 7.98057 25.5681 8.04946 25.7395C8.08643 25.8219 8.12105 25.907 8.16038 25.9866C8.19971 26.0663 8.24135 26.1425 8.28671 26.2179C8.37829 26.3697 8.46963 26.5172 8.55225 26.6573C8.7149 26.913 8.86383 27.1458 8.9638 27.3292C8.96054 27.0352 8.94115 26.7417 8.90576 26.4502C8.83115 25.5574 8.64231 24.5947 8.50177 23.6082C8.48787 23.4977 8.47358 23.3881 8.45924 23.2772C8.40332 23.2892 8.34848 23.306 8.29524 23.3274C8.07908 23.4076 7.86156 23.5091 7.73718 23.2442C7.5799 23.3342 7.41318 23.1424 7.27571 23.0515C7.07985 22.9216 7.15359 23.2058 7.09953 23.2851C7.1594 23.4901 7.2218 23.6954 7.28679 23.9026C7.29097 23.9028 7.29086 23.9007 7.29179 23.9023Z" fill="#D4D5EB"/>
<path d="M84.085 126.052C84.0601 125.892 84.1147 125.727 84.2831 125.806C84.2703 125.649 84.3022 125.492 84.3751 125.354C84.419 125.289 84.5121 125.291 84.5535 125.228C84.5948 125.165 85.083 123.234 85.1085 123.175C85.146 123.079 85.1886 122.986 85.2362 122.896C85.2618 122.849 85.2902 122.805 85.3213 122.762C85.3517 122.726 85.4284 122.743 85.4576 122.693C85.5778 122.487 85.3104 122.524 85.2314 122.375C85.2259 122.367 85.1742 122.027 85.1755 122.015C85.1906 121.86 85.2427 121.903 85.3082 121.794C85.3705 121.691 85.4045 121.572 85.4067 121.45C85.4618 121.076 85.7785 120.873 85.8935 120.544C86.1368 120.597 86.1028 120.367 86.2964 120.36C86.1684 120.22 86.1656 120.272 86.1172 120.128C86.0896 120.043 86.0694 119.877 86.0389 119.78L86.0807 119.772C86.0489 119.69 86.0385 119.6 86.0505 119.513C86.0624 119.425 86.0964 119.342 86.149 119.272C86.2017 119.201 86.2713 119.146 86.3511 119.111C86.4309 119.076 86.5184 119.063 86.6049 119.073C86.625 118.912 86.6894 118.762 86.7906 118.637C86.8918 118.513 87.0256 118.421 87.1765 118.372C87.1862 118.314 87.2043 118.258 87.2304 118.205C87.1928 118.095 87.0129 117.931 87.1083 117.834C87.1792 117.76 87.4277 117.865 87.5265 117.857C87.5518 117.651 87.7409 116.942 87.9577 116.914C87.9028 116.767 87.9996 116.675 88.1434 116.698C88.3728 116.736 88.1914 116.832 88.2803 116.958C88.2948 116.983 88.3147 117.004 88.3384 117.019C88.3621 117.035 88.3889 117.045 88.4169 117.048C88.4449 117.052 88.4733 117.049 88.4998 117.039C88.5264 117.03 88.5504 117.014 88.57 116.994C88.6896 116.872 88.5776 116.58 88.5982 116.424C88.6272 116.209 88.8532 116.018 88.8332 115.813C88.8158 115.64 88.6583 115.441 88.6283 115.26C88.5723 114.902 88.7897 114.97 88.9194 115.259C89.177 115.158 89.2078 115.571 89.4052 115.364C89.6027 115.158 89.4661 114.763 89.7292 114.603C89.7013 114.571 89.6915 114.496 89.6687 114.462C89.7669 114.411 90.0583 114.239 90.0716 114.159C90.0923 114.036 89.8559 113.929 89.9827 113.793C90.0475 113.723 90.1805 113.759 90.2559 113.779C90.3101 113.661 90.3173 113.526 90.2762 113.402C90.3911 113.402 90.5038 113.371 90.6025 113.311C90.5156 113.196 90.282 112.978 90.3172 112.811C90.365 112.569 90.6212 112.692 90.7843 112.642C91.0033 112.574 91.0432 112.38 91.117 112.204C91.1125 112.098 91.118 111.992 91.1334 111.888C91.1585 111.71 91.2533 111.687 91.3205 111.543C91.3768 111.422 91.3335 111.366 91.3442 111.244C91.3656 111.008 91.4881 110.921 91.7587 110.9C91.5766 110.75 91.6571 110.629 91.7966 110.508C91.8979 110.42 91.9381 110.481 91.9927 110.36C92.0181 110.216 92.0234 110.07 92.0085 109.924C92.0278 109.74 92.0925 109.563 92.1968 109.411C92.2586 109.299 92.2882 108.974 92.4177 108.959C92.4256 109.073 92.5036 109.226 92.6343 109.164C92.765 109.102 92.6783 108.936 92.7128 108.835C92.7808 108.631 92.9717 108.572 93.1226 108.433C93.3058 108.266 93.4608 107.796 93.6531 108.099C93.8203 108.36 93.6905 108.764 93.835 109.057C93.9417 109.208 94.0291 109.373 94.0949 109.546C94.1155 109.655 94.0628 109.743 94.0705 109.852C94.0826 110.022 94.1856 110.118 94.2477 110.263C94.2929 110.37 94.2959 110.48 94.3386 110.586C94.3984 110.737 94.5317 110.821 94.6074 110.957C94.7128 111.146 94.6823 111.334 94.7947 111.525C94.8966 111.695 94.9325 111.761 94.9339 111.858C95.1901 111.911 95.4915 111.854 95.5655 112.187C95.6122 112.401 95.4902 112.555 95.5769 112.766C95.6736 112.999 95.8939 113.197 95.9366 113.463C95.9822 113.764 95.8723 113.597 95.6845 113.765C95.4418 113.983 95.7062 114.313 95.9825 114.308C96.4584 113.874 96.7395 114.5 96.7395 114.5C96.736 114.826 96.6041 114.898 96.4437 115.116C96.2832 115.333 96.4239 115.396 96.6462 115.572C96.8241 115.738 96.974 115.933 97.0896 116.148C97.2439 116.304 97.3865 116.472 97.5162 116.65C97.5686 116.754 97.5901 116.871 97.578 116.987C97.5659 117.102 97.5208 117.212 97.4481 117.301C97.3683 117.404 97.1191 117.514 97.1052 117.655C97.0917 117.811 97.2426 117.788 97.3019 117.896C97.3742 118.023 97.3028 118.032 97.297 118.167C97.2913 118.324 97.2964 118.252 97.3331 118.399C97.3696 118.538 97.4194 118.542 97.3606 118.697C97.3229 118.796 97.1523 118.89 97.142 118.991C97.1202 119.191 97.4181 119.403 97.4982 119.577C97.5584 119.707 97.7336 119.965 97.7047 120.107C97.8605 120.103 98.0145 120.145 98.1481 120.227C98.2817 120.31 98.3892 120.43 98.4577 120.573C98.4699 120.666 98.4603 120.761 98.4295 120.85C98.3988 120.939 98.3478 121.019 98.2808 121.084C98.2133 121.156 97.9909 121.236 97.9759 121.342C97.9563 121.482 98.2121 121.614 98.1958 121.79C98.1842 121.901 98.0991 121.955 98.032 122.028C97.8007 122.275 97.8222 122.44 98.0688 122.665C98.3337 122.904 98.2382 122.969 97.9268 123.063C97.9334 123.19 98.1922 123.597 97.8837 123.621C98.0029 123.773 97.8855 123.788 97.8812 123.906C97.8753 124.071 97.9706 124.181 98.0001 124.364C98.085 124.279 98.1959 124.225 98.3148 124.213C98.4337 124.2 98.5534 124.229 98.6545 124.295C98.9331 124.486 98.7624 124.918 98.5632 125.114C98.7437 125.194 99.0393 125.261 98.7859 125.532C99.0344 125.706 98.9445 125.916 98.8635 126.153C98.8228 126.31 98.8003 126.472 98.7962 126.634C98.7696 126.829 99.0576 127.45 99.0247 127.635C98.9958 127.803 99.1138 127.906 99.0888 128.068C99.0571 128.179 98.9989 128.28 98.9195 128.362C98.8401 128.444 98.7419 128.505 98.6336 128.539C98.4815 128.561 98.9905 128.659 98.8529 128.795C98.7442 128.904 98.8624 129.062 98.7891 129.179C98.7159 129.296 98.5271 129.262 98.461 129.39C98.3948 129.519 98.5058 129.666 98.4041 129.811C98.3203 129.935 97.5255 129.691 97.4585 129.832C97.3145 130.134 96.7706 129.957 96.3886 130.048C96.1684 130.1 96.1328 130.05 96.0275 129.87C95.9433 129.727 95.8907 129.471 95.6914 129.649C95.5844 129.744 95.6449 129.921 95.5735 130.032C95.4837 130.132 95.3665 130.201 95.2371 130.232C94.9553 130.364 94.6387 130.401 94.3342 130.335C94.083 130.292 93.7908 130.188 93.5885 130.4C93.5803 130.31 93.5418 130.225 93.4796 130.16C93.4576 130.196 93.4281 130.227 93.3932 130.25C93.3385 130.392 93.2817 130.533 93.2228 130.674C93.0921 130.965 92.9749 131.261 92.8243 131.54C92.6832 131.784 92.5688 132.043 92.4829 132.312C92.4235 132.564 92.3853 132.836 92.3472 133.075C92.309 133.313 92.2771 133.529 92.2484 133.713C92.2298 133.813 92.2163 133.943 92.1974 134.087C92.2334 134.459 92.2501 134.812 92.2553 135.114C92.2623 135.496 92.246 136.059 92.2667 136.681C92.271 136.836 92.279 136.995 92.2957 137.155C92.3027 137.234 92.3102 137.315 92.3177 137.396L92.3552 137.634C92.3685 137.714 92.3777 137.794 92.3951 137.874L92.4569 138.117C92.498 138.28 92.5396 138.441 92.5792 138.599L92.808 139.5C92.825 139.569 92.8446 139.638 92.86 139.704C92.8813 139.759 92.8907 139.811 92.9181 139.866C92.962 139.974 93.0185 140.08 93.0676 140.183L93.1031 140.258L90.4003 140.142C90.4506 139.981 90.4984 139.807 90.5394 139.618C90.6336 139.176 90.7184 138.694 90.7939 138.262C90.8513 137.825 90.8987 137.436 90.9315 137.173C90.9677 136.522 90.8531 135.87 90.5969 135.271C90.3361 134.509 90.1144 133.734 89.9328 132.949C89.7619 132.137 89.591 131.311 89.463 130.52C89.4589 130.494 89.4562 130.468 89.4521 130.443C89.2534 130.191 89.4618 130.174 89.3234 130.046C89.1083 130.087 89.1564 130.596 89.0768 130.532C88.9714 130.528 88.72 130.548 88.6648 130.43C88.6079 130.303 88.8079 130.174 88.8091 130.039C88.7574 130.032 88.7232 129.988 88.6759 129.975C88.8494 129.557 88.1983 130.41 88.0599 130.26C87.6811 129.849 86.8154 130.658 86.8466 130.223C86.7548 130.228 86.6641 130.2 86.5895 130.145C86.5148 130.09 86.4607 130.011 86.436 129.92C86.4251 129.937 86.4109 129.95 86.3942 129.961C86.3775 129.971 86.3588 129.977 86.3394 129.979C86.32 129.981 86.3004 129.979 86.2819 129.973C86.2634 129.966 86.2465 129.956 86.2324 129.942C86.112 129.824 86.2229 129.802 86.243 129.741C86.2711 129.653 86.4096 129.652 86.3537 129.484C86.3476 129.448 86.3295 129.414 86.3025 129.389C86.2755 129.364 86.241 129.348 86.2045 129.346C86.083 129.315 85.8661 129.509 85.7017 129.377C85.5857 129.285 85.5646 128.95 85.571 128.818C85.3644 128.783 85.3353 128.601 85.3493 128.421C85.1478 128.405 85.1978 128.255 85.2699 128.169C85.3277 128.099 85.4324 128.148 85.4863 128.026C85.4998 127.97 85.5016 127.912 85.4915 127.855C85.4813 127.798 85.4596 127.744 85.4276 127.696C85.147 127.41 84.4582 127.913 84.613 127.232C84.2089 127.291 84.465 126.83 84.419 126.619C84.373 126.409 84.1197 126.265 84.085 126.052ZM91.9386 131.94C92.0504 131.836 92.1537 131.737 92.2155 131.672C92.3105 131.563 92.4215 131.425 92.5381 131.271C92.6262 131.147 92.7044 131.016 92.7718 130.879C92.7317 130.877 92.6929 130.864 92.6594 130.842C92.6259 130.819 92.599 130.788 92.5815 130.751C92.568 130.794 92.5458 130.834 92.5164 130.868C92.487 130.902 92.4509 130.929 92.4106 130.948C92.3702 130.967 92.3264 130.977 92.2819 130.978C92.2373 130.979 92.1931 130.97 92.1518 130.953C92.0501 131.052 92.0298 131.005 91.8758 131C91.8596 130.999 91.8425 131.001 91.8237 131.002C91.8598 131.304 91.8964 131.601 91.932 131.89C91.9343 131.907 91.9358 131.923 91.9386 131.94ZM89.8209 131.232C89.8558 131.347 89.9055 131.476 89.9489 131.622C89.9923 131.767 90.0314 131.925 90.0765 132.093C90.1216 132.26 90.1769 132.429 90.236 132.601C90.295 132.772 90.355 132.964 90.408 133.142C90.4373 133.228 90.464 133.316 90.4959 133.4C90.5278 133.483 90.5623 133.563 90.6006 133.643C90.6779 133.804 90.7553 133.961 90.8248 134.109C90.9633 134.381 91.0903 134.628 91.1731 134.822C91.1963 134.529 91.2035 134.234 91.1946 133.94C91.201 133.043 91.1001 132.065 91.0494 131.068C91.0455 130.956 91.0412 130.846 91.037 130.734C90.9803 130.74 90.9243 130.751 90.8695 130.766C90.6476 130.823 90.4223 130.901 90.3226 130.624C90.1583 130.697 90.0099 130.488 89.8816 130.383C89.6987 130.233 89.7464 130.524 89.6855 130.597C89.7265 130.808 89.77 131.019 89.8159 131.232C89.82 131.233 89.8201 131.23 89.8209 131.232Z" fill="#D4D5EB"/>
</svg>
