<svg width="113" height="167" viewBox="0 0 113 167" fill="none" xmlns="http://www.w3.org/2000/svg">
<path d="M76.1528 65.6099C76.1834 65.4506 76.1351 65.2837 75.9648 65.3557C75.9832 65.1991 75.9571 65.0404 75.8896 64.8987C75.8482 64.8326 75.7556 64.8305 75.7168 64.7657C75.6779 64.7009 75.2621 62.7481 75.239 62.6871C75.2051 62.5901 75.1661 62.495 75.122 62.4024C75.0982 62.3552 75.0716 62.3095 75.0423 62.2656C75.0133 62.2275 74.9364 62.2415 74.9092 62.1906C74.7971 61.9788 75.0617 62.0271 75.1456 61.8818C75.1514 61.8738 75.215 61.5362 75.2142 61.5239C75.2047 61.3684 75.1514 61.4087 75.0902 61.2977C75.0319 61.1913 75.0024 61.071 75.0046 60.9491C74.9633 60.5725 74.6558 60.356 74.5533 60.0218C74.3094 60.0642 74.3516 59.8359 74.1594 59.8198C74.2916 59.6855 74.2925 59.738 74.3458 59.5961C74.3764 59.5114 74.4024 59.3466 74.4363 59.2505L74.395 59.2416C74.4296 59.1602 74.4431 59.0711 74.4344 58.9828C74.4257 58.8945 74.3949 58.81 74.3451 58.7374C74.2953 58.6648 74.2281 58.6066 74.1499 58.5684C74.0718 58.5301 73.9854 58.5131 73.899 58.5189C73.8847 58.3577 73.8261 58.2039 73.73 58.0755C73.6339 57.947 73.5041 57.8492 73.3559 57.7933C73.3484 57.7347 73.3323 57.6776 73.3084 57.6239C73.3497 57.5154 73.5344 57.3591 73.4431 57.2574C73.3753 57.1812 73.1244 57.2748 73.0265 57.2625C73.0087 57.0562 72.8462 56.3382 72.6317 56.3014C72.6917 56.1561 72.5987 56.0599 72.4548 56.0769C72.2254 56.1048 72.4023 56.2086 72.3093 56.331C72.294 56.3551 72.2735 56.3753 72.2494 56.39C72.2253 56.4046 72.1982 56.4134 72.1703 56.4157C72.1423 56.4179 72.1142 56.4136 72.0882 56.4029C72.0621 56.3923 72.0388 56.3757 72.02 56.3543C71.9055 56.2273 72.0275 55.9401 72.0126 55.7829C71.9915 55.5673 71.7737 55.3657 71.8009 55.1615C71.8245 54.9891 71.9882 54.7976 72.0246 54.6172C72.0932 54.2618 71.8745 54.3207 71.7352 54.6036C71.4827 54.4918 71.4372 54.9035 71.2483 54.6883C71.0594 54.4732 71.2095 54.0843 70.9536 53.9132C70.9826 53.8822 70.995 53.8069 71.0189 53.7742C70.9231 53.7192 70.6395 53.5345 70.6292 53.4536C70.6131 53.3299 70.852 53.2329 70.7308 53.091C70.6688 53.019 70.5353 53.0486 70.4597 53.0656C70.4101 52.945 70.4077 52.8096 70.4531 52.6873C70.3388 52.6826 70.2279 52.6465 70.1319 52.5827C70.2225 52.4708 70.4626 52.2633 70.4337 52.0943C70.3948 51.8503 70.1357 51.9625 69.9753 51.9053C69.7599 51.8282 69.7273 51.6317 69.6603 51.4525C69.6686 51.3471 69.6669 51.2412 69.6554 51.1361C69.6368 50.9569 69.5434 50.9302 69.4818 50.7832C69.4301 50.6591 69.4752 50.6053 69.469 50.4825C69.4562 50.2457 69.3375 50.1529 69.0693 50.1203C69.2557 49.978 69.18 49.8534 69.0457 49.7272C68.9482 49.6349 68.906 49.6933 68.856 49.5705C68.8359 49.4256 68.8359 49.2786 68.856 49.1338C68.8435 48.948 68.7855 48.7685 68.6874 48.6119C68.6299 48.4971 68.6122 48.1713 68.484 48.1502C68.472 48.2637 68.389 48.4136 68.2612 48.3463C68.1335 48.2789 68.2257 48.1163 68.1951 48.0133C68.1347 47.8066 67.9471 47.7397 67.802 47.594C67.6259 47.4186 67.4887 46.9421 67.2866 47.2369C67.1109 47.4911 67.2254 47.9007 67.0713 48.1874C66.9597 48.3341 66.8669 48.4948 66.7952 48.6657C66.7708 48.7733 66.82 48.8639 66.8084 48.9728C66.7902 49.1422 66.6844 49.2341 66.6174 49.376C66.5686 49.4811 66.5616 49.5917 66.5153 49.6954C66.4505 49.8445 66.3149 49.9225 66.2347 50.0551C66.1231 50.2393 66.1467 50.4291 66.028 50.6151C65.9206 50.7815 65.8825 50.8459 65.8776 50.9425C65.6209 50.9849 65.3233 50.9145 65.2378 51.2445C65.1836 51.4563 65.2993 51.6164 65.2055 51.8232C65.1009 52.0527 64.8748 52.2408 64.8228 52.5056C64.7666 52.8046 64.8819 52.642 65.0625 52.8186C65.296 53.0469 65.0212 53.3655 64.7467 53.3485C64.2892 52.894 63.987 53.5082 63.987 53.5082C63.9788 53.8344 64.1073 53.9123 64.259 54.1368C64.4107 54.3613 64.2685 54.4185 64.0412 54.585C63.8583 54.7432 63.7022 54.9314 63.5795 55.142C63.4204 55.2918 63.2726 55.4537 63.1372 55.6262C63.0814 55.7278 63.0558 55.8439 63.0637 55.9602C63.0715 56.0765 63.1125 56.1879 63.1814 56.2806C63.2571 56.387 63.501 56.5077 63.5096 56.6496C63.5175 56.8055 63.3683 56.7767 63.3054 56.8821C63.229 57.0054 63.2997 57.0177 63.3005 57.1532C63.3005 57.3104 63.298 57.238 63.2563 57.3837C63.2149 57.5214 63.1653 57.5235 63.2182 57.6802C63.2521 57.7814 63.4183 57.8831 63.4249 57.9839C63.4394 58.1855 63.1356 58.3842 63.0496 58.5553C62.9851 58.6824 62.8016 58.9336 62.8252 59.0768C62.6704 59.0658 62.5158 59.1008 62.38 59.1777C62.2442 59.2545 62.133 59.37 62.0597 59.5101C62.0442 59.6032 62.0503 59.6988 62.0777 59.7889C62.1051 59.8791 62.1528 59.9614 62.2172 60.029C62.2816 60.1044 62.4999 60.1942 62.511 60.3006C62.5255 60.4412 62.2663 60.5628 62.2763 60.739C62.2837 60.8508 62.3664 60.9084 62.4305 60.9847C62.6516 61.2418 62.6243 61.4057 62.3709 61.62C62.099 61.8484 62.1915 61.9166 62.4978 62.0246C62.4867 62.1517 62.2147 62.5473 62.5205 62.585C62.3965 62.7316 62.5127 62.7519 62.5127 62.8701C62.5127 63.0349 62.4139 63.1408 62.378 63.3229C62.2967 63.2338 62.1883 63.1757 62.0705 63.158C61.9528 63.1403 61.8327 63.1641 61.7299 63.2255C61.4459 63.4051 61.6001 63.8448 61.791 64.0489C61.6088 64.121 61.3124 64.176 61.5546 64.4577C61.3012 64.6212 61.3831 64.8351 61.455 65.0762C61.4898 65.2349 61.5064 65.3972 61.5046 65.5599C61.524 65.7565 61.2153 66.3647 61.2413 66.5511C61.264 66.7206 61.1429 66.8193 61.1619 66.9823C61.1895 67.0945 61.2437 67.198 61.3197 67.2835C61.3957 67.369 61.4912 67.4339 61.5976 67.4724C61.748 67.5008 61.2384 67.5771 61.3703 67.7198C61.4744 67.8333 61.3513 67.9863 61.4199 68.1066C61.4885 68.2269 61.6774 68.2006 61.7385 68.3319C61.7997 68.4632 61.684 68.606 61.7799 68.7555C61.8588 68.8826 62.6578 68.6733 62.7194 68.8165C62.8516 69.1253 63.3989 68.9715 63.7754 69.0791C63.9924 69.141 64.0296 69.0918 64.1408 68.9165C64.2297 68.7771 64.2912 68.5234 64.483 68.7098C64.5859 68.8097 64.5194 68.9834 64.5864 69.0982C64.6721 69.2016 64.7861 69.2763 64.9137 69.3125C65.1891 69.4572 65.5025 69.5071 65.8077 69.4549C66.059 69.4227 66.3533 69.3308 66.5468 69.5519C66.5582 69.4619 66.5995 69.3788 66.6637 69.3163C66.6843 69.3534 66.7125 69.3853 66.7464 69.41C66.7957 69.554 66.8471 69.6977 66.9006 69.8412C67.02 70.1377 67.1258 70.4393 67.2655 70.7248C67.397 70.9749 67.5015 71.239 67.5772 71.5123C67.6272 71.7664 67.6553 72.0409 67.6846 72.2811C67.714 72.5213 67.738 72.7381 67.7599 72.9237C67.7747 73.0249 67.7834 73.155 67.7971 73.2998C67.7479 73.6705 67.7185 74.0233 67.7024 74.3253C67.6817 74.7066 67.6776 75.2708 67.6346 75.8927C67.6247 76.0477 67.6111 76.2065 67.5887 76.365C67.5788 76.4446 67.5685 76.5246 67.5581 76.6056L67.5123 76.8424C67.4962 76.922 67.4842 77.0008 67.4639 77.0808L67.3937 77.3214C67.347 77.482 67.2998 77.6412 67.2548 77.7975L66.9948 78.6892C66.9754 78.7583 66.9535 78.8256 66.9357 78.8917C66.9125 78.9459 66.9014 78.9968 66.872 79.0514C66.8245 79.1573 66.7646 79.2607 66.7121 79.3615L66.6741 79.4352H69.3656C69.3214 79.2725 69.2801 79.0963 69.2462 78.9048C69.1685 78.4584 69.1015 77.9729 69.042 77.537C69.0007 77.0982 68.9676 76.7064 68.9444 76.4425C68.9319 75.7892 69.0694 75.142 69.3458 74.5532C69.6325 73.8023 69.8809 73.0365 70.0898 72.2591C70.289 71.4542 70.4886 70.635 70.6445 69.8492C70.6494 69.8234 70.6531 69.7975 70.6581 69.7721C70.8648 69.529 70.6581 69.5031 70.8003 69.3812C71.0127 69.4307 70.9466 69.9378 71.028 69.8776C71.133 69.8776 71.3822 69.909 71.4413 69.7929C71.5025 69.6688 71.3083 69.5307 71.312 69.3956C71.3637 69.3913 71.3992 69.3481 71.4467 69.3375C71.2892 68.9118 71.9059 69.7933 72.049 69.6493C72.4404 69.2541 73.272 70.1004 73.2567 69.6645C73.3478 69.6728 73.439 69.6491 73.5151 69.5972C73.5913 69.5453 73.648 69.4683 73.6758 69.379C73.686 69.3959 73.6997 69.4103 73.716 69.4213C73.7322 69.4322 73.7505 69.4393 73.7697 69.4422C73.7889 69.4451 73.8085 69.4437 73.8271 69.4381C73.8457 69.4324 73.8629 69.4227 73.8775 69.4095C74.0015 69.2964 73.892 69.2697 73.8742 69.2079C73.8494 69.1189 73.7118 69.1122 73.7733 68.9465C73.7808 68.9101 73.7999 68.8772 73.8277 68.8532C73.8555 68.8291 73.8903 68.8153 73.9267 68.814C74.0486 68.789 74.2574 68.9919 74.4256 68.8669C74.5442 68.7797 74.5773 68.4454 74.5756 68.3133C74.7823 68.2874 74.8178 68.1061 74.8104 67.9257C75.0112 67.9189 74.967 67.7664 74.8984 67.6766C74.8434 67.6042 74.7376 67.6487 74.6884 67.5245C74.677 67.468 74.6773 67.4096 74.6895 67.3531C74.7016 67.2967 74.7252 67.2435 74.7587 67.1971C75.048 66.9226 75.7147 67.4555 75.5854 66.768C75.985 66.8438 75.747 66.3715 75.8003 66.1631C75.8536 65.9547 76.1107 65.8217 76.1528 65.6099ZM68.1318 71.1628C68.0244 71.0543 67.9252 70.951 67.8661 70.8832C67.7756 70.7705 67.6702 70.6269 67.5598 70.4685C67.4767 70.3406 67.4037 70.206 67.3416 70.0661C67.3815 70.0659 67.4206 70.0546 67.4547 70.0334C67.4889 70.0122 67.5167 69.9819 67.5354 69.9458C67.5473 69.9896 67.5679 70.0303 67.596 70.0655C67.624 70.1007 67.6588 70.1296 67.6983 70.1504C67.7377 70.1711 67.7809 70.1832 67.8252 70.186C67.8694 70.1888 67.9137 70.1821 67.9554 70.1665C68.0529 70.2699 68.0748 70.2241 68.2282 70.225C68.2443 70.225 68.2612 70.2275 68.2798 70.2296C68.2331 70.5299 68.186 70.826 68.1401 71.1137C68.1372 71.1306 68.1352 71.1463 68.1318 71.1628ZM70.263 70.546C70.2241 70.6596 70.17 70.7866 70.1216 70.9302C70.0732 71.0738 70.0286 71.2306 69.9778 71.3962C69.9269 71.5618 69.8658 71.7283 69.8009 71.8973C69.736 72.0663 69.6694 72.2557 69.6103 72.4315C69.5781 72.5162 69.5483 72.6034 69.5136 72.6856C69.4789 72.7678 69.4417 72.8466 69.4008 72.9249C69.3181 73.0825 69.2354 73.2359 69.161 73.3812C69.0135 73.6472 68.8783 73.8895 68.789 74.0792C68.7765 73.785 68.78 73.4903 68.7994 73.1965C68.8254 72.2989 68.961 71.3242 69.0474 70.3287C69.0552 70.2173 69.0635 70.1068 69.0718 69.9949C69.1279 70.0035 69.1831 70.0168 69.2371 70.0348C69.4557 70.1013 69.6769 70.1889 69.786 69.9162C69.9468 69.9962 70.1018 69.7937 70.2332 69.6942C70.4204 69.5519 70.3626 69.8408 70.4204 69.9166C70.3721 70.1254 70.3212 70.3347 70.2679 70.546C70.2638 70.5465 70.2638 70.5443 70.263 70.546Z" fill="#D4D5EB"/>
<path d="M34.1528 32.815C34.1834 32.6557 34.1351 32.4888 33.9648 32.5608C33.9832 32.4042 33.9571 32.2455 33.8896 32.1037C33.8482 32.0377 33.7556 32.0356 33.7168 31.9707C33.6779 31.9059 33.2621 29.9532 33.239 29.8922C33.2051 29.7951 33.1661 29.7001 33.122 29.6075C33.0982 29.5602 33.0716 29.5145 33.0423 29.4707C33.0133 29.4326 32.9364 29.4465 32.9092 29.3957C32.7971 29.1839 33.0617 29.2322 33.1456 29.0869C33.1514 29.0789 33.215 28.7413 33.2142 28.729C33.2047 28.5735 33.1514 28.6138 33.0902 28.5028C33.032 28.3964 33.0024 28.2761 33.0046 28.1542C32.9633 27.7776 32.6558 27.5611 32.5533 27.2269C32.3094 27.2693 32.3516 27.0409 32.1594 27.0248C32.2916 26.8906 32.2925 26.9431 32.3458 26.8012C32.3764 26.7165 32.4024 26.5517 32.4363 26.4555L32.395 26.4466C32.4296 26.3653 32.4431 26.2762 32.4344 26.1879C32.4257 26.0996 32.3949 26.0151 32.3451 25.9425C32.2953 25.8699 32.2281 25.8117 32.1499 25.7734C32.0718 25.7352 31.9854 25.7181 31.899 25.724C31.8847 25.5628 31.8261 25.409 31.73 25.2805C31.6339 25.1521 31.5041 25.0542 31.3559 24.9984C31.3484 24.9398 31.3323 24.8827 31.3084 24.8289C31.3497 24.7205 31.5344 24.5642 31.4431 24.4625C31.3753 24.3863 31.1244 24.4799 31.0265 24.4676C31.0087 24.2613 30.8462 23.5433 30.6317 23.5065C30.6917 23.3612 30.5987 23.265 30.4548 23.282C30.2254 23.3099 30.4023 23.4137 30.3094 23.5361C30.294 23.5602 30.2735 23.5804 30.2494 23.595C30.2253 23.6097 30.1982 23.6185 30.1703 23.6208C30.1423 23.623 30.1142 23.6186 30.0882 23.608C30.0621 23.5974 30.0388 23.5808 30.02 23.5594C29.9055 23.4323 30.0275 23.1451 30.0126 22.988C29.9915 22.7724 29.7737 22.5708 29.8009 22.3666C29.8245 22.1942 29.9882 22.0027 30.0246 21.8223C30.0932 21.4669 29.8745 21.5257 29.7352 21.8087C29.4827 21.6969 29.4372 22.1086 29.2483 21.8934C29.0594 21.6782 29.2095 21.2894 28.9536 21.1182C28.9826 21.0873 28.995 21.0119 29.0189 20.9793C28.9231 20.9242 28.6395 20.7396 28.6292 20.6586C28.6131 20.535 28.852 20.438 28.7308 20.2961C28.6688 20.224 28.5353 20.2537 28.4597 20.2706C28.4101 20.1501 28.4077 20.0146 28.4531 19.8924C28.3388 19.8877 28.2279 19.8516 28.1319 19.7877C28.2225 19.6759 28.4626 19.4683 28.4337 19.2993C28.3948 19.0553 28.1357 19.1676 27.9753 19.1104C27.7599 19.0333 27.7273 18.8368 27.6603 18.6576C27.6686 18.5522 27.6669 18.4462 27.6554 18.3412C27.6368 18.162 27.5434 18.1353 27.4818 17.9883C27.4301 17.8642 27.4752 17.8104 27.469 17.6876C27.4562 17.4508 27.3375 17.358 27.0693 17.3254C27.2557 17.1831 27.18 17.0585 27.0457 16.9323C26.9482 16.8399 26.906 16.8984 26.856 16.7756C26.8359 16.6307 26.8359 16.4837 26.856 16.3388C26.8435 16.1531 26.7855 15.9736 26.6874 15.817C26.6299 15.7022 26.6122 15.3764 26.484 15.3552C26.472 15.4688 26.389 15.6187 26.2612 15.5514C26.1335 15.484 26.2257 15.3214 26.1951 15.2184C26.1347 15.0117 25.9471 14.9448 25.802 14.7991C25.6259 14.6237 25.4887 14.1472 25.2866 14.442C25.1109 14.6961 25.2254 15.1057 25.0713 15.3925C24.9597 15.5392 24.8669 15.6999 24.7952 15.8708C24.7708 15.9783 24.82 16.069 24.8084 16.1779C24.7902 16.3473 24.6844 16.4392 24.6174 16.5811C24.5686 16.6862 24.5616 16.7967 24.5154 16.9005C24.4505 17.0496 24.3149 17.1276 24.2347 17.2602C24.1231 17.4444 24.1467 17.6342 24.028 17.8201C23.9206 17.9866 23.8825 18.051 23.8776 18.1476C23.6209 18.1899 23.3233 18.1196 23.2378 18.4496C23.1836 18.6614 23.2993 18.8215 23.2055 19.0282C23.1009 19.2578 22.8748 19.4459 22.8228 19.7106C22.7666 20.0097 22.8819 19.847 23.0625 20.0237C23.296 20.252 23.0212 20.5705 22.7467 20.5536C22.2892 20.0991 21.987 20.7133 21.987 20.7133C21.9788 21.0395 22.1073 21.1174 22.259 21.3419C22.4107 21.5664 22.2685 21.6236 22.0412 21.7901C21.8583 21.9483 21.7022 22.1365 21.5795 22.3471C21.4204 22.4969 21.2726 22.6588 21.1372 22.8313C21.0814 22.9328 21.0558 23.049 21.0637 23.1653C21.0715 23.2816 21.1125 23.393 21.1814 23.4857C21.2571 23.592 21.501 23.7128 21.5096 23.8547C21.5175 24.0106 21.3683 23.9817 21.3054 24.0872C21.229 24.2105 21.2997 24.2228 21.3005 24.3583C21.3005 24.5155 21.298 24.443 21.2563 24.5888C21.2149 24.7264 21.1653 24.7285 21.2182 24.8853C21.2521 24.9865 21.4183 25.0882 21.4249 25.189C21.4394 25.3906 21.1356 25.5893 21.0496 25.7604C20.9851 25.8875 20.8016 26.1387 20.8252 26.2819C20.6704 26.2708 20.5158 26.3059 20.38 26.3827C20.2442 26.4596 20.133 26.5751 20.0597 26.7152C20.0442 26.8083 20.0503 26.9038 20.0777 26.994C20.1051 27.0842 20.1528 27.1665 20.2172 27.2341C20.2816 27.3095 20.4999 27.3993 20.511 27.5056C20.5255 27.6463 20.2663 27.7678 20.2763 27.9441C20.2837 28.0559 20.3664 28.1135 20.4305 28.1897C20.6516 28.4469 20.6243 28.6108 20.3709 28.8251C20.099 29.0534 20.1915 29.1216 20.4978 29.2297C20.4867 29.3567 20.2147 29.7524 20.5205 29.7901C20.3965 29.9366 20.5127 29.957 20.5127 30.0752C20.5127 30.2399 20.4139 30.3458 20.378 30.528C20.2967 30.4389 20.1883 30.3808 20.0705 30.3631C19.9528 30.3454 19.8327 30.3692 19.7299 30.4306C19.4459 30.6102 19.6001 31.0498 19.791 31.254C19.6088 31.326 19.3124 31.3811 19.5546 31.6628C19.3012 31.8263 19.3831 32.0402 19.455 32.2812C19.4898 32.44 19.5064 32.6023 19.5046 32.765C19.524 32.9615 19.2153 33.5698 19.2413 33.7562C19.264 33.9256 19.1429 34.0243 19.1619 34.1874C19.1895 34.2996 19.2437 34.403 19.3197 34.4885C19.3957 34.574 19.4912 34.639 19.5976 34.6775C19.748 34.7059 19.2384 34.7821 19.3703 34.9249C19.4744 35.0384 19.3513 35.1913 19.4199 35.3116C19.4885 35.4319 19.6774 35.4057 19.7385 35.537C19.7997 35.6683 19.684 35.8111 19.7799 35.9606C19.8588 36.0877 20.6578 35.8784 20.7194 36.0216C20.8516 36.3304 21.3989 36.1766 21.7754 36.2842C21.9924 36.346 22.0296 36.2969 22.1408 36.1215C22.2297 35.9822 22.2912 35.7285 22.483 35.9148C22.5859 36.0148 22.5194 36.1885 22.5864 36.3033C22.6721 36.4067 22.7861 36.4814 22.9137 36.5176C23.1891 36.6623 23.5025 36.7122 23.8077 36.6599C24.059 36.6277 24.3533 36.5358 24.5468 36.7569C24.5582 36.667 24.5995 36.5838 24.6637 36.5214C24.6843 36.5584 24.7125 36.5904 24.7464 36.615C24.7957 36.759 24.8471 36.9028 24.9006 37.0462C25.02 37.3428 25.1258 37.6444 25.2655 37.9299C25.397 38.18 25.5015 38.444 25.5772 38.7173C25.6272 38.9715 25.6553 39.246 25.6846 39.4862C25.714 39.7263 25.738 39.9432 25.7599 40.1287C25.7747 40.23 25.7834 40.36 25.7971 40.5049C25.7479 40.8755 25.7185 41.2284 25.7024 41.5304C25.6817 41.9117 25.6776 42.4759 25.6346 43.0977C25.6247 43.2528 25.6111 43.4116 25.5888 43.57C25.5788 43.6497 25.5685 43.7297 25.5581 43.8106L25.5123 44.0474C25.4962 44.1271 25.4842 44.2058 25.4639 44.2859L25.3937 44.5265C25.347 44.687 25.2998 44.8463 25.2548 45.0026L24.9948 45.8943C24.9754 45.9633 24.9535 46.0307 24.9357 46.0968C24.9125 46.151 24.9014 46.2018 24.872 46.2565C24.8245 46.3624 24.7646 46.4657 24.7121 46.5665L24.6741 46.6402H27.3656C27.3214 46.4776 27.2801 46.3014 27.2462 46.1099C27.1685 45.6634 27.1015 45.178 27.042 44.7421C27.0007 44.3033 26.9676 43.9115 26.9444 43.6476C26.9319 42.9943 27.0694 42.3471 27.3458 41.7583C27.6325 41.0074 27.8809 40.2416 28.0898 39.4641C28.289 38.6593 28.4886 37.8401 28.6445 37.0543C28.6494 37.0285 28.6531 37.0026 28.6581 36.9772C28.8648 36.7341 28.6581 36.7082 28.8003 36.5862C29.0127 36.6358 28.9466 37.1428 29.028 37.0827C29.133 37.0827 29.3822 37.114 29.4414 36.998C29.5025 36.8739 29.3083 36.7358 29.312 36.6006C29.3637 36.5964 29.3992 36.5532 29.4467 36.5426C29.2892 36.1169 29.9059 36.9984 30.049 36.8544C30.4404 36.4591 31.272 37.3055 31.2567 36.8696C31.3478 36.8779 31.439 36.8541 31.5151 36.8022C31.5913 36.7504 31.648 36.6734 31.6758 36.5841C31.686 36.601 31.6997 36.6154 31.716 36.6263C31.7322 36.6373 31.7505 36.6444 31.7697 36.6473C31.7889 36.6502 31.8085 36.6488 31.8271 36.6431C31.8457 36.6375 31.8629 36.6278 31.8775 36.6146C32.0015 36.5015 31.892 36.4748 31.8742 36.413C31.8494 36.324 31.7118 36.3172 31.7733 36.1516C31.7808 36.1151 31.7999 36.0823 31.8277 36.0582C31.8555 36.0342 31.8903 36.0204 31.9267 36.019C32.0486 35.994 32.2574 36.1969 32.4256 36.072C32.5442 35.9847 32.5773 35.6505 32.5756 35.5183C32.7823 35.4925 32.8178 35.3112 32.8104 35.1308C33.0112 35.124 32.967 34.9715 32.8984 34.8817C32.8434 34.8092 32.7376 34.8537 32.6884 34.7296C32.677 34.673 32.6773 34.6146 32.6895 34.5582C32.7016 34.5018 32.7252 34.4486 32.7587 34.4022C33.048 34.1277 33.7147 34.6606 33.5854 33.9731C33.985 34.0489 33.747 33.5766 33.8003 33.3682C33.8536 33.1598 34.1107 33.0268 34.1528 32.815ZM26.1318 38.3679C26.0244 38.2594 25.9252 38.1561 25.8661 38.0883C25.7756 37.9756 25.6702 37.832 25.5598 37.6736C25.4767 37.5456 25.4037 37.4111 25.3416 37.2712C25.3815 37.271 25.4206 37.2597 25.4547 37.2385C25.4889 37.2173 25.5167 37.187 25.5354 37.1509C25.5473 37.1946 25.5679 37.2354 25.596 37.2706C25.624 37.3058 25.6588 37.3347 25.6983 37.3554C25.7377 37.3762 25.7809 37.3883 25.8252 37.3911C25.8694 37.3939 25.9137 37.3872 25.9554 37.3716C26.0529 37.4749 26.0748 37.4292 26.2282 37.43C26.2443 37.43 26.2612 37.4326 26.2798 37.4347C26.2331 37.735 26.186 38.0311 26.1401 38.3187C26.1372 38.3357 26.1352 38.3513 26.1318 38.3679ZM28.263 37.7511C28.2241 37.8646 28.17 37.9917 28.1216 38.1353C28.0732 38.2789 28.0286 38.4356 27.9778 38.6013C27.9269 38.7669 27.8658 38.9334 27.8009 39.1024C27.736 39.2714 27.6694 39.4607 27.6103 39.6365C27.5781 39.7212 27.5483 39.8085 27.5136 39.8907C27.4789 39.9729 27.4417 40.0517 27.4008 40.13C27.3181 40.2876 27.2354 40.4409 27.161 40.5862C27.0135 40.8522 26.8783 41.0945 26.789 41.2843C26.7765 40.9901 26.78 40.6954 26.7994 40.4015C26.8254 39.5039 26.961 38.5293 27.0474 37.5338C27.0552 37.4224 27.0635 37.3118 27.0718 37.2C27.1279 37.2085 27.1832 37.2219 27.2371 37.2398C27.4557 37.3063 27.6769 37.394 27.786 37.1212C27.9468 37.2013 28.1018 36.9988 28.2332 36.8993C28.4204 36.7569 28.3626 37.0458 28.4204 37.1217C28.3721 37.3305 28.3212 37.5397 28.2679 37.7511C28.2638 37.7515 28.2638 37.7494 28.263 37.7511Z" fill="#D4D5EB"/>
<path d="M26.1528 91.231C26.1834 91.0717 26.1351 90.9048 25.9648 90.9768C25.9832 90.8202 25.9571 90.6615 25.8896 90.5198C25.8482 90.4537 25.7556 90.4516 25.7168 90.3868C25.6779 90.3219 25.2621 88.3692 25.239 88.3082C25.2051 88.2112 25.1661 88.1161 25.122 88.0235C25.0982 87.9763 25.0716 87.9306 25.0423 87.8867C25.0133 87.8486 24.9364 87.8625 24.9092 87.8117C24.7971 87.5999 25.0617 87.6482 25.1456 87.5029C25.1514 87.4949 25.215 87.1573 25.2142 87.145C25.2047 86.9895 25.1514 87.0298 25.0902 86.9188C25.032 86.8124 25.0024 86.6921 25.0046 86.5702C24.9633 86.1936 24.6558 85.9771 24.5533 85.6429C24.3094 85.6853 24.3516 85.457 24.1594 85.4409C24.2916 85.3066 24.2925 85.3591 24.3458 85.2172C24.3764 85.1325 24.4024 84.9677 24.4363 84.8716L24.395 84.8627C24.4296 84.7813 24.4431 84.6922 24.4344 84.6039C24.4257 84.5156 24.3949 84.4311 24.3451 84.3585C24.2953 84.2859 24.2281 84.2277 24.1499 84.1894C24.0718 84.1512 23.9854 84.1341 23.899 84.14C23.8847 83.9788 23.8261 83.825 23.73 83.6966C23.6339 83.5681 23.5041 83.4703 23.3559 83.4144C23.3484 83.3558 23.3323 83.2987 23.3084 83.245C23.3497 83.1365 23.5344 82.9802 23.4431 82.8785C23.3753 82.8023 23.1244 82.8959 23.0265 82.8836C23.0087 82.6773 22.8462 81.9593 22.6317 81.9225C22.6917 81.7772 22.5987 81.681 22.4548 81.698C22.2254 81.7259 22.4023 81.8297 22.3094 81.9521C22.294 81.9762 22.2735 81.9964 22.2494 82.011C22.2253 82.0257 22.1982 82.0345 22.1703 82.0368C22.1423 82.039 22.1142 82.0347 22.0882 82.024C22.0621 82.0134 22.0388 81.9968 22.02 81.9754C21.9055 81.8484 22.0275 81.5612 22.0126 81.404C21.9915 81.1884 21.7737 80.9868 21.8009 80.7826C21.8245 80.6102 21.9882 80.4187 22.0246 80.2383C22.0932 79.8829 21.8745 79.9418 21.7352 80.2247C21.4827 80.1129 21.4372 80.5246 21.2483 80.3094C21.0594 80.0943 21.2095 79.7054 20.9536 79.5343C20.9826 79.5033 20.995 79.4279 21.0189 79.3953C20.9231 79.3403 20.6395 79.1556 20.6292 79.0747C20.6131 78.951 20.852 78.854 20.7308 78.7121C20.6688 78.6401 20.5353 78.6697 20.4597 78.6867C20.4101 78.5661 20.4077 78.4306 20.4531 78.3084C20.3388 78.3037 20.2279 78.2676 20.1319 78.2038C20.2225 78.0919 20.4626 77.8844 20.4337 77.7153C20.3948 77.4714 20.1357 77.5836 19.9753 77.5264C19.7599 77.4493 19.7273 77.2528 19.6603 77.0736C19.6686 76.9682 19.6669 76.8622 19.6554 76.7572C19.6368 76.578 19.5434 76.5513 19.4818 76.4043C19.4301 76.2802 19.4752 76.2264 19.469 76.1036C19.4562 75.8668 19.3375 75.774 19.0693 75.7414C19.2557 75.5991 19.18 75.4745 19.0457 75.3483C18.9482 75.256 18.906 75.3144 18.856 75.1916C18.8359 75.0467 18.8359 74.8997 18.856 74.7548C18.8435 74.5691 18.7855 74.3896 18.6874 74.233C18.6299 74.1182 18.6122 73.7924 18.484 73.7713C18.472 73.8848 18.389 74.0347 18.2612 73.9674C18.1335 73.9 18.2257 73.7374 18.1951 73.6344C18.1347 73.4277 17.9471 73.3608 17.802 73.2151C17.6259 73.0397 17.4887 72.5632 17.2866 72.858C17.1109 73.1121 17.2254 73.5218 17.0713 73.8085C16.9597 73.9552 16.8669 74.1159 16.7952 74.2868C16.7708 74.3944 16.82 74.485 16.8084 74.5939C16.7902 74.7633 16.6844 74.8552 16.6174 74.9971C16.5686 75.1022 16.5616 75.2128 16.5154 75.3165C16.4505 75.4656 16.3149 75.5436 16.2347 75.6762C16.1231 75.8604 16.1467 76.0502 16.028 76.2362C15.9206 76.4026 15.8825 76.467 15.8776 76.5636C15.6209 76.606 15.3233 76.5356 15.2378 76.8656C15.1836 77.0774 15.2993 77.2375 15.2055 77.4442C15.1009 77.6738 14.8748 77.8619 14.8228 78.1267C14.7666 78.4257 14.8819 78.2631 15.0625 78.4397C15.296 78.668 15.0212 78.9866 14.7467 78.9696C14.2892 78.5151 13.987 79.1293 13.987 79.1293C13.9788 79.4555 14.1073 79.5334 14.259 79.7579C14.4107 79.9824 14.2685 80.0396 14.0412 80.2061C13.8583 80.3643 13.7022 80.5525 13.5795 80.7631C13.4204 80.9129 13.2726 81.0748 13.1372 81.2473C13.0814 81.3489 13.0558 81.465 13.0637 81.5813C13.0715 81.6976 13.1125 81.809 13.1814 81.9017C13.2571 82.0081 13.501 82.1288 13.5096 82.2707C13.5175 82.4266 13.3683 82.3978 13.3054 82.5032C13.229 82.6265 13.2997 82.6388 13.3005 82.7743C13.3005 82.9315 13.298 82.8591 13.2563 83.0048C13.2149 83.1424 13.1653 83.1446 13.2182 83.3013C13.2521 83.4025 13.4183 83.5042 13.4249 83.605C13.4394 83.8066 13.1356 84.0053 13.0496 84.1764C12.9851 84.3035 12.8016 84.5547 12.8252 84.6979C12.6704 84.6868 12.5158 84.7219 12.38 84.7988C12.2442 84.8756 12.133 84.9911 12.0597 85.1312C12.0442 85.2243 12.0503 85.3198 12.0777 85.41C12.1051 85.5002 12.1528 85.5825 12.2172 85.6501C12.2816 85.7255 12.4999 85.8153 12.511 85.9216C12.5255 86.0623 12.2663 86.1839 12.2763 86.3601C12.2837 86.4719 12.3664 86.5295 12.4305 86.6057C12.6516 86.8629 12.6243 87.0268 12.3709 87.2411C12.099 87.4695 12.1915 87.5377 12.4978 87.6457C12.4867 87.7727 12.2147 88.1684 12.5205 88.2061C12.3965 88.3526 12.5127 88.373 12.5127 88.4912C12.5127 88.6559 12.4139 88.7618 12.378 88.944C12.2967 88.8549 12.1883 88.7968 12.0705 88.7791C11.9528 88.7614 11.8327 88.7852 11.7299 88.8466C11.4459 89.0262 11.6001 89.4659 11.791 89.67C11.6088 89.742 11.3124 89.7971 11.5546 90.0788C11.3012 90.2423 11.3831 90.4562 11.455 90.6972C11.4898 90.856 11.5064 91.0183 11.5046 91.181C11.524 91.3775 11.2153 91.9858 11.2413 92.1722C11.264 92.3416 11.1429 92.4403 11.1619 92.6034C11.1895 92.7156 11.2437 92.819 11.3197 92.9045C11.3957 92.9901 11.4912 93.055 11.5976 93.0935C11.748 93.1219 11.2384 93.1981 11.3703 93.3409C11.4744 93.4544 11.3513 93.6073 11.4199 93.7276C11.4885 93.8479 11.6774 93.8217 11.7385 93.953C11.7997 94.0843 11.684 94.2271 11.7799 94.3766C11.8588 94.5037 12.6578 94.2944 12.7194 94.4376C12.8516 94.7464 13.3989 94.5926 13.7754 94.7002C13.9924 94.7621 14.0296 94.7129 14.1408 94.5376C14.2297 94.3982 14.2912 94.1445 14.483 94.3308C14.5859 94.4308 14.5194 94.6045 14.5864 94.7193C14.6721 94.8227 14.7861 94.8974 14.9137 94.9336C15.1891 95.0783 15.5025 95.1282 15.8077 95.0759C16.059 95.0438 16.3533 94.9518 16.5468 95.173C16.5582 95.083 16.5995 94.9999 16.6637 94.9374C16.6843 94.9744 16.7125 95.0064 16.7464 95.031C16.7957 95.1751 16.8471 95.3188 16.9006 95.4623C17.02 95.7588 17.1258 96.0604 17.2655 96.3459C17.397 96.596 17.5015 96.86 17.5772 97.1333C17.6272 97.3875 17.6553 97.662 17.6846 97.9022C17.714 98.1423 17.738 98.3592 17.7599 98.5448C17.7747 98.646 17.7834 98.776 17.7971 98.9209C17.7479 99.2916 17.7185 99.6444 17.7024 99.9464C17.6817 100.328 17.6776 100.892 17.6346 101.514C17.6247 101.669 17.6111 101.828 17.5888 101.986C17.5788 102.066 17.5685 102.146 17.5581 102.227L17.5123 102.463C17.4962 102.543 17.4842 102.622 17.4639 102.702L17.3937 102.943C17.347 103.103 17.2998 103.262 17.2548 103.419L16.9948 104.31C16.9754 104.379 16.9535 104.447 16.9357 104.513C16.9125 104.567 16.9014 104.618 16.872 104.672C16.8245 104.778 16.7646 104.882 16.7121 104.983L16.6741 105.056H19.3656C19.3214 104.894 19.2801 104.717 19.2462 104.526C19.1685 104.079 19.1015 103.594 19.042 103.158C19.0007 102.719 18.9676 102.327 18.9444 102.064C18.9319 101.41 19.0694 100.763 19.3458 100.174C19.6325 99.4234 19.8809 98.6576 20.0898 97.8801C20.289 97.0753 20.4886 96.2561 20.6445 95.4703C20.6494 95.4445 20.6531 95.4186 20.6581 95.3932C20.8648 95.1501 20.6581 95.1242 20.8003 95.0022C21.0127 95.0518 20.9466 95.5588 21.028 95.4987C21.133 95.4987 21.3822 95.53 21.4414 95.414C21.5025 95.2899 21.3083 95.1518 21.312 95.0166C21.3637 95.0124 21.3992 94.9692 21.4467 94.9586C21.2892 94.5329 21.9059 95.4144 22.049 95.2704C22.4404 94.8752 23.272 95.7215 23.2567 95.2856C23.3478 95.2939 23.439 95.2702 23.5151 95.2183C23.5913 95.1664 23.648 95.0894 23.6758 95.0001C23.686 95.017 23.6997 95.0314 23.716 95.0423C23.7322 95.0533 23.7505 95.0604 23.7697 95.0633C23.7889 95.0662 23.8085 95.0648 23.8271 95.0592C23.8457 95.0535 23.8629 95.0438 23.8775 95.0306C24.0015 94.9175 23.892 94.8908 23.8742 94.829C23.8494 94.74 23.7118 94.7333 23.7733 94.5676C23.7808 94.5312 23.7999 94.4983 23.8277 94.4743C23.8555 94.4502 23.8903 94.4364 23.9267 94.435C24.0486 94.4101 24.2574 94.613 24.4256 94.488C24.5442 94.4007 24.5773 94.0665 24.5756 93.9344C24.7823 93.9085 24.8178 93.7272 24.8104 93.5468C25.0112 93.54 24.967 93.3875 24.8984 93.2977C24.8434 93.2253 24.7376 93.2697 24.6884 93.1456C24.677 93.0891 24.6773 93.0306 24.6895 92.9742C24.7016 92.9178 24.7252 92.8646 24.7587 92.8182C25.048 92.5437 25.7147 93.0766 25.5854 92.3891C25.985 92.4649 25.747 91.9926 25.8003 91.7842C25.8536 91.5758 26.1107 91.4428 26.1528 91.231ZM18.1318 96.7839C18.0244 96.6754 17.9252 96.5721 17.8661 96.5043C17.7756 96.3916 17.6702 96.248 17.5598 96.0896C17.4767 95.9617 17.4037 95.8271 17.3416 95.6872C17.3815 95.687 17.4206 95.6757 17.4547 95.6545C17.4889 95.6333 17.5167 95.603 17.5354 95.5669C17.5473 95.6107 17.5679 95.6514 17.596 95.6866C17.624 95.7218 17.6588 95.7507 17.6983 95.7714C17.7377 95.7922 17.7809 95.8043 17.8252 95.8071C17.8694 95.8099 17.9137 95.8032 17.9554 95.7876C18.0529 95.8909 18.0748 95.8452 18.2282 95.846C18.2443 95.846 18.2612 95.8486 18.2798 95.8507C18.2331 96.151 18.186 96.4471 18.1401 96.7347C18.1372 96.7517 18.1352 96.7674 18.1318 96.7839ZM20.263 96.1671C20.2241 96.2806 20.17 96.4077 20.1216 96.5513C20.0732 96.6949 20.0286 96.8516 19.9778 97.0173C19.9269 97.1829 19.8658 97.3494 19.8009 97.5184C19.736 97.6874 19.6694 97.8767 19.6103 98.0525C19.5781 98.1373 19.5483 98.2245 19.5136 98.3067C19.4789 98.3889 19.4417 98.4677 19.4008 98.546C19.3181 98.7036 19.2354 98.8569 19.161 99.0022C19.0135 99.2683 18.8783 99.5106 18.789 99.7003C18.7765 99.4061 18.78 99.1114 18.7994 98.8175C18.8254 97.92 18.961 96.9453 19.0474 95.9498C19.0552 95.8384 19.0635 95.7279 19.0718 95.616C19.1279 95.6246 19.1832 95.6379 19.2371 95.6558C19.4557 95.7223 19.6769 95.81 19.786 95.5372C19.9468 95.6173 20.1018 95.4148 20.2332 95.3153C20.4204 95.173 20.3626 95.4618 20.4204 95.5377C20.3721 95.7465 20.3212 95.9557 20.2679 96.1671C20.2638 96.1675 20.2638 96.1654 20.263 96.1671Z" fill="#D4D5EB"/>
<path d="M108.222 21.8502C108.291 21.7053 108.284 21.5315 108.1 21.5545C108.156 21.4088 108.17 21.2489 108.138 21.0941C108.114 21.0193 108.024 20.9921 108.002 20.9192C107.98 20.8462 108.051 18.8537 108.044 18.7887C108.034 18.6861 108.02 18.584 107.999 18.4829C107.987 18.4309 107.972 18.3797 107.955 18.3295C107.936 18.285 107.857 18.2775 107.843 18.2212C107.785 17.9869 108.032 18.1053 108.15 17.9882C108.157 17.9821 108.302 17.6744 108.305 17.6624C108.333 17.5102 108.271 17.5344 108.239 17.411C108.208 17.2928 108.208 17.1689 108.24 17.0522C108.292 16.6785 108.044 16.3865 108.026 16.037C107.777 16.0115 107.874 15.8032 107.69 15.7354C107.852 15.6421 107.84 15.6929 107.927 15.5708C107.978 15.4976 108.044 15.3461 108.101 15.2628L108.062 15.243C108.116 15.1741 108.151 15.092 108.164 15.0046C108.177 14.9173 108.168 14.8276 108.137 14.7442C108.106 14.6608 108.055 14.5865 107.987 14.5284C107.92 14.4703 107.84 14.4304 107.754 14.4126C107.78 14.2535 107.76 14.0896 107.697 13.9398C107.635 13.7901 107.532 13.6606 107.4 13.5665C107.407 13.5081 107.406 13.4488 107.395 13.3905C107.462 13.2974 107.681 13.1972 107.617 13.0745C107.569 12.9827 107.301 13.0046 107.208 12.9661C107.241 12.7628 107.258 12.0275 107.057 11.9338C107.151 11.8102 107.084 11.6924 106.939 11.6696C106.708 11.6341 106.855 11.7821 106.734 11.8746C106.714 11.8937 106.689 11.9075 106.661 11.915C106.634 11.9226 106.605 11.9237 106.578 11.9183C106.55 11.9129 106.523 11.901 106.5 11.8837C106.477 11.8664 106.459 11.844 106.446 11.8184C106.365 11.665 106.554 11.4217 106.578 11.2664C106.611 11.0531 106.447 10.7999 106.524 10.6108C106.589 10.4512 106.796 10.3115 106.876 10.1477C107.03 9.82426 106.802 9.82148 106.596 10.056C106.376 9.87967 106.231 10.2636 106.099 10.0051C105.967 9.74666 106.209 9.41318 106 9.17891C106.036 9.15702 106.067 9.08782 106.098 9.06295C106.018 8.98388 105.786 8.72903 105.795 8.64835C105.81 8.52492 106.067 8.4965 105.984 8.327C105.941 8.24084 105.803 8.23308 105.725 8.22882C105.706 8.09934 105.736 7.96829 105.811 7.86295C105.7 7.82738 105.6 7.76244 105.522 7.67494C105.638 7.59192 105.924 7.45743 105.937 7.28689C105.959 7.04149 105.678 7.07907 105.535 6.98044C105.343 6.84769 105.359 6.64964 105.338 6.45897C105.372 6.35978 105.396 6.25734 105.41 6.15307C105.436 5.97556 105.351 5.92448 105.327 5.76627C105.307 5.63277 105.364 5.59323 105.388 5.47332C105.434 5.24193 105.34 5.12039 105.086 5.01607C105.303 4.92976 105.259 4.78933 105.159 4.63132C105.086 4.51592 105.031 4.56072 105.012 4.42889C105.028 4.28402 105.064 4.14251 105.119 4.00855C105.152 3.8264 105.139 3.63788 105.082 3.46042C105.054 3.33431 105.116 3.01596 104.996 2.96074C104.956 3.06675 104.838 3.18848 104.73 3.08894C104.621 2.98939 104.751 2.85789 104.747 2.7505C104.738 2.53514 104.571 2.41971 104.465 2.24002C104.335 2.02336 104.318 1.52739 104.048 1.7562C103.814 1.95307 103.825 2.37843 103.604 2.61253C103.459 2.72337 103.329 2.85284 103.217 2.99777C103.166 3.09469 103.192 3.19531 103.154 3.29694C103.095 3.45508 102.969 3.51478 102.869 3.63315C102.795 3.721 102.761 3.82551 102.69 3.91282C102.59 4.03868 102.438 4.07684 102.328 4.18265C102.173 4.32966 102.15 4.51871 101.988 4.66544C101.842 4.79645 101.789 4.84808 101.761 4.93969C101.499 4.91068 101.225 4.7621 101.06 5.05644C100.955 5.24557 101.029 5.43114 100.887 5.60459C100.728 5.79713 100.461 5.91668 100.345 6.15734C100.217 6.42989 100.37 6.30469 100.503 6.5238C100.676 6.80704 100.328 7.0389 100.064 6.94798C99.7276 6.38613 99.2814 6.89515 99.2814 6.89515C99.1934 7.20684 99.3001 7.31679 99.3935 7.57411C99.4869 7.83143 99.3338 7.84783 99.0705 7.94625C98.8527 8.04879 98.6539 8.18754 98.4821 8.35685C98.2897 8.4578 98.1054 8.57338 97.9306 8.70262C97.851 8.7852 97.7976 8.89001 97.7767 9.0041C97.7559 9.11819 97.7687 9.23655 97.8135 9.34454C97.8614 9.46744 98.0705 9.64993 98.0442 9.78887C98.0137 9.94104 97.8747 9.87274 97.7874 9.95718C97.6824 10.055 97.7485 10.0861 97.7161 10.2168C97.6776 10.368 97.6929 10.2976 97.6164 10.4265C97.5422 10.5478 97.4931 10.5363 97.5064 10.7016C97.5148 10.8082 97.6525 10.9513 97.6343 11.0501C97.599 11.2481 97.253 11.3567 97.1269 11.498C97.0327 11.6028 96.7915 11.7947 96.7795 11.9389C96.6307 11.8862 96.4708 11.8779 96.3191 11.915C96.1673 11.9521 96.0302 12.0329 95.9241 12.1479C95.8861 12.2333 95.8687 12.3269 95.8734 12.4211C95.8781 12.5154 95.9047 12.6075 95.951 12.6901C95.9956 12.7802 96.1872 12.926 96.1721 13.0314C96.1518 13.1706 95.8683 13.2172 95.8349 13.3895C95.8147 13.4992 95.8815 13.5771 95.9255 13.6679C96.0789 13.9755 96.012 14.1258 95.7115 14.2632C95.3894 14.4091 95.4633 14.4999 95.7366 14.6871C95.6945 14.8064 95.3314 15.1132 95.6215 15.2327C95.4642 15.34 95.5729 15.3912 95.5439 15.5049C95.5035 15.6635 95.3809 15.7386 95.3011 15.9041C95.2433 15.7963 95.1515 15.7109 95.0406 15.6618C94.9297 15.6128 94.8063 15.603 94.6907 15.6341C94.3687 15.7298 94.4119 16.1949 94.5487 16.4433C94.3527 16.4631 94.0491 16.4355 94.2171 16.7725C93.9291 16.861 93.9567 17.0891 93.9681 17.3407C93.9632 17.5029 93.9397 17.6637 93.898 17.8197C93.8689 18.0142 93.4176 18.5157 93.3974 18.7022C93.3781 18.8714 93.2354 18.9335 93.2141 19.0956C93.2135 19.2111 93.2412 19.3254 93.2947 19.4284C93.3481 19.5313 93.4256 19.6198 93.5203 19.6858C93.6606 19.754 93.1431 19.6888 93.2372 19.8621C93.3113 19.9997 93.1533 20.1134 93.1909 20.2478C93.2286 20.3822 93.4199 20.4083 93.4476 20.5513C93.4753 20.6944 93.327 20.8003 93.3842 20.9703C93.4303 21.114 94.2635 21.1298 94.2887 21.2844C94.3425 21.6176 94.9157 21.6183 95.2579 21.8243C95.4551 21.9428 95.5036 21.9056 95.6553 21.7671C95.7765 21.6571 95.8989 21.4296 96.041 21.6611C96.1172 21.7853 96.0095 21.9344 96.0469 22.0631C96.1054 22.1859 96.1987 22.2888 96.3147 22.3584C96.5487 22.5725 96.8433 22.7058 97.1548 22.7384C97.4086 22.7758 97.7192 22.7673 97.8543 23.0327C97.8876 22.9493 97.9483 22.8805 98.0265 22.8378C98.0375 22.879 98.0573 22.9175 98.0844 22.9504C98.0974 23.1024 98.1125 23.2548 98.1297 23.4074C98.1739 23.7252 98.2035 24.0443 98.2703 24.357C98.3376 24.6335 98.3752 24.9161 98.3822 25.1997C98.3689 25.4579 98.3291 25.7297 98.299 25.9689C98.2688 26.208 98.2391 26.4233 98.2151 26.6078C98.2049 26.7093 98.1815 26.8368 98.1593 26.98C98.0203 27.3233 97.9051 27.655 97.8153 27.9413C97.7017 28.3026 97.5593 28.8445 97.3649 29.4313C97.3172 29.5779 97.2649 29.727 97.2042 29.8735C97.175 29.9474 97.1452 30.0216 97.1153 30.0967L97.0123 30.3121C96.977 30.3844 96.946 30.457 96.9066 30.5285L96.7788 30.741C96.6938 30.8828 96.6086 31.0233 96.5262 31.1615L96.0532 31.949C96.0173 32.0102 95.9793 32.0691 95.9457 32.1278C95.9098 32.1737 95.8864 32.2196 95.8443 32.2642C95.7718 32.3532 95.6878 32.4364 95.6118 32.5192L95.5565 32.5798L98.1907 33.3115C98.1873 33.143 98.19 32.9621 98.2038 32.7686C98.2372 32.3178 98.2906 31.8324 98.3392 31.3966C98.4063 30.963 98.47 30.5769 98.512 30.3166C98.6598 29.6845 98.953 29.099 99.3678 28.6074C99.8325 27.9626 100.263 27.2931 100.658 26.6016C101.05 25.8811 101.447 25.1469 101.792 24.433C101.803 24.4094 101.813 24.3856 101.824 24.3625C102.086 24.1846 101.89 24.1036 102.059 24.0248C102.255 24.1303 102.066 24.6003 102.16 24.5646C102.263 24.5931 102.499 24.691 102.585 24.5954C102.676 24.4926 102.519 24.3068 102.556 24.1778C102.608 24.1878 102.653 24.1558 102.702 24.1586C102.653 23.706 103.04 24.7221 103.215 24.6224C103.695 24.3484 104.302 25.3891 104.394 24.9654C104.481 24.9981 104.576 25.0001 104.663 24.9708C104.75 24.9416 104.825 24.8829 104.874 24.8045C104.88 24.8236 104.889 24.8412 104.903 24.8561C104.916 24.871 104.932 24.8829 104.95 24.8909C104.968 24.8989 104.988 24.9029 105.007 24.9025C105.027 24.9021 105.046 24.8974 105.064 24.8887C105.213 24.8136 105.112 24.7581 105.11 24.6938C105.107 24.6014 104.974 24.5575 105.075 24.4148C105.091 24.3817 105.118 24.3553 105.151 24.3397C105.184 24.3241 105.222 24.3203 105.258 24.3289C105.383 24.338 105.538 24.59 105.733 24.5155C105.871 24.4637 105.985 24.151 106.016 24.0234C106.224 24.0547 106.303 23.8899 106.34 23.7142C106.539 23.7623 106.533 23.6035 106.488 23.4984C106.451 23.4137 106.337 23.4278 106.319 23.2949C106.322 23.2374 106.337 23.1812 106.362 23.1302C106.388 23.0792 106.424 23.0345 106.468 22.9989C106.819 22.8133 107.341 23.5075 107.383 22.8106C107.755 22.9923 107.638 22.473 107.741 22.2869C107.844 22.1008 108.129 22.0426 108.222 21.8502ZM99.0107 25.0141C98.9322 24.8805 98.8604 24.7541 98.8192 24.6728C98.7582 24.5397 98.6903 24.3729 98.6211 24.1904C98.5711 24.0446 98.5326 23.8953 98.5061 23.7437C98.5452 23.7544 98.5863 23.7541 98.6249 23.743C98.6635 23.7319 98.6982 23.7104 98.7253 23.6807C98.7262 23.726 98.7364 23.7709 98.7552 23.8124C98.774 23.8539 98.801 23.8911 98.8346 23.9218C98.8681 23.9525 98.9074 23.9759 98.95 23.9906C98.9926 24.0053 99.0376 24.011 99.0822 24.0072C99.1523 24.1332 99.185 24.0952 99.3349 24.1377C99.3507 24.1421 99.3666 24.1491 99.3843 24.1562C99.265 24.4326 99.1463 24.7047 99.0309 24.9691C99.0239 24.9846 99.018 24.9991 99.0107 25.0141ZM101.248 24.9999C101.182 25.0986 101.098 25.2062 101.015 25.3313C100.933 25.4563 100.85 25.595 100.76 25.7406C100.67 25.8862 100.569 26.0298 100.464 26.1748C100.359 26.3199 100.248 26.484 100.147 26.6371C100.094 26.7099 100.044 26.7858 99.9898 26.8555C99.9357 26.9251 99.88 26.9908 99.8207 27.0551C99.7012 27.1843 99.5827 27.3095 99.4743 27.4291C99.2647 27.645 99.073 27.8414 98.9391 27.9998C98.9989 27.7132 99.0746 27.4305 99.1656 27.153C99.4111 26.2961 99.7827 25.3949 100.111 24.4603C100.146 24.3552 100.181 24.251 100.217 24.1456C100.27 24.1691 100.321 24.197 100.369 24.2289C100.567 24.3524 100.762 24.4969 100.935 24.264C101.073 24.3847 101.274 24.232 101.427 24.1719C101.645 24.0859 101.518 24.3482 101.556 24.4369C101.457 24.6247 101.356 24.8123 101.252 25.0013C101.248 25.0005 101.249 24.9985 101.248 24.9999Z" fill="#D4D5EB"/>
<path d="M18.2218 153.03C18.2907 152.885 18.2843 152.712 18.1 152.735C18.1564 152.589 18.1698 152.429 18.1384 152.274C18.1142 152.199 18.0241 152.172 18.0019 152.099C17.9798 152.026 18.0515 150.034 18.0438 149.969C18.0344 149.866 18.0195 149.764 17.9991 149.663C17.9874 149.611 17.9725 149.56 17.9545 149.51C17.9356 149.465 17.8569 149.458 17.8427 149.401C17.7849 149.167 18.032 149.285 18.1497 149.168C18.1574 149.162 18.3024 148.855 18.3046 148.843C18.3334 148.69 18.2713 148.715 18.2387 148.591C18.2077 148.473 18.2084 148.349 18.2404 148.232C18.2923 147.859 18.0443 147.567 18.0259 147.217C17.7769 147.192 17.8741 146.983 17.6899 146.916C17.8523 146.822 17.8403 146.873 17.9272 146.751C17.9779 146.678 18.0438 146.526 18.1005 146.443L18.0622 146.423C18.116 146.354 18.1512 146.272 18.1643 146.185C18.1773 146.097 18.168 146.008 18.137 145.924C18.106 145.841 18.0545 145.767 17.9874 145.709C17.9204 145.651 17.8399 145.611 17.7539 145.593C17.7795 145.434 17.7599 145.27 17.6973 145.12C17.6346 144.97 17.5317 144.841 17.4003 144.747C17.4073 144.688 17.4056 144.629 17.3953 144.571C17.4623 144.478 17.6814 144.377 17.617 144.255C17.5693 144.163 17.3008 144.185 17.208 144.146C17.2411 143.943 17.2581 143.208 17.0572 143.114C17.1515 142.99 17.084 142.873 16.9391 142.85C16.7078 142.814 16.8555 142.962 16.7344 143.055C16.7136 143.074 16.6885 143.088 16.6613 143.095C16.6341 143.103 16.6055 143.104 16.5776 143.098C16.5497 143.093 16.5233 143.081 16.5004 143.064C16.4775 143.047 16.4587 143.024 16.4456 142.999C16.3647 142.845 16.5544 142.602 16.5783 142.447C16.6106 142.233 16.4468 141.98 16.5235 141.791C16.5888 141.631 16.796 141.492 16.8758 141.328C17.03 141.004 16.8016 141.002 16.5959 141.236C16.3762 141.06 16.2308 141.444 16.0987 141.185C15.9665 140.927 16.2087 140.593 16.0002 140.359C16.0361 140.337 16.0668 140.268 16.0982 140.243C16.0179 140.164 15.7856 139.909 15.7954 139.829C15.8099 139.705 16.0675 139.677 15.9837 139.507C15.9407 139.421 15.8028 139.413 15.7246 139.409C15.7056 139.28 15.7365 139.148 15.8108 139.043C15.7001 139.008 15.6004 138.943 15.5222 138.855C15.6382 138.772 15.9241 138.638 15.9372 138.467C15.959 138.222 15.6778 138.259 15.5349 138.161C15.343 138.028 15.3592 137.83 15.3376 137.639C15.3715 137.54 15.3959 137.438 15.4103 137.333C15.436 137.156 15.3512 137.105 15.3269 136.946C15.3068 136.813 15.3641 136.773 15.3881 136.653C15.4336 136.422 15.3402 136.301 15.0857 136.196C15.303 136.11 15.2595 135.97 15.159 135.811C15.0861 135.696 15.0306 135.741 15.0117 135.609C15.0276 135.464 15.0636 135.323 15.1188 135.189C15.152 135.007 15.1393 134.818 15.0816 134.641C15.0535 134.514 15.116 134.196 14.9958 134.141C14.9562 134.247 14.8382 134.369 14.7297 134.269C14.6212 134.17 14.7513 134.038 14.7465 133.931C14.7382 133.715 14.5709 133.6 14.4646 133.42C14.3353 133.204 14.3178 132.708 14.0477 132.936C13.8135 133.133 13.8252 133.559 13.604 133.793C13.4589 133.904 13.3287 134.033 13.2166 134.178C13.1663 134.275 13.1923 134.375 13.1543 134.477C13.0949 134.635 12.9688 134.695 12.8685 134.813C12.795 134.901 12.7611 135.006 12.6903 135.093C12.5903 135.219 12.4385 135.257 12.3275 135.363C12.1731 135.51 12.1497 135.699 11.988 135.846C11.842 135.977 11.789 136.028 11.7605 136.12C11.4989 136.091 11.2249 135.942 11.0603 136.237C10.9554 136.426 11.0294 136.611 10.8869 136.785C10.7283 136.977 10.4609 137.097 10.3451 137.338C10.2168 137.61 10.3695 137.485 10.503 137.704C10.6756 137.987 10.3285 138.219 10.064 138.128C9.72764 137.566 9.28141 138.075 9.28141 138.075C9.19338 138.387 9.30006 138.497 9.39349 138.754C9.48693 139.012 9.33376 139.028 9.07048 139.126C8.85268 139.229 8.65386 139.368 8.48211 139.537C8.28974 139.638 8.10538 139.754 7.93061 139.883C7.85105 139.965 7.79756 140.07 7.77674 140.184C7.75593 140.298 7.76869 140.417 7.81348 140.525C7.86145 140.648 8.07052 140.83 8.04424 140.969C8.01372 141.121 7.87474 141.053 7.7874 141.137C7.68236 141.235 7.74853 141.266 7.71612 141.397C7.6776 141.548 7.69293 141.478 7.61636 141.607C7.54216 141.728 7.49309 141.717 7.50645 141.882C7.51481 141.988 7.6525 142.131 7.63427 142.23C7.599 142.428 7.25301 142.537 7.12693 142.678C7.03268 142.783 6.79149 142.975 6.77946 143.119C6.63069 143.066 6.47083 143.058 6.31908 143.095C6.16734 143.132 6.03017 143.213 5.92409 143.328C5.88608 143.413 5.8687 143.507 5.87338 143.601C5.87807 143.696 5.90466 143.788 5.95102 143.87C5.99564 143.96 6.18722 144.106 6.17208 144.212C6.15177 144.351 5.86834 144.397 5.83486 144.57C5.81473 144.679 5.88154 144.757 5.92555 144.848C6.07894 145.156 6.01205 145.306 5.71155 145.443C5.38942 145.589 5.46331 145.68 5.73658 145.867C5.69452 145.987 5.33137 146.293 5.62147 146.413C5.4642 146.52 5.57289 146.571 5.54392 146.685C5.50353 146.844 5.3809 146.919 5.30107 147.084C5.24334 146.976 5.15151 146.891 5.04062 146.842C4.92973 146.793 4.80635 146.783 4.69067 146.814C4.36875 146.91 4.41187 147.375 4.54871 147.624C4.35267 147.643 4.04913 147.616 4.21713 147.953C3.92909 148.041 3.95674 148.269 3.96805 148.521C3.96319 148.683 3.93969 148.844 3.89803 149C3.86887 149.194 3.41762 149.696 3.39742 149.882C3.37814 150.052 3.23542 150.114 3.21406 150.276C3.21353 150.391 3.24123 150.506 3.29466 150.609C3.34809 150.712 3.4256 150.8 3.5203 150.866C3.66059 150.934 3.14314 150.869 3.23719 151.042C3.3113 151.18 3.15327 151.294 3.19094 151.428C3.2286 151.562 3.4199 151.588 3.44758 151.732C3.47527 151.875 3.327 151.98 3.3842 152.15C3.43032 152.294 4.26354 152.31 4.28872 152.465C4.34248 152.798 4.91574 152.799 5.25788 153.004C5.45509 153.123 5.50355 153.086 5.65535 152.947C5.77648 152.837 5.89894 152.61 6.04096 152.841C6.11718 152.966 6.00948 153.115 6.04688 153.243C6.10542 153.366 6.19873 153.469 6.31472 153.539C6.54873 153.753 6.84329 153.886 7.15478 153.919C7.40862 153.956 7.71917 153.947 7.85429 154.213C7.88755 154.129 7.94834 154.061 8.02647 154.018C8.03754 154.059 8.05733 154.098 8.08444 154.131C8.09741 154.283 8.11249 154.435 8.12965 154.588C8.17388 154.905 8.20351 155.224 8.27026 155.537C8.33763 155.814 8.37517 156.096 8.38225 156.38C8.3689 156.638 8.32913 156.91 8.29898 157.149C8.26884 157.388 8.23915 157.603 8.21511 157.788C8.20486 157.889 8.18147 158.017 8.15931 158.16C8.02033 158.504 7.90512 158.835 7.81532 159.121C7.70165 159.483 7.55934 160.025 7.36486 160.612C7.31715 160.758 7.26486 160.907 7.20419 161.054C7.17496 161.128 7.14521 161.202 7.11527 161.277L7.01234 161.492C6.97705 161.565 6.94601 161.637 6.90656 161.709L6.77883 161.921C6.69377 162.063 6.60862 162.203 6.52622 162.342L6.05322 163.129C6.01729 163.19 5.97934 163.249 5.94575 163.308C5.9098 163.354 5.88643 163.4 5.84431 163.444C5.77184 163.533 5.68784 163.617 5.61176 163.699L5.55649 163.76L8.19069 164.492C8.18728 164.323 8.19002 164.142 8.20377 163.949C8.23715 163.498 8.2906 163.013 8.33918 162.577C8.40629 162.143 8.46995 161.757 8.51198 161.497C8.65984 160.865 8.953 160.279 9.36782 159.788C9.83252 159.143 10.2632 158.473 10.6582 157.782C11.0505 157.061 11.4467 156.327 11.7918 155.613C11.8029 155.59 11.8129 155.566 11.824 155.543C12.0858 155.365 11.8899 155.284 12.059 155.205C12.2548 155.31 12.0658 155.78 12.1602 155.745C12.2629 155.773 12.4992 155.871 12.5855 155.776C12.6758 155.673 12.5195 155.487 12.5562 155.358C12.6078 155.368 12.6532 155.336 12.7023 155.339C12.6526 154.886 13.0401 155.902 13.2153 155.803C13.6953 155.529 14.3017 156.569 14.3936 156.146C14.4807 156.178 14.5757 156.18 14.663 156.151C14.7503 156.122 14.8246 156.063 14.8737 155.985C14.8796 156.004 14.8895 156.021 14.9027 156.036C14.9159 156.051 14.9321 156.063 14.9502 156.071C14.9682 156.079 14.9878 156.083 15.0074 156.083C15.027 156.082 15.0462 156.078 15.0636 156.069C15.2127 155.994 15.112 155.938 15.1098 155.874C15.1073 155.782 14.9743 155.738 15.0752 155.595C15.0914 155.562 15.1182 155.535 15.1513 155.52C15.1844 155.504 15.2218 155.501 15.2577 155.509C15.3832 155.518 15.5378 155.77 15.733 155.696C15.8705 155.644 15.9848 155.331 16.0156 155.204C16.2241 155.235 16.3034 155.07 16.3403 154.894C16.5386 154.942 16.5327 154.784 16.4875 154.679C16.4515 154.594 16.337 154.608 16.3193 154.475C16.322 154.418 16.3366 154.361 16.3623 154.31C16.388 154.259 16.4241 154.215 16.4683 154.179C16.8188 153.994 17.3406 154.688 17.3825 153.991C17.7551 154.172 17.6379 153.653 17.7411 153.467C17.8444 153.281 18.1286 153.223 18.2218 153.03ZM9.01075 156.194C8.93216 156.061 8.86043 155.934 8.81919 155.853C8.75822 155.72 8.69026 155.553 8.62108 155.371C8.57108 155.225 8.53264 155.075 8.50612 154.924C8.54523 154.935 8.58627 154.934 8.62487 154.923C8.66347 154.912 8.69818 154.891 8.72532 154.861C8.72624 154.906 8.73643 154.951 8.75523 154.993C8.77403 155.034 8.80103 155.071 8.83456 155.102C8.86808 155.133 8.90738 155.156 8.95001 155.171C8.99263 155.185 9.03764 155.191 9.08221 155.187C9.15234 155.313 9.18501 155.275 9.33488 155.318C9.35065 155.322 9.36662 155.329 9.3843 155.336C9.26498 155.613 9.14629 155.885 9.03089 156.149C9.02391 156.165 9.01804 156.179 9.01075 156.194ZM11.2476 156.18C11.1817 156.279 11.0976 156.386 11.0151 156.511C10.9326 156.637 10.8505 156.775 10.7601 156.921C10.6698 157.066 10.5691 157.21 10.4642 157.355C10.3592 157.5 10.2477 157.664 10.1468 157.817C10.0944 157.89 10.0439 157.966 9.98981 158.036C9.93569 158.105 9.87996 158.171 9.82071 158.235C9.70119 158.365 9.58272 158.49 9.47429 158.609C9.26468 158.825 9.07301 159.022 8.93912 159.18C8.99895 158.893 9.07457 158.611 9.16561 158.333C9.41109 157.476 9.78266 156.575 10.1112 155.64C10.1462 155.535 10.1814 155.431 10.2169 155.326C10.2697 155.349 10.3205 155.377 10.3689 155.409C10.5666 155.533 10.7615 155.677 10.9352 155.444C11.0729 155.565 11.2742 155.412 11.4273 155.352C11.6454 155.266 11.518 155.528 11.556 155.617C11.4575 155.805 11.3564 155.992 11.2525 156.181C11.2483 156.181 11.2488 156.179 11.2476 156.18Z" fill="#D4D5EB"/>
</svg>
