<svg width="71" height="51" viewBox="0 0 71 51" fill="none" xmlns="http://www.w3.org/2000/svg">
<g clip-path="url(#clip0_1275_10538)">
<path d="M44.8365 38.2329V50.5269H14.0353C10.5259 50.5269 7.67065 47.7693 7.67065 44.3799C7.67065 40.9905 10.5259 38.2329 14.0353 38.2329H44.8365Z" fill="#F2F2F2"/>
<path d="M45.593 50.4324C45.593 50.5578 45.5431 50.678 45.4545 50.7667C45.3658 50.8554 45.2456 50.9052 45.1202 50.9052H13.4867C11.7686 50.9052 10.1209 50.2227 8.90603 49.0079C7.69117 47.793 7.00867 46.1453 7.00867 44.4272C7.00867 42.7092 7.69117 41.0614 8.90603 39.8466C10.1209 38.6317 11.7686 37.9492 13.4867 37.9492H45.1202C45.2456 37.9492 45.3659 37.999 45.4545 38.0877C45.5432 38.1764 45.593 38.2967 45.593 38.4221C45.593 38.5475 45.5432 38.6677 45.4545 38.7564C45.3659 38.8451 45.2456 38.8949 45.1202 38.8949H13.4867C12.0194 38.8949 10.6122 39.4778 9.57474 40.5153C8.53723 41.5528 7.95436 42.96 7.95436 44.4272C7.95436 45.8945 8.53723 47.3017 9.57474 48.3392C10.6122 49.3767 12.0194 49.9595 13.4867 49.9595H45.1202C45.2456 49.9596 45.3658 50.0094 45.4545 50.0981C45.5431 50.1868 45.593 50.307 45.593 50.4324Z" fill="#6C63FF"/>
<path d="M44.8365 41.07H11.7371C11.7121 41.07 11.688 41.06 11.6703 41.0423C11.6525 41.0246 11.6426 41.0005 11.6426 40.9754C11.6426 40.9503 11.6525 40.9263 11.6703 40.9086C11.688 40.8908 11.7121 40.8809 11.7371 40.8809H44.8365C44.8616 40.8809 44.8856 40.8908 44.9033 40.9086C44.9211 40.9263 44.931 40.9503 44.931 40.9754C44.931 41.0005 44.9211 41.0246 44.9033 41.0423C44.8856 41.06 44.8616 41.07 44.8365 41.07Z" fill="#CCCCCC"/>
<path d="M44.8365 43.34H11.7371C11.7121 43.34 11.688 43.3301 11.6703 43.3123C11.6525 43.2946 11.6426 43.2705 11.6426 43.2454C11.6426 43.2204 11.6525 43.1963 11.6703 43.1786C11.688 43.1608 11.7121 43.1509 11.7371 43.1509H44.8365C44.8616 43.1509 44.8856 43.1608 44.9033 43.1786C44.9211 43.1963 44.931 43.2204 44.931 43.2454C44.931 43.2705 44.9211 43.2946 44.9033 43.3123C44.8856 43.3301 44.8616 43.34 44.8365 43.34Z" fill="#CCCCCC"/>
<path d="M44.8365 45.6095H11.7371C11.7121 45.6095 11.688 45.5996 11.6703 45.5818C11.6525 45.5641 11.6426 45.5401 11.6426 45.515C11.6426 45.4899 11.6525 45.4658 11.6703 45.4481C11.688 45.4304 11.7121 45.4204 11.7371 45.4204H44.8365C44.8616 45.4204 44.8856 45.4304 44.9033 45.4481C44.9211 45.4658 44.931 45.4899 44.931 45.515C44.931 45.5401 44.9211 45.5641 44.9033 45.5818C44.8856 45.5996 44.8616 45.6095 44.8365 45.6095Z" fill="#CCCCCC"/>
<path d="M44.8365 47.8791H11.7371C11.7121 47.8791 11.688 47.8691 11.6703 47.8514C11.6525 47.8336 11.6426 47.8096 11.6426 47.7845C11.6426 47.7594 11.6525 47.7354 11.6703 47.7176C11.688 47.6999 11.7121 47.6899 11.7371 47.6899H44.8365C44.8616 47.6899 44.8856 47.6999 44.9033 47.7176C44.9211 47.7354 44.931 47.7594 44.931 47.7845C44.931 47.8096 44.9211 47.8336 44.9033 47.8514C44.8856 47.8691 44.8616 47.8791 44.8365 47.8791Z" fill="#CCCCCC"/>
<path d="M68.6414 40.5474L60.9279 50.1206L36.9436 30.7953C34.2109 28.5934 33.7178 24.6546 35.8444 22.0154C37.971 19.3761 41.9245 19.0203 44.6572 21.2221L68.6414 40.5474Z" fill="#F2F2F2"/>
<path d="M61.5762 50.5215C61.4975 50.6191 61.3832 50.6814 61.2586 50.6949C61.1339 50.7083 61.009 50.6716 60.9113 50.593L36.279 30.7455C34.9411 29.6675 34.0863 28.1023 33.9025 26.394C33.7188 24.6858 34.2211 22.9746 35.2991 21.6367C36.3771 20.2989 37.9423 19.4441 39.6505 19.2603C41.3587 19.0766 43.07 19.5789 44.4078 20.6569L69.0402 40.5044C69.0886 40.5433 69.1288 40.5914 69.1586 40.646C69.1884 40.7005 69.2072 40.7603 69.2139 40.8221C69.2205 40.8838 69.215 40.9463 69.1975 41.0059C69.18 41.0655 69.1509 41.1211 69.1119 41.1694C69.073 41.2178 69.0248 41.258 68.9703 41.2878C68.9158 41.3176 68.8559 41.3363 68.7942 41.3429C68.7324 41.3495 68.67 41.3439 68.6104 41.3264C68.5508 41.3089 68.4952 41.2798 68.4469 41.2408L43.8145 21.3933C43.2488 20.9371 42.5988 20.5969 41.9016 20.392C41.2044 20.1871 40.4736 20.1215 39.7511 20.1991C39.0285 20.2767 38.3283 20.4959 37.6905 20.8441C37.0527 21.1924 36.4897 21.6629 36.0338 22.2287C35.5778 22.7946 35.2378 23.4447 35.0332 24.142C34.8286 24.8393 34.7634 25.5701 34.8412 26.2926C34.9191 27.0151 35.1385 27.7152 35.487 28.3529C35.8355 28.9906 36.3063 29.5534 36.8723 30.0091L61.5047 49.8566C61.6023 49.9353 61.6646 50.0496 61.6781 50.1742C61.6915 50.2989 61.6548 50.4238 61.5762 50.5215Z" fill="#CCCCCC"/>
<path d="M66.8612 42.7567L41.0874 21.9895C41.0777 21.9817 41.0696 21.9721 41.0637 21.9612C41.0577 21.9503 41.054 21.9383 41.0527 21.926C41.0513 21.9136 41.0525 21.9011 41.056 21.8892C41.0595 21.8773 41.0653 21.8662 41.0731 21.8565C41.0808 21.8469 41.0905 21.8388 41.1014 21.8329C41.1123 21.8269 41.1242 21.8232 41.1366 21.8218C41.1489 21.8205 41.1614 21.8216 41.1733 21.8251C41.1852 21.8286 41.1964 21.8344 41.206 21.8422L66.9798 42.6094C66.9895 42.6172 66.9976 42.6268 67.0035 42.6377C67.0095 42.6486 67.0133 42.6606 67.0146 42.673C67.0159 42.6853 67.0148 42.6978 67.0113 42.7098C67.0078 42.7217 67.002 42.7328 66.9942 42.7425C66.9864 42.7522 66.9768 42.7602 66.9659 42.7662C66.955 42.7721 66.943 42.7759 66.9306 42.7772C66.9183 42.7785 66.9058 42.7774 66.8939 42.7739C66.8819 42.7703 66.8708 42.7645 66.8612 42.7567V42.7567Z" fill="#CCCCCC"/>
<path d="M65.4372 44.5237L39.6634 23.7565C39.6439 23.7408 39.6315 23.7179 39.6288 23.693C39.6262 23.6681 39.6335 23.6431 39.6492 23.6236C39.665 23.6041 39.6878 23.5916 39.7127 23.5889C39.7376 23.5862 39.7626 23.5935 39.7821 23.6092L65.5559 44.3764C65.5656 44.3842 65.5736 44.3938 65.5796 44.4048C65.5856 44.4157 65.5893 44.4276 65.5907 44.44C65.592 44.4523 65.5909 44.4648 65.5874 44.4768C65.5839 44.4887 65.5781 44.4998 65.5703 44.5095C65.5625 44.5192 65.5529 44.5272 65.542 44.5332C65.531 44.5391 65.5191 44.5429 65.5067 44.5442C65.4944 44.5455 65.4819 44.5444 65.4699 44.5409C65.458 44.5374 65.4469 44.5315 65.4372 44.5237Z" fill="#CCCCCC"/>
<path d="M64.0131 46.2914L38.2393 25.5242C38.2198 25.5084 38.2073 25.4856 38.2046 25.4606C38.202 25.4357 38.2093 25.4107 38.225 25.3912C38.2408 25.3717 38.2636 25.3592 38.2886 25.3565C38.3135 25.3538 38.3385 25.3612 38.358 25.3769L64.1318 46.1441C64.1415 46.1519 64.1495 46.1615 64.1555 46.1724C64.1614 46.1833 64.1652 46.1953 64.1665 46.2076C64.1678 46.22 64.1667 46.2325 64.1632 46.2444C64.1597 46.2563 64.1539 46.2674 64.1461 46.2771C64.1383 46.2867 64.1287 46.2948 64.1178 46.3007C64.1069 46.3067 64.0949 46.3104 64.0826 46.3118C64.0702 46.3131 64.0577 46.312 64.0458 46.3085C64.0339 46.305 64.0228 46.2992 64.0131 46.2914V46.2914Z" fill="#CCCCCC"/>
<path d="M62.5892 48.0585L36.8154 27.2913C36.8057 27.2835 36.7977 27.2738 36.7917 27.2629C36.7858 27.252 36.782 27.2401 36.7807 27.2277C36.7794 27.2154 36.7805 27.2029 36.784 27.191C36.7875 27.1791 36.7933 27.168 36.8011 27.1583C36.8089 27.1486 36.8185 27.1406 36.8294 27.1346C36.8403 27.1287 36.8523 27.1249 36.8646 27.1236C36.877 27.1223 36.8894 27.1234 36.9014 27.1269C36.9133 27.1304 36.9244 27.1362 36.9341 27.144L62.7078 47.9112C62.7175 47.919 62.7256 47.9286 62.7316 47.9395C62.7375 47.9504 62.7413 47.9624 62.7426 47.9747C62.744 47.9871 62.7429 47.9996 62.7394 48.0115C62.7359 48.0234 62.73 48.0346 62.7222 48.0442C62.7144 48.0539 62.7048 48.062 62.6939 48.0679C62.683 48.0739 62.671 48.0776 62.6587 48.0789C62.6463 48.0803 62.6338 48.0791 62.6219 48.0756C62.61 48.0721 62.5988 48.0663 62.5892 48.0585Z" fill="#CCCCCC"/>
<path d="M70.2649 51.0002H0.0943254C0.069244 51.0002 0.0451898 50.9902 0.0274546 50.9725C0.00971933 50.9547 -0.000244141 50.9307 -0.000244141 50.9056C-0.000244141 50.8805 0.00971933 50.8565 0.0274546 50.8387C0.0451898 50.821 0.069244 50.811 0.0943254 50.811H70.2649C70.29 50.811 70.314 50.821 70.3318 50.8387C70.3495 50.8565 70.3595 50.8805 70.3595 50.9056C70.3595 50.9307 70.3495 50.9547 70.3318 50.9725C70.314 50.9902 70.29 51.0002 70.2649 51.0002Z" fill="#CCCCCC"/>
<path d="M31.972 36.9407L30.8909 36.9406L30.3767 32.7705L31.9724 32.7707L31.972 36.9407Z" fill="#FFB8B8"/>
<path d="M30.1185 36.6318H32.2035V37.9446H28.8057C28.8057 37.7722 28.8396 37.6015 28.9056 37.4423C28.9716 37.283 29.0683 37.1383 29.1902 37.0163C29.3121 36.8944 29.4568 36.7977 29.6161 36.7318C29.7754 36.6658 29.9461 36.6318 30.1185 36.6318Z" fill="#2F2E41"/>
<path d="M20.9266 36.9407L19.8455 36.9406L19.3313 32.7705L20.927 32.7707L20.9266 36.9407Z" fill="#FFB8B8"/>
<path d="M19.0733 36.6318H21.1584V37.9446H17.7605C17.7605 37.7722 17.7945 37.6015 17.8604 37.4423C17.9264 37.283 18.0231 37.1383 18.145 37.0163C18.2669 36.8944 18.4116 36.7977 18.5709 36.7318C18.7302 36.6658 18.9009 36.6318 19.0733 36.6318Z" fill="#2F2E41"/>
<path d="M24.5378 6.00856V5.53571C24.5378 4.72683 24.8592 3.95109 25.4311 3.37913C26.0031 2.80717 26.7788 2.48584 27.5877 2.48584H27.5877C28.3966 2.48584 29.1723 2.80717 29.7443 3.37913C30.3163 3.95109 30.6376 4.72683 30.6376 5.53571V6.00856C30.6376 6.5917 30.4059 7.15096 29.9936 7.56331C29.5812 7.97565 29.022 8.2073 28.4388 8.2073H26.7366C26.4478 8.2073 26.1619 8.15043 25.8952 8.03993C25.6284 7.92944 25.386 7.76748 25.1818 7.56331C24.9777 7.35913 24.8157 7.11675 24.7052 6.84998C24.5947 6.58322 24.5378 6.2973 24.5378 6.00856Z" fill="#2F2E41"/>
<path d="M27.5877 8.36957C28.8705 8.36957 29.9105 7.32965 29.9105 6.04685C29.9105 4.76404 28.8705 3.72412 27.5877 3.72412C26.3049 3.72412 25.265 4.76404 25.265 6.04685C25.265 7.32965 26.3049 8.36957 27.5877 8.36957Z" fill="#FFB8B8"/>
<path d="M14.9536 14.0301C15.0478 13.9411 15.1605 13.8738 15.2835 13.8331C15.4066 13.7923 15.5371 13.779 15.6659 13.7941C15.7946 13.8093 15.9185 13.8524 16.0288 13.9206C16.139 13.9888 16.233 14.0803 16.3041 14.1887L18.2952 13.8121L18.8192 14.9663L15.9999 15.4587C15.8098 15.566 15.587 15.5999 15.3736 15.5539C15.1603 15.5079 14.9712 15.3852 14.8422 15.2091C14.7132 15.033 14.6533 14.8157 14.6739 14.5984C14.6944 14.3811 14.7939 14.1789 14.9536 14.0301V14.0301Z" fill="#FFB8B8"/>
<path d="M25.7769 9.83264L25.8029 9.8721L22.5378 12.023L17.0283 13.7823C16.9553 13.8058 16.8927 13.8538 16.8511 13.9183C16.8095 13.9828 16.7915 14.0596 16.8002 14.1359L16.9204 15.1711C16.9258 15.2169 16.9406 15.2611 16.964 15.3008C16.9874 15.3406 17.0189 15.375 17.0564 15.4019C17.0939 15.4287 17.1366 15.4475 17.1817 15.4569C17.2269 15.4663 17.2735 15.4662 17.3186 15.4565L22.5038 14.3451C22.7548 14.2916 22.992 14.1871 23.2009 14.0381L26.8691 11.4283C27.0021 11.3332 27.1082 11.2053 27.1771 11.057C27.246 10.9087 27.2754 10.7452 27.2623 10.5822C27.2489 10.419 27.1932 10.2621 27.1007 10.1269C27.0082 9.99177 26.8821 9.88303 26.7349 9.81138C26.5876 9.73974 26.4243 9.70766 26.2608 9.7183C26.0974 9.72895 25.9396 9.78195 25.8029 9.8721L25.7769 9.83264Z" fill="#CCCCCC"/>
<path d="M30.9101 35.7578C30.8271 35.7578 30.7459 35.7337 30.6764 35.6883C30.607 35.6429 30.5522 35.5783 30.5188 35.5023L25.5624 23.2555C25.5509 23.2289 25.5314 23.2066 25.5067 23.1914C25.4821 23.1762 25.4533 23.1689 25.4244 23.1705C25.3955 23.1722 25.3677 23.1826 25.3449 23.2005C25.3221 23.2184 25.3053 23.2428 25.2968 23.2705L21.2532 35.1932C21.2361 35.2487 21.2079 35.3001 21.1702 35.3443C21.1325 35.3884 21.0862 35.4244 21.0341 35.45C20.982 35.4756 20.9252 35.4903 20.8673 35.4932C20.8093 35.496 20.7513 35.487 20.697 35.4666L19.341 34.9581C19.2674 34.9308 19.2028 34.8835 19.1545 34.8217C19.1061 34.7598 19.0758 34.6858 19.067 34.6078C18.457 29.2937 23.7766 15.8802 23.8304 15.7454L23.8453 15.708L28.6946 16.7807L28.7046 16.7917C30.6393 18.9023 32.2296 32.2143 32.5287 34.8614C32.5399 34.957 32.5181 35.0536 32.467 35.1352C32.416 35.2168 32.3386 35.2786 32.2477 35.3103L31.0508 35.7336C31.0056 35.7496 30.9581 35.7578 30.9101 35.7578Z" fill="#2F2E41"/>
<path d="M26.732 17.2123C25.5571 17.2123 24.2473 16.978 23.8441 16.0112L23.8348 15.989L23.8473 15.9684C24.1656 15.4462 24.5862 14.5555 24.3601 14.3883C23.9148 14.059 23.6987 13.5173 23.7178 12.7782C23.7595 11.1737 24.8527 9.74922 26.4382 9.23348H26.4382C26.8808 9.09185 27.3312 8.97589 27.7871 8.88619C28.1195 8.81912 28.4626 8.82649 28.7918 8.90779C29.121 8.98908 29.4281 9.14227 29.691 9.35635C29.9573 9.57184 30.1725 9.84363 30.3212 10.1522C30.47 10.4607 30.5485 10.7984 30.5512 11.1409C30.5678 12.8556 30.3039 15.2437 28.9518 16.8832C28.8885 16.9593 28.8003 17.0106 28.7028 17.028C28.0524 17.1457 27.393 17.2073 26.732 17.2123Z" fill="#CCCCCC"/>
<path d="M26.295 17.1478C26.3589 16.9184 26.5108 16.7236 26.7176 16.6055C26.9244 16.4875 27.1694 16.4559 27.3994 16.5175C27.4464 16.5307 27.4922 16.5476 27.5363 16.5683L29.0482 15.1924L30.0996 15.9007L27.9376 17.814C27.84 17.99 27.6863 18.1283 27.501 18.2069C27.3157 18.2855 27.1094 18.2999 26.915 18.2477C26.8017 18.2167 26.6958 18.1636 26.6032 18.0914C26.5106 18.0192 26.4332 17.9293 26.3756 17.8271C26.3179 17.7248 26.2811 17.6121 26.2673 17.4955C26.2535 17.3789 26.2629 17.2607 26.295 17.1478Z" fill="#FFB8B8"/>
<path d="M28.8087 17.1652C28.7106 17.1653 28.6155 17.1314 28.5396 17.0692L27.9434 16.582C27.8937 16.5414 27.8538 16.4901 27.8268 16.4319C27.7997 16.3737 27.7862 16.3101 27.7872 16.2459C27.7882 16.1818 27.8036 16.1186 27.8325 16.0613C27.8613 16.004 27.9028 15.9539 27.9537 15.9148L30.4543 13.997C30.4839 13.9741 30.5033 13.9405 30.5084 13.9034C30.5134 13.8664 30.5036 13.8288 30.4811 13.7989L28.9377 11.7584C28.7584 11.5222 28.6684 11.2301 28.6838 10.9339C28.6991 10.6376 28.8188 10.3564 29.0216 10.1399C29.2352 9.90928 29.5277 9.76733 29.841 9.74227C30.1544 9.71721 30.4657 9.81086 30.7132 10.0046L30.723 10.0149L32.3346 12.3227C32.5089 12.4593 32.6493 12.6344 32.7447 12.8342C32.8401 13.0341 32.888 13.2533 32.8847 13.4747C32.8814 13.6962 32.827 13.9138 32.7257 14.1107C32.6243 14.3077 32.4789 14.4785 32.3006 14.6099L29.062 17.0818C28.9887 17.136 28.8999 17.1652 28.8087 17.1652Z" fill="#CCCCCC"/>
<path d="M25.5303 5.39362V4.24118L27.5877 3.34277L29.5495 4.24118V5.39362C29.5495 5.44378 29.5296 5.49189 29.4941 5.52736C29.4586 5.56283 29.4105 5.58276 29.3603 5.58276H25.7194C25.6692 5.58276 25.6211 5.56283 25.5857 5.52736C25.5502 5.49189 25.5303 5.44378 25.5303 5.39362Z" fill="#2F2E41"/>
<path d="M27.4932 2.63845C27.1907 1.6702 27.826 0.56054 28.7652 0.177281C29.7045 -0.205978 30.8281 0.0619318 31.6206 0.695133C32.4132 1.32833 32.9049 2.27675 33.1654 3.25713C33.4259 4.23751 33.4754 5.25981 33.5235 6.27308C34.6774 6.48505 35.4624 7.85374 35.0627 8.95681C34.6629 10.0599 33.1833 10.6079 32.1615 10.0313C31.1397 9.45479 30.8437 7.90498 31.5812 6.99247C31.9301 6.56069 32.1251 6.02483 32.1351 5.46976C32.1451 4.91469 31.9697 4.37214 31.6365 3.92804C31.3034 3.48394 30.8316 3.16368 30.2959 3.01798C29.7602 2.87228 29.1912 2.90947 28.679 3.12365C28.1103 3.36149 27.3967 2.74354 27.4932 2.63845Z" fill="#2F2E41"/>
<path d="M14.527 9.55914C13.1454 9.55007 11.7811 9.25126 10.5222 8.68202C10.4472 8.64862 10.3836 8.59415 10.3391 8.52524C10.2945 8.45632 10.271 8.37595 10.2714 8.29391V4.84988C10.2715 4.73705 10.3164 4.62888 10.3961 4.5491C10.4759 4.46932 10.5841 4.42444 10.6969 4.42432H18.3571C18.4699 4.42444 18.5781 4.46932 18.6578 4.5491C18.7376 4.62888 18.7825 4.73705 18.7826 4.84988V8.29391C18.783 8.37596 18.7594 8.45633 18.7149 8.52524C18.6704 8.59415 18.6068 8.64862 18.5318 8.68202C17.2729 9.25127 15.9086 9.55007 14.527 9.55914Z" fill="#6C63FF"/>
<path d="M14.526 6.76901C14.4692 6.76906 14.413 6.75775 14.3606 6.73576L8.28626 4.17296C8.20792 4.13992 8.14128 4.08417 8.09493 4.01289C8.04858 3.94162 8.02464 3.8581 8.02619 3.7731C8.02775 3.68809 8.05474 3.6055 8.10367 3.53598C8.15261 3.46645 8.22124 3.41318 8.30073 3.38302L14.3752 1.07858C14.473 1.04129 14.5812 1.04152 14.6789 1.07923L20.672 3.38367C20.751 3.41406 20.8192 3.46735 20.8678 3.53671C20.9163 3.60607 20.9431 3.68835 20.9447 3.77302C20.9463 3.85769 20.9225 3.9409 20.8765 4.012C20.8305 4.08311 20.7644 4.13888 20.6865 4.17218L14.6934 6.73493C14.6405 6.75747 14.5835 6.76906 14.526 6.76901Z" fill="#6C63FF"/>
<path d="M10.9806 8.91657C11.294 8.91657 11.548 8.66253 11.548 8.34916C11.548 8.03578 11.294 7.78174 10.9806 7.78174C10.6672 7.78174 10.4132 8.03578 10.4132 8.34916C10.4132 8.66253 10.6672 8.91657 10.9806 8.91657Z" fill="#3F3D56"/>
<path opacity="0.2" d="M20.7071 3.80863L14.714 6.37138C14.6673 6.39136 14.617 6.40172 14.5662 6.40184C14.5154 6.40197 14.465 6.39185 14.4182 6.3721L8.34385 3.80938C8.26756 3.77796 8.20392 3.72202 8.16297 3.6504C8.13619 3.69684 8.11959 3.74845 8.11428 3.8018C8.10898 3.85516 8.11508 3.90903 8.13218 3.95984C8.14929 4.01065 8.17701 4.05724 8.2135 4.09652C8.25 4.1358 8.29443 4.16686 8.34385 4.18765L14.4182 6.75038C14.465 6.77013 14.5154 6.78024 14.5662 6.78012C14.617 6.78 14.6673 6.76964 14.714 6.74966L20.7071 4.1869C20.7563 4.16593 20.8005 4.13477 20.8367 4.09547C20.873 4.05618 20.9005 4.00964 20.9174 3.95894C20.9343 3.90824 20.9403 3.85452 20.9349 3.80133C20.9296 3.74815 20.913 3.6967 20.8863 3.65039C20.8457 3.72144 20.7827 3.77707 20.7071 3.80863Z" fill="black"/>
<path d="M11.0284 8.3471C11.0535 8.3471 11.0775 8.33714 11.0953 8.3194C11.113 8.30167 11.123 8.27761 11.123 8.25253V5.0881L14.242 3.95183C14.2671 3.95221 14.2913 3.9426 14.3093 3.92513C14.3273 3.90766 14.3376 3.88375 14.338 3.85867C14.3383 3.83359 14.3287 3.80939 14.3113 3.79139C14.2938 3.77339 14.2699 3.76307 14.2448 3.7627L11.1258 4.89896C11.1007 4.89838 11.0757 4.90291 11.0524 4.91226C11.0291 4.92161 11.008 4.93559 10.9902 4.95336C10.9723 4.97091 10.9581 4.99188 10.9484 5.01502C10.9387 5.03816 10.9338 5.06301 10.9338 5.0881V8.25253C10.9338 8.27761 10.9438 8.30166 10.9615 8.3194C10.9793 8.33713 11.0033 8.3471 11.0284 8.3471Z" fill="#3F3D56"/>
</g>
<defs>
<clipPath id="clip0_1275_10538">
<rect width="70.3597" height="51" fill="white"/>
</clipPath>
</defs>
</svg>
