<svg width="68" height="46" viewBox="0 0 68 46" fill="none" xmlns="http://www.w3.org/2000/svg">
<g clip-path="url(#clip0_1275_10138)">
<path d="M57.7322 19.207C58.6591 20.1791 59.6932 20.3342 60.8345 19.6723C60.3556 18.9048 60.2416 18.0699 60.3692 17.1904H58.1458C58.2443 17.9633 58.2178 18.6829 57.7322 19.207Z" fill="#FFB8B8"/>
<path d="M61.4033 44.646L62.5926 44.0256L63.1096 37.4589V33.9946L60.3691 33.9429L61.1447 37.4072L61.4033 44.646Z" fill="#FFB8B8"/>
<path d="M57.956 44.646L56.7668 44.0256L56.2498 37.4589V33.9946L58.9901 33.9429L58.2145 37.4072L57.956 44.646Z" fill="#FFB8B8"/>
<path d="M56.1293 34.7186L59.0248 34.4601L59.4902 31.8231L60.0589 34.4084L63.213 34.2015C63.2819 32.9452 63.1069 31.6521 62.696 30.3236L55.7673 30.1685L56.1293 34.7186Z" fill="#2F2E41"/>
<path d="M53.1197 24.8152L49.6367 22.1332C49.6005 22.1053 49.5608 22.0825 49.5185 22.0653L49.0122 21.8593C48.6056 21.6939 47.8312 21.1437 48.2089 20.5771C48.5134 20.1203 49.6791 20.9386 49.8225 21.2418C49.8678 21.3372 49.9422 21.4158 50.0349 21.4664L50.7427 21.8543C50.7599 21.8637 50.7777 21.8721 50.7959 21.8795L53.4907 22.9718C53.5654 23.0021 53.6463 23.0141 53.7265 23.0068C53.8068 22.9996 53.8842 22.9733 53.9523 22.9301L54.4408 22.6203C54.5104 22.5763 54.5896 22.5498 54.6716 22.5432C54.7537 22.5366 54.8361 22.5501 54.9117 22.5826C54.9874 22.615 55.054 22.6654 55.1058 22.7294C55.1576 22.7933 55.193 22.869 55.209 22.9497L55.3705 23.7647C55.3938 23.882 55.3747 24.0038 55.3168 24.1085C55.2589 24.2131 55.1658 24.2939 55.054 24.3365L53.6092 24.8872C53.5282 24.9181 53.4407 24.9277 53.355 24.915C53.2693 24.9024 53.1883 24.8681 53.1197 24.8152Z" fill="#FFB8B8"/>
<path d="M53.7666 22.861C54.7309 22.6024 54.6297 23.9497 55.3654 24.6121L56.812 23.4701L55.9741 19.4136C55.7493 19.4778 55.5425 19.5934 55.3701 19.7513C55.1977 19.9092 55.0643 20.105 54.9806 20.3233L53.7666 22.861Z" fill="#6C63FF"/>
<path d="M55.5603 30.427H62.8509C61.671 27.2473 61.7858 23.9771 62.7905 20.6446C62.8073 20.5893 62.8044 20.5298 62.7821 20.4765C62.7598 20.4231 62.7196 20.3792 62.6684 20.3523L60.5758 19.2584C59.7544 19.7929 58.8715 19.6287 57.9388 18.8965L55.6637 19.517C56.2831 23.2366 56.3006 26.8799 55.5603 30.427Z" fill="#6C63FF"/>
<path d="M57.3835 45.8607L54.3452 45.9895C54.2129 45.9951 54.0832 45.9515 53.9811 45.8673C53.879 45.783 53.8116 45.6639 53.792 45.5329C53.7723 45.4007 53.8026 45.2658 53.8771 45.1547C53.9516 45.0437 54.0649 44.9645 54.1948 44.9326L54.7101 44.8063L56.7356 43.6323C57.0357 43.9431 57.4489 44.2058 57.954 44.4295L57.9599 45.255C57.961 45.4109 57.9016 45.5613 57.794 45.6742C57.6865 45.7872 57.5393 45.8541 57.3835 45.8607Z" fill="#2F2E41"/>
<path d="M67.2169 46H0.0244141V45.834H67.2469L67.2169 46Z" fill="#3F3D56"/>
<path d="M61.9506 45.8143L64.9889 45.9431C65.1212 45.9487 65.2509 45.9052 65.353 45.8209C65.4551 45.7366 65.5225 45.6175 65.542 45.4865C65.5618 45.3543 65.5315 45.2194 65.457 45.1084C65.3825 44.9973 65.2692 44.9181 65.1393 44.8863L64.6239 44.7599L62.5985 43.5859C62.2984 43.8967 61.8852 44.1594 61.3801 44.3832L61.3742 45.2086C61.373 45.3645 61.4325 45.5149 61.54 45.6278C61.6476 45.7408 61.7948 45.8077 61.9506 45.8143Z" fill="#2F2E41"/>
<path d="M59.0247 18.1207C59.9385 18.1207 60.6793 17.3799 60.6793 16.4661C60.6793 15.5523 59.9385 14.8115 59.0247 14.8115C58.1109 14.8115 57.3701 15.5523 57.3701 16.4661C57.3701 17.3799 58.1109 18.1207 59.0247 18.1207Z" fill="#FFB8B8"/>
<path d="M61.61 29.9101L61.0633 30.973C61.0151 31.0668 60.9873 31.1697 60.9817 31.275C60.976 31.3803 60.9928 31.4857 61.0308 31.5841C61.0688 31.6824 61.1271 31.7717 61.2021 31.8459C61.277 31.9201 61.3668 31.9776 61.4656 32.0147C61.5701 32.0539 61.6821 32.0691 61.7933 32.0594C61.9045 32.0497 62.0121 32.0151 62.1082 31.9583C62.2043 31.9016 62.2865 31.824 62.3487 31.7313C62.4109 31.6386 62.4516 31.5331 62.4677 31.4227L62.6958 29.8584L63.5231 25.9287L63.4714 23.9639H61.8168C62.3812 25.4253 62.1012 27.5808 61.61 29.9101Z" fill="#FFB8B8"/>
<path d="M61.5583 24.1703H63.7817L63.459 21.732C63.4152 21.4013 63.2893 21.0868 63.0928 20.8173C62.8963 20.5478 62.6354 20.3318 62.3339 20.189L61.5583 24.1703Z" fill="#6C63FF"/>
<path d="M60.7839 15.5551C60.8169 15.3341 60.803 15.1085 60.7431 14.8932C60.6832 14.6779 60.5786 14.4777 60.4361 14.3055C60.1538 13.9715 59.6806 13.698 58.8956 13.827C57.1828 14.1084 56.6889 15.5343 56.8567 15.8929C57.0245 16.2515 57.5388 17.0828 57.5388 17.0828C57.5388 17.0828 57.1613 16.2599 57.571 16.0924C57.9807 15.9249 59.5663 15.2651 60.1197 15.5624C60.2764 15.641 60.4094 15.7598 60.5052 15.9066C60.601 16.0533 60.6562 16.2229 60.6652 16.398L60.7839 15.5551Z" fill="#2F2E41"/>
<path d="M32.4642 8.66873L31.799 9.00628C31.0327 7.49749 30.0176 6.12867 28.7962 4.95738C22.7983 -0.808847 13.2274 -0.620326 7.4612 5.37762C1.69498 11.3756 1.8835 20.9464 7.88145 26.7126C9.02302 27.8123 10.3308 28.7251 11.7567 29.4174L11.4313 30.0886C9.1712 28.9912 7.20465 27.3718 5.69416 25.3641C4.18366 23.3564 3.17257 21.0181 2.74443 18.5424C2.31629 16.0667 2.48338 13.5246 3.23191 11.1262C3.98044 8.72787 5.28891 6.54204 7.04921 4.74934C8.80952 2.95664 10.9711 1.60854 13.3555 0.816407C15.7398 0.0242777 18.2784 -0.189136 20.7615 0.193797C23.2446 0.57673 25.6009 1.54502 27.6358 3.01866C29.6707 4.4923 31.3258 6.429 32.4642 8.66873Z" fill="#E6E6E6"/>
<path d="M9.95764 22.5471C8.97913 23.5649 8.44503 24.9297 8.47284 26.3414C8.50064 27.753 9.08807 29.0957 10.1059 30.0743C11.1237 31.0528 12.4886 31.5869 13.9002 31.5591C15.3118 31.5312 16.6546 30.9438 17.6331 29.926L18.5496 28.9727L10.8741 21.5938L9.95764 22.5471Z" fill="#E6E6E6"/>
<path d="M10.36 21.0522C10.1422 21.2793 10.0233 21.5835 10.0295 21.8981C10.0357 22.2126 10.1665 22.5119 10.393 22.7302L17.4329 29.4982C17.6598 29.7163 17.9641 29.8354 18.2788 29.8292C18.5935 29.823 18.8928 29.692 19.111 29.4651C19.3291 29.2382 19.4482 28.9339 19.442 28.6193C19.4358 28.3046 19.3048 28.0052 19.0779 27.7871L12.038 21.0192C11.8109 20.8014 11.5067 20.6825 11.1922 20.6887C10.8776 20.6949 10.5783 20.8256 10.36 21.0522Z" fill="#535461"/>
<path d="M31.4744 15.5283L32.3909 14.575C33.3694 13.5572 33.9035 12.1923 33.8757 10.7807C33.8479 9.36911 33.2605 8.02635 32.2426 7.04784C31.7386 6.56333 31.1442 6.18284 30.4931 5.92808C29.8421 5.67332 29.1473 5.54928 28.4483 5.56304C27.0367 5.59085 25.6939 6.17828 24.7154 7.19611L23.799 8.14943L31.4744 15.5283Z" fill="#E6E6E6"/>
<path d="M23.2377 7.65719C23.0199 7.88426 22.901 8.18846 22.9072 8.50304C22.9134 8.81762 23.0441 9.1169 23.2707 9.33522L30.3106 16.1031C30.5376 16.321 30.8417 16.4399 31.1563 16.4336C31.4708 16.4273 31.77 16.2963 31.988 16.0695C32.2061 15.8427 32.3251 15.5386 32.3191 15.2241C32.313 14.9095 32.1822 14.6103 31.9556 14.3921L24.9157 7.62413C24.6886 7.40633 24.3844 7.28749 24.0698 7.29369C23.7553 7.29988 23.456 7.43061 23.2377 7.65719Z" fill="#535461"/>
<path d="M26.2075 23.2977V22.7478C26.2075 22.7478 28.607 21.3981 30.5566 22.7478V23.2477L26.2075 23.2977Z" fill="#535461"/>
<path d="M48.053 23.2977V22.7478C48.053 22.7478 50.4525 21.3981 52.4021 22.7478V23.2477L48.053 23.2977Z" fill="#535461"/>
<path d="M33.4061 23.2476H31.0565C31.0565 23.2476 30.4567 22.5478 28.4571 22.5978C26.4575 22.6478 26.0575 23.2476 26.0575 23.2476C26.0575 23.2476 24.083 24.5724 23.633 26.222C23.633 26.222 21.2085 33.4955 21.1586 39.1944C21.1086 44.8932 23.3081 45.693 24.4579 45.843C25.6076 45.993 27.6572 45.793 29.6568 40.7441L30.5066 37.7947C30.5066 37.7947 30.6566 36.045 32.4562 37.1448C34.2559 38.2446 35.8555 36.5449 35.8555 36.5449H42.6042C42.6042 36.5449 44.8537 37.9446 46.9033 36.8449C46.9033 36.8449 47.7031 35.7951 48.453 39.3443C48.453 39.3443 50.7525 46.6429 54.3018 45.893C57.8511 45.1432 57.4511 39.0444 57.4511 39.0444C57.4511 39.0444 56.9762 29.7213 55.0266 26.422C55.0266 26.422 53.152 22.9977 51.9023 22.8477C51.9023 22.8477 49.2028 22.3478 48.153 22.7977L47.5532 23.2976L33.4061 23.2476Z" fill="#E6E6E6"/>
<path d="M27.9571 32.4956C30.3591 32.4956 32.3063 30.5484 32.3063 28.1465C32.3063 25.7445 30.3591 23.7974 27.9571 23.7974C25.5552 23.7974 23.608 25.7445 23.608 28.1465C23.608 30.5484 25.5552 32.4956 27.9571 32.4956Z" fill="#535461"/>
<path d="M50.6525 32.4956C53.0544 32.4956 55.0016 30.5484 55.0016 28.1465C55.0016 25.7445 53.0544 23.7974 50.6525 23.7974C48.2505 23.7974 46.3033 25.7445 46.3033 28.1465C46.3033 30.5484 48.2505 32.4956 50.6525 32.4956Z" fill="#535461"/>
<path d="M28.7148 27.1765L28.135 27.6894C28.0858 27.7326 28.0227 27.7565 27.9572 27.7565C27.8918 27.7565 27.8286 27.7326 27.7795 27.6894L27.1986 27.1765C27.1702 27.1515 27.1474 27.1207 27.1318 27.0862C27.1161 27.0518 27.1079 27.0144 27.1077 26.9765V25.5653C27.1078 25.4941 27.1362 25.4258 27.1866 25.3755C27.237 25.3251 27.3054 25.2969 27.3766 25.2969H28.5389C28.6101 25.2967 28.6784 25.3249 28.7288 25.3751C28.7793 25.4254 28.8077 25.4936 28.8078 25.5648V26.9755C28.8075 27.0137 28.799 27.0514 28.783 27.086C28.767 27.1207 28.7437 27.1515 28.7148 27.1765Z" fill="#E6E6E6"/>
<path d="M28.7148 29.1156L28.135 28.6032C28.0858 28.56 28.0227 28.5361 27.9572 28.5361C27.8918 28.5361 27.8286 28.56 27.7795 28.6032L27.1986 29.1161C27.1702 29.1411 27.1474 29.1719 27.1318 29.2064C27.1161 29.2408 27.1079 29.2782 27.1077 29.3161V30.7258C27.1075 30.797 27.1357 30.8653 27.1859 30.9157C27.2362 30.9662 27.3044 30.9946 27.3756 30.9947H28.5389C28.6101 30.9949 28.6784 30.9667 28.7288 30.9165C28.7793 30.8662 28.8077 30.798 28.8078 30.7268V29.3166C28.8075 29.2784 28.799 29.2407 28.783 29.2061C28.767 29.1714 28.7437 29.1406 28.7148 29.1156Z" fill="#E6E6E6"/>
<path d="M26.9877 28.905L27.5006 28.3242C27.5439 28.2751 27.5677 28.2119 27.5677 28.1464C27.5677 28.081 27.5439 28.0178 27.5006 27.9687L26.9877 27.3879C26.9627 27.3595 26.9319 27.3367 26.8975 27.321C26.863 27.3053 26.8256 27.2971 26.7878 27.2969H25.3781C25.3068 27.297 25.2385 27.3254 25.1882 27.3758C25.1379 27.4262 25.1096 27.4946 25.1096 27.5658V28.7281C25.1095 28.7993 25.1376 28.8676 25.1879 28.918C25.2381 28.9685 25.3064 28.9969 25.3776 28.997H26.7883C26.8261 28.9966 26.8635 28.9882 26.8978 28.9724C26.9322 28.9565 26.9629 28.9336 26.9877 28.905Z" fill="#E6E6E6"/>
<path d="M28.9269 28.9051L28.415 28.3237C28.3717 28.2746 28.3478 28.2114 28.3478 28.146C28.3478 28.0805 28.3717 28.0173 28.415 27.9682L28.9279 27.3874C28.9529 27.359 28.9837 27.3362 29.0182 27.3205C29.0526 27.3048 29.09 27.2966 29.1279 27.2964H30.5376C30.6088 27.2963 30.6771 27.3244 30.7276 27.3747C30.778 27.4249 30.8064 27.4931 30.8065 27.5643V28.7276C30.8067 28.7988 30.7785 28.8671 30.7283 28.9176C30.678 28.968 30.6098 28.9964 30.5386 28.9965H29.1284C29.0902 28.9965 29.0525 28.9883 29.0178 28.9725C28.983 28.9567 28.9521 28.9337 28.9269 28.9051Z" fill="#E6E6E6"/>
<path d="M33.8559 36.0448C35.5952 36.0448 37.0053 34.6348 37.0053 32.8954C37.0053 31.1561 35.5952 29.7461 33.8559 29.7461C32.1166 29.7461 30.7065 31.1561 30.7065 32.8954C30.7065 34.6348 32.1166 36.0448 33.8559 36.0448Z" fill="#535461"/>
<path d="M44.7536 36.0448C46.4929 36.0448 47.903 34.6348 47.903 32.8954C47.903 31.1561 46.4929 29.7461 44.7536 29.7461C43.0143 29.7461 41.6042 31.1561 41.6042 32.8954C41.6042 34.6348 43.0143 36.0448 44.7536 36.0448Z" fill="#535461"/>
<path d="M33.8559 34.995C35.0155 34.995 35.9555 34.055 35.9555 32.8955C35.9555 31.7359 35.0155 30.7959 33.8559 30.7959C32.6964 30.7959 31.7563 31.7359 31.7563 32.8955C31.7563 34.055 32.6964 34.995 33.8559 34.995Z" fill="#E6E6E6"/>
<path d="M33.856 34.3452C33.5692 34.3452 33.2889 34.2602 33.0505 34.1009C32.8121 33.9416 32.6263 33.7152 32.5166 33.4503C32.4069 33.1854 32.3782 32.8939 32.4341 32.6127C32.49 32.3315 32.6281 32.0732 32.8309 31.8704C33.0336 31.6677 33.2919 31.5296 33.5731 31.4737C33.8543 31.4177 34.1458 31.4464 34.4107 31.5562C34.6756 31.6659 34.902 31.8517 35.0613 32.0901C35.2206 32.3285 35.3057 32.6088 35.3057 32.8955C35.3052 33.2799 35.1523 33.6483 34.8806 33.9201C34.6088 34.1919 34.2403 34.3448 33.856 34.3452ZM33.856 31.5458C33.589 31.5458 33.3281 31.6249 33.1061 31.7733C32.8841 31.9216 32.7111 32.1324 32.609 32.379C32.5068 32.6256 32.4801 32.897 32.5322 33.1588C32.5842 33.4206 32.7128 33.6611 32.9016 33.8499C33.0903 34.0387 33.3308 34.1672 33.5926 34.2193C33.8545 34.2714 34.1258 34.2446 34.3725 34.1425C34.6191 34.0403 34.8299 33.8673 34.9782 33.6454C35.1265 33.4234 35.2057 33.1625 35.2057 32.8955C35.2053 32.5377 35.0629 32.1946 34.8099 31.9416C34.5569 31.6885 34.2138 31.5462 33.856 31.5458Z" fill="#535461"/>
<path d="M44.7536 34.995C45.9132 34.995 46.8532 34.055 46.8532 32.8955C46.8532 31.7359 45.9132 30.7959 44.7536 30.7959C43.5941 30.7959 42.6541 31.7359 42.6541 32.8955C42.6541 34.055 43.5941 34.995 44.7536 34.995Z" fill="#E6E6E6"/>
<path d="M44.7537 34.3452C44.4669 34.3452 44.1867 34.2602 43.9482 34.1009C43.7098 33.9416 43.524 33.7152 43.4143 33.4503C43.3046 33.1854 43.2759 32.8939 43.3318 32.6127C43.3877 32.3315 43.5258 32.0732 43.7286 31.8704C43.9313 31.6677 44.1896 31.5296 44.4708 31.4737C44.7521 31.4177 45.0435 31.4464 45.3084 31.5562C45.5733 31.6659 45.7997 31.8517 45.959 32.0901C46.1183 32.3285 46.2034 32.6088 46.2034 32.8955C46.2029 33.2799 46.05 33.6483 45.7783 33.9201C45.5065 34.1919 45.138 34.3448 44.7537 34.3452ZM44.7537 31.5458C44.4867 31.5458 44.2258 31.6249 44.0038 31.7733C43.7818 31.9216 43.6088 32.1324 43.5067 32.379C43.4045 32.6256 43.3778 32.897 43.4299 33.1588C43.4819 33.4206 43.6105 33.6611 43.7993 33.8499C43.988 34.0387 44.2285 34.1672 44.4903 34.2193C44.7522 34.2714 45.0235 34.2446 45.2702 34.1425C45.5168 34.0403 45.7276 33.8673 45.8759 33.6454C46.0242 33.4234 46.1034 33.1625 46.1034 32.8955C46.103 32.5377 45.9606 32.1946 45.7076 31.9416C45.4546 31.6885 45.1115 31.5462 44.7537 31.5458Z" fill="#535461"/>
<path d="M39.4047 34.1453C39.9017 34.1453 40.3045 33.7425 40.3045 33.2455C40.3045 32.7486 39.9017 32.3457 39.4047 32.3457C38.9077 32.3457 38.5049 32.7486 38.5049 33.2455C38.5049 33.7425 38.9077 34.1453 39.4047 34.1453Z" fill="#535461"/>
<path d="M38.0296 30.4383C38.1381 30.4383 38.2261 30.3504 38.2261 30.2419C38.2261 30.1334 38.1381 30.0454 38.0296 30.0454C37.9211 30.0454 37.8331 30.1334 37.8331 30.2419C37.8331 30.3504 37.9211 30.4383 38.0296 30.4383Z" fill="#535461"/>
<path d="M38.7654 30.4383C38.8739 30.4383 38.9619 30.3504 38.9619 30.2419C38.9619 30.1334 38.8739 30.0454 38.7654 30.0454C38.6569 30.0454 38.569 30.1334 38.569 30.2419C38.569 30.3504 38.6569 30.4383 38.7654 30.4383Z" fill="#535461"/>
<path d="M38.6674 31.3709C38.7759 31.3709 38.8639 31.283 38.8639 31.1745C38.8639 31.066 38.7759 30.978 38.6674 30.978C38.5589 30.978 38.4709 31.066 38.4709 31.1745C38.4709 31.283 38.5589 31.3709 38.6674 31.3709Z" fill="#535461"/>
<path d="M39.3547 31.396C39.4652 31.396 39.5547 31.3065 39.5547 31.1961C39.5547 31.0856 39.4652 30.9961 39.3547 30.9961C39.2443 30.9961 39.1548 31.0856 39.1548 31.1961C39.1548 31.3065 39.2443 31.396 39.3547 31.396Z" fill="#535461"/>
<path d="M40.0412 31.3709C40.1497 31.3709 40.2376 31.283 40.2376 31.1745C40.2376 31.066 40.1497 30.978 40.0412 30.978C39.9327 30.978 39.8447 31.066 39.8447 31.1745C39.8447 31.283 39.9327 31.3709 40.0412 31.3709Z" fill="#535461"/>
<path d="M38.373 30.9295C38.4815 30.9295 38.5694 30.8416 38.5694 30.7331C38.5694 30.6246 38.4815 30.5366 38.373 30.5366C38.2645 30.5366 38.1765 30.6246 38.1765 30.7331C38.1765 30.8416 38.2645 30.9295 38.373 30.9295Z" fill="#535461"/>
<path d="M39.0048 30.9458C39.1152 30.9458 39.2047 30.8563 39.2047 30.7459C39.2047 30.6354 39.1152 30.5459 39.0048 30.5459C38.8943 30.5459 38.8048 30.6354 38.8048 30.7459C38.8048 30.8563 38.8943 30.9458 39.0048 30.9458Z" fill="#535461"/>
<path d="M39.6547 30.9458C39.7651 30.9458 39.8546 30.8563 39.8546 30.7459C39.8546 30.6354 39.7651 30.5459 39.6547 30.5459C39.5442 30.5459 39.4547 30.6354 39.4547 30.7459C39.4547 30.8563 39.5442 30.9458 39.6547 30.9458Z" fill="#535461"/>
<path d="M40.3356 30.9295C40.4441 30.9295 40.5321 30.8416 40.5321 30.7331C40.5321 30.6246 40.4441 30.5366 40.3356 30.5366C40.2271 30.5366 40.1392 30.6246 40.1392 30.7331C40.1392 30.8416 40.2271 30.9295 40.3356 30.9295Z" fill="#535461"/>
<path d="M39.3547 30.4458C39.4652 30.4458 39.5547 30.3563 39.5547 30.2459C39.5547 30.1354 39.4652 30.0459 39.3547 30.0459C39.2443 30.0459 39.1548 30.1354 39.1548 30.2459C39.1548 30.3563 39.2443 30.4458 39.3547 30.4458Z" fill="#535461"/>
<path d="M40.0546 30.4458C40.165 30.4458 40.2545 30.3563 40.2545 30.2459C40.2545 30.1354 40.165 30.0459 40.0546 30.0459C39.9441 30.0459 39.8546 30.1354 39.8546 30.2459C39.8546 30.3563 39.9441 30.4458 40.0546 30.4458Z" fill="#535461"/>
<path d="M40.6301 30.4383C40.7386 30.4383 40.8265 30.3504 40.8265 30.2419C40.8265 30.1334 40.7386 30.0454 40.6301 30.0454C40.5216 30.0454 40.4336 30.1334 40.4336 30.2419C40.4336 30.3504 40.5216 30.4383 40.6301 30.4383Z" fill="#535461"/>
<path d="M31.9313 23.6733C31.8388 23.6734 31.7502 23.7102 31.6848 23.7756C31.6194 23.841 31.5826 23.9296 31.5825 24.0221V25.0719C31.5826 25.1644 31.6194 25.2531 31.6848 25.3184C31.7502 25.3838 31.8388 25.4206 31.9313 25.4207H32.1813C32.2737 25.4206 32.3624 25.3838 32.4278 25.3184C32.4931 25.2531 32.5299 25.1644 32.53 25.0719V24.0221C32.5299 23.9296 32.4931 23.841 32.4278 23.7756C32.3624 23.7102 32.2737 23.6734 32.1813 23.6733H31.9313Z" fill="#535461"/>
<path d="M46.5282 23.6733C46.4357 23.6734 46.3471 23.7102 46.2817 23.7756C46.2163 23.841 46.1795 23.9296 46.1794 24.0221V25.0719C46.1795 25.1644 46.2163 25.2531 46.2817 25.3184C46.3471 25.3838 46.4357 25.4206 46.5282 25.4207H46.7782C46.8707 25.4206 46.9593 25.3838 47.0247 25.3184C47.0901 25.2531 47.1269 25.1644 47.127 25.0719V24.0221C47.1269 23.9296 47.0901 23.841 47.0247 23.7756C46.9593 23.7102 46.8707 23.6734 46.7782 23.6733H46.5282Z" fill="#535461"/>
<path d="M50.7024 26.6969C51.365 26.6969 51.9022 26.1597 51.9022 25.4971C51.9022 24.8345 51.365 24.2974 50.7024 24.2974C50.0398 24.2974 49.5027 24.8345 49.5027 25.4971C49.5027 26.1597 50.0398 26.6969 50.7024 26.6969Z" fill="#E6E6E6"/>
<path d="M48.153 29.2462C48.8156 29.2462 49.3528 28.709 49.3528 28.0464C49.3528 27.3838 48.8156 26.8467 48.153 26.8467C47.4904 26.8467 46.9532 27.3838 46.9532 28.0464C46.9532 28.709 47.4904 29.2462 48.153 29.2462Z" fill="#E6E6E6"/>
<path d="M53.3519 29.0963C54.0145 29.0963 54.5516 28.5591 54.5516 27.8965C54.5516 27.2339 54.0145 26.6968 53.3519 26.6968C52.6892 26.6968 52.1521 27.2339 52.1521 27.8965C52.1521 28.5591 52.6892 29.0963 53.3519 29.0963Z" fill="#E6E6E6"/>
<path d="M50.9024 31.7457C51.565 31.7457 52.1021 31.2086 52.1021 30.5459C52.1021 29.8833 51.565 29.3462 50.9024 29.3462C50.2398 29.3462 49.7026 29.8833 49.7026 30.5459C49.7026 31.2086 50.2398 31.7457 50.9024 31.7457Z" fill="#E6E6E6"/>
<path d="M34.1933 22.9736C33.9252 22.9739 33.6682 23.0806 33.4786 23.2701C33.2891 23.4597 33.1824 23.7167 33.1821 23.9848V28.4588C33.1824 28.7269 33.2891 28.9839 33.4786 29.1735C33.6682 29.3631 33.9252 29.4697 34.1933 29.47H44.4662C44.7342 29.4697 44.9913 29.3631 45.1808 29.1735C45.3704 28.9839 45.477 28.7269 45.4773 28.4588V23.9848C45.477 23.7167 45.3704 23.4597 45.1808 23.2701C44.9913 23.0806 44.7342 22.9739 44.4662 22.9736H34.1933Z" fill="#535461"/>
<path d="M51.5176 26.0471H49.8906L50.6761 24.7007L51.5176 26.0471ZM50.0647 25.9471H51.3372L50.679 24.894L50.0647 25.9471Z" fill="#535461"/>
<path d="M48.8279 28.6465H47.4781V27.4468H48.8279V28.6465ZM47.5781 28.5466H48.7279V27.5468H47.5781V28.5466Z" fill="#535461"/>
<path d="M53.3519 28.6462C53.2036 28.6462 53.0586 28.6022 52.9353 28.5198C52.812 28.4374 52.7159 28.3203 52.6591 28.1833C52.6024 28.0463 52.5875 27.8955 52.6165 27.75C52.6454 27.6046 52.7168 27.471 52.8217 27.3661C52.9265 27.2612 53.0601 27.1898 53.2056 27.1609C53.3511 27.132 53.5018 27.1468 53.6388 27.2036C53.7759 27.2603 53.893 27.3564 53.9754 27.4797C54.0578 27.603 54.1017 27.748 54.1017 27.8963C54.1015 28.0951 54.0224 28.2857 53.8819 28.4263C53.7413 28.5669 53.5507 28.646 53.3519 28.6462ZM53.3519 27.2465C53.2234 27.2465 53.0977 27.2846 52.9909 27.356C52.884 27.4274 52.8007 27.5289 52.7515 27.6476C52.7023 27.7664 52.6894 27.897 52.7145 28.0231C52.7396 28.1492 52.8015 28.265 52.8924 28.3559C52.9833 28.4467 53.099 28.5086 53.2251 28.5337C53.3512 28.5588 53.4818 28.5459 53.6006 28.4967C53.7193 28.4475 53.8208 28.3642 53.8922 28.2574C53.9636 28.1505 54.0018 28.0249 54.0018 27.8963C54.0016 27.724 53.933 27.5588 53.8112 27.437C53.6894 27.3152 53.5242 27.2467 53.3519 27.2465Z" fill="#535461"/>
<path d="M50.3628 29.9484L50.2921 30.019L51.4169 31.1438L51.4876 31.0731L50.3628 29.9484Z" fill="#535461"/>
<path d="M51.4427 29.9474L50.2931 31.0474L50.3622 31.1196L51.5118 30.0197L51.4427 29.9474Z" fill="#535461"/>
<path d="M10.6262 11.5506C7.89672 12.3031 4.90787 12.8696 3.83691 11.9908C4.42327 11.0146 4.76147 10.0525 4.79016 9.10784C4.79662 8.67562 4.97168 8.26302 5.27801 7.95802C5.48081 7.7621 5.72559 7.61498 5.99377 7.52784C6.26194 7.4407 6.54645 7.41582 6.82568 7.45511L7.53404 7.55451C7.55788 7.55786 7.5816 7.56165 7.6052 7.5659C7.9452 7.63032 8.25649 7.79959 8.49538 8.04995C8.73426 8.30032 8.88875 8.61921 8.93714 8.96185C9.08638 9.98619 9.58824 10.873 10.6262 11.5506Z" fill="#2F2E41"/>
<path d="M13.2589 21.2687L14.32 21.4875C14.401 21.5042 14.4773 21.5387 14.5433 21.5886C14.6094 21.6385 14.6635 21.7025 14.7017 21.7758C14.7399 21.8492 14.7613 21.9302 14.7644 22.0129C14.7674 22.0956 14.752 22.1779 14.7192 22.2539C14.6876 22.3274 14.6405 22.3931 14.5811 22.4468C14.5218 22.5004 14.4517 22.5406 14.3754 22.5647C14.2992 22.5888 14.2186 22.5962 14.1392 22.5865C14.0599 22.5767 13.9835 22.5499 13.9154 22.508L12.2923 21.5097L9.5354 15.0288L10.9633 14.6157L13.2589 21.2687Z" fill="#A0616A"/>
<path d="M5.69993 29.7728L4.89649 30.0065L4.28833 28.7505L4.90677 28.4282L5.69993 29.7728Z" fill="#A0616A"/>
<path d="M5.29169 35.1543L4.30591 34.8933L4.46023 33.1997L5.30859 33.2519L5.29169 35.1543Z" fill="#A0616A"/>
<path d="M5.39454 28.5988L4.35046 29.286L0.334819 24.7438C0.247716 24.6452 0.183394 24.5287 0.146431 24.4025C0.109468 24.2763 0.100773 24.1435 0.120961 24.0136C0.141149 23.8836 0.189726 23.7597 0.263237 23.6507C0.336747 23.5416 0.433385 23.4501 0.546274 23.3827L5.54877 20.3936L6.31496 22.5946L3.71015 25.039L5.39454 28.5988Z" fill="#2F2E41"/>
<path d="M6.27381 30.9765C6.27119 30.9799 6.26857 30.9833 6.26594 30.9867C6.19921 31.3774 6.08201 31.7337 5.82029 31.9918C5.74269 32.1668 5.60336 32.307 5.4289 32.3858C5.25444 32.4646 5.05707 32.4764 4.87447 32.4189C4.70227 32.3647 4.55426 32.2523 4.45575 32.101C4.35724 31.9497 4.31435 31.7689 4.33442 31.5895L4.52952 29.8456C4.99752 29.7381 5.35446 29.4719 5.53513 28.9541L5.98997 29.2639C6.12457 29.3549 6.23923 29.4723 6.32695 29.609C6.41466 29.7457 6.4736 29.8989 6.50016 30.0591C6.52672 30.2194 6.52035 30.3834 6.48143 30.5411C6.44252 30.6988 6.37187 30.847 6.27381 30.9765Z" fill="#2F2E41"/>
<path d="M6.76887 11.1774C7.65639 11.1774 8.37587 10.4579 8.37587 9.57038C8.37587 8.68286 7.65639 7.96338 6.76887 7.96338C5.88134 7.96338 5.16187 8.68286 5.16187 9.57038C5.16187 10.4579 5.88134 11.1774 6.76887 11.1774Z" fill="#A0616A"/>
<path d="M8.16042 12.1389L5.627 14.2371L5.42969 13.3734L5.87188 12.6993C5.9946 12.038 5.91537 11.3087 5.7045 10.5352L7.35738 10.5367C7.42874 11.1618 7.67211 11.7071 8.16042 12.1389Z" fill="#A0616A"/>
<path d="M8.8738 17.643L5.45366 18.6848L5.18758 17.4684C4.54663 16.6078 4.26801 15.8223 4.68733 15.1814L4.47632 14.2167C5.08164 13.7401 5.55765 13.2525 5.81903 12.7466L7.92332 11.9243L9.47025 12.0195L9.92706 13.5503L8.8738 17.643Z" fill="#6C63FF"/>
<path d="M11.3036 14.7871C10.5745 14.7794 9.86105 14.998 9.26147 15.4128L9.47026 12.0195C9.68218 12.0478 9.88309 12.1308 10.0532 12.2603C10.2233 12.3898 10.3568 12.5614 10.4405 12.7581L11.3036 14.7871Z" fill="#6C63FF"/>
<path d="M5.38388 33.6574L4.29834 33.3902L4.45812 24.1664L5.9158 22.5701L5.5895 20.5464L5.37836 18.2794L8.93899 17.3965C10.1425 19.5817 10.8699 21.5686 9.80809 22.8096L5.38388 33.6574Z" fill="#2F2E41"/>
<path d="M5.13454 36.7716C5.12967 36.7735 5.1248 36.7754 5.11991 36.7773C4.8047 37.1433 4.45838 37.4418 4.02295 37.5467C3.83195 37.6806 3.59831 37.7396 3.36663 37.7122C3.13495 37.6848 2.92148 37.5731 2.76696 37.3983C2.62123 37.2334 2.5373 37.0231 2.52952 36.8032C2.52175 36.5834 2.5906 36.3676 2.72432 36.1929L4.02396 34.4947C4.58023 34.6765 5.12017 34.6229 5.63423 34.1958L5.91444 34.8051C5.99782 34.9847 6.04375 35.1793 6.04941 35.3772C6.05507 35.5751 6.02035 35.7721 5.94737 35.9561C5.87439 36.1401 5.76467 36.3073 5.62492 36.4475C5.48517 36.5878 5.31832 36.698 5.13454 36.7716Z" fill="#2F2E41"/>
<path d="M1.16912 22.3784L0.216301 23.1942C0.137232 23.2619 0.0765333 23.3484 0.0398319 23.4458C0.00313051 23.5432 -0.00838623 23.6483 0.00634908 23.7514C0.0210844 23.8544 0.0615951 23.9521 0.124126 24.0353C0.186656 24.1185 0.269183 24.1846 0.364056 24.2274C0.506879 24.2919 0.668851 24.2997 0.817228 24.2493C0.965606 24.1989 1.08932 24.0941 1.16336 23.956L1.85239 22.6709L5.01223 16.9045L3.82381 16.6812L1.16912 22.3784Z" fill="#A0616A"/>
<path d="M5.20251 17.066C4.58533 16.8797 4.00721 16.77 3.55884 16.9148C3.65283 15.7518 3.84653 14.7128 4.47623 14.2163L5.37138 14.3215L5.20251 17.066Z" fill="#6C63FF"/>
<path d="M8.56281 9.19774L5.12573 8.98626L5.16803 8.29885C6.36783 7.48984 7.51352 7.56033 8.6051 8.51033L8.56281 9.19774Z" fill="#2F2E41"/>
</g>
<defs>
<clipPath id="clip0_1275_10138">
<rect width="67.247" height="46" fill="white"/>
</clipPath>
</defs>
</svg>
