<svg width="67" height="54" viewBox="0 0 67 54" fill="none" xmlns="http://www.w3.org/2000/svg">
<g clip-path="url(#clip0_1629_207)">
<path d="M59.2538 50.0132L58.1424 50.9929L59.0257 49.5738C58.3298 48.3655 57.1916 47.3213 57.1916 47.3213C57.1916 47.3213 54.8303 49.4873 54.8303 51.19C54.8303 52.8926 55.8875 53.4871 57.1916 53.4871C58.4957 53.4871 59.5529 52.8926 59.5529 51.19C59.5382 50.7823 59.4364 50.3818 59.2538 50.0132Z" fill="#F0F0F0"/>
<path d="M57.8567 51.0456V51.1295C57.8515 52.1051 57.6797 52.8662 57.3425 53.4022C57.3377 53.4101 57.3325 53.4176 57.3277 53.4254L57.29 53.4034L57.254 53.3818C57.628 52.8031 57.7604 51.985 57.7652 51.1341C57.7656 51.1067 57.766 51.0788 57.7656 51.051C57.7643 50.6908 57.7413 50.3264 57.7044 49.9724C57.7018 49.945 57.6988 49.9172 57.6957 49.8893C57.6445 49.4223 57.5708 48.9761 57.4952 48.5885C57.49 48.5611 57.4844 48.5336 57.4788 48.5066C57.3481 47.851 57.2149 47.3761 57.1845 47.271C57.1811 47.2581 57.1789 47.2511 57.1785 47.2494L57.2197 47.2382L57.2201 47.2378L57.2618 47.2266C57.2622 47.2282 57.2696 47.2519 57.2817 47.2959C57.3282 47.4605 57.4488 47.9071 57.5673 48.4963C57.5725 48.5228 57.5781 48.5503 57.5833 48.5777C57.6449 48.8922 57.7053 49.2437 57.753 49.6126C57.7652 49.7053 57.776 49.7967 57.7855 49.8869C57.789 49.9147 57.7921 49.9425 57.7947 49.9699C57.8346 50.3526 57.8553 50.7112 57.8567 51.0456Z" fill="white"/>
<path d="M57.5675 48.4965C57.5384 48.5003 57.5089 48.504 57.479 48.5069C57.3976 48.5149 57.316 48.519 57.2342 48.519C56.8858 48.5194 56.5418 48.445 56.2275 48.3013C56.2092 48.3233 56.191 48.3453 56.1724 48.3677C56.503 48.5223 56.8662 48.6024 57.2342 48.6021C57.3215 48.602 57.4087 48.5976 57.4954 48.5888C57.525 48.5859 57.5545 48.5821 57.5835 48.578C57.8235 48.545 58.0569 48.4774 58.2757 48.3773C58.257 48.3544 58.2388 48.332 58.221 48.31C58.0139 48.4026 57.7937 48.4655 57.5675 48.4965Z" fill="white"/>
<path d="M57.7855 49.8868C57.7556 49.8885 57.7257 49.8893 57.6957 49.8893C57.6866 49.8897 57.6771 49.8897 57.6679 49.8897C57.2905 49.8897 56.9186 49.8023 56.584 49.635C56.2494 49.4677 55.9621 49.2253 55.7465 48.9287C55.7291 48.9532 55.7117 48.9777 55.6948 49.0027C55.9196 49.3028 56.2158 49.5474 56.5589 49.7161C56.902 49.8848 57.2822 49.9728 57.6679 49.9728C57.6801 49.9728 57.6922 49.9728 57.7044 49.9724C57.7348 49.972 57.7647 49.9711 57.7947 49.9699C58.258 49.9472 58.7047 49.7972 59.0813 49.5378C59.0674 49.5133 59.0535 49.4888 59.0392 49.4643C58.6732 49.7189 58.2375 49.8657 57.7855 49.8868Z" fill="white"/>
<path d="M57.8565 51.0456C57.8261 51.0481 57.7958 51.0497 57.7654 51.051C57.7328 51.0522 57.7003 51.0531 57.6677 51.0531C57.1605 51.0525 56.6671 50.8947 56.2615 50.6032C55.8558 50.3117 55.5596 49.9022 55.4173 49.436C55.3978 49.4697 55.3783 49.5029 55.3596 49.5366C55.5199 50.0016 55.8292 50.4065 56.2436 50.6937C56.6579 50.9808 57.1562 51.1356 57.6677 51.1362C57.7003 51.1362 57.7328 51.1357 57.765 51.1341C57.7958 51.1333 57.8261 51.1316 57.8565 51.1295C58.4701 51.0836 59.0424 50.8161 59.4577 50.3812C59.4486 50.3505 59.4382 50.3202 59.4278 50.2894C59.0267 50.7275 58.463 50.9987 57.8565 51.0456Z" fill="white"/>
<path d="M49.9603 13.2086L50.0069 12.3592L50.2449 13.3035C51.0563 13.5376 51.9832 13.5286 51.9832 13.5286C51.9832 13.5286 52.0459 11.6884 51.3148 10.9726C50.5836 10.2567 49.8839 10.4229 49.3356 10.9363C48.7873 11.4496 48.5981 12.1157 49.3292 12.8316C49.5105 12.9972 49.7252 13.1255 49.9603 13.2086Z" fill="#F0F0F0"/>
<path d="M50.1041 12.2244L50.068 12.1891C49.6513 11.7769 49.3967 11.3892 49.3084 11.0312C49.307 11.026 49.3059 11.0208 49.3046 11.0156L49.3299 11.01L49.3543 11.0049C49.4456 11.3955 49.7412 11.7915 50.1046 12.1511C50.1162 12.1628 50.1279 12.1747 50.1401 12.1862C50.2953 12.3372 50.4614 12.4813 50.6289 12.6156C50.6418 12.6261 50.655 12.6366 50.6683 12.6471C50.8903 12.8233 51.113 12.9819 51.3112 13.1152C51.3251 13.1246 51.3393 13.1339 51.3532 13.1431C51.6897 13.3673 51.9496 13.5145 52.0075 13.5468C52.0145 13.5508 52.0185 13.5529 52.0194 13.5535L52.0068 13.5744V13.5747L51.9941 13.5959C51.9932 13.5953 51.98 13.5883 51.956 13.5745C51.8658 13.5237 51.6233 13.3834 51.3205 13.1823C51.3069 13.1732 51.2927 13.1639 51.2788 13.1544C51.1178 13.0464 50.9415 12.9224 50.763 12.786C50.7181 12.7519 50.6743 12.7177 50.6316 12.6836C50.6182 12.6732 50.6049 12.6627 50.5921 12.6522C50.411 12.507 50.2483 12.3644 50.1041 12.2244Z" fill="white"/>
<path d="M51.3203 13.182C51.3309 13.169 51.3417 13.1558 51.353 13.1428C51.3838 13.1074 51.4164 13.0736 51.4508 13.0414C51.597 12.9041 51.7736 12.8 51.9675 12.7367C51.9657 12.7202 51.9639 12.7038 51.9621 12.687C51.7568 12.7522 51.5696 12.8615 51.4151 13.0065C51.3784 13.0408 51.3436 13.077 51.311 13.1149C51.2998 13.1277 51.289 13.1409 51.2786 13.1541C51.1918 13.2624 51.1227 13.3828 51.0737 13.5109C51.0914 13.5132 51.1087 13.5155 51.1256 13.5177C51.1729 13.3973 51.2385 13.2841 51.3203 13.182Z" fill="white"/>
<path d="M50.6317 12.6835C50.6436 12.671 50.6558 12.6588 50.6684 12.6471C50.6721 12.6433 50.6761 12.6395 50.6799 12.636C50.8386 12.4874 51.0325 12.3777 51.245 12.3164C51.4576 12.255 51.6824 12.2438 51.9005 12.2836C51.8972 12.2665 51.894 12.2493 51.8904 12.2322C51.667 12.1945 51.4375 12.2083 51.2208 12.2724C51.0041 12.3365 50.8064 12.4492 50.6442 12.601C50.6391 12.6058 50.634 12.6106 50.6291 12.6155C50.6165 12.6277 50.6043 12.6398 50.5922 12.6521C50.4072 12.8441 50.2838 13.083 50.2368 13.3403C50.2532 13.3451 50.2695 13.3499 50.2861 13.3546C50.3306 13.1035 50.4508 12.8702 50.6317 12.6835Z" fill="white"/>
<path d="M50.1037 12.2245C50.1154 12.2115 50.1275 12.1989 50.1397 12.1864C50.1529 12.173 50.1662 12.1599 50.1799 12.1471C50.3934 11.9476 50.6686 11.8198 50.9643 11.7827C51.2601 11.7455 51.5604 11.8011 51.8204 11.9411C51.8141 11.9192 51.8081 11.8976 51.8015 11.8761C51.5344 11.7437 51.2305 11.6952 50.933 11.7376C50.6355 11.7799 50.3595 11.911 50.1442 12.1121C50.1305 12.1249 50.117 12.1379 50.1042 12.1513C50.0916 12.1637 50.0796 12.1764 50.0677 12.1892C49.8294 12.4501 49.7037 12.7878 49.7158 13.1341C49.7328 13.1435 49.7502 13.1521 49.7678 13.161C49.7483 12.8189 49.8688 12.483 50.1037 12.2245Z" fill="white"/>
<path d="M16.2532 19.5206L16.2999 18.6712L16.5378 19.6155C17.3493 19.8496 18.2762 19.8406 18.2762 19.8406C18.2762 19.8406 18.3389 18.0004 17.6077 17.2846C16.8766 16.5687 16.1769 16.7349 15.6286 17.2483C15.0803 17.7616 14.8911 18.4277 15.6222 19.1436C15.8034 19.3092 16.0182 19.4375 16.2532 19.5206Z" fill="#F0F0F0"/>
<path d="M16.3971 18.5364L16.361 18.5011C15.9443 18.0889 15.6897 17.7012 15.6013 17.3432C15.5999 17.338 15.5989 17.3328 15.5975 17.3276L15.6229 17.322L15.6473 17.3169C15.7385 17.7075 16.0342 18.1035 16.3975 18.4631C16.4091 18.4748 16.4209 18.4867 16.433 18.4982C16.5883 18.6492 16.7544 18.7933 16.9219 18.9276C16.9348 18.9381 16.948 18.9487 16.9612 18.9592C17.1833 19.1353 17.4059 19.2939 17.6041 19.4272C17.6181 19.4366 17.6322 19.446 17.6462 19.4551C17.9827 19.6793 18.2426 19.8265 18.3005 19.8588C18.3075 19.8628 18.3114 19.8649 18.3123 19.8655L18.2998 19.8864V19.8868L18.2871 19.9079C18.2862 19.9073 18.2729 19.9003 18.2489 19.8866C18.1588 19.8357 17.9162 19.6954 17.6135 19.4943C17.5999 19.4852 17.5857 19.4759 17.5717 19.4664C17.4108 19.3584 17.2345 19.2344 17.056 19.098C17.0111 19.0639 16.9673 19.0297 16.9246 18.9956C16.9111 18.9852 16.8979 18.9747 16.885 18.9642C16.7039 18.819 16.5413 18.6764 16.3971 18.5364Z" fill="white"/>
<path d="M17.6139 19.4945C17.6245 19.4815 17.6353 19.4683 17.6466 19.4553C17.6774 19.4199 17.71 19.3861 17.7443 19.3539C17.8906 19.2166 18.0672 19.1125 18.2611 19.0492C18.2593 19.0327 18.2575 19.0163 18.2557 18.9995C18.0503 19.0647 17.8632 19.174 17.7087 19.319C17.672 19.3533 17.6372 19.3895 17.6045 19.4274C17.5934 19.4402 17.5826 19.4534 17.5721 19.4666C17.4854 19.5749 17.4163 19.6953 17.3673 19.8234C17.385 19.8257 17.4023 19.828 17.4192 19.8302C17.4665 19.7098 17.5321 19.5966 17.6139 19.4945Z" fill="white"/>
<path d="M16.9247 18.996C16.9366 18.9835 16.9488 18.9713 16.9614 18.9596C16.9651 18.9558 16.9691 18.952 16.9729 18.9485C17.1316 18.7999 17.3255 18.6902 17.538 18.6289C17.7505 18.5675 17.9754 18.5563 18.1934 18.5961C18.1902 18.579 18.187 18.5618 18.1834 18.5447C17.96 18.507 17.7304 18.5208 17.5137 18.5849C17.297 18.649 17.0994 18.7617 16.9372 18.9135C16.9321 18.9183 16.927 18.9231 16.9221 18.928C16.9095 18.9402 16.8972 18.9523 16.8852 18.9646C16.7002 19.1566 16.5768 19.3955 16.5298 19.6528C16.5461 19.6576 16.5625 19.6624 16.5791 19.6671C16.6236 19.416 16.7437 19.1827 16.9247 18.996Z" fill="white"/>
<path d="M16.3973 18.5365C16.409 18.5235 16.4211 18.5109 16.4333 18.4984C16.4464 18.4851 16.4598 18.4719 16.4734 18.4591C16.6869 18.2597 16.9622 18.1318 17.2579 18.0947C17.5536 18.0575 17.854 18.1131 18.114 18.2531C18.1077 18.2313 18.1017 18.2096 18.0951 18.1881C17.828 18.0557 17.5241 18.0072 17.2266 18.0496C16.929 18.092 16.653 18.223 16.4378 18.4241C16.4241 18.437 16.4106 18.4499 16.3978 18.4633C16.3852 18.4758 16.3731 18.4884 16.3613 18.5012C16.123 18.7621 15.9972 19.0999 16.0093 19.4462C16.0264 19.4555 16.0438 19.4641 16.0614 19.473C16.0419 19.1309 16.1624 18.795 16.3973 18.5365Z" fill="white"/>
<path d="M21.8812 8.74377L21.9278 7.89435L22.1658 8.83868C22.9772 9.07275 23.9041 9.06377 23.9041 9.06377C23.9041 9.06377 23.9668 7.22359 23.2357 6.50773C22.5045 5.79187 21.8048 5.95807 21.2565 6.47142C20.7082 6.98476 20.519 7.65086 21.2501 8.36671C21.4314 8.53234 21.6461 8.66066 21.8812 8.74377Z" fill="#F0F0F0"/>
<path d="M22.025 7.75954L21.9889 7.72425C21.5722 7.31205 21.3176 6.92439 21.2293 6.56633C21.2279 6.56113 21.2268 6.55593 21.2255 6.55074L21.2508 6.54513L21.2752 6.54004C21.3665 6.93061 21.6621 7.32666 22.0255 7.68629C22.0371 7.69799 22.0488 7.70986 22.061 7.7214C22.2162 7.87233 22.3823 8.01647 22.5498 8.15078C22.5627 8.16129 22.5759 8.1718 22.5892 8.1823C22.8112 8.35849 23.0339 8.51706 23.2321 8.65031C23.246 8.65979 23.2602 8.6691 23.2741 8.67823C23.6106 8.90247 23.8705 9.04969 23.9284 9.08192C23.9354 9.08597 23.9394 9.08809 23.9403 9.08862L23.9277 9.10956V9.10991L23.915 9.13102C23.9141 9.13049 23.9009 9.12344 23.8769 9.10971C23.7867 9.05881 23.5442 8.91851 23.2414 8.71745C23.2278 8.70832 23.2136 8.69901 23.1997 8.68953C23.0387 8.58155 22.8624 8.45752 22.6839 8.32119C22.639 8.28701 22.5952 8.25286 22.5525 8.21871C22.5391 8.20837 22.5258 8.19786 22.513 8.18736C22.3319 8.04219 22.1692 7.89959 22.025 7.75954Z" fill="white"/>
<path d="M23.2418 8.71768C23.2524 8.70466 23.2632 8.69147 23.2745 8.67846C23.3053 8.64309 23.3379 8.60924 23.3723 8.57706C23.5185 8.43974 23.6951 8.3356 23.889 8.2723C23.8872 8.25587 23.8854 8.23943 23.8837 8.22266C23.6783 8.28785 23.4911 8.39712 23.3366 8.54212C23.2999 8.57648 23.2652 8.61267 23.2325 8.65054C23.2213 8.66338 23.2105 8.67657 23.2001 8.68976C23.1133 8.79808 23.0443 8.9184 22.9952 9.04658C23.0129 9.04884 23.0302 9.0511 23.0471 9.05335C23.0944 8.9329 23.16 8.81978 23.2418 8.71768Z" fill="white"/>
<path d="M22.5526 8.21863C22.5645 8.20614 22.5767 8.19401 22.5893 8.18222C22.593 8.17846 22.597 8.1747 22.6008 8.17111C22.7595 8.02252 22.9534 7.91288 23.1659 7.85153C23.3785 7.79018 23.6033 7.77895 23.8214 7.81878C23.8181 7.80164 23.8149 7.7845 23.8113 7.76736C23.5879 7.72964 23.3584 7.74342 23.1417 7.80756C22.925 7.87169 22.7273 7.98434 22.5651 8.13618C22.56 8.14096 22.5549 8.14574 22.55 8.1507C22.5374 8.16283 22.5252 8.17497 22.5131 8.18728C22.3281 8.37921 22.2047 8.61812 22.1577 8.87542C22.1741 8.88026 22.1904 8.8851 22.207 8.88977C22.2515 8.63862 22.3717 8.40537 22.5526 8.21863Z" fill="white"/>
<path d="M22.0252 7.75967C22.0369 7.74667 22.049 7.73401 22.0612 7.72153C22.0744 7.7082 22.0877 7.69503 22.1014 7.68222C22.3149 7.4828 22.5901 7.35494 22.8858 7.31781C23.1816 7.28068 23.4819 7.33626 23.7419 7.47623C23.7357 7.45439 23.7296 7.43273 23.723 7.41124C23.4559 7.27882 23.152 7.23035 22.8545 7.27273C22.557 7.3151 22.281 7.44616 22.0657 7.64729C22.052 7.6601 22.0385 7.67308 22.0257 7.68642C22.0131 7.6989 22.0011 7.71156 21.9892 7.72439C21.751 7.98523 21.6252 8.323 21.6373 8.6693C21.6543 8.67864 21.6717 8.68729 21.6893 8.69612C21.6698 8.35402 21.7903 8.01812 22.0252 7.75967Z" fill="white"/>
<path d="M9.05883 47.3918L7.13339 49.089L8.66358 46.6307C7.45802 44.5375 5.48632 42.7285 5.48632 42.7285C5.48632 42.7285 1.39575 46.4808 1.39575 49.4304C1.39575 52.38 3.22715 53.4099 5.48632 53.4099C7.74546 53.4099 9.57686 52.38 9.57686 49.4304C9.57686 48.7739 9.37391 48.0776 9.05883 47.3918Z" fill="#F0F0F0"/>
<path d="M6.63834 49.1809V49.3262C6.62932 51.0162 6.33164 52.3348 5.74754 53.2633C5.73927 53.2769 5.73025 53.2899 5.72198 53.3036L5.65657 53.2654L5.59418 53.228C6.24218 52.2254 6.47146 50.8082 6.47973 49.3342C6.48048 49.2867 6.48123 49.2384 6.48048 49.1902C6.47822 48.5662 6.43838 47.935 6.37448 47.3218C6.36998 47.2742 6.36471 47.226 6.35945 47.1778C6.27075 46.3688 6.14295 45.5958 6.01215 44.9243C6.00313 44.8768 5.99336 44.8293 5.98358 44.7825C5.75731 43.6467 5.52653 42.8241 5.4739 42.642C5.46789 42.6196 5.46413 42.6074 5.46338 42.6045L5.5348 42.5851L5.53555 42.5844L5.60772 42.5649C5.60847 42.5678 5.62125 42.6088 5.64229 42.6851C5.72273 42.9702 5.93171 43.7439 6.13694 44.7645C6.14596 44.8106 6.15573 44.8581 6.16475 44.9056C6.2715 45.4504 6.37599 46.0593 6.45869 46.6984C6.47973 46.859 6.49852 47.0173 6.51506 47.1735C6.52108 47.2217 6.52634 47.2699 6.53085 47.3174C6.60001 47.9803 6.63584 48.6015 6.63834 49.1809Z" fill="white"/>
<path d="M6.13716 44.7645C6.0868 44.771 6.03568 44.7775 5.98381 44.7825C5.84295 44.7964 5.70144 44.8034 5.55983 44.8034C4.95634 44.8042 4.36036 44.6753 3.8158 44.4263C3.78423 44.4644 3.75266 44.5026 3.72034 44.5414C4.29319 44.8092 4.92237 44.948 5.55983 44.9474C5.711 44.9473 5.86206 44.9396 6.01238 44.9243C6.0635 44.9193 6.11461 44.9128 6.16498 44.9056C6.58073 44.8485 6.98501 44.7313 7.36399 44.558C7.33167 44.5184 7.3001 44.4795 7.26928 44.4414C6.91058 44.6019 6.5291 44.7108 6.13716 44.7645Z" fill="white"/>
<path d="M6.51468 47.1734C6.46281 47.1763 6.41094 47.1777 6.35907 47.1777C6.34329 47.1784 6.32675 47.1784 6.31096 47.1784C5.65705 47.1785 5.01283 47.0271 4.43323 46.7372C3.85362 46.4473 3.35583 46.0275 2.98227 45.5137C2.95221 45.5561 2.92214 45.5986 2.89282 45.6418C3.28217 46.1617 3.79531 46.5854 4.38973 46.8777C4.98415 47.1699 5.64275 47.3224 6.31096 47.3224C6.33201 47.3224 6.35306 47.3224 6.37411 47.3217C6.42673 47.321 6.4786 47.3195 6.53047 47.3174C7.3331 47.278 8.10691 47.0181 8.75937 46.5688C8.73531 46.5264 8.71125 46.4839 8.68644 46.4414C8.05233 46.8826 7.29757 47.1369 6.51468 47.1734Z" fill="white"/>
<path d="M6.63799 49.1809C6.58537 49.1852 6.53274 49.1881 6.48012 49.1902C6.42374 49.1924 6.36736 49.1938 6.31098 49.1938C5.4323 49.1929 4.57758 48.9194 3.87479 48.4144C3.17201 47.9094 2.65897 47.2001 2.41248 46.3926C2.37865 46.4509 2.34482 46.5085 2.3125 46.5668C2.59022 47.3724 3.12604 48.0738 3.84383 48.5712C4.56162 49.0687 5.42489 49.3369 6.31098 49.3378C6.36736 49.3378 6.42374 49.3371 6.47937 49.3342C6.53274 49.3327 6.58537 49.3299 6.63799 49.3263C7.70087 49.2467 8.69243 48.7833 9.41189 48.03C9.3961 47.9767 9.37806 47.9242 9.36002 47.8709C8.6651 48.6299 7.68872 49.0997 6.63799 49.1809Z" fill="white"/>
<path d="M58.5116 32.9611C61.3019 30.6234 62.5328 27.6001 61.2608 26.2083C59.9889 24.8166 56.6958 25.5834 53.9055 27.9211C51.1151 30.2587 49.8843 33.2821 51.1562 34.6738C52.4282 36.0656 55.7213 35.2988 58.5116 32.9611Z" fill="#D4D5EB"/>
<path d="M17.282 34.6735C18.5539 33.2817 17.3231 30.2584 14.5327 27.9207C11.7424 25.583 8.44932 24.8162 7.17736 26.208C5.9054 27.5998 7.13626 30.6231 9.92657 32.9608C12.7169 35.2985 16.01 36.0653 17.282 34.6735Z" fill="#D4D5EB"/>
<path d="M23.5663 53.3422C27.274 53.3422 30.2797 51.843 30.2797 49.9936C30.2797 48.1442 27.274 46.645 23.5663 46.645C19.8586 46.645 16.8529 48.1442 16.8529 49.9936C16.8529 51.843 19.8586 53.3422 23.5663 53.3422Z" fill="#D4D5EB"/>
<path d="M44.8722 53.3422C48.5799 53.3422 51.5856 51.843 51.5856 49.9936C51.5856 48.1442 48.5799 46.645 44.8722 46.645C41.1645 46.645 38.1588 48.1442 38.1588 49.9936C38.1588 51.843 41.1645 53.3422 44.8722 53.3422Z" fill="#D4D5EB"/>
<path d="M34.2194 48.7234C25.1312 48.7234 17.7374 41.6443 17.7374 32.9428C17.7374 24.2413 25.1312 17.1621 34.2194 17.1621C43.3077 17.1621 50.7015 24.2413 50.7015 32.9428C50.7015 41.6443 43.3077 48.7234 34.2194 48.7234ZM34.2194 17.3161C25.2199 17.3161 17.8982 24.3262 17.8982 32.9428C17.8982 41.5594 25.2199 48.5695 34.2194 48.5695C43.219 48.5695 50.5407 41.5594 50.5407 32.9428C50.5407 24.3262 43.219 17.3161 34.2194 17.3161Z" fill="#3F3D56"/>
<path d="M30.2012 43.4533C26.8762 42.3579 24.0798 40.1436 22.3321 37.2222C20.5844 34.3008 20.0042 30.871 20.6996 27.5708C19.7771 29.3405 19.26 31.2784 19.183 33.2549C19.1059 35.2314 19.4706 37.2008 20.2527 39.0315C21.0348 40.8621 22.2162 42.5117 23.7179 43.8698C25.2196 45.228 27.007 46.2634 28.9604 46.9068C30.9138 47.5502 32.9882 47.7867 35.0448 47.6005C37.1014 47.4143 39.0927 46.8097 40.8856 45.8272C42.6784 44.8446 44.2314 43.5068 45.4406 41.9032C46.6498 40.2996 47.4874 38.4672 47.8972 36.5287C46.3249 39.5401 43.6638 41.9023 40.4088 43.176C37.1538 44.4497 33.5264 44.5482 30.2012 43.4533Z" fill="#F0F0F0"/>
<path d="M29.3646 31.685C28.5302 31.685 27.8514 30.8393 27.8514 29.7998C27.8514 28.7603 28.5302 27.9146 29.3646 27.9146C30.1989 27.9146 30.8777 28.7603 30.8777 29.7998C30.8777 30.8393 30.1989 31.685 29.3646 31.685Z" fill="#3F3D56"/>
<path d="M38.5301 31.685C37.6958 31.685 37.017 30.8393 37.017 29.7998C37.017 28.7603 37.6958 27.9146 38.5301 27.9146C39.3644 27.9146 40.0432 28.7603 40.0432 29.7998C40.0432 30.8393 39.3644 31.685 38.5301 31.685Z" fill="#3F3D56"/>
<path d="M33.1741 2.76707C33.9734 2.76707 34.6213 2.31903 34.6213 1.76635C34.6213 1.21366 33.9734 0.765625 33.1741 0.765625C32.3749 0.765625 31.7269 1.21366 31.7269 1.76635C31.7269 2.31903 32.3749 2.76707 33.1741 2.76707Z" fill="#2F2E41"/>
<path d="M33.1736 1.22311C33.662 1.22311 34.058 0.949305 34.058 0.611554C34.058 0.273802 33.662 0 33.1736 0C32.6851 0 32.2892 0.273802 32.2892 0.611554C32.2892 0.949305 32.6851 1.22311 33.1736 1.22311Z" fill="#2F2E41"/>
<path d="M32.1329 2.1661C31.6351 1.68947 31.4775 1.04685 31.7259 0.633301C31.6669 0.665498 31.6126 0.705026 31.5644 0.750857C31.1562 1.14166 31.2835 1.89715 31.8486 2.43826C32.4138 2.97939 33.2029 3.10122 33.611 2.71042C33.6589 2.66429 33.7002 2.61231 33.7338 2.55581C33.3019 2.79357 32.6307 2.64272 32.1329 2.1661Z" fill="#2F2E41"/>
<path d="M18.2766 26.9358L17.7683 26.1273L20.7838 23.8652L21.534 25.0586L18.2766 26.9358Z" fill="#FFB6B6"/>
<path d="M17.5878 27.614L15.9487 25.0069L15.9832 24.987C16.2643 24.825 16.6011 24.7766 16.9195 24.8523C17.2379 24.9281 17.5118 25.1218 17.681 25.3909L17.6811 25.391L18.6821 26.9834L17.5878 27.614Z" fill="#2F2E41"/>
<path d="M50.0453 25.8582L50.5535 25.0496L47.5381 22.7876L46.7878 23.9809L50.0453 25.8582Z" fill="#FFB6B6"/>
<path d="M49.6396 25.9052L50.6407 24.3129L50.6408 24.3128C50.81 24.0437 51.0839 23.85 51.4023 23.7742C51.7207 23.6985 52.0575 23.7469 52.3386 23.9089L52.3731 23.9288L50.734 26.5359L49.6396 25.9052Z" fill="#2F2E41"/>
<path d="M30.3375 15.0674L30.1455 15.8015L24.9653 19.7719L19.3904 24.7602L19.9883 26.0915L33.2766 17.5762L48.2576 25.0113L48.927 23.5437L42.0905 19.1561L36.4369 15.4233L30.3375 15.0674Z" fill="#2F2E41"/>
<path d="M32.0819 7.21338L29.8429 7.91672L30.1456 15.7255C30.1456 15.7255 34.0395 17.964 36.437 15.4231V7.61261L35.0999 7.21338H32.0819Z" fill="#6C63FF"/>
<path d="M35.9396 8.14967L36.4366 7.61279C36.4366 7.61279 37.8183 8.09602 37.7031 9.54619C37.5878 10.9964 36.7758 15.6087 36.7758 15.6087L36.623 18.6173H35.1807L35.7555 10.8368L35.9396 8.14967Z" fill="#6C63FF"/>
<path d="M30.4726 8.38062L29.9757 7.84375C29.9757 7.84375 28.594 8.32698 28.7092 9.77715C28.8244 11.2273 29.6365 15.8397 29.6365 15.8397L29.7892 18.8482H31.2316L30.6568 11.0677L30.4726 8.38062Z" fill="#6C63FF"/>
<path d="M30.5205 20.0871C31.009 20.0871 31.4049 19.708 31.4049 19.2403C31.4049 18.7727 31.009 18.3936 30.5205 18.3936C30.0321 18.3936 29.6361 18.7727 29.6361 19.2403C29.6361 19.708 30.0321 20.0871 30.5205 20.0871Z" fill="#FFB6B6"/>
<path d="M35.9072 20.0871C36.3957 20.0871 36.7916 19.708 36.7916 19.2403C36.7916 18.7727 36.3957 18.3936 35.9072 18.3936C35.4188 18.3936 35.0228 18.7727 35.0228 19.2403C35.0228 19.708 35.4188 20.0871 35.9072 20.0871Z" fill="#FFB6B6"/>
<path d="M33.1366 6.57256C34.4893 6.57256 35.5859 5.52261 35.5859 4.22744C35.5859 2.93227 34.4893 1.88232 33.1366 1.88232C31.7839 1.88232 30.6873 2.93227 30.6873 4.22744C30.6873 5.52261 31.7839 6.57256 33.1366 6.57256Z" fill="#2F2E41"/>
<path d="M33.2107 6.64952C34.3013 6.64952 35.1854 5.80304 35.1854 4.75884C35.1854 3.71465 34.3013 2.86816 33.2107 2.86816C32.1201 2.86816 31.236 3.71465 31.236 4.75884C31.236 5.80304 32.1201 6.64952 33.2107 6.64952Z" fill="#FFB6B6"/>
<path d="M31.1353 3.57007C31.5865 3.86785 32.1221 4.02633 32.6701 4.02423C32.4747 4.15402 32.2521 4.24168 32.0178 4.28119C32.7465 4.43084 33.4996 4.43489 34.2299 4.29309C34.3923 4.26816 34.5489 4.21665 34.693 4.14081C34.7648 4.10241 34.8274 4.04998 34.8766 3.98692C34.9259 3.92387 34.9607 3.85159 34.9789 3.77479C35.0274 3.50933 34.8114 3.26815 34.5868 3.10561C34.2431 2.86055 33.8467 2.6917 33.4265 2.61129C33.0062 2.53089 32.5725 2.54092 32.1568 2.64068C31.8853 2.70786 31.6134 2.82137 31.4371 3.03009C31.2608 3.23881 31.2085 3.56059 31.3765 3.77552L31.1353 3.57007Z" fill="#2F2E41"/>
<path d="M66.0085 53.4962H0.0804001C0.0590767 53.4962 0.0386265 53.4881 0.0235486 53.4737C0.00847064 53.4593 0 53.4397 0 53.4193C0 53.3988 0.00847064 53.3793 0.0235486 53.3648C0.0386265 53.3504 0.0590767 53.3423 0.0804001 53.3423H66.0085C66.0298 53.3423 66.0503 53.3504 66.0653 53.3648C66.0804 53.3793 66.0889 53.3988 66.0889 53.4193C66.0889 53.4397 66.0804 53.4593 66.0653 53.4737C66.0503 53.4881 66.0298 53.4962 66.0085 53.4962Z" fill="#3F3D56"/>
<path d="M31.7269 39.1011C31.7269 39.6727 31.9641 40.221 32.3863 40.6252C32.8085 41.0294 33.3811 41.2565 33.9781 41.2565C34.5752 41.2565 35.1478 41.0294 35.57 40.6252C35.9922 40.221 36.2293 39.6727 36.2293 39.1011H31.7269Z" fill="#3F3D56"/>
<path d="M42.2687 36.4069C43.3344 36.4069 44.1983 35.5797 44.1983 34.5594C44.1983 33.5391 43.3344 32.7119 42.2687 32.7119C41.203 32.7119 40.3391 33.5391 40.3391 34.5594C40.3391 35.5797 41.203 36.4069 42.2687 36.4069Z" fill="#F0F0F0"/>
<path d="M25.6261 36.4069C26.6918 36.4069 27.5557 35.5797 27.5557 34.5594C27.5557 33.5391 26.6918 32.7119 25.6261 32.7119C24.5604 32.7119 23.6965 33.5391 23.6965 34.5594C23.6965 35.5797 24.5604 36.4069 25.6261 36.4069Z" fill="#F0F0F0"/>
</g>
<defs>
<clipPath id="clip0_1629_207">
<rect width="66.0889" height="53.496" fill="white"/>
</clipPath>
</defs>
</svg>
