<svg width="58" height="44" viewBox="0 0 58 44" fill="none" xmlns="http://www.w3.org/2000/svg">
<g clip-path="url(#clip0_1275_9799)">
<path d="M14.4132 25.1972C14.4081 25.1224 14.3884 25.0493 14.3551 24.9821C14.3217 24.9149 14.2755 24.8549 14.219 24.8056L13.311 24.0143C13.2044 23.9212 13.0669 23.8711 12.9254 23.8736C12.7838 23.8762 12.6483 23.9313 12.545 24.0282C12.5312 24.041 12.5181 24.0546 12.5059 24.069L10.1353 26.7871L9.87583 27.0841L5.90954 31.632C5.81034 31.7464 5.76049 31.8954 5.77088 32.0464C5.78128 32.1975 5.85109 32.3383 5.96503 32.438L6.87217 33.2293C6.9864 33.3287 7.13538 33.3787 7.28646 33.3685C7.43754 33.3583 7.57839 33.2885 7.67815 33.1746L9.87583 30.6547L11.8565 28.3828L14.2737 25.6116C14.3231 25.5551 14.3608 25.4894 14.3848 25.4183C14.4087 25.3472 14.4183 25.272 14.4132 25.1972Z" fill="#6C63FF"/>
<path d="M28.792 20.0703L28.2405 19.0001C28.1708 18.8658 28.0507 18.7645 27.9066 18.7185C27.7624 18.6725 27.6059 18.6854 27.4713 18.7545L22.9788 21.0705L20.1546 22.5266L18.5516 23.353C18.5097 23.3745 18.4708 23.4014 18.4358 23.433C18.358 23.5006 18.3004 23.5884 18.2694 23.6867C18.2463 23.7581 18.2376 23.8334 18.2439 23.9082C18.2502 23.9829 18.2714 24.0557 18.3061 24.1223L18.5214 24.5408L18.8575 25.1926C18.8918 25.2593 18.9389 25.3186 18.9962 25.367C19.0534 25.4155 19.1197 25.4521 19.1912 25.4748C19.248 25.4926 19.3071 25.5017 19.3666 25.5018C19.4572 25.5018 19.5465 25.48 19.6268 25.4381L21.5308 24.4567L24.0206 23.1727L28.5465 20.8396C28.6807 20.7699 28.782 20.6498 28.828 20.5056C28.874 20.3615 28.861 20.205 28.792 20.0703V20.0703Z" fill="#6C63FF"/>
<path d="M24.045 23.2241L24.0205 23.1727L23.0563 21.1863C22.9881 21.0513 22.8693 20.9487 22.7259 20.9008C22.6542 20.8768 22.5784 20.8675 22.5031 20.8732C22.4277 20.879 22.3542 20.8997 22.287 20.9342L19.9343 22.3602L18.368 23.3097C18.3561 23.3157 18.3451 23.3234 18.3354 23.3326C18.2457 23.4133 18.1975 23.6205 18.1584 23.7902C18.1445 23.849 18.1331 23.9004 18.1217 23.9338C18.1176 23.9477 18.1127 23.9624 18.1094 23.977C18.0768 24.1089 18.0924 24.2481 18.1535 24.3694L18.346 24.7537L18.6935 25.4454C18.7413 25.5403 18.8145 25.62 18.905 25.6758C18.9954 25.7315 19.0996 25.7611 19.2058 25.7611C19.2932 25.761 19.3793 25.7404 19.4571 25.7008L21.6482 24.836L23.7904 23.9901C23.9256 23.9221 24.0283 23.8033 24.076 23.6597C24.1237 23.5161 24.1125 23.3595 24.045 23.2241H24.045Z" fill="#2F2E41"/>
<path d="M16.2733 20.1533C18.6845 20.1533 20.6392 18.1986 20.6392 15.7873C20.6392 13.3761 18.6845 11.4214 16.2733 11.4214C13.862 11.4214 11.9073 13.3761 11.9073 15.7873C11.9073 18.1986 13.862 20.1533 16.2733 20.1533Z" fill="#6C63FF"/>
<path d="M16.3997 33.2075C16.3955 33.0966 16.3589 32.9894 16.2943 32.899C16.2298 32.8087 16.1402 32.7393 16.0367 32.6993C15.971 32.6733 15.901 32.6601 15.8303 32.6602H14.6262C14.4748 32.6603 14.3297 32.7205 14.2226 32.8276C14.1156 32.9346 14.0553 33.0798 14.0552 33.2312V43.4291C14.0553 43.5805 14.1156 43.7257 14.2226 43.8327C14.3297 43.9398 14.4748 44 14.6262 44.0002H15.8303C15.9817 44 16.1269 43.9398 16.2339 43.8327C16.341 43.7257 16.4012 43.5805 16.4014 43.4291V33.2312C16.4017 33.2233 16.4011 33.2153 16.3997 33.2075Z" fill="#6C63FF"/>
<path d="M21.8701 37.7611C21.8536 37.7222 21.8328 37.6853 21.8081 37.651L19.7556 34.7795L18.0645 32.4146H15.18L15.3839 32.6993L15.747 33.2075L16.8719 34.7803L19.2825 38.1519L19.9 39.015C19.988 39.1381 20.1213 39.2213 20.2706 39.2462C20.4199 39.2711 20.573 39.2358 20.6962 39.148L21.676 38.4472C21.7813 38.3718 21.8578 38.2628 21.8931 38.1382C21.9284 38.0135 21.9203 37.8806 21.8701 37.7611ZM15.9721 29.4876C15.8838 29.3645 15.7503 29.2815 15.6009 29.2567C15.4515 29.232 15.2984 29.2675 15.1751 29.3554L14.1954 30.0554C14.0723 30.1437 13.9893 30.2771 13.9645 30.4266C13.9397 30.576 13.9752 30.7291 14.0632 30.8524L14.4221 31.3541H17.3067L15.9721 29.4876Z" fill="#6C63FF"/>
<path d="M21.8889 37.7885C21.8831 37.7789 21.8769 37.7697 21.8702 37.7608C21.7944 37.6579 21.6947 37.575 21.5798 37.5193L20.5021 36.9833C20.2198 36.843 19.9164 36.8773 19.8259 37.06L19.2825 38.1515L17.0481 42.6399C16.9568 42.8226 17.1126 43.0853 17.394 43.2256L18.4717 43.7624C18.5787 43.817 18.6966 43.8466 18.8167 43.8489C18.9685 43.8489 19.0949 43.7926 19.1479 43.6857L21.9256 38.1058C21.9475 38.0543 21.9556 37.9979 21.9492 37.9423C21.9428 37.8867 21.922 37.8337 21.8889 37.7885Z" fill="#6C63FF"/>
<path d="M15.4354 23.8555L15.2543 23.6777L15.154 23.5773L14.5781 23.0104C14.4812 22.9151 14.3537 22.8573 14.2183 22.8472C14.2028 22.8464 14.1881 22.8456 14.1726 22.8456C14.1383 22.8464 14.0861 22.8415 14.0249 22.8366C13.8316 22.8203 13.5902 22.7991 13.5061 22.8855L12.391 23.8498L10.0342 25.8868C9.94867 25.9731 9.89319 26.0846 9.87594 26.2049C9.8713 26.2338 9.86912 26.263 9.86941 26.2922C9.86953 26.3182 9.87172 26.3441 9.87594 26.3697C9.89328 26.4933 9.95091 26.6077 10.0399 26.6952L10.1354 26.7874L11.6739 28.2623C11.7818 28.3683 11.9273 28.4272 12.0785 28.4262C12.1446 28.4262 12.21 28.4143 12.2719 28.3912C12.3516 28.3617 12.4238 28.3149 12.4831 28.2541L15.1646 24.9984L15.34 24.7855L15.4412 24.6631C15.5473 24.5552 15.6064 24.4095 15.6053 24.2581C15.6042 24.1067 15.5431 23.9619 15.4354 23.8555Z" fill="#2F2E41"/>
<path d="M15.692 17.4054L15.6875 17.2422C15.991 17.2338 16.2586 17.2147 16.4597 17.0678C16.5167 17.0238 16.5636 16.968 16.5971 16.9043C16.6306 16.8406 16.65 16.7703 16.654 16.6984C16.6575 16.6545 16.6508 16.6103 16.6345 16.5694C16.6182 16.5284 16.5927 16.4918 16.5599 16.4623C16.4264 16.3496 16.2117 16.3861 16.0551 16.4578L15.9201 16.5197L16.179 14.6279L16.3406 14.6501L16.1204 16.2593C16.3331 16.1968 16.5302 16.2237 16.6652 16.3377C16.7171 16.383 16.7577 16.4396 16.7841 16.5031C16.8104 16.5667 16.8217 16.6355 16.817 16.7042C16.8122 16.8008 16.7864 16.8952 16.7413 16.9808C16.6962 17.0664 16.6329 17.141 16.5559 17.1996C16.2976 17.3884 15.9618 17.3978 15.692 17.4054Z" fill="#2F2E41"/>
<path d="M18.0188 14.7891H17.1401V14.9522H18.0188V14.7891Z" fill="#2F2E41"/>
<path d="M15.2453 14.7891H14.3666V14.9522H15.2453V14.7891Z" fill="#2F2E41"/>
<path d="M15.869 9.24639C15.3848 7.30573 13.5082 5.81566 11.4973 5.85273C10.5018 5.88066 9.54183 6.22875 8.75977 6.84537C8.36553 7.15221 8.02609 7.52359 7.75586 7.94376C7.4528 8.41675 7.2625 8.95067 7.11393 9.48957C6.81373 10.5784 6.67225 11.8106 5.91044 12.6998C5.59455 13.0598 5.20508 13.3477 4.76833 13.5442C4.33158 13.7407 3.85774 13.8411 3.37883 13.8387C2.89634 13.8312 2.42213 13.7121 1.99337 13.4907C1.5646 13.2693 1.19292 12.9516 0.907431 12.5626C0.333999 11.7981 0.0516863 10.7407 0.382971 9.81806C0.545538 9.36528 0.8951 8.93758 1.39505 8.8621C1.62305 8.83123 1.8551 8.86772 2.06263 8.96706C2.27017 9.06639 2.44412 9.22424 2.56309 9.42118C2.78792 9.81569 2.71602 10.3421 2.43434 10.6901C2.13765 11.0566 1.64185 11.1581 1.20456 11.0108C0.999029 10.941 0.818295 10.8127 0.684446 10.6418C0.58666 10.5183 0.413341 10.6915 0.510123 10.8137C0.665225 10.9997 0.865486 11.1428 1.09173 11.2292C1.31797 11.3156 1.56261 11.3425 1.80223 11.3073C2.04134 11.2712 2.26593 11.17 2.45151 11.015C2.63708 10.8599 2.77651 10.6569 2.8546 10.428C2.94021 10.201 2.96266 9.95514 2.91958 9.71646C2.8765 9.47778 2.76949 9.25525 2.60995 9.07257C2.44372 8.8918 2.23386 8.75672 2.00048 8.68027C1.7671 8.60381 1.51801 8.58853 1.27703 8.63589C0.760805 8.74518 0.38591 9.16976 0.191348 9.64023C-0.000364987 10.129 -0.0509442 10.6618 0.0453724 11.1779C0.134255 11.6759 0.327033 12.1497 0.611157 12.5683C0.89528 12.9868 1.26438 13.3409 1.69442 13.6074C2.56473 14.1417 3.65103 14.2153 4.6058 13.872C5.08286 13.7032 5.51857 13.435 5.884 13.0849C6.27669 12.6865 6.57724 12.2069 6.76446 11.6797C7.19493 10.5526 7.258 9.29144 7.86707 8.232C8.39834 7.33243 9.23634 6.65475 10.2272 6.32344C11.2122 5.98312 12.2904 6.03488 13.2383 6.46799C14.1808 6.9045 14.94 7.6583 15.3832 8.59768C15.4888 8.82658 15.5723 9.06501 15.6326 9.30975C15.6708 9.46285 15.9071 9.39933 15.869 9.24639L15.869 9.24639Z" fill="#2F2E41"/>
<path d="M20.5877 24.9992C20.5543 24.8703 20.5151 24.7438 20.4702 24.6198C20.1986 23.8617 19.7223 23.1936 19.094 22.6897C19.023 22.6318 18.9496 22.5763 18.8738 22.5233C18.4973 22.2578 18.0809 22.0538 17.6404 21.9191C17.6757 21.7932 17.6751 21.6599 17.6387 21.5343C17.5894 21.376 17.4902 21.2379 17.3561 21.1405C17.2219 21.0431 17.0599 20.9916 16.8941 20.9937H15.8303C15.6642 20.9915 15.5017 21.043 15.3672 21.1406C15.2326 21.2381 15.1332 21.3765 15.0836 21.5351C15.0473 21.6604 15.0468 21.7933 15.0819 21.9188C14.1889 22.193 13.4074 22.7463 12.8521 23.4975C12.2968 24.2487 11.9971 25.1581 11.9968 26.0923V34.5496C11.9968 35.1269 12.2163 35.596 12.4863 35.596H20.2361C20.2394 35.596 22.4444 35.596 22.4477 35.5943C22.7136 35.5856 22.9282 35.1199 22.9282 34.5496C22.9282 32.5971 22.4968 29.853 21.6649 28.0866L20.7256 26.0923C20.7257 25.7236 20.6794 25.3563 20.5877 24.9992Z" fill="#2F2E41"/>
<path d="M11.8746 16.7922C11.3348 16.7922 10.8956 16.1335 10.8956 15.3239C10.8956 14.5142 11.3348 13.8555 11.8746 13.8555C12.4143 13.8555 12.8535 14.5142 12.8535 15.3239C12.8535 16.1335 12.4143 16.7922 11.8746 16.7922Z" fill="#3F3D56"/>
<path d="M20.6033 16.7922C20.0635 16.7922 19.6244 16.1335 19.6244 15.3239C19.6244 14.5142 20.0635 13.8555 20.6033 13.8555C21.1431 13.8555 21.5822 14.5142 21.5822 15.3239C21.5822 16.1335 21.1431 16.7922 20.6033 16.7922Z" fill="#3F3D56"/>
<path d="M20.878 16.5626C20.8586 16.5626 20.8395 16.5579 20.8222 16.5491C20.8049 16.5402 20.79 16.5273 20.7787 16.5116C20.7673 16.4958 20.7599 16.4775 20.757 16.4583C20.7542 16.4391 20.7559 16.4195 20.7621 16.4011C20.9959 15.7056 21.0663 14.9656 20.9677 14.2385C20.869 13.5115 20.6041 12.8169 20.1934 12.2089C19.7827 11.6009 19.2373 11.0958 18.5997 10.7328C17.962 10.3698 17.2493 10.1587 16.5168 10.116C15.7843 10.0732 15.0518 10.2 14.3763 10.4864C13.7008 10.7727 13.1003 11.211 12.6217 11.7671C12.1431 12.3233 11.7992 12.9823 11.6167 13.693C11.4342 14.4036 11.418 15.1468 11.5694 15.8647C11.576 15.8965 11.5697 15.9295 11.552 15.9566C11.5343 15.9838 11.5065 16.0028 11.4748 16.0094C11.4431 16.0161 11.4101 16.01 11.3829 15.9923C11.3557 15.9747 11.3367 15.9469 11.3299 15.9152C11.1706 15.1604 11.1876 14.379 11.3794 13.6318C11.5712 12.8846 11.9328 12.1917 12.436 11.6069C12.9392 11.0222 13.5704 10.5613 14.2807 10.2602C14.9909 9.95913 15.7611 9.82588 16.5312 9.87083C17.3013 9.91578 18.0507 10.1377 18.7211 10.5194C19.3916 10.9011 19.9649 11.4323 20.3967 12.0716C20.8284 12.7109 21.1069 13.4412 21.2105 14.2056C21.3141 14.9701 21.24 15.7481 20.994 16.4793C20.9858 16.5036 20.9702 16.5247 20.9494 16.5396C20.9286 16.5546 20.9036 16.5626 20.878 16.5626Z" fill="#3F3D56"/>
<path d="M14.4064 12.3874C14.2335 12.6233 14.3187 12.9414 14.5009 13.1448C14.7379 13.4096 15.1159 13.4263 15.444 13.3771C15.8123 13.322 16.2029 13.1495 16.5758 13.2657C16.8935 13.3648 17.1202 13.6531 17.4504 13.7255C17.7431 13.7897 18.0932 13.7047 18.1959 13.3926C18.2452 13.2426 18.009 13.1784 17.9599 13.3275C17.8935 13.5294 17.6068 13.5254 17.4426 13.4695C17.1793 13.3799 16.9765 13.1619 16.7177 13.0577C16.4127 12.935 16.0817 12.9904 15.7712 13.0603C15.4785 13.1262 15.1416 13.224 14.85 13.1008C14.6342 13.0097 14.4625 12.7227 14.6177 12.5109C14.7109 12.3837 14.4986 12.2615 14.4064 12.3874H14.4064Z" fill="#2F2E41"/>
<path d="M26.149 43.9981H8.52835C8.50672 43.9981 8.48597 43.9895 8.47067 43.9742C8.45537 43.9589 8.44678 43.9382 8.44678 43.9165C8.44678 43.8949 8.45537 43.8742 8.47067 43.8589C8.48597 43.8436 8.50672 43.835 8.52835 43.835H26.149C26.1706 43.835 26.1914 43.8436 26.2067 43.8589C26.222 43.8742 26.2306 43.8949 26.2306 43.9165C26.2306 43.9382 26.222 43.9589 26.2067 43.9742C26.1914 43.9895 26.1706 43.9981 26.149 43.9981Z" fill="#3F3D56"/>
<path d="M57.5406 18.962H38.1799C38.1601 18.9621 38.1405 18.9583 38.1223 18.9509C38.104 18.9434 38.0874 18.9324 38.0734 18.9185C38.0594 18.9046 38.0482 18.888 38.0407 18.8698C38.0331 18.8516 38.0292 18.832 38.0292 18.8123C38.0292 18.7926 38.0331 18.773 38.0407 18.7548C38.0482 18.7366 38.0594 18.72 38.0734 18.7061C38.0874 18.6922 38.104 18.6812 38.1223 18.6737C38.1405 18.6662 38.1601 18.6625 38.1799 18.6626H57.5406C57.5603 18.6625 57.5799 18.6662 57.5981 18.6737C57.6164 18.6812 57.633 18.6922 57.647 18.7061C57.661 18.72 57.6722 18.7366 57.6797 18.7548C57.6873 18.773 57.6912 18.7926 57.6912 18.8123C57.6912 18.832 57.6873 18.8516 57.6797 18.8698C57.6722 18.888 57.661 18.9046 57.647 18.9185C57.633 18.9324 57.6164 18.9434 57.5981 18.9509C57.5799 18.9583 57.5603 18.9621 57.5406 18.962Z" fill="#E6E6E6"/>
<path d="M49.3101 10.7021H41.7814C41.3607 10.7016 40.9574 10.5343 40.66 10.2368C40.3625 9.93937 40.1952 9.53607 40.1947 9.1154V1.58665C40.1952 1.16598 40.3625 0.762688 40.66 0.465237C40.9574 0.167785 41.3607 0.000470899 41.7814 0H49.3101C49.7308 0.000470899 50.1341 0.167785 50.4316 0.465237C50.729 0.762688 50.8963 1.16598 50.8968 1.58665V9.1154C50.8963 9.53607 50.729 9.93937 50.4316 10.2368C50.1341 10.5343 49.7308 10.7016 49.3101 10.7021Z" fill="#6C63FF"/>
<path opacity="0.1" d="M53.9389 14.1938H46.4102C45.9895 14.1933 45.5862 14.026 45.2888 13.7286C44.9913 13.4311 44.824 13.0278 44.8235 12.6071V5.07839C44.824 4.65772 44.9913 4.25441 45.2887 3.95695C45.5862 3.65949 45.9895 3.49217 46.4102 3.4917H53.9389C54.3596 3.49217 54.7629 3.65949 55.0603 3.95695C55.3578 4.25441 55.5251 4.65772 55.5256 5.07839V12.6071C55.5251 13.0278 55.3578 13.4311 55.0603 13.7286C54.7629 14.026 54.3596 14.1933 53.9389 14.1938Z" fill="black"/>
<path d="M40.9567 23.2775C40.9351 23.2775 40.9143 23.2689 40.899 23.2536C40.8837 23.2383 40.8751 23.2176 40.8751 23.196V21.7276C40.8751 21.7059 40.8837 21.6852 40.899 21.6699C40.9143 21.6546 40.9351 21.646 40.9567 21.646C40.9783 21.646 40.9991 21.6546 41.0144 21.6699C41.0297 21.6852 41.0383 21.7059 41.0383 21.7276V23.196C41.0383 23.2176 41.0297 23.2383 41.0144 23.2536C40.9991 23.2689 40.9783 23.2775 40.9567 23.2775Z" fill="#CCCCCC"/>
<path d="M47.6053 23.2775C47.5836 23.2775 47.5629 23.2689 47.5476 23.2536C47.5323 23.2383 47.5237 23.2176 47.5237 23.196V21.7276C47.5237 21.7059 47.5323 21.6852 47.5476 21.6699C47.5629 21.6546 47.5836 21.646 47.6053 21.646C47.6269 21.646 47.6476 21.6546 47.6629 21.6699C47.6782 21.6852 47.6868 21.7059 47.6868 21.7276V23.196C47.6868 23.2176 47.6782 23.2383 47.6629 23.2536C47.6476 23.2689 47.6269 23.2775 47.6053 23.2775Z" fill="#3F3D56"/>
<path d="M48.1763 23.2775C48.1547 23.2775 48.1339 23.2689 48.1186 23.2536C48.1033 23.2383 48.0947 23.2176 48.0947 23.196V21.7276C48.0947 21.7059 48.1033 21.6852 48.1186 21.6699C48.1339 21.6546 48.1547 21.646 48.1763 21.646C48.1979 21.646 48.2187 21.6546 48.234 21.6699C48.2493 21.6852 48.2579 21.7059 48.2579 21.7276V23.196C48.2579 23.2176 48.2493 23.2383 48.234 23.2536C48.2187 23.2689 48.1979 23.2775 48.1763 23.2775Z" fill="#3F3D56"/>
<path d="M42.1544 23.3044C42.1211 23.3044 42.0884 23.2955 42.0597 23.2787L41.0894 22.6244C41.0876 22.6233 41.0858 22.6221 41.084 22.621C41.0572 22.6041 41.0352 22.5807 41.02 22.5528C41.0049 22.525 40.9972 22.4938 40.9976 22.4621C40.9974 22.4288 41.006 22.3961 41.0227 22.3673C41.0393 22.3385 41.0633 22.3146 41.0922 22.2982L42.0549 21.6484C42.0835 21.6307 42.1164 21.6209 42.1501 21.6202C42.1838 21.6194 42.2171 21.6276 42.2465 21.644C42.2759 21.6604 42.3005 21.6844 42.3175 21.7135C42.3346 21.7425 42.3436 21.7756 42.3436 21.8093V23.1149C42.3435 23.1651 42.3235 23.2132 42.2881 23.2487C42.2526 23.2842 42.2045 23.3042 42.1544 23.3044ZM42.1461 23.1405C42.1497 23.1416 42.1534 23.1419 42.1571 23.1414C42.1608 23.1409 42.1643 23.1395 42.1674 23.1375C42.1714 23.1353 42.1747 23.132 42.1771 23.128C42.1794 23.124 42.1805 23.1195 42.1804 23.1149V21.8093C42.1804 21.8047 42.1792 21.8002 42.1769 21.7963C42.1747 21.7923 42.1714 21.789 42.1674 21.7867C42.1634 21.7844 42.1589 21.7832 42.1544 21.7832C42.1498 21.7832 42.1453 21.7844 42.1413 21.7867L41.1786 22.4365C41.1624 22.446 41.1607 22.4565 41.1607 22.4621C41.1606 22.4667 41.1618 22.4712 41.1641 22.4752C41.1664 22.4792 41.1697 22.4825 41.1738 22.4847L41.1786 22.4877L42.1461 23.1405Z" fill="#CCCCCC"/>
<path d="M54.6618 23.2775C54.6401 23.2775 54.6194 23.2689 54.6041 23.2536C54.5888 23.2383 54.5802 23.2176 54.5802 23.196V21.7276C54.5802 21.7059 54.5888 21.6852 54.6041 21.6699C54.6194 21.6546 54.6401 21.646 54.6618 21.646C54.6834 21.646 54.7042 21.6546 54.7195 21.6699C54.7348 21.6852 54.7434 21.7059 54.7434 21.7276V23.196C54.7434 23.2176 54.7348 23.2383 54.7195 23.2536C54.7042 23.2689 54.6834 23.2775 54.6618 23.2775Z" fill="#CCCCCC"/>
<path d="M53.4627 23.3041C53.43 23.3041 53.3978 23.2953 53.3696 23.2788C53.3407 23.2624 53.3166 23.2385 53.3 23.2097C53.2834 23.1809 53.2747 23.1482 53.2749 23.1149V21.8094C53.2749 21.7761 53.2837 21.7435 53.3003 21.7147C53.3169 21.686 53.3408 21.6621 53.3695 21.6455C53.3983 21.6289 53.431 21.6201 53.4642 21.6201C53.4974 21.6201 53.53 21.6289 53.5588 21.6455L54.5311 22.3013C54.5589 22.3179 54.5818 22.3415 54.5976 22.3697C54.6133 22.3979 54.6214 22.4298 54.6209 22.4621C54.6211 22.4949 54.6128 22.5271 54.5966 22.5555C54.5805 22.584 54.5572 22.6077 54.5291 22.6244L53.5636 23.2758C53.5331 23.294 53.4982 23.3038 53.4627 23.3041ZM53.4381 23.1149C53.4381 23.1195 53.4393 23.124 53.4416 23.128C53.4438 23.1319 53.4471 23.1352 53.4511 23.1375C53.4551 23.1398 53.4596 23.141 53.4641 23.141C53.4687 23.141 53.4732 23.1398 53.4772 23.1375L54.4436 22.4854C54.4477 22.4831 54.4512 22.4798 54.4537 22.4757C54.4562 22.4716 54.4576 22.467 54.4578 22.4622V22.4621C54.4579 22.4575 54.4567 22.453 54.4544 22.449C54.4521 22.4451 54.4488 22.4418 54.4448 22.4396L53.4724 21.7837C53.4688 21.7826 53.4651 21.7822 53.4614 21.7828C53.4577 21.7833 53.4542 21.7846 53.4511 21.7867C53.4471 21.789 53.4438 21.7922 53.4415 21.7962C53.4392 21.8002 53.438 21.8048 53.4381 21.8094L53.4381 23.1149Z" fill="#CCCCCC"/>
<path d="M43.5672 19.7913C44.1078 19.7913 44.5461 19.3531 44.5461 18.8124C44.5461 18.2718 44.1078 17.8335 43.5672 17.8335C43.0265 17.8335 42.5883 18.2718 42.5883 18.8124C42.5883 19.3531 43.0265 19.7913 43.5672 19.7913Z" fill="#3F3D56"/>
</g>
<defs>
<clipPath id="clip0_1275_9799">
<rect width="57.6901" height="44" fill="white"/>
</clipPath>
</defs>
</svg>
