<svg width="72" height="42" viewBox="0 0 72 42" fill="none" xmlns="http://www.w3.org/2000/svg">
<g clip-path="url(#clip0_1275_9845)">
<path opacity="0.1" d="M69.6072 39.0117C69.5401 39.0608 69.4711 39.1081 69.4014 39.1547C69.1446 39.3269 68.8764 39.4816 68.5988 39.6179C67.1403 40.3453 65.3436 40.7003 63.5928 40.9415C59.6668 41.4836 55.658 41.5887 51.666 41.6919C40.8813 41.9723 30.0679 42.2514 19.3106 41.6061C15.0606 41.3512 10.7155 40.9222 6.86337 39.6166C6.31171 39.4297 5.77041 39.2237 5.23947 38.9987C4.16641 38.5417 3.13562 37.9865 2.27828 37.325C1.47006 36.7033 0.81976 35.9884 0.429328 35.1764C-0.385107 33.4841 0.0457354 31.5836 0.975186 29.9255C1.36369 29.2526 1.80001 28.6085 2.28077 27.9982C2.99698 27.0644 3.78716 26.1598 4.50959 25.2272C7.07848 21.9061 8.7546 17.7114 6.38341 14.3095C5.69953 13.3321 4.71662 12.4742 4.16143 11.454C3.45206 10.1484 3.5074 8.69917 3.73308 7.28852C3.76167 7.11071 3.79525 6.93415 3.82571 6.75758C4.21303 4.67051 4.93421 2.42118 7.16676 1.11808C9.48573 -0.235993 12.7777 -0.167605 15.6568 0.316704C20.1331 1.07021 24.2624 2.64375 28.4322 4.06497C32.602 5.48619 36.9695 6.78432 41.5552 6.92482C45.6038 7.04916 50.3269 6.12468 53.0139 3.72552C55.625 1.39536 60.5303 1.21818 64.0678 2.62572C66.4925 3.59185 68.3047 5.33201 69.0688 7.28852C69.2233 7.68025 69.3348 8.08757 69.4014 8.50333C69.4634 8.88191 69.4843 9.26608 69.4636 9.64914C69.453 9.83565 69.4325 10.0253 69.4014 10.2087C68.8108 14.0713 64.5577 17.1177 61.9727 20.5682C60.7094 22.2536 59.8172 24.2779 60.6857 26.0951C62.0106 28.8642 66.618 29.8484 69.4014 31.91C69.9214 32.281 70.3825 32.7282 70.7692 33.2367C72.1152 35.072 71.6172 37.5488 69.6072 39.0117Z" fill="#6C63FF"/>
<path opacity="0.1" d="M33.4282 41.0237C42.6866 41.0237 50.1919 40.7688 50.1919 40.4543C50.1919 40.1397 42.6866 39.8848 33.4282 39.8848C24.1699 39.8848 16.6646 40.1397 16.6646 40.4543C16.6646 40.7688 24.1699 41.0237 33.4282 41.0237Z" fill="#6C63FF"/>
<path d="M46.7473 40.0756C46.7473 40.0756 50.3532 35.5079 50.0741 30.9676C49.9566 29.0615 50.4259 27.164 51.4748 25.5681C51.9737 24.812 52.541 24.1034 53.1695 23.4512" stroke="#535461" stroke-width="0.124341" stroke-miterlimit="10"/>
<path d="M53.0098 20.5881C52.7549 21.2235 53.1646 23.5263 53.1646 23.5263C53.1646 23.5263 55.054 22.1467 55.3089 21.5119C55.3695 21.3609 55.3999 21.1994 55.3981 21.0366C55.3963 20.8739 55.3626 20.713 55.2986 20.5633C55.2347 20.4136 55.142 20.278 55.0256 20.1642C54.9093 20.0503 54.7717 19.9605 54.6207 19.8998C54.4696 19.8392 54.3081 19.8089 54.1453 19.8106C53.9826 19.8124 53.8218 19.8462 53.6721 19.9101C53.5224 19.974 53.3867 20.0668 53.2729 20.1831C53.159 20.2994 53.0692 20.437 53.0086 20.5881H53.0098Z" fill="#6C63FF"/>
<path d="M49.6967 23.3416C49.8279 24.013 51.4238 25.7233 51.4238 25.7233C51.4238 25.7233 52.26 23.5386 52.1288 22.8672C52.0625 22.5479 51.8731 22.2677 51.6016 22.0872C51.3301 21.9066 50.9984 21.8404 50.6784 21.9028C50.3584 21.9652 50.0758 22.1513 49.8921 22.4206C49.7083 22.6899 49.6381 23.0208 49.6967 23.3416Z" fill="#6C63FF"/>
<path d="M47.3657 29.3845C47.8177 29.898 50.0583 30.5657 50.0583 30.5657C50.0583 30.5657 49.6772 28.258 49.2252 27.7444C49.1177 27.6223 48.9873 27.5226 48.8412 27.4509C48.6952 27.3793 48.5365 27.3371 48.3741 27.3267C48.2118 27.3164 48.049 27.3381 47.8951 27.3907C47.7412 27.4433 47.5991 27.5257 47.477 27.6331C47.3549 27.7406 47.2552 27.8711 47.1835 28.0171C47.1118 28.1632 47.0696 28.3219 47.0593 28.4842C47.0489 28.6466 47.0707 28.8093 47.1233 28.9633C47.1758 29.1172 47.2582 29.2593 47.3657 29.3814V29.3845Z" fill="#6C63FF"/>
<path d="M46.6309 34.354C46.9897 34.9366 49.0854 35.9767 49.0854 35.9767C49.0854 35.9767 49.0997 33.6372 48.741 33.0547C48.6563 32.9148 48.5448 32.7931 48.4129 32.6966C48.2809 32.6001 48.1312 32.5306 47.9723 32.4922C47.8134 32.4538 47.6484 32.4472 47.487 32.4728C47.3255 32.4985 47.1707 32.5558 47.0315 32.6415C46.8923 32.7272 46.7714 32.8397 46.6759 32.9723C46.5803 33.105 46.5119 33.2552 46.4747 33.4144C46.4375 33.5736 46.4321 33.7386 46.4589 33.8998C46.4857 34.0611 46.5442 34.2155 46.6309 34.354Z" fill="#6C63FF"/>
<path d="M53.7911 26.8163C53.1576 27.0755 50.8523 26.6814 50.8523 26.6814C50.8523 26.6814 52.2201 24.7827 52.8517 24.5234C53.1546 24.4047 53.492 24.4099 53.7912 24.5378C54.0903 24.6658 54.3271 24.9063 54.4504 25.2073C54.5737 25.5083 54.5737 25.8458 54.4504 26.1469C54.327 26.4479 54.0902 26.6883 53.7911 26.8163Z" fill="#6C63FF"/>
<path d="M52.8587 32.6168C52.1748 32.6753 50.0946 31.609 50.0946 31.609C50.0946 31.609 51.9666 30.2065 52.648 30.148C52.8116 30.1313 52.9769 30.1473 53.1342 30.1951C53.2916 30.2429 53.4378 30.3216 53.5645 30.4265C53.6911 30.5314 53.7956 30.6605 53.8718 30.8063C53.9481 30.952 53.9945 31.1114 54.0085 31.2753C54.0225 31.4391 54.0037 31.6041 53.9533 31.7607C53.9029 31.9172 53.8218 32.0621 53.7148 32.187C53.6077 32.3119 53.4769 32.4142 53.3299 32.488C53.183 32.5618 53.0228 32.6056 52.8587 32.6168Z" fill="#6C63FF"/>
<path d="M51.175 38.1307C50.5129 38.303 48.281 37.6042 48.281 37.6042C48.281 37.6042 49.8887 35.9057 50.5509 35.7328C50.8654 35.6603 51.1958 35.7135 51.4718 35.8809C51.7477 36.0483 51.9475 36.3168 52.0285 36.6293C52.1095 36.9417 52.0654 37.2735 51.9055 37.5539C51.7457 37.8343 51.4827 38.0413 51.1726 38.1307H51.175Z" fill="#6C63FF"/>
<path opacity="0.25" d="M53.0098 20.5881C52.7549 21.2235 53.1646 23.5263 53.1646 23.5263C53.1646 23.5263 55.054 22.1467 55.3089 21.5119C55.3695 21.3609 55.3999 21.1994 55.3981 21.0366C55.3963 20.8739 55.3626 20.713 55.2986 20.5633C55.2347 20.4136 55.142 20.278 55.0256 20.1642C54.9093 20.0503 54.7717 19.9605 54.6207 19.8998C54.4696 19.8392 54.3081 19.8089 54.1453 19.8106C53.9826 19.8124 53.8218 19.8462 53.6721 19.9101C53.5224 19.974 53.3867 20.0668 53.2729 20.1831C53.159 20.2994 53.0692 20.437 53.0086 20.5881H53.0098Z" fill="black"/>
<path opacity="0.25" d="M49.6967 23.3416C49.8279 24.013 51.4238 25.7233 51.4238 25.7233C51.4238 25.7233 52.26 23.5386 52.1288 22.8672C52.0625 22.5479 51.8731 22.2677 51.6016 22.0872C51.3301 21.9066 50.9984 21.8404 50.6784 21.9028C50.3584 21.9652 50.0758 22.1513 49.8921 22.4206C49.7083 22.6899 49.6381 23.0208 49.6967 23.3416Z" fill="black"/>
<path opacity="0.25" d="M47.3657 29.3845C47.8177 29.898 50.0583 30.5657 50.0583 30.5657C50.0583 30.5657 49.6772 28.258 49.2252 27.7444C49.1177 27.6223 48.9873 27.5226 48.8412 27.4509C48.6952 27.3793 48.5365 27.3371 48.3741 27.3267C48.2118 27.3164 48.049 27.3381 47.8951 27.3907C47.7412 27.4433 47.5991 27.5257 47.477 27.6331C47.3549 27.7406 47.2552 27.8711 47.1835 28.0171C47.1118 28.1632 47.0696 28.3219 47.0593 28.4842C47.0489 28.6466 47.0707 28.8093 47.1233 28.9633C47.1758 29.1172 47.2582 29.2593 47.3657 29.3814V29.3845Z" fill="black"/>
<path opacity="0.25" d="M46.6309 34.354C46.9897 34.9366 49.0854 35.9767 49.0854 35.9767C49.0854 35.9767 49.0997 33.6372 48.741 33.0547C48.6563 32.9148 48.5448 32.7931 48.4129 32.6966C48.2809 32.6001 48.1312 32.5306 47.9723 32.4922C47.8134 32.4538 47.6484 32.4472 47.487 32.4728C47.3255 32.4985 47.1707 32.5558 47.0315 32.6415C46.8923 32.7272 46.7714 32.8397 46.6759 32.9723C46.5803 33.105 46.5119 33.2552 46.4747 33.4144C46.4375 33.5736 46.4321 33.7386 46.4589 33.8998C46.4857 34.0611 46.5442 34.2155 46.6309 34.354Z" fill="black"/>
<path opacity="0.25" d="M53.7911 26.8163C53.1576 27.0755 50.8523 26.6814 50.8523 26.6814C50.8523 26.6814 52.2201 24.7827 52.8517 24.5234C53.1546 24.4047 53.492 24.4099 53.7912 24.5378C54.0903 24.6658 54.3271 24.9063 54.4504 25.2073C54.5737 25.5083 54.5737 25.8458 54.4504 26.1469C54.327 26.4479 54.0902 26.6883 53.7911 26.8163Z" fill="black"/>
<path opacity="0.25" d="M52.8587 32.6168C52.1748 32.6753 50.0946 31.609 50.0946 31.609C50.0946 31.609 51.9666 30.2065 52.648 30.148C52.8116 30.1313 52.9769 30.1473 53.1342 30.1951C53.2916 30.2429 53.4378 30.3216 53.5645 30.4265C53.6911 30.5314 53.7956 30.6605 53.8718 30.8063C53.9481 30.952 53.9945 31.1114 54.0085 31.2753C54.0225 31.4391 54.0037 31.6041 53.9533 31.7607C53.9029 31.9172 53.8218 32.0621 53.7148 32.187C53.6077 32.3119 53.4769 32.4142 53.3299 32.488C53.183 32.5618 53.0228 32.6056 52.8587 32.6168Z" fill="black"/>
<path opacity="0.25" d="M51.175 38.1307C50.5129 38.303 48.281 37.6042 48.281 37.6042C48.281 37.6042 49.8887 35.9057 50.5509 35.7328C50.8654 35.6603 51.1958 35.7135 51.4718 35.8809C51.7477 36.0483 51.9475 36.3168 52.0285 36.6293C52.1095 36.9417 52.0654 37.2735 51.9055 37.5539C51.7457 37.8343 51.4827 38.0413 51.1726 38.1307H51.175Z" fill="black"/>
<path d="M46.7783 39.8848C46.7783 39.8848 51.926 37.1711 53.5102 32.9068C54.1754 31.1163 55.3753 29.572 56.9787 28.5381C57.7414 28.0491 58.5474 27.631 59.3865 27.2891" stroke="#535461" stroke-width="0.124341" stroke-miterlimit="10"/>
<path d="M60.4 24.6064C59.9101 25.0832 59.3512 27.3549 59.3512 27.3549C59.3512 27.3549 61.6372 26.8576 62.1277 26.3826C62.3581 26.1523 62.4886 25.8406 62.4909 25.5149C62.4932 25.1892 62.3672 24.8757 62.1401 24.6422C61.9129 24.4087 61.603 24.2741 61.2774 24.2674C60.9517 24.2606 60.6365 24.3824 60.4 24.6064Z" fill="#6C63FF"/>
<path d="M56.2556 25.7817C56.1033 26.4488 56.8693 28.659 56.8693 28.659C56.8693 28.659 58.5186 27.0009 58.6722 26.3338C58.7122 26.1739 58.7198 26.0077 58.6947 25.8448C58.6696 25.6819 58.6123 25.5256 58.526 25.3852C58.4398 25.2447 58.3264 25.1229 58.1925 25.0268C58.0586 24.9307 57.9069 24.8623 57.7462 24.8256C57.5855 24.7889 57.4191 24.7846 57.2568 24.8129C57.0944 24.8413 56.9394 24.9018 56.8007 24.9908C56.662 25.0799 56.5425 25.1957 56.4491 25.3315C56.3557 25.4673 56.2904 25.6204 56.2569 25.7817H56.2556Z" fill="#6C63FF"/>
<path d="M51.6775 30.362C51.8826 31.0148 53.6595 32.5379 53.6595 32.5379C53.6595 32.5379 54.2464 30.2737 54.0412 29.6209C53.9951 29.4624 53.9177 29.3147 53.8137 29.1865C53.7097 29.0583 53.5812 28.9522 53.4356 28.8743C53.29 28.7965 53.1303 28.7486 52.9659 28.7333C52.8016 28.7181 52.6358 28.7358 52.4784 28.7855C52.3209 28.8353 52.175 28.9159 52.0492 29.0228C51.9234 29.1297 51.8202 29.2606 51.7458 29.408C51.6713 29.5553 51.627 29.716 51.6154 29.8807C51.6039 30.0454 51.6254 30.2107 51.6787 30.3669L51.6775 30.362Z" fill="#6C63FF"/>
<path d="M48.9902 34.6074C49.0823 35.2851 50.5762 37.0849 50.5762 37.0849C50.5762 37.0849 51.5374 34.9524 51.4466 34.2742C51.4247 34.1129 51.3713 33.9576 51.2894 33.817C51.2075 33.6764 51.0986 33.5533 50.9692 33.4547C50.8397 33.3562 50.692 33.2841 50.5347 33.2426C50.3773 33.2011 50.2134 33.191 50.0521 33.2129C49.8909 33.2348 49.7355 33.2882 49.5949 33.3701C49.4543 33.4521 49.3312 33.5609 49.2327 33.6904C49.1341 33.8199 49.0621 33.9675 49.0206 34.1248C48.9791 34.2822 48.969 34.4462 48.9909 34.6074H48.9902Z" fill="#6C63FF"/>
<path d="M58.5876 30.6163C57.9038 30.597 55.9553 29.302 55.9553 29.302C55.9553 29.302 57.974 28.1207 58.6579 28.1394C58.9832 28.1532 59.29 28.2945 59.5119 28.5327C59.7338 28.771 59.853 29.087 59.8438 29.4125C59.8346 29.7379 59.6976 30.0467 59.4626 30.2719C59.2275 30.4972 58.9132 30.6209 58.5876 30.6163Z" fill="#6C63FF"/>
<path d="M55.3846 35.5413C54.7381 35.3182 53.2665 33.5003 53.2665 33.5003C53.2665 33.5003 55.5457 32.9762 56.1929 33.1994C56.4965 33.3118 56.7441 33.5387 56.8826 33.8314C57.0211 34.1241 57.0395 34.4594 56.9339 34.7656C56.8282 35.0717 56.607 35.3243 56.3174 35.4693C56.0278 35.6143 55.693 35.6401 55.3846 35.5413Z" fill="#6C63FF"/>
<path d="M51.6151 39.9004C50.9399 39.7897 49.1818 38.2466 49.1818 38.2466C49.1818 38.2466 51.3403 37.3445 52.0155 37.4552C52.3351 37.5134 52.619 37.6947 52.8062 37.9601C52.9935 38.2256 53.0689 38.5539 53.0165 38.8745C52.964 39.195 52.7877 39.4822 52.5256 39.674C52.2635 39.8659 51.9366 39.9472 51.6151 39.9004Z" fill="#6C63FF"/>
<path d="M47.2296 40.2633H46.6782L42.6445 19.4405L42.1273 40.2633H41.5416L40.8863 19.4753L36.9559 40.2633H36.3354L39.0069 18.8611L39.094 18.1654L44.3343 17.5791L44.4972 18.8611L47.2296 40.2633Z" fill="#464353"/>
<path d="M36.098 13.4053H32.7626V15.4737H36.098V13.4053Z" fill="#464353"/>
<path d="M52.1157 12.5005L54.1325 11.686H54.5746C54.639 11.686 54.7009 11.7116 54.7465 11.7572C54.792 11.8028 54.8177 11.8647 54.8177 11.9291V17.609C54.8177 17.6735 54.792 17.7353 54.7465 17.7809C54.7009 17.8265 54.639 17.8521 54.5746 17.8521H54.1325L52.1157 17.0122V12.5005Z" fill="#464353"/>
<path d="M52.1156 12.7593H47.9918V16.7537H52.1156V12.7593Z" fill="#464353"/>
<path d="M43.4884 5.25635H40.8337V5.73879H43.4884V5.25635Z" fill="#514E7F"/>
<path d="M45.2767 5.88135H37.8044V11.3368H45.2767V5.88135Z" fill="#514E7F"/>
<path opacity="0.1" d="M45.2767 10.6909H37.8044V11.3375H45.2767V10.6909Z" fill="black"/>
<path opacity="0.1" d="M48.0951 12.7593H47.9279V16.7537H48.0951V12.7593Z" fill="black"/>
<path opacity="0.1" d="M36.098 13.4053H34.9603V15.4737H36.098V13.4053Z" fill="black"/>
<path opacity="0.1" d="M44.4972 18.8611H39.007L39.094 18.1654L44.3344 17.5791L44.4972 18.8611Z" fill="black"/>
<path d="M47.326 10.7939H35.7287C35.3613 10.7939 35.0635 11.0918 35.0635 11.4592V18.0922C35.0635 18.4596 35.3613 18.7574 35.7287 18.7574H47.326C47.6934 18.7574 47.9912 18.4596 47.9912 18.0922V11.4592C47.9912 11.0918 47.6934 10.7939 47.326 10.7939Z" fill="#514E7F"/>
<path d="M52.0763 12.5005H52.1155V17.0122H52.0763C51.9908 17.0122 51.9087 16.9782 51.8482 16.9177C51.7877 16.8572 51.7537 16.7751 51.7537 16.6895V12.8232C51.7537 12.7376 51.7877 12.6555 51.8482 12.595C51.9087 12.5345 51.9908 12.5005 52.0763 12.5005Z" fill="#514E7F"/>
<path d="M54.1323 11.688H54.5507C54.6215 11.688 54.6893 11.7161 54.7393 11.7661C54.7893 11.8161 54.8174 11.884 54.8174 11.9547V17.5886C54.8174 17.6593 54.7893 17.7272 54.7393 17.7772C54.6893 17.8272 54.6215 17.8553 54.5507 17.8553H54.1323V11.688Z" fill="#514E7F"/>
<path opacity="0.1" d="M33.3575 13.4053H32.7626V15.4737H33.3575V13.4053Z" fill="black"/>
<path d="M32.8059 12.7593H32.538C32.2907 12.7593 32.0903 12.9597 32.0903 13.2069V15.828C32.0903 16.0752 32.2907 16.2756 32.538 16.2756H32.8059C33.0531 16.2756 33.2535 16.0752 33.2535 15.828V13.2069C33.2535 12.9597 33.0531 12.7593 32.8059 12.7593Z" fill="#514E7F"/>
<path d="M37.8046 9.60451C39.861 9.60451 41.528 7.93749 41.528 5.88111C41.528 3.82474 39.861 2.15771 37.8046 2.15771C35.7482 2.15771 34.0812 3.82474 34.0812 5.88111C34.0812 7.93749 35.7482 9.60451 37.8046 9.60451Z" fill="#464353"/>
<path d="M37.8045 8.67428C39.3469 8.67428 40.5973 7.42394 40.5973 5.88157C40.5973 4.3392 39.3469 3.08887 37.8045 3.08887C36.2622 3.08887 35.0118 4.3392 35.0118 5.88157C35.0118 7.42394 36.2622 8.67428 37.8045 8.67428Z" fill="#6C63FF"/>
<path d="M44.7079 8.67412C46.2074 8.67412 47.4229 7.45858 47.4229 5.95913C47.4229 4.45968 46.2074 3.24414 44.7079 3.24414C43.2085 3.24414 41.9929 4.45968 41.9929 5.95913C41.9929 7.45858 43.2085 8.67412 44.7079 8.67412Z" fill="#464353"/>
<path d="M44.708 7.99503C45.8325 7.99503 46.7441 7.08344 46.7441 5.95894C46.7441 4.83444 45.8325 3.92285 44.708 3.92285C43.5835 3.92285 42.6719 4.83444 42.6719 5.95894C42.6719 7.08344 43.5835 7.99503 44.708 7.99503Z" fill="#6C63FF"/>
<path d="M44.4973 12.3365C44.6947 12.3365 44.8547 12.1765 44.8547 11.9791C44.8547 11.7816 44.6947 11.6216 44.4973 11.6216C44.2998 11.6216 44.1398 11.7816 44.1398 11.9791C44.1398 12.1765 44.2998 12.3365 44.4973 12.3365Z" fill="#6C63FF"/>
<path opacity="0.5" d="M45.6343 12.3365C45.8318 12.3365 45.9918 12.1765 45.9918 11.9791C45.9918 11.7816 45.8318 11.6216 45.6343 11.6216C45.4369 11.6216 45.2769 11.7816 45.2769 11.9791C45.2769 12.1765 45.4369 12.3365 45.6343 12.3365Z" fill="#6C63FF"/>
<path d="M41.1351 13.2127L41.1096 13.1624C41.2673 13.2148 41.4186 13.2844 41.561 13.37C41.4988 12.8298 39.4267 11.3128 39.0536 11.3128C38.6806 11.3128 38.2659 10.6687 38.2659 10.6687C38.2659 10.6687 37.1885 10.5027 37.0225 10.3268C36.8565 10.1508 35.7375 10.2534 35.4683 10.3156C35.1991 10.3778 34.7844 10.1496 34.7844 10.1496C34.7844 10.1496 34.5562 9.77657 34.2665 9.77657C33.9768 9.77657 33.6666 9.36127 33.6666 9.36127C33.6666 9.36127 33.3961 9.11259 33.1474 9.07031C32.8987 9.02804 32.5879 8.75946 32.4424 8.55119C32.2969 8.34292 31.572 8.24034 31.158 8.30251C30.7439 8.36468 29.6242 8.21795 29.6242 8.21795C30.0799 8.0103 30.19 7.5117 30.19 7.5117C29.7821 7.49056 28.7103 6.59033 28.7103 6.59033C28.7103 6.59033 28.7544 6.88129 28.8054 7.28726L28.7364 7.19836L28.7271 7.20582C28.7052 6.91619 28.7021 6.62545 28.7178 6.33543C28.7178 6.31305 28.7215 6.29066 28.7227 6.26766C28.9882 6.03513 29.185 5.73447 29.2919 5.39818C29.3989 5.0619 29.4119 4.70278 29.3295 4.35964C29.3183 4.31239 29.3053 4.26639 29.2904 4.221C29.3697 4.254 29.4535 4.27496 29.539 4.28317H29.5832C29.6346 4.28351 29.6855 4.27294 29.7326 4.25215C29.7796 4.23136 29.8217 4.20082 29.8561 4.16256C29.8678 4.14783 29.878 4.13201 29.8866 4.11531C29.8887 4.11214 29.8905 4.10881 29.8922 4.10537C29.8996 4.09011 29.9058 4.07431 29.9108 4.05812C29.9126 4.05239 29.914 4.04658 29.9152 4.04071C29.9183 4.028 29.9208 4.01513 29.9226 4.00216C29.9226 3.99159 29.9226 3.9804 29.9226 3.96921C29.9226 3.95802 29.9226 3.95305 29.9226 3.94497C29.9201 3.84938 29.899 3.75521 29.8605 3.66769C29.7952 3.50729 29.7013 3.34875 29.7081 3.17529C29.7081 3.16099 29.7113 3.14732 29.7131 3.13364C29.7305 2.99749 29.802 2.87128 29.8449 2.7401V2.7345C29.8511 2.71523 29.8561 2.69596 29.8605 2.67669C29.8625 2.67099 29.8642 2.66518 29.8654 2.65928C29.8701 2.63651 29.8732 2.61345 29.8748 2.59027C29.8748 2.59027 29.8748 2.58716 29.8748 2.58529C29.8909 2.32542 29.6814 2.0985 29.4439 1.99343C29.2313 1.89893 28.9882 1.87344 28.7936 1.74475C28.5717 1.59865 28.4498 1.34561 28.2857 1.1361C28.0469 0.831461 27.6733 0.603916 27.291 0.647435C27.0553 0.674168 26.8415 0.797888 26.6071 0.84576C26.2508 0.919743 25.8741 0.812187 25.5197 0.894874C25.4337 0.90917 25.3554 0.953167 25.2984 1.01922C25.2746 1.05255 25.2592 1.09116 25.2536 1.13174C25.2486 1.1693 25.2486 1.20734 25.2536 1.2449V1.248C25.2576 1.28384 25.2641 1.31936 25.2729 1.35432L25.2785 1.37608C25.2785 1.38354 25.2816 1.39037 25.2835 1.39783C25.2853 1.4053 25.2915 1.42705 25.2953 1.44135C25.3021 1.4656 25.3077 1.48985 25.3139 1.51472V1.52342C25.3195 1.54891 25.3251 1.5744 25.3295 1.60051C25.3395 1.65434 25.3461 1.70874 25.3494 1.7634C25.364 1.91722 25.3308 2.07181 25.2542 2.20605C25.0988 2.45474 24.7687 2.56478 24.6251 2.82403C24.5911 2.88658 24.57 2.95527 24.5629 3.02608C24.5603 3.04962 24.5593 3.07329 24.5598 3.09696V3.10628C24.5598 3.1268 24.5598 3.14732 24.5654 3.16845C24.5651 3.17342 24.5651 3.17841 24.5654 3.18338C24.5686 3.20182 24.5727 3.22008 24.5778 3.23809C24.5778 3.2443 24.5809 3.2499 24.5828 3.25549C24.5897 3.27676 24.598 3.29754 24.6077 3.31766C24.6742 3.45631 24.7998 3.5707 24.8259 3.72115C24.8259 3.7255 24.8259 3.72986 24.829 3.73483C24.8433 3.84798 24.7967 3.95864 24.7724 4.06993C24.7692 4.08347 24.7667 4.09716 24.765 4.11096C24.765 4.11531 24.765 4.11967 24.765 4.12402C24.765 4.12837 24.765 4.14267 24.765 4.15262C24.765 4.16256 24.765 4.16319 24.765 4.16878C24.765 4.17438 24.765 4.18557 24.765 4.19365C24.7646 4.19945 24.7646 4.20526 24.765 4.21106C24.765 4.21914 24.765 4.22722 24.765 4.23468C24.765 4.24214 24.765 4.24587 24.765 4.25147C24.765 4.25706 24.7687 4.26701 24.7712 4.27447L24.7755 4.29001C24.7785 4.29743 24.7818 4.3047 24.7855 4.31177L24.7923 4.32545C24.7969 4.33299 24.8018 4.34025 24.8072 4.34721C24.8095 4.35067 24.812 4.35399 24.8147 4.35716C24.8232 4.36715 24.8328 4.37612 24.8433 4.38389C24.9291 4.44606 25.0628 4.4299 25.133 4.50823C25.1409 4.51772 25.1476 4.52816 25.1529 4.53932L25.1566 4.54678C25.1618 4.55773 25.1657 4.56919 25.1684 4.58097C25.1784 4.6277 25.1784 4.67599 25.1684 4.72272C25.1436 4.84706 25.0907 4.96021 25.0628 5.08207C25.0572 5.10694 25.0534 5.13243 25.0503 5.15792C25.0503 5.16973 25.0503 5.18092 25.0472 5.19211V5.19957C25.0472 5.21014 25.0472 5.22133 25.0472 5.2319C25.0472 5.24247 25.0472 5.23749 25.0472 5.2406C25.0472 5.25615 25.0472 5.27231 25.0509 5.28785C25.0547 5.3034 25.0509 5.30277 25.0547 5.30961L25.0584 5.32764C25.0584 5.33572 25.0628 5.34381 25.0652 5.35189L25.0708 5.36743C25.0739 5.37613 25.0783 5.38484 25.082 5.39354C25.0839 5.3976 25.0859 5.40155 25.0882 5.40535C25.0945 5.41808 25.102 5.43015 25.1106 5.44141C25.1859 5.54337 25.3096 5.57757 25.4401 5.57819C25.5142 5.57777 25.588 5.56943 25.6602 5.55332C25.6764 5.59124 25.6932 5.62917 25.7112 5.66585C25.8013 5.84732 25.9194 6.01348 26.0612 6.15824C26.0612 6.17751 26.0575 6.19617 26.055 6.21606C26.0407 6.35781 26.0233 6.51013 26.0034 6.66369C25.8424 6.58971 25.718 6.56111 25.6689 6.61457C25.4607 6.84336 25.6689 7.63293 25.6689 7.63293C25.6689 7.63293 24.6524 7.63293 24.4037 7.8611C24.1551 8.08926 23.6994 7.8611 23.6994 7.8611C23.6994 7.8611 22.7668 7.96554 22.829 8.15268C22.8911 8.33981 22.3316 8.15268 22.3316 8.15268C22.3316 8.15268 21.9374 8.19433 21.9586 8.46353C21.9797 8.73273 21.3574 8.85769 21.4401 9.04483C21.5228 9.23196 21.0671 9.35568 21.0671 9.35568C21.0671 9.35568 20.6113 9.33516 20.7773 9.60436C20.7773 9.60436 20.5287 10.1863 20.3216 10.2261C20.1146 10.2659 19.8448 10.7452 19.8448 10.7452C19.8448 10.7452 19.0465 10.8907 19.0826 11.14C19.1186 11.3893 17.8553 13.173 17.8553 13.173C17.8553 13.173 17.4406 14.0278 17.731 14.6514C18.0213 15.2749 18.2283 15.6902 18.2905 15.9184C18.3527 16.1466 19.1062 17.1513 19.1 17.3384C19.1 17.3968 19.2865 17.7114 19.5408 18.1105L19.4662 18.1876L19.3026 18.3561C19.3026 18.3561 18.7841 19.6443 19.4059 19.7065C19.9312 19.7587 20.3086 19.7966 20.5001 19.7444C20.5311 19.7372 20.5606 19.7243 20.5871 19.7065L20.5946 19.7009C20.8209 20.0347 20.9813 20.2679 20.9813 20.2679C20.9813 20.2679 21.0036 20.2349 21.0434 20.1783L21.1056 20.2672C21.1056 20.2672 21.1553 20.1964 21.2399 20.0807C21.2125 20.6459 21.2088 21.2029 21.2088 21.2029C21.2088 21.2029 21.4786 21.1613 21.3543 22.4078C21.2299 23.6543 22.1003 24.672 22.1003 24.672V26.5216C22.1003 26.5216 22.1003 26.5682 22.109 26.646C22.132 26.9114 22.2079 27.5375 22.4317 27.9515C22.722 28.4912 22.4317 29.9043 22.4317 29.9043C22.4317 29.9043 22.4124 31.057 22.4821 32.4944C22.4821 32.5335 22.4864 32.5739 22.4883 32.6137C21.2312 33.6644 19.8827 35.057 19.8827 35.057C19.9487 35.0755 20.0116 35.1038 20.0692 35.141L19.994 35.2373L19.6514 35.6595L19.3866 35.9865L19.8062 37.279L20.2644 37.1C20.2644 37.1 20.5131 37.5308 20.4609 37.823C20.453 37.8758 20.4315 37.9257 20.3987 37.9679C20.3829 37.9891 20.3719 38.0135 20.3664 38.0394C20.2464 38.5075 20.7469 40.5262 21.5408 40.6138C21.5408 40.6138 21.81 40.7027 21.8964 40.4603C21.9381 40.3434 21.9374 40.1494 21.8442 39.8342C21.8442 39.8342 21.4245 39.3281 21.6962 38.7829C21.8554 38.464 22.1184 38.0369 22.3086 37.7353L22.3869 37.611C22.5579 37.8267 22.663 37.9654 22.663 37.9654L23.2735 37.3088C23.2865 37.3368 23.2996 37.3642 23.3133 37.3903C23.359 37.4817 23.4118 37.5695 23.4712 37.6526L23.8852 39.2946L24.0525 39.2573C24.0488 39.2971 24.0463 39.3393 24.0438 39.3816C24.0301 39.6763 24.0438 40.0587 24.1799 40.3316C24.2819 40.5405 24.4541 40.686 24.7351 40.6791C25.6988 40.6555 25.9785 40.1339 25.9785 40.1339V38.8283L26.3099 38.7543C26.3099 38.7543 26.2857 35.8858 26.2005 34.2861C26.2005 34.2507 26.1967 34.2165 26.1949 34.1829C26.1949 34.1779 26.1949 34.173 26.1949 34.1686L28.323 31.8801L28.4865 31.8148C29.8542 31.2746 29.8754 29.8826 29.8754 29.8826C29.8754 29.8826 29.8754 29.1141 30.0408 28.47C30.2061 27.826 30.0619 24.4806 29.751 23.65C29.4402 22.8194 29.3364 21.8831 29.3364 21.8831C29.3364 21.8831 29.6472 21.4479 29.3364 21.0854C29.2486 20.9769 29.1754 20.8574 29.1188 20.7298L29.5235 20.6633L29.7566 20.6247L29.881 20.6036C29.8188 21.1532 29.8082 21.5753 29.9556 21.676C30.4119 21.9869 31.945 20.9486 31.945 20.9486C31.3855 20.9486 31.0747 16.7726 31.1884 16.6688C31.3022 16.565 31.4719 14.4723 31.3233 14.0993C31.1748 13.7263 31.845 12.0607 31.845 12.0607L31.9482 11.9078C31.9482 11.9078 34.3939 12.9753 34.6631 13.1798C34.9323 13.3843 35.7822 12.6824 35.9271 12.9541C36.0719 13.2258 36.984 13.6305 36.984 13.6305C36.984 13.6305 38.3312 13.4944 38.4761 13.827C38.6209 14.1596 39.4919 14.9386 39.4919 14.9386C39.4924 14.756 39.5034 14.5735 39.5249 14.3921C39.5429 14.435 39.5603 14.4785 39.579 14.5227C39.9918 15.4994 40.6788 16.736 41.3154 16.0707C42.0366 15.3147 41.4876 13.9171 41.1351 13.2127ZM22.7021 17.6269V17.6387L22.6972 17.6337L22.7021 17.6269ZM22.2197 12.8347L21.9561 15.6144L21.4382 16.1509L21.376 16.2168L20.8407 15.6343C20.8407 15.6343 20.5709 15.51 20.8407 15.2812C21.1106 15.0524 20.385 14.5351 20.385 14.5351C20.385 14.5351 20.3639 14.1621 20.6337 14.0576C20.9035 13.9532 21.2554 13.2681 21.2554 13.2681L22.2296 12.7707L22.2197 12.8347ZM25.6863 27.0619C25.7052 27.0444 25.7261 27.0291 25.7485 27.0165C25.8648 26.9506 25.9394 27.0227 25.9779 27.1495C26.0287 27.3621 26.0133 27.5851 25.9338 27.7887C25.7889 28.1213 26.1414 29.4511 26.1414 29.4511C26.1414 29.4511 25.6851 29.6581 25.6024 30.0535C25.5901 30.1021 25.569 30.1481 25.5402 30.1891C25.5346 30.1542 25.5297 30.1207 25.5247 30.0883C25.4843 29.8397 25.4625 29.6793 25.4625 29.6793C25.3882 29.3593 25.3741 29.0283 25.4209 28.7032C25.4868 28.3034 25.6198 27.4915 25.6695 27.1837C25.682 27.1091 25.6888 27.0644 25.6894 27.0594L25.6863 27.0619Z" fill="url(#paint0_linear_1275_9845)"/>
<path d="M28.5758 6.81999L28.7101 6.73047L29.0887 7.52936L28.9432 7.70033H28.5031C28.5031 7.70033 28.5186 7.26514 28.5292 7.24959C28.5397 7.23405 28.5758 6.81999 28.5758 6.81999Z" fill="#464353"/>
<path d="M25.9766 38.4868V40.1965C25.9766 40.1965 25.6968 40.7169 24.7332 40.7405C24.6162 40.7474 24.4999 40.7178 24.4005 40.6558C24.301 40.5937 24.2233 40.5023 24.178 40.3942C24.0437 40.1219 24.0282 39.7402 24.0419 39.4461C24.0487 39.299 24.0643 39.1524 24.0885 39.0072L25.9766 38.4868Z" fill="#3F3D56"/>
<path opacity="0.1" d="M25.9767 38.4868V39.0159L24.042 39.4461C24.0489 39.299 24.0644 39.1524 24.0886 39.0072L25.9767 38.4868Z" fill="black"/>
<path d="M26.3079 38.8178L23.8833 39.3568L23.4692 37.7192C23.4099 37.6362 23.3571 37.5486 23.3113 37.4575C23.2845 37.4052 23.2584 37.3499 23.2336 37.2921C22.7822 36.2594 22.5814 34.3968 22.4956 32.8121C22.4913 32.7319 22.4869 32.6523 22.4832 32.574C22.4135 31.1403 22.4328 29.9902 22.4328 29.9902C22.4328 29.9902 22.7231 28.5807 22.4328 28.0423C22.209 27.627 22.1331 27.0029 22.1101 26.7368C22.1039 26.6578 22.1014 26.6124 22.1014 26.6124L22.1462 26.4949L22.329 26.0112H24.3396L25.5084 27.0004L25.6862 27.1508L25.6663 27.2752C25.6159 27.5823 25.4829 28.3942 25.4176 28.7909C25.3708 29.1152 25.385 29.4454 25.4593 29.7645C25.4593 29.7645 25.4835 29.9224 25.5214 30.1729C25.5308 30.2351 25.5413 30.301 25.5532 30.3725C25.7017 31.2914 25.9803 32.9694 26.099 33.3704C26.132 33.4804 26.1612 33.7565 26.1829 34.1301C26.1879 34.2047 26.1923 34.2824 26.1966 34.3639C26.2837 35.9567 26.3079 38.8178 26.3079 38.8178Z" fill="#514E7F"/>
<path opacity="0.1" d="M25.9766 40.1792V40.1966C25.9766 40.1966 25.6968 40.717 24.7332 40.7406C24.6162 40.7475 24.4999 40.7179 24.4004 40.6559C24.301 40.5938 24.2232 40.5024 24.178 40.3943C24.6101 40.5006 25.3113 40.569 25.9766 40.1792Z" fill="black"/>
<path d="M41.3122 16.1882C40.6731 16.8516 39.9892 15.6181 39.5757 14.6439C39.3438 14.0955 39.1984 13.6286 39.1984 13.6286L40.8994 12.9087C40.8994 12.9087 41.0038 13.0747 41.135 13.3377C41.4875 14.0402 42.0365 15.4341 41.3122 16.1882Z" fill="#A1616A"/>
<path d="M28.7195 6.47625C28.6923 7.0917 28.7384 7.70822 28.8569 8.31277C28.8569 8.31277 25.3965 8.68579 25.7074 8.14739C25.8895 7.83157 26.0077 6.99786 26.0736 6.36061C26.1214 5.90925 26.1426 5.55674 26.1426 5.55674C26.1426 5.55674 29.4581 4.23064 28.9608 5.34971C28.8122 5.68357 28.7432 6.07897 28.7195 6.47625Z" fill="#A1616A"/>
<path d="M29.0119 15.38L28.5469 20.9337L30.6812 20.5818L30.3082 16.0017L30.4325 14.7788L29.0119 15.38Z" fill="#464353"/>
<path opacity="0.1" d="M30.6811 20.5901L29.7541 20.7431L28.5461 20.942L28.6313 19.9286L29.0118 15.3883L29.4961 15.1831L29.8393 15.0383L30.4324 14.7871L30.3081 16.01L30.6811 20.5901Z" fill="black"/>
<path d="M21.6945 38.843C21.4228 39.387 21.8425 39.8918 21.8425 39.8918C21.9357 40.207 21.9363 40.3998 21.8947 40.5136C21.8083 40.7554 21.5391 40.6665 21.5391 40.6665C20.6923 40.5732 20.1794 38.2891 20.397 38.0273C20.6146 37.7656 20.2646 37.1644 20.2646 37.1644L19.8064 37.3428L19.3867 36.0534L19.6516 35.727L19.9941 35.3055L20.226 35.0195L22.5419 37.4361C22.5419 37.4361 22.443 37.5847 22.3069 37.7979C22.1166 38.097 21.8537 38.526 21.6945 38.843Z" fill="#3F3D56"/>
<path opacity="0.1" d="M26.1985 34.361L23.3113 37.4577C22.8052 36.4692 22.5876 34.4859 22.4956 32.8117C23.0334 32.3641 23.5525 31.9786 23.9454 31.7927C23.9454 31.7927 25.2746 30.8309 25.555 30.3696C25.7036 31.2885 25.9821 32.9665 26.1009 33.3675C26.14 33.4993 26.1724 33.8692 26.1985 34.361Z" fill="black"/>
<path opacity="0.1" d="M25.5085 26.9999L22.1464 26.4944L22.3291 26.0107H24.3397L25.5085 26.9999Z" fill="black"/>
<path opacity="0.1" d="M26.1875 34.127L23.2363 37.2921C22.7824 36.2594 22.5816 34.3968 22.4958 32.812C22.4915 32.7318 22.4871 32.6523 22.4834 32.5739C23.0261 32.1213 23.5515 31.7321 23.9457 31.5444C23.9457 31.5444 25.186 30.6473 25.5235 30.1704C25.5329 30.2326 25.5434 30.2985 25.5552 30.37C25.7038 31.2889 25.9824 32.9668 26.1011 33.3678C26.1341 33.4773 26.1614 33.7533 26.1875 34.127Z" fill="black"/>
<path opacity="0.1" d="M22.5416 37.4371C22.5416 37.4371 22.4428 37.5857 22.3066 37.7989C21.8124 37.1741 20.6405 35.7355 19.9939 35.3065L20.2258 35.0205L22.5416 37.4371Z" fill="black"/>
<path d="M30.0382 28.5591C29.8728 29.2019 29.8728 29.9685 29.8728 29.9685C29.8728 29.9685 29.8517 31.3568 28.4839 31.8958L28.3204 31.958L22.6629 38.0277C22.6629 38.0277 20.5696 35.2922 19.8857 35.1262C19.8857 35.1262 22.6418 32.2868 23.9473 31.6651C23.9473 31.6651 25.5228 30.5255 25.6054 30.132C25.6881 29.7385 26.1445 29.5308 26.1445 29.5308C26.1445 29.5308 25.792 28.2047 25.9368 27.8727C26.0163 27.6698 26.0317 27.4474 25.981 27.2355C25.9424 27.1111 25.8678 27.0371 25.7515 27.1024C25.7291 27.1151 25.7082 27.1303 25.6894 27.1478L22.1046 26.6088V24.7667C22.1046 24.7667 21.2342 23.7514 21.3586 22.508C21.4829 21.2646 21.2131 21.3063 21.2131 21.3063C21.2131 21.3063 21.2261 19.2061 21.4033 19.0308C21.5805 18.8555 23.2827 18.0522 23.2827 18.0522L28.6195 19.0003L28.8396 20.0212C28.8396 20.0212 29.0261 20.8331 29.3369 21.1937C29.6478 21.5543 29.3369 21.9889 29.3369 21.9889C29.3369 21.9889 29.4407 22.9215 29.7516 23.7514C30.0625 24.5814 30.2042 27.9169 30.0382 28.5591Z" fill="#514E7F"/>
<path opacity="0.1" d="M28.9608 5.34971C28.8122 5.68357 28.7432 6.08146 28.7196 6.47625C28.3473 6.79873 27.8657 6.96643 27.3736 6.94493C26.8815 6.92342 26.4164 6.71434 26.0736 6.36061C26.1215 5.90925 26.1426 5.55674 26.1426 5.55674C26.1426 5.55674 29.4582 4.23064 28.9608 5.34971Z" fill="black"/>
<path d="M29.385 4.9602C29.3847 5.45162 29.1967 5.92436 28.8594 6.28177C28.5221 6.63918 28.0611 6.85425 27.5705 6.88302C27.0799 6.91179 26.5969 6.75207 26.2202 6.43653C25.8434 6.12099 25.6015 5.67346 25.5437 5.18544C25.486 4.69743 25.6169 4.20579 25.9096 3.81106C26.2023 3.41633 26.6347 3.14832 27.1185 3.06183C27.6022 2.97534 28.1007 3.0769 28.5121 3.34575C28.9234 3.61461 29.2166 4.03043 29.3315 4.50822C29.3671 4.65624 29.3851 4.80796 29.385 4.9602Z" fill="#A1616A"/>
<path opacity="0.1" d="M27.8213 8.31266C27.8213 8.31266 26.4361 7.67043 26.3497 7.58713C26.2633 7.50382 23.3898 14.8822 23.3898 14.8822L22.5815 18.5503C22.5815 18.5503 26.8918 20.3943 27.8244 20.1456C28.757 19.8969 28.8396 20.1456 28.8396 20.1456C28.8396 20.1456 29.7933 14.7989 30.1042 14.3227C30.415 13.8465 29.8139 8.99653 29.8139 8.99653L28.7364 7.5865L27.8213 8.31266Z" fill="black"/>
<path opacity="0.1" d="M27.8213 8.06412C27.8213 8.06412 26.4361 7.4219 26.3497 7.33859C26.2633 7.25528 23.3898 14.6337 23.3898 14.6337L22.5815 18.3018C22.5815 18.3018 26.8918 20.1457 27.8244 19.8971C28.757 19.6484 28.8396 19.8971 28.8396 19.8971C28.8396 19.8971 29.7933 14.5504 30.1042 14.0742C30.415 13.5979 29.8139 8.748 29.8139 8.748L28.7364 7.33797L27.8213 8.06412Z" fill="black"/>
<path d="M30.1005 14.1985C30.0383 14.2974 29.9444 14.6045 29.8394 15.0298C29.766 15.3257 29.6864 15.6782 29.605 16.0574C29.2382 17.769 28.8366 20.0221 28.8366 20.0221C28.8366 20.0221 28.8111 19.9462 28.6314 19.9201C28.4859 19.899 28.2385 19.9108 27.8232 20.0221C26.8906 20.2707 22.5797 18.4261 22.5797 18.4261L22.7041 17.8666L23.3879 14.7581C23.3879 14.7581 26.2689 7.38028 26.3516 7.46359C26.402 7.51395 26.9404 7.77444 27.3507 7.96779C27.6124 8.09214 27.8232 8.1885 27.8232 8.1885L28.6936 7.50089L28.7414 7.46297L29.8139 8.87238C29.8139 8.87238 30.4113 13.7217 30.1005 14.1985Z" fill="#6C63FF"/>
<path opacity="0.1" d="M26.8053 8.91443C26.9296 9.39252 26.6399 10.1784 26.6399 10.1784C26.6399 10.1784 25.6452 12.6242 25.3549 13.7544C25.0645 14.8847 23.4039 17.1626 23.4039 17.1626C23.4039 17.1626 23.1602 17.4069 22.8189 17.747C22.781 17.7849 22.7412 17.8241 22.7014 17.8651L23.3853 14.7566C23.3853 14.7566 26.2663 7.37882 26.349 7.46213C26.3993 7.51248 26.9377 7.77298 27.3481 7.96633C27.0913 8.20009 26.7226 8.59798 26.8053 8.91443Z" fill="black"/>
<path d="M26.6811 8.91387C26.8055 9.39196 26.5158 10.1778 26.5158 10.1778C26.5158 10.1778 25.521 12.6236 25.2307 13.7539C24.9403 14.8841 23.2798 17.162 23.2798 17.162C23.2798 17.162 23.0361 17.4064 22.6947 17.7465C22.6543 17.7869 22.6121 17.8285 22.5704 17.8708C21.9039 18.5342 20.967 19.4642 20.6742 19.7359C20.6313 19.7763 20.6021 19.8024 20.5896 19.8111C20.5632 19.829 20.5337 19.8418 20.5026 19.8491C20.3111 19.9013 19.9337 19.8634 19.4084 19.8111C18.7867 19.749 19.3052 18.4645 19.3052 18.4645L19.4687 18.296L19.6179 18.1419L21.3114 16.3992L21.4358 16.268L21.9537 15.734L22.2173 12.9612L22.2235 12.8947C22.2235 12.8947 22.1464 12.7187 22.0277 12.4501C21.7112 11.7234 21.0895 10.3208 20.862 9.86757C20.8358 9.81472 20.8153 9.77556 20.7998 9.75131C20.7998 9.7482 20.7967 9.74509 20.7948 9.7426C20.6288 9.47341 21.0845 9.49392 21.0845 9.49392C21.0845 9.49392 21.5409 9.36958 21.4575 9.18307C21.3742 8.99656 21.9966 8.87222 21.9761 8.60302C21.9555 8.33382 22.3491 8.29216 22.3491 8.29216C22.3491 8.29216 22.9086 8.47868 22.8464 8.29216C22.7843 8.10565 23.7168 8.00183 23.7168 8.00183C23.7168 8.00183 24.1725 8.22999 24.4212 8.00183C24.6699 7.77366 25.6901 7.77428 25.6901 7.77428C25.6901 7.77428 25.4819 6.98658 25.6901 6.75841C25.8984 6.53025 27.4601 7.77428 27.4601 7.77428C27.4601 7.77428 26.5568 8.4364 26.6811 8.91387Z" fill="#464353"/>
<path opacity="0.1" d="M21.5004 19.524C21.5004 19.524 23.2206 21.9487 24.4224 21.1616C25.6241 20.3745 22.8059 18.3223 22.8059 18.3223L21.5004 19.524Z" fill="black"/>
<path d="M21.5004 19.3995C21.5004 19.3995 23.2206 21.8242 24.4224 21.0371C25.6241 20.25 22.8059 18.1978 22.8059 18.1978L21.5004 19.3995Z" fill="#A1616A"/>
<path opacity="0.1" d="M29.7542 20.7345C29.8853 19.5899 30.2658 17.8703 29.9556 17.3486C29.802 17.09 29.6883 16.597 29.605 16.0574C29.5602 15.767 29.5248 15.463 29.4962 15.1745C29.4203 14.4092 29.3961 13.7539 29.3961 13.7539C29.3961 13.7539 28.65 10.4266 28.7949 9.74269C28.8856 9.31495 28.7812 8.24313 28.6904 7.50081L28.7383 7.46289L29.8107 8.8723C29.8107 8.8723 30.4113 13.7216 30.1005 14.1985C30.0383 14.2973 29.9444 14.6044 29.8393 15.0297L30.4325 14.781L30.3081 16.0039L30.6811 20.584L29.7542 20.7345Z" fill="black"/>
<path d="M28.7102 6.73047C28.7102 6.73047 29.782 7.62883 30.1899 7.64935C30.1899 7.64935 30.0798 8.14672 29.6241 8.35437C29.6241 8.35437 30.7432 8.50233 31.1579 8.4383C31.5725 8.37426 32.2975 8.47871 32.4423 8.68698C32.5872 8.89525 32.9018 9.16259 33.1504 9.20362C33.3991 9.24465 33.6696 9.49395 33.6696 9.49395L31.8448 12.1878C31.8448 12.1878 31.1815 13.8459 31.3263 14.2189C31.4712 14.5919 31.3052 16.6852 31.1914 16.7884C31.0777 16.8916 31.3885 21.0577 31.9481 21.0577C31.9481 21.0577 30.4149 22.0941 29.9586 21.7832C29.5023 21.4724 30.5393 18.1152 30.0829 17.348C29.6266 16.5808 29.5234 13.7533 29.5234 13.7533C29.5234 13.7533 28.7774 10.4265 28.9228 9.74264C29.0683 9.05876 28.7102 6.73047 28.7102 6.73047Z" fill="#464353"/>
<path opacity="0.1" d="M41.135 13.3373C40.581 13.1645 39.7324 13.1595 39.5757 14.6429C39.3438 14.0946 39.1984 13.6277 39.1984 13.6277L40.8994 12.9077C40.8994 12.9077 41.0038 13.0743 41.135 13.3373Z" fill="black"/>
<path d="M32.653 9.36963L33.6695 9.49397C33.6695 9.49397 33.9804 9.90865 34.2695 9.90865C34.5586 9.90865 34.7874 10.2817 34.7874 10.2817C34.7874 10.2817 35.202 10.5092 35.4712 10.447C35.7404 10.3849 36.8595 10.2823 37.0255 10.4582C37.1915 10.6342 38.2689 10.7996 38.2689 10.7996C38.2689 10.7996 38.6836 11.4418 39.0566 11.4418C39.4296 11.4418 41.5018 12.955 41.564 13.4934C41.564 13.4934 39.5123 12.1878 39.4918 15.0582C39.4918 15.0582 38.6214 14.2811 38.4759 13.9497C38.3305 13.6184 36.9838 13.7533 36.9838 13.7533C36.9838 13.7533 36.0724 13.3486 35.9269 13.0794C35.7815 12.8102 34.9322 13.5083 34.663 13.3038C34.3938 13.0992 31.948 12.0349 31.948 12.0349L31.1914 10.613L32.653 9.36963Z" fill="#464353"/>
<path d="M27.9662 11.8881C28.0636 11.8881 28.1425 11.8092 28.1425 11.7119C28.1425 11.6145 28.0636 11.5356 27.9662 11.5356C27.8689 11.5356 27.79 11.6145 27.79 11.7119C27.79 11.8092 27.8689 11.8881 27.9662 11.8881Z" fill="#3F3D56"/>
<path d="M27.7903 15.5619C27.8877 15.5619 27.9666 15.483 27.9666 15.3857C27.9666 15.2884 27.8877 15.2095 27.7903 15.2095C27.693 15.2095 27.6141 15.2884 27.6141 15.3857C27.6141 15.483 27.693 15.5619 27.7903 15.5619Z" fill="#3F3D56"/>
<path d="M27.9662 13.6283C28.0636 13.6283 28.1425 13.5494 28.1425 13.4521C28.1425 13.3548 28.0636 13.2759 27.9662 13.2759C27.8689 13.2759 27.79 13.3548 27.79 13.4521C27.79 13.5494 27.8689 13.6283 27.9662 13.6283Z" fill="#3F3D56"/>
<path d="M27.4584 17.4955C27.5558 17.4955 27.6346 17.4166 27.6346 17.3193C27.6346 17.222 27.5558 17.1431 27.4584 17.1431C27.3611 17.1431 27.2822 17.222 27.2822 17.3193C27.2822 17.4166 27.3611 17.4955 27.4584 17.4955Z" fill="#3F3D56"/>
<path opacity="0.1" d="M21.8978 40.5167C21.8114 40.7585 21.5422 40.6696 21.5422 40.6696C20.6954 40.5764 20.1825 38.2922 20.4001 38.0305C20.6177 37.7687 20.2646 37.1644 20.2646 37.1644L19.8064 37.3429L19.3867 36.0534L19.6516 35.7271C19.9152 36.184 20.2925 36.8411 20.3814 37.009C20.5503 37.3571 20.6303 37.7415 20.6146 38.1281C20.6003 38.5322 21.0691 40.4645 21.8978 40.5167Z" fill="black"/>
<path opacity="0.1" d="M29.3313 4.50568C29.289 4.49138 29.2467 4.47459 29.2069 4.45781C29.0646 4.39999 28.9147 4.33347 28.8283 4.20912C28.7493 4.09349 28.7239 3.9306 28.6008 3.8647C28.459 3.78885 28.2899 3.89143 28.1363 3.92687C27.9536 3.96977 27.7633 3.91879 27.5855 3.85351C27.3207 3.7559 26.9507 3.57623 26.6791 3.76212C26.4677 3.90635 26.5497 4.21223 26.4957 4.43045C26.4117 4.76928 26.0518 4.98999 25.984 5.33255C25.9535 5.48362 25.9734 5.66827 25.851 5.76215C25.8152 5.78763 25.7746 5.80541 25.7316 5.81437C25.6115 5.5713 25.5441 5.30563 25.5338 5.03473C25.5234 4.76384 25.5703 4.49379 25.6714 4.24225C25.7725 3.99071 25.9255 3.76333 26.1205 3.57496C26.3154 3.38658 26.5479 3.24146 26.8028 3.14907C27.0577 3.05668 27.3292 3.0191 27.5996 3.03878C27.8699 3.05846 28.1331 3.13496 28.3719 3.26329C28.6107 3.39161 28.8198 3.56887 28.9854 3.78349C29.151 3.99811 29.2695 4.24526 29.3331 4.50879L29.3313 4.50568Z" fill="black"/>
<path d="M27.5845 3.72719C27.7604 3.79246 27.9519 3.84344 28.1353 3.79993C28.2913 3.76324 28.4573 3.66066 28.5991 3.73775C28.7234 3.80428 28.7483 3.96654 28.8266 4.08218C28.9131 4.20652 29.0629 4.27615 29.2059 4.33086C29.3125 4.38058 29.4265 4.4125 29.5435 4.42536C29.602 4.43109 29.661 4.42324 29.716 4.40243C29.771 4.38162 29.8205 4.34841 29.8605 4.30537C29.9712 4.17171 29.9376 3.97152 29.8717 3.81174C29.8058 3.65196 29.7126 3.4928 29.7194 3.31997C29.7275 3.1148 29.8761 2.93638 29.8885 2.73183C29.9047 2.47258 29.6952 2.24628 29.4577 2.14121C29.245 2.04734 29.002 2.02122 28.8074 1.89253C28.5854 1.74705 28.4636 1.49464 28.2994 1.28574C28.0607 0.98173 27.687 0.754807 27.3047 0.798326C27.0691 0.82506 26.8552 0.948158 26.6208 0.99603C26.2646 1.07001 25.8878 0.962457 25.5335 1.04514C25.4478 1.05861 25.3696 1.10148 25.3121 1.16638C25.2251 1.28326 25.2699 1.44677 25.3084 1.58727C25.3774 1.84031 25.4066 2.12691 25.2692 2.34948C25.1138 2.60127 24.7837 2.70759 24.6401 2.96622C24.5985 3.04209 24.5756 3.12672 24.5731 3.21318C24.5706 3.29964 24.5887 3.38545 24.6258 3.46358C24.6942 3.60657 24.8266 3.72283 24.8471 3.88013C24.8614 3.99328 24.8148 4.10332 24.7905 4.21398C24.7663 4.32465 24.7731 4.46266 24.8645 4.52484C24.9559 4.58701 25.084 4.57146 25.1542 4.64918C25.1755 4.68004 25.1895 4.7153 25.1952 4.75234C25.2009 4.78937 25.1981 4.82722 25.1872 4.86304C25.1623 4.98738 25.1095 5.09991 25.0815 5.22177C25.0635 5.28153 25.0585 5.34443 25.0668 5.40628C25.075 5.46814 25.0964 5.52752 25.1293 5.58049C25.25 5.74338 25.4937 5.73343 25.6889 5.68991C25.7452 5.68095 25.7989 5.65973 25.8462 5.62774C25.9705 5.53386 25.9488 5.34922 25.9792 5.19814C26.047 4.8562 26.407 4.63426 26.4909 4.29605C26.545 4.07783 26.4629 3.77133 26.6743 3.62709C26.9491 3.4499 27.3196 3.62958 27.5845 3.72719Z" fill="#464353"/>
<path opacity="0.1" d="M27.2822 26.2178C27.2822 26.2178 29.2338 27.4612 29.2959 27.938L27.2822 26.2178Z" fill="black"/>
<path opacity="0.1" d="M27.1821 27.2129C27.1821 27.2129 29.4203 28.2903 29.2959 28.6633L27.1821 27.2129Z" fill="black"/>
<path opacity="0.1" d="M27.0333 28.166C27.0333 28.166 28.2979 28.8294 28.3806 29.2229L27.0333 28.166Z" fill="black"/>
<path opacity="0.1" d="M27.5725 29.6577C27.5725 29.6577 28.4012 30.3832 28.5672 30.1967C28.7332 30.0102 27.5725 29.6577 27.5725 29.6577Z" fill="black"/>
<path opacity="0.1" d="M26.412 30.1143C26.412 30.1143 27.0579 31.15 26.7471 31.2122C26.4362 31.2744 26.412 30.1143 26.412 30.1143Z" fill="black"/>
<path opacity="0.1" d="M23.5762 11.7119C23.5762 11.7119 22.4776 12.3747 22.809 12.5406C23.1404 12.7066 23.5762 11.7119 23.5762 11.7119Z" fill="black"/>
<path opacity="0.1" d="M23.5762 9.26611C23.5762 9.26611 22.4571 11.3177 22.975 11.1729C23.4928 11.028 23.5762 9.26611 23.5762 9.26611Z" fill="black"/>
<path opacity="0.1" d="M35.4682 11.3174C35.4682 11.3174 34.7843 12.1219 34.9087 12.5608L35.4682 11.3174Z" fill="black"/>
<path opacity="0.1" d="M37.2538 11.7119C37.2538 11.7119 36.2274 12.6233 36.3779 12.7272L37.2538 11.7119Z" fill="black"/>
<path opacity="0.1" d="M37.893 12.8315C37.893 12.8315 37.789 13.4318 37.9552 13.4542L37.893 12.8315Z" fill="black"/>
<path opacity="0.05" d="M26.6915 25.4763C26.4273 25.8183 26.4273 26.4244 26.3079 26.6731C26.2426 26.8099 26.0972 27.0461 25.979 27.2376C25.9405 27.1133 25.8659 27.0393 25.7496 27.1046C25.6731 26.5345 25.5382 25.5503 25.4947 25.352C25.4325 25.0722 26.1164 24.3262 26.1164 24.3262C26.1164 24.3262 26.7848 24.4661 26.9557 24.808C27.1267 25.1499 26.9557 25.135 26.6915 25.4763Z" fill="black"/>
<path opacity="0.1" d="M23.2412 18.2811C22.4951 18.3843 21.1068 20.3737 21.1068 20.3737C21.1068 20.3737 20.9247 20.1089 20.6716 19.739C20.3533 19.2696 19.9256 18.6298 19.6147 18.1449L21.4363 16.2661L21.7677 16.623C21.7677 16.623 22.4106 17.2652 22.4106 17.3895C22.4106 17.438 22.5349 17.5854 22.6928 17.7464C22.9347 17.9969 23.2412 18.2811 23.2412 18.2811Z" fill="black"/>
<path opacity="0.1" d="M20.8619 9.86772C20.8357 9.81488 20.8152 9.77571 20.7997 9.75146L21.6029 9.80493L22.0288 12.4484C21.7111 11.7235 21.0894 10.3209 20.8619 9.86772Z" fill="black"/>
<path opacity="0.1" d="M22.569 17.8729C21.9025 18.5362 20.9656 19.4663 20.6728 19.738C20.6299 19.7784 20.6007 19.8045 20.5882 19.8132C20.5618 19.831 20.5323 19.8439 20.5012 19.8511C20.2084 19.4209 19.7906 18.8011 19.4673 18.2969L19.6165 18.1427L21.3113 16.3994L21.5208 16.6251C21.5208 16.6251 22.1636 17.2673 22.1636 17.3917C22.1636 17.4513 22.3644 17.6677 22.569 17.8729Z" fill="black"/>
<path d="M21.7285 9.80485L20.7959 9.74268C20.7959 9.74268 20.5472 10.3227 20.3402 10.3644C20.1332 10.406 19.8634 10.8823 19.8634 10.8823C19.8634 10.8823 19.0651 11.0277 19.0999 11.2764C19.1347 11.5251 17.8726 13.3038 17.8726 13.3038C17.8726 13.3038 17.458 14.1568 17.7483 14.7785C18.0386 15.4002 18.2457 15.8149 18.3078 16.0424C18.37 16.27 19.1061 17.2653 19.0999 17.4518C19.0937 17.6383 20.9812 20.3739 20.9812 20.3739C20.9812 20.3739 22.3695 18.3844 23.1155 18.2806C23.1155 18.2806 22.2868 17.514 22.2868 17.3897C22.2868 17.2653 21.6489 16.6231 21.6489 16.6231L20.8407 15.7527C20.8407 15.7527 20.5709 15.6284 20.8407 15.4002C21.1105 15.172 20.385 14.6542 20.385 14.6542C20.385 14.6542 20.3638 14.2811 20.6336 14.1773C20.9035 14.0735 21.2554 13.3902 21.2554 13.3902L22.2296 12.8929L21.7285 9.80485Z" fill="#464353"/>
<path opacity="0.1" d="M18.1674 13.9288C18.1674 13.9288 19.2864 13.7012 19.3069 13.8461C19.3275 13.991 18.1674 13.9288 18.1674 13.9288Z" fill="black"/>
<path opacity="0.1" d="M19.1 15.0586C19.1 15.0586 20.0487 15.1829 20.007 15.3856C19.9654 15.5883 19.1 15.0586 19.1 15.0586Z" fill="black"/>
<path opacity="0.1" d="M19.8839 11.5352C19.8839 11.5352 20.796 12.8264 20.9203 12.5591L19.8839 11.5352Z" fill="black"/>
<g opacity="0.1">
<path opacity="0.1" d="M25.3654 1.91449C25.371 1.76362 25.3521 1.61285 25.3094 1.46805C25.2914 1.4068 25.2777 1.34439 25.2683 1.28125C25.2603 1.38675 25.2743 1.49276 25.3094 1.59258C25.339 1.6977 25.3577 1.80556 25.3654 1.91449Z" fill="black"/>
<path opacity="0.1" d="M29.7243 3.28187C29.7486 3.09508 29.8768 2.92509 29.8887 2.73394C29.8906 2.70214 29.8893 2.67023 29.8849 2.63867C29.8607 2.83169 29.7268 3.00292 29.7193 3.19906C29.7185 3.22676 29.7202 3.25447 29.7243 3.28187Z" fill="black"/>
<path opacity="0.1" d="M29.8604 4.18274C29.8203 4.22578 29.7709 4.25899 29.7159 4.2798C29.6609 4.30061 29.6019 4.30846 29.5433 4.30273C29.4264 4.28988 29.3124 4.25795 29.2058 4.20824C29.0628 4.15042 28.9129 4.08389 28.8265 3.95955C28.7476 3.84392 28.7221 3.68165 28.599 3.61513C28.4572 3.53928 28.2881 3.64186 28.1346 3.6773C27.9518 3.72082 27.7615 3.66984 27.5843 3.60456C27.3195 3.50695 26.949 3.32728 26.6773 3.51255C26.4659 3.65678 26.548 3.96328 26.4939 4.1815C26.4099 4.51971 26.05 4.74104 25.9822 5.0836C25.9517 5.23467 25.9716 5.41932 25.8492 5.5132C25.8017 5.54528 25.7478 5.56651 25.6912 5.57537C25.4935 5.61889 25.2498 5.62883 25.1317 5.46595C25.0976 5.41939 25.0762 5.36476 25.0695 5.30741C25.0535 5.40618 25.0757 5.50735 25.1317 5.59029C25.2523 5.75318 25.496 5.74323 25.6912 5.69971C25.7478 5.69085 25.8017 5.66963 25.8492 5.63754C25.9735 5.54366 25.9517 5.35901 25.9822 5.20794C26.05 4.866 26.4099 4.64405 26.4939 4.30584C26.548 4.08762 26.4659 3.78112 26.6773 3.63689C26.949 3.45037 27.3195 3.63129 27.5843 3.7289C27.7603 3.79418 27.9518 3.84516 28.1346 3.80164C28.2912 3.76496 28.4572 3.66238 28.599 3.73947C28.7233 3.80599 28.7476 3.96826 28.8265 4.08389C28.9129 4.20824 29.0628 4.27787 29.2058 4.33258C29.3124 4.38229 29.4264 4.41422 29.5433 4.42708C29.6019 4.4328 29.6609 4.42495 29.7159 4.40414C29.7709 4.38333 29.8203 4.35012 29.8604 4.30709C29.8906 4.26668 29.9121 4.22049 29.9237 4.17139C29.9352 4.1223 29.9366 4.07135 29.9276 4.02172C29.921 4.08071 29.8977 4.13658 29.8604 4.18274Z" fill="black"/>
<path opacity="0.1" d="M24.847 3.75792C24.8265 3.60063 24.6941 3.48437 24.6257 3.34138C24.6 3.28754 24.5836 3.22973 24.5772 3.17041C24.5653 3.27145 24.5821 3.37379 24.6257 3.46572C24.6922 3.60436 24.8178 3.71875 24.8439 3.86859C24.8502 3.83204 24.8513 3.79477 24.847 3.75792Z" fill="black"/>
<path opacity="0.1" d="M25.1933 4.72987C25.2022 4.69638 25.2037 4.66134 25.1975 4.62723C25.1914 4.59312 25.1779 4.56078 25.1579 4.53249C25.0875 4.45216 24.9536 4.47022 24.8677 4.40796C24.8449 4.38994 24.826 4.36755 24.8119 4.3421C24.7979 4.31665 24.7892 4.28866 24.7861 4.25977C24.7724 4.36126 24.7861 4.47333 24.8677 4.53249C24.9493 4.59164 25.0875 4.57919 25.1579 4.65702C25.1754 4.67808 25.1876 4.70308 25.1933 4.72987Z" fill="black"/>
</g>
<path d="M10.4347 36.9287C10.4347 36.9287 7.86337 36.7732 8.16614 38.5756C8.16614 38.5756 8.10397 38.8939 8.39493 39.0387C8.39493 39.0387 8.39928 38.9051 8.65853 38.9504C8.75074 38.9658 8.84444 38.9702 8.93768 38.9635C9.06386 38.9549 9.18384 38.9056 9.27962 38.823C9.27962 38.823 10.0027 38.524 10.2837 37.3427C10.2837 37.3427 10.4913 37.0847 10.4832 37.0188L10.048 37.2053C10.048 37.2053 10.1966 37.5162 10.0798 37.7785C10.0798 37.7785 10.0655 37.219 9.98214 37.2296C9.96536 37.2327 9.75647 37.3384 9.75647 37.3384C9.75647 37.3384 10.012 37.8836 9.81864 38.2802C9.81864 38.2802 9.892 37.6082 9.67626 37.3775L9.37101 37.556C9.37101 37.556 9.66943 38.1192 9.46675 38.5793C9.46675 38.5793 9.51897 37.8743 9.30697 37.5995L9.02969 37.8152C9.02969 37.8152 9.31008 38.3704 9.13911 38.7521C9.13911 38.7521 9.11673 37.9308 8.97001 37.8693C8.97001 37.8693 8.72754 38.0825 8.69086 38.1702C8.69086 38.1702 8.88235 38.5737 8.7636 38.7863C8.7636 38.7863 8.69086 38.2392 8.63056 38.2367C8.63056 38.2367 8.38933 38.5992 8.36447 38.8472C8.36447 38.8472 8.37503 38.4779 8.57211 38.2019C8.43304 38.2285 8.30472 38.2951 8.20282 38.3934C8.20282 38.3934 8.24012 38.1373 8.6318 38.1149C8.6318 38.1149 8.83137 37.8401 8.88483 37.8233C8.88483 37.8233 8.49502 37.791 8.2594 37.8954C8.2594 37.8954 8.46705 37.6542 8.95571 37.7636L9.22926 37.5404C9.22926 37.5404 8.71697 37.4708 8.49938 37.5479C8.49938 37.5479 8.74806 37.334 9.30324 37.4901L9.60042 37.3122C9.60042 37.3122 9.16522 37.2177 8.90286 37.2501C8.90286 37.2501 9.17766 37.1021 9.68746 37.2625L9.9007 37.1668C9.9007 37.1668 9.58052 37.1046 9.48664 37.094C9.39277 37.0835 9.38779 37.058 9.38779 37.058C9.59055 37.0244 9.79862 37.0477 9.98898 37.1251C9.98898 37.1251 10.4428 36.9566 10.4347 36.9287Z" fill="#6C63FF"/>
<path opacity="0.1" d="M8.66325 39.5042C9.66861 39.5042 10.4836 39.3664 10.4836 39.1964C10.4836 39.0265 9.66861 38.8887 8.66325 38.8887C7.6579 38.8887 6.8429 39.0265 6.8429 39.1964C6.8429 39.3664 7.6579 39.5042 8.66325 39.5042Z" fill="#6C63FF"/>
</g>
<defs>
<linearGradient id="paint0_linear_1275_9845" x1="29.6572" y1="40.686" x2="29.6572" y2="0.639975" gradientUnits="userSpaceOnUse">
<stop stop-color="#808080" stop-opacity="0.25"/>
<stop offset="0.54" stop-color="#808080" stop-opacity="0.12"/>
<stop offset="1" stop-color="#808080" stop-opacity="0.1"/>
</linearGradient>
<clipPath id="clip0_1275_9845">
<rect width="71.5236" height="42" fill="white"/>
</clipPath>
</defs>
</svg>
