<svg width="57" height="58" viewBox="0 0 57 58" fill="none" xmlns="http://www.w3.org/2000/svg">
<g clip-path="url(#clip0_1275_10778)">
<path d="M37.5843 23.3867C37.5313 23.3868 37.4805 23.4078 37.4431 23.4453C37.4056 23.4827 37.3846 23.5335 37.3845 23.5865V37.3006C37.3846 37.3535 37.4056 37.4043 37.4431 37.4418C37.4805 37.4792 37.5313 37.5003 37.5843 37.5003H56.6903C56.7432 37.5003 56.794 37.4792 56.8314 37.4418C56.8689 37.4043 56.89 37.3535 56.89 37.3006V23.5865C56.89 23.5335 56.8689 23.4827 56.8314 23.4453C56.794 23.4078 56.7432 23.3868 56.6903 23.3867H37.5843Z" fill="#E6E6E6"/>
<path d="M55.6353 24.6133V34.3597C55.6353 34.4247 55.6094 34.487 55.5635 34.533C55.5175 34.579 55.4551 34.6048 55.3901 34.6048H38.8454C38.8338 34.605 38.8222 34.604 38.8108 34.6018C38.7524 34.5936 38.699 34.5645 38.6603 34.5201C38.6216 34.4756 38.6003 34.4186 38.6002 34.3597V24.6133C38.6002 24.5483 38.6261 24.486 38.672 24.44C38.718 24.394 38.7804 24.3682 38.8454 24.3682H55.3901C55.4551 24.3682 55.5175 24.394 55.5635 24.44C55.6094 24.486 55.6353 24.5483 55.6353 24.6133Z" fill="white"/>
<path d="M52.2061 28.8284C52.697 28.8284 53.0949 28.4305 53.0949 27.9396C53.0949 27.4487 52.697 27.0508 52.2061 27.0508C51.7152 27.0508 51.3173 27.4487 51.3173 27.9396C51.3173 28.4305 51.7152 28.8284 52.2061 28.8284Z" fill="#FF6584"/>
<path d="M37.9558 24.172C38.1176 24.172 38.2488 24.0408 38.2488 23.879C38.2488 23.7171 38.1176 23.5859 37.9558 23.5859C37.7939 23.5859 37.6627 23.7171 37.6627 23.879C37.6627 24.0408 37.7939 24.172 37.9558 24.172Z" fill="#3F3D56"/>
<path d="M56.2801 24.172C56.4419 24.172 56.5731 24.0408 56.5731 23.879C56.5731 23.7171 56.4419 23.5859 56.2801 23.5859C56.1183 23.5859 55.9871 23.7171 55.9871 23.879C55.9871 24.0408 56.1183 24.172 56.2801 24.172Z" fill="#3F3D56"/>
<path d="M37.9558 37.2999C38.1176 37.2999 38.2488 37.1687 38.2488 37.0069C38.2488 36.8451 38.1176 36.7139 37.9558 36.7139C37.7939 36.7139 37.6627 36.8451 37.6627 37.0069C37.6627 37.1687 37.7939 37.2999 37.9558 37.2999Z" fill="#3F3D56"/>
<path d="M56.2801 37.2999C56.4419 37.2999 56.5731 37.1687 56.5731 37.0069C56.5731 36.8451 56.4419 36.7139 56.2801 36.7139C56.1183 36.7139 55.9871 36.8451 55.9871 37.0069C55.9871 37.1687 56.1183 37.2999 56.2801 37.2999Z" fill="#3F3D56"/>
<path d="M44.0513 31.4287C44.6402 31.4287 45.1177 30.9512 45.1177 30.3623C45.1177 29.7733 44.6402 29.2959 44.0513 29.2959C43.4623 29.2959 42.9849 29.7733 42.9849 30.3623C42.9849 30.9512 43.4623 31.4287 44.0513 31.4287Z" fill="#6C63FF"/>
<path d="M44.1541 33.5738H43.9357L44.0352 30.2012L44.1541 33.5738Z" fill="#3F3D56"/>
<path d="M44.0545 30.841L44.289 30.5166L44.0513 30.9213L44.0256 30.8764L44.0545 30.841Z" fill="#3F3D56"/>
<path d="M44.0288 31.1682L43.7943 30.8438L44.032 31.2484L44.0577 31.2034L44.0288 31.1682Z" fill="#3F3D56"/>
<path d="M53.8334 31.4287C54.4223 31.4287 54.8998 30.9512 54.8998 30.3623C54.8998 29.7733 54.4223 29.2959 53.8334 29.2959C53.2444 29.2959 52.767 29.7733 52.767 30.3623C52.767 30.9512 53.2444 31.4287 53.8334 31.4287Z" fill="#6C63FF"/>
<path d="M53.9362 33.5738H53.7178L53.8173 30.2012L53.9362 33.5738Z" fill="#3F3D56"/>
<path d="M53.8365 30.841L54.071 30.5166L53.8333 30.9213L53.8076 30.8764L53.8365 30.841Z" fill="#3F3D56"/>
<path d="M53.8109 31.1682L53.5764 30.8438L53.8141 31.2484L53.8398 31.2034L53.8109 31.1682Z" fill="#3F3D56"/>
<path d="M47.1404 31.0064C48.0102 31.0064 48.7154 30.3013 48.7154 29.4314C48.7154 28.5616 48.0102 27.8564 47.1404 27.8564C46.2706 27.8564 45.5654 28.5616 45.5654 29.4314C45.5654 30.3013 46.2706 31.0064 47.1404 31.0064Z" fill="#6C63FF"/>
<path d="M47.2922 34.1754H46.9696L47.1166 29.1943L47.2922 34.1754Z" fill="#3F3D56"/>
<path d="M47.1453 30.1383L47.4916 29.6592L47.1405 30.2569L47.1025 30.1905L47.1453 30.1383Z" fill="#3F3D56"/>
<path d="M47.1072 30.6227L46.7609 30.1436L47.1119 30.7413L47.1499 30.6749L47.1072 30.6227Z" fill="#3F3D56"/>
<path d="M50.9812 30.4048C51.8511 30.4048 52.5562 29.6997 52.5562 28.8299C52.5562 27.96 51.8511 27.2549 50.9812 27.2549C50.1114 27.2549 49.4062 27.96 49.4062 28.8299C49.4062 29.6997 50.1114 30.4048 50.9812 30.4048Z" fill="#6C63FF"/>
<path d="M51.1332 33.5739H50.8107L50.9577 28.5928L51.1332 33.5739Z" fill="#3F3D56"/>
<path d="M50.9861 29.5367L51.3323 29.0576L50.9813 29.6553L50.9434 29.5889L50.9861 29.5367Z" fill="#3F3D56"/>
<path d="M50.948 30.0212L50.6017 29.542L50.9527 30.1398L50.9907 30.0734L50.948 30.0212Z" fill="#3F3D56"/>
<path d="M41.0191 30.4048C41.8889 30.4048 42.594 29.6997 42.594 28.8299C42.594 27.96 41.8889 27.2549 41.0191 27.2549C40.1492 27.2549 39.4441 27.96 39.4441 28.8299C39.4441 29.6997 40.1492 30.4048 41.0191 30.4048Z" fill="#6C63FF"/>
<path d="M41.1709 33.5739H40.8483L40.9954 28.5928L41.1709 33.5739Z" fill="#3F3D56"/>
<path d="M41.0237 29.5367L41.37 29.0576L41.0189 29.6553L40.981 29.5889L41.0237 29.5367Z" fill="#3F3D56"/>
<path d="M40.9858 30.0212L40.6395 29.542L40.9906 30.1398L41.0285 30.0734L40.9858 30.0212Z" fill="#3F3D56"/>
<path d="M47.2283 34.6044H38.8454C38.8338 34.6046 38.8222 34.6036 38.8108 34.6014C38.7524 34.5932 38.699 34.5641 38.6603 34.5196C38.6216 34.4752 38.6003 34.4182 38.6002 34.3593V32.2663C39.389 32.1349 40.1875 32.07 40.9872 32.0723C43.963 32.0723 46.4522 32.9251 47.0764 34.0667C47.1706 34.2307 47.2228 34.4154 47.2283 34.6044Z" fill="#3F3D56"/>
<path d="M55.6352 33.8845V34.3591C55.6352 34.4241 55.6094 34.4864 55.5634 34.5324C55.5174 34.5784 55.4551 34.6042 55.3901 34.6042H46.1152C46.4136 34.3882 46.7361 34.2077 47.0763 34.0665C48.2127 33.5792 49.8152 33.2754 51.5908 33.2754C53.134 33.2754 54.5455 33.504 55.6352 33.8845Z" fill="#3F3D56"/>
<path d="M48.2147 0C48.182 4.51312e-05 48.1499 0.00811571 48.1211 0.023501L31.253 8.99609C31.2063 9.02104 31.1714 9.06349 31.1559 9.11414C31.1405 9.16478 31.1457 9.21949 31.1705 9.26627L37.6109 21.374C37.6358 21.4208 37.6783 21.4557 37.729 21.4712C37.7796 21.4867 37.8344 21.4814 37.8812 21.4566L54.7492 12.484C54.7959 12.4591 54.8308 12.4166 54.8463 12.366C54.8618 12.3153 54.8565 12.2606 54.8317 12.2138L48.3913 0.106085C48.379 0.0828691 48.3623 0.0623173 48.342 0.0456199C48.3218 0.0289225 48.2984 0.0164116 48.2733 0.00881232C48.2543 0.00299105 48.2345 2.12516e-05 48.2147 0Z" fill="#E6E6E6"/>
<path d="M47.7658 1.60185L52.3428 10.2063C52.3579 10.2347 52.3673 10.2659 52.3704 10.2979C52.3735 10.33 52.3703 10.3624 52.3608 10.3932C52.3514 10.424 52.336 10.4527 52.3155 10.4776C52.295 10.5024 52.2698 10.523 52.2414 10.5381L37.6348 18.3078C37.6245 18.3134 37.6137 18.3181 37.6025 18.3219C37.547 18.3419 37.4862 18.3412 37.4312 18.32C37.3762 18.2988 37.3307 18.2584 37.303 18.2064L32.726 9.60194C32.7109 9.5735 32.7015 9.54235 32.6984 9.51027C32.6953 9.4782 32.6986 9.44582 32.708 9.415C32.7174 9.38419 32.7328 9.35553 32.7533 9.33066C32.7738 9.30579 32.799 9.28521 32.8274 9.27009L47.434 1.50045C47.4624 1.48531 47.4936 1.47592 47.5257 1.47282C47.5577 1.46972 47.5901 1.47297 47.6209 1.48238C47.6517 1.4918 47.6804 1.5072 47.7053 1.5277C47.7301 1.54819 47.7507 1.57339 47.7658 1.60185Z" fill="white"/>
<path d="M38.0031 12.7946C39.192 12.7946 40.1558 11.8308 40.1558 10.6419C40.1558 9.45303 39.192 8.48926 38.0031 8.48926C36.8142 8.48926 35.8505 9.45303 35.8505 10.6419C35.8505 11.8308 36.8142 12.7946 38.0031 12.7946Z" fill="#FF6584"/>
<path d="M47.0782 13.3284L37.7549 18.2877C37.7433 18.2941 37.7312 18.2994 37.7186 18.3035L38.0653 8.3201C38.0669 8.25822 38.0849 8.19787 38.1175 8.14523C38.1501 8.09258 38.196 8.04953 38.2507 8.02045C38.3053 7.99138 38.3667 7.97734 38.4286 7.97976C38.4904 7.98218 38.5505 8.00098 38.6027 8.03423L44.2885 11.5857L44.5608 11.7555L47.0782 13.3284Z" fill="#3F3D56"/>
<path opacity="0.2" d="M47.0785 13.3287L43.8953 15.0219L44.2505 11.921L44.276 11.6976L44.2887 11.5859L44.561 11.7558L47.0785 13.3287Z" fill="black"/>
<path d="M52.2695 10.5677L44.2056 14.8571L44.5608 11.7561L44.5863 11.5328L45.0491 7.4917C45.0795 7.22683 45.3942 7.04393 45.6413 7.12981C45.658 7.13576 45.6743 7.14276 45.6901 7.15078L52.2695 10.5677Z" fill="#3F3D56"/>
<path d="M31.8123 9.54994C31.9742 9.54994 32.1054 9.41874 32.1054 9.2569C32.1054 9.09506 31.9742 8.96387 31.8123 8.96387C31.6505 8.96387 31.5193 9.09506 31.5193 9.2569C31.5193 9.41874 31.6505 9.54994 31.8123 9.54994Z" fill="#3F3D56"/>
<path d="M47.9905 0.944472C48.1524 0.944472 48.2836 0.813275 48.2836 0.651435C48.2836 0.489595 48.1524 0.358398 47.9905 0.358398C47.8287 0.358398 47.6975 0.489595 47.6975 0.651435C47.6975 0.813275 47.8287 0.944472 47.9905 0.944472Z" fill="#3F3D56"/>
<path d="M37.9775 21.1398C38.1393 21.1398 38.2705 21.0086 38.2705 20.8467C38.2705 20.6849 38.1393 20.5537 37.9775 20.5537C37.8156 20.5537 37.6844 20.6849 37.6844 20.8467C37.6844 21.0086 37.8156 21.1398 37.9775 21.1398Z" fill="#3F3D56"/>
<path d="M54.1556 12.5343C54.3174 12.5343 54.4486 12.4031 54.4486 12.2413C54.4486 12.0794 54.3174 11.9482 54.1556 11.9482C53.9937 11.9482 53.8625 12.0794 53.8625 12.2413C53.8625 12.4031 53.9937 12.5343 54.1556 12.5343Z" fill="#3F3D56"/>
<path d="M52.2989 57.9933C52.3501 58.0068 52.4046 57.9995 52.4504 57.9729C52.4962 57.9464 52.5296 57.9027 52.5433 57.8516L56.0689 44.5984C56.0825 44.5472 56.0753 44.4926 56.0487 44.4468C56.0221 44.401 55.9784 44.3676 55.9272 44.354L37.4633 39.4422C37.4121 39.4286 37.3576 39.4359 37.3118 39.4625C37.2659 39.4891 37.2325 39.5328 37.2189 39.584L33.6934 52.8372C33.6866 52.8625 33.6849 52.889 33.6884 52.915C33.6919 52.941 33.7004 52.966 33.7136 52.9887C33.7268 53.0114 33.7443 53.0313 33.7651 53.0472C33.786 53.0632 33.8097 53.0748 33.8351 53.0816L52.2989 57.9933Z" fill="#E6E6E6"/>
<path d="M54.5923 45.2685L52.0868 54.6872C52.0701 54.7501 52.0291 54.8037 51.9728 54.8363C51.9166 54.8689 51.8497 54.8778 51.7868 54.8611L35.7981 50.6079C35.7869 50.6051 35.776 50.6011 35.7655 50.5961C35.7112 50.5731 35.667 50.5313 35.6411 50.4784C35.6151 50.4255 35.6092 50.3649 35.6242 50.308L38.1298 40.8892C38.1465 40.8263 38.1875 40.7727 38.2438 40.7401C38.3 40.7075 38.3669 40.6986 38.4297 40.7153L54.4184 44.9685C54.4813 44.9852 54.5349 45.0262 54.5675 45.0825C54.6001 45.1387 54.609 45.2056 54.5923 45.2685Z" fill="white"/>
<path d="M52.4427 53.349L52.0868 54.687C52.0701 54.7498 52.0291 54.8034 51.9728 54.836C51.9166 54.8686 51.8497 54.8776 51.7868 54.8609L35.7981 50.6076C35.7869 50.6048 35.776 50.6008 35.7655 50.5958C35.7112 50.5729 35.667 50.5311 35.6411 50.4781C35.6151 50.4252 35.6092 50.3647 35.6242 50.3077L35.9802 48.9697L52.4427 53.349Z" fill="#3F3D56"/>
<path d="M45.3782 52.3261L42.8346 51.6494L42.7573 51.9401L45.3009 52.6168L45.3782 52.3261Z" fill="#CCCCCC"/>
<path d="M39.5278 50.7694L36.9841 50.0928L36.9068 50.3835L39.4505 51.0601L39.5278 50.7694Z" fill="#CCCCCC"/>
<path d="M51.2287 53.8817L48.6851 53.2051L48.6077 53.4958L51.1514 54.1724L51.2287 53.8817Z" fill="#CCCCCC"/>
<path d="M37.6956 40.3068C37.8575 40.3068 37.9887 40.1756 37.9887 40.0137C37.9887 39.8519 37.8575 39.7207 37.6956 39.7207C37.5338 39.7207 37.4026 39.8519 37.4026 40.0137C37.4026 40.1756 37.5338 40.3068 37.6956 40.3068Z" fill="#3F3D56"/>
<path d="M55.4042 45.0177C55.5661 45.0177 55.6973 44.8865 55.6973 44.7247C55.6973 44.5628 55.5661 44.4316 55.4042 44.4316C55.2424 44.4316 55.1112 44.5628 55.1112 44.7247C55.1112 44.8865 55.2424 45.0177 55.4042 45.0177Z" fill="#3F3D56"/>
<path d="M34.3207 52.9933C34.4826 52.9933 34.6138 52.8621 34.6138 52.7003C34.6138 52.5384 34.4826 52.4072 34.3207 52.4072C34.1589 52.4072 34.0277 52.5384 34.0277 52.7003C34.0277 52.8621 34.1589 52.9933 34.3207 52.9933Z" fill="#3F3D56"/>
<path d="M52.0294 57.7042C52.1912 57.7042 52.3224 57.573 52.3224 57.4112C52.3224 57.2494 52.1912 57.1182 52.0294 57.1182C51.8675 57.1182 51.7363 57.2494 51.7363 57.4112C51.7363 57.573 51.8675 57.7042 52.0294 57.7042Z" fill="#3F3D56"/>
<path d="M48.5109 52.7384L49.9244 53.1152L49.9843 52.8909L48.5707 52.514L48.5109 52.7384Z" fill="#3F3D56"/>
<path d="M38.3356 49.8454L38.6093 49.9905L49.6932 52.9453L49.8547 52.7396C50.1345 52.3875 50.3109 51.9645 50.3642 51.5178C50.4018 51.1844 50.367 50.8338 50.1321 50.6231L50.5117 47.2157L44.3816 45.5732L41.4997 46.8559C41.4997 46.8559 40.3857 46.538 39.5762 47.1333C39.282 47.3564 39.0618 47.663 38.9442 48.013L38.8155 48.4005L38.3356 49.8454Z" fill="#6C63FF"/>
<path d="M40.785 51.8544C41.5673 51.8544 42.2015 51.2202 42.2015 50.4379C42.2015 49.6557 41.5673 49.0215 40.785 49.0215C40.0027 49.0215 39.3685 49.6557 39.3685 50.4379C39.3685 51.2202 40.0027 51.8544 40.785 51.8544Z" fill="#3F3D56"/>
<path d="M40.7851 51.1834C41.1968 51.1834 41.5306 50.8496 41.5306 50.4379C41.5306 50.0262 41.1968 49.6924 40.7851 49.6924C40.3733 49.6924 40.0396 50.0262 40.0396 50.4379C40.0396 50.8496 40.3733 51.1834 40.7851 51.1834Z" fill="#CCCCCC"/>
<path d="M47.5385 53.6552C48.3208 53.6552 48.955 53.021 48.955 52.2387C48.955 51.4564 48.3208 50.8223 47.5385 50.8223C46.7562 50.8223 46.1221 51.4564 46.1221 52.2387C46.1221 53.021 46.7562 53.6552 47.5385 53.6552Z" fill="#3F3D56"/>
<path d="M47.5386 52.9842C47.9503 52.9842 48.2841 52.6504 48.2841 52.2387C48.2841 51.8269 47.9503 51.4932 47.5386 51.4932C47.1269 51.4932 46.7931 51.8269 46.7931 52.2387C46.7931 52.6504 47.1269 52.9842 47.5386 52.9842Z" fill="#CCCCCC"/>
<path d="M42.5021 46.8827L45.813 47.765L46.2172 47.8725L46.8996 48.0546L46.9128 48.0047L47.0729 47.4047L47.2527 46.731L46.7987 46.6102L46.3945 46.5022L45.6787 46.3113L45.2744 46.2037L44.448 45.9834L42.5021 46.8827Z" fill="white"/>
<path d="M47.438 48.1987L49.1878 48.6651L49.2796 48.3218L49.4392 47.7218L49.5409 47.3416L49.2847 47.2734L48.8805 47.1654L47.7906 46.875L47.438 48.1987Z" fill="white"/>
<path d="M46.2985 49.4089L46.5228 49.4688L46.6365 49.0424L46.4121 48.9826L46.2985 49.4089Z" fill="#3F3D56"/>
<path d="M43.2379 47.7283L43.2977 47.5039L42.8714 47.3903L42.8116 47.6146L43.2379 47.7283Z" fill="#3F3D56"/>
<path d="M43.1144 47.5605L43.0897 47.554C42.9653 47.5208 42.8592 47.4396 42.7947 47.3282C42.7302 47.2168 42.7126 47.0844 42.7458 46.96C42.7789 46.8357 42.8601 46.7296 42.9715 46.6651C43.0829 46.6006 43.2154 46.5829 43.3397 46.6161L43.3644 46.6227L43.1144 47.5605Z" fill="#3F3D56"/>
<path d="M38.8154 48.4C38.9802 48.4636 39.1622 48.467 39.3292 48.4096C39.4963 48.3522 39.6377 48.2377 39.7286 48.0863C39.8196 47.9349 39.8541 47.7562 39.8262 47.5818C39.7984 47.4073 39.7098 47.2484 39.5762 47.1328C39.282 47.3559 39.0617 47.6625 38.9442 48.0126L38.8154 48.4Z" fill="#3F3D56"/>
<path d="M46.3943 46.502L46.9126 48.0044L47.0727 47.4045L46.7984 46.6099L46.3943 46.502Z" fill="#F2F2F2"/>
<path d="M48.8805 47.165L49.2796 48.3214L49.4392 47.7214L49.2846 47.273L48.8805 47.165Z" fill="#F2F2F2"/>
<path d="M45.2743 46.2041L45.8128 47.7653L46.217 47.8729L45.6785 46.3116L45.2743 46.2041Z" fill="#F2F2F2"/>
<path d="M3.0095 23.3361C3.5079 23.3361 3.91194 22.9321 3.91194 22.4337C3.91194 21.9353 3.5079 21.5312 3.0095 21.5312C2.51109 21.5312 2.10706 21.9353 2.10706 22.4337C2.10706 22.9321 2.51109 23.3361 3.0095 23.3361Z" fill="#6C63FF"/>
<path opacity="0.2" d="M3.39041 21.6172C3.55042 21.7621 3.65311 21.9596 3.67979 22.1738C3.70647 22.3881 3.65537 22.6047 3.53579 22.7845C3.4162 22.9642 3.23608 23.095 3.02818 23.1532C2.82028 23.2113 2.59842 23.1929 2.40295 23.1013C2.499 23.1888 2.61283 23.2545 2.73664 23.2939C2.86046 23.3334 2.99134 23.3456 3.12031 23.3297C3.24928 23.3139 3.3733 23.2703 3.48387 23.2021C3.59445 23.1338 3.68897 23.0425 3.76095 22.9343C3.83293 22.8261 3.88068 22.7036 3.90092 22.5753C3.92117 22.4469 3.91343 22.3157 3.87824 22.1906C3.84305 22.0655 3.78124 21.9495 3.69704 21.8506C3.61284 21.7516 3.50824 21.672 3.39041 21.6172Z" fill="black"/>
<path d="M26.2098 24.3146C27.4351 24.3146 28.4283 23.9106 28.4283 23.4122C28.4283 22.9138 27.4351 22.5098 26.2098 22.5098C24.9846 22.5098 23.9913 22.9138 23.9913 23.4122C23.9913 23.9106 24.9846 24.3146 26.2098 24.3146Z" fill="#3F3D56"/>
<path opacity="0.2" d="M26.2096 22.5098C26.1335 22.5098 26.0583 22.5113 25.984 22.5144C27.1033 22.5604 27.9769 22.9448 27.9769 23.4122C27.9769 23.8796 27.1033 24.264 25.984 24.31C26.0582 24.3131 26.1334 24.3146 26.2096 24.3146C27.4349 24.3146 28.4281 23.9106 28.4281 23.4122C28.4281 22.9138 27.4349 22.5098 26.2096 22.5098Z" fill="black"/>
<path d="M29.1052 23.4123H17.9751V22.209C17.9751 22.1492 17.9513 22.0918 17.909 22.0495C17.8667 22.0072 17.8093 21.9834 17.7495 21.9834H11.5828C11.5229 21.9834 11.4656 22.0072 11.4232 22.0495C11.3809 22.0918 11.3572 22.1492 11.3572 22.209V23.4123H4.88968V22.6602C4.88968 22.6004 4.86591 22.543 4.8236 22.5007C4.78129 22.4584 4.72391 22.4346 4.66407 22.4346H1.35512C1.29529 22.4346 1.23791 22.4584 1.1956 22.5007C1.15329 22.543 1.12952 22.6004 1.12952 22.6602V23.4123H0.227075C0.197436 23.4122 0.168082 23.418 0.140691 23.4294C0.113301 23.4407 0.088415 23.4573 0.0674573 23.4783C0.0464996 23.4992 0.0298823 23.5241 0.0185584 23.5515C0.00723444 23.5789 0.00142545 23.6082 0.00146504 23.6379V38.4529C0.00142545 38.4826 0.00723444 38.5119 0.0185584 38.5393C0.0298823 38.5667 0.0464996 38.5916 0.0674573 38.6125C0.088415 38.6335 0.113301 38.6501 0.140691 38.6614C0.168082 38.6728 0.197436 38.6786 0.227075 38.6785H29.1052C29.1348 38.6786 29.1641 38.6728 29.1915 38.6614C29.2189 38.6501 29.2438 38.6335 29.2648 38.6125C29.2857 38.5916 29.3023 38.5667 29.3137 38.5393C29.325 38.5119 29.3308 38.4826 29.3308 38.4529V23.6379C29.3308 23.6082 29.325 23.5789 29.3137 23.5515C29.3023 23.5241 29.2857 23.4992 29.2648 23.4783C29.2438 23.4573 29.2189 23.4407 29.1915 23.4294C29.1641 23.418 29.1348 23.4122 29.1052 23.4123Z" fill="#3F3D56"/>
<path opacity="0.2" d="M29.1038 37.5733H0.225732C0.196094 37.5733 0.166739 37.5675 0.139349 37.5562C0.111959 37.5448 0.0870711 37.5282 0.0661134 37.5073C0.0451557 37.4863 0.0285395 37.4614 0.0172156 37.434C0.00589167 37.4067 8.26739e-05 37.3773 0.000122271 37.3477V38.4005C8.26739e-05 38.4301 0.00589167 38.4595 0.0172156 38.4869C0.0285395 38.5143 0.0451557 38.5392 0.0661134 38.5601C0.0870711 38.5811 0.111959 38.5977 0.139349 38.609C0.166739 38.6203 0.196094 38.6262 0.225732 38.6261H29.1038C29.1334 38.6262 29.1628 38.6203 29.1902 38.609C29.2176 38.5977 29.2425 38.5811 29.2634 38.5601C29.2844 38.5392 29.301 38.5143 29.3123 38.4869C29.3237 38.4595 29.3295 38.4301 29.3294 38.4005V37.3477C29.3295 37.3773 29.3237 37.4067 29.3123 37.434C29.301 37.4614 29.2844 37.4863 29.2634 37.5073C29.2425 37.5282 29.2176 37.5448 29.1902 37.5562C29.1628 37.5675 29.1334 37.5733 29.1038 37.5733Z" fill="black"/>
<path opacity="0.2" d="M29.3308 30.3311H0.00146484V33.1888H29.3308V30.3311Z" fill="black"/>
<path opacity="0.2" d="M29.3308 28.9014H0.00146484V31.7591H29.3308V28.9014Z" fill="black"/>
<path d="M29.3308 29.5781H0.00146484V32.4359H29.3308V29.5781Z" fill="#6C63FF"/>
<path d="M14.6659 36.7229C17.8224 36.7229 20.3813 34.164 20.3813 31.0074C20.3813 27.8509 17.8224 25.292 14.6659 25.292C11.5093 25.292 8.95044 27.8509 8.95044 31.0074C8.95044 34.164 11.5093 36.7229 14.6659 36.7229Z" fill="#6C63FF"/>
<path opacity="0.2" d="M19.0683 27.3623C19.7954 28.601 20.0294 30.0681 19.7237 31.4715C19.418 32.875 18.5951 34.1119 17.4187 34.936C16.2424 35.7601 14.7988 36.1111 13.3753 35.9191C11.9519 35.727 10.653 35.006 9.73706 33.8996C10.1365 34.5803 10.6726 35.1709 11.3116 35.6341C11.9505 36.0974 12.6785 36.4233 13.4497 36.5913C14.2208 36.7592 15.0184 36.7657 15.7921 36.6102C16.5659 36.4547 17.2991 36.1407 17.9454 35.6878C18.5918 35.235 19.1374 34.6532 19.5478 33.9791C19.9582 33.3049 20.2246 32.5531 20.3301 31.771C20.4356 30.9888 20.3779 30.1933 20.1608 29.4345C19.9436 28.6758 19.5717 27.9702 19.0683 27.3623Z" fill="black"/>
<path d="M14.666 35.2606C17.015 35.2606 18.9193 33.3563 18.9193 31.0073C18.9193 28.6582 17.015 26.7539 14.666 26.7539C12.3169 26.7539 10.4126 28.6582 10.4126 31.0073C10.4126 33.3563 12.3169 35.2606 14.666 35.2606Z" fill="#3F3D56"/>
<path d="M17.9748 31.0073C17.9755 31.4565 17.8841 31.901 17.7063 32.3135C17.6111 32.536 17.4913 32.7472 17.3491 32.943C17.0688 33.3319 16.7074 33.6552 16.2898 33.8906C15.8723 34.126 15.4085 34.2678 14.9307 34.3064C14.4529 34.3449 13.9725 34.2791 13.5226 34.1136C13.0727 33.9481 12.6642 33.6869 12.3252 33.3479C11.9863 33.009 11.725 32.6004 11.5595 32.1505C11.394 31.7007 11.3283 31.2202 11.3668 30.7424C11.4053 30.2646 11.5471 29.8009 11.7825 29.3833C12.0179 28.9657 12.3413 28.6043 12.7301 28.324C12.926 28.1818 13.1371 28.062 13.3596 27.9668C13.8629 27.7506 14.4121 27.6628 14.9578 27.7112C15.5035 27.7596 16.0286 27.9427 16.4861 28.244C16.9435 28.5454 17.319 28.9556 17.5789 29.4379C17.8387 29.9202 17.9747 30.4594 17.9748 31.0073Z" fill="white"/>
<path opacity="0.2" d="M17.9397 30.5251C17.8163 29.6837 17.3733 28.9224 16.7028 28.3994C16.9933 28.8544 17.1682 29.3735 17.212 29.9115C17.2559 30.4496 17.1675 30.9901 16.9545 31.4862C16.8593 31.7087 16.7395 31.9198 16.5973 32.1156C16.3369 32.4768 16.0063 32.7817 15.6253 33.012C15.2443 33.2423 14.8207 33.3933 14.3799 33.4559C13.939 33.5186 13.4901 33.4916 13.06 33.3765C12.6299 33.2614 12.2275 33.0607 11.8768 32.7863C12.167 33.2418 12.5644 33.6193 13.0341 33.8858C13.5039 34.1523 14.0317 34.2997 14.5716 34.3152C15.1114 34.3306 15.6469 34.2136 16.1311 33.9744C16.6153 33.7352 17.0336 33.381 17.3493 32.9429C17.4915 32.747 17.6113 32.5359 17.7065 32.3134C17.9483 31.7504 18.029 31.1313 17.9397 30.5251V30.5251Z" fill="black"/>
</g>
<defs>
<clipPath id="clip0_1275_10778">
<rect width="56.8901" height="58" fill="white"/>
</clipPath>
</defs>
</svg>
