<svg width="82" height="45" viewBox="0 0 82 45" fill="none" xmlns="http://www.w3.org/2000/svg">
<g clip-path="url(#clip0_1275_9966)">
<path d="M11.0269 23.3667H8.40261C8.31034 23.3667 8.22184 23.4034 8.15659 23.4686C8.09134 23.5339 8.05469 23.6223 8.05469 23.7146V24.8665C8.05469 24.9588 8.09134 25.0473 8.15659 25.1125C8.22184 25.1778 8.31034 25.2144 8.40261 25.2144H8.83749V26.9403H10.592V25.2144H11.0269C11.1191 25.2144 11.2076 25.1778 11.2729 25.1125C11.3381 25.0473 11.3748 24.9588 11.3748 24.8665V23.7146C11.3748 23.6223 11.3381 23.5339 11.2729 23.4686C11.2076 23.4034 11.1191 23.3667 11.0269 23.3667Z" fill="#6C63FF"/>
<path d="M13.6553 33.9087C12.0482 31.557 11.2265 28.7569 11.3082 25.9096C11.3096 25.8439 11.2883 25.7797 11.2478 25.728C11.2073 25.6762 11.1502 25.64 11.0861 25.6256V25.1279H8.31451V25.6187H8.27631C8.23722 25.6188 8.19857 25.6269 8.16275 25.6426C8.12693 25.6582 8.09473 25.6811 8.06815 25.7098C8.04157 25.7384 8.02119 25.7723 8.00827 25.8091C7.99535 25.846 7.99018 25.8852 7.99308 25.9242C8.21143 28.9679 7.47412 31.6975 5.78115 34.1128C5.68373 34.2516 5.63396 34.4183 5.63931 34.5878L5.94236 43.9622C5.94965 44.1713 6.0374 44.3695 6.18732 44.5155C6.33724 44.6614 6.53773 44.7438 6.74694 44.7455H13.0158C13.2274 44.7437 13.43 44.6595 13.5804 44.5106C13.7307 44.3617 13.817 44.16 13.8209 43.9484L13.9377 34.8466C13.9411 34.5125 13.8426 34.1853 13.6553 33.9087Z" fill="#3F3D56"/>
<path opacity="0.2" d="M10.4798 23.7422C10.4798 23.9413 10.4007 24.1322 10.2599 24.273C10.1192 24.4137 9.92823 24.4928 9.72915 24.4928C9.53007 24.4928 9.33914 24.4137 9.19837 24.273C9.0576 24.1322 8.97852 23.9413 8.97852 23.7422" fill="black"/>
<path d="M12.663 37.0224H11.9039C11.8314 36.5522 11.593 36.1233 11.2319 35.8136C10.8707 35.5038 10.4106 35.3335 9.93476 35.3335C9.45894 35.3335 8.99882 35.5038 8.63765 35.8136C8.27647 36.1233 8.03809 36.5522 7.96562 37.0224H7.20645C7.12568 37.0224 7.04587 37.0399 6.97248 37.0736C6.89909 37.1074 6.83386 37.1566 6.78127 37.2179C6.72868 37.2792 6.68996 37.3511 6.66778 37.4288C6.6456 37.5064 6.64047 37.588 6.65275 37.6678L7.47732 43.0275H12.2121L13.2136 37.6859C13.2288 37.605 13.226 37.5217 13.2053 37.442C13.1846 37.3624 13.1467 37.2882 13.0941 37.2249C13.0415 37.1615 12.9757 37.1105 12.9011 37.0756C12.8266 37.0406 12.7453 37.0224 12.663 37.0224Z" fill="#7073BE"/>
<path d="M76.4549 28.4077L76.2728 35.6856L76.0473 44.7105H68.3715L68.1072 34.1367L67.9639 28.4077H76.4549Z" fill="#E6E6E6"/>
<path d="M72.7189 24.5356H71.6321V38.9364H72.7189V24.5356Z" fill="#6C63FF"/>
<path d="M75.9114 33.8913L75.7058 44.2355H68.7094L68.4685 32.1161C69.0988 31.9391 69.7589 31.8937 70.4075 31.9829C71.0561 32.0722 71.6794 32.294 72.2386 32.6346C73.4075 33.326 74.7208 33.6982 75.9114 33.8913Z" fill="#3F3D56"/>
<path d="M70.4414 35.0562H69.4441V36.0534H70.4414V35.0562Z" fill="#E6E6E6"/>
<path d="M71.1208 33.0181H70.1235V34.0154H71.1208V33.0181Z" fill="#E6E6E6"/>
<path d="M73.2625 34.429L72.4614 33.835L71.8673 34.636L72.6684 35.2301L73.2625 34.429Z" fill="#E6E6E6"/>
<path d="M75.0642 36.1961L74.2632 35.6021L73.6691 36.4031L74.4701 36.9972L75.0642 36.1961Z" fill="#E6E6E6"/>
<path d="M72.0076 37.2147L71.2065 36.6206L70.6125 37.4216L71.4135 38.0157L72.0076 37.2147Z" fill="#E6E6E6"/>
<path d="M74.3493 32.619C74.4618 32.619 74.5531 32.5278 74.5531 32.4152C74.5531 32.3027 74.4618 32.2114 74.3493 32.2114C74.2367 32.2114 74.1455 32.3027 74.1455 32.4152C74.1455 32.5278 74.2367 32.619 74.3493 32.619Z" fill="#3F3D56"/>
<path d="M70.2055 31.2606C70.318 31.2606 70.4093 31.1694 70.4093 31.0568C70.4093 30.9443 70.318 30.853 70.2055 30.853C70.0929 30.853 70.0017 30.9443 70.0017 31.0568C70.0017 31.1694 70.0929 31.2606 70.2055 31.2606Z" fill="#3F3D56"/>
<path d="M73.6698 29.8343C73.7824 29.8343 73.8736 29.7431 73.8736 29.6305C73.8736 29.518 73.7824 29.4268 73.6698 29.4268C73.5573 29.4268 73.4661 29.518 73.4661 29.6305C73.4661 29.7431 73.5573 29.8343 73.6698 29.8343Z" fill="#3F3D56"/>
<path d="M41.0468 44.6483C53.3761 44.6483 63.3709 34.6534 63.3709 22.3241C63.3709 9.99485 53.3761 0 41.0468 0C28.7175 0 18.7227 9.99485 18.7227 22.3241C18.7227 34.6534 28.7175 44.6483 41.0468 44.6483Z" fill="#7073BE"/>
<path opacity="0.2" d="M41.0467 38.6185C37.2769 38.6185 33.6238 37.3113 30.7097 34.9198C27.7957 32.5283 25.801 29.2003 25.0655 25.5029C24.3301 21.8056 24.8994 17.9676 26.6765 14.643C28.4536 11.3183 31.3285 8.71272 34.8113 7.2701C38.2941 5.82748 42.1694 5.63711 45.7769 6.73143C49.3843 7.82575 52.5007 10.137 54.5951 13.2715C56.6895 16.406 57.6322 20.1697 57.2627 23.9213C56.8932 27.6729 55.2343 31.1804 52.5687 33.846C51.0591 35.3638 49.2635 36.5671 47.2857 37.3863C45.308 38.2055 43.1874 38.6243 41.0467 38.6185ZM41.0467 7.03452C32.616 7.03452 25.7572 13.8934 25.7572 22.324C25.7572 30.7547 32.616 37.6136 41.0467 37.6136C49.4774 37.6136 56.3362 30.7547 56.3362 22.324C56.3362 13.8934 49.4774 7.03452 41.0467 7.03452Z" fill="black"/>
<path d="M41.0469 38.1162C49.7685 38.1162 56.8389 31.0459 56.8389 22.3242C56.8389 13.6025 49.7685 6.53223 41.0469 6.53223C32.3252 6.53223 25.2549 13.6025 25.2549 22.3242C25.2549 31.0459 32.3252 38.1162 41.0469 38.1162Z" fill="#3F3D56"/>
<path d="M29.3027 16.0093C29.1829 15.7747 29.1106 15.5189 29.0898 15.2563C29.069 14.9938 29.1001 14.7297 29.1814 14.4792C29.2627 14.2287 29.3926 13.9967 29.5636 13.7964C29.7347 13.5961 29.9435 13.4315 30.1782 13.312C30.4129 13.1925 30.6688 13.1204 30.9314 13.0999C31.194 13.0793 31.458 13.1107 31.7085 13.1923C31.9589 13.2739 32.1908 13.404 32.3909 13.5753C32.591 13.7465 32.7553 13.9555 32.8746 14.1903L37.3362 22.9516C37.456 23.1862 37.5284 23.4421 37.5492 23.7046C37.57 23.9672 37.5389 24.2312 37.4575 24.4818C37.3762 24.7323 37.2463 24.9643 37.0753 25.1646C36.9043 25.3648 36.6954 25.5294 36.4607 25.649C36.226 25.7685 35.9701 25.8406 35.7075 25.8611C35.445 25.8816 35.1809 25.8502 34.9305 25.7686C34.6801 25.6871 34.4482 25.5569 34.2481 25.3857C34.048 25.2144 33.8836 25.0054 33.7643 24.7706L29.3027 16.0093Z" fill="#FF6584"/>
<path opacity="0.2" d="M29.8004 16.987L29.5945 16.5826C30.6222 15.7841 31.829 15.1969 33.1664 14.7637L33.3723 15.168C31.9248 15.4695 30.6933 16.0273 29.8004 16.987Z" fill="black"/>
<path opacity="0.2" d="M30.7613 18.8737L30.5554 18.4694C31.5831 17.6708 32.7899 17.0836 34.1273 16.6504L34.3333 17.0548C32.8858 17.3562 31.6543 17.914 30.7613 18.8737Z" fill="black"/>
<path opacity="0.2" d="M31.7223 20.7609L31.5164 20.3566C32.544 19.5581 33.7508 18.9708 35.0883 18.5376L35.2942 18.942C33.8467 19.2434 32.6152 19.8012 31.7223 20.7609Z" fill="black"/>
<path opacity="0.2" d="M32.6832 22.6477L32.4773 22.2433C33.505 21.4448 34.7118 20.8575 36.0492 20.4243L36.2551 20.8287C34.8076 21.1301 33.5761 21.6879 32.6832 22.6477Z" fill="black"/>
<path opacity="0.2" d="M33.6442 24.5349L33.4382 24.1305C34.4659 23.332 35.6727 22.7447 37.0101 22.3115L37.2161 22.7159C35.7686 23.0173 34.5371 23.5752 33.6442 24.5349Z" fill="black"/>
<path d="M25.9557 19.2894C25.8359 19.0548 25.7636 18.799 25.7428 18.5364C25.722 18.2739 25.7532 18.0099 25.8345 17.7594C25.9158 17.5089 26.0457 17.2769 26.2167 17.0766C26.3878 16.8764 26.5966 16.7118 26.8313 16.5923C27.066 16.4728 27.3219 16.4007 27.5844 16.3801C27.847 16.3596 28.111 16.391 28.3614 16.4725C28.6118 16.5541 28.8437 16.6842 29.0438 16.8554C29.2439 17.0267 29.4083 17.2356 29.5276 17.4704L33.9892 26.2317C34.2298 26.7053 34.2725 27.255 34.108 27.7601C33.9434 28.2651 33.5851 28.6842 33.1118 28.9253C32.6385 29.1663 32.0888 29.2096 31.5836 29.0456C31.0783 28.8816 30.6589 28.5238 30.4173 28.0507L25.9557 19.2894Z" fill="#FF6584"/>
<path opacity="0.2" d="M26.453 20.2668L26.2471 19.8624C27.2748 19.0639 28.4816 18.4767 29.819 18.0435L30.0249 18.4478C28.5774 18.7493 27.3459 19.3071 26.453 20.2668Z" fill="black"/>
<path opacity="0.2" d="M27.4142 22.1535L27.2083 21.7492C28.2359 20.9506 29.4427 20.3634 30.7802 19.9302L30.9861 20.3345C29.5386 20.636 28.3071 21.1938 27.4142 22.1535Z" fill="black"/>
<path opacity="0.2" d="M28.3751 24.0407L28.1692 23.6364C29.1969 22.8378 30.4037 22.2506 31.7411 21.8174L31.947 22.2217C30.4995 22.5232 29.268 23.081 28.3751 24.0407Z" fill="black"/>
<path opacity="0.2" d="M29.336 25.9279L29.1301 25.5236C30.1578 24.725 31.3646 24.1378 32.702 23.7046L32.908 24.109C31.4605 24.4104 30.229 24.9682 29.336 25.9279Z" fill="black"/>
<path opacity="0.2" d="M30.297 27.8147L30.0911 27.4103C31.1188 26.6118 32.3256 26.0245 33.663 25.5913L33.8689 25.9957C32.4214 26.2971 31.1899 26.8549 30.297 27.8147Z" fill="black"/>
<path d="M51.5987 22.8264L51.6128 22.8265C52.0934 22.8305 52.564 22.6896 52.9633 22.4221C53.3625 22.1547 53.6719 21.7731 53.8511 21.3272C54.2196 20.3957 54.4053 19.4021 54.3981 18.4005C54.373 14.161 50.9239 10.6829 46.6848 10.6243C44.8794 10.599 43.1208 11.1988 41.7071 12.322C40.2935 13.4452 39.3117 15.0227 38.9283 16.7871C38.5448 18.5515 38.7833 20.3941 39.6032 22.0028C40.4232 23.6114 41.7742 24.887 43.4272 25.6133C43.864 25.8067 44.3491 25.8636 44.8189 25.7765C45.2886 25.6894 45.721 25.4624 46.0595 25.1252C46.7854 24.3955 47.6486 23.8167 48.5993 23.4221C49.55 23.0276 50.5694 22.8251 51.5987 22.8264Z" fill="#E6E6E6"/>
<path d="M47.579 20.4578C49.0062 20.4578 50.1632 19.3009 50.1632 17.8737C50.1632 16.4465 49.0062 15.2896 47.579 15.2896C46.1518 15.2896 44.9949 16.4465 44.9949 17.8737C44.9949 19.3009 46.1518 20.4578 47.579 20.4578Z" fill="#F9A825"/>
<path d="M41.9626 17.583C42.1308 17.583 42.2671 17.4467 42.2671 17.2785C42.2671 17.1104 42.1308 16.9741 41.9626 16.9741C41.7945 16.9741 41.6582 17.1104 41.6582 17.2785C41.6582 17.4467 41.7945 17.583 41.9626 17.583Z" fill="#3F3D56"/>
<path d="M31.9136 17.8701C32.0817 17.8701 32.218 17.7338 32.218 17.5657C32.218 17.3975 32.0817 17.2612 31.9136 17.2612C31.7454 17.2612 31.6091 17.3975 31.6091 17.5657C31.6091 17.7338 31.7454 17.8701 31.9136 17.8701Z" fill="#3F3D56"/>
<path d="M43.5852 14.4282C43.7533 14.4282 43.8896 14.2919 43.8896 14.1238C43.8896 13.9556 43.7533 13.8193 43.5852 13.8193C43.4171 13.8193 43.2808 13.9556 43.2808 14.1238C43.2808 14.2919 43.4171 14.4282 43.5852 14.4282Z" fill="#3F3D56"/>
<path d="M43.5764 23.2026C43.7445 23.2026 43.8808 23.0663 43.8808 22.8982C43.8808 22.73 43.7445 22.5938 43.5764 22.5938C43.4083 22.5938 43.272 22.73 43.272 22.8982C43.272 23.0663 43.4083 23.2026 43.5764 23.2026Z" fill="#3F3D56"/>
<path d="M49.6062 13.7993C49.7743 13.7993 49.9106 13.663 49.9106 13.4949C49.9106 13.3267 49.7743 13.1904 49.6062 13.1904C49.4381 13.1904 49.3018 13.3267 49.3018 13.4949C49.3018 13.663 49.4381 13.7993 49.6062 13.7993Z" fill="#3F3D56"/>
<path d="M29.9382 22.1259C30.1063 22.1259 30.2426 21.9896 30.2426 21.8215C30.2426 21.6534 30.1063 21.5171 29.9382 21.5171C29.7701 21.5171 29.6338 21.6534 29.6338 21.8215C29.6338 21.9896 29.7701 22.1259 29.9382 22.1259Z" fill="#3F3D56"/>
<path d="M32.1633 26.5048C32.3314 26.5048 32.4677 26.3685 32.4677 26.2004C32.4677 26.0323 32.3314 25.896 32.1633 25.896C31.9952 25.896 31.8589 26.0323 31.8589 26.2004C31.8589 26.3685 31.9952 26.5048 32.1633 26.5048Z" fill="#3F3D56"/>
<path d="M46.1434 27.923C46.7777 27.923 47.2919 27.4088 47.2919 26.7745C47.2919 26.1402 46.7777 25.626 46.1434 25.626C45.5091 25.626 44.9949 26.1402 44.9949 26.7745C44.9949 27.4088 45.5091 27.923 46.1434 27.923Z" fill="#FF6584"/>
<path opacity="0.2" d="M47.0047 26.8462C47.0047 27.0746 46.914 27.2937 46.7524 27.4553C46.5909 27.6168 46.3718 27.7076 46.1434 27.7076C45.9149 27.7076 45.6958 27.6168 45.5343 27.4553C45.3727 27.2937 45.282 27.0746 45.282 26.8462" fill="black"/>
<path opacity="0.2" d="M45.282 26.7027C45.282 26.4742 45.3727 26.2551 45.5343 26.0936C45.6958 25.9321 45.9149 25.8413 46.1434 25.8413C46.3718 25.8413 46.5909 25.9321 46.7524 26.0936C46.914 26.2551 47.0047 26.4742 47.0047 26.7027" fill="black"/>
<path d="M45.7127 26.4873C45.7523 26.4873 45.7844 26.4391 45.7844 26.3796C45.7844 26.3202 45.7523 26.272 45.7127 26.272C45.673 26.272 45.6409 26.3202 45.6409 26.3796C45.6409 26.4391 45.673 26.4873 45.7127 26.4873Z" fill="#FF6584"/>
<path d="M46.1433 26.3438C46.183 26.3438 46.2151 26.2956 46.2151 26.2361C46.2151 26.1766 46.183 26.1284 46.1433 26.1284C46.1037 26.1284 46.0715 26.1766 46.0715 26.2361C46.0715 26.2956 46.1037 26.3438 46.1433 26.3438Z" fill="#FF6584"/>
<path d="M46.1433 27.2774C46.183 27.2774 46.2151 27.2292 46.2151 27.1697C46.2151 27.1102 46.183 27.062 46.1433 27.062C46.1037 27.062 46.0715 27.1102 46.0715 27.1697C46.0715 27.2292 46.1037 27.2774 46.1433 27.2774Z" fill="#FF6584"/>
<path d="M46.5742 26.7026C46.6139 26.7026 46.646 26.6544 46.646 26.595C46.646 26.5355 46.6139 26.4873 46.5742 26.4873C46.5346 26.4873 46.5024 26.5355 46.5024 26.595C46.5024 26.6544 46.5346 26.7026 46.5742 26.7026Z" fill="#FF6584"/>
<path d="M46.5024 27.4922C46.5421 27.4922 46.5742 27.444 46.5742 27.3845C46.5742 27.3251 46.5421 27.2769 46.5024 27.2769C46.4628 27.2769 46.4307 27.3251 46.4307 27.3845C46.4307 27.444 46.4628 27.4922 46.5024 27.4922Z" fill="#FF6584"/>
<path d="M45.6411 27.1333C45.6808 27.1333 45.7129 27.0851 45.7129 27.0256C45.7129 26.9662 45.6808 26.918 45.6411 26.918C45.6015 26.918 45.5693 26.9662 45.5693 27.0256C45.5693 27.0851 45.6015 27.1333 45.6411 27.1333Z" fill="#FF6584"/>
<path d="M48.4403 24.8366C49.0746 24.8366 49.5888 24.3224 49.5888 23.6881C49.5888 23.0538 49.0746 22.5396 48.4403 22.5396C47.806 22.5396 47.2917 23.0538 47.2917 23.6881C47.2917 24.3224 47.806 24.8366 48.4403 24.8366Z" fill="#FF6584"/>
<path opacity="0.2" d="M49.3016 23.7598C49.3016 23.9882 49.2109 24.2073 49.0493 24.3689C48.8878 24.5304 48.6687 24.6211 48.4402 24.6211C48.2118 24.6211 47.9927 24.5304 47.8311 24.3689C47.6696 24.2073 47.5789 23.9882 47.5789 23.7598" fill="black"/>
<path opacity="0.2" d="M47.5789 23.6163C47.5789 23.3878 47.6696 23.1687 47.8311 23.0072C47.9927 22.8456 48.2118 22.7549 48.4402 22.7549C48.6687 22.7549 48.8878 22.8456 49.0493 23.0072C49.2109 23.1687 49.3016 23.3878 49.3016 23.6163" fill="black"/>
<path d="M48.0098 23.4009C48.0494 23.4009 48.0816 23.3527 48.0816 23.2932C48.0816 23.2338 48.0494 23.1855 48.0098 23.1855C47.9701 23.1855 47.938 23.2338 47.938 23.2932C47.938 23.3527 47.9701 23.4009 48.0098 23.4009Z" fill="#FF6584"/>
<path d="M48.4404 23.2573C48.4801 23.2573 48.5122 23.2091 48.5122 23.1497C48.5122 23.0902 48.4801 23.042 48.4404 23.042C48.4008 23.042 48.3687 23.0902 48.3687 23.1497C48.3687 23.2091 48.4008 23.2573 48.4404 23.2573Z" fill="#FF6584"/>
<path d="M48.4404 24.1904C48.4801 24.1904 48.5122 24.1422 48.5122 24.0828C48.5122 24.0233 48.4801 23.9751 48.4404 23.9751C48.4008 23.9751 48.3687 24.0233 48.3687 24.0828C48.3687 24.1422 48.4008 24.1904 48.4404 24.1904Z" fill="#FF6584"/>
<path d="M48.8711 23.6162C48.9107 23.6162 48.9429 23.568 48.9429 23.5086C48.9429 23.4491 48.9107 23.4009 48.8711 23.4009C48.8315 23.4009 48.7993 23.4491 48.7993 23.5086C48.7993 23.568 48.8315 23.6162 48.8711 23.6162Z" fill="#FF6584"/>
<path d="M48.7993 24.4058C48.839 24.4058 48.8711 24.3576 48.8711 24.2981C48.8711 24.2386 48.839 24.1904 48.7993 24.1904C48.7597 24.1904 48.7275 24.2386 48.7275 24.2981C48.7275 24.3576 48.7597 24.4058 48.7993 24.4058Z" fill="#FF6584"/>
<path d="M47.938 24.0469C47.9776 24.0469 48.0098 23.9987 48.0098 23.9392C48.0098 23.8797 47.9776 23.8315 47.938 23.8315C47.8983 23.8315 47.8662 23.8797 47.8662 23.9392C47.8662 23.9987 47.8983 24.0469 47.938 24.0469Z" fill="#FF6584"/>
<path d="M50.7374 26.4157C51.3717 26.4157 51.8859 25.9015 51.8859 25.2672C51.8859 24.6329 51.3717 24.1187 50.7374 24.1187C50.1031 24.1187 49.5889 24.6329 49.5889 25.2672C49.5889 25.9015 50.1031 26.4157 50.7374 26.4157Z" fill="#6C63FF"/>
<path opacity="0.2" d="M51.599 25.3389C51.599 25.5673 51.5082 25.7864 51.3467 25.948C51.1852 26.1095 50.9661 26.2003 50.7376 26.2003C50.5091 26.2003 50.2901 26.1095 50.1285 25.948C49.967 25.7864 49.8762 25.5673 49.8762 25.3389" fill="black"/>
<path opacity="0.2" d="M49.8762 25.1954C49.8762 24.9669 49.967 24.7478 50.1285 24.5863C50.2901 24.4247 50.5091 24.334 50.7376 24.334C50.9661 24.334 51.1852 24.4247 51.3467 24.5863C51.5082 24.7478 51.599 24.9669 51.599 25.1954" fill="black"/>
<path d="M50.3066 24.98C50.3463 24.98 50.3784 24.9318 50.3784 24.8723C50.3784 24.8129 50.3463 24.7646 50.3066 24.7646C50.267 24.7646 50.2349 24.8129 50.2349 24.8723C50.2349 24.9318 50.267 24.98 50.3066 24.98Z" fill="#6C63FF"/>
<path d="M50.7373 24.8364C50.777 24.8364 50.8091 24.7882 50.8091 24.7288C50.8091 24.6693 50.777 24.6211 50.7373 24.6211C50.6977 24.6211 50.6655 24.6693 50.6655 24.7288C50.6655 24.7882 50.6977 24.8364 50.7373 24.8364Z" fill="#6C63FF"/>
<path d="M50.7373 25.7695C50.777 25.7695 50.8091 25.7213 50.8091 25.6619C50.8091 25.6024 50.777 25.5542 50.7373 25.5542C50.6977 25.5542 50.6655 25.6024 50.6655 25.6619C50.6655 25.7213 50.6977 25.7695 50.7373 25.7695Z" fill="#6C63FF"/>
<path d="M51.1682 25.1953C51.2079 25.1953 51.24 25.1471 51.24 25.0877C51.24 25.0282 51.2079 24.98 51.1682 24.98C51.1286 24.98 51.0964 25.0282 51.0964 25.0877C51.0964 25.1471 51.1286 25.1953 51.1682 25.1953Z" fill="#6C63FF"/>
<path d="M51.0964 25.9849C51.1361 25.9849 51.1682 25.9367 51.1682 25.8772C51.1682 25.8177 51.1361 25.7695 51.0964 25.7695C51.0568 25.7695 51.0247 25.8177 51.0247 25.8772C51.0247 25.9367 51.0568 25.9849 51.0964 25.9849Z" fill="#6C63FF"/>
<path d="M50.2351 25.626C50.2748 25.626 50.3069 25.5778 50.3069 25.5183C50.3069 25.4589 50.2748 25.4106 50.2351 25.4106C50.1955 25.4106 50.1633 25.4589 50.1633 25.5183C50.1633 25.5778 50.1955 25.626 50.2351 25.626Z" fill="#6C63FF"/>
<path d="M44.9949 26.5592C45.6292 26.5592 46.1435 26.045 46.1435 25.4107C46.1435 24.7764 45.6292 24.2622 44.9949 24.2622C44.3606 24.2622 43.8464 24.7764 43.8464 25.4107C43.8464 26.045 44.3606 26.5592 44.9949 26.5592Z" fill="#6C63FF"/>
<path opacity="0.2" d="M45.8563 25.4824C45.8563 25.7109 45.7656 25.93 45.604 26.0915C45.4425 26.2531 45.2234 26.3438 44.9949 26.3438C44.7665 26.3438 44.5474 26.2531 44.3858 26.0915C44.2243 25.93 44.1335 25.7109 44.1335 25.4824" fill="black"/>
<path opacity="0.2" d="M44.1335 25.3389C44.1335 25.1105 44.2243 24.8914 44.3858 24.7298C44.5474 24.5683 44.7665 24.4775 44.9949 24.4775C45.2234 24.4775 45.4425 24.5683 45.604 24.7298C45.7656 24.8914 45.8563 25.1105 45.8563 25.3389" fill="black"/>
<path d="M44.5642 25.1235C44.6039 25.1235 44.636 25.0753 44.636 25.0159C44.636 24.9564 44.6039 24.9082 44.5642 24.9082C44.5246 24.9082 44.4924 24.9564 44.4924 25.0159C44.4924 25.0753 44.5246 25.1235 44.5642 25.1235Z" fill="#6C63FF"/>
<path d="M44.9951 24.98C45.0348 24.98 45.0669 24.9318 45.0669 24.8723C45.0669 24.8129 45.0348 24.7646 44.9951 24.7646C44.9555 24.7646 44.9233 24.8129 44.9233 24.8723C44.9233 24.9318 44.9555 24.98 44.9951 24.98Z" fill="#6C63FF"/>
<path d="M44.9951 25.9131C45.0348 25.9131 45.0669 25.8649 45.0669 25.8054C45.0669 25.746 45.0348 25.6978 44.9951 25.6978C44.9555 25.6978 44.9233 25.746 44.9233 25.8054C44.9233 25.8649 44.9555 25.9131 44.9951 25.9131Z" fill="#6C63FF"/>
<path d="M45.4255 25.3389C45.4652 25.3389 45.4973 25.2907 45.4973 25.2312C45.4973 25.1717 45.4652 25.1235 45.4255 25.1235C45.3859 25.1235 45.3538 25.1717 45.3538 25.2312C45.3538 25.2907 45.3859 25.3389 45.4255 25.3389Z" fill="#6C63FF"/>
<path d="M45.3538 26.1284C45.3934 26.1284 45.4255 26.0802 45.4255 26.0208C45.4255 25.9613 45.3934 25.9131 45.3538 25.9131C45.3141 25.9131 45.282 25.9613 45.282 26.0208C45.282 26.0802 45.3141 26.1284 45.3538 26.1284Z" fill="#6C63FF"/>
<path d="M44.4924 25.7695C44.5321 25.7695 44.5642 25.7213 44.5642 25.6619C44.5642 25.6024 44.5321 25.5542 44.4924 25.5542C44.4528 25.5542 44.4207 25.6024 44.4207 25.6619C44.4207 25.7213 44.4528 25.7695 44.4924 25.7695Z" fill="#6C63FF"/>
<path d="M47.5792 27.0617C48.2135 27.0617 48.7277 26.5475 48.7277 25.9132C48.7277 25.2789 48.2135 24.7646 47.5792 24.7646C46.9449 24.7646 46.4307 25.2789 46.4307 25.9132C46.4307 26.5475 46.9449 27.0617 47.5792 27.0617Z" fill="#6C63FF"/>
<path opacity="0.2" d="M48.4405 25.9849C48.4405 26.098 48.4183 26.21 48.375 26.3145C48.3317 26.419 48.2682 26.514 48.1882 26.594C48.1083 26.6739 48.0133 26.7374 47.9088 26.7807C47.8043 26.824 47.6923 26.8462 47.5792 26.8462C47.466 26.8462 47.354 26.824 47.2495 26.7807C47.145 26.7374 47.0501 26.6739 46.9701 26.594C46.8901 26.514 46.8266 26.419 46.7833 26.3145C46.7401 26.21 46.7178 26.098 46.7178 25.9849" fill="black"/>
<path opacity="0.2" d="M46.7178 25.8414C46.7178 25.7282 46.7401 25.6162 46.7833 25.5117C46.8266 25.4072 46.8901 25.3123 46.9701 25.2323C47.0501 25.1523 47.145 25.0888 47.2495 25.0456C47.354 25.0023 47.466 24.98 47.5792 24.98C47.6923 24.98 47.8043 25.0023 47.9088 25.0456C48.0133 25.0888 48.1083 25.1523 48.1882 25.2323C48.2682 25.3123 48.3317 25.4072 48.375 25.5117C48.4183 25.6162 48.4405 25.7282 48.4405 25.8414" fill="black"/>
<path d="M47.1484 25.626C47.1881 25.626 47.2202 25.5778 47.2202 25.5183C47.2202 25.4589 47.1881 25.4106 47.1484 25.4106C47.1088 25.4106 47.0767 25.4589 47.0767 25.5183C47.0767 25.5778 47.1088 25.626 47.1484 25.626Z" fill="#6C63FF"/>
<path d="M47.5791 25.4824C47.6187 25.4824 47.6509 25.4342 47.6509 25.3748C47.6509 25.3153 47.6187 25.2671 47.5791 25.2671C47.5395 25.2671 47.5073 25.3153 47.5073 25.3748C47.5073 25.4342 47.5395 25.4824 47.5791 25.4824Z" fill="#6C63FF"/>
<path d="M47.5791 26.4155C47.6187 26.4155 47.6509 26.3673 47.6509 26.3079C47.6509 26.2484 47.6187 26.2002 47.5791 26.2002C47.5395 26.2002 47.5073 26.2484 47.5073 26.3079C47.5073 26.3673 47.5395 26.4155 47.5791 26.4155Z" fill="#6C63FF"/>
<path d="M48.0098 25.8413C48.0494 25.8413 48.0816 25.7931 48.0816 25.7336C48.0816 25.6742 48.0494 25.626 48.0098 25.626C47.9701 25.626 47.938 25.6742 47.938 25.7336C47.938 25.7931 47.9701 25.8413 48.0098 25.8413Z" fill="#6C63FF"/>
<path d="M47.938 26.6309C47.9776 26.6309 48.0098 26.5827 48.0098 26.5232C48.0098 26.4637 47.9776 26.4155 47.938 26.4155C47.8983 26.4155 47.8662 26.4637 47.8662 26.5232C47.8662 26.5827 47.8983 26.6309 47.938 26.6309Z" fill="#6C63FF"/>
<path d="M47.0767 26.272C47.1163 26.272 47.1484 26.2238 47.1484 26.1643C47.1484 26.1048 47.1163 26.0566 47.0767 26.0566C47.037 26.0566 47.0049 26.1048 47.0049 26.1643C47.0049 26.2238 47.037 26.272 47.0767 26.272Z" fill="#6C63FF"/>
<path d="M49.3738 28.2819C50.0082 28.2819 50.5224 27.7677 50.5224 27.1334C50.5224 26.4991 50.0082 25.9849 49.3738 25.9849C48.7395 25.9849 48.2253 26.4991 48.2253 27.1334C48.2253 27.7677 48.7395 28.2819 49.3738 28.2819Z" fill="#FF6584"/>
<path opacity="0.2" d="M50.235 27.2056C50.235 27.434 50.1442 27.6531 49.9827 27.8147C49.8211 27.9762 49.602 28.0669 49.3736 28.0669C49.1451 28.0669 48.926 27.9762 48.7645 27.8147C48.603 27.6531 48.5122 27.434 48.5122 27.2056" fill="black"/>
<path opacity="0.2" d="M48.5122 27.0616C48.5122 26.8331 48.603 26.614 48.7645 26.4525C48.926 26.2909 49.1451 26.2002 49.3736 26.2002C49.602 26.2002 49.8211 26.2909 49.9827 26.4525C50.1442 26.614 50.235 26.8331 50.235 27.0616" fill="black"/>
<path d="M48.9431 26.8462C48.9828 26.8462 49.0149 26.798 49.0149 26.7385C49.0149 26.6791 48.9828 26.6309 48.9431 26.6309C48.9035 26.6309 48.8713 26.6791 48.8713 26.7385C48.8713 26.798 48.9035 26.8462 48.9431 26.8462Z" fill="#FF6584"/>
<path d="M49.3735 26.7026C49.4132 26.7026 49.4453 26.6544 49.4453 26.595C49.4453 26.5355 49.4132 26.4873 49.3735 26.4873C49.3339 26.4873 49.3018 26.5355 49.3018 26.595C49.3018 26.6544 49.3339 26.7026 49.3735 26.7026Z" fill="#FF6584"/>
<path d="M49.3735 27.6358C49.4132 27.6358 49.4453 27.5875 49.4453 27.5281C49.4453 27.4686 49.4132 27.4204 49.3735 27.4204C49.3339 27.4204 49.3018 27.4686 49.3018 27.5281C49.3018 27.5875 49.3339 27.6358 49.3735 27.6358Z" fill="#FF6584"/>
<path d="M49.8042 27.0615C49.8438 27.0615 49.876 27.0133 49.876 26.9539C49.876 26.8944 49.8438 26.8462 49.8042 26.8462C49.7646 26.8462 49.7324 26.8944 49.7324 26.9539C49.7324 27.0133 49.7646 27.0615 49.8042 27.0615Z" fill="#FF6584"/>
<path d="M49.7324 27.8511C49.7721 27.8511 49.8042 27.8029 49.8042 27.7434C49.8042 27.684 49.7721 27.6357 49.7324 27.6357C49.6928 27.6357 49.6606 27.684 49.6606 27.7434C49.6606 27.8029 49.6928 27.8511 49.7324 27.8511Z" fill="#FF6584"/>
<path d="M48.8711 27.4922C48.9107 27.4922 48.9429 27.444 48.9429 27.3845C48.9429 27.3251 48.9107 27.2769 48.8711 27.2769C48.8315 27.2769 48.7993 27.3251 48.7993 27.3845C48.7993 27.444 48.8315 27.4922 48.8711 27.4922Z" fill="#FF6584"/>
<path d="M34.6037 23.059C34.7719 23.059 34.9082 22.9227 34.9082 22.7546C34.9082 22.5865 34.7719 22.4502 34.6037 22.4502C34.4356 22.4502 34.2993 22.5865 34.2993 22.7546C34.2993 22.9227 34.4356 23.059 34.6037 23.059Z" fill="#3F3D56"/>
<path d="M42.8788 33.8047L35.5676 31.7771L35.8477 30.7368L43.1589 32.7645L42.8788 33.8047Z" fill="#F9A825"/>
<path d="M41.807 33.4568C39.3033 33.9361 36.7315 33.9361 34.2278 33.4568V32.3784C36.7371 32.7943 39.2977 32.7943 41.807 32.3784V33.4568Z" fill="#F9A825"/>
<path d="M42.5858 30.222C40.0822 30.7012 37.5103 30.7012 35.0066 30.222V29.1436C37.5159 29.5594 40.0765 29.5594 42.5858 29.1436V30.222Z" fill="#F9A825"/>
<path d="M45.2069 31.5159C42.7032 31.9952 40.1314 31.9952 37.6277 31.5159V30.4375C40.137 30.8534 42.6976 30.8534 45.2069 30.4375V31.5159Z" fill="#F9A825"/>
<path d="M45.8444 32.7381C43.3407 33.2174 40.7688 33.2174 38.2651 32.7381V31.6597C40.7744 32.0756 43.3351 32.0756 45.8444 31.6597V32.7381Z" fill="#F9A825"/>
<path d="M48.0673 34.335L40.5897 35.591L40.4163 34.527L47.8938 33.271L48.0673 34.335Z" fill="#F9A825"/>
<path d="M46.9502 34.4735C44.877 35.9679 42.5405 37.0577 40.0633 37.6856L39.6196 36.7057C42.0752 36.0181 44.4016 34.9331 46.5065 33.4937L46.9502 34.4735Z" fill="#F9A825"/>
<path d="M46.3271 31.2035C44.254 32.6979 41.9175 33.7877 39.4402 34.4156L38.9966 33.4357C41.4522 32.7481 43.7786 31.6631 45.8835 30.2236L46.3271 31.2035Z" fill="#F9A825"/>
<path d="M49.241 31.2685C47.1678 32.7629 44.8313 33.8526 42.3541 34.4805L41.9104 33.5006C44.366 32.813 46.6924 31.728 48.7973 30.2886L49.241 31.2685Z" fill="#F9A825"/>
<path d="M50.323 32.1093C48.2499 33.6037 45.9133 34.6934 43.4361 35.3214L42.9924 34.3415C45.448 33.6539 47.7744 32.5688 49.8793 31.1294L50.323 32.1093Z" fill="#F9A825"/>
<path d="M41.2625 30.0049H40.9036V30.3638H41.2625V30.0049Z" fill="#00BF71"/>
<path d="M42.3389 36.25H41.98V36.6089H42.3389V36.25Z" fill="#00BF71"/>
<path d="M36.5965 30.0049H36.2375V30.3638H36.5965V30.0049Z" fill="#00BF71"/>
<path d="M44.9234 34.4551H44.5645V34.814H44.9234V34.4551Z" fill="#00BF71"/>
<path d="M45.1384 32.3735H44.7795V32.7324H45.1384V32.3735Z" fill="#00BF71"/>
<path d="M39.2178 31.391L38.802 31.1089L38.6408 31.3465L39.0566 31.6286L39.2178 31.391Z" fill="#00BF71"/>
<path d="M43.4529 32.1805L43.0371 31.8984L42.8759 32.136L43.2917 32.4181L43.4529 32.1805Z" fill="#00BF71"/>
<path d="M38.2847 33.5443L37.8689 33.2622L37.7077 33.4998L38.1235 33.7819L38.2847 33.5443Z" fill="#00BF71"/>
<path d="M40.9169 33.5237L41.199 33.1079L40.9614 32.9467L40.6793 33.3625L40.9169 33.5237Z" fill="#00BF71"/>
<path d="M42.8551 34.0257L43.1372 33.6099L42.8996 33.4487L42.6175 33.8645L42.8551 34.0257Z" fill="#00BF71"/>
<path d="M48.0238 32.303L48.3059 31.8872L48.0683 31.726L47.7862 32.1418L48.0238 32.303Z" fill="#00BF71"/>
<path d="M82 44.6245H0V44.8314H82V44.6245Z" fill="#3F3D56"/>
</g>
<defs>
<clipPath id="clip0_1275_9966">
<rect width="82" height="44.8312" fill="white"/>
</clipPath>
</defs>
</svg>
