<svg width="76" height="45" viewBox="0 0 76 45" fill="none" xmlns="http://www.w3.org/2000/svg">
<g clip-path="url(#clip0_1275_10493)">
<path d="M33.8806 44.1992C33.3163 44.1987 32.7612 44.3421 32.2678 44.616H35.4892C34.9973 44.3422 34.4436 44.1988 33.8806 44.1992Z" fill="#E6E6E6"/>
<path d="M40.1316 43.7822C39.189 43.7811 38.2692 44.0723 37.499 44.6157H42.7605C41.9914 44.073 41.0729 43.7818 40.1316 43.7822Z" fill="#E6E6E6"/>
<path d="M75.5408 38.5069C75.3054 34.2388 71.8762 30.759 67.6117 30.4673C65.6459 30.3292 63.6927 30.8748 62.0831 32.0116C60.4734 33.1485 59.3062 34.8068 58.7791 36.7057C58.6756 36.702 58.5722 36.6978 58.4678 36.6978C56.6221 36.6982 54.8261 37.2961 53.3485 38.4022C51.8709 39.5083 50.7912 41.063 50.2708 42.8339C49.0478 42.2965 47.6811 42.1799 46.3847 42.5024C45.0883 42.8248 43.9354 43.5681 43.1067 44.6159H69.7555C73.0295 44.6159 75.6803 41.9041 75.5468 38.6329C75.5451 38.5909 75.5431 38.5489 75.5408 38.5069Z" fill="#E6E6E6"/>
<path d="M74.8489 44.5273H-0.000244141V44.7037H74.8489V44.5273Z" fill="#3F3D56"/>
<path d="M24.98 15.8898C24.98 15.8898 21.5827 14.8316 22.1042 16.5727C22.6258 18.3137 25.4873 17.4343 25.4873 17.4343L24.98 15.8898Z" fill="#FFB8B8"/>
<path d="M37.9664 9.35526C37.9664 9.35526 36.2253 6.97608 34.5338 9.44597C32.839 11.9207 31.2632 13.9524 31.2632 13.9524L27.0539 15.3248L24.6187 15.5409L25.2895 17.706L32.3701 16.6788C32.3701 16.6788 40.2529 11.9962 37.9664 9.35526Z" fill="#2F2E41"/>
<path d="M30.1952 22.5312C30.1952 22.5312 27.5504 24.3826 27.7267 26.0577C27.903 27.7328 29.0491 32.3172 29.0491 32.3172L31.4295 31.9645C31.4295 31.9645 31.694 28.4381 30.8124 27.1156L35.0441 24.7353L30.1952 22.5312Z" fill="#FFB8B8"/>
<path d="M36.0578 26.8945C36.0578 26.8945 35.8815 30.1565 36.3223 31.4789C36.7631 32.8014 37.2039 37.7384 37.2039 37.7384H39.6724C39.6724 37.7384 40.8185 33.4185 39.4079 31.4789C39.4079 31.4789 38.9671 28.9222 40.2014 27.688L36.0578 26.8945Z" fill="#FFB8B8"/>
<path d="M35.4846 17.8586C35.4846 17.8586 29.7542 21.4732 29.7542 22.6193L34.3385 26.4103L35.9255 24.647L35.7491 27.2919L40.6862 28.2617C40.6862 28.2617 42.4494 21.5614 42.3612 21.2969C42.2731 21.0324 42.0086 17.1533 42.0086 17.1533L35.4846 17.8586Z" fill="#2F2E41"/>
<path d="M31.4295 31.5234L28.8728 32.0524L29.3271 33.9199C29.5506 34.839 29.5761 35.7952 29.4018 36.725C29.4018 36.725 32.0466 37.4303 32.0466 37.0776C32.0466 36.725 31.4295 35.3144 31.6058 34.3446C31.7821 33.3748 31.4295 31.5234 31.4295 31.5234Z" fill="#6C63FF"/>
<path d="M32.7518 38.1353C32.6636 37.7827 31.9311 36.1838 31.9006 36.4543C31.8701 36.7247 30.4596 37.1656 29.9306 36.6366C29.9306 36.6366 29.2253 36.0195 28.9608 36.6366C28.6963 37.2537 28.1674 38.3117 28.1674 38.3117C28.1674 38.3117 25.787 39.4578 26.1396 40.0749C26.211 40.1997 26.4086 40.2523 26.6784 40.257C26.672 40.2733 26.6687 40.2906 26.6686 40.3081V40.3706C26.6686 40.4091 26.6839 40.446 26.7111 40.4732C26.7383 40.5004 26.7752 40.5157 26.8137 40.5157H26.8762C26.9147 40.5157 26.9516 40.5004 26.9788 40.4732C27.006 40.446 27.0213 40.4091 27.0213 40.3706V40.3081C27.0211 40.2856 27.0157 40.2635 27.0054 40.2435C27.0775 40.2371 27.1523 40.2288 27.2292 40.2187C27.2089 40.2441 27.1977 40.2756 27.1976 40.3081V40.3706C27.1976 40.4091 27.2129 40.446 27.2401 40.4732C27.2673 40.5004 27.3042 40.5157 27.3427 40.5157H27.4051C27.4436 40.5157 27.4805 40.5004 27.5077 40.4732C27.5349 40.446 27.5502 40.4091 27.5502 40.3706V40.3081C27.5502 40.2823 27.5432 40.2569 27.53 40.2347C27.5168 40.2125 27.4979 40.1942 27.4752 40.1818C27.6781 40.1479 27.8899 40.1049 28.1005 40.0571C28.0867 40.0796 28.0793 40.1054 28.0792 40.1318V40.1943C28.0792 40.2328 28.0945 40.2697 28.1217 40.2969C28.1489 40.3241 28.1858 40.3394 28.2243 40.3394H28.2868C28.3252 40.3394 28.3621 40.3241 28.3893 40.2969C28.4166 40.2697 28.4318 40.2328 28.4318 40.1943V40.1318C28.4318 40.1038 28.4237 40.0763 28.4083 40.0528C28.393 40.0293 28.3712 40.0108 28.3456 39.9994C28.5035 39.9609 28.6583 39.9208 28.8057 39.881C28.7919 39.9034 28.7846 39.9292 28.7845 39.9555V40.018C28.7845 40.0564 28.7998 40.0933 28.827 40.1206C28.8542 40.1478 28.8911 40.163 28.9296 40.163H28.9921C29.0305 40.163 29.0674 40.1478 29.0946 40.1206C29.1218 40.0933 29.1371 40.0564 29.1371 40.018V39.9555C29.1371 39.9246 29.1271 39.8946 29.1088 39.8698C29.0904 39.845 29.0646 39.8267 29.0351 39.8176C29.5529 39.6718 29.9306 39.5459 29.9306 39.5459C29.9306 39.5459 30.3692 39.3863 30.9004 39.1707V39.2245C30.9004 39.263 30.9157 39.2999 30.9429 39.3271C30.9701 39.3543 31.007 39.3696 31.0455 39.3696H31.1079C31.1464 39.3696 31.1833 39.3543 31.2105 39.3271C31.2377 39.2999 31.253 39.263 31.253 39.2245V39.162C31.253 39.14 31.2479 39.1183 31.2381 39.0986C31.2284 39.0789 31.2143 39.0616 31.1969 39.0482C31.3035 39.0034 31.4111 38.9573 31.5175 38.9104V38.96C31.5175 38.9985 31.5328 39.0354 31.56 39.0626C31.5872 39.0898 31.6241 39.1051 31.6626 39.1051H31.7251C31.7635 39.1051 31.8004 39.0898 31.8277 39.0626C31.8549 39.0354 31.8701 38.9985 31.8701 38.96V38.8975C31.8701 38.8742 31.8645 38.8512 31.8537 38.8305C31.8429 38.8099 31.8272 38.7921 31.808 38.7788C31.9231 38.7251 32.0339 38.6715 32.136 38.619C32.1356 38.6237 32.1346 38.6282 32.1346 38.6331V38.6955C32.1346 38.734 32.1499 38.7709 32.1771 38.7981C32.2043 38.8253 32.2412 38.8406 32.2797 38.8406H32.3422C32.3807 38.8406 32.4176 38.8253 32.4448 38.7981C32.472 38.7709 32.4873 38.734 32.4873 38.6955V38.6331C32.4873 38.5996 32.4757 38.5672 32.4546 38.5413C32.4334 38.5154 32.4039 38.4976 32.3712 38.4909C32.6177 38.3477 32.7731 38.2208 32.7518 38.1353Z" fill="#2F2E41"/>
<path d="M39.8489 37.3423L37.0559 37.166C37.0559 37.166 37.2252 40.0753 36.8866 41.0451C36.5481 42.0149 36.7174 42.3675 36.7174 42.3675L39.1718 42.5439L39.8489 37.3423Z" fill="#6C63FF"/>
<path d="M39.8831 43.7721C39.8705 43.4089 39.4874 41.6924 39.4012 41.9506C39.315 42.2087 37.8435 42.3457 37.4365 41.7181C37.4365 41.7181 36.8754 40.9675 36.488 41.5159C36.1007 42.0643 35.3627 42.9887 35.3627 42.9887C35.3627 42.9887 32.7957 43.6133 33.012 44.2904C33.0557 44.4273 33.238 44.52 33.5009 44.5808C33.4913 44.5955 33.4844 44.6117 33.4807 44.6288L33.4676 44.6899C33.4596 44.7276 33.4669 44.7668 33.4878 44.7991C33.5087 44.8314 33.5417 44.854 33.5793 44.8621L33.6404 44.8751C33.678 44.8831 33.7173 44.8759 33.7496 44.8549C33.7819 44.834 33.8045 44.8011 33.8125 44.7634L33.8256 44.7023C33.8301 44.6803 33.8294 44.6575 33.8235 44.6358C33.8954 44.6447 33.9703 44.6521 34.0476 44.6582C34.0224 44.6788 34.0049 44.7073 33.998 44.7391L33.985 44.8002C33.977 44.8378 33.9842 44.8771 34.0051 44.9094C34.0261 44.9417 34.059 44.9643 34.0966 44.9724L34.1577 44.9854C34.1954 44.9934 34.2346 44.9862 34.2669 44.9652C34.2992 44.9443 34.3218 44.9114 34.3299 44.8737L34.3429 44.8126C34.3482 44.7874 34.3467 44.7611 34.3384 44.7366C34.3301 44.7121 34.3154 44.6903 34.2958 44.6735C34.5014 44.6826 34.7175 44.6847 34.9334 44.6819C34.9152 44.701 34.9026 44.7247 34.897 44.7505L34.884 44.8116C34.876 44.8492 34.8832 44.8885 34.9041 44.9208C34.9251 44.9531 34.958 44.9757 34.9956 44.9837L35.0567 44.9968C35.0943 45.0048 35.1336 44.9975 35.1659 44.9766C35.1982 44.9557 35.2208 44.9227 35.2289 44.8851L35.2419 44.824C35.2477 44.7966 35.2455 44.768 35.2354 44.7419C35.2253 44.7157 35.2079 44.693 35.1851 44.6765C35.3476 44.6718 35.5074 44.6648 35.6598 44.6566C35.6417 44.6757 35.6292 44.6994 35.6236 44.7251L35.6105 44.7862C35.6025 44.8238 35.6098 44.8631 35.6307 44.8954C35.6516 44.9277 35.6845 44.9503 35.7222 44.9583L35.7833 44.9714C35.8209 44.9794 35.8602 44.9721 35.8925 44.9512C35.9247 44.9303 35.9474 44.8974 35.9554 44.8597L35.9684 44.7986C35.9748 44.7684 35.9713 44.737 35.9586 44.7089C35.9458 44.6808 35.9243 44.6576 35.8974 44.6425C36.4342 44.6079 36.8299 44.5635 36.8299 44.5635C36.8299 44.5635 37.2921 44.4989 37.8566 44.3987L37.8453 44.4514C37.8373 44.489 37.8446 44.5283 37.8655 44.5606C37.8864 44.5928 37.9193 44.6155 37.957 44.6235L38.0181 44.6365C38.0557 44.6446 38.095 44.6373 38.1273 44.6164C38.1596 44.5954 38.1822 44.5625 38.1902 44.5249L38.2033 44.4638C38.2078 44.4423 38.2073 44.42 38.2019 44.3987C38.1965 44.3773 38.1863 44.3575 38.1721 44.3408C38.2857 44.3192 38.4005 44.2965 38.5144 44.2729L38.504 44.3214C38.496 44.359 38.5033 44.3983 38.5242 44.4306C38.5451 44.4628 38.5781 44.4855 38.6157 44.4935L38.6768 44.5065C38.7144 44.5146 38.7537 44.5073 38.786 44.4864C38.8183 44.4654 38.8409 44.4325 38.8489 44.3949L38.862 44.3338C38.8668 44.311 38.8661 44.2873 38.8598 44.2648C38.8536 44.2423 38.842 44.2217 38.826 44.2047C38.9497 44.1762 39.0692 44.1468 39.1801 44.1168C39.1787 44.1213 39.1768 44.1255 39.1758 44.1303L39.1628 44.1914C39.1547 44.229 39.162 44.2683 39.1829 44.3006C39.2039 44.3328 39.2368 44.3555 39.2744 44.3635L39.3355 44.3765C39.3731 44.3846 39.4124 44.3773 39.4447 44.3564C39.477 44.3354 39.4996 44.3025 39.5076 44.2649L39.5207 44.2038C39.5276 44.1711 39.5231 44.137 39.5078 44.1072C39.4925 44.0775 39.4674 44.0539 39.4368 44.0405C39.7077 43.9519 39.8862 43.8602 39.8831 43.7721Z" fill="#2F2E41"/>
<path d="M35.4847 6.39755C36.8967 6.39755 38.0413 5.25288 38.0413 3.84086C38.0413 2.42885 36.8967 1.28418 35.4847 1.28418C34.0726 1.28418 32.928 2.42885 32.928 3.84086C32.928 5.25288 34.0726 6.39755 35.4847 6.39755Z" fill="#FFB8B8"/>
<path d="M37.7771 3.57617C37.7771 3.57617 39.1877 5.3394 39.893 5.25124L36.8073 7.6316C36.8073 7.6316 36.4547 6.13286 36.0139 5.95653C35.573 5.78021 37.7771 3.57617 37.7771 3.57617Z" fill="#FFB8B8"/>
<path d="M43.2872 16.668C43.2872 16.668 43.287 6.93971 41.655 6.10169C40.0241 5.26415 38.9452 4.78613 38.9452 4.78613C38.9212 5.10534 38.8304 5.41596 38.6789 5.69792C38.5273 5.97988 38.3183 6.2269 38.0653 6.42304C37.5245 6.84054 36.9857 7.18674 36.6848 7.18784L36.6751 7.14656L36.6384 7.04175L35.7494 8.4249C35.7494 8.4249 34.9559 8.60123 34.6914 9.13019C34.5484 9.41637 35.2231 12.2972 34.8237 14.9048C34.4848 17.1171 33.0568 19.1141 33.0164 19.3569C32.948 19.7674 34.6835 18.692 35.4651 18.1893C35.4767 18.2022 35.4849 18.2108 35.4849 18.2108C35.4849 18.2108 35.0441 18.3872 35.9257 18.1227C36.4252 17.9728 37.1227 17.9645 37.6336 17.9854C37.633 18.1386 37.6366 18.2603 37.6448 18.3431C37.733 19.2247 42.1411 20.4589 42.7582 20.1945C43.3753 19.93 43.2872 16.668 43.2872 16.668Z" fill="#2F2E41"/>
<path d="M40.2013 20.0186C40.2013 20.0186 37.5565 22.3989 39.3197 22.8397C41.083 23.2805 41.7883 20.3712 41.7883 20.3712L40.2013 20.0186Z" fill="#FFB8B8"/>
<path d="M37.116 26.19C37.116 26.19 38.3502 25.0439 39.0555 25.661C39.7608 26.2781 40.2016 26.7189 40.2016 26.7189C40.2016 26.7189 38.1739 25.4847 37.116 26.19Z" fill="#6C63FF"/>
<path d="M37.4363 39.9029C37.4363 39.9029 38.132 39.257 38.5295 39.6048C38.927 39.9526 39.1755 40.2011 39.1755 40.2011C39.1755 40.2011 38.0326 39.5054 37.4363 39.9029Z" fill="#2F2E41"/>
<path d="M29.6426 33.8948C29.6426 33.8948 30.1201 33.0744 30.6017 33.2914C31.0832 33.5085 31.3932 33.6739 31.3932 33.6739C31.3932 33.6739 30.0974 33.341 29.6426 33.8948Z" fill="#2F2E41"/>
<path d="M42.6209 7.31181C41.747 5.55511 39.0879 6.51321 39.52 8.42712C39.5265 8.45565 39.5332 8.48446 39.5403 8.51355C39.9957 10.3253 40.7399 12.0518 41.7443 13.6269L40.7745 17.9468L39.7166 20.1509L41.9206 20.6798L44.6536 14.0677C44.6536 14.0677 43.8998 9.88243 42.6209 7.31181Z" fill="#2F2E41"/>
<path opacity="0.2" d="M41.3477 13.7588L39.6726 20.1064L41.0832 17.1089L41.3477 13.7588Z" fill="black"/>
<path d="M37.0904 0.860574C37.0904 0.860574 35.6771 -0.627283 34.2546 0.309713C32.8321 1.24671 32.1573 2.15691 32.2968 2.79066C32.4362 3.42442 32.849 4.30594 32.849 4.30594C32.849 4.30594 32.5925 2.99299 33.7704 2.89582C34.9482 2.79866 36.5756 2.01917 36.5756 2.01917L37.6763 4.3699C37.6763 4.3699 37.8319 3.82516 38.2634 3.9814C38.6948 4.13765 38.3604 1.03484 37.0904 0.860574Z" fill="#2F2E41"/>
<path d="M28.0351 34.4769C28.035 34.7002 28.0164 34.9232 27.9796 35.1434V35.1443C27.8783 35.7368 27.6438 36.2985 27.2938 36.7871C26.9437 37.2757 26.4872 37.6784 25.9587 37.9648C25.4303 38.2512 24.8437 38.4138 24.2432 38.4403C23.6427 38.4669 23.0441 38.3566 22.4924 38.118H22.4915C22.3283 38.0476 22.1701 37.966 22.0181 37.8738C21.547 37.5893 21.14 37.2101 20.8232 36.7601C20.5063 36.3101 20.2863 35.7992 20.1773 35.2598C20.1262 35.002 20.1005 34.7398 20.1006 34.4769C20.1006 34.357 20.1059 34.238 20.1165 34.1208V34.1199C20.2079 33.1075 20.6845 32.1689 21.4479 31.4977C22.2113 30.8265 23.2031 30.4739 24.2189 30.5127C25.2346 30.5515 26.1967 30.9787 26.9067 31.7061C27.6166 32.4336 28.0202 33.4059 28.0342 34.4223V34.4232C28.0351 34.4417 28.0351 34.4584 28.0351 34.4769Z" fill="#6C63FF"/>
<path d="M25.0444 33.1522H23.2676L22.3792 31.6138L22.9818 30.5693L23.017 30.5598C23.7799 30.356 24.5856 30.3785 25.3359 30.6246L25.3678 30.6352L25.9329 31.6138L25.0444 33.1522ZM23.3694 32.9759H24.9427L25.7293 31.6138L25.2489 30.7818C24.5517 30.5607 23.8065 30.5396 23.0979 30.7208L22.5828 31.6138L23.3694 32.9759Z" fill="white"/>
<path d="M24.9563 36.3256H23.1795L22.291 34.7868L23.1795 33.248H24.9563L25.8448 34.7868L24.9563 36.3256ZM23.2812 36.1493H24.8545L25.6412 34.7868L24.8545 33.4244H23.2812L22.4946 34.7868L23.2812 36.1493Z" fill="white"/>
<path d="M24.0677 38.532C23.5135 38.533 22.9652 38.4195 22.4571 38.1984L22.3665 38.1591L23.2674 36.5977H25.0442L25.9072 38.0924L25.8215 38.1336C25.2745 38.3972 24.6748 38.5334 24.0677 38.532ZM22.6185 38.075C23.1033 38.27 23.6224 38.3652 24.1448 38.3549C24.6672 38.3445 25.1822 38.2289 25.6588 38.0149L24.9425 36.774H23.3692L22.6185 38.075Z" fill="white"/>
<path d="M27.9536 34.7389H26.1768L25.2883 33.2004L26.1767 31.6611H26.9858L27.0119 31.6886C27.7136 32.4268 28.1102 33.4029 28.1223 34.4213V34.4468L27.9536 34.7389ZM26.2786 34.5625H27.8519L27.9456 34.4003C27.9286 33.4474 27.5596 32.5345 26.9098 31.8375H26.2786L25.4919 33.2004L26.2786 34.5625Z" fill="white"/>
<path d="M26.1523 37.9575L25.2883 36.4621L26.1767 34.9229H27.9535L28.0676 35.1195L28.0664 35.1589C27.97 35.7204 27.7568 36.2553 27.4404 36.729C27.124 37.2027 26.7116 37.6045 26.2298 37.9085L26.1523 37.9575ZM25.4919 36.4621L26.2126 37.7095C26.6493 37.4194 27.0227 37.044 27.3105 36.6059C27.5983 36.1677 27.7945 35.6759 27.8872 35.16L27.8519 35.0992H26.2786L25.4919 36.4621Z" fill="white"/>
<path d="M22.0496 37.9956L21.9727 37.9491C21.4912 37.6581 21.0754 37.2704 20.7515 36.8104C20.4276 36.3505 20.2027 35.8283 20.091 35.277L20.0845 35.2443L20.2703 34.9229H22.0471L22.9356 36.4622L22.0496 37.9956ZM20.2706 35.2747C20.3776 35.7809 20.5846 36.2606 20.8795 36.6858C21.1743 37.111 21.5509 37.4731 21.9874 37.7508L22.7319 36.4621L21.9453 35.0992H20.372L20.2706 35.2747Z" fill="white"/>
<path d="M22.047 34.5621H20.2702L20.0283 34.1441V34.1204C20.1154 33.1213 20.5706 32.1902 21.3057 31.508L21.3311 31.4844H22.047L22.9354 33.0237L22.047 34.5621ZM20.3718 34.3858H21.9452L22.7318 33.0237L21.9451 31.6607H21.4006C20.7205 32.3026 20.2963 33.1695 20.2068 34.1005L20.3718 34.3858Z" fill="white"/>
</g>
<defs>
<clipPath id="clip0_1275_10493">
<rect width="75.5521" height="45" fill="white"/>
</clipPath>
</defs>
</svg>
