<svg width="74" height="50" viewBox="0 0 74 50" fill="none" xmlns="http://www.w3.org/2000/svg">
<g clip-path="url(#clip0_1275_10222)">
<path opacity="0.1" d="M30.0877 49.0903C35.0362 46.3518 40.689 45.4767 46.2134 46.6504C54.0416 48.3146 63.8801 47.6623 65.7857 34.8227C69.0404 12.8946 55.4015 7.10695 55.4015 7.10695C55.4015 7.10695 46.3315 6.34738 40.9683 3.45547C33.3501 -0.653802 24.6423 -1.17709 16.9855 2.29974C12.0891 4.52132 8.05683 7.61483 7.36789 11.8622C5.44166 23.7405 8.60516 30.2852 2.68716 34.1627C-3.23084 38.0402 1.82679 48.6858 6.36368 48.3172C10.9006 47.9487 21.1526 43.9055 25.1476 48.5888C26.5666 50.2499 28.3618 50.0457 30.0877 49.0903Z" fill="#6C63FF"/>
<path opacity="0.1" d="M53.5663 9.64453H33.1483V11.0571H53.5663V9.64453Z" fill="#6C63FF"/>
<path opacity="0.1" d="M53.5663 15.7441H33.1483V17.1567H53.5663V15.7441Z" fill="#6C63FF"/>
<path opacity="0.1" d="M53.5663 22.1006H33.1483V23.5131H53.5663V22.1006Z" fill="#6C63FF"/>
<path opacity="0.1" d="M36.2303 5.98438H34.9462V9.6442H36.2303V5.98438Z" fill="#6C63FF"/>
<path opacity="0.1" d="M36.2303 6.5625H34.9462V6.81933H36.2303V6.5625Z" fill="#6C63FF"/>
<path opacity="0.1" d="M36.2303 8.55273H34.9462V8.80956H36.2303V8.55273Z" fill="#6C63FF"/>
<path opacity="0.1" d="M38.1566 5.98438H36.8724V9.6442H38.1566V5.98438Z" fill="#6C63FF"/>
<path opacity="0.1" d="M38.1566 6.5625H36.8724V6.81933H38.1566V6.5625Z" fill="#6C63FF"/>
<path opacity="0.1" d="M38.1566 8.55273H36.8724V8.80956H38.1566V8.55273Z" fill="#6C63FF"/>
<path opacity="0.1" d="M40.0827 5.98438H38.7986V9.6442H40.0827V5.98438Z" fill="#6C63FF"/>
<path opacity="0.1" d="M40.0827 6.5625H38.7986V6.81933H40.0827V6.5625Z" fill="#6C63FF"/>
<path opacity="0.1" d="M40.0827 8.55273H38.7986V8.80956H40.0827V8.55273Z" fill="#6C63FF"/>
<path opacity="0.1" d="M42.009 5.98438H40.7249V9.6442H42.009V5.98438Z" fill="#6C63FF"/>
<path opacity="0.1" d="M42.009 6.5625H40.7249V6.81933H42.009V6.5625Z" fill="#6C63FF"/>
<path opacity="0.1" d="M42.009 8.55273H40.7249V8.80956H42.009V8.55273Z" fill="#6C63FF"/>
<path opacity="0.1" d="M43.9353 5.98438H42.6511V9.6442H43.9353V5.98438Z" fill="#6C63FF"/>
<path opacity="0.1" d="M43.9353 6.5625H42.6511V6.81933H43.9353V6.5625Z" fill="#6C63FF"/>
<path opacity="0.1" d="M43.9353 8.55273H42.6511V8.80956H43.9353V8.55273Z" fill="#6C63FF"/>
<path opacity="0.1" d="M45.8614 5.98438H44.5773V9.6442H45.8614V5.98438Z" fill="#6C63FF"/>
<path opacity="0.1" d="M45.8614 6.5625H44.5773V6.81933H45.8614V6.5625Z" fill="#6C63FF"/>
<path opacity="0.1" d="M45.8614 8.55273H44.5773V8.80956H45.8614V8.55273Z" fill="#6C63FF"/>
<path opacity="0.1" d="M47.7877 5.98438H46.5035V9.6442H47.7877V5.98438Z" fill="#6C63FF"/>
<path opacity="0.1" d="M47.7877 6.5625H46.5035V6.81933H47.7877V6.5625Z" fill="#6C63FF"/>
<path opacity="0.1" d="M47.7877 8.55273H46.5035V8.80956H47.7877V8.55273Z" fill="#6C63FF"/>
<path opacity="0.1" d="M47.0276 18.3443L45.8796 18.9199L47.5201 22.1915L48.668 21.6159L47.0276 18.3443Z" fill="#6C63FF"/>
<path opacity="0.1" d="M47.2868 18.8619L46.1389 19.4375L46.254 19.6671L47.402 19.0915L47.2868 18.8619Z" fill="#6C63FF"/>
<path opacity="0.1" d="M48.1784 20.6412L47.0305 21.2168L47.1456 21.4464L48.2936 20.8708L48.1784 20.6412Z" fill="#6C63FF"/>
<path opacity="0.1" d="M36.2303 12.1484H34.9462V15.8083H36.2303V12.1484Z" fill="#6C63FF"/>
<path opacity="0.1" d="M36.2303 12.7266H34.9462V12.9834H36.2303V12.7266Z" fill="#6C63FF"/>
<path opacity="0.1" d="M36.2303 14.7168H34.9462V14.9736H36.2303V14.7168Z" fill="#6C63FF"/>
<path opacity="0.1" d="M38.1566 12.1484H36.8724V15.8083H38.1566V12.1484Z" fill="#6C63FF"/>
<path opacity="0.1" d="M38.1566 12.7266H36.8724V12.9834H38.1566V12.7266Z" fill="#6C63FF"/>
<path opacity="0.1" d="M38.1566 14.7168H36.8724V14.9736H38.1566V14.7168Z" fill="#6C63FF"/>
<path opacity="0.1" d="M40.0827 12.1484H38.7986V15.8083H40.0827V12.1484Z" fill="#6C63FF"/>
<path opacity="0.1" d="M40.0827 12.7266H38.7986V12.9834H40.0827V12.7266Z" fill="#6C63FF"/>
<path opacity="0.1" d="M40.0827 14.7168H38.7986V14.9736H40.0827V14.7168Z" fill="#6C63FF"/>
<path opacity="0.1" d="M48.1086 12.1484H46.8245V15.8083H48.1086V12.1484Z" fill="#6C63FF"/>
<path opacity="0.1" d="M48.1086 12.7266H46.8245V12.9834H48.1086V12.7266Z" fill="#6C63FF"/>
<path opacity="0.1" d="M48.1086 14.7168H46.8245V14.9736H48.1086V14.7168Z" fill="#6C63FF"/>
<path opacity="0.1" d="M50.035 12.1484H48.7509V15.8083H50.035V12.1484Z" fill="#6C63FF"/>
<path opacity="0.1" d="M50.035 12.7266H48.7509V12.9834H50.035V12.7266Z" fill="#6C63FF"/>
<path opacity="0.1" d="M50.035 14.7168H48.7509V14.9736H50.035V14.7168Z" fill="#6C63FF"/>
<path opacity="0.1" d="M51.9612 12.1484H50.677V15.8083H51.9612V12.1484Z" fill="#6C63FF"/>
<path opacity="0.1" d="M51.9612 12.7266H50.677V12.9834H51.9612V12.7266Z" fill="#6C63FF"/>
<path opacity="0.1" d="M51.9612 14.7168H50.677V14.9736H51.9612V14.7168Z" fill="#6C63FF"/>
<path opacity="0.1" d="M36.2303 18.4414H34.9462V22.1012H36.2303V18.4414Z" fill="#6C63FF"/>
<path opacity="0.1" d="M36.2303 19.0186H34.9462V19.2754H36.2303V19.0186Z" fill="#6C63FF"/>
<path opacity="0.1" d="M36.2303 21.0098H34.9462V21.2666H36.2303V21.0098Z" fill="#6C63FF"/>
<path opacity="0.1" d="M38.1566 18.4414H36.8724V22.1012H38.1566V18.4414Z" fill="#6C63FF"/>
<path opacity="0.1" d="M38.1566 19.0186H36.8724V19.2754H38.1566V19.0186Z" fill="#6C63FF"/>
<path opacity="0.1" d="M38.1566 21.0098H36.8724V21.2666H38.1566V21.0098Z" fill="#6C63FF"/>
<path opacity="0.1" d="M40.0827 18.4414H38.7986V22.1012H40.0827V18.4414Z" fill="#6C63FF"/>
<path opacity="0.1" d="M40.0827 19.0186H38.7986V19.2754H40.0827V19.0186Z" fill="#6C63FF"/>
<path opacity="0.1" d="M40.0827 21.0098H38.7986V21.2666H40.0827V21.0098Z" fill="#6C63FF"/>
<path opacity="0.1" d="M42.009 18.4414H40.7249V22.1012H42.009V18.4414Z" fill="#6C63FF"/>
<path opacity="0.1" d="M42.009 19.0186H40.7249V19.2754H42.009V19.0186Z" fill="#6C63FF"/>
<path opacity="0.1" d="M42.009 21.0098H40.7249V21.2666H42.009V21.0098Z" fill="#6C63FF"/>
<path opacity="0.1" d="M43.9353 18.4414H42.6511V22.1012H43.9353V18.4414Z" fill="#6C63FF"/>
<path opacity="0.1" d="M43.9353 19.0186H42.6511V19.2754H43.9353V19.0186Z" fill="#6C63FF"/>
<path opacity="0.1" d="M43.9353 21.0098H42.6511V21.2666H43.9353V21.0098Z" fill="#6C63FF"/>
<path opacity="0.1" d="M45.8614 18.4414H44.5773V22.1012H45.8614V18.4414Z" fill="#6C63FF"/>
<path opacity="0.1" d="M45.8614 19.0186H44.5773V19.2754H45.8614V19.0186Z" fill="#6C63FF"/>
<path opacity="0.1" d="M45.8614 21.0098H44.5773V21.2666H45.8614V21.0098Z" fill="#6C63FF"/>
<path opacity="0.1" d="M49.7138 6.31104V9.64469H48.4297V6.06641C48.8594 6.14217 49.2875 6.22371 49.7138 6.31104Z" fill="#6C63FF"/>
<path opacity="0.1" d="M49.7138 6.5625H48.4297V6.81933H49.7138V6.5625Z" fill="#6C63FF"/>
<path opacity="0.1" d="M49.7138 8.55273H48.4297V8.80956H49.7138V8.55273Z" fill="#6C63FF"/>
<path opacity="0.1" d="M51.6402 6.75644V9.64577H50.3561V6.44824C50.523 6.48484 50.6893 6.52337 50.8556 6.56253C51.1184 6.62417 51.38 6.68881 51.6402 6.75644Z" fill="#6C63FF"/>
<path opacity="0.1" d="M51.6402 6.7561V6.82031H50.3561V6.56348H50.8556C51.1184 6.62426 51.38 6.68847 51.6402 6.7561Z" fill="#6C63FF"/>
<path opacity="0.1" d="M51.6402 8.55273H50.3561V8.80956H51.6402V8.55273Z" fill="#6C63FF"/>
<g opacity="0.1">
<path opacity="0.1" d="M42.676 14.4781C42.676 14.4781 42.2869 14.3459 42.0981 14.6894C42.0487 14.7824 42.0236 14.8863 42.0251 14.9916C42.0265 15.0968 42.0545 15.2 42.1064 15.2916C42.2297 15.5138 42.4833 15.8053 42.9636 15.777C43.3713 15.7552 43.5068 15.4444 43.5415 15.1549C43.5548 15.0465 43.5402 14.9366 43.4993 14.8355C43.4583 14.7343 43.3922 14.6453 43.3072 14.5768C43.2223 14.5083 43.1213 14.4626 43.0137 14.444C42.9062 14.4254 42.7957 14.4345 42.6927 14.4704L42.676 14.4781Z" fill="#6C63FF"/>
<path opacity="0.1" d="M42.1912 15.3224C42.1393 15.2308 42.1113 15.1276 42.1098 15.0223C42.1084 14.917 42.1335 14.8131 42.1829 14.7201C42.3703 14.3772 42.7607 14.5089 42.7607 14.5089L42.7806 14.5018C42.9292 14.448 43.0924 14.4517 43.2384 14.5121C43.1578 14.4641 43.0676 14.4346 42.9742 14.4257C42.8808 14.4168 42.7866 14.4288 42.6984 14.4607L42.6785 14.4678C42.6785 14.4678 42.2894 14.3355 42.1007 14.679C42.0513 14.772 42.0262 14.8759 42.0276 14.9812C42.0291 15.0865 42.0571 15.1897 42.109 15.2813C42.2055 15.4652 42.3605 15.6118 42.5495 15.698C42.3979 15.6079 42.274 15.478 42.1912 15.3224Z" fill="#6C63FF"/>
<path opacity="0.2" d="M42.475 14.6426C42.475 14.6426 42.6194 14.7562 42.97 14.6426H42.475Z" fill="#6C63FF"/>
<path opacity="0.1" d="M42.4436 13.8174C42.4436 13.8174 42.6908 14.4877 42.6703 14.663L42.8661 14.6424C42.8661 14.6424 42.5361 14.055 42.6189 13.8174H42.4436Z" fill="#6C63FF"/>
<path opacity="0.2" d="M42.4436 13.8174C42.4436 13.8174 42.6908 14.4877 42.6703 14.663L42.8661 14.6424C42.8661 14.6424 42.5361 14.055 42.6189 13.8174H42.4436Z" fill="#6C63FF"/>
<path opacity="0.1" d="M43.4542 13.8741C43.4542 13.8741 43.0644 13.6751 42.8904 13.8394C42.7164 14.0038 42.6895 14.4244 42.6895 14.4244C42.6895 14.4244 43.3245 14.5104 43.4542 13.8741Z" fill="#6C63FF"/>
<path opacity="0.1" d="M43.4542 13.8741C43.4542 13.8741 43.0644 13.6751 42.8904 13.8394C42.7164 14.0038 42.6895 14.4244 42.6895 14.4244C42.6895 14.4244 43.3245 14.5104 43.4542 13.8741Z" fill="#6C63FF"/>
<path opacity="0.1" d="M42.6888 14.4239C42.6888 14.4239 42.7909 13.936 43.4536 13.873L42.6888 14.4239Z" fill="#6C63FF"/>
</g>
<g opacity="0.1">
<path opacity="0.1" d="M50.895 20.8355C50.895 20.8355 50.5059 20.7033 50.3171 21.0468C50.2677 21.1398 50.2426 21.2437 50.2441 21.349C50.2455 21.4543 50.2735 21.5575 50.3254 21.6491C50.4487 21.8712 50.7023 22.1627 51.1826 22.1345C51.5903 22.1126 51.7258 21.8019 51.7605 21.5123C51.7738 21.404 51.7592 21.2941 51.7183 21.1929C51.6773 21.0918 51.6112 21.0027 51.5262 20.9342C51.4413 20.8657 51.3403 20.82 51.2327 20.8014C51.1252 20.7828 51.0147 20.7919 50.9117 20.8278L50.895 20.8355Z" fill="#6C63FF"/>
<path opacity="0.1" d="M50.4102 21.6798C50.3583 21.5882 50.3303 21.485 50.3288 21.3797C50.3274 21.2745 50.3525 21.1705 50.4018 21.0775C50.5893 20.7347 50.9797 20.8663 50.9797 20.8663L50.9996 20.8592C51.1482 20.8055 51.3114 20.8091 51.4574 20.8695C51.3768 20.8215 51.2866 20.792 51.1932 20.7831C51.0998 20.7742 51.0056 20.7862 50.9174 20.8181L50.8975 20.8252C50.8975 20.8252 50.5084 20.6929 50.3197 21.0364C50.2703 21.1294 50.2452 21.2334 50.2466 21.3386C50.2481 21.4439 50.2761 21.5471 50.328 21.6387C50.4245 21.8227 50.5795 21.9693 50.7685 22.0554C50.6169 21.9654 50.493 21.8354 50.4102 21.6798Z" fill="#6C63FF"/>
<path opacity="0.2" d="M50.694 21C50.694 21 50.8384 21.1136 51.189 21H50.694Z" fill="#6C63FF"/>
<path opacity="0.1" d="M50.6626 20.1748C50.6626 20.1748 50.9098 20.8451 50.8893 21.0204L51.0851 20.9999C51.0851 20.9999 50.7551 20.4124 50.8379 20.1748H50.6626Z" fill="#6C63FF"/>
<path opacity="0.2" d="M50.6626 20.1748C50.6626 20.1748 50.9098 20.8451 50.8893 21.0204L51.0851 20.9999C51.0851 20.9999 50.7551 20.4124 50.8379 20.1748H50.6626Z" fill="#6C63FF"/>
<path opacity="0.1" d="M51.6732 20.2315C51.6732 20.2315 51.2834 20.0325 51.1094 20.1969C50.9354 20.3612 50.9084 20.7818 50.9084 20.7818C50.9084 20.7818 51.5435 20.8678 51.6732 20.2315Z" fill="#6C63FF"/>
<path opacity="0.1" d="M51.6732 20.2315C51.6732 20.2315 51.2834 20.0325 51.1094 20.1969C50.9354 20.3612 50.9084 20.7818 50.9084 20.7818C50.9084 20.7818 51.5435 20.8678 51.6732 20.2315Z" fill="#6C63FF"/>
<path opacity="0.1" d="M50.9078 20.7814C50.9078 20.7814 51.0099 20.2934 51.6725 20.2305L50.9078 20.7814Z" fill="#6C63FF"/>
</g>
<path opacity="0.1" d="M63.8877 40.4529C65.8026 40.4529 67.3549 39.9009 67.3549 39.2201C67.3549 38.5392 65.8026 37.9873 63.8877 37.9873C61.9729 37.9873 60.4205 38.5392 60.4205 39.2201C60.4205 39.9009 61.9729 40.4529 63.8877 40.4529Z" fill="black"/>
<path d="M63.8903 39.2309C63.8903 39.2309 65.8685 32.5154 63.5192 27.5721C62.5336 25.4976 62.2061 23.1687 62.6613 20.9176C62.8793 19.8498 63.1945 18.8042 63.6033 17.7939" stroke="#535461" stroke-width="0.128415" stroke-miterlimit="10"/>
<path d="M62.1418 14.6699C62.1418 15.4931 63.6321 17.8803 63.6321 17.8803C63.6321 17.8803 65.1224 15.4937 65.1224 14.6699C65.1224 14.2747 64.9653 13.8956 64.6859 13.6162C64.4064 13.3367 64.0273 13.1797 63.6321 13.1797C63.2369 13.1797 62.8578 13.3367 62.5783 13.6162C62.2989 13.8956 62.1418 14.2747 62.1418 14.6699Z" fill="#6C63FF"/>
<path d="M59.6782 19.2279C60.1277 19.9188 62.6735 21.1124 62.6735 21.1124C62.6735 21.1124 62.6273 18.2989 62.1798 17.608C62.0734 17.4436 61.9357 17.3017 61.7745 17.1905C61.6133 17.0793 61.4318 17.0009 61.2403 16.9599C61.0488 16.9188 60.8512 16.9159 60.6585 16.9513C60.4659 16.9866 60.2822 17.0595 60.1177 17.1659C59.9533 17.2723 59.8115 17.41 59.7003 17.5712C59.5891 17.7324 59.5107 17.9139 59.4697 18.1054C59.4286 18.2968 59.4257 18.4945 59.461 18.6871C59.4964 18.8798 59.5693 19.0635 59.6757 19.2279H59.6782Z" fill="#6C63FF"/>
<path d="M59.7843 27.0192C60.5195 27.3897 63.3215 27.1335 63.3215 27.1335C63.3215 27.1335 61.8614 24.7283 61.1262 24.3578C60.9515 24.2697 60.7611 24.2169 60.5659 24.2024C60.3707 24.1878 60.1746 24.2119 59.9888 24.2731C59.8029 24.3344 59.6309 24.4317 59.4826 24.5594C59.3343 24.6871 59.2127 24.8428 59.1246 25.0176C59.0364 25.1923 58.9836 25.3827 58.9691 25.5779C58.9545 25.773 58.9786 25.9692 59.0399 26.155C59.1011 26.3409 59.1984 26.5129 59.3261 26.6612C59.4539 26.8094 59.6095 26.9311 59.7843 27.0192Z" fill="#6C63FF"/>
<path d="M61.1969 32.8955C61.8588 33.3848 64.6641 33.6063 64.6641 33.6063C64.6641 33.6063 63.6316 30.9885 62.9696 30.4993C62.8123 30.3829 62.6336 30.2986 62.4437 30.2513C62.2538 30.2039 62.0564 30.1945 61.8628 30.2234C61.6693 30.2524 61.4833 30.3192 61.3155 30.42C61.1478 30.5208 61.0015 30.6537 60.8851 30.811C60.7687 30.9683 60.6845 31.1471 60.6371 31.337C60.5898 31.5269 60.5803 31.7242 60.6093 31.9178C60.6382 32.1114 60.705 32.2973 60.8058 32.4651C60.9067 32.6328 61.0395 32.7791 61.1969 32.8955Z" fill="#6C63FF"/>
<path d="M65.803 21.2724C65.213 21.8457 62.4642 22.4396 62.4642 22.4396C62.4642 22.4396 63.1378 19.7076 63.7278 19.1342C63.868 18.9968 64.0339 18.8884 64.2161 18.8153C64.3983 18.7421 64.5931 18.7057 64.7894 18.7081C64.9857 18.7105 65.1796 18.7517 65.36 18.8292C65.5403 18.9068 65.7036 19.0192 65.8403 19.16C65.9771 19.3008 66.0847 19.4673 66.1569 19.6498C66.2292 19.8324 66.2646 20.0274 66.2613 20.2237C66.258 20.42 66.2159 20.6136 66.1374 20.7936C66.059 20.9736 65.9458 21.1363 65.8043 21.2724H65.803Z" fill="#6C63FF"/>
<path d="M67.3607 28.1657C66.6255 28.5362 63.8235 28.28 63.8235 28.28C63.8235 28.28 65.2836 25.8748 66.0187 25.5043C66.1935 25.4162 66.3839 25.3634 66.579 25.3488C66.7742 25.3343 66.9703 25.3584 67.1562 25.4196C67.3421 25.4809 67.5141 25.5782 67.6623 25.7059C67.8106 25.8336 67.9323 25.9893 68.0204 26.164C68.1085 26.3388 68.1613 26.5292 68.1759 26.7244C68.1904 26.9195 68.1664 27.1156 68.1051 27.3015C68.0438 27.4874 67.9466 27.6594 67.8188 27.8077C67.6911 27.9559 67.5354 28.0776 67.3607 28.1657Z" fill="#6C63FF"/>
<path d="M67.9604 35.0734C67.2984 35.5626 64.4932 35.7841 64.4932 35.7841C64.4932 35.7841 65.5256 33.1664 66.1876 32.6771C66.3448 32.5581 66.524 32.4715 66.7148 32.4223C66.9057 32.373 67.1044 32.3621 67.2995 32.3902C67.4946 32.4183 67.6822 32.4848 67.8515 32.5859C68.0207 32.687 68.1682 32.8206 68.2854 32.9791C68.4026 33.1376 68.4872 33.3178 68.5343 33.5092C68.5814 33.7006 68.59 33.8994 68.5597 34.0942C68.5294 34.289 68.4608 34.4758 68.3578 34.6439C68.2548 34.812 68.1195 34.9579 67.9597 35.0734H67.9604Z" fill="#6C63FF"/>
<path opacity="0.1" d="M55.2581 36.9089C57.173 36.9089 58.7253 36.357 58.7253 35.6761C58.7253 34.9953 57.173 34.4434 55.2581 34.4434C53.3432 34.4434 51.7909 34.9953 51.7909 35.6761C51.7909 36.357 53.3432 36.9089 55.2581 36.9089Z" fill="black"/>
<path d="M55.1177 35.8519C55.1177 35.8519 56.0442 32.7058 54.9437 30.3898C54.4758 29.4214 54.3348 28.3273 54.5417 27.2719C54.644 26.7716 54.7918 26.2818 54.9835 25.8086" stroke="#535461" stroke-width="0.128415" stroke-miterlimit="10"/>
<path d="M54.2984 24.3438C54.2984 24.729 54.9963 25.8475 54.9963 25.8475C54.9963 25.8475 55.6942 24.729 55.6942 24.3438C55.6942 24.1586 55.6207 23.981 55.4897 23.85C55.3588 23.7191 55.1812 23.6455 54.996 23.6455C54.8108 23.6455 54.6332 23.7191 54.5022 23.85C54.3713 23.981 54.2977 24.1586 54.2977 24.3438H54.2984Z" fill="#6C63FF"/>
<path d="M53.1444 26.4801C53.3538 26.8012 54.548 27.363 54.548 27.363C54.548 27.363 54.5262 26.0448 54.3169 25.7212C54.267 25.6442 54.2025 25.5778 54.127 25.5257C54.0515 25.4737 53.9665 25.437 53.8769 25.4178C53.7872 25.3986 53.6946 25.3973 53.6044 25.4139C53.5142 25.4304 53.4282 25.4646 53.3512 25.5144C53.2742 25.5643 53.2078 25.6288 53.1557 25.7043C53.1037 25.7798 53.067 25.8648 53.0478 25.9545C53.0286 26.0441 53.0273 26.1367 53.0439 26.2269C53.0604 26.3171 53.0946 26.4031 53.1444 26.4801Z" fill="#6C63FF"/>
<path d="M53.1946 30.1302C53.5388 30.3036 54.8518 30.1842 54.8518 30.1842C54.8518 30.1842 54.168 29.0573 53.8245 28.8833C53.7426 28.8421 53.6534 28.8173 53.562 28.8105C53.4706 28.8037 53.3787 28.815 53.2916 28.8437C53.1157 28.9017 52.9701 29.0271 52.8868 29.1925C52.8034 29.3578 52.7891 29.5495 52.8471 29.7254C52.9051 29.9013 53.0306 30.0469 53.1959 30.1302H53.1946Z" fill="#6C63FF"/>
<path d="M53.8547 32.8831C54.1648 33.1124 55.4791 33.2164 55.4791 33.2164C55.4791 33.2164 54.995 31.99 54.6855 31.7608C54.6118 31.7063 54.528 31.6668 54.439 31.6447C54.3501 31.6225 54.2576 31.6181 54.1669 31.6317C54.0762 31.6453 53.9891 31.6767 53.9105 31.7239C53.8319 31.7712 53.7634 31.8335 53.7089 31.9072C53.6544 31.9809 53.615 32.0647 53.5928 32.1537C53.5707 32.2427 53.5663 32.3351 53.5799 32.4258C53.5935 32.5165 53.6248 32.6036 53.672 32.6822C53.7193 32.7608 53.7816 32.8293 53.8553 32.8838L53.8547 32.8831Z" fill="#6C63FF"/>
<path d="M56.0139 27.4382C55.7371 27.7066 54.4485 27.9852 54.4485 27.9852C54.4485 27.9852 54.7644 26.705 55.0405 26.4366C55.1733 26.3076 55.3519 26.2366 55.5371 26.2393C55.7222 26.242 55.8987 26.3182 56.0277 26.451C56.1567 26.5838 56.2276 26.7625 56.2249 26.9476C56.2222 27.1327 56.146 27.3092 56.0132 27.4382H56.0139Z" fill="#6C63FF"/>
<path d="M56.7452 30.6674C56.4011 30.8407 55.088 30.7213 55.088 30.7213C55.088 30.7213 55.7718 29.5944 56.1153 29.4204C56.2807 29.3371 56.4724 29.3228 56.6482 29.3808C56.8241 29.4388 56.9697 29.5643 57.0531 29.7296C57.1364 29.895 57.1507 30.0866 57.0927 30.2625C57.0347 30.4384 56.9093 30.584 56.7439 30.6674H56.7452Z" fill="#6C63FF"/>
<path d="M57.0233 33.902C56.7131 34.1312 55.3988 34.2352 55.3988 34.2352C55.3988 34.2352 55.8829 33.0088 56.1924 32.7796C56.2661 32.7251 56.3498 32.6856 56.4388 32.6634C56.5277 32.6412 56.6202 32.6367 56.7109 32.6502C56.8016 32.6638 56.8887 32.695 56.9673 32.7422C57.0459 32.7894 57.1144 32.8517 57.169 32.9254C57.2236 32.9991 57.2631 33.0828 57.2853 33.1717C57.3075 33.2607 57.3119 33.3532 57.2984 33.4438C57.2849 33.5345 57.2536 33.6217 57.2064 33.7003C57.1592 33.7789 57.0969 33.8474 57.0233 33.902Z" fill="#6C63FF"/>
<path d="M73.0892 42.1105L53.208 31.5644H49.039L50.1177 22.5856C50.1413 22.3891 50.1255 22.1898 50.0712 21.9995C50.0168 21.8091 49.925 21.6315 49.8012 21.4771C49.6774 21.3227 49.524 21.1945 49.35 21.1C49.176 21.0056 48.985 20.9468 48.788 20.9272L48.6763 20.9316H48.6654L33.4989 21.1621C33.1107 21.1347 32.7254 21.2465 32.4121 21.4775C32.0989 21.7085 31.8782 22.0435 31.7897 22.4225L31.0834 27.5823L30.9813 27.4262L30.9319 27.3511C31.305 27.1084 30.5691 25.6657 29.9457 24.5902L29.8892 24.4926C30.2847 24.3276 30.7239 24.1716 30.7239 24.1716L29.7511 23.5641C29.7511 23.5641 28.8561 22.2684 27.9032 21.2174C28.5453 17.1967 27.1893 12.5494 27.1732 12.4852L27.1372 12.4948C27.3255 12.19 27.4247 11.8386 27.4236 11.4803C27.4237 11.2074 27.3659 10.9376 27.2538 10.6888C27.1418 10.44 26.9782 10.2178 26.7738 10.0369C26.7359 9.69278 26.6814 9.33835 26.603 8.96531C26.5889 8.9011 26.5741 8.82983 26.5581 8.76177C26.4849 8.44073 26.4111 8.11969 26.3141 7.80508C26.2469 7.58078 26.1634 7.36168 26.0643 7.14952C25.5577 6.07918 24.5157 5.31383 23.374 5.04416C22.7865 4.90547 22.1843 5.12056 21.636 5.01783C21.3599 4.96711 21.1127 4.70193 20.8436 4.59471C20.5027 4.45859 20.1335 4.39502 19.7727 4.33788C19.3232 4.26275 18.8564 4.18827 18.4089 4.28587C17.6705 4.44639 17.1074 5.0448 16.6933 5.6766C16.2791 6.3084 15.9574 7.00826 15.4457 7.5643C15.1035 7.9367 14.6823 8.23591 14.3773 8.63913C13.9278 9.23241 13.7718 9.98749 13.6274 10.7207C13.4489 11.6229 13.2704 12.5378 13.2742 13.454C13.2742 13.6666 13.2774 13.8797 13.296 14.0929C13.3429 14.64 13.4675 15.1793 13.497 15.727C13.497 15.7861 13.5015 15.8451 13.5028 15.9042C13.4964 16.9065 13.2004 17.8946 12.9063 18.8577C12.8126 19.164 12.7175 19.4729 12.6065 19.7746C12.0158 19.8247 11.4507 19.9429 11.0199 20.1753C9.44553 21.0177 8.23393 22.8964 8.23393 22.8964L5.93081 25.0152C5.93081 25.0152 6.83999 25.4396 7.2644 26.1671C7.2796 26.1928 7.297 26.217 7.31641 26.2397L7.28302 26.3167L5.93081 29.4398C5.93081 29.4398 6.77964 30.0459 8.04966 29.9245C8.25608 29.8987 8.46556 29.914 8.66605 29.9695C8.66605 30.008 8.6622 30.0472 8.66091 30.0883C8.58322 31.8752 8.54213 35.7905 9.46672 38.4352L7.37741 40.8751L3.20392 42.1111L3.02222 45.3215H73.2106L73.0892 42.1105ZM12.8954 30.139C13.0744 30.1755 13.249 30.231 13.4161 30.3046V32.5365C13.3057 31.748 13.1522 30.9403 12.9384 30.2687C12.9249 30.225 12.9127 30.182 12.8954 30.139ZM24.9465 34.4338C24.9465 34.4261 24.9465 34.4184 24.9465 34.4107C24.949 34.3328 24.9596 34.2553 24.9779 34.1796C25.004 34.0621 25.062 33.9541 25.1455 33.8675C25.3003 33.7128 25.4601 33.5465 25.62 33.3661C25.7185 33.6201 25.8606 33.855 26.0399 34.0601C26.2454 34.2894 26.7045 34.4955 27.3491 34.6817C26.553 34.5581 25.7511 34.4754 24.9465 34.4338ZM30.1865 34.1256L28.0882 34.7465C27.0962 34.5244 26.3905 34.2701 26.1292 33.976C25.9464 33.7652 25.8044 33.5222 25.7106 33.2595C26.4592 32.3914 27.1873 31.2235 27.3543 29.6285C27.3588 29.5868 27.362 29.5438 27.3658 29.5001C27.5935 29.3708 27.8084 29.2203 28.0079 29.0507L28.0458 29.1393C28.61 30.4221 29.4079 31.5887 30.399 32.5795L30.1865 34.1256ZM27.0762 12.5885C27.2413 13.1837 28.3604 17.3977 27.7992 21.1031C27.4499 20.7268 27.0974 20.3904 26.7815 20.1689C26.7067 20.1171 26.6284 20.0705 26.5472 20.0295C26.4772 19.3502 26.4451 18.6459 26.44 17.9479C26.4464 17.0837 26.4977 16.2265 26.5684 15.4111C26.6448 14.5469 26.7347 13.7224 26.7905 12.9115C26.8975 12.8148 26.9933 12.7065 27.0762 12.5885Z" fill="url(#paint0_linear_1275_10222)"/>
<path d="M26.0522 13.626H25.5045V9.83774H26.0522C26.4704 9.83774 26.8715 10.0039 27.1673 10.2996C27.463 10.5953 27.6291 10.9964 27.6291 11.4147V12.0452C27.6297 12.2526 27.5892 12.4581 27.5102 12.6498C27.4312 12.8416 27.3151 13.0159 27.1686 13.1627C27.0222 13.3096 26.8481 13.4261 26.6566 13.5056C26.465 13.5851 26.2596 13.626 26.0522 13.626Z" fill="#DFE6F5"/>
<path d="M25.4267 13.626H25.5821C25.7959 13.626 25.9692 13.4526 25.9692 13.2388V10.2281C25.9692 10.0143 25.7959 9.84095 25.5821 9.84095H25.4267C25.2129 9.84095 25.0395 10.0143 25.0395 10.2281V13.2388C25.0395 13.4526 25.2129 13.626 25.4267 13.626Z" fill="#535461"/>
<g opacity="0.1">
<path opacity="0.1" d="M26.0522 13.626H25.5045V9.83774H26.0522C26.4704 9.83774 26.8715 10.0039 27.1673 10.2996C27.463 10.5953 27.6291 10.9964 27.6291 11.4147V12.0452C27.6297 12.2526 27.5892 12.4581 27.5102 12.6498C27.4312 12.8416 27.3151 13.0159 27.1686 13.1627C27.0222 13.3096 26.8481 13.4261 26.6566 13.5056C26.465 13.5851 26.2596 13.626 26.0522 13.626Z" fill="black"/>
<path opacity="0.1" d="M25.4267 13.626H25.5821C25.7959 13.626 25.9692 13.4526 25.9692 13.2388V10.2281C25.9692 10.0143 25.7959 9.84095 25.5821 9.84095H25.4267C25.2129 9.84095 25.0395 10.0143 25.0395 10.2281V13.2388C25.0395 13.4526 25.2129 13.626 25.4267 13.626Z" fill="black"/>
</g>
<path d="M26.3129 11.8428H16.7402V21.7725H26.3129V11.8428Z" fill="#865A61"/>
<path opacity="0.1" d="M26.3129 10.4756H16.7402V20.4053H26.3129V10.4756Z" fill="black"/>
<path d="M25.986 20.0778L25.4081 24.277L25.1359 26.2508L25.0357 26.9757L24.1966 28.6117L22.6556 31.614L19.6828 31.971L14.4537 24.5968C14.4537 24.5968 11.7159 19.3645 15.8785 19.8396C18.2124 20.1067 18.7678 18.0174 18.8095 16.1304C18.82 15.1803 18.734 14.2315 18.5527 13.2988L22.7146 15.3207C22.6179 15.7715 22.5451 16.1856 22.4963 16.5631C22.2934 18.108 22.4617 19.0711 22.8135 19.6547C23.7503 21.2092 25.986 20.0778 25.986 20.0778Z" fill="#FDC2CC"/>
<path opacity="0.1" d="M22.7159 15.322C22.6192 15.7728 22.5464 16.1869 22.4976 16.5644C22.0658 16.6874 21.6189 16.7496 21.1698 16.7494C20.343 16.7507 19.5299 16.5382 18.8096 16.1323C18.8201 15.1822 18.734 14.2335 18.5527 13.3008L22.7159 15.322Z" fill="black"/>
<path d="M21.17 16.6295C23.8299 16.6295 25.9862 14.4732 25.9862 11.8133C25.9862 9.15336 23.8299 6.99707 21.17 6.99707C18.51 6.99707 16.3538 9.15336 16.3538 11.8133C16.3538 14.4732 18.51 16.6295 21.17 16.6295Z" fill="#FDC2CC"/>
<path d="M27.5919 39.2248L7.79163 40.7722L11.002 37.0263C14.4467 34.9216 14.4172 32.0284 13.9594 30.2338C13.8173 29.6587 13.6026 29.1039 13.3205 28.583L20.1644 28.6151H20.2222L20.7846 29.8935L20.8103 29.9513L21.229 30.9022L22.6556 28.3454L23.152 27.5454L23.4293 27.096C23.4293 27.096 27.5322 26.1444 27.5913 28.5824C27.5984 28.8623 27.5874 29.1424 27.5585 29.4209C27.3543 31.3831 26.2808 32.6878 25.3915 33.5771C24.3809 34.587 27.5919 39.2248 27.5919 39.2248Z" fill="#EC7580"/>
<path d="M25.227 34.0002C25.0819 34.5781 25.4479 35.5714 25.9333 36.5467C23.6058 36.7971 21.0536 36.6668 21.0536 36.6668L18.4345 37.3808L11.0622 39.5214C10.7412 39.106 10.4844 38.584 10.2719 37.9959L11.0025 37.1432C13.3018 35.7383 14.053 33.9823 14.1628 32.4361C14.2065 31.7344 14.138 31.0302 13.9599 30.35C13.818 29.7754 13.6035 29.2211 13.3217 28.7006L20.1656 28.7327H20.2234L20.7858 30.011L20.8115 30.0688L21.2301 31.0197L22.6568 28.463L23.1519 27.663L23.4292 27.2135C23.4292 27.2135 27.5321 26.2607 27.5918 28.7006C27.5989 28.9805 27.588 29.2606 27.5591 29.5391C27.3549 31.5013 26.2813 32.806 25.3921 33.6953C25.3101 33.7799 25.253 33.8854 25.227 34.0002Z" fill="#EC7580"/>
<path d="M40.6728 37.0835C40.554 38.5102 37.1055 36.6078 37.1055 36.6078C37.1055 36.6078 36.0351 36.2508 32.4081 33.9322C30.5666 32.7554 29.1145 31.06 28.2346 29.0595C28.0958 28.7503 27.9797 28.4315 27.8872 28.1054L30.3862 26.2607L31.1149 27.3747L33.5375 31.0763L37.1048 33.452C37.1048 33.452 40.7916 35.6569 40.6728 37.0835Z" fill="#FDC2CC"/>
<path d="M72.4234 41.781H3.86719L10.7303 39.7501L27.8878 34.6726L38.8288 31.4346H52.921L72.4234 41.781Z" fill="#CBCDDA"/>
<path d="M3.86722 41.7812L3.68872 44.9326H72.5422L72.4234 41.7812H3.86722Z" fill="#CBCDDA"/>
<path opacity="0.1" d="M3.86722 41.7812L3.68872 44.9326H72.5422L72.4234 41.7812H3.86722Z" fill="black"/>
<path d="M21.8407 37.3249L36.3317 35.8359L36.5102 38.69L29.8865 39.3468C29.4296 39.3839 28.9697 39.3481 28.5241 39.2409L21.8285 37.5111C21.8071 37.5055 21.7884 37.4927 21.7755 37.4748C21.7626 37.4568 21.7563 37.435 21.7578 37.413C21.7592 37.3909 21.7683 37.3701 21.7834 37.354C21.7985 37.338 21.8188 37.3277 21.8407 37.3249Z" fill="#535461"/>
<path opacity="0.2" d="M21.8407 37.3249L36.3317 35.8359L36.5102 38.69L29.8865 39.3468C29.4296 39.3839 28.9697 39.3481 28.5241 39.2409L21.8285 37.5111C21.8071 37.5055 21.7884 37.4927 21.7755 37.4748C21.7626 37.4568 21.7563 37.435 21.7578 37.413C21.7592 37.3909 21.7683 37.3701 21.7834 37.354C21.7985 37.338 21.8188 37.3277 21.8407 37.3249Z" fill="black"/>
<path d="M21.8407 37.2644L36.4511 35.7754L36.6296 38.6294L30.0053 39.1662C29.5488 39.2038 29.0891 39.1687 28.6435 39.0622L21.8285 37.4512C21.8068 37.4459 21.7876 37.4332 21.7743 37.4151C21.7611 37.3971 21.7546 37.375 21.7561 37.3527C21.7575 37.3303 21.7668 37.3092 21.7823 37.2931C21.7978 37.2769 21.8185 37.2668 21.8407 37.2644Z" fill="#535461"/>
<path opacity="0.3" d="M25.3048 37.3692L33.0303 36.582L33.1246 38.0909L29.6221 38.3753C29.3805 38.395 29.1374 38.3761 28.9017 38.3195L25.2984 37.4675C25.2871 37.4646 25.2771 37.4578 25.2703 37.4483C25.2634 37.4389 25.2601 37.4273 25.2608 37.4157C25.2616 37.404 25.2664 37.393 25.2745 37.3845C25.2825 37.376 25.2932 37.3706 25.3048 37.3692Z" fill="white"/>
<path opacity="0.1" d="M31.1148 27.376C31.0679 27.4402 30.9864 27.4691 30.8618 27.4511C29.6727 27.2727 28.3051 28.9973 28.3051 28.9973C28.3051 28.9973 28.2807 29.0204 28.2364 29.0615C28.0977 28.7523 27.9816 28.4334 27.889 28.1073L30.3861 26.2607L31.1148 27.376Z" fill="black"/>
<path opacity="0.1" d="M27.5591 29.5358C26.9998 29.8472 26.23 30.0706 25.6297 29.4716C24.5927 28.4346 22.775 28.5727 22.662 28.5791C22.8475 28.5534 23.0119 28.172 23.1519 27.6609L23.4293 27.2115C23.4293 27.2115 27.5321 26.2612 27.5918 28.7011C27.5988 28.9798 27.5878 29.2586 27.5591 29.5358Z" fill="black"/>
<path opacity="0.1" d="M25.4069 24.2773L25.0345 26.9741L24.1953 28.6101C23.6752 28.4769 23.1375 28.4264 22.6017 28.4605C23.193 28.3789 23.5751 24.6838 23.5751 24.6838L23.6091 24.6761L25.4069 24.2773Z" fill="black"/>
<path d="M30.8619 27.3326C29.6728 27.1541 28.3052 28.8787 28.3052 28.8787C28.3052 28.8787 26.7 30.4248 25.6297 29.3545C24.5927 28.3175 22.775 28.4555 22.662 28.462C23.2533 28.3798 23.6354 24.6846 23.6354 24.6846L23.6694 24.6769L29.3755 23.4082C29.3755 23.4082 29.7158 23.9296 30.0998 24.5935C30.7926 25.7897 31.6273 27.4475 30.8619 27.3326Z" fill="#EC7580"/>
<path opacity="0.1" d="M29.4346 24.9543C29.4943 25.0731 28.4831 25.6677 28.0079 25.4892C27.5328 25.3107 26.343 26.2597 26.2242 26.381C26.1055 26.5024 23.4299 26.2025 23.4299 26.2025C23.5409 25.6994 23.6209 25.1899 23.6694 24.6769L29.3755 23.4082C29.3755 23.4082 29.7158 23.9296 30.0998 24.5935C29.7447 24.7392 29.4057 24.8959 29.4346 24.9543Z" fill="black"/>
<path opacity="0.1" d="M25.9861 20.0784L25.4082 24.2776L25.136 26.2513C24.3385 26.1916 23.3716 26.0844 23.3716 26.0844C23.3716 26.0844 24.3822 21.8628 22.7173 19.6636C22.7173 19.6636 22.7526 19.6636 22.8162 19.6572C23.7504 21.2098 25.9861 20.0784 25.9861 20.0784Z" fill="black"/>
<path d="M22.7756 19.6622C22.7756 19.6622 25.8082 19.4247 26.9973 20.2568C28.1864 21.0889 29.911 23.5866 29.911 23.5866L30.8626 24.1812C30.8626 24.1812 29.3762 24.716 29.4359 24.8354C29.4956 24.9549 28.4843 25.5488 28.0092 25.3703C27.534 25.1918 26.3443 26.1408 26.2255 26.2621C26.1067 26.3835 23.4312 26.0836 23.4312 26.0836C23.4312 26.0836 24.4405 21.862 22.7756 19.6622Z" fill="#EC7580"/>
<path d="M44.6845 36.0424C43.9962 36.0257 27.814 35.6058 26.2692 33.8825C24.6242 32.0475 26.221 26.76 27.5655 22.9422C29.0288 18.786 27.2843 12.818 27.267 12.7499L27.3819 12.7197C27.3999 12.7884 29.1534 18.7912 27.6779 22.9814C25.5867 28.9212 25.1546 32.4609 26.3578 33.8029C27.8692 35.4883 44.5195 35.9217 44.6877 35.9217L44.6845 36.0424Z" fill="#DFE6F5"/>
<path d="M33.4971 21.2273L48.4664 21C48.6594 21.0197 48.8465 21.0776 49.0168 21.1704C49.1872 21.2632 49.3373 21.389 49.4585 21.5405C49.5796 21.692 49.6694 21.8661 49.7225 22.0526C49.7757 22.2392 49.7911 22.4344 49.7679 22.627L48.0696 36.7655C48.029 37.1052 47.8705 37.4198 47.6216 37.6545C47.3727 37.8892 47.0493 38.029 46.7078 38.0496L31.4078 38.9967C31.1912 39.0097 30.9744 38.9742 30.7732 38.8929C30.572 38.8115 30.3914 38.6863 30.2447 38.5265C30.0979 38.3666 29.9887 38.176 29.9249 37.9685C29.8611 37.7611 29.8443 37.542 29.8758 37.3273L31.9073 22.4684C31.9618 22.0968 32.1574 21.7604 32.4535 21.5293C32.7496 21.2981 33.1234 21.19 33.4971 21.2273Z" fill="#535461"/>
<path opacity="0.2" d="M33.4971 21.2273L48.4664 21C48.6594 21.0197 48.8465 21.0776 49.0168 21.1704C49.1872 21.2632 49.3373 21.389 49.4585 21.5405C49.5796 21.692 49.6694 21.8661 49.7225 22.0526C49.7757 22.2392 49.7911 22.4344 49.7679 22.627L48.0696 36.7655C48.029 37.1052 47.8705 37.4198 47.6216 37.6545C47.3727 37.8892 47.0493 38.029 46.7078 38.0496L31.4078 38.9967C31.1912 39.0097 30.9744 38.9742 30.7732 38.8929C30.572 38.8115 30.3914 38.6863 30.2447 38.5265C30.0979 38.3666 29.9887 38.176 29.9249 37.9685C29.8611 37.7611 29.8443 37.542 29.8758 37.3273L31.9073 22.4684C31.9618 22.0968 32.1574 21.7604 32.4535 21.5293C32.7496 21.2981 33.1234 21.19 33.4971 21.2273Z" fill="black"/>
<path d="M33.6159 21.2273L48.5852 21C48.7784 21.0194 48.9658 21.0771 49.1364 21.1697C49.307 21.2624 49.4575 21.3882 49.5789 21.5397C49.7003 21.6912 49.7903 21.8654 49.8436 22.0521C49.8969 22.2388 49.9124 22.4342 49.8892 22.627L48.1909 36.7655C48.1503 37.1052 47.9918 37.4198 47.7429 37.6545C47.494 37.8892 47.1706 38.029 46.8291 38.0496L31.5272 38.9967C31.3106 39.0097 31.0937 38.9742 30.8925 38.8929C30.6913 38.8115 30.5108 38.6863 30.3641 38.5265C30.2173 38.3666 30.1081 38.176 30.0443 37.9685C29.9805 37.7611 29.9637 37.542 29.9952 37.3273L32.0267 22.4684C32.0812 22.0969 32.2767 21.7606 32.5726 21.5295C32.8686 21.2984 33.2422 21.1901 33.6159 21.2273Z" fill="#535461"/>
<path opacity="0.3" d="M40.9399 29.9775C41.3339 29.9775 41.6532 29.6581 41.6532 29.2641C41.6532 28.8702 41.3339 28.5508 40.9399 28.5508C40.5459 28.5508 40.2266 28.8702 40.2266 29.2641C40.2266 29.6581 40.5459 29.9775 40.9399 29.9775Z" fill="white"/>
<path opacity="0.1" d="M25.9333 36.5477C23.6058 36.7981 21.0536 36.6678 21.0536 36.6678L18.4345 37.3811L11.0622 39.5218C10.7412 39.1064 10.4844 38.5844 10.2719 37.9962L11.0025 37.1436C13.3018 35.7387 14.053 33.9826 14.1628 32.4365C14.3593 33.9743 14.392 35.3592 14.392 35.3592L17.3648 35.062L21.6841 34.0346C21.9815 33.9639 22.2862 33.9283 22.592 33.9287C23.1544 33.9287 24.1554 33.9409 25.2245 33.9987C25.0819 34.5772 25.4479 35.5711 25.9333 36.5477Z" fill="black"/>
<path opacity="0.1" d="M29.197 35.7756C27.8294 37.3808 20.8135 37.0244 20.8135 37.0244L18.197 37.7378L10.8241 39.8778C10.792 39.8361 10.7599 39.7937 10.7303 39.7494L27.8885 34.6719C28.9839 34.8927 29.6561 35.2369 29.197 35.7756Z" fill="black"/>
<path d="M29.197 35.6568C27.8294 37.262 20.8134 36.9057 20.8134 36.9057L18.197 37.6184L10.824 39.759C9.09044 37.5118 9.12897 32.1562 9.22335 29.9899C9.24904 29.4082 9.27793 29.0563 9.27793 29.0563C9.27793 29.0563 11.775 27.5102 12.905 29.0563C13.1066 29.3318 13.2755 29.717 13.4187 30.1639C14.0742 32.2243 14.1545 35.5965 14.1545 35.5965L17.1273 35.2992L21.4465 34.2719C21.7442 34.2011 22.0491 34.1655 22.3551 34.1659C24.1452 34.1711 30.3707 34.2789 29.197 35.6568Z" fill="#FDC2CC"/>
<path opacity="0.1" d="M13.418 30.1645C13.0386 30.0823 12.5782 30.1003 11.9541 30.3649C10.7053 30.8997 9.75435 30.7809 9.75435 30.7809C9.75435 30.7809 9.83076 30.1742 9.224 29.9899C9.24968 29.4082 9.27857 29.0563 9.27857 29.0563C9.27857 29.0563 11.7756 27.5102 12.9057 29.0563C13.1053 29.3318 13.2755 29.717 13.418 30.1645Z" fill="black"/>
<path opacity="0.1" d="M20.8102 30.0681C20.7704 30.0765 20.2355 30.1773 19.205 29.9487C18.1346 29.7112 17.7186 30.1863 17.124 30.4245C16.5295 30.6627 14.9866 30.7815 14.3894 30.5439C14.2488 30.4874 14.1076 30.4155 13.958 30.3513C13.8166 29.7765 13.6028 29.222 13.3217 28.7012L20.1655 28.7333L20.7858 30.0116L20.8102 30.0681Z" fill="black"/>
<path d="M20.8103 29.9487C20.8103 29.9487 20.2755 30.0674 19.2051 29.8299C18.1348 29.5923 17.7187 30.0674 17.1242 30.3057C16.5296 30.5439 14.9835 30.6626 14.3889 30.4244C13.7944 30.1862 13.1998 29.7111 11.9491 30.2459C10.6983 30.7808 9.74931 30.662 9.74931 30.662C9.74931 30.662 9.8681 29.7104 8.6199 29.8273C7.37171 29.9442 6.53894 29.3515 6.53894 29.3515L7.86547 26.2876L8.26355 25.3675L18.2119 24.6875H18.2594L20.8103 29.9487Z" fill="#EC7580"/>
<path opacity="0.1" d="M19.2051 27.0953C18.5508 26.0249 15.1022 26.9765 15.1022 26.9765C15.1022 26.9765 13.4373 27.4523 13.0803 26.5604C12.7233 25.6686 10.1704 26.2606 10.1704 26.2606C10.1704 26.2606 8.31804 26.9553 7.86987 26.2888L8.26796 25.3687L18.2118 24.6875L19.2051 27.0953Z" fill="black"/>
<path d="M16.3536 20.0783C16.3536 20.0783 13.0835 19.424 11.538 20.2568C9.99256 21.0896 8.80344 22.9323 8.80344 22.9323L6.54333 25.0133C6.54333 25.0133 7.43518 25.4294 7.85124 26.1427C8.2673 26.8561 10.1704 26.1427 10.1704 26.1427C10.1704 26.1427 12.7272 25.5481 13.0841 26.44C13.4411 27.3318 15.106 26.8561 15.106 26.8561C15.106 26.8561 18.5546 25.9045 19.2089 26.9748L16.3536 20.0783Z" fill="#EC7580"/>
<path opacity="0.1" d="M20.1233 4.84324C19.6803 4.76876 19.2244 4.69621 18.7852 4.79187C18.061 4.94918 17.5088 5.53668 17.1024 6.15564C16.6959 6.7746 16.38 7.46162 15.8786 8.00674C15.5428 8.37208 15.1299 8.66551 14.8307 9.06103C14.3902 9.64339 14.2368 10.3863 14.0949 11.1028C13.8869 12.1545 13.6782 13.2217 13.77 14.292C13.8162 14.8288 13.9382 15.3572 13.9671 15.8972C14.0255 16.9817 13.7051 18.0462 13.3892 19.0851C13.1703 19.8029 12.9443 20.5343 12.5115 21.1474C12.2245 21.5539 11.8566 21.8942 11.506 22.2467C11.4214 22.3185 11.3578 22.4119 11.3218 22.517C11.246 22.8239 11.6165 23.0306 11.8996 23.1693C12.7658 23.6014 13.334 24.4445 14.0076 25.1392C14.6811 25.8339 15.6449 26.4304 16.5714 26.1518C16.8462 26.0689 17.1069 25.9116 17.3932 25.9168C17.5858 25.92 17.7708 25.9983 17.9538 26.0625C18.409 26.2224 18.8883 26.3027 19.3708 26.3001C19.4774 26.3092 19.5843 26.2869 19.6784 26.2359C19.8215 26.1389 19.8492 25.9437 19.8633 25.7717C19.9538 24.6917 20.0437 23.6079 19.9827 22.526C19.8447 20.0758 17.5807 17.2417 18.4417 14.9424C18.8161 13.9395 19.5005 13.0766 19.8793 12.0756C20.2787 11.0206 21.6868 10.1641 21.9661 9.07066C21.9975 8.94738 22.0406 8.81383 22.1484 8.74962C22.2967 8.65845 22.49 8.73806 22.6332 8.83694C23.4435 9.39555 23.7074 10.446 24.0021 11.3847C24.2396 12.1408 24.5339 12.8778 24.8824 13.5896C25.075 13.9748 25.4885 14.4211 25.8506 14.1873C25.6683 15.8105 24.6153 17.2282 24.3771 18.8437C24.1446 20.418 24.7077 22.0271 24.4894 23.6027C24.3457 24.6172 23.8863 25.5607 23.1764 26.2994C23.9775 26.4586 24.8015 26.466 25.6054 26.3213C26.4201 26.1742 27.2921 25.7883 27.5862 25.014C27.9072 24.162 27.4109 23.2477 27.1585 22.3719C26.5531 20.2665 26.5999 17.7765 26.7919 15.5941C26.9897 13.3501 27.2863 11.3853 26.7836 9.18944C26.6603 8.65074 26.5351 8.10755 26.2988 7.60801C25.8018 6.55822 24.7796 5.80699 23.6592 5.54246C23.0814 5.40634 22.4919 5.61758 21.9539 5.51742C21.6829 5.46669 21.4402 5.2073 21.177 5.102C20.8392 4.96395 20.4771 4.90231 20.1233 4.84324Z" fill="black"/>
<path d="M27.5829 24.8902C27.2888 25.6646 26.4169 26.0504 25.6014 26.1975C24.7975 26.3419 23.9737 26.3345 23.1725 26.1757C23.8822 25.4367 24.3415 24.4933 24.4855 23.4789C24.7045 21.9026 24.1414 20.2936 24.3732 18.7199C24.6114 17.1038 25.6644 15.6861 25.8467 14.0629C25.4846 14.2966 25.0679 13.8523 24.8778 13.4652C24.5294 12.7533 24.2352 12.0163 23.9975 11.2603C23.7028 10.3216 23.4389 9.26984 22.6286 8.71252C22.4855 8.61364 22.2922 8.53402 22.1439 8.62584C22.0354 8.69004 21.993 8.82552 21.9615 8.94687C21.6829 10.0384 20.2742 10.8962 19.8754 11.9511C19.496 12.9521 18.8115 13.8132 18.4372 14.818C17.5794 17.1166 19.8433 19.9507 19.9782 22.4009C20.0385 23.4828 19.9486 24.5673 19.8587 25.6466C19.844 25.8193 19.8164 26.0145 19.6732 26.1114C19.5793 26.1624 19.4726 26.1847 19.3663 26.1757C18.8851 26.1786 18.4071 26.0986 17.9531 25.9394C17.7701 25.8752 17.5864 25.7968 17.3925 25.7936C17.1062 25.7891 16.8455 25.9464 16.5707 26.0286C15.6442 26.3073 14.6798 25.7108 14.0069 25.0161C13.334 24.3213 12.7638 23.4796 11.8983 23.05C11.6151 22.9088 11.2447 22.7046 11.3204 22.397C11.3567 22.2923 11.4203 22.1992 11.5047 22.1274C11.8553 21.7749 12.2238 21.4339 12.5108 21.0281C12.9436 20.415 13.169 19.6836 13.3885 18.9658C13.7057 17.9269 14.0261 16.8624 13.9664 15.7779C13.9382 15.2405 13.8162 14.7121 13.7693 14.1727C13.6768 13.1043 13.8862 12.0359 14.0942 10.9842C14.2354 10.2676 14.3889 9.52474 14.83 8.94238C15.1299 8.54686 15.5421 8.25343 15.8785 7.88809C16.3806 7.34297 16.6952 6.65595 17.1023 6.03635C17.5094 5.41675 18.0616 4.82989 18.7858 4.67259C19.2244 4.57692 19.6809 4.65011 20.1239 4.72395C20.4777 4.78366 20.8398 4.8453 21.1743 4.98078C21.4382 5.08608 21.6809 5.34612 21.9513 5.39556C22.4893 5.49637 23.0807 5.28512 23.6566 5.42124C24.777 5.68514 25.7992 6.43636 26.2962 7.48616C26.3934 7.69394 26.4754 7.90854 26.5414 8.12823C26.6365 8.43643 26.709 8.75168 26.7809 9.0663C26.7963 9.13051 26.8111 9.19985 26.8252 9.26599C27.2651 11.3566 26.9813 12.8789 26.7893 15.0536C26.5973 17.2283 26.5504 20.1421 27.1553 22.2449C27.4076 23.1232 27.9065 24.0382 27.5829 24.8902Z" fill="#865A61"/>
<path opacity="0.05" d="M20.7242 28.6709C20.7242 28.6709 21.2 29.4414 21.2 29.9788C21.2 29.9788 21.557 28.6709 21.8543 28.6709" fill="black"/>
<path d="M19.5942 28.848V32.7724C19.5951 33.4134 19.3792 34.0359 18.9816 34.5387C18.9137 34.6245 18.841 34.7064 18.7639 34.784C18.4988 35.0503 18.1836 35.2617 17.8365 35.4059C17.4894 35.5501 17.1173 35.6244 16.7414 35.6244C16.3656 35.6244 15.9934 35.5501 15.6463 35.4059C15.2992 35.2617 14.9841 35.0503 14.7189 34.784C14.6418 34.7064 14.5691 34.6245 14.5012 34.5387C14.1036 34.0359 13.8878 33.4134 13.8887 32.7724V28.848C13.8873 28.1812 14.1208 27.5352 14.5481 27.0232C14.6239 26.9324 14.7057 26.8466 14.7927 26.7664C15.3212 26.2709 16.0185 25.9951 16.743 25.9951C17.4675 25.9951 18.1648 26.2709 18.6933 26.7664C18.7164 26.7869 18.7389 26.8094 18.7614 26.8306C18.8256 26.8948 18.8814 26.959 18.938 27.0232C19.3641 27.5356 19.5964 28.1816 19.5942 28.848Z" fill="#DFE6F5"/>
<path opacity="0.1" d="M19.5942 28.848V32.7724C19.5951 33.4134 19.3792 34.0359 18.9816 34.5387C18.9137 34.6245 18.841 34.7064 18.7639 34.784C18.4988 35.0503 18.1836 35.2617 17.8365 35.4059C17.4894 35.5501 17.1173 35.6244 16.7414 35.6244C16.3656 35.6244 15.9934 35.5501 15.6463 35.4059C15.2992 35.2617 14.9841 35.0503 14.7189 34.784C14.6418 34.7064 14.5691 34.6245 14.5012 34.5387C14.1036 34.0359 13.8878 33.4134 13.8887 32.7724V28.848C13.8873 28.1812 14.1208 27.5352 14.5481 27.0232C14.6239 26.9324 14.7057 26.8466 14.7927 26.7664C15.3212 26.2709 16.0185 25.9951 16.743 25.9951C17.4675 25.9951 18.1648 26.2709 18.6933 26.7664C18.7164 26.7869 18.7389 26.8094 18.7614 26.8306C18.8256 26.8948 18.8814 26.959 18.938 27.0232C19.3641 27.5356 19.5964 28.1816 19.5942 28.848Z" fill="black"/>
<path d="M19.7136 28.848V32.7724C19.7145 33.4134 19.4987 34.0359 19.1011 34.5387C19.0331 34.6245 18.9605 34.7064 18.8834 34.784C18.6182 35.0503 18.303 35.2617 17.956 35.4059C17.6089 35.5501 17.2367 35.6244 16.8609 35.6244C16.485 35.6244 16.1129 35.5501 15.7658 35.4059C15.4187 35.2617 15.1035 35.0503 14.8383 34.784C14.7613 34.7064 14.6886 34.6245 14.6207 34.5387C14.2217 34.0364 14.0044 33.4138 14.0043 32.7724V28.848C14.0029 28.1812 14.2364 27.5352 14.6637 27.0232C14.7395 26.9324 14.8213 26.8466 14.9083 26.7664C15.4368 26.2709 16.1341 25.9951 16.8586 25.9951C17.5831 25.9951 18.2804 26.2709 18.8089 26.7664C18.832 26.7869 18.8545 26.8094 18.877 26.8306C18.9412 26.8948 18.997 26.959 19.0536 27.0232C19.4811 27.5351 19.7148 28.1811 19.7136 28.848Z" fill="#DFE6F5"/>
<path opacity="0.1" d="M15.6101 27.065C15.7087 27.065 15.7886 26.9851 15.7886 26.8865C15.7886 26.7879 15.7087 26.708 15.6101 26.708C15.5116 26.708 15.4316 26.7879 15.4316 26.8865C15.4316 26.9851 15.5116 27.065 15.6101 27.065Z" fill="black"/>
<path opacity="0.1" d="M15.6101 27.6597C15.7087 27.6597 15.7886 27.5798 15.7886 27.4812C15.7886 27.3826 15.7087 27.3027 15.6101 27.3027C15.5116 27.3027 15.4316 27.3826 15.4316 27.4812C15.4316 27.5798 15.5116 27.6597 15.6101 27.6597Z" fill="black"/>
<path opacity="0.1" d="M15.6101 28.2535C15.7087 28.2535 15.7886 28.1736 15.7886 28.075C15.7886 27.9764 15.7087 27.8965 15.6101 27.8965C15.5116 27.8965 15.4316 27.9764 15.4316 28.075C15.4316 28.1736 15.5116 28.2535 15.6101 28.2535Z" fill="black"/>
<path opacity="0.1" d="M15.6101 28.8482C15.7087 28.8482 15.7886 28.7683 15.7886 28.6697C15.7886 28.5711 15.7087 28.4912 15.6101 28.4912C15.5116 28.4912 15.4316 28.5711 15.4316 28.6697C15.4316 28.7683 15.5116 28.8482 15.6101 28.8482Z" fill="black"/>
<path opacity="0.1" d="M15.6101 29.4429C15.7087 29.4429 15.7886 29.363 15.7886 29.2644C15.7886 29.1659 15.7087 29.0859 15.6101 29.0859C15.5116 29.0859 15.4316 29.1659 15.4316 29.2644C15.4316 29.363 15.5116 29.4429 15.6101 29.4429Z" fill="black"/>
<path opacity="0.1" d="M15.6101 30.0377C15.7087 30.0377 15.7886 29.9577 15.7886 29.8592C15.7886 29.7606 15.7087 29.6807 15.6101 29.6807C15.5116 29.6807 15.4316 29.7606 15.4316 29.8592C15.4316 29.9577 15.5116 30.0377 15.6101 30.0377Z" fill="black"/>
<path opacity="0.1" d="M15.6101 30.6324C15.7087 30.6324 15.7886 30.5525 15.7886 30.4539C15.7886 30.3553 15.7087 30.2754 15.6101 30.2754C15.5116 30.2754 15.4316 30.3553 15.4316 30.4539C15.4316 30.5525 15.5116 30.6324 15.6101 30.6324Z" fill="black"/>
<path opacity="0.1" d="M15.6101 31.2271C15.7087 31.2271 15.7886 31.1472 15.7886 31.0486C15.7886 30.95 15.7087 30.8701 15.6101 30.8701C15.5116 30.8701 15.4316 30.95 15.4316 31.0486C15.4316 31.1472 15.5116 31.2271 15.6101 31.2271Z" fill="black"/>
<path opacity="0.1" d="M15.6101 31.8218C15.7087 31.8218 15.7886 31.7419 15.7886 31.6433C15.7886 31.5448 15.7087 31.4648 15.6101 31.4648C15.5116 31.4648 15.4316 31.5448 15.4316 31.6433C15.4316 31.7419 15.5116 31.8218 15.6101 31.8218Z" fill="black"/>
<path opacity="0.1" d="M15.6101 32.4166C15.7087 32.4166 15.7886 32.3366 15.7886 32.2381C15.7886 32.1395 15.7087 32.0596 15.6101 32.0596C15.5116 32.0596 15.4316 32.1395 15.4316 32.2381C15.4316 32.3366 15.5116 32.4166 15.6101 32.4166Z" fill="black"/>
<path opacity="0.1" d="M15.6101 33.0113C15.7087 33.0113 15.7886 32.9314 15.7886 32.8328C15.7886 32.7342 15.7087 32.6543 15.6101 32.6543C15.5116 32.6543 15.4316 32.7342 15.4316 32.8328C15.4316 32.9314 15.5116 33.0113 15.6101 33.0113Z" fill="black"/>
<path opacity="0.1" d="M15.6101 33.605C15.7087 33.605 15.7886 33.5251 15.7886 33.4265C15.7886 33.328 15.7087 33.248 15.6101 33.248C15.5116 33.248 15.4316 33.328 15.4316 33.4265C15.4316 33.5251 15.5116 33.605 15.6101 33.605Z" fill="black"/>
<path opacity="0.1" d="M15.6101 34.1998C15.7087 34.1998 15.7886 34.1198 15.7886 34.0213C15.7886 33.9227 15.7087 33.8428 15.6101 33.8428C15.5116 33.8428 15.4316 33.9227 15.4316 34.0213C15.4316 34.1198 15.5116 34.1998 15.6101 34.1998Z" fill="black"/>
<path opacity="0.1" d="M15.6101 34.7945C15.7087 34.7945 15.7886 34.7146 15.7886 34.616C15.7886 34.5174 15.7087 34.4375 15.6101 34.4375C15.5116 34.4375 15.4316 34.5174 15.4316 34.616C15.4316 34.7146 15.5116 34.7945 15.6101 34.7945Z" fill="black"/>
<path opacity="0.1" d="M14.9566 26.886C14.9565 26.9199 14.9469 26.953 14.9287 26.9815C14.9106 27.0101 14.8847 27.0329 14.854 27.0473C14.8234 27.0617 14.7893 27.0671 14.7558 27.0629C14.7222 27.0587 14.6905 27.045 14.6644 27.0234C14.7403 26.9326 14.822 26.8468 14.9091 26.7666C14.9395 26.7989 14.9565 26.8416 14.9566 26.886Z" fill="black"/>
<path opacity="0.1" d="M14.778 27.6597C14.8766 27.6597 14.9565 27.5798 14.9565 27.4812C14.9565 27.3826 14.8766 27.3027 14.778 27.3027C14.6794 27.3027 14.5995 27.3826 14.5995 27.4812C14.5995 27.5798 14.6794 27.6597 14.778 27.6597Z" fill="black"/>
<path opacity="0.1" d="M14.778 28.2535C14.8766 28.2535 14.9565 28.1736 14.9565 28.075C14.9565 27.9764 14.8766 27.8965 14.778 27.8965C14.6794 27.8965 14.5995 27.9764 14.5995 28.075C14.5995 28.1736 14.6794 28.2535 14.778 28.2535Z" fill="black"/>
<path opacity="0.1" d="M14.778 28.8482C14.8766 28.8482 14.9565 28.7683 14.9565 28.6697C14.9565 28.5711 14.8766 28.4912 14.778 28.4912C14.6794 28.4912 14.5995 28.5711 14.5995 28.6697C14.5995 28.7683 14.6794 28.8482 14.778 28.8482Z" fill="black"/>
<path opacity="0.1" d="M14.778 29.4429C14.8766 29.4429 14.9565 29.363 14.9565 29.2644C14.9565 29.1659 14.8766 29.0859 14.778 29.0859C14.6794 29.0859 14.5995 29.1659 14.5995 29.2644C14.5995 29.363 14.6794 29.4429 14.778 29.4429Z" fill="black"/>
<path opacity="0.1" d="M14.778 30.0377C14.8766 30.0377 14.9565 29.9577 14.9565 29.8592C14.9565 29.7606 14.8766 29.6807 14.778 29.6807C14.6794 29.6807 14.5995 29.7606 14.5995 29.8592C14.5995 29.9577 14.6794 30.0377 14.778 30.0377Z" fill="black"/>
<path opacity="0.1" d="M14.778 30.6324C14.8766 30.6324 14.9565 30.5525 14.9565 30.4539C14.9565 30.3553 14.8766 30.2754 14.778 30.2754C14.6794 30.2754 14.5995 30.3553 14.5995 30.4539C14.5995 30.5525 14.6794 30.6324 14.778 30.6324Z" fill="black"/>
<path opacity="0.1" d="M14.778 31.2271C14.8766 31.2271 14.9565 31.1472 14.9565 31.0486C14.9565 30.95 14.8766 30.8701 14.778 30.8701C14.6794 30.8701 14.5995 30.95 14.5995 31.0486C14.5995 31.1472 14.6794 31.2271 14.778 31.2271Z" fill="black"/>
<path opacity="0.1" d="M14.778 31.8218C14.8766 31.8218 14.9565 31.7419 14.9565 31.6433C14.9565 31.5448 14.8766 31.4648 14.778 31.4648C14.6794 31.4648 14.5995 31.5448 14.5995 31.6433C14.5995 31.7419 14.6794 31.8218 14.778 31.8218Z" fill="black"/>
<path opacity="0.1" d="M14.778 32.4166C14.8766 32.4166 14.9565 32.3366 14.9565 32.2381C14.9565 32.1395 14.8766 32.0596 14.778 32.0596C14.6794 32.0596 14.5995 32.1395 14.5995 32.2381C14.5995 32.3366 14.6794 32.4166 14.778 32.4166Z" fill="black"/>
<path opacity="0.1" d="M14.778 33.0113C14.8766 33.0113 14.9565 32.9314 14.9565 32.8328C14.9565 32.7342 14.8766 32.6543 14.778 32.6543C14.6794 32.6543 14.5995 32.7342 14.5995 32.8328C14.5995 32.9314 14.6794 33.0113 14.778 33.0113Z" fill="black"/>
<path opacity="0.1" d="M14.778 33.605C14.8766 33.605 14.9565 33.5251 14.9565 33.4265C14.9565 33.328 14.8766 33.248 14.778 33.248C14.6794 33.248 14.5995 33.328 14.5995 33.4265C14.5995 33.5251 14.6794 33.605 14.778 33.605Z" fill="black"/>
<path opacity="0.1" d="M14.778 34.1998C14.8766 34.1998 14.9565 34.1198 14.9565 34.0213C14.9565 33.9227 14.8766 33.8428 14.778 33.8428C14.6794 33.8428 14.5995 33.9227 14.5995 34.0213C14.5995 34.1198 14.6794 34.1998 14.778 34.1998Z" fill="black"/>
<path opacity="0.1" d="M14.9564 34.6165C14.9565 34.6539 14.9448 34.6903 14.923 34.7206C14.9012 34.7509 14.8705 34.7736 14.8351 34.7854C14.758 34.7078 14.6854 34.6259 14.6174 34.5401C14.6346 34.5034 14.6638 34.4736 14.7002 34.4557C14.7367 34.4378 14.7781 34.4329 14.8177 34.4419C14.8573 34.4508 14.8926 34.473 14.9179 34.5047C14.9431 34.5365 14.9567 34.576 14.9564 34.6165Z" fill="black"/>
<path opacity="0.1" d="M16.4429 27.065C16.5415 27.065 16.6214 26.9851 16.6214 26.8865C16.6214 26.7879 16.5415 26.708 16.4429 26.708C16.3443 26.708 16.2644 26.7879 16.2644 26.8865C16.2644 26.9851 16.3443 27.065 16.4429 27.065Z" fill="black"/>
<path opacity="0.1" d="M16.4429 27.6597C16.5415 27.6597 16.6214 27.5798 16.6214 27.4812C16.6214 27.3826 16.5415 27.3027 16.4429 27.3027C16.3443 27.3027 16.2644 27.3826 16.2644 27.4812C16.2644 27.5798 16.3443 27.6597 16.4429 27.6597Z" fill="black"/>
<path opacity="0.1" d="M16.4429 28.2535C16.5415 28.2535 16.6214 28.1736 16.6214 28.075C16.6214 27.9764 16.5415 27.8965 16.4429 27.8965C16.3443 27.8965 16.2644 27.9764 16.2644 28.075C16.2644 28.1736 16.3443 28.2535 16.4429 28.2535Z" fill="black"/>
<path opacity="0.1" d="M16.4429 28.8482C16.5415 28.8482 16.6214 28.7683 16.6214 28.6697C16.6214 28.5711 16.5415 28.4912 16.4429 28.4912C16.3443 28.4912 16.2644 28.5711 16.2644 28.6697C16.2644 28.7683 16.3443 28.8482 16.4429 28.8482Z" fill="black"/>
<path opacity="0.1" d="M16.4429 29.4429C16.5415 29.4429 16.6214 29.363 16.6214 29.2644C16.6214 29.1659 16.5415 29.0859 16.4429 29.0859C16.3443 29.0859 16.2644 29.1659 16.2644 29.2644C16.2644 29.363 16.3443 29.4429 16.4429 29.4429Z" fill="black"/>
<path opacity="0.1" d="M16.4429 30.0377C16.5415 30.0377 16.6214 29.9577 16.6214 29.8592C16.6214 29.7606 16.5415 29.6807 16.4429 29.6807C16.3443 29.6807 16.2644 29.7606 16.2644 29.8592C16.2644 29.9577 16.3443 30.0377 16.4429 30.0377Z" fill="black"/>
<path opacity="0.1" d="M16.4429 30.6324C16.5415 30.6324 16.6214 30.5525 16.6214 30.4539C16.6214 30.3553 16.5415 30.2754 16.4429 30.2754C16.3443 30.2754 16.2644 30.3553 16.2644 30.4539C16.2644 30.5525 16.3443 30.6324 16.4429 30.6324Z" fill="black"/>
<path opacity="0.1" d="M16.4429 31.2271C16.5415 31.2271 16.6214 31.1472 16.6214 31.0486C16.6214 30.95 16.5415 30.8701 16.4429 30.8701C16.3443 30.8701 16.2644 30.95 16.2644 31.0486C16.2644 31.1472 16.3443 31.2271 16.4429 31.2271Z" fill="black"/>
<path opacity="0.1" d="M16.4429 31.8218C16.5415 31.8218 16.6214 31.7419 16.6214 31.6433C16.6214 31.5448 16.5415 31.4648 16.4429 31.4648C16.3443 31.4648 16.2644 31.5448 16.2644 31.6433C16.2644 31.7419 16.3443 31.8218 16.4429 31.8218Z" fill="black"/>
<path opacity="0.1" d="M16.4429 32.4166C16.5415 32.4166 16.6214 32.3366 16.6214 32.2381C16.6214 32.1395 16.5415 32.0596 16.4429 32.0596C16.3443 32.0596 16.2644 32.1395 16.2644 32.2381C16.2644 32.3366 16.3443 32.4166 16.4429 32.4166Z" fill="black"/>
<path opacity="0.1" d="M16.4429 33.0113C16.5415 33.0113 16.6214 32.9314 16.6214 32.8328C16.6214 32.7342 16.5415 32.6543 16.4429 32.6543C16.3443 32.6543 16.2644 32.7342 16.2644 32.8328C16.2644 32.9314 16.3443 33.0113 16.4429 33.0113Z" fill="black"/>
<path opacity="0.1" d="M16.4429 33.605C16.5415 33.605 16.6214 33.5251 16.6214 33.4265C16.6214 33.328 16.5415 33.248 16.4429 33.248C16.3443 33.248 16.2644 33.328 16.2644 33.4265C16.2644 33.5251 16.3443 33.605 16.4429 33.605Z" fill="black"/>
<path opacity="0.1" d="M16.4429 34.1998C16.5415 34.1998 16.6214 34.1198 16.6214 34.0213C16.6214 33.9227 16.5415 33.8428 16.4429 33.8428C16.3443 33.8428 16.2644 33.9227 16.2644 34.0213C16.2644 34.1198 16.3443 34.1998 16.4429 34.1998Z" fill="black"/>
<path opacity="0.1" d="M16.4429 34.7945C16.5415 34.7945 16.6214 34.7146 16.6214 34.616C16.6214 34.5174 16.5415 34.4375 16.4429 34.4375C16.3443 34.4375 16.2644 34.5174 16.2644 34.616C16.2644 34.7146 16.3443 34.7945 16.4429 34.7945Z" fill="black"/>
<path opacity="0.1" d="M17.2751 27.065C17.3736 27.065 17.4536 26.9851 17.4536 26.8865C17.4536 26.7879 17.3736 26.708 17.2751 26.708C17.1765 26.708 17.0966 26.7879 17.0966 26.8865C17.0966 26.9851 17.1765 27.065 17.2751 27.065Z" fill="black"/>
<path opacity="0.1" d="M17.2751 27.6597C17.3736 27.6597 17.4536 27.5798 17.4536 27.4812C17.4536 27.3826 17.3736 27.3027 17.2751 27.3027C17.1765 27.3027 17.0966 27.3826 17.0966 27.4812C17.0966 27.5798 17.1765 27.6597 17.2751 27.6597Z" fill="black"/>
<path opacity="0.1" d="M17.2751 28.2535C17.3736 28.2535 17.4536 28.1736 17.4536 28.075C17.4536 27.9764 17.3736 27.8965 17.2751 27.8965C17.1765 27.8965 17.0966 27.9764 17.0966 28.075C17.0966 28.1736 17.1765 28.2535 17.2751 28.2535Z" fill="black"/>
<path opacity="0.1" d="M17.2751 28.8482C17.3736 28.8482 17.4536 28.7683 17.4536 28.6697C17.4536 28.5711 17.3736 28.4912 17.2751 28.4912C17.1765 28.4912 17.0966 28.5711 17.0966 28.6697C17.0966 28.7683 17.1765 28.8482 17.2751 28.8482Z" fill="black"/>
<path opacity="0.1" d="M17.2751 29.4429C17.3736 29.4429 17.4536 29.363 17.4536 29.2644C17.4536 29.1659 17.3736 29.0859 17.2751 29.0859C17.1765 29.0859 17.0966 29.1659 17.0966 29.2644C17.0966 29.363 17.1765 29.4429 17.2751 29.4429Z" fill="black"/>
<path opacity="0.1" d="M17.2751 30.0377C17.3736 30.0377 17.4536 29.9577 17.4536 29.8592C17.4536 29.7606 17.3736 29.6807 17.2751 29.6807C17.1765 29.6807 17.0966 29.7606 17.0966 29.8592C17.0966 29.9577 17.1765 30.0377 17.2751 30.0377Z" fill="black"/>
<path opacity="0.1" d="M17.2751 30.6324C17.3736 30.6324 17.4536 30.5525 17.4536 30.4539C17.4536 30.3553 17.3736 30.2754 17.2751 30.2754C17.1765 30.2754 17.0966 30.3553 17.0966 30.4539C17.0966 30.5525 17.1765 30.6324 17.2751 30.6324Z" fill="black"/>
<path opacity="0.1" d="M17.2751 31.2271C17.3736 31.2271 17.4536 31.1472 17.4536 31.0486C17.4536 30.95 17.3736 30.8701 17.2751 30.8701C17.1765 30.8701 17.0966 30.95 17.0966 31.0486C17.0966 31.1472 17.1765 31.2271 17.2751 31.2271Z" fill="black"/>
<path opacity="0.1" d="M17.2751 31.8218C17.3736 31.8218 17.4536 31.7419 17.4536 31.6433C17.4536 31.5448 17.3736 31.4648 17.2751 31.4648C17.1765 31.4648 17.0966 31.5448 17.0966 31.6433C17.0966 31.7419 17.1765 31.8218 17.2751 31.8218Z" fill="black"/>
<path opacity="0.1" d="M17.2751 32.4166C17.3736 32.4166 17.4536 32.3366 17.4536 32.2381C17.4536 32.1395 17.3736 32.0596 17.2751 32.0596C17.1765 32.0596 17.0966 32.1395 17.0966 32.2381C17.0966 32.3366 17.1765 32.4166 17.2751 32.4166Z" fill="black"/>
<path opacity="0.1" d="M17.2751 33.0113C17.3736 33.0113 17.4536 32.9314 17.4536 32.8328C17.4536 32.7342 17.3736 32.6543 17.2751 32.6543C17.1765 32.6543 17.0966 32.7342 17.0966 32.8328C17.0966 32.9314 17.1765 33.0113 17.2751 33.0113Z" fill="black"/>
<path opacity="0.1" d="M17.2751 33.605C17.3736 33.605 17.4536 33.5251 17.4536 33.4265C17.4536 33.328 17.3736 33.248 17.2751 33.248C17.1765 33.248 17.0966 33.328 17.0966 33.4265C17.0966 33.5251 17.1765 33.605 17.2751 33.605Z" fill="black"/>
<path opacity="0.1" d="M17.2751 34.1998C17.3736 34.1998 17.4536 34.1198 17.4536 34.0213C17.4536 33.9227 17.3736 33.8428 17.2751 33.8428C17.1765 33.8428 17.0966 33.9227 17.0966 34.0213C17.0966 34.1198 17.1765 34.1998 17.2751 34.1998Z" fill="black"/>
<path opacity="0.1" d="M17.2751 34.7945C17.3736 34.7945 17.4536 34.7146 17.4536 34.616C17.4536 34.5174 17.3736 34.4375 17.2751 34.4375C17.1765 34.4375 17.0966 34.5174 17.0966 34.616C17.0966 34.7146 17.1765 34.7945 17.2751 34.7945Z" fill="black"/>
<path opacity="0.1" d="M18.1077 27.065C18.2063 27.065 18.2862 26.9851 18.2862 26.8865C18.2862 26.7879 18.2063 26.708 18.1077 26.708C18.0091 26.708 17.9292 26.7879 17.9292 26.8865C17.9292 26.9851 18.0091 27.065 18.1077 27.065Z" fill="black"/>
<path opacity="0.1" d="M18.1077 27.6597C18.2063 27.6597 18.2862 27.5798 18.2862 27.4812C18.2862 27.3826 18.2063 27.3027 18.1077 27.3027C18.0091 27.3027 17.9292 27.3826 17.9292 27.4812C17.9292 27.5798 18.0091 27.6597 18.1077 27.6597Z" fill="black"/>
<path opacity="0.1" d="M18.1077 28.2535C18.2063 28.2535 18.2862 28.1736 18.2862 28.075C18.2862 27.9764 18.2063 27.8965 18.1077 27.8965C18.0091 27.8965 17.9292 27.9764 17.9292 28.075C17.9292 28.1736 18.0091 28.2535 18.1077 28.2535Z" fill="black"/>
<path opacity="0.1" d="M18.1077 28.8482C18.2063 28.8482 18.2862 28.7683 18.2862 28.6697C18.2862 28.5711 18.2063 28.4912 18.1077 28.4912C18.0091 28.4912 17.9292 28.5711 17.9292 28.6697C17.9292 28.7683 18.0091 28.8482 18.1077 28.8482Z" fill="black"/>
<path opacity="0.1" d="M18.1077 29.4429C18.2063 29.4429 18.2862 29.363 18.2862 29.2644C18.2862 29.1659 18.2063 29.0859 18.1077 29.0859C18.0091 29.0859 17.9292 29.1659 17.9292 29.2644C17.9292 29.363 18.0091 29.4429 18.1077 29.4429Z" fill="black"/>
<path opacity="0.1" d="M18.1077 30.0377C18.2063 30.0377 18.2862 29.9577 18.2862 29.8592C18.2862 29.7606 18.2063 29.6807 18.1077 29.6807C18.0091 29.6807 17.9292 29.7606 17.9292 29.8592C17.9292 29.9577 18.0091 30.0377 18.1077 30.0377Z" fill="black"/>
<path opacity="0.1" d="M18.1077 30.6324C18.2063 30.6324 18.2862 30.5525 18.2862 30.4539C18.2862 30.3553 18.2063 30.2754 18.1077 30.2754C18.0091 30.2754 17.9292 30.3553 17.9292 30.4539C17.9292 30.5525 18.0091 30.6324 18.1077 30.6324Z" fill="black"/>
<path opacity="0.1" d="M18.1077 31.2271C18.2063 31.2271 18.2862 31.1472 18.2862 31.0486C18.2862 30.95 18.2063 30.8701 18.1077 30.8701C18.0091 30.8701 17.9292 30.95 17.9292 31.0486C17.9292 31.1472 18.0091 31.2271 18.1077 31.2271Z" fill="black"/>
<path opacity="0.1" d="M18.1077 31.8218C18.2063 31.8218 18.2862 31.7419 18.2862 31.6433C18.2862 31.5448 18.2063 31.4648 18.1077 31.4648C18.0091 31.4648 17.9292 31.5448 17.9292 31.6433C17.9292 31.7419 18.0091 31.8218 18.1077 31.8218Z" fill="black"/>
<path opacity="0.1" d="M18.1077 32.4166C18.2063 32.4166 18.2862 32.3366 18.2862 32.2381C18.2862 32.1395 18.2063 32.0596 18.1077 32.0596C18.0091 32.0596 17.9292 32.1395 17.9292 32.2381C17.9292 32.3366 18.0091 32.4166 18.1077 32.4166Z" fill="black"/>
<path opacity="0.1" d="M18.1077 33.0113C18.2063 33.0113 18.2862 32.9314 18.2862 32.8328C18.2862 32.7342 18.2063 32.6543 18.1077 32.6543C18.0091 32.6543 17.9292 32.7342 17.9292 32.8328C17.9292 32.9314 18.0091 33.0113 18.1077 33.0113Z" fill="black"/>
<path opacity="0.1" d="M18.1077 33.605C18.2063 33.605 18.2862 33.5251 18.2862 33.4265C18.2862 33.328 18.2063 33.248 18.1077 33.248C18.0091 33.248 17.9292 33.328 17.9292 33.4265C17.9292 33.5251 18.0091 33.605 18.1077 33.605Z" fill="black"/>
<path opacity="0.1" d="M18.1077 34.1998C18.2063 34.1998 18.2862 34.1198 18.2862 34.0213C18.2862 33.9227 18.2063 33.8428 18.1077 33.8428C18.0091 33.8428 17.9292 33.9227 17.9292 34.0213C17.9292 34.1198 18.0091 34.1998 18.1077 34.1998Z" fill="black"/>
<path opacity="0.1" d="M18.1077 34.7945C18.2063 34.7945 18.2862 34.7146 18.2862 34.616C18.2862 34.5174 18.2063 34.4375 18.1077 34.4375C18.0091 34.4375 17.9292 34.5174 17.9292 34.616C17.9292 34.7146 18.0091 34.7945 18.1077 34.7945Z" fill="black"/>
<path opacity="0.1" d="M19.0542 27.0237C19.0281 27.0453 18.9965 27.059 18.9629 27.0632C18.9293 27.0674 18.8952 27.062 18.8646 27.0476C18.834 27.0332 18.8081 27.0104 18.7899 26.9819C18.7718 26.9533 18.7621 26.9202 18.7621 26.8863C18.7618 26.8415 18.7789 26.7983 18.8096 26.7656C18.8327 26.7862 18.8552 26.8086 18.8777 26.8298C18.9393 26.8928 18.9977 26.957 19.0542 27.0237Z" fill="black"/>
<path opacity="0.1" d="M18.94 27.6597C19.0386 27.6597 19.1185 27.5798 19.1185 27.4812C19.1185 27.3826 19.0386 27.3027 18.94 27.3027C18.8414 27.3027 18.7615 27.3826 18.7615 27.4812C18.7615 27.5798 18.8414 27.6597 18.94 27.6597Z" fill="black"/>
<path opacity="0.1" d="M18.94 28.2535C19.0386 28.2535 19.1185 28.1736 19.1185 28.075C19.1185 27.9764 19.0386 27.8965 18.94 27.8965C18.8414 27.8965 18.7615 27.9764 18.7615 28.075C18.7615 28.1736 18.8414 28.2535 18.94 28.2535Z" fill="black"/>
<path opacity="0.1" d="M18.94 28.8482C19.0386 28.8482 19.1185 28.7683 19.1185 28.6697C19.1185 28.5711 19.0386 28.4912 18.94 28.4912C18.8414 28.4912 18.7615 28.5711 18.7615 28.6697C18.7615 28.7683 18.8414 28.8482 18.94 28.8482Z" fill="black"/>
<path opacity="0.1" d="M18.94 29.4429C19.0386 29.4429 19.1185 29.363 19.1185 29.2644C19.1185 29.1659 19.0386 29.0859 18.94 29.0859C18.8414 29.0859 18.7615 29.1659 18.7615 29.2644C18.7615 29.363 18.8414 29.4429 18.94 29.4429Z" fill="black"/>
<path opacity="0.1" d="M18.94 30.0377C19.0386 30.0377 19.1185 29.9577 19.1185 29.8592C19.1185 29.7606 19.0386 29.6807 18.94 29.6807C18.8414 29.6807 18.7615 29.7606 18.7615 29.8592C18.7615 29.9577 18.8414 30.0377 18.94 30.0377Z" fill="black"/>
<path opacity="0.1" d="M18.94 30.6324C19.0386 30.6324 19.1185 30.5525 19.1185 30.4539C19.1185 30.3553 19.0386 30.2754 18.94 30.2754C18.8414 30.2754 18.7615 30.3553 18.7615 30.4539C18.7615 30.5525 18.8414 30.6324 18.94 30.6324Z" fill="black"/>
<path opacity="0.1" d="M18.94 31.2271C19.0386 31.2271 19.1185 31.1472 19.1185 31.0486C19.1185 30.95 19.0386 30.8701 18.94 30.8701C18.8414 30.8701 18.7615 30.95 18.7615 31.0486C18.7615 31.1472 18.8414 31.2271 18.94 31.2271Z" fill="black"/>
<path opacity="0.1" d="M18.94 31.8218C19.0386 31.8218 19.1185 31.7419 19.1185 31.6433C19.1185 31.5448 19.0386 31.4648 18.94 31.4648C18.8414 31.4648 18.7615 31.5448 18.7615 31.6433C18.7615 31.7419 18.8414 31.8218 18.94 31.8218Z" fill="black"/>
<path opacity="0.1" d="M18.94 32.4166C19.0386 32.4166 19.1185 32.3366 19.1185 32.2381C19.1185 32.1395 19.0386 32.0596 18.94 32.0596C18.8414 32.0596 18.7615 32.1395 18.7615 32.2381C18.7615 32.3366 18.8414 32.4166 18.94 32.4166Z" fill="black"/>
<path opacity="0.1" d="M18.94 33.0113C19.0386 33.0113 19.1185 32.9314 19.1185 32.8328C19.1185 32.7342 19.0386 32.6543 18.94 32.6543C18.8414 32.6543 18.7615 32.7342 18.7615 32.8328C18.7615 32.9314 18.8414 33.0113 18.94 33.0113Z" fill="black"/>
<path opacity="0.1" d="M18.94 33.605C19.0386 33.605 19.1185 33.5251 19.1185 33.4265C19.1185 33.328 19.0386 33.248 18.94 33.248C18.8414 33.248 18.7615 33.328 18.7615 33.4265C18.7615 33.5251 18.8414 33.605 18.94 33.605Z" fill="black"/>
<path opacity="0.1" d="M18.94 34.1998C19.0386 34.1998 19.1185 34.1198 19.1185 34.0213C19.1185 33.9227 19.0386 33.8428 18.94 33.8428C18.8414 33.8428 18.7615 33.9227 18.7615 34.0213C18.7615 34.1198 18.8414 34.1998 18.94 34.1998Z" fill="black"/>
<path opacity="0.1" d="M19.1011 34.5392C19.0332 34.625 18.9605 34.7069 18.8834 34.7845C18.8554 34.7752 18.83 34.7591 18.8097 34.7376C18.7894 34.7161 18.7748 34.6899 18.7671 34.6614C18.7594 34.6328 18.759 34.6028 18.7657 34.5741C18.7725 34.5453 18.7864 34.5187 18.806 34.4965C18.8256 34.4744 18.8504 34.4575 18.8782 34.4474C18.9059 34.4372 18.9358 34.4341 18.965 34.4384C18.9943 34.4426 19.022 34.454 19.0458 34.4716C19.0695 34.4892 19.0885 34.5124 19.1011 34.5392Z" fill="black"/>
<path d="M16.8094 32.4756H16.6707C16.4792 32.4756 16.324 32.6308 16.324 32.8223V40.0964C16.324 40.2879 16.4792 40.4431 16.6707 40.4431H16.8094C17.0009 40.4431 17.1561 40.2879 17.1561 40.0964V32.8223C17.1561 32.6308 17.0009 32.4756 16.8094 32.4756Z" fill="#54576B"/>
<path d="M19.1479 39.373H14.3323C14.0859 39.373 13.8861 39.5728 13.8861 39.8193V39.9971C13.8861 40.2436 14.0859 40.4434 14.3323 40.4434H19.1479C19.3944 40.4434 19.5942 40.2436 19.5942 39.9971V39.8193C19.5942 39.5728 19.3944 39.373 19.1479 39.373Z" fill="#54576B"/>
<path opacity="0.1" d="M16.8094 32.4756H16.6707C16.4792 32.4756 16.324 32.6308 16.324 32.8223V40.0964C16.324 40.2879 16.4792 40.4431 16.6707 40.4431H16.8094C17.0009 40.4431 17.1561 40.2879 17.1561 40.0964V32.8223C17.1561 32.6308 17.0009 32.4756 16.8094 32.4756Z" fill="black"/>
<path opacity="0.1" d="M19.1479 39.373H14.3323C14.0859 39.373 13.8861 39.5728 13.8861 39.8193V39.9971C13.8861 40.2436 14.0859 40.4434 14.3323 40.4434H19.1479C19.3944 40.4434 19.5942 40.2436 19.5942 39.9971V39.8193C19.5942 39.5728 19.3944 39.373 19.1479 39.373Z" fill="black"/>
<path d="M16.9283 32.4756H16.7896C16.5981 32.4756 16.4429 32.6308 16.4429 32.8223V40.0964C16.4429 40.2879 16.5981 40.4431 16.7896 40.4431H16.9283C17.1198 40.4431 17.275 40.2879 17.275 40.0964V32.8223C17.275 32.6308 17.1198 32.4756 16.9283 32.4756Z" fill="#54576B"/>
<path d="M19.2667 39.373H14.4511C14.2047 39.373 14.0049 39.5728 14.0049 39.8193V39.9971C14.0049 40.2436 14.2047 40.4434 14.4511 40.4434H19.2667C19.5131 40.4434 19.7129 40.2436 19.7129 39.9971V39.8193C19.7129 39.5728 19.5131 39.373 19.2667 39.373Z" fill="#54576B"/>
<path d="M21.8158 33.1498C21.3696 34.1207 20.6542 34.9433 19.7546 35.5199C18.8549 36.0965 17.8088 36.403 16.7402 36.403C15.6717 36.403 14.6255 36.0965 13.7259 35.5199C12.8262 34.9433 12.1109 34.1207 11.6646 33.1498C11.0733 32.3016 10.5564 30.6104 10.5564 30.8114C10.5564 31.6234 10.7163 32.4276 11.0271 33.1778C11.3379 33.9281 11.7934 34.6098 12.3676 35.184C12.9418 35.7582 13.6235 36.2137 14.3738 36.5245C15.124 36.8352 15.9281 36.9952 16.7402 36.9952C17.5523 36.9952 18.3564 36.8352 19.1067 36.5245C19.8569 36.2137 20.5386 35.7582 21.1128 35.184C21.6871 34.6098 22.1426 33.9281 22.4533 33.1778C22.7641 32.4276 22.924 31.6234 22.924 30.8114C22.924 30.6104 22.4072 32.3016 21.8158 33.1498Z" fill="#54576B"/>
<path d="M16.7401 24.627C15.7426 24.6272 14.76 24.8689 13.8761 25.3313C12.9923 25.7938 12.2335 26.4632 11.6645 27.2826C11.3254 28.0155 11.1501 28.8135 11.1509 29.621C11.1509 29.8196 11.1614 30.0181 11.1823 30.2156C11.3221 28.8388 11.968 27.563 12.9947 26.6352C14.0214 25.7074 15.356 25.1938 16.7398 25.1938C18.1236 25.1938 19.4582 25.7074 20.4849 26.6352C21.5117 27.563 22.1575 28.8388 22.2973 30.2156C22.3183 30.0181 22.3288 29.8196 22.3288 29.621C22.3295 28.8135 22.1542 28.0155 21.8151 27.2826C21.2462 26.4633 20.4875 25.7939 19.6038 25.3315C18.7201 24.869 17.7375 24.6273 16.7401 24.627Z" fill="#54576B"/>
<path opacity="0.1" d="M16.8589 33.4859C16.9901 33.4859 17.0965 33.3795 17.0965 33.2483C17.0965 33.1171 16.9901 33.0107 16.8589 33.0107C16.7277 33.0107 16.6213 33.1171 16.6213 33.2483C16.6213 33.3795 16.7277 33.4859 16.8589 33.4859Z" fill="black"/>
<path opacity="0.2" d="M28.0072 39.1355C28.0565 39.1355 28.0965 39.0956 28.0965 39.0463C28.0965 38.997 28.0565 38.957 28.0072 38.957C27.9579 38.957 27.918 38.997 27.918 39.0463C27.918 39.0956 27.9579 39.1355 28.0072 39.1355Z" fill="black"/>
<path d="M24.6402 40.8414C24.2852 40.8437 23.9343 40.7667 23.6129 40.6161C22.4147 40.0523 21.824 40.1236 20.9303 40.2308C20.0927 40.3462 19.2456 40.377 18.4018 40.3226C18.1665 40.3117 17.9366 40.2484 17.7289 40.1373C17.5211 40.0262 17.3408 39.8702 17.2011 39.6806C15.8759 37.9598 16.7626 33.4293 16.8011 33.2373C16.8051 33.2228 16.8144 33.2103 16.8273 33.2023C16.8401 33.1944 16.8555 33.1916 16.8703 33.1945C16.8851 33.1974 16.8982 33.2059 16.9071 33.2181C16.9159 33.2303 16.9198 33.2455 16.9179 33.2605C16.909 33.3067 16.003 37.9296 17.2955 39.6074C17.4249 39.7837 17.5921 39.9288 17.7849 40.0323C17.9776 40.1357 18.191 40.1947 18.4095 40.2051C19.2451 40.2587 20.0841 40.228 20.9136 40.1133C21.8279 40.0029 22.4321 39.9297 23.661 40.5082C25.6213 41.4309 27.9186 39.0841 27.9411 39.0603C27.9524 39.0505 27.9669 39.0454 27.9818 39.0458C27.9968 39.0462 28.011 39.0522 28.0217 39.0626C28.0324 39.073 28.0389 39.087 28.0397 39.102C28.0406 39.1169 28.0359 39.1316 28.0265 39.1431C28.0091 39.1637 26.3661 40.8414 24.6402 40.8414Z" fill="#DFE6F5"/>
<path d="M26.8246 9.26602C25.8429 7.49711 23.8499 6.28423 21.5596 6.28423C18.2979 6.28423 15.6435 8.73824 15.6435 11.7547H15.2242C15.2242 8.50902 18.0654 5.86816 21.5564 5.86816C23.5776 5.86816 25.3806 6.75294 26.5408 8.12827C26.6358 8.43646 26.7084 8.75172 26.7803 9.06634C26.7963 9.13375 26.8111 9.19989 26.8246 9.26602Z" fill="#535461"/>
<path d="M16.1089 10.0166H16.6566V13.8048H16.1089C15.6907 13.8048 15.2896 13.6387 14.9939 13.343C14.6981 13.0472 14.532 12.6461 14.532 12.2279V11.5974C14.5315 11.39 14.5719 11.1845 14.6509 10.9927C14.7299 10.801 14.846 10.6267 14.9925 10.4798C15.139 10.333 15.313 10.2165 15.5046 10.137C15.6961 10.0575 15.9015 10.0166 16.1089 10.0166Z" fill="#DFE6F5"/>
<path d="M16.7343 10.0195H16.5789C16.3651 10.0195 16.1918 10.1929 16.1918 10.4067V13.4174C16.1918 13.6312 16.3651 13.8046 16.5789 13.8046H16.7343C16.9482 13.8046 17.1215 13.6312 17.1215 13.4174V10.4067C17.1215 10.1929 16.9482 10.0195 16.7343 10.0195Z" fill="#535461"/>
<path d="M51.4835 37.2343C51.4835 37.2343 50.4639 36.8889 49.9734 37.7871C49.8439 38.0307 49.7781 38.303 49.7819 38.5787C49.7857 38.8545 49.8591 39.1249 49.9952 39.3647C50.3162 39.9471 50.9814 40.7035 52.2424 40.636C53.3096 40.5789 53.6646 39.7647 53.761 39.0071C53.7979 38.723 53.7613 38.4342 53.6546 38.1684C53.5479 37.9025 53.3748 37.6685 53.1518 37.4887C52.9288 37.3089 52.6633 37.1894 52.3809 37.1416C52.0985 37.0938 51.8085 37.1193 51.5387 37.2157L51.4835 37.2343Z" fill="#6C63FF"/>
<path opacity="0.1" d="M50.211 39.4455C50.0749 39.2056 50.0015 38.9352 49.9977 38.6595C49.9939 38.3837 50.0597 38.1114 50.1891 37.8679C50.6797 36.969 51.6993 37.3151 51.6993 37.3151L51.7513 37.2964C52.1401 37.1558 52.5674 37.1654 52.9494 37.3234C52.7386 37.1979 52.5025 37.1207 52.2583 37.0974C52.014 37.074 51.7676 37.1052 51.5369 37.1886L51.4849 37.2072C51.4849 37.2072 50.4652 36.8617 49.9747 37.76C49.8453 38.0036 49.7794 38.2758 49.7832 38.5516C49.7871 38.8274 49.8604 39.0977 49.9965 39.3376C50.2091 39.7228 50.5693 40.1793 51.1523 40.4291C50.7544 40.1935 50.4288 39.8533 50.211 39.4455Z" fill="white"/>
<path opacity="0.2" d="M50.957 37.667C50.957 37.667 51.3352 37.9643 52.2527 37.667H50.957Z" fill="black"/>
<path d="M50.876 35.5068C50.876 35.5068 51.5238 37.2616 51.4699 37.7207L51.9836 37.6668C51.9836 37.6668 51.1161 36.1277 51.3351 35.5068H50.876Z" fill="#6C63FF"/>
<path opacity="0.2" d="M50.876 35.5068C50.876 35.5068 51.5238 37.2616 51.4699 37.7207L51.9836 37.6668C51.9836 37.6668 51.1161 36.1277 51.3351 35.5068H50.876Z" fill="black"/>
<path d="M53.5207 35.6527C53.5207 35.6527 52.5011 35.1313 52.044 35.5621C51.5868 35.993 51.5175 37.0941 51.5175 37.0941C51.5175 37.0941 53.1811 37.3233 53.5207 35.6527Z" fill="#6C63FF"/>
<path opacity="0.1" d="M53.5207 35.6527C53.5207 35.6527 52.5011 35.1313 52.044 35.5621C51.5868 35.993 51.5175 37.0941 51.5175 37.0941C51.5175 37.0941 53.1811 37.3233 53.5207 35.6527Z" fill="white"/>
<path d="M51.5181 37.0948C51.5181 37.0948 51.7858 35.8164 53.5207 35.6533" stroke="#6C63FF" stroke-width="0.0642074" stroke-miterlimit="10"/>
</g>
<defs>
<linearGradient id="paint0_linear_1275_10222" x1="38.1161" y1="45.3234" x2="38.1161" y2="4.23579" gradientUnits="userSpaceOnUse">
<stop stop-color="#808080" stop-opacity="0.25"/>
<stop offset="0.54" stop-color="#808080" stop-opacity="0.12"/>
<stop offset="1" stop-color="#808080" stop-opacity="0.1"/>
</linearGradient>
<clipPath id="clip0_1275_10222">
<rect width="73.21" height="49.825" fill="white"/>
</clipPath>
</defs>
</svg>
