<svg width="74" height="52" viewBox="0 0 74 52" fill="none" xmlns="http://www.w3.org/2000/svg">
<g clip-path="url(#clip0_1577_145)">
<path d="M74 19.5107H2.82776V19.6588H74V19.5107Z" fill="#2F2E41"/>
<path d="M63.2341 47.9748C62.2191 49.3173 63.3825 51.9317 63.3825 51.9317C63.3825 51.9317 66.1914 52.3695 67.2064 51.027C68.2213 49.6846 67.058 47.0702 67.058 47.0702C67.058 47.0702 64.249 46.6324 63.2341 47.9748Z" fill="#6C63FF"/>
<path d="M10.0625 18.0669C8.95844 18.0669 7.87919 17.7369 6.96122 17.1185C6.04324 16.5002 5.32776 15.6213 4.90526 14.593C4.48277 13.5647 4.37222 12.4332 4.58761 11.3416C4.803 10.25 5.33464 9.24727 6.11532 8.46026C6.89599 7.67324 7.89064 7.13728 8.97346 6.92014C10.0563 6.70301 11.1787 6.81445 12.1987 7.24038C13.2187 7.66631 14.0905 8.38759 14.7039 9.31302C15.3172 10.2384 15.6446 11.3265 15.6446 12.4395C15.6429 13.9314 15.0543 15.3618 14.0078 16.4168C12.9613 17.4718 11.5424 18.0652 10.0625 18.0669ZM10.0625 6.9601C8.98749 6.9601 7.93665 7.28146 7.04283 7.88354C6.14901 8.48562 5.45236 9.34138 5.04098 10.3426C4.6296 11.3438 4.52196 12.4455 4.73168 13.5084C4.9414 14.5713 5.45906 15.5477 6.21919 16.314C6.97932 17.0803 7.94779 17.6021 9.00212 17.8135C10.0565 18.025 11.1493 17.9165 12.1425 17.5017C13.1356 17.087 13.9845 16.3847 14.5817 15.4836C15.1789 14.5826 15.4977 13.5232 15.4977 12.4395C15.4961 10.9868 14.9229 9.59401 13.904 8.56679C12.885 7.53956 11.5035 6.96175 10.0625 6.9601Z" fill="#2F2E41"/>
<path d="M10.0625 5.66447C8.15895 5.66447 6.61035 4.39394 6.61035 2.83224C6.61035 1.27053 8.15895 0 10.0625 0C11.966 0 13.5146 1.27053 13.5146 2.83224C13.5146 4.39394 11.966 5.66447 10.0625 5.66447ZM10.0625 0.120521C8.23993 0.120521 6.75725 1.337 6.75725 2.83224C6.75725 4.32748 8.23993 5.54395 10.0625 5.54395C11.885 5.54395 13.3677 4.32748 13.3677 2.83224C13.3677 1.337 11.885 0.120521 10.0625 0.120521Z" fill="#2F2E41"/>
<path d="M8.44665 4.3689C8.03479 4.3689 7.71216 3.75094 7.71216 2.96204C7.71216 2.17314 8.03479 1.55518 8.44665 1.55518C8.85851 1.55518 9.18114 2.17314 9.18114 2.96204C9.18114 3.75094 8.85851 4.3689 8.44665 4.3689ZM8.44665 1.70327C8.12811 1.70327 7.85906 2.27972 7.85906 2.96204C7.85906 3.64435 8.12811 4.22081 8.44665 4.22081C8.76519 4.22081 9.03424 3.64436 9.03424 2.96204C9.03424 2.27972 8.76519 1.70327 8.44665 1.70327Z" fill="#2F2E41"/>
<path d="M11.6783 4.3689C11.2665 4.3689 10.9438 3.75094 10.9438 2.96204C10.9438 2.17314 11.2665 1.55518 11.6783 1.55518C12.0902 1.55518 12.4128 2.17314 12.4128 2.96204C12.4128 3.75094 12.0902 4.3689 11.6783 4.3689ZM11.6783 1.70327C11.3598 1.70327 11.0907 2.27972 11.0907 2.96204C11.0907 3.64435 11.3598 4.22081 11.6783 4.22081C11.9969 4.22081 12.2659 3.64436 12.2659 2.96204C12.2659 2.27972 11.9969 1.70327 11.6783 1.70327Z" fill="#2F2E41"/>
<path d="M17.2605 11.0325C16.6794 11.0325 16.1114 10.8588 15.6282 10.5334C15.1451 10.2079 14.7685 9.74534 14.5462 9.20414C14.3238 8.66294 14.2656 8.06742 14.379 7.49288C14.4923 6.91835 14.7721 6.3906 15.183 5.97638C15.5939 5.56217 16.1174 5.28008 16.6873 5.1658C17.2572 5.05152 17.8479 5.11017 18.3848 5.33434C18.9216 5.55852 19.3805 5.93814 19.7033 6.42521C20.0261 6.91228 20.1984 7.48491 20.1984 8.0707C20.1976 8.85595 19.8877 9.60878 19.337 10.164C18.7862 10.7193 18.0394 11.0316 17.2605 11.0325ZM17.2605 5.25698C16.7085 5.25698 16.1688 5.422 15.7098 5.73118C15.2509 6.04035 14.8931 6.4798 14.6819 6.99394C14.4706 7.50808 14.4153 8.07383 14.523 8.61963C14.6307 9.16544 14.8966 9.6668 15.2869 10.0603C15.6772 10.4538 16.1746 10.7218 16.716 10.8304C17.2574 10.9389 17.8186 10.8832 18.3286 10.6702C18.8386 10.4573 19.2745 10.0966 19.5812 9.63393C19.8879 9.17121 20.0515 8.62721 20.0515 8.0707C20.0507 7.32472 19.7564 6.60953 19.2331 6.08204C18.7099 5.55454 18.0005 5.25783 17.2605 5.25698Z" fill="#2F2E41"/>
<path d="M2.93797 11.0325C2.35689 11.0325 1.78887 10.8588 1.30572 10.5334C0.822575 10.2079 0.446008 9.74534 0.223641 9.20414C0.00127297 8.66294 -0.0569085 8.06742 0.0564535 7.49288C0.169816 6.91835 0.44963 6.3906 0.860512 5.97638C1.27139 5.56217 1.79489 5.28008 2.3648 5.1658C2.93471 5.05152 3.52544 5.11017 4.06228 5.33434C4.59912 5.55852 5.05797 5.93814 5.3808 6.42521C5.70362 6.91228 5.87593 7.48491 5.87593 8.0707C5.87505 8.85595 5.56523 9.60878 5.01444 10.164C4.46366 10.7193 3.71689 11.0316 2.93797 11.0325ZM2.93797 5.25698C2.38595 5.25698 1.84632 5.422 1.38733 5.73118C0.928344 6.04035 0.570606 6.4798 0.359357 6.99394C0.148108 7.50808 0.0928352 8.07383 0.200529 8.61963C0.308223 9.16544 0.574047 9.6668 0.964385 10.0603C1.35472 10.4538 1.85204 10.7218 2.39346 10.8304C2.93487 10.9389 3.49606 10.8832 4.00606 10.6702C4.51606 10.4573 4.95197 10.0966 5.25865 9.63393C5.56534 9.17121 5.72903 8.62721 5.72903 8.0707C5.72819 7.32472 5.43387 6.60953 4.91062 6.08204C4.38738 5.55454 3.67795 5.25783 2.93797 5.25698Z" fill="#2F2E41"/>
<path d="M10.0625 19.5479C9.01229 19.5479 8.18958 19.1902 8.18958 18.7334C8.18958 18.2767 9.01229 17.9189 10.0625 17.9189C11.1128 17.9189 11.9355 18.2767 11.9355 18.7334C11.9355 19.1902 11.1128 19.5479 10.0625 19.5479ZM10.0625 18.067C9.03008 18.067 8.33647 18.4116 8.33647 18.7334C8.33647 19.0553 9.03008 19.3999 10.0625 19.3999C11.095 19.3999 11.7886 19.0553 11.7886 18.7334C11.7886 18.4116 11.095 18.067 10.0625 18.067Z" fill="#2F2E41"/>
<path d="M34.9618 18.0669C33.8577 18.0669 32.7785 17.7369 31.8605 17.1185C30.9425 16.5002 30.2271 15.6213 29.8046 14.593C29.3821 13.5647 29.2715 12.4332 29.4869 11.3416C29.7023 10.25 30.2339 9.24727 31.0146 8.46026C31.7953 7.67324 32.7899 7.13728 33.8728 6.92014C34.9556 6.70301 36.078 6.81445 37.098 7.24038C38.118 7.66631 38.9898 8.38759 39.6031 9.31302C40.2165 10.2384 40.5439 11.3265 40.5439 12.4395C40.5422 13.9314 39.9536 15.3618 38.9071 16.4168C37.8606 17.4718 36.4417 18.0652 34.9618 18.0669ZM34.9618 6.9601C33.8868 6.9601 32.8359 7.28146 31.9421 7.88354C31.0483 8.48562 30.3517 9.34138 29.9403 10.3426C29.5289 11.3438 29.4213 12.4455 29.631 13.5084C29.8407 14.5713 30.3583 15.5477 31.1185 16.314C31.8786 17.0803 32.8471 17.6021 33.9014 17.8135C34.9557 18.025 36.0486 17.9165 37.0418 17.5017C38.0349 17.087 38.8838 16.3847 39.481 15.4836C40.0782 14.5826 40.397 13.5232 40.397 12.4395C40.3954 10.9868 39.8222 9.59401 38.8033 8.56679C37.7843 7.53956 36.4028 6.96175 34.9618 6.9601Z" fill="#2F2E41"/>
<path d="M34.9618 6.96027C34.279 6.96027 33.6116 6.75616 33.0439 6.37376C32.4762 5.99136 32.0337 5.44784 31.7724 4.81192C31.5111 4.17601 31.4428 3.47627 31.576 2.80119C31.7092 2.12611 32.038 1.50601 32.5207 1.01931C33.0035 0.532604 33.6186 0.201153 34.2883 0.0668712C34.9579 -0.0674105 35.652 0.0015082 36.2828 0.264911C36.9136 0.528314 37.4528 0.974371 37.8321 1.54668C38.2114 2.11898 38.4139 2.79183 38.4139 3.48013C38.4128 4.4028 38.0488 5.28739 37.4016 5.93981C36.7544 6.59224 35.877 6.95923 34.9618 6.96027ZM34.9618 0.148092C34.308 0.148092 33.669 0.343513 33.1255 0.709643C32.5819 1.07577 32.1583 1.59617 31.9081 2.20502C31.658 2.81387 31.5925 3.48383 31.7201 4.13018C31.8476 4.77654 32.1624 5.37025 32.6246 5.83624C33.0869 6.30224 33.6758 6.61959 34.3169 6.74815C34.9581 6.87672 35.6227 6.81074 36.2266 6.55854C36.8306 6.30635 37.3468 5.87927 37.7099 5.33132C38.0731 4.78337 38.267 4.13915 38.267 3.48013C38.266 2.59673 37.9174 1.74979 37.2978 1.12512C36.6782 0.50046 35.838 0.149087 34.9618 0.148092Z" fill="#2F2E41"/>
<path d="M33.3459 4.3689C32.9341 4.3689 32.6115 3.75094 32.6115 2.96204C32.6115 2.17314 32.9341 1.55518 33.3459 1.55518C33.7578 1.55518 34.0804 2.17314 34.0804 2.96204C34.0804 3.75094 33.7578 4.3689 33.3459 4.3689ZM33.3459 1.70327C33.0274 1.70327 32.7583 2.27972 32.7583 2.96204C32.7583 3.64435 33.0274 4.22081 33.3459 4.22081C33.6645 4.22081 33.9335 3.64436 33.9335 2.96204C33.9335 2.27972 33.6645 1.70327 33.3459 1.70327Z" fill="#2F2E41"/>
<path d="M36.5776 4.3689C36.1658 4.3689 35.8431 3.75094 35.8431 2.96204C35.8431 2.17314 36.1658 1.55518 36.5776 1.55518C36.9895 1.55518 37.3121 2.17314 37.3121 2.96204C37.3121 3.75094 36.9895 4.3689 36.5776 4.3689ZM36.5776 1.70327C36.2591 1.70327 35.99 2.27972 35.99 2.96204C35.99 3.64435 36.2591 4.22081 36.5776 4.22081C36.8962 4.22081 37.1652 3.64436 37.1652 2.96204C37.1652 2.27972 36.8962 1.70327 36.5776 1.70327Z" fill="#2F2E41"/>
<path d="M42.8208 18.5115C42.2397 18.5115 41.6717 18.3378 41.1885 18.0124C40.7054 17.6869 40.3288 17.2243 40.1065 16.6831C39.8841 16.1419 39.8259 15.5464 39.9393 14.9719C40.0526 14.3974 40.3324 13.8696 40.7433 13.4554C41.1542 13.0412 41.6777 12.7591 42.2476 12.6448C42.8175 12.5305 43.4082 12.5892 43.9451 12.8133C44.4819 13.0375 44.9408 13.4171 45.2636 13.9042C45.5864 14.3913 45.7587 14.9639 45.7587 15.5497C45.7579 16.335 45.448 17.0878 44.8973 17.643C44.3465 18.1983 43.5997 18.5106 42.8208 18.5115ZM42.8208 12.736C42.2688 12.736 41.7291 12.901 41.2701 13.2102C40.8112 13.5194 40.4534 13.9588 40.2422 14.4729C40.0309 14.9871 39.9756 15.5528 40.0833 16.0986C40.191 16.6444 40.4569 17.1458 40.8472 17.5393C41.2375 17.9328 41.7349 18.2008 42.2763 18.3094C42.8177 18.4179 43.3789 18.3622 43.8889 18.1493C44.3989 17.9363 44.8348 17.5756 45.1415 17.1129C45.4482 16.6502 45.6118 16.1062 45.6118 15.5497C45.611 14.8037 45.3167 14.0885 44.7934 13.561C44.2702 13.0335 43.5608 12.7368 42.8208 12.736Z" fill="#2F2E41"/>
<path d="M26.5702 15.0311C25.9884 15.0348 25.4185 14.8642 24.9329 14.541C24.4474 14.2178 24.0679 13.7565 23.8427 13.2156C23.6175 12.6747 23.5567 12.0786 23.668 11.5029C23.7793 10.9271 24.0576 10.3976 24.4678 9.98151C24.8779 9.56543 25.4014 9.28149 25.9718 9.1657C26.5423 9.04991 27.1339 9.10748 27.6719 9.33111C28.2098 9.55474 28.6697 9.93436 28.9934 10.4218C29.317 10.9093 29.4898 11.4827 29.4898 12.0693C29.4914 12.8521 29.1848 13.6035 28.6375 14.1588C28.0902 14.714 27.3467 15.0278 26.5702 15.0311ZM26.5702 9.25557C26.0174 9.25208 25.4761 9.41413 25.0148 9.72118C24.5535 10.0282 24.193 10.4665 23.9791 10.9803C23.7652 11.4941 23.7074 12.0604 23.8131 12.6074C23.9188 13.1544 24.1833 13.6574 24.5729 14.0527C24.9626 14.448 25.4599 14.7177 26.0018 14.8277C26.5437 14.9377 27.1058 14.883 27.6168 14.6706C28.1278 14.4581 28.5648 14.0975 28.8722 13.6344C29.1797 13.1713 29.3438 12.6266 29.3438 12.0693C29.3453 11.3256 29.0541 10.6118 28.5341 10.0843C28.0142 9.55678 27.3079 9.25876 26.5702 9.25557Z" fill="#2F2E41"/>
<path d="M34.9617 19.5479C33.9115 19.5479 33.0887 19.1902 33.0887 18.7334C33.0887 18.2767 33.9115 17.9189 34.9617 17.9189C36.0119 17.9189 36.8346 18.2767 36.8346 18.7334C36.8346 19.1902 36.0119 19.5479 34.9617 19.5479ZM34.9617 18.067C33.9292 18.067 33.2356 18.4116 33.2356 18.7334C33.2356 19.0553 33.9292 19.3999 34.9617 19.3999C35.9941 19.3999 36.6877 19.0553 36.6877 18.7334C36.6877 18.4116 35.9941 18.067 34.9617 18.067Z" fill="#2F2E41"/>
<path d="M60.6689 18.2891C59.5649 18.2891 58.4856 17.959 57.5677 17.3407C56.6497 16.7223 55.9342 15.8434 55.5117 14.8152C55.0892 13.7869 54.9787 12.6554 55.1941 11.5638C55.4094 10.4722 55.9411 9.46944 56.7218 8.68242C57.5024 7.89541 58.4971 7.35945 59.5799 7.14231C60.6627 6.92518 61.7851 7.03662 62.8051 7.46255C63.8251 7.88847 64.6969 8.60976 65.3103 9.53519C65.9237 10.4606 66.2511 11.5486 66.2511 12.6616C66.2494 14.1536 65.6607 15.584 64.6142 16.639C63.5677 17.694 62.1489 18.2874 60.6689 18.2891ZM60.6689 7.18227C59.5939 7.18227 58.5431 7.50363 57.6493 8.10571C56.7555 8.70779 56.0588 9.56355 55.6474 10.5648C55.236 11.566 55.1284 12.6677 55.3381 13.7306C55.5478 14.7935 56.0655 15.7698 56.8256 16.5361C57.5858 17.3024 58.5542 17.8243 59.6086 18.0357C60.6629 18.2471 61.7557 18.1386 62.7489 17.7239C63.7421 17.3092 64.5909 16.6069 65.1882 15.7058C65.7854 14.8047 66.1042 13.7453 66.1042 12.6616C66.1025 11.2089 65.5294 9.81618 64.5104 8.78895C63.4915 7.76173 62.1099 7.18392 60.6689 7.18227Z" fill="#2F2E41"/>
<path d="M63.6069 7.7005C62.9241 7.7005 62.2567 7.4964 61.689 7.11399C61.1213 6.73159 60.6788 6.18807 60.4176 5.55216C60.1563 4.91625 60.0879 4.21651 60.2211 3.54143C60.3543 2.86635 60.6831 2.24625 61.1659 1.75954C61.6487 1.27284 62.2638 0.941387 62.9334 0.807106C63.6031 0.672824 64.2972 0.741743 64.928 1.00515C65.5588 1.26855 66.0979 1.71461 66.4772 2.28691C66.8565 2.85922 67.059 3.53206 67.059 4.22037C67.058 5.14304 66.6939 6.02762 66.0468 6.68005C65.3996 7.33247 64.5221 7.69946 63.6069 7.7005ZM63.6069 0.888327C62.9532 0.888327 62.3142 1.08375 61.7706 1.44988C61.2271 1.81601 60.8034 2.3364 60.5533 2.94525C60.3031 3.5541 60.2377 4.22407 60.3652 4.87042C60.4927 5.51677 60.8075 6.11048 61.2698 6.57648C61.732 7.04247 62.3209 7.35982 62.9621 7.48839C63.6032 7.61696 64.2678 7.55097 64.8717 7.29878C65.4757 7.04658 65.9919 6.6195 66.3551 6.07155C66.7183 5.5236 66.9121 4.87938 66.9121 4.22037C66.9111 3.33696 66.5626 2.49002 65.9429 1.86536C65.3233 1.24069 64.4832 0.889322 63.6069 0.888327Z" fill="#2F2E41"/>
<path d="M61.9911 6.44214C61.5792 6.44214 61.2566 5.82418 61.2566 5.03528C61.2566 4.24638 61.5792 3.62842 61.9911 3.62842C62.4029 3.62842 62.7256 4.24638 62.7256 5.03528C62.7256 5.82418 62.4029 6.44214 61.9911 6.44214ZM61.9911 3.77651C61.6725 3.77651 61.4035 4.35296 61.4035 5.03528C61.4035 5.7176 61.6725 6.29405 61.9911 6.29405C62.3096 6.29405 62.5787 5.7176 62.5787 5.03528C62.5787 4.35296 62.3096 3.77651 61.9911 3.77651Z" fill="#2F2E41"/>
<path d="M65.2228 6.44214C64.8109 6.44214 64.4883 5.82418 64.4883 5.03528C64.4883 4.24638 64.8109 3.62842 65.2228 3.62842C65.6346 3.62842 65.9573 4.24638 65.9573 5.03528C65.9573 5.82418 65.6346 6.44214 65.2228 6.44214ZM65.2228 3.77651C64.9042 3.77651 64.6352 4.35296 64.6352 5.03528C64.6352 5.7176 64.9042 6.29405 65.2228 6.29405C65.5413 6.29405 65.8104 5.7176 65.8104 5.03528C65.8104 4.35296 65.5413 3.77651 65.2228 3.77651Z" fill="#2F2E41"/>
<path d="M68.5281 18.7337C67.947 18.7337 67.379 18.56 66.8958 18.2345C66.4127 17.9091 66.0361 17.4465 65.8137 16.9053C65.5914 16.3641 65.5332 15.7686 65.6465 15.1941C65.7599 14.6195 66.0397 14.0918 66.4506 13.6776C66.8615 13.2633 67.385 12.9813 67.9549 12.867C68.5248 12.7527 69.1155 12.8113 69.6524 13.0355C70.1892 13.2597 70.6481 13.6393 70.9709 14.1264C71.2937 14.6134 71.466 15.1861 71.466 15.7719C71.4651 16.5571 71.1553 17.31 70.6045 17.8652C70.0537 18.4205 69.307 18.7328 68.5281 18.7337ZM68.5281 12.9582C67.976 12.9582 67.4364 13.1232 66.9774 13.4323C66.5184 13.7415 66.1607 14.181 65.9494 14.6951C65.7382 15.2092 65.6829 15.775 65.7906 16.3208C65.8983 16.8666 66.1641 17.368 66.5545 17.7615C66.9448 18.155 67.4421 18.423 67.9835 18.5315C68.525 18.6401 69.0861 18.5844 69.5962 18.3714C70.1062 18.1585 70.5421 17.7978 70.8487 17.3351C71.1554 16.8724 71.3191 16.3284 71.3191 15.7719C71.3183 15.0259 71.024 14.3107 70.5007 13.7832C69.9775 13.2557 69.268 12.959 68.5281 12.9582Z" fill="#2F2E41"/>
<path d="M52.2958 15.2532C51.7147 15.2532 51.1467 15.0795 50.6635 14.7541C50.1804 14.4286 49.8038 13.966 49.5814 13.4248C49.3591 12.8836 49.3009 12.2881 49.4142 11.7136C49.5276 11.139 49.8074 10.6113 50.2183 10.1971C50.6292 9.78287 51.1527 9.50078 51.7226 9.3865C52.2925 9.27222 52.8832 9.33087 53.4201 9.55505C53.9569 9.77922 54.4158 10.1588 54.7386 10.6459C55.0614 11.133 55.2337 11.7056 55.2337 12.2914C55.2328 13.0767 54.923 13.8295 54.3722 14.3847C53.8214 14.94 53.0747 15.2523 52.2958 15.2532ZM52.2958 9.47768C51.7437 9.47768 51.2041 9.6427 50.7451 9.95188C50.2861 10.2611 49.9284 10.7005 49.7171 11.2146C49.5059 11.7288 49.4506 12.2945 49.5583 12.8403C49.666 13.3861 49.9318 13.8875 50.3222 14.281C50.7125 14.6745 51.2098 14.9425 51.7512 15.0511C52.2927 15.1596 52.8538 15.1039 53.3638 14.8909C53.8738 14.678 54.3098 14.3173 54.6164 13.8546C54.9231 13.3919 55.0868 12.8479 55.0868 12.2914C55.086 11.5454 54.7916 10.8302 54.2684 10.3027C53.7452 9.77525 53.0357 9.47853 52.2958 9.47768Z" fill="#2F2E41"/>
<path d="M58.4287 19.4737C57.3785 19.4737 56.5558 19.116 56.5558 18.6592C56.5558 18.2025 57.3785 17.8447 58.4287 17.8447C59.479 17.8447 60.3017 18.2025 60.3017 18.6592C60.3017 19.116 59.479 19.4737 58.4287 19.4737ZM58.4287 17.9928C57.3963 17.9928 56.7027 18.3374 56.7027 18.6592C56.7027 18.981 57.3963 19.3256 58.4287 19.3256C59.4612 19.3256 60.1548 18.981 60.1548 18.6592C60.1548 18.3374 59.4612 17.9928 58.4287 17.9928Z" fill="#2F2E41"/>
<path d="M26.5904 3.48215C24.2922 1.02676 19.235 1.98779 19.1842 1.99781L19.1561 1.85246C19.2078 1.8423 24.344 0.866445 26.6973 3.38048L26.5904 3.48215Z" fill="#6C63FF"/>
<path d="M27.1761 4.14671C26.7988 3.90899 26.2735 3.65839 25.8561 3.57448L26.5636 3.3461L26.9624 2.71436C26.9368 3.1427 27.0438 3.71849 27.1761 4.14671Z" fill="#6C63FF"/>
<path d="M49.6534 7.48067C47.3551 5.0252 42.298 5.98631 42.2472 5.99633L42.2191 5.85098C42.2708 5.84086 47.407 4.86497 49.7603 7.379L49.6534 7.48067Z" fill="#6C63FF"/>
<path d="M50.2392 8.14476C49.8619 7.90703 49.3366 7.65643 48.9192 7.57253L49.6267 7.34415L50.0255 6.7124C49.9999 7.14075 50.1069 7.71653 50.2392 8.14476Z" fill="#6C63FF"/>
<path d="M50.0616 13.9751C50.0616 13.9751 48.5063 13.9751 48.3334 14.9333C48.1606 15.8915 47.9014 26.3448 48.0742 27.6515C48.247 28.9581 48.247 28.6968 48.247 28.6968C48.247 28.6968 47.9025 31.1799 48.6796 31.2885C49.4568 31.3972 49.4567 28.4355 49.4567 28.4355L50.0616 17.808L50.0616 13.9751Z" fill="#9E616A"/>
<path d="M56.8015 13.9751C56.8015 13.9751 58.3569 13.9751 58.5297 14.9333C58.7025 15.8915 58.9617 26.3448 58.7889 27.6515C58.6161 28.9581 58.6161 28.6968 58.6161 28.6968C58.6161 28.6968 58.9606 31.1799 58.1835 31.2885C57.4064 31.3972 57.4064 28.4355 57.4064 28.4355L56.8015 17.808V13.9751Z" fill="#9E616A"/>
<path d="M49.8024 50.3877H49.1112C48.9069 50.3877 48.7046 50.4283 48.5159 50.5071C48.3272 50.5858 48.1558 50.7013 48.0113 50.8469C47.8669 50.9925 47.7523 51.1654 47.6742 51.3556C47.596 51.5459 47.5558 51.7498 47.5558 51.9557V51.9557H51.7898V49.9521H49.8024V50.3877Z" fill="#2F2E41"/>
<path d="M56.4559 50.3877H57.1472C57.3514 50.3877 57.5537 50.4283 57.7424 50.5071C57.9311 50.5858 58.1026 50.7013 58.247 50.8469C58.3914 50.9925 58.506 51.1654 58.5842 51.3556C58.6623 51.5459 58.7026 51.7498 58.7026 51.9557V51.9557H54.4685V49.9521H56.4559V50.3877Z" fill="#2F2E41"/>
<path d="M52.7403 11.9716C53.9811 11.9716 54.9869 10.9576 54.9869 9.70677C54.9869 8.45591 53.9811 7.44189 52.7403 7.44189C51.4995 7.44189 50.4937 8.45591 50.4937 9.70677C50.4937 10.9576 51.4995 11.9716 52.7403 11.9716Z" fill="#9E616A"/>
<path d="M52.2219 10.9264C52.2219 10.9264 51.9626 13.8011 51.617 14.0624C51.2714 14.3238 55.2462 13.8882 55.2462 13.8882C55.2462 13.8882 53.8636 11.7975 54.1229 11.1007C54.3821 10.4038 52.2219 10.9264 52.2219 10.9264Z" fill="#9E616A"/>
<path d="M57.3201 13.9754C57.3201 13.9754 52.5676 11.9719 49.4568 13.9754C49.4568 13.9754 48.6792 15.979 49.284 17.1114C49.8889 18.2438 50.8394 20.9443 49.8889 22.7736C48.9384 24.6029 49.9753 23.8189 49.9753 23.8189C49.9753 23.8189 48.7656 28.6971 48.5927 32.53C48.4199 36.3629 49.1112 50.1263 49.6296 50.2134C50.1481 50.3006 51.7899 50.4748 51.9627 50.2134C52.1355 49.9521 53.3452 31.746 53.3452 31.746C53.3452 31.746 53.8637 50.3877 54.3822 50.3877C54.9006 50.3877 56.2832 50.3877 56.5424 49.9521C56.8016 49.5166 58.9618 32.7042 58.1842 29.2198C57.4065 25.7354 56.888 23.9931 56.888 23.9931C56.888 23.9931 57.8385 23.3834 57.5793 23.0349C57.3201 22.6865 56.0239 18.9407 56.6288 18.331C57.2337 17.7212 57.3201 13.9754 57.3201 13.9754Z" fill="#2F2E41"/>
<path d="M54.1661 12.0004C56.1704 12.0004 57.7952 10.3624 57.7952 8.34175C57.7952 6.32114 56.1704 4.68311 54.1661 4.68311C52.1617 4.68311 50.5369 6.32114 50.5369 8.34175C50.5369 10.3624 52.1617 12.0004 54.1661 12.0004Z" fill="#2F2E41"/>
<path d="M56.4323 6.51024C55.8208 6.36535 55.288 5.98868 54.9446 5.45837C54.6011 4.92807 54.4734 4.28484 54.5878 3.66211C54.5772 3.69957 54.5672 3.73736 54.5583 3.77568C54.4102 4.41193 54.5189 5.08142 54.8603 5.63692C55.2018 6.19243 55.7482 6.58847 56.3792 6.73795C57.0103 6.88744 57.6744 6.77813 58.2256 6.43407C58.7767 6.09 59.1698 5.53935 59.3183 4.90321C59.3272 4.86488 59.335 4.82657 59.342 4.78828C59.1694 5.39721 58.7708 5.91578 58.2291 6.2364C57.6873 6.55701 57.0439 6.65508 56.4323 6.51024Z" fill="#2F2E41"/>
<path d="M56.5801 6.98705C57.5609 6.98705 58.356 6.18546 58.356 5.19665C58.356 4.20784 57.5609 3.40625 56.5801 3.40625C55.5992 3.40625 54.8041 4.20784 54.8041 5.19665C54.8041 6.18546 55.5992 6.98705 56.5801 6.98705Z" fill="#2F2E41"/>
<path d="M67.3161 51.7949H35.4392V51.943H67.3161V51.7949Z" fill="#2F2E41"/>
</g>
<defs>
<clipPath id="clip0_1577_145">
<rect width="74" height="52" fill="white"/>
</clipPath>
</defs>
</svg>
