<svg width="59" height="47" viewBox="0 0 59 47" fill="none" xmlns="http://www.w3.org/2000/svg">
<g clip-path="url(#clip0_1275_9745)">
<path d="M25.3025 18.6888C26.2007 17.8125 26.5144 16.3683 26.0031 15.4631C25.4918 14.5579 24.3491 14.5345 23.4509 15.4108C22.5527 16.2871 21.2903 18.6569 21.8016 19.5621C22.3129 20.4673 24.4043 19.5651 25.3025 18.6888ZM22.2027 19.164C22.0113 19.072 21.9593 18.7831 22.0863 18.5187C22.2134 18.2542 22.4715 18.1144 22.6628 18.2063C22.8542 18.2982 22.9063 18.5871 22.7792 18.8516C22.6521 19.1161 22.394 19.2559 22.2027 19.164H22.2027Z" fill="#3F3D56"/>
<path d="M24.1923 18.022C24.1058 17.943 24.0193 17.864 23.9328 17.785C23.8141 17.6899 23.7168 17.5708 23.6475 17.4354C23.5725 17.2464 23.5536 17.0399 23.5931 16.8405C23.6403 16.5514 23.7753 16.2838 23.9797 16.074L23.9659 16.2753C24.0698 16.1538 24.192 16.0493 24.3281 15.9656C24.4562 15.8995 24.5971 15.9041 24.6528 16.0218C24.7166 16.1564 24.6559 16.398 24.7423 16.5061C24.8917 16.6929 25.2811 16.2893 25.4454 16.4553C25.5411 16.5521 25.4958 16.7816 25.4456 16.9748C25.3939 17.2135 25.3122 17.4447 25.2024 17.6628C25.0025 18.0228 24.6373 18.2608 24.3903 18.1637C24.3163 18.1289 24.2492 18.0809 24.1923 18.022Z" fill="#7073BE"/>
<path d="M23.4264 18.0703C23.381 17.916 23.4744 17.7154 23.563 17.5465L23.6078 17.5001C23.6999 17.4537 23.7999 17.4249 23.9026 17.4151C23.9504 17.4116 23.9979 17.4243 24.0374 17.4513C24.0769 17.4783 24.1061 17.5179 24.1202 17.5636C24.1464 17.6542 24.1253 17.7835 24.188 17.8365C24.3093 17.9388 24.5526 17.6219 24.6684 17.7323C24.7333 17.7943 24.6864 17.9541 24.6028 18.0326C24.5238 18.0983 24.4263 18.1379 24.3239 18.1459C24.1753 18.1706 24.0268 18.1953 23.8783 18.22C23.7914 18.24 23.7017 18.2445 23.6132 18.2333C23.57 18.2264 23.5295 18.2074 23.4965 18.1786C23.4634 18.1498 23.4392 18.1122 23.4264 18.0703Z" fill="#2F2E41"/>
<path d="M22.9365 18.1852C22.9678 17.9571 23.1423 17.5899 23.2979 17.2762L23.3586 17.1806C23.4454 17.077 23.5455 16.9851 23.6561 16.9074C23.7408 16.861 23.7995 16.8952 23.7782 17.0468C23.7594 17.1809 23.6812 17.3996 23.7117 17.4561C23.7708 17.5654 24.1303 16.9412 24.1807 17.0662C24.209 17.1363 24.0941 17.416 23.9847 17.5814C23.906 17.7028 23.8054 17.8086 23.688 17.8932C23.5464 18.0016 23.4049 18.11 23.2633 18.2184C23.194 18.2814 23.113 18.3303 23.0249 18.3623C22.9595 18.374 22.9175 18.3236 22.9365 18.1852Z" fill="#FF6584"/>
<path d="M22.9859 19.0143C22.9649 18.912 22.9217 18.8155 22.8594 18.7316C22.7971 18.6478 22.7171 18.5786 22.6252 18.529C22.5333 18.4794 22.4315 18.4506 22.3273 18.4446C22.223 18.4385 22.1186 18.4554 22.0216 18.4941L20.3606 16.5732L20.0024 17.8433L21.6347 19.4727C21.7104 19.6314 21.8417 19.7569 22.0038 19.8252C22.1658 19.8936 22.3473 19.9002 22.5139 19.8437C22.6805 19.7872 22.8205 19.6715 22.9075 19.5187C22.9945 19.3658 23.0224 19.1863 22.9859 19.0143Z" fill="#FFB8B8"/>
<path d="M17.472 11.6985L17.0315 12.4447C17.0315 12.4447 18.1935 13.0204 18.2161 13.4748C18.2387 13.9293 18.3219 13.814 18.4947 13.9388C18.6676 14.0635 18.8726 14.3867 18.8791 14.742C18.8856 15.0972 21.634 17.8497 21.634 17.8497L20.8855 18.887C20.6418 18.6602 20.3708 18.4646 20.0787 18.3048C19.6337 18.0713 18.3989 17.6381 18.3092 17.3981C18.2195 17.1581 17.8581 16.9836 17.5123 16.7341C17.1666 16.4846 17.9076 16.2727 17.3313 15.8569C16.7551 15.4411 13.6284 12.1673 13.0682 11.8506C12.508 11.534 12.5044 10.5675 12.5044 10.5675L12.9202 9.99121L17.472 11.6985Z" fill="#3F3D56"/>
<path d="M42.514 31.1845V30.8201C42.5237 30.7124 42.5237 30.6041 42.514 30.4965V0.697258C42.514 0.512334 42.4405 0.334983 42.3098 0.204222C42.179 0.0734609 42.0016 0 41.8167 0C41.6318 0 41.4544 0.0734609 41.3237 0.204222C41.1929 0.334983 41.1195 0.512334 41.1195 0.697258V30.4965C41.1098 30.6041 41.1098 30.7124 41.1195 30.8201V31.1845L34.0608 45.6267C34.2273 45.7932 34.4249 45.9252 34.6425 46.0153C34.86 46.1055 35.0931 46.1518 35.3286 46.1518C35.564 46.1518 35.7972 46.1055 36.0147 46.0153C36.2323 45.9252 36.4299 45.7932 36.5964 45.6267L41.1195 34.1508V45.4546C41.1195 45.6395 41.1929 45.8168 41.3237 45.9476C41.4544 46.0784 41.6318 46.1518 41.8167 46.1518C42.0016 46.1518 42.179 46.0784 42.3098 45.9476C42.4405 45.8168 42.514 45.6395 42.514 45.4546V34.1508L47.037 45.6267C47.2035 45.7932 47.4012 45.9252 47.6187 46.0153C47.8362 46.1055 48.0694 46.1518 48.3048 46.1518C48.5403 46.1518 48.7734 46.1055 48.991 46.0153C49.2085 45.9252 49.4062 45.7932 49.5726 45.6267L42.514 31.1845Z" fill="#E6E6E6"/>
<path d="M7.71163 41.898C6.95225 41.1479 6.30543 40.2917 5.79128 39.3563C5.27867 38.4256 4.90005 37.4272 4.66664 36.3907C4.43 35.3388 4.35163 34.2574 4.4341 33.1823C4.60513 30.9928 5.41419 28.9014 6.76123 27.1668C6.84348 27.0613 6.92771 26.9574 7.01391 26.8551C7.11 26.7407 7.27328 26.9055 7.17786 27.0191C5.80326 28.6673 4.94208 30.6824 4.70088 32.815C4.52642 34.4446 4.72121 36.0926 5.27081 37.6367C5.82041 39.1807 6.71069 40.5812 7.87558 41.7341C7.982 41.839 7.81803 42.003 7.71163 41.898Z" fill="#E6E6E6"/>
<path d="M6.66748 27.3638C6.76135 27.3287 6.85328 27.2886 6.94286 27.2437C6.94738 27.2506 6.9518 27.2577 6.95634 27.2647L6.66748 27.3638Z" fill="#E6E6E6"/>
<path d="M8.45747 25.3182C8.41952 25.5307 8.35101 25.7365 8.25408 25.9293C7.98641 26.4669 7.56006 26.9092 7.03273 27.1964C7.00354 27.212 6.97337 27.2285 6.9432 27.2431C6.90719 27.1867 6.87021 27.1303 6.83518 27.0738C6.59869 26.6952 6.38848 26.2972 6.29214 25.8632C6.17925 25.3561 6.24056 24.7868 6.5656 24.381C6.88967 23.9752 7.50862 23.7932 7.95726 24.056C8.08679 24.1333 8.1967 24.2396 8.27841 24.3664C8.23364 24.4219 8.18887 24.4764 8.14411 24.5319C8.14018 24.537 8.13595 24.5418 8.13146 24.5465C8.09253 24.5951 8.05263 24.6428 8.0137 24.6915C7.85118 24.891 7.68963 25.0914 7.52711 25.29C7.75618 25.3321 7.98929 25.3481 8.22196 25.3377C8.24045 25.3367 8.25992 25.3357 8.27841 25.3347C8.33777 25.3308 8.39811 25.326 8.45747 25.3182Z" fill="#E6E6E6"/>
<path d="M5.17509 29.309L5.1128 30.1206L5.09626 30.3406C5.07874 30.3318 5.06025 30.323 5.04273 30.3143C4.4374 30.0138 3.90317 29.5876 3.47572 29.0642C3.04827 28.5407 2.73745 27.9321 2.56403 27.2789C2.50605 27.0523 2.46539 26.8217 2.44238 26.5889C2.75769 26.5403 3.07398 26.4906 3.38929 26.442C3.13401 26.1099 2.81424 25.8328 2.4492 25.6274C2.53244 24.8152 2.82593 24.0387 3.30073 23.3745C3.38248 24.735 4.80722 25.6002 5.32885 26.8585C5.48888 27.2523 5.55816 27.6771 5.53154 28.1013C5.50492 28.5255 5.38309 28.9383 5.17509 29.309Z" fill="#E6E6E6"/>
<path d="M4.90431 36.4377C4.82841 36.4415 4.7525 36.4435 4.67757 36.4425C4.02993 36.4384 3.38996 36.3021 2.79689 36.0419C2.20382 35.7816 1.67015 35.403 1.2286 34.9292C0.871167 34.5378 0.583775 34.0878 0.379008 33.5989C0.385821 33.5979 0.391661 33.5969 0.398473 33.596C0.713784 33.5473 1.03007 33.4977 1.34538 33.449C1.0105 33.0126 0.565412 32.6734 0.0559096 32.4661C-0.0129958 32.0263 -0.0182387 31.5789 0.0403418 31.1377C0.752714 32.2987 2.41783 32.3921 3.46984 33.2563C3.97156 33.6745 4.31358 34.253 4.43816 34.8942C4.46921 35.0526 4.48583 35.2135 4.4878 35.3749C4.48877 35.4139 4.48877 35.4518 4.4878 35.4898L4.51115 35.5423L4.90431 36.4377Z" fill="#E6E6E6"/>
<path d="M8.03414 37.7816C7.83269 38.0288 7.63124 38.278 7.42979 38.5252C7.67746 38.5707 7.92977 38.5857 8.18109 38.5699C7.95792 39.3693 7.52948 40.0963 6.93833 40.6788C6.88286 40.7333 6.82544 40.7868 6.76705 40.8374C6.75537 40.8482 6.74272 40.8589 6.73104 40.8696L6.67849 40.7207L6.67752 40.7197L6.37973 39.8954C6.00191 39.5156 5.74026 39.0358 5.62551 38.5125V38.5106C5.55571 38.2042 5.53958 37.8881 5.57782 37.5763C5.74424 36.2246 6.88675 35.009 6.60258 33.6768C7.22872 34.1839 7.71453 34.8429 8.0137 35.591C7.85118 35.7905 7.68963 35.991 7.52711 36.1895C7.75618 36.2316 7.98929 36.2476 8.22196 36.2372C8.30346 36.5666 8.34786 36.9042 8.35431 37.2435C8.35529 37.2921 8.35529 37.3398 8.35431 37.3885C8.25213 37.515 8.14897 37.6405 8.04679 37.767C8.04286 37.7722 8.03863 37.777 8.03414 37.7816Z" fill="#E6E6E6"/>
<path d="M47.5665 44.497C47.4448 43.4365 47.4773 42.364 47.6628 41.3128C47.8466 40.2663 48.1772 39.251 48.6448 38.297C49.1196 37.3289 49.7362 36.4371 50.4742 35.651C51.9796 34.0519 53.9207 32.9292 56.0574 32.4216C56.1876 32.3909 56.3184 32.3627 56.4497 32.337C56.5963 32.3081 56.6203 32.5388 56.4747 32.5675C54.3706 32.9905 52.4367 34.0212 50.9123 35.5319C49.7551 36.6926 48.8742 38.0989 48.3348 39.6466C47.7955 41.1943 47.6117 42.8435 47.797 44.472C47.8142 44.6204 47.5836 44.6454 47.5665 44.497Z" fill="#E6E6E6"/>
<path d="M55.8613 32.5161C55.9565 32.5476 56.0532 32.5739 56.1512 32.5951C56.1504 32.6033 56.1494 32.6116 56.1485 32.6199L55.8613 32.5161Z" fill="#E6E6E6"/>
<path d="M58.5385 32.0442C58.3757 32.186 58.1933 32.3035 57.997 32.393C57.4515 32.6442 56.8421 32.7217 56.2511 32.615C56.2186 32.6089 56.1848 32.6029 56.1521 32.5954C56.1594 32.5288 56.166 32.4616 56.174 32.3957C56.227 31.9525 56.3126 31.5106 56.5095 31.112C56.7393 30.6461 57.1438 30.2409 57.6515 30.1283C58.1583 30.0151 58.7547 30.2612 58.9396 30.7471C58.9921 30.8886 59.0112 31.0402 58.9954 31.1903C58.9257 31.2055 58.8567 31.2199 58.787 31.235C58.7808 31.2366 58.7744 31.2377 58.768 31.2385C58.7072 31.252 58.6462 31.2642 58.5854 31.2777C58.3337 31.3313 58.0822 31.3863 57.8311 31.4392C57.9832 31.6156 58.1549 31.7741 58.3427 31.9118C58.3578 31.9226 58.3735 31.9341 58.3886 31.9449C58.4373 31.9791 58.4873 32.0131 58.5385 32.0442Z" fill="#E6E6E6"/>
<path d="M53.4789 33.0971L52.9217 33.6906L52.771 33.8516C52.7628 33.8338 52.7539 33.8154 52.7457 33.7976C52.4623 33.1841 52.3131 32.5172 52.308 31.8414C52.3029 31.1656 52.4421 30.4965 52.7163 29.8788C52.8131 29.6659 52.926 29.4607 53.0539 29.2649C53.3301 29.4246 53.6077 29.5841 53.8839 29.7438C53.8931 29.325 53.8175 28.9087 53.6617 28.5199C54.2356 27.9391 54.9509 27.5179 55.7372 27.2979C54.9483 28.4093 55.5164 29.9764 55.1343 31.2838C55.0123 31.691 54.8001 32.0654 54.5135 32.3793C54.2269 32.6933 53.8733 32.9386 53.4789 33.0971Z" fill="#E6E6E6"/>
<path d="M48.8013 38.483C48.7397 38.4384 48.6793 38.3924 48.6215 38.3447C48.1194 37.9356 47.7061 37.4283 47.407 36.8539C47.1079 36.2794 46.9293 35.6499 46.8821 35.004C46.8489 34.475 46.9069 33.9442 47.0538 33.4349C47.0597 33.4384 47.0648 33.4413 47.0708 33.4448C47.347 33.6045 47.6245 33.764 47.9008 33.9237C47.9132 33.3738 47.779 32.8305 47.5119 32.3496C47.7337 31.9638 48.01 31.6118 48.3322 31.3047C48.1598 32.6559 49.3988 33.7722 49.6771 35.1049C49.806 35.7452 49.71 36.4103 49.4053 36.988C49.3302 37.131 49.2423 37.2668 49.1427 37.3938C49.119 37.4247 49.0953 37.4543 49.0707 37.4833L49.056 37.5389L48.8013 38.483Z" fill="#E6E6E6"/>
<path d="M50.3976 41.4915C50.0857 41.5579 49.7726 41.6258 49.4607 41.6922C49.6252 41.8829 49.8124 42.0527 50.0181 42.1979C49.3433 42.681 48.5538 42.979 47.7281 43.0625C47.6507 43.0702 47.5724 43.076 47.4952 43.0788C47.4794 43.0798 47.4628 43.0802 47.447 43.0813L47.4994 42.9323L47.4992 42.9309L47.7837 42.102C47.7273 41.5692 47.8241 41.0314 48.0626 40.5516L48.0638 40.5501C48.2014 40.2677 48.3869 40.0112 48.6121 39.7922C49.5889 38.8431 51.241 38.6118 51.8544 37.3955C52.0246 38.1831 51.9902 39.0011 51.7545 39.7716C51.5028 39.8252 51.2513 39.8802 51.0002 39.933C51.1523 40.1094 51.324 40.268 51.5118 40.4056C51.3689 40.7134 51.192 41.0043 50.9844 41.2728C50.9546 41.3113 50.9247 41.3485 50.8935 41.3858C50.7346 41.4203 50.5755 41.4535 50.4166 41.4881C50.4103 41.4896 50.404 41.4907 50.3976 41.4915Z" fill="#E6E6E6"/>
<path d="M54.7292 26.2635H28.9043C28.6041 26.2631 28.3163 26.1437 28.104 25.9314C27.8917 25.7192 27.7723 25.4314 27.772 25.1312V7.07566C27.7723 6.77546 27.8917 6.48765 28.104 6.27537C28.3163 6.0631 28.6041 5.94369 28.9043 5.94336H54.7292C55.0294 5.94371 55.3172 6.06311 55.5295 6.27539C55.7417 6.48766 55.8611 6.77546 55.8615 7.07566V25.1312C55.8611 25.4314 55.7417 25.7192 55.5295 25.9314C55.3172 26.1437 55.0294 26.2631 54.7292 26.2635Z" fill="#F2F2F2"/>
<path d="M45.6347 7.07225H37.998C37.5139 7.0717 37.0497 6.87912 36.7073 6.53677C36.365 6.19442 36.1724 5.73025 36.1719 5.24609V5.21289H47.4608V5.24609C47.4603 5.73025 47.2677 6.19442 46.9253 6.53677C46.583 6.87912 46.1188 7.0717 45.6347 7.07225Z" fill="#E6E6E6"/>
<path d="M45.6676 27.3921H38.031C37.5468 27.3915 37.0827 27.1989 36.7403 26.8566C36.398 26.5142 36.2054 26.0501 36.2048 25.5659V25.5327H47.4938V25.5659C47.4932 26.0501 47.3006 26.5142 46.9583 26.8566C46.6159 27.1989 46.1518 27.3915 45.6676 27.3921Z" fill="#E6E6E6"/>
<path d="M43.8088 22.7768C43.8088 23.8771 42.9833 22.644 41.883 22.644C41.3547 22.644 40.848 22.4341 40.4744 22.0605C40.1008 21.6869 39.8909 21.1802 39.8909 20.6518C39.8909 20.1235 40.1008 19.6168 40.4744 19.2432C40.848 18.8696 41.3547 18.6597 41.883 18.6597C42.9833 18.6597 43.8088 21.6766 43.8088 22.7768Z" fill="#7073BE"/>
<path d="M36.1718 12.8164C36.1718 13.3447 35.9619 13.8515 35.5883 14.2251C35.2147 14.5987 34.708 14.8085 34.1797 14.8085C33.0794 14.8085 32.5195 17.0377 32.5195 15.9374C32.5195 14.8372 33.0794 10.8242 34.1797 10.8242C34.708 10.8242 35.2147 11.0341 35.5883 11.4077C35.9619 11.7813 36.1718 12.288 36.1718 12.8164Z" fill="#7073BE"/>
<path d="M33.4908 10.62C33.7783 10.4523 34.1304 10.51 34.4035 10.6799C34.7142 10.8732 34.8861 11.206 34.9618 11.5554C35.0377 11.9309 35.0365 12.3179 34.958 12.6929C34.8839 13.0544 34.6942 13.4386 34.3093 13.5424C34.0527 13.6115 33.7661 13.5224 33.6725 13.2577C33.6365 13.1514 33.6285 13.0376 33.6493 12.9274C33.6701 12.8171 33.7189 12.714 33.7911 12.6281C34.007 12.3851 34.3834 12.3726 34.6661 12.4938C34.9986 12.6364 35.2013 12.9583 35.2867 13.299C35.3883 13.704 35.3243 14.1241 35.2175 14.5211C35.1013 14.9527 34.9476 15.3745 34.8093 15.7992C34.5396 16.6275 34.2914 17.4715 34.2269 18.3444C34.1284 19.6779 34.5674 21.2165 35.7862 21.9317C36.4441 22.3179 37.2358 22.3794 37.9723 22.2269C38.749 22.0662 39.4427 21.665 40.0451 21.1587C40.3581 20.8912 40.6526 20.6027 40.9267 20.2954C41.0093 20.1958 41.1196 20.1231 41.2436 20.0864C41.3676 20.0498 41.4997 20.0508 41.6231 20.0893C42.2567 20.2907 42.14 21.3051 41.5131 21.4295C41.2282 21.4861 40.9194 21.349 40.7085 21.164C40.4778 20.9533 40.3163 20.6777 40.2454 20.3734C40.0859 19.7338 40.2721 19.0296 40.6504 18.5011C41.0778 17.9041 41.7696 17.5323 42.4542 17.3112C43.2336 17.0595 44.0499 16.9853 44.8604 16.9032C45.6899 16.8192 46.5281 16.7212 47.3113 16.4195C47.9415 16.1746 48.5269 15.8272 49.0437 15.3914C50.0855 14.5202 50.8235 13.3403 51.1509 12.0222C51.2272 11.7037 51.2767 11.3792 51.2988 11.0524C51.3075 10.9244 51.1083 10.925 51.0996 11.0524C51.002 12.4772 50.3418 13.8326 49.3432 14.8444C48.8452 15.3512 48.2621 15.7668 47.6205 16.0721C46.8475 16.4374 46.007 16.581 45.1632 16.6725C44.3014 16.7659 43.4287 16.821 42.5914 17.0612C41.8513 17.2735 41.1132 17.6336 40.609 18.2323C40.1644 18.7601 39.9208 19.4843 40.0075 20.1742C40.0883 20.8161 40.4975 21.4769 41.17 21.6164C41.4855 21.6819 41.8121 21.5986 42.0226 21.345C42.1393 21.2007 42.2138 21.0269 42.2378 20.8428C42.2617 20.6588 42.2342 20.4717 42.1583 20.3023C42.0614 20.1194 41.9 19.9791 41.7054 19.9087C41.5108 19.8382 41.2969 19.8427 41.1054 19.9213C40.9653 19.9857 40.8418 20.0811 40.7441 20.2004C40.1694 20.8306 39.5169 21.4189 38.7316 21.7721C37.9991 22.1016 37.1363 22.2255 36.3616 21.9734C34.8951 21.4962 34.3333 19.8194 34.4217 18.4104C34.4795 17.4883 34.7565 16.5977 35.0429 15.7251C35.1892 15.2796 35.3557 14.8352 35.4584 14.377C35.5504 13.9667 35.5785 13.5321 35.4445 13.1274C35.3276 12.7743 35.0921 12.4598 34.7433 12.3118C34.4265 12.1774 34.0383 12.1806 33.7551 12.3926C33.3456 12.6991 33.3081 13.4591 33.8138 13.695C34.1494 13.8515 34.5536 13.7297 34.8011 13.4697C35.0786 13.1783 35.1689 12.7675 35.2002 12.3788C35.2592 11.6443 35.0972 10.7583 34.3501 10.4268C34.0423 10.2903 33.687 10.2749 33.3902 10.448C33.3684 10.4618 33.3527 10.4836 33.3466 10.5087C33.3405 10.5338 33.3443 10.5603 33.3574 10.5826C33.3704 10.6049 33.3916 10.6213 33.4165 10.6283C33.4414 10.6353 33.468 10.6323 33.4908 10.62L33.4908 10.62Z" fill="#3F3D56"/>
<path d="M51.3786 11.5546C51.3786 12.7214 53.21 15.6964 52.5938 16.5895C52.5174 16.7011 52.4366 16.8095 52.3514 16.9149C52.0758 17.2596 51.7597 17.5697 51.4098 17.8386C51.3507 17.8851 51.2909 17.9296 51.2305 17.9727C51.0157 18.125 50.7905 18.2619 50.5565 18.3825C50.514 18.4037 50.4708 18.425 50.4276 18.4462C49.2444 19.0149 47.8977 19.1454 46.6273 18.8144C45.3569 18.4833 44.2451 17.7123 43.4898 16.6385C42.7346 15.5647 42.3847 14.2578 42.5026 12.9502C42.6205 11.6427 43.1985 10.4194 44.1337 9.49807C44.1829 9.44893 44.2333 9.40112 44.2851 9.35397C44.7989 8.88319 45.3971 8.5139 46.0482 8.26558C46.0489 8.26558 46.0489 8.26492 46.0495 8.26492C47.026 7.89413 48.0871 7.80554 49.1115 8.00926H49.1128C49.1354 8.01391 49.158 8.01855 49.1806 8.02387C51.6887 8.55445 51.3786 8.88846 51.3786 11.5546Z" fill="#7073BE"/>
<path d="M50.5575 18.3573C50.5583 18.3657 50.5581 18.3741 50.5568 18.3825C50.5143 18.4038 50.4712 18.425 50.428 18.4462C50.4087 18.4402 50.3917 18.4285 50.3793 18.4126C50.3668 18.3967 50.3595 18.3774 50.3583 18.3573C50.35 18.2569 50.3306 18.1578 50.3005 18.0618C50.0415 17.2277 49.1331 16.8014 48.3402 16.6506C47.37 16.4654 46.3494 16.5424 45.4263 16.142C45.0479 15.988 44.7126 15.7441 44.4495 15.4314C44.1742 15.0871 44.0358 14.6531 44.061 14.2129C44.1155 13.1776 44.8453 12.3675 45.095 11.3907C45.1979 10.9882 45.1979 10.5686 45.0146 10.1887C44.8592 9.86599 44.5803 9.58244 44.2085 9.5426C44.1934 9.5415 44.1789 9.5369 44.166 9.52917C44.1531 9.52145 44.1421 9.51081 44.1341 9.4981C44.1832 9.44896 44.2337 9.40115 44.2855 9.354C44.3528 9.36406 44.4189 9.3812 44.4827 9.40514C44.8466 9.54459 45.0996 9.86001 45.2417 10.214C45.4057 10.6237 45.3905 11.0646 45.2763 11.485C45.01 12.4651 44.2277 13.3158 44.2583 14.3723C44.2848 15.288 45.0843 15.8591 45.8905 16.1008C46.8879 16.3996 47.9683 16.2582 48.9551 16.6042C49.7314 16.8764 50.4851 17.4854 50.5575 18.3573Z" fill="#3F3D56"/>
<path d="M51.4101 17.8386C51.351 17.8851 51.2913 17.9296 51.2308 17.9728C51.2228 17.9641 51.2166 17.9538 51.2128 17.9426C51.2091 17.9314 51.2077 17.9195 51.2089 17.9077C51.2421 17.0487 50.9459 16.2094 50.3809 15.5616C50.1362 15.2771 49.8452 15.036 49.5202 14.8484C49.1802 14.6538 48.807 14.5496 48.4372 14.4287C48.0733 14.3098 47.7034 14.1658 47.4251 13.8942C47.1416 13.6172 47.0021 13.242 46.9596 12.8542C46.8594 11.9352 47.3196 11.0905 47.3567 10.1854C47.3734 9.78166 47.2844 9.3892 47.034 9.06448C46.8175 8.78425 46.4981 8.593 46.1362 8.6355C46.0167 8.65011 46.0107 8.4748 46.1143 8.44093C46.1214 8.43861 46.1288 8.43706 46.1362 8.43628C46.5572 8.38714 46.9391 8.61823 47.1894 8.94229C47.4809 9.31881 47.5819 9.77767 47.5526 10.2472C47.4955 11.1556 47.0174 12.0288 47.1728 12.9519C47.1995 13.146 47.2666 13.3324 47.3699 13.499C47.4732 13.6655 47.6104 13.8085 47.7724 13.9187C48.1058 14.1385 48.4996 14.2375 48.8754 14.3597C49.2505 14.4741 49.6049 14.6476 49.9253 14.8736C50.2389 15.1032 50.5137 15.3814 50.7394 15.6977C51.1898 16.3195 51.4252 17.0711 51.4101 17.8386Z" fill="#3F3D56"/>
<path d="M52.5938 16.5893C52.5174 16.7009 52.4366 16.8094 52.3514 16.9147C52.4402 16.3988 52.4205 15.8701 52.2936 15.3622C52.1386 14.7228 51.8248 14.1328 51.3812 13.6469C51.159 13.4051 50.9032 13.1964 50.6215 13.0274C50.2995 12.8348 49.9475 12.6721 49.7198 12.3613C49.2257 11.6866 49.5591 10.8061 49.7184 10.0809C49.8021 9.70243 49.8473 9.29935 49.6925 8.93279C49.5723 8.64858 49.3346 8.38229 49.0119 8.34975C48.885 8.33714 48.8844 8.13725 49.0119 8.15054C49.0358 8.15319 49.0597 8.15651 49.0836 8.1605C49.4362 8.22425 49.7078 8.48721 49.8552 8.81127C50.0465 9.23427 50.0086 9.69114 49.911 10.1341C49.7503 10.8625 49.3778 11.8274 50.0438 12.4224C50.3247 12.6734 50.6893 12.8122 50.9921 13.0347C51.2634 13.233 51.5065 13.4673 51.7146 13.7313C52.3521 14.5419 52.6655 15.5606 52.5938 16.5893Z" fill="#3F3D56"/>
<path d="M16.9441 44.1209H18.1225L18.6833 39.5757H16.9441V44.1209Z" fill="#FFB6B6"/>
<path d="M16.3223 46.1624H17.1673L17.3182 45.3645L17.7045 46.1624H19.9459C20.0533 46.1624 20.1579 46.128 20.2445 46.0644C20.331 46.0007 20.3949 45.911 20.4269 45.8085C20.4589 45.7059 20.4572 45.5958 20.4222 45.4942C20.3872 45.3927 20.3206 45.305 20.2322 45.2439L18.4423 44.0078V43.2012L16.5596 43.3135L16.3223 46.1624Z" fill="#2F2E41"/>
<path d="M7.80835 41.7825L8.82196 42.3836L11.6227 38.7602L10.1269 37.873L7.80835 41.7825Z" fill="#FFB6B6"/>
<path d="M6.23169 43.2218L6.95855 43.6529L7.49527 43.0436L7.42058 43.9269L9.34841 45.0702C9.44082 45.125 9.54832 45.1488 9.65523 45.1382C9.76215 45.1276 9.86286 45.0831 9.94268 45.0112C10.0225 44.9393 10.0772 44.8437 10.0989 44.7385C10.1206 44.6333 10.1081 44.5239 10.0632 44.4263L9.1542 42.45L9.56564 41.7562L7.88903 40.8926L6.23169 43.2218Z" fill="#2F2E41"/>
<path d="M17.0718 15.0586L18.0429 18.7092L12.6028 18.7808L13.3186 15.2733L17.0718 15.0586Z" fill="#FFB6B6"/>
<path d="M18.0641 18.6629L19.2195 22.4312L19.7311 32.5087L18.4052 42.1307H16.9377L16.3365 32.6656L14.8578 26.1892L15.7236 32.9628L11.1888 39.5929H8.96045L13.0572 32.2868L10.6725 24.7025C10.6725 24.7025 10.9116 20.9519 12.424 18.9596L12.7922 17.896L18.0641 18.6629Z" fill="#2F2E41"/>
<path d="M18.1388 11.6968C18.1357 11.664 18.131 11.6296 18.1248 11.5968C18.0072 10.8092 17.5824 10.1001 16.9432 9.62496C16.3041 9.14979 15.5028 8.94717 14.7146 9.06145C13.9744 9.17236 13.3001 9.54951 12.8181 10.1222V10.1237C12.7931 10.1534 12.7697 10.1846 12.7463 10.2159C12.7041 10.269 12.665 10.3252 12.6275 10.3815C12.2889 10.8931 12.1145 11.4958 12.1276 12.1092C12.1276 12.1092 12.412 13.623 12.4713 14.0244C12.5119 14.2838 12.5432 14.5384 12.5666 14.7868C12.5807 14.9117 12.5916 15.0352 12.601 15.1554V15.157C12.6478 15.7522 12.6635 16.2865 12.6775 16.7004C12.6838 16.9254 12.84 17.5643 12.8494 17.5721C12.859 17.5794 12.8694 17.5864 12.8805 17.5932C12.9597 17.6393 13.0491 17.6652 13.1407 17.6686C13.2323 17.672 13.3233 17.6527 13.4057 17.6125L14.1085 17.2847C14.5751 17.0676 15.0937 16.9874 15.6041 17.0536C16.4393 17.1619 17.6558 17.3106 17.711 17.2656C17.7766 17.2094 18.0935 14.3728 18.1763 13.4808C18.1873 13.3527 18.1967 13.2199 18.2013 13.0778V13.0762C18.215 12.6155 18.1942 12.1544 18.1388 11.6968Z" fill="#3F3D56"/>
<path d="M22.1798 12.2065C22.1482 12.3004 22.0965 12.3861 22.0282 12.4578C21.9599 12.5295 21.8768 12.5853 21.7846 12.6213C21.6924 12.6574 21.5935 12.6728 21.4947 12.6664C21.3959 12.6601 21.2997 12.6322 21.2129 12.5847L19.4295 14.1998L19.239 12.9641L20.9618 11.6198C21.0513 11.4792 21.1892 11.3764 21.3495 11.3307C21.5098 11.2851 21.6813 11.2998 21.8314 11.3721C21.9815 11.4445 22.0999 11.5694 22.1641 11.7231C22.2283 11.8769 22.2339 12.0489 22.1798 12.2065H22.1798Z" fill="#FFB8B8"/>
<path d="M15.5426 9.07471C15.5426 9.07471 17.2977 9.40247 16.2989 12.8095L16.6845 14.4982L18.4941 13.4573L18.6037 13.0173L20.1881 11.9051L20.9372 13.2556L20.0264 14.126L19.7633 14.6694L19.296 14.8239L17.8485 16.207L17.2416 16.5779C17.2416 16.5779 16.4699 17.0561 15.7834 16.797C15.6001 16.7284 15.4288 16.6315 15.2756 16.5097C14.976 16.2708 14.7101 15.9056 14.5436 15.3535C13.9259 13.3052 13.6941 11.8729 13.6941 11.8729L15.5426 9.07471Z" fill="#3F3D56"/>
<path d="M22.0643 13.8667L21.0017 9.86946C20.9959 9.84767 20.9987 9.82449 21.0095 9.80469C21.0203 9.78489 21.0383 9.76999 21.0598 9.76306C21.0812 9.75612 21.1045 9.75768 21.1249 9.76741C21.1452 9.77715 21.161 9.79431 21.1691 9.81537L22.5992 13.5512L22.0643 13.8667Z" fill="#3F3D56"/>
<path d="M22.9487 14.7723C22.7938 14.74 22.6433 14.6895 22.5002 14.6219C22.4276 14.5872 22.3573 14.5481 22.2887 14.5077C22.2642 14.4941 22.2399 14.4795 22.2159 14.4655C22.1588 14.4321 22.1016 14.3987 22.044 14.3648C21.9952 14.3366 21.946 14.3079 21.8977 14.2793C21.8263 14.2376 21.7496 14.1893 21.7289 14.109C21.7225 14.071 21.7247 14.032 21.7353 13.995C21.7459 13.9579 21.7645 13.9237 21.7899 13.8947C21.8422 13.8336 21.9026 13.78 21.9695 13.7354C22.1195 13.6253 22.2696 13.5153 22.4198 13.4055L22.46 13.3174C22.5821 13.3689 22.6941 13.4414 22.7912 13.5315C22.8296 13.5705 22.8596 13.6168 22.8796 13.6677C22.8996 13.7186 22.9091 13.7731 22.9075 13.8277C22.9061 13.8519 22.9021 13.8758 22.8957 13.8992C22.8666 14.0013 22.7907 14.0881 22.7456 14.1861C22.7364 14.2066 22.7285 14.2276 22.7219 14.2491C22.7017 14.3121 22.6957 14.3789 22.7043 14.4446C22.7129 14.5102 22.7359 14.5732 22.7716 14.6289C22.8161 14.6923 22.8775 14.7419 22.9487 14.7723Z" fill="#CCCCCC"/>
<path d="M23.1707 14.8094C23.0947 14.815 23.0185 14.8023 22.9485 14.7725C23.0219 14.7885 23.096 14.8008 23.1707 14.8094Z" fill="#E6E6E6"/>
<path d="M22.9487 14.7727C22.7938 14.7404 22.6432 14.6899 22.5002 14.6223C22.4276 14.5876 22.3573 14.5485 22.2886 14.5081C22.2642 14.4945 22.2398 14.4799 22.2159 14.4659C22.1587 14.4325 22.1015 14.3991 22.0439 14.3652C22.0641 14.3381 22.0856 14.3122 22.1085 14.2874C22.3213 14.0558 22.612 13.9252 22.9075 13.8281C22.9061 13.8523 22.9021 13.8762 22.8956 13.8996C22.8666 14.0017 22.7906 14.0885 22.7456 14.1864C22.7364 14.207 22.7285 14.228 22.7219 14.2495C22.7017 14.3125 22.6957 14.3793 22.7043 14.4449C22.7129 14.5106 22.7359 14.5736 22.7716 14.6293C22.8161 14.6927 22.8774 14.7423 22.9487 14.7727Z" fill="#6C63FF"/>
<path d="M58.3481 46.1772C58.3481 46.1876 58.3461 46.1978 58.3421 46.2074C58.3381 46.217 58.3323 46.2258 58.325 46.2331C58.3176 46.2405 58.3089 46.2463 58.2993 46.2502C58.2897 46.2542 58.2794 46.2562 58.269 46.2562H1.00822C0.987264 46.2562 0.967165 46.2479 0.952345 46.233C0.937526 46.2182 0.929199 46.1981 0.929199 46.1772C0.929199 46.1562 0.937526 46.1361 0.952345 46.1213C0.967165 46.1065 0.987264 46.0981 1.00822 46.0981H58.269C58.2794 46.0981 58.2897 46.1001 58.2993 46.1041C58.3089 46.1081 58.3176 46.1139 58.325 46.1212C58.3323 46.1286 58.3381 46.1373 58.3421 46.1469C58.3461 46.1565 58.3481 46.1668 58.3481 46.1772Z" fill="#CCCCCC"/>
<path d="M16.771 7.37043C17.3804 6.25575 16.9707 4.85815 15.856 4.24881C14.7413 3.63947 13.3438 4.04914 12.7344 5.16382C12.1251 6.2785 12.5347 7.6761 13.6494 8.28544C14.7641 8.89478 16.1617 8.48512 16.771 7.37043Z" fill="#FFB6B6"/>
<path d="M13.3496 4.39029V4.3919C13.3498 4.49198 13.3371 4.59166 13.3116 4.68844C13.3076 4.70541 13.3027 4.72319 13.2971 4.74016V4.74097C13.2429 4.91381 13.1494 5.07175 13.0239 5.2024C12.8984 5.33306 12.7444 5.43288 12.5739 5.49404C12.5489 5.50373 12.523 5.51181 12.4971 5.51909C12.4427 5.53488 12.387 5.54623 12.3307 5.55302C12.2801 5.56019 12.2291 5.5637 12.178 5.56352C12.138 5.56369 12.0981 5.56181 12.0584 5.55787C11.9654 5.54846 11.8739 5.52756 11.7861 5.49565C11.7723 5.49165 11.7588 5.4868 11.7457 5.48111C11.7391 5.47876 11.7326 5.47606 11.7263 5.47303C11.5797 5.41167 11.4471 5.32116 11.3366 5.207C11.226 5.09284 11.1399 4.9574 11.0833 4.80891C11.0267 4.66042 11.0008 4.50198 11.0073 4.34321C11.0138 4.18443 11.0525 4.02863 11.1211 3.88527L11.1219 3.88446C11.1793 3.76419 11.2573 3.65483 11.3522 3.56126C11.5639 3.35037 11.6572 2.82184 11.9788 2.82184C11.9941 2.82158 12.0095 2.82211 12.0248 2.82346C12.2406 2.83073 12.6394 3.29623 12.809 3.40612C12.9351 3.48573 13.0443 3.58922 13.1306 3.71074C13.2208 3.83576 13.285 3.9775 13.3197 4.12768C13.3395 4.21381 13.3496 4.3019 13.3496 4.39029Z" fill="#2F2E41"/>
<path d="M11.9185 3.98241C11.7365 4.19424 11.4517 4.27659 11.1947 4.38682C10.7411 4.58579 10.3429 4.8924 10.0347 5.28005C9.7264 5.6677 9.51734 6.12469 9.42562 6.6114C9.35457 7.00785 9.36386 7.41823 9.25164 7.80471C9.14008 8.19119 8.86383 8.57037 8.46739 8.63744C8.19911 8.68326 7.93017 8.57966 7.67783 8.4774C7.53904 8.42162 7.40025 8.36562 7.26146 8.30939C7.40623 7.94615 7.55077 7.58292 7.69509 7.21968C7.46314 7.56248 7.19339 7.87812 6.89092 8.16065C6.39354 7.9601 5.89572 7.75955 5.39746 7.55901C6.62331 7.56365 6.41413 6.37367 6.68838 5.1797C6.83912 4.52361 8.12274 4.07936 8.37442 3.45515C8.51042 3.11658 8.74056 2.82406 9.03761 2.6122C9.33467 2.40035 9.6862 2.27803 10.0506 2.25973C10.415 2.24143 10.777 2.3279 11.0938 2.50892C11.4106 2.68994 11.6689 2.95793 11.8381 3.28117C12.0898 3.38144 12.0971 3.77324 11.9185 3.98241Z" fill="#2F2E41"/>
<path d="M16.8343 3.96611C16.6099 3.67056 16.0445 3.65907 15.931 4.01241L15.6926 3.68907C15.3833 3.01318 14.5671 3.1507 13.8292 3.23986C13.0912 3.32901 12.441 3.84904 12.1108 4.51502C11.7807 5.181 11.7508 5.97193 11.9409 6.69052C12.0688 7.174 12.3037 7.64575 12.6934 7.95917C13.0832 8.27259 14.9153 9.01383 15.0678 8.37557C14.8771 9.20826 15.2607 9.07791 15.8285 9.71616C16.1225 8.83277 16.2604 7.1683 16.5545 6.2849C16.5987 6.15193 16.643 6.01896 16.6873 5.88598C16.7806 5.60568 16.874 5.32491 16.9414 5.03729C17.0261 4.67598 17.0587 4.26166 16.8343 3.96611Z" fill="#2F2E41"/>
<path d="M15.3227 6.50193L15.2244 5.876C15.2912 5.09751 15.1821 3.85922 15.693 3.68896L16.0054 4.0014C15.8078 4.0673 15.4319 5.23145 15.3227 6.50193Z" fill="#FF6584"/>
<path d="M16.0513 3.18749C16.0513 3.66426 15.8877 4.05076 15.686 4.05076C15.4843 4.05076 15.3208 3.66426 15.3208 3.18749C15.3208 2.71072 15.686 2.32422 15.686 2.32422C15.686 2.32422 16.0513 2.71071 16.0513 3.18749Z" fill="#FF6584"/>
<path d="M16.3524 3.40065C16.1609 3.83724 15.8558 4.12546 15.6711 4.04441C15.4864 3.96336 15.492 3.54372 15.6835 3.10714C15.8751 2.67055 16.3649 2.46338 16.3649 2.46338C16.3649 2.46338 16.544 2.96406 16.3524 3.40065Z" fill="#FF6584"/>
</g>
<defs>
<clipPath id="clip0_1275_9745">
<rect width="59" height="46.2562" fill="white"/>
</clipPath>
</defs>
</svg>
