<svg width="74" height="40" viewBox="0 0 74 40" fill="none" xmlns="http://www.w3.org/2000/svg">
<g clip-path="url(#clip0_1629_115)">
<path d="M13.7885 20.5599C13.7885 27.925 7.65149 33.8962 0.0817871 33.8962V7.22363C7.65149 7.22363 13.7885 13.1948 13.7885 20.5599Z" fill="#3F3D56"/>
<path d="M60.2117 20.5599C60.2117 27.925 66.3487 33.8962 73.9184 33.8962V7.22363C66.3487 7.22363 60.2117 13.1948 60.2117 20.5599Z" fill="#3F3D56"/>
<path d="M13.3741 5.621C13.1804 5.621 12.9911 5.56513 12.8301 5.46046C12.6691 5.35579 12.5436 5.20702 12.4695 5.03295C12.3954 4.85889 12.3761 4.66736 12.4138 4.48257C12.4516 4.29779 12.5449 4.12805 12.6818 3.99483C12.8187 3.86161 12.9932 3.77088 13.1831 3.73412C13.373 3.69737 13.5698 3.71623 13.7487 3.78833C13.9276 3.86043 14.0805 3.98253 14.1881 4.13918C14.2957 4.29583 14.3531 4.48001 14.3531 4.66841C14.3528 4.92097 14.2496 5.16309 14.066 5.34168C13.8825 5.52026 13.6336 5.62071 13.3741 5.621ZM13.3741 3.87459C13.2127 3.87459 13.055 3.92114 12.9208 4.00837C12.7866 4.0956 12.6821 4.21957 12.6203 4.36463C12.5586 4.50968 12.5424 4.66929 12.5739 4.82328C12.6054 4.97727 12.6831 5.11871 12.7972 5.22973C12.9113 5.34075 13.0566 5.41635 13.2149 5.44698C13.3732 5.47761 13.5372 5.46189 13.6863 5.40181C13.8354 5.34173 13.9628 5.23998 14.0524 5.10944C14.1421 4.97889 14.19 4.82542 14.19 4.66841C14.1897 4.45795 14.1037 4.25617 13.9507 4.10735C13.7978 3.95853 13.5904 3.87482 13.3741 3.87459Z" fill="#3F3D56"/>
<path d="M56.9278 30.3322H55.3171V28.7651H56.9278V30.3322ZM55.441 30.2117H56.8039V28.8857H55.441L55.441 30.2117Z" fill="#3F3D56"/>
<path d="M18.5524 28.9097L17.4539 27.7637L18.6317 26.6948L19.7303 27.8408L18.5524 28.9097ZM17.629 27.7696L18.5585 28.7393L19.5552 27.8349L18.6256 26.8652L17.629 27.7696Z" fill="#3F3D56"/>
<path d="M55.3499 39.5722C53.5857 39.3034 51.8895 39.0749 50.2611 38.8864L50.8882 37.6663C50.6705 37.5957 49.7274 38.3016 49.7274 38.3016L50.5254 34.7722C49.4372 34.9133 48.9294 38.5133 48.9294 38.5133L47.696 37.3133L48.3031 38.672C43.3204 38.1625 39.0208 38.0036 35.4064 38.04L35.9431 36.9957C35.7255 36.9251 34.7823 37.631 34.7823 37.631L35.5804 34.1016C34.4921 34.2428 33.9843 37.8427 33.9843 37.8427L32.751 36.6428L33.394 38.0817C30.9182 38.1517 28.4478 38.3453 25.9924 38.6617C26.5279 37.0385 28.398 35.478 28.398 35.478C26.9601 35.9133 26.212 36.6225 25.8248 37.2798C25.7465 33.9449 26.2737 30.6228 27.3824 27.4663C27.3824 27.4663 24.4804 33.8192 24.9157 38.0545L24.9709 38.8068C22.4463 39.1901 21.1794 39.5722 21.1794 39.5722H55.3499Z" fill="#3F3D56"/>
<path opacity="0.3" d="M37.4588 31.04C43.7221 31.04 48.7995 26.0999 48.7995 20.0059C48.7995 13.9119 43.7221 8.97168 37.4588 8.97168C31.1956 8.97168 26.1182 13.9119 26.1182 20.0059C26.1182 26.0999 31.1956 31.04 37.4588 31.04Z" fill="#EB5757"/>
<path d="M32.8017 5.96777L25.2507 14.8819L36.4261 27.7143L43.8763 19.1921L32.8017 5.96777Z" fill="#6C63FF"/>
<path opacity="0.1" d="M32.8017 5.96777L25.2507 14.8819L36.4261 27.7143L43.8763 19.1921L32.8017 5.96777Z" fill="black"/>
<path d="M25.5527 14.9803C25.7198 14.6877 25.9269 14.4187 26.1684 14.1804L33.1036 7.33955C33.1036 7.33955 35.5199 6.94772 36.0233 8.12321L27.1636 15.1762L25.5527 14.9803Z" fill="#F2F2F2"/>
<path d="M25.2004 14.8331L35.4697 30.1145C35.4697 30.1145 36.4765 30.8002 37.4833 30.4083L48.0042 23.5023L36.8288 7.04541L26.761 14.6861L25.2004 14.8331Z" fill="#EB5757"/>
<path d="M35.5731 9.43018L29.1292 13.9355L29.2244 14.0645L35.6683 9.5591L35.5731 9.43018Z" fill="#3F3D56"/>
<path d="M29.0438 15.6219L28.9077 15.7095L37.3647 28.1501L37.5008 28.0626L29.0438 15.6219Z" fill="#3F3D56"/>
<path d="M45.2364 23.5357L38.3918 28.4355L38.4886 28.5635L45.3332 23.6636L45.2364 23.5357Z" fill="#3F3D56"/>
<path d="M36.795 9.64518L36.6611 9.73584L45.4202 21.9805L45.5541 21.8899L36.795 9.64518Z" fill="#3F3D56"/>
<path d="M34.0895 7.24245L26.1228 14.3564L26.1908 14.4286L34.1575 7.31458L34.0895 7.24245Z" fill="#3F3D56"/>
<path d="M34.7532 7.30324L26.427 14.4551L26.4937 14.5285L34.8199 7.37671L34.7532 7.30324Z" fill="#3F3D56"/>
<path d="M35.274 7.44564L26.6306 14.4556L26.6951 14.5309L35.3385 7.52092L35.274 7.44564Z" fill="#3F3D56"/>
<path d="M71.3078 20.5601C70.8444 20.3929 70.2694 20.1075 69.913 19.8052L70.1642 20.4807H65.6782V20.6395H70.1642L69.913 21.3151C70.2694 21.0128 70.8444 20.7274 71.3078 20.5601Z" fill="white"/>
<path d="M8.40347 20.4809H3.91746L4.16864 19.8052C3.81226 20.1075 3.23731 20.3929 2.77393 20.5602C3.23731 20.7274 3.81226 21.0128 4.16864 21.3152L3.91746 20.6396H8.40347V20.4809Z" fill="white"/>
</g>
<defs>
<clipPath id="clip0_1629_115">
<rect width="74" height="39.6119" fill="white"/>
</clipPath>
</defs>
</svg>
