<svg width="54" height="47" viewBox="0 0 54 47" fill="none" xmlns="http://www.w3.org/2000/svg">
<g clip-path="url(#clip0_1629_53)">
<path d="M46.6127 45.2992V40.6416C46.6127 40.6416 48.4278 43.9436 46.6127 45.2992Z" fill="#F1F1F1"/>
<path d="M46.7238 45.2982L43.2927 42.1484C43.2927 42.1484 46.9527 43.0444 46.7238 45.2982Z" fill="#F1F1F1"/>
<path d="M6.85408 45.2992V40.6416C6.85408 40.6416 5.03897 43.9436 6.85408 45.2992Z" fill="#F1F1F1"/>
<path d="M6.74102 45.2982L10.172 42.1484C10.172 42.1484 6.5121 43.0444 6.74102 45.2982Z" fill="#F1F1F1"/>
<path d="M38.0354 10.7553H37.7867V3.94287C37.7867 3.42508 37.6847 2.91237 37.4866 2.434C37.2885 1.95563 36.998 1.52097 36.6319 1.15484C36.2658 0.788711 35.8311 0.498282 35.3527 0.300134C34.8744 0.101986 34.3617 4.22763e-07 33.8439 0H19.4108C18.893 -1.09915e-06 18.3803 0.101983 17.9019 0.300129C17.4235 0.498276 16.9889 0.788704 16.6227 1.15483C16.2566 1.52096 15.9662 1.95562 15.768 2.43399C15.5699 2.91236 15.4679 3.42507 15.4679 3.94285V41.3165C15.4679 42.3622 15.8833 43.3651 16.6227 44.1045C17.3622 44.844 18.365 45.2594 19.4108 45.2594H33.8439C34.8896 45.2594 35.8924 44.844 36.6319 44.1045C37.3713 43.3651 37.7867 42.3622 37.7867 41.3165V15.6045H38.0354V10.7553Z" fill="#3F3D56"/>
<path d="M34.0031 1.02588H32.1191C32.2058 1.23829 32.2388 1.46876 32.2154 1.69696C32.192 1.92517 32.1129 2.14411 31.9849 2.33452C31.8569 2.52492 31.6841 2.68093 31.4817 2.7888C31.2792 2.89668 31.0533 2.95312 30.8239 2.95313H22.5554C22.326 2.95312 22.1001 2.89668 21.8976 2.78881C21.6952 2.68093 21.5224 2.52492 21.3944 2.33452C21.2665 2.14411 21.1873 1.92517 21.1639 1.69696C21.1405 1.46875 21.1735 1.23829 21.2602 1.02588H19.5005C18.7196 1.02588 17.9707 1.3361 17.4185 1.8883C16.8663 2.44049 16.556 3.18943 16.556 3.97036V41.2892C16.556 41.6758 16.6322 42.0587 16.7802 42.416C16.9281 42.7732 17.145 43.0978 17.4184 43.3712C17.6919 43.6447 18.0165 43.8615 18.3737 44.0095C18.7309 44.1575 19.1138 44.2337 19.5005 44.2337H34.0031C34.3898 44.2337 34.7727 44.1575 35.1299 44.0095C35.4872 43.8615 35.8118 43.6447 36.0852 43.3712C36.3586 43.0978 36.5755 42.7732 36.7235 42.416C36.8715 42.0587 36.9476 41.6758 36.9476 41.2892V3.97036C36.9476 3.58369 36.8715 3.2008 36.7235 2.84356C36.5755 2.48632 36.3586 2.16172 36.0852 1.8883C35.8118 1.61488 35.4872 1.39799 35.1299 1.25001C34.7727 1.10204 34.3898 1.02588 34.0031 1.02588Z" fill="white"/>
<path d="M33.6394 43.5927H19.8634C18.2805 43.5927 16.9927 42.4433 16.9927 41.0304V39.1755C16.9927 38.0494 18.0183 37.1333 19.2788 37.1333H34.2239C35.4845 37.1333 36.5101 38.0494 36.5101 39.1755V41.0304C36.5101 42.4433 35.2223 43.5927 33.6394 43.5927Z" fill="#E5E5E5"/>
<path d="M21.3107 12.4164H18.2378C18.1827 12.4163 18.13 12.3944 18.091 12.3555C18.0521 12.3166 18.0302 12.2638 18.0302 12.2088V9.13585C18.0302 9.0808 18.0521 9.02803 18.091 8.98911C18.13 8.95018 18.1827 8.92829 18.2378 8.92822H21.3107C21.3657 8.92829 21.4185 8.95018 21.4574 8.98911C21.4964 9.02803 21.5183 9.0808 21.5183 9.13585V12.2088C21.5183 12.2638 21.4964 12.3166 21.4574 12.3555C21.4185 12.3944 21.3657 12.4163 21.3107 12.4164Z" fill="#6C63FF"/>
<path d="M25.9619 12.4164H22.889C22.834 12.4163 22.7812 12.3944 22.7423 12.3555C22.7034 12.3166 22.6815 12.2638 22.6814 12.2088V9.13585C22.6815 9.0808 22.7034 9.02803 22.7423 8.98911C22.7812 8.95018 22.834 8.92829 22.889 8.92822H25.9619C26.017 8.92829 26.0698 8.95018 26.1087 8.98911C26.1476 9.02803 26.1695 9.0808 26.1696 9.13585V12.2088C26.1695 12.2638 26.1476 12.3166 26.1087 12.3555C26.0698 12.3944 26.017 12.4163 25.9619 12.4164Z" fill="#E5E5E5"/>
<path d="M30.6132 12.4164H27.5403C27.4852 12.4163 27.4324 12.3944 27.3935 12.3555C27.3546 12.3166 27.3327 12.2638 27.3326 12.2088V9.13585C27.3327 9.0808 27.3546 9.02803 27.3935 8.98911C27.4324 8.95018 27.4852 8.92829 27.5403 8.92822H30.6132C30.6682 8.92829 30.721 8.95018 30.7599 8.98911C30.7988 9.02803 30.8207 9.0808 30.8208 9.13585V12.2088C30.8207 12.2638 30.7988 12.3166 30.7599 12.3555C30.721 12.3944 30.6682 12.4163 30.6132 12.4164Z" fill="#E5E5E5"/>
<path d="M35.2644 12.4164H32.1915C32.1365 12.4163 32.0837 12.3944 32.0448 12.3555C32.0058 12.3166 31.984 12.2638 31.9839 12.2088V9.13585C31.984 9.0808 32.0058 9.02803 32.0448 8.98911C32.0837 8.95018 32.1365 8.92829 32.1915 8.92822H35.2644C35.3195 8.92829 35.3722 8.95018 35.4112 8.98911C35.4501 9.02803 35.472 9.0808 35.4721 9.13585V12.2088C35.472 12.2638 35.4501 12.3166 35.4112 12.3555C35.3722 12.3944 35.3195 12.4163 35.2644 12.4164Z" fill="#E5E5E5"/>
<path d="M21.3001 18.1054H18.2272C18.1721 18.1053 18.1193 18.0834 18.0804 18.0445C18.0415 18.0055 18.0196 17.9528 18.0195 17.8977V14.8248C18.0196 14.7698 18.0415 14.717 18.0804 14.6781C18.1193 14.6391 18.1721 14.6173 18.2272 14.6172H21.3001C21.3551 14.6173 21.4079 14.6391 21.4468 14.6781C21.4857 14.717 21.5076 14.7698 21.5077 14.8248V17.8977C21.5076 17.9528 21.4857 18.0055 21.4468 18.0445C21.4079 18.0834 21.3551 18.1053 21.3001 18.1054Z" fill="#E5E5E5"/>
<path d="M25.9513 18.1054H22.8784C22.8234 18.1053 22.7706 18.0834 22.7317 18.0445C22.6927 18.0055 22.6708 17.9528 22.6708 17.8977V14.8248C22.6708 14.7698 22.6927 14.717 22.7317 14.6781C22.7706 14.6391 22.8234 14.6173 22.8784 14.6172H25.9513C26.0064 14.6173 26.0591 14.6391 26.0981 14.6781C26.137 14.717 26.1589 14.7698 26.1589 14.8248V17.8977C26.1589 17.9528 26.137 18.0055 26.0981 18.0445C26.0591 18.0834 26.0064 18.1053 25.9513 18.1054Z" fill="#E5E5E5"/>
<path d="M30.6026 18.1054H27.5297C27.4746 18.1053 27.4218 18.0834 27.3829 18.0445C27.344 18.0055 27.3221 17.9528 27.322 17.8977V14.8248C27.3221 14.7698 27.344 14.717 27.3829 14.6781C27.4218 14.6391 27.4746 14.6173 27.5297 14.6172H30.6026C30.6576 14.6173 30.7104 14.6391 30.7493 14.6781C30.7882 14.717 30.8101 14.7698 30.8102 14.8248V17.8977C30.8101 17.9528 30.7882 18.0055 30.7493 18.0445C30.7104 18.0834 30.6576 18.1053 30.6026 18.1054Z" fill="#6C63FF"/>
<path d="M35.2526 18.1054H32.1797C32.1246 18.1053 32.0719 18.0834 32.0329 18.0445C31.994 18.0055 31.9721 17.9528 31.972 17.8977V14.8248C31.9721 14.7698 31.994 14.717 32.0329 14.6781C32.0719 14.6391 32.1246 14.6173 32.1797 14.6172H35.2526C35.3076 14.6173 35.3604 14.6391 35.3993 14.6781C35.4383 14.717 35.4602 14.7698 35.4602 14.8248V17.8977C35.4602 17.9528 35.4383 18.0055 35.3993 18.0445C35.3604 18.0834 35.3076 18.1053 35.2526 18.1054Z" fill="#6C63FF"/>
<path d="M21.2895 23.7943H18.2165C18.1615 23.7943 18.1087 23.7724 18.0698 23.7334C18.0309 23.6945 18.009 23.6417 18.0089 23.5867V20.5138C18.009 20.4587 18.0309 20.406 18.0698 20.367C18.1087 20.3281 18.1615 20.3062 18.2165 20.3062H21.2895C21.3445 20.3062 21.3973 20.3281 21.4362 20.367C21.4751 20.406 21.497 20.4587 21.4971 20.5138V23.5867C21.497 23.6417 21.4751 23.6945 21.4362 23.7334C21.3973 23.7724 21.3445 23.7943 21.2895 23.7943Z" fill="#E5E5E5"/>
<path d="M25.9407 23.7943H22.8678C22.8127 23.7943 22.76 23.7724 22.721 23.7334C22.6821 23.6945 22.6602 23.6417 22.6602 23.5867V20.5138C22.6602 20.4587 22.6821 20.406 22.721 20.367C22.76 20.3281 22.8127 20.3062 22.8678 20.3062H25.9407C25.9957 20.3062 26.0485 20.3281 26.0874 20.367C26.1264 20.406 26.1483 20.4587 26.1483 20.5138V23.5867C26.1483 23.6417 26.1264 23.6945 26.0874 23.7334C26.0485 23.7724 25.9957 23.7943 25.9407 23.7943Z" fill="#E5E5E5"/>
<path d="M30.5919 23.7943H27.519C27.464 23.7943 27.4112 23.7724 27.3723 23.7334C27.3334 23.6945 27.3115 23.6417 27.3114 23.5867V20.5138C27.3115 20.4587 27.3334 20.406 27.3723 20.367C27.4112 20.3281 27.464 20.3062 27.519 20.3062H30.5919C30.647 20.3062 30.6998 20.3281 30.7387 20.367C30.7776 20.406 30.7995 20.4587 30.7996 20.5138V23.5867C30.7995 23.6417 30.7776 23.6945 30.7387 23.7334C30.6998 23.7724 30.647 23.7943 30.5919 23.7943Z" fill="#E5E5E5"/>
<path d="M35.242 23.7943H32.1691C32.114 23.7943 32.0612 23.7724 32.0223 23.7334C31.9834 23.6945 31.9615 23.6417 31.9614 23.5867V20.5138C31.9615 20.4587 31.9834 20.406 32.0223 20.367C32.0612 20.3281 32.114 20.3062 32.1691 20.3062H35.242C35.297 20.3062 35.3498 20.3281 35.3887 20.367C35.4276 20.406 35.4495 20.4587 35.4496 20.5138V23.5867C35.4495 23.6417 35.4276 23.6945 35.3887 23.7334C35.3498 23.7724 35.297 23.7943 35.242 23.7943Z" fill="#E5E5E5"/>
<path d="M21.2776 29.4833H18.2047C18.1497 29.4832 18.0969 29.4613 18.058 29.4224C18.019 29.3835 17.9971 29.3307 17.9971 29.2757V26.2027C17.9971 26.1477 18.019 26.0949 18.058 26.056C18.0969 26.0171 18.1497 25.9952 18.2047 25.9951H21.2776C21.3327 25.9952 21.3854 26.0171 21.4244 26.056C21.4633 26.0949 21.4852 26.1477 21.4852 26.2027V29.2757C21.4852 29.3307 21.4633 29.3835 21.4244 29.4224C21.3854 29.4613 21.3327 29.4832 21.2776 29.4833Z" fill="#E5E5E5"/>
<path d="M25.9301 29.4833H22.8572C22.8021 29.4832 22.7493 29.4613 22.7104 29.4224C22.6715 29.3835 22.6496 29.3307 22.6495 29.2757V26.2027C22.6496 26.1477 22.6715 26.0949 22.7104 26.056C22.7493 26.0171 22.8021 25.9952 22.8572 25.9951H25.9301C25.9851 25.9952 26.0379 26.0171 26.0768 26.056C26.1157 26.0949 26.1376 26.1477 26.1377 26.2027V29.2757C26.1376 29.3307 26.1157 29.3835 26.0768 29.4224C26.0379 29.4613 25.9851 29.4832 25.9301 29.4833Z" fill="#E5E5E5"/>
<path d="M30.5801 29.4833H27.5072C27.4521 29.4832 27.3994 29.4613 27.3604 29.4224C27.3215 29.3835 27.2996 29.3307 27.2996 29.2757V26.2027C27.2996 26.1477 27.3215 26.0949 27.3604 26.056C27.3994 26.0171 27.4521 25.9952 27.5072 25.9951H30.5801C30.6351 25.9952 30.6879 26.0171 30.7268 26.056C30.7658 26.0949 30.7877 26.1477 30.7877 26.2027V29.2757C30.7877 29.3307 30.7658 29.3835 30.7268 29.4224C30.6879 29.4613 30.6351 29.4832 30.5801 29.4833Z" fill="#E5E5E5"/>
<path d="M35.2314 29.4833H32.1584C32.1034 29.4832 32.0506 29.4613 32.0117 29.4224C31.9728 29.3835 31.9509 29.3307 31.9508 29.2757V26.2027C31.9509 26.1477 31.9728 26.0949 32.0117 26.056C32.0506 26.0171 32.1034 25.9952 32.1584 25.9951H35.2314C35.2864 25.9952 35.3392 26.0171 35.3781 26.056C35.417 26.0949 35.4389 26.1477 35.439 26.2027V29.2757C35.4389 29.3307 35.417 29.3835 35.3781 29.4224C35.3392 29.4613 35.2864 29.4832 35.2314 29.4833Z" fill="#E5E5E5"/>
<path d="M21.3107 42.1903H18.2378C18.1827 42.1903 18.13 42.1684 18.091 42.1294C18.0521 42.0905 18.0302 42.0377 18.0302 41.9827V38.9098C18.0302 38.8547 18.0521 38.802 18.091 38.763C18.13 38.7241 18.1827 38.7022 18.2378 38.7021H21.3107C21.3657 38.7022 21.4185 38.7241 21.4574 38.763C21.4964 38.802 21.5183 38.8547 21.5183 38.9098V41.9827C21.5183 42.0377 21.4964 42.0905 21.4574 42.1294C21.4185 42.1684 21.3657 42.1903 21.3107 42.1903Z" fill="white"/>
<path d="M25.9619 42.1903H22.889C22.834 42.1903 22.7812 42.1684 22.7423 42.1294C22.7034 42.0905 22.6815 42.0377 22.6814 41.9827V38.9098C22.6815 38.8547 22.7034 38.802 22.7423 38.763C22.7812 38.7241 22.834 38.7022 22.889 38.7021H25.9619C26.017 38.7022 26.0698 38.7241 26.1087 38.763C26.1476 38.802 26.1695 38.8547 26.1696 38.9098V41.9827C26.1695 42.0377 26.1476 42.0905 26.1087 42.1294C26.0698 42.1684 26.017 42.1903 25.9619 42.1903Z" fill="white"/>
<path d="M30.6132 42.1903H27.5403C27.4852 42.1903 27.4324 42.1684 27.3935 42.1294C27.3546 42.0905 27.3327 42.0377 27.3326 41.9827V38.9098C27.3327 38.8547 27.3546 38.802 27.3935 38.763C27.4324 38.7241 27.4852 38.7022 27.5403 38.7021H30.6132C30.6682 38.7022 30.721 38.7241 30.7599 38.763C30.7988 38.802 30.8207 38.8547 30.8208 38.9098V41.9827C30.8207 42.0377 30.7988 42.0905 30.7599 42.1294C30.721 42.1684 30.6682 42.1903 30.6132 42.1903Z" fill="white"/>
<path d="M35.2644 42.1903H32.1915C32.1365 42.1903 32.0837 42.1684 32.0448 42.1294C32.0058 42.0905 31.984 42.0377 31.9839 41.9827V38.9098C31.984 38.8547 32.0058 38.802 32.0448 38.763C32.0837 38.7241 32.1365 38.7022 32.1915 38.7021H35.2644C35.3195 38.7022 35.3722 38.7241 35.4112 38.763C35.4501 38.802 35.472 38.8547 35.4721 38.9098V41.9827C35.472 42.0377 35.4501 42.0905 35.4112 42.1294C35.3722 42.1684 35.3195 42.1903 35.2644 42.1903Z" fill="white"/>
<path d="M25.2458 35.7124C25.4752 35.7124 25.6611 35.5264 25.6611 35.2971C25.6611 35.0678 25.4752 34.8818 25.2458 34.8818C25.0165 34.8818 24.8306 35.0678 24.8306 35.2971C24.8306 35.5264 25.0165 35.7124 25.2458 35.7124Z" fill="#E5E5E5"/>
<path d="M26.74 35.7124C26.9693 35.7124 27.1552 35.5264 27.1552 35.2971C27.1552 35.0678 26.9693 34.8818 26.74 34.8818C26.5106 34.8818 26.3247 35.0678 26.3247 35.2971C26.3247 35.5264 26.5106 35.7124 26.74 35.7124Z" fill="#E5E5E5"/>
<path d="M28.2353 35.7124C28.4647 35.7124 28.6506 35.5264 28.6506 35.2971C28.6506 35.0678 28.4647 34.8818 28.2353 34.8818C28.006 34.8818 27.8201 35.0678 27.8201 35.2971C27.8201 35.5264 28.006 35.7124 28.2353 35.7124Z" fill="#E5E5E5"/>
<path d="M53.439 45.3265H0.0642624C0.0471866 45.3265 0.0308101 45.3197 0.0187357 45.3077C0.00666123 45.2956 -0.00012207 45.2792 -0.00012207 45.2621C-0.00012207 45.2451 0.00666123 45.2287 0.0187357 45.2166C0.0308101 45.2045 0.0471866 45.1978 0.0642624 45.1978H53.439C53.4561 45.1978 53.4725 45.2045 53.4845 45.2166C53.4966 45.2287 53.5034 45.2451 53.5034 45.2621C53.5034 45.2792 53.4966 45.2956 53.4845 45.3077C53.4725 45.3197 53.4561 45.3265 53.439 45.3265Z" fill="#CBCBCB"/>
<path d="M21.0125 32.6494C21.0994 32.5626 21.1662 32.4577 21.2081 32.3423C21.2501 32.2269 21.2663 32.1036 21.2555 31.9813C21.2447 31.8589 21.2072 31.7405 21.1456 31.6342C21.0841 31.5279 21 31.4364 20.8992 31.3661L21.7102 28.4927L20.2317 28.9629L19.6882 31.6195C19.5814 31.7965 19.5432 32.0066 19.5809 32.2099C19.6187 32.4133 19.7297 32.5957 19.8929 32.7226C20.0561 32.8496 20.2603 32.9123 20.4666 32.8988C20.673 32.8853 20.8672 32.7965 21.0125 32.6494Z" fill="#FFB7B7"/>
<path d="M21.4325 30.8881C21.4061 30.8931 21.3792 30.8954 21.3524 30.8949L19.934 30.8664C19.8806 30.8654 19.8281 30.853 19.7799 30.83C19.7317 30.807 19.6889 30.7741 19.6544 30.7333C19.62 30.6925 19.5946 30.6449 19.5799 30.5936C19.5653 30.5422 19.5618 30.4883 19.5696 30.4355L21.0084 20.7141C21.0514 20.4329 21.1935 20.1763 21.4091 19.9907C21.6246 19.8052 21.8995 19.7028 22.1839 19.7021C22.3635 19.7026 22.5407 19.7439 22.702 19.8228C22.8634 19.9017 23.0046 20.0163 23.1152 20.1579C23.2258 20.2994 23.3027 20.4642 23.3403 20.6398C23.3778 20.8155 23.3749 20.9974 23.3319 21.1717L22.312 25.3024L21.7336 30.5601C21.7253 30.6398 21.6915 30.7148 21.6372 30.7738C21.583 30.8329 21.5112 30.8729 21.4325 30.8881Z" fill="#3F3D56"/>
<path d="M22.0253 46.235H22.8146L23.1902 43.1904L22.0251 43.1905L22.0253 46.235Z" fill="#FFB7B7"/>
<path d="M21.8245 45.9771L23.379 45.9771H23.379C23.6418 45.9771 23.8937 46.0814 24.0795 46.2672C24.2653 46.453 24.3697 46.705 24.3697 46.9677V46.9999L21.8245 47L21.8245 45.9771Z" fill="#2F2E41"/>
<path d="M25.3911 45.9783L26.1755 46.0662L26.8881 43.0824L25.7303 42.9526L25.3911 45.9783Z" fill="#FFB7B7"/>
<path d="M25.2206 45.6997L26.7655 45.8729L26.7655 45.8729C27.0266 45.9022 27.2654 46.034 27.4293 46.2393C27.5932 46.4447 27.6689 46.7067 27.6396 46.9678L27.636 46.9998L25.1067 46.7162L25.2206 45.6997Z" fill="#2F2E41"/>
<path d="M21.2843 29.2922C21.2843 29.2922 20.2021 31.6879 21.1578 33.2439L21.7271 45.359H23.0343L24.3025 35.5726L26.556 38.4699L25.1831 45.232L26.7818 45.3218L29.0026 38.4699C29.0026 38.4699 27.2965 30.9145 26.7331 30.7325L26.3628 29.0054L21.2843 29.2922Z" fill="#2F2E41"/>
<path d="M20.804 31.3954C20.804 31.3954 19.8291 32.5142 22.4045 32.9005C24.9799 33.2868 27.6841 32.7074 27.7484 31.9348C27.8128 31.1621 20.804 31.3954 20.804 31.3954Z" fill="#CBCBCB"/>
<path d="M33.714 17.5159C33.71 17.6251 33.6821 17.7321 33.6323 17.8294C33.5824 17.9267 33.5119 18.0118 33.4256 18.0789C33.3393 18.146 33.2393 18.1933 33.1328 18.2175C33.0262 18.2418 32.9156 18.2424 32.8088 18.2193L31.8353 19.6231L30.8379 19.2396L32.2405 17.2764C32.2912 17.0995 32.405 16.9474 32.5604 16.8488C32.7158 16.7503 32.902 16.7122 33.0836 16.7417C33.2652 16.7712 33.4297 16.8663 33.5459 17.009C33.6621 17.1517 33.7219 17.332 33.714 17.5159Z" fill="#FFB7B7"/>
<path d="M25.4808 19.3224L24.1044 18.6997L22.3409 18.8258C22.3409 18.8258 20.2149 21.3114 21.0519 23.6936L20.5369 31.9992C23.8205 32.9006 25.3131 31.21 27.6835 31.9349L26.9514 22.7041L25.4808 19.3224Z" fill="#3F3D56"/>
<path d="M24.5603 19.927L25.4802 19.3222C25.4802 19.3222 26.758 19.1291 27.2688 19.6246C27.2688 19.6246 29.0024 19.7697 29.4211 20.2025L29.8821 20.3064L31.4136 18.3232L32.3508 18.8325L30.9988 22.5024L26.9508 22.704L24.5603 19.927Z" fill="#3F3D56"/>
<path d="M24.8781 18.0011C25.931 17.4256 26.3179 16.1055 25.7424 15.0526C25.1668 13.9997 23.8467 13.6128 22.7939 14.1883C21.741 14.7639 21.354 16.084 21.9296 17.1369C22.5051 18.1897 23.8252 18.5767 24.8781 18.0011Z" fill="#FFB7B7"/>
<path d="M21.9567 14.396C22.3445 13.6985 22.8292 13.2468 23.6271 13.2631C24.425 13.2794 25.1152 13.2479 25.4742 13.9607C25.5691 13.783 25.6166 13.5839 25.6122 13.3825C25.7206 13.4529 25.806 13.5535 25.8579 13.6718C25.9099 13.7902 25.926 13.9211 25.9044 14.0486C25.9743 14.0077 26.0327 13.9499 26.0744 13.8805C26.1161 13.8112 26.1397 13.7325 26.1431 13.6516C26.4094 13.7403 26.4787 14.1155 26.3439 14.3617C26.2092 14.6079 25.9449 14.7503 25.6914 14.8706C25.4378 14.991 25.5549 15.6275 25.3893 15.8541C25.2738 16.0122 25.2209 16.2061 25.1431 16.3858C25.1398 16.3929 25.1343 16.3987 25.1273 16.4022C24.9488 16.5018 24.8361 16.6797 24.8676 16.8816C24.8714 16.8967 24.8705 16.9127 24.8651 16.9273C24.6391 17.3531 24.3951 17.7985 23.9855 18.0526C23.6568 18.2511 23.263 18.312 22.8897 18.222C22.471 18.1219 22.109 17.8443 21.848 17.5019C21.587 17.1595 21.4191 16.7549 21.2929 16.3432C21.181 15.9781 21.0996 15.5877 21.1883 15.2162C21.2771 14.8447 21.5777 14.5008 21.9585 14.4721" fill="#2F2E41"/>
</g>
<defs>
<clipPath id="clip0_1629_53">
<rect width="53.5035" height="47" fill="white"/>
</clipPath>
</defs>
</svg>
