<svg width="54" height="52" viewBox="0 0 54 52" fill="none" xmlns="http://www.w3.org/2000/svg">
<g clip-path="url(#clip0_1275_9656)">
<path d="M50.3079 14.3436C49.8073 13.4405 49.2519 12.5689 48.6448 11.7336C48.2194 11.1477 47.7699 10.5812 47.2963 10.0344H47.2951C46.4381 9.04437 45.5061 8.12188 44.5074 7.27511C44.303 7.10151 44.0958 6.93146 43.8858 6.76497C41.9908 5.25738 39.8893 4.02944 37.6456 3.11865L37.6655 6.39741L37.8802 43.7734H19.2711L18.2246 6.46793L18.3025 3.24153C9.17909 7.07866 2.77308 16.1004 2.77308 26.6189C2.77138 28.79 3.04836 30.9523 3.59725 33.0529C3.82908 33.9408 4.10976 34.8153 4.438 35.6723C4.5565 35.9834 4.68151 36.2917 4.81304 36.5972C4.87644 36.7459 4.94102 36.8934 5.00798 37.0404C5.09389 37.2323 5.18336 37.4237 5.27519 37.6127C5.34629 37.7614 5.41937 37.9092 5.49442 38.0559C5.59099 38.2485 5.69073 38.4395 5.79363 38.6289C5.87302 38.7776 5.95479 38.9251 6.03774 39.072C7.37598 41.4391 9.08488 43.5765 11.0994 45.4029C11.6736 45.9237 12.271 46.4174 12.8917 46.8841C17.2839 50.1845 22.6291 51.9689 28.1231 51.9689C33.617 51.9689 38.9622 50.1845 43.3544 46.8841C43.6921 46.6305 44.0229 46.3684 44.3468 46.0979C44.5619 45.9189 44.7734 45.7366 44.9814 45.551C45.0365 45.5018 45.0916 45.4526 45.1461 45.4029C47.0034 43.7192 48.6018 41.7703 49.8896 39.6195C50.3625 38.831 50.7914 38.0168 51.1741 37.1808C51.2755 36.9604 51.3736 36.738 51.4686 36.5136C51.9059 35.485 52.2736 34.4282 52.5695 33.3503C52.6151 33.1838 52.6591 33.0167 52.7016 32.8491V32.8485C52.7087 32.8194 52.7164 32.7898 52.7235 32.7608C52.7674 32.5842 52.8094 32.4065 52.8497 32.2287V32.2281C52.9801 31.6552 53.0901 31.0753 53.1797 30.4885C53.191 30.4133 53.2023 30.338 53.2129 30.2628C53.2171 30.2356 53.2212 30.2083 53.2242 30.181V30.1804C53.2882 29.7272 53.3401 29.2706 53.38 28.8106C53.4416 28.0883 53.4726 27.3578 53.473 26.6189C53.4797 22.3245 52.3903 18.0994 50.3079 14.3436Z" fill="#F2F2F2"/>
<path d="M47.8183 41.9212C49.3188 39.8938 49.8958 37.0381 48.7287 34.8022C47.6341 37.3172 45.6852 39.3639 43.2268 40.5802C42.277 41.0459 41.1721 41.4649 40.7325 42.427C40.4589 43.0257 40.511 43.7326 40.7309 44.3529C40.9508 44.9733 41.3248 45.5253 41.6949 46.0696L41.7144 46.2328C44.0443 45.2667 46.3179 43.9486 47.8183 41.9212Z" fill="#E6E6E6"/>
<path d="M48.6786 34.8201C48.6114 36.9067 47.8884 38.9191 46.6123 40.5714C46.344 40.932 46.0204 41.248 45.6536 41.5078C45.2881 41.7494 44.8646 41.8887 44.4271 41.9112C44.0196 41.9404 43.5993 41.9231 43.206 42.0508C43.0056 42.1192 42.822 42.2292 42.6671 42.3735C42.5122 42.5179 42.3896 42.6933 42.3073 42.8884C42.0895 43.369 42.0575 43.8993 42.0441 44.4189C42.0293 44.9959 42.0231 45.5954 41.7509 46.1199C41.718 46.1834 41.8185 46.2309 41.8514 46.1674C42.3249 45.2549 42.0175 44.1878 42.2996 43.2286C42.4313 42.781 42.6986 42.3703 43.1455 42.1909C43.5363 42.0341 43.9696 42.0516 44.3825 42.0256C44.8096 42.0099 45.2264 41.8898 45.5965 41.6759C45.9753 41.4355 46.3105 41.1325 46.5877 40.7797C47.2243 39.9955 47.7337 39.116 48.0972 38.1735C48.518 37.1002 48.7521 35.9628 48.7894 34.8105C48.7916 34.7391 48.6809 34.7493 48.6786 34.8201Z" fill="white"/>
<path d="M47.0548 40.064C47.3611 40.2404 47.7202 40.3023 48.0678 40.2384C48.4155 40.1746 48.7292 39.9893 48.9528 39.7155C48.9979 39.66 48.9137 39.5874 48.8686 39.643C48.6608 39.8983 48.3686 40.0709 48.0447 40.1296C47.7208 40.1884 47.3866 40.1295 47.1024 39.9635C47.0406 39.9275 46.9934 40.0282 47.0548 40.064Z" fill="white"/>
<path d="M44.6359 41.9238C44.442 41.2277 44.5176 40.4841 44.8476 39.8413C44.8804 39.7776 44.7799 39.7302 44.7472 39.7938C44.405 40.4633 44.3279 41.2373 44.5313 41.9612C44.5507 42.0302 44.6553 41.9924 44.6359 41.9238H44.6359Z" fill="white"/>
<path d="M48.3711 37.1056C48.2383 37.062 48.1185 36.9861 48.0223 36.8848C47.9262 36.7834 47.8567 36.6598 47.8201 36.525C47.8015 36.4558 47.697 36.4937 47.7154 36.5624C47.7565 36.7112 47.8334 36.8476 47.9394 36.9598C48.0455 37.072 48.1773 37.1566 48.3235 37.2061C48.3369 37.2119 48.352 37.2124 48.3658 37.2075C48.3795 37.2025 48.3909 37.1926 48.3975 37.1796C48.4038 37.1663 48.4045 37.151 48.3995 37.1371C48.3946 37.1233 48.3843 37.1119 48.3711 37.1056Z" fill="white"/>
<path d="M40.3762 33.0229C40.3866 33.0665 40.3969 33.11 40.4067 33.1543C40.5428 33.7403 40.6311 34.3365 40.6707 34.9368C40.6745 34.9832 40.6777 35.0303 40.6801 35.0766C40.7601 36.5241 40.5707 37.9738 40.1215 39.352C39.9422 39.9003 39.7215 40.4342 39.4613 40.949C39.1018 41.6599 38.6555 42.4021 38.5548 43.1677C38.5434 43.2475 38.537 43.3279 38.5355 43.4085L41.5137 46.2439C41.5237 46.247 41.5331 46.2507 41.5431 46.2538L41.6569 46.3725C41.6722 46.3469 41.6875 46.32 41.7027 46.2944C41.7117 46.2795 41.7199 46.2641 41.7288 46.2493C41.7346 46.2392 41.7403 46.2291 41.746 46.2203C41.748 46.2169 41.7499 46.2136 41.7511 46.2109C41.7569 46.2021 41.7613 46.1934 41.7664 46.1853C41.8523 46.0352 41.9373 45.8842 42.0214 45.7324C42.0221 45.7317 42.0221 45.7317 42.022 45.7304C42.6598 44.572 43.2065 43.3502 43.5504 42.0842C43.5607 42.0461 43.5717 42.0074 43.5807 41.968C43.7326 41.3965 43.8374 40.8135 43.8943 40.225C43.9244 39.9026 43.9381 39.5789 43.9355 39.2551C43.9271 38.4185 43.7871 37.5884 43.5208 36.7953C42.9895 35.2144 41.9586 33.8209 40.4891 33.0786C40.4515 33.0596 40.4145 33.0412 40.3762 33.0229Z" fill="#E6E6E6"/>
<path d="M40.347 33.0672C41.5496 34.7737 42.1839 36.8158 42.1599 38.9033C42.1627 39.3528 42.0946 39.7999 41.9582 40.2282C41.8118 40.6411 41.5575 41.0073 41.2217 41.2887C40.9139 41.5574 40.568 41.7966 40.3308 42.1354C40.212 42.3106 40.1316 42.509 40.0948 42.7175C40.0581 42.926 40.0658 43.1399 40.1175 43.3452C40.233 43.8601 40.5267 44.3028 40.8289 44.7257C41.1644 45.1953 41.5204 45.6777 41.6189 46.2604C41.6308 46.331 41.7397 46.3083 41.7277 46.2378C41.5564 45.2242 40.6685 44.5573 40.3162 43.6215C40.1518 43.1848 40.1181 42.696 40.3669 42.2837C40.5844 41.9232 40.941 41.6763 41.255 41.4069C41.5866 41.1372 41.8471 40.7904 42.0137 40.3968C42.1715 39.9768 42.2567 39.5331 42.2656 39.0845C42.3018 38.075 42.179 37.0661 41.9018 36.0948C41.5915 34.9844 41.0936 33.9353 40.4296 32.9928C40.3885 32.9345 40.3062 33.0093 40.347 33.0672Z" fill="white"/>
<path d="M42.2072 38.2317C42.558 38.1882 42.8819 38.0214 43.1211 37.7611C43.3602 37.5008 43.4991 37.164 43.5129 36.8108C43.5154 36.7393 43.4044 36.732 43.4019 36.8036C43.3897 37.1325 43.2603 37.4463 43.0371 37.6882C42.8139 37.9301 42.5116 38.0843 42.1847 38.1228C42.1136 38.1313 42.1366 38.2401 42.2072 38.2317H42.2072Z" fill="white"/>
<path d="M41.3955 41.173C40.8216 40.734 40.4343 40.0947 40.3107 39.3828C40.2985 39.3122 40.1897 39.3349 40.2019 39.4053C40.3318 40.1459 40.7362 40.8103 41.3345 41.2659C41.3915 41.3093 41.4522 41.2161 41.3955 41.173V41.173Z" fill="white"/>
<path d="M41.4771 35.077C41.3449 35.1221 41.2035 35.1337 41.0657 35.1107C40.9279 35.0877 40.798 35.0308 40.6876 34.9451C40.6311 34.9011 40.5705 34.9943 40.6266 35.0381C40.749 35.1321 40.8925 35.1947 41.0447 35.2205C41.1969 35.2463 41.3531 35.2344 41.4996 35.1859C41.5138 35.1824 41.5262 35.1737 41.5342 35.1615C41.5422 35.1493 41.5453 35.1345 41.5428 35.1202C41.5397 35.1058 41.5311 35.0932 41.5188 35.0851C41.5065 35.077 41.4915 35.0741 41.4771 35.077Z" fill="white"/>
<path d="M1.18343 30.5663C-0.147286 28.4237 -0.490354 25.5306 0.854653 23.397C1.74127 25.9926 3.5174 28.1909 5.8688 29.603C6.77761 30.1443 7.84478 30.6517 8.20477 31.6464C8.42878 32.2653 8.31941 32.9656 8.04982 33.566C7.78021 34.1665 7.36256 34.6862 6.94946 35.1987L6.91677 35.3597C4.67309 34.2076 2.51415 32.709 1.18343 30.5663Z" fill="#E6E6E6"/>
<path d="M0.902766 23.419C0.8002 25.5041 1.35725 27.5686 2.4948 29.3192C2.733 29.7004 3.0298 30.0416 3.37426 30.3304C3.71891 30.6009 4.12969 30.7741 4.56394 30.8321C4.96774 30.8943 5.38799 30.9112 5.76963 31.0705C5.96377 31.155 6.13788 31.2795 6.28052 31.4359C6.42316 31.5924 6.53112 31.7772 6.59732 31.9783C6.7753 32.4751 6.76416 33.0062 6.73522 33.5252C6.70309 34.1015 6.66059 34.6995 6.88921 35.2444C6.91691 35.3104 6.81285 35.3495 6.78519 35.2836C6.38744 34.3356 6.78059 33.297 6.57731 32.318C6.48246 31.8612 6.24936 31.4302 5.81856 31.2151C5.44184 31.027 5.00848 31.0092 4.59908 30.9497C4.17464 30.8994 3.76898 30.7458 3.41756 30.5025C3.0595 30.2322 2.75005 29.9029 2.50246 29.5288C1.93163 28.6954 1.49538 27.7775 1.2097 26.8086C0.877519 25.7046 0.736642 24.5519 0.793161 23.4004C0.796688 23.3291 0.906273 23.3482 0.902768 23.419L0.902766 23.419Z" fill="white"/>
<path d="M2.09538 28.7772C1.77577 28.9282 1.4129 28.9606 1.07156 28.8688C0.73023 28.7769 0.432666 28.5667 0.23201 28.2757C0.191612 28.2167 0.281431 28.1511 0.321883 28.2102C0.508232 28.4815 0.785434 28.6773 1.10346 28.7622C1.42148 28.8471 1.75938 28.8155 2.05616 28.6732C2.12069 28.6423 2.15954 28.7465 2.09538 28.7772Z" fill="white"/>
<path d="M4.35517 30.8277C4.605 30.1497 4.59008 29.4024 4.31341 28.7349C4.28595 28.6688 4.38999 28.6297 4.41743 28.6957C4.70404 29.3909 4.71798 30.1686 4.45646 30.8735C4.43148 30.9407 4.33034 30.8945 4.35517 30.8277Z" fill="white"/>
<path d="M1.02405 25.7217C1.15989 25.6891 1.28549 25.6232 1.38958 25.53C1.49366 25.4368 1.57297 25.3192 1.62038 25.1878C1.64449 25.1204 1.74562 25.1666 1.72167 25.2336C1.66861 25.3786 1.58086 25.5083 1.46609 25.6115C1.35132 25.7148 1.21302 25.7883 1.06327 25.8257C1.04945 25.8304 1.03436 25.8297 1.02105 25.8237C1.00775 25.8177 0.997239 25.8068 0.991654 25.7933C0.98653 25.7795 0.987058 25.7643 0.993124 25.7509C0.999191 25.7375 1.0103 25.727 1.02405 25.7217Z" fill="white"/>
<path d="M9.32392 22.3022C9.31007 22.3448 9.29621 22.3874 9.28291 22.4307C9.09959 23.0037 8.96312 23.5907 8.87486 24.1859C8.8673 24.2318 8.86034 24.2784 8.85412 24.3245C8.65677 25.7606 8.72776 27.2209 9.06349 28.6311C9.1976 29.1921 9.3742 29.7422 9.59176 30.2764C9.89225 31.0142 10.2768 31.7902 10.3149 32.5615C10.3197 32.6419 10.3196 32.7226 10.3145 32.803L7.11577 35.3871C7.10555 35.3893 7.09588 35.3923 7.08563 35.3945L6.96263 35.5035C6.94949 35.4768 6.93643 35.4487 6.92328 35.4219C6.91559 35.4064 6.90862 35.3904 6.90093 35.3749C6.89603 35.3644 6.89115 35.3538 6.88613 35.3446C6.88449 35.3411 6.88288 35.3376 6.88182 35.3348C6.8768 35.3256 6.87311 35.3165 6.86868 35.3081C6.79525 35.1515 6.7228 34.9941 6.65132 34.836C6.65073 34.8352 6.65074 34.8352 6.65086 34.8339C6.10931 33.6275 5.66372 32.3653 5.42387 31.0756C5.41667 31.0368 5.40884 30.9973 5.4031 30.9573C5.29821 30.3753 5.24106 29.7858 5.23223 29.1945C5.22843 28.8708 5.24103 28.547 5.26997 28.2245C5.34634 27.3914 5.55329 26.5754 5.88323 25.8066C6.54117 24.2741 7.68193 22.969 9.20695 22.3485C9.24597 22.3327 9.28431 22.3174 9.32392 22.3022Z" fill="#E6E6E6"/>
<path d="M9.34959 22.3491C8.01229 23.9522 7.21411 25.9359 7.06843 28.0185C7.02911 28.4663 7.06062 28.9175 7.16179 29.3555C7.27414 29.7789 7.49783 30.1645 7.80962 30.4723C8.09457 30.7651 8.41994 31.0316 8.62875 31.3886C8.73293 31.5729 8.79696 31.7771 8.81666 31.9879C8.83636 32.1987 8.81128 32.4113 8.74306 32.6117C8.58607 33.1155 8.25742 33.5329 7.92184 33.9299C7.54924 34.3706 7.15524 34.8225 7.00974 35.3952C6.99211 35.4646 6.88547 35.4332 6.90308 35.3639C7.15623 34.3675 8.09543 33.775 8.52256 32.8709C8.72187 32.4491 8.79525 31.9646 8.58078 31.5335C8.39323 31.1565 8.05793 30.8814 7.76685 30.5874C7.45829 30.2916 7.22685 29.9248 7.09274 29.519C6.96959 29.0876 6.92075 28.6383 6.94832 28.1906C6.9943 27.1815 7.19866 26.1859 7.55391 25.2402C7.95336 24.1588 8.53488 23.1536 9.27329 22.2682C9.31902 22.2134 9.39502 22.2946 9.34959 22.3491V22.3491Z" fill="white"/>
<path d="M7.07563 27.3451C6.72954 27.2732 6.42026 27.0806 6.20303 26.8018C5.98581 26.5229 5.87478 26.1759 5.88977 25.8228C5.89051 25.8084 5.89682 25.7948 5.90735 25.785C5.91789 25.7752 5.93183 25.7698 5.94625 25.77C5.96066 25.7703 5.97442 25.7761 5.98462 25.7863C5.99483 25.7965 6.00068 25.8102 6.00095 25.8246C5.98638 26.1535 6.08983 26.4767 6.29265 26.7359C6.49546 26.9952 6.78426 27.1734 7.10694 27.2384C7.17704 27.2526 7.14533 27.3592 7.07563 27.3451Z" fill="white"/>
<path d="M7.64531 30.3424C8.253 29.9515 8.691 29.3459 8.87199 28.6463C8.88986 28.577 8.9965 28.6084 8.97865 28.6776C8.78896 29.4052 8.33186 30.0346 7.6986 30.44C7.63821 30.4786 7.58526 30.3808 7.64531 30.3424V30.3424Z" fill="white"/>
<path d="M8.05983 24.2605C8.18795 24.3162 8.3279 24.3392 8.46711 24.3275C8.60633 24.3158 8.74044 24.2696 8.85742 24.1932C8.91729 24.1539 8.97018 24.2517 8.91071 24.2908C8.78107 24.3746 8.63289 24.4254 8.47911 24.4387C8.32533 24.452 8.17063 24.4274 8.02853 24.3672C8.01466 24.3626 8.00304 24.3529 7.99604 24.3401C7.98904 24.3273 7.98719 24.3123 7.99085 24.2982C7.99507 24.2841 8.00468 24.2722 8.01759 24.2651C8.03051 24.2581 8.04569 24.2564 8.05983 24.2605Z" fill="white"/>
<path d="M25.8859 8.69519C27.831 8.69519 29.4078 7.11838 29.4078 5.17328C29.4078 3.22818 27.831 1.65137 25.8859 1.65137C23.9408 1.65137 22.364 3.22818 22.364 5.17328C22.364 7.11838 23.9408 8.69519 25.8859 8.69519Z" fill="#FF6584"/>
<path d="M36.6691 4.98963C36.3518 4.65438 36.0167 4.33635 35.6654 4.0369C34.9793 3.45507 34.2197 2.96033 33.373 2.64868C33.0543 2.53096 32.7249 2.44425 32.3895 2.38975C32.3492 2.38324 32.3095 2.37672 32.2692 2.37139C32.2662 2.37109 32.2633 2.37109 32.2603 2.37139C32.2541 2.36963 32.2478 2.36844 32.2414 2.36783C32.159 2.35717 32.0766 2.34887 31.9937 2.34295C31.547 2.31325 31.0984 2.35363 30.6641 2.46263C30.4122 2.5262 30.1663 2.61185 29.9294 2.71859C29.6921 2.83478 29.462 2.96517 29.2404 3.10905C29.1213 3.18134 28.9987 3.24759 28.873 3.30753C28.506 3.48144 28.1175 3.60576 27.7176 3.67725C27.4477 3.72569 27.1743 3.75263 26.9 3.75783C26.6618 3.76257 26.4373 3.77086 26.2115 3.85678C25.9706 3.9473 25.7542 4.09293 25.5796 4.28202C25.405 4.47111 25.2771 4.69842 25.2061 4.94579C25.2004 4.96775 25.202 4.99094 25.2106 5.01194C25.2191 5.03294 25.2341 5.05066 25.2535 5.06251C25.3145 5.10635 25.3737 5.15612 25.4383 5.19523C25.4953 5.22124 25.5561 5.23784 25.6184 5.2444C25.7203 5.26574 25.8224 5.28647 25.9248 5.30662C26.301 5.38127 26.6788 5.44743 27.0582 5.5051C27.8213 5.62064 28.5888 5.70201 29.3606 5.74921C29.3654 5.7499 29.3701 5.7503 29.3749 5.7504C30.2468 5.80303 31.1209 5.81153 31.9937 5.77588C32.1258 5.77054 32.2574 5.76402 32.3895 5.75632C32.9399 5.72551 33.489 5.67693 34.0366 5.61057C34.5432 5.54895 35.0478 5.47252 35.5505 5.38127C35.9095 5.3161 36.2672 5.24342 36.6235 5.16323C36.6408 5.15811 36.6565 5.14862 36.669 5.13566C36.6816 5.12271 36.6906 5.10674 36.6952 5.08928C36.6998 5.07183 36.6998 5.05349 36.6952 5.03604C36.6906 5.01858 36.6816 5.0026 36.6691 4.98963Z" fill="#E6E6E6"/>
<path d="M29.3489 9.68604C28.839 9.1406 28.2773 8.6461 27.6716 8.20954C27.4707 8.06852 27.2639 7.9358 27.0512 7.81434C26.7904 7.6638 26.5196 7.53137 26.2407 7.41796C26.1785 7.39248 26.1157 7.36819 26.0529 7.34508C25.696 7.21293 25.3259 7.11995 24.949 7.06779C24.9461 7.0672 24.9431 7.06779 24.9401 7.0672C24.9342 7.06602 24.9277 7.06483 24.9218 7.06365C24.7391 7.03995 24.555 7.02867 24.3708 7.02987C24.2386 7.02987 24.1059 7.03699 23.9744 7.05002C23.7619 7.07095 23.5512 7.10739 23.344 7.15904C23.2415 7.18452 23.1395 7.21414 23.0394 7.24791C22.8934 7.29598 22.75 7.35175 22.6098 7.415C22.6075 7.41618 22.6057 7.41677 22.6033 7.41796C22.3681 7.53304 22.1402 7.66245 21.9208 7.80545C21.916 7.80841 21.9107 7.81138 21.906 7.81434C21.6568 7.9634 21.3932 8.08687 21.1191 8.18287C20.8839 8.26513 20.6426 8.32892 20.3975 8.37365C20.1275 8.42222 19.8541 8.44897 19.5798 8.45364C19.3416 8.45838 19.1171 8.46668 18.8919 8.55318C18.6509 8.64369 18.4345 8.7893 18.2598 8.97839C18.0851 9.16747 17.957 9.3948 17.8859 9.64219C17.8804 9.66416 17.882 9.6873 17.8905 9.70828C17.8991 9.72926 17.914 9.74699 17.9333 9.75891C17.9943 9.80276 18.0541 9.85194 18.1181 9.89104C18.1751 9.91725 18.2359 9.93386 18.2983 9.94022C18.4002 9.96155 18.5021 9.98288 18.6046 10.003C18.9808 10.0777 19.3588 10.1436 19.7386 10.2009C20.2594 10.2797 20.7824 10.3427 21.3075 10.3899C21.5564 10.413 21.8054 10.432 22.0547 10.4468C22.694 10.4853 23.3339 10.5003 23.9744 10.4918C24.1065 10.4901 24.2386 10.4871 24.3708 10.4829C25.1552 10.4598 25.9373 10.401 26.717 10.3064C27.5862 10.2012 28.4494 10.0519 29.3033 9.85904C29.3206 9.85398 29.3362 9.84455 29.3488 9.83165C29.3613 9.81875 29.3703 9.80282 29.3749 9.78542C29.3795 9.76801 29.3795 9.74972 29.375 9.73231C29.3704 9.71489 29.3614 9.69896 29.3489 9.68604Z" fill="#E6E6E6"/>
<path d="M20.57 0.233684L23.6727 43.1102L17.4673 43.661V0.779195C18.2067 0.201602 19.2682 0.111236 20.57 0.233684Z" fill="#CCCCCC"/>
<path d="M35.8857 0.233684L32.783 43.1102L38.9884 43.661V0.779195C38.249 0.201602 37.1875 0.111236 35.8857 0.233684Z" fill="#CCCCCC"/>
<path d="M39.1346 0.798052C38.9421 0.325935 38.5327 0 38.0593 0H18.3309C17.6726 0 17.1376 0.631587 17.1376 1.40866V44.0244C17.1319 44.4187 17.2793 44.7998 17.5488 45.0876C17.6898 45.2357 17.8684 45.3428 18.0655 45.3974C18.1519 45.4213 18.2412 45.4333 18.3309 45.4331H38.0593C38.149 45.4333 38.2383 45.4213 38.3247 45.3974C38.8556 45.2547 39.2526 44.6938 39.2526 44.0244V1.40866C39.2531 1.19941 39.2131 0.992049 39.1346 0.798052ZM38.8568 44.0244C38.8568 44.5434 38.4989 44.9659 38.0593 44.9659H18.3309C17.9665 44.9659 17.6578 44.6756 17.5636 44.2804C17.5435 44.1966 17.5333 44.1107 17.5334 44.0244V1.40866C17.5334 0.889679 17.8913 0.467923 18.3309 0.467923H38.0593C38.1402 0.467859 38.2205 0.48231 38.2963 0.510588C38.6204 0.629493 38.8568 0.986902 38.8568 1.40866V44.0244Z" fill="#CCCCCC"/>
<path d="M39.0545 12.9536H17.3354V13.3497H39.0545V12.9536Z" fill="#CCCCCC"/>
<path d="M39.0545 4.77734H17.3354V5.17344H39.0545V4.77734Z" fill="#CCCCCC"/>
<path d="M39.0545 19.5552H17.3354V19.9513H39.0545V19.5552Z" fill="#CCCCCC"/>
<path d="M24.3835 0.177734H23.9874V25.1665H24.3835V0.177734Z" fill="#CCCCCC"/>
<path d="M32.4024 0.177734H32.0063V25.1665H32.4024V0.177734Z" fill="#CCCCCC"/>
<path d="M41.5302 42.9575H15.5201C15.0476 42.9581 14.5946 43.146 14.2605 43.4801C13.9264 43.8142 13.7385 44.2672 13.7379 44.7397C13.7377 44.967 13.7813 45.1921 13.8665 45.4028C13.9988 45.7332 14.227 46.0164 14.5217 46.216C14.8165 46.4156 15.1642 46.5224 15.5201 46.5226H41.5302C41.8413 46.5225 42.147 46.4409 42.4168 46.286C42.6867 46.1312 42.9113 45.9084 43.0683 45.6398C43.113 45.5638 43.1518 45.4846 43.1844 45.4028C43.2696 45.1921 43.3132 44.967 43.313 44.7397C43.3123 44.2672 43.1242 43.8142 42.79 43.4801C42.4558 43.146 42.0027 42.9581 41.5302 42.9575Z" fill="#CCCCCC"/>
<path d="M39.0543 24.2422H17.4673V25.5625H39.0543V24.2422Z" fill="#CCCCCC"/>
<path d="M28.0631 23.8462H28.4592C28.6518 23.8462 28.8365 23.9227 28.9727 24.0589C29.1088 24.1951 29.1853 24.3798 29.1853 24.5724H27.3369C27.3369 24.477 27.3557 24.3826 27.3922 24.2945C27.4287 24.2064 27.4822 24.1263 27.5496 24.0589C27.617 23.9914 27.6971 23.938 27.7852 23.9015C27.8733 23.865 27.9677 23.8462 28.0631 23.8462Z" fill="#CCCCCC"/>
<path d="M28.6417 27.9658C30.9011 27.9658 32.7328 26.1342 32.7328 23.8747C32.7328 21.6153 30.9011 19.7837 28.6417 19.7837C26.3823 19.7837 24.5507 21.6153 24.5507 23.8747C24.5507 26.1342 26.3823 27.9658 28.6417 27.9658Z" fill="#FFB8B8"/>
<path d="M24.078 19.9394C24.109 19.4696 24.4196 18.9888 25.4067 18.7376C25.4067 18.7376 27.1008 16.5714 29.4027 17.7074C29.4027 17.7074 30.5187 17.5154 31.3463 18.6733C31.3463 18.6733 32.1667 18.1894 32.5129 19.0471C32.5129 19.0471 33.4752 20.7966 33.1209 22.5811C32.7666 24.3656 32.5853 24.5883 32.5853 24.5883C32.5853 24.5883 33.0369 20.8971 30.436 21.153C27.8352 21.409 25.7412 20.4944 25.1522 22.4969C24.6632 24.1598 24.7248 25.0234 24.7248 25.0234C24.7248 25.0234 23.0893 23.3645 23.6454 22.0583C23.9298 21.3903 24.0303 20.6639 24.078 19.9394Z" fill="#2F2E41"/>
<path d="M17.5166 46.2323H40.1453C39.9941 44.5062 39.8953 37.908 39.8953 37.4737C39.8953 35.5584 38.328 33.4681 38.328 33.4681L37.767 33.158L33.082 31.6964L31.8696 30.1215C31.7427 29.9561 31.5791 29.8224 31.3917 29.7309C31.2044 29.6395 30.9984 29.5927 30.7899 29.5943L26.96 29.623C26.6229 29.6256 26.299 29.754 26.0517 29.9829L23.6801 32.183L20.2017 33.8441L20.1958 33.8382L20.1594 33.8652L19.6432 34.237L19.3112 34.4769C19.3112 34.4769 18.4401 35.5221 17.7439 38.6566C17.6391 39.128 17.5656 45.2311 17.5166 46.2323Z" fill="#6C63FF"/>
<path d="M45.3829 45.4028C45.3284 45.4526 45.2733 45.5018 45.2182 45.551C45.0097 45.7364 44.7981 45.9187 44.5837 46.0978C44.2596 46.368 43.9288 46.6301 43.5912 46.8841H13.1286C12.5083 46.4184 11.9108 45.9246 11.3363 45.4028H45.3829Z" fill="#CCCCCC"/>
<path d="M34.2167 45.7585H23.0186L23.2555 44.6328H33.9797L34.2167 45.7585Z" fill="#2F2E41"/>
<path d="M44.3477 40.8999H41.4338C41.368 40.8997 41.303 40.9139 41.2433 40.9416C41.1837 40.9692 41.1308 41.0096 41.0884 41.0599C41.0478 41.052 41.0065 41.0481 40.9651 41.048C40.8743 41.0479 40.7844 41.0658 40.7004 41.1004C40.6165 41.1351 40.5402 41.186 40.476 41.2502C40.4117 41.3144 40.3608 41.3906 40.326 41.4745C40.2912 41.5584 40.2733 41.6484 40.2733 41.7392C40.2733 41.83 40.2912 41.9199 40.326 42.0038C40.3608 42.0877 40.4117 42.1639 40.476 42.2281C40.5402 42.2923 40.6165 42.3432 40.7004 42.3779C40.7844 42.4126 40.8743 42.4304 40.9651 42.4303C41.0695 42.4303 41.1725 42.4064 41.2661 42.3604L41.3147 42.9576L41.5079 45.3182C41.517 45.3476 41.5294 45.376 41.5446 45.4029C41.5836 45.4746 41.6413 45.5344 41.7114 45.5761C41.7816 45.6178 41.8617 45.6398 41.9433 45.6399H43.8382C43.9198 45.6398 44 45.6177 44.0703 45.576C44.1405 45.5343 44.1983 45.4745 44.2375 45.4029C44.2523 45.3759 44.2644 45.3475 44.2736 45.3182L44.7832 41.4894C44.8041 41.4213 44.8088 41.3492 44.7968 41.2789C44.7848 41.2086 44.7565 41.1422 44.7142 41.0848C44.6718 41.0275 44.6166 40.9809 44.5529 40.9487C44.4893 40.9166 44.419 40.8999 44.3477 40.8999ZM40.9651 42.233C40.8343 42.2329 40.7088 42.1808 40.6163 42.0882C40.5238 41.9956 40.4719 41.8701 40.4719 41.7392C40.4719 41.6083 40.5238 41.4828 40.6163 41.3902C40.7088 41.2976 40.8343 41.2455 40.9651 41.2453C40.974 41.2453 40.9823 41.2477 40.9912 41.2483C40.9717 41.3278 40.9742 41.4112 40.9983 41.4894L41.2069 42.1673C41.1334 42.2099 41.0501 42.2326 40.9651 42.233Z" fill="#3F3D56"/>
<path d="M37.7663 28.3726H19.3207C19.1623 28.3728 19.0103 28.4359 18.8983 28.5479C18.7862 28.66 18.7232 28.8119 18.7229 28.9704V41.4176C18.7231 41.5761 18.7861 41.728 18.8982 41.8401C19.0103 41.9522 19.1622 42.0152 19.3207 42.0154H37.7663C37.9248 42.0152 38.0768 41.9522 38.1889 41.8401C38.301 41.728 38.364 41.5761 38.3642 41.4176V28.9704C38.3639 28.8119 38.3009 28.66 38.1888 28.5479C38.0767 28.4359 37.9248 28.3728 37.7663 28.3726Z" fill="#3F3D56"/>
<path d="M30.621 38.3462H26.3058C26.2448 38.3463 26.1863 38.3706 26.1432 38.4138C26.1 38.4571 26.0759 38.5156 26.0759 38.5767V45.3933H30.8515V38.5767C30.8515 38.5464 30.8455 38.5164 30.8339 38.4885C30.8224 38.4605 30.8054 38.4351 30.784 38.4137C30.7626 38.3923 30.7372 38.3753 30.7092 38.3637C30.6812 38.3521 30.6512 38.3462 30.621 38.3462ZM28.4779 42.2193C28.343 42.2187 28.2137 42.1648 28.1183 42.0694C28.0229 41.974 27.969 41.8447 27.9684 41.7098V40.9236C27.9685 40.7885 28.0223 40.6591 28.1178 40.5636C28.2134 40.4682 28.3429 40.4146 28.4779 40.4146C28.6129 40.4146 28.7425 40.4682 28.838 40.5636C28.9336 40.6591 28.9873 40.7885 28.9875 40.9236V41.7098C28.9868 41.8447 28.9329 41.974 28.8375 42.0694C28.7421 42.1648 28.6129 42.2187 28.4779 42.2193Z" fill="#2F2E41"/>
<path d="M26.0609 45.1753V45.833C26.061 45.867 26.0745 45.8997 26.0986 45.9238C26.1227 45.9479 26.1554 45.9615 26.1895 45.9615H30.7375C30.7715 45.9614 30.8041 45.9478 30.8282 45.9237C30.8523 45.8996 30.8659 45.867 30.8661 45.833V45.1753H26.0609Z" fill="#3F3D56"/>
<path d="M37.3742 41.2875C37.535 41.2875 37.6654 41.1571 37.6654 40.9963C37.6654 40.8355 37.535 40.7051 37.3742 40.7051C37.2134 40.7051 37.083 40.8355 37.083 40.9963C37.083 41.1571 37.2134 41.2875 37.3742 41.2875Z" fill="#2F2E41"/>
<path d="M21.6494 40.5737C21.636 40.5737 21.6228 40.5764 21.6104 40.5815C21.598 40.5866 21.5868 40.5941 21.5773 40.6036C21.5679 40.613 21.5604 40.6243 21.5552 40.6366C21.5501 40.649 21.5475 40.6623 21.5475 40.6756V41.2C21.5476 41.227 21.5583 41.2528 21.5774 41.2719C21.5965 41.2909 21.6224 41.3016 21.6494 41.3016C21.6764 41.3016 21.7023 41.2909 21.7214 41.2719C21.7405 41.2528 21.7512 41.227 21.7513 41.2V40.6756C21.7513 40.6623 21.7487 40.649 21.7436 40.6366C21.7384 40.6243 21.7309 40.613 21.7215 40.6036C21.712 40.5941 21.7008 40.5866 21.6884 40.5815C21.676 40.5764 21.6628 40.5737 21.6494 40.5737Z" fill="#2F2E41"/>
<path d="M22.2029 40.5737C22.1895 40.5737 22.1762 40.5764 22.1639 40.5815C22.1515 40.5866 22.1403 40.5941 22.1308 40.6036C22.1213 40.613 22.1138 40.6243 22.1087 40.6366C22.1036 40.649 22.101 40.6623 22.101 40.6756V41.2C22.101 41.227 22.1117 41.253 22.1308 41.2721C22.1499 41.2912 22.1758 41.3019 22.2029 41.3019C22.2299 41.3019 22.2558 41.2912 22.2749 41.2721C22.294 41.253 22.3048 41.227 22.3048 41.2V40.6756C22.3048 40.6623 22.3021 40.649 22.297 40.6366C22.2919 40.6243 22.2844 40.613 22.2749 40.6036C22.2655 40.5941 22.2542 40.5866 22.2419 40.5815C22.2295 40.5764 22.2162 40.5737 22.2029 40.5737Z" fill="#2F2E41"/>
<path d="M22.756 40.5737C22.7426 40.5737 22.7293 40.5764 22.717 40.5815C22.7046 40.5866 22.6934 40.5941 22.6839 40.6036C22.6744 40.613 22.6669 40.6243 22.6618 40.6366C22.6567 40.649 22.6541 40.6623 22.6541 40.6756V41.2C22.6541 41.227 22.6649 41.2528 22.684 41.2719C22.7031 41.2909 22.729 41.3016 22.756 41.3016C22.7829 41.3016 22.8088 41.2909 22.8279 41.2719C22.847 41.2528 22.8578 41.227 22.8579 41.2V40.6756C22.8579 40.6623 22.8552 40.649 22.8501 40.6366C22.845 40.6243 22.8375 40.613 22.828 40.6036C22.8186 40.5941 22.8073 40.5866 22.795 40.5815C22.7826 40.5764 22.7693 40.5737 22.756 40.5737Z" fill="#2F2E41"/>
<path d="M23.3094 40.5737C23.296 40.5737 23.2828 40.5764 23.2704 40.5815C23.2581 40.5866 23.2468 40.5941 23.2374 40.6036C23.2279 40.613 23.2204 40.6243 23.2153 40.6366C23.2102 40.649 23.2075 40.6623 23.2075 40.6756V41.2C23.2076 41.227 23.2184 41.2528 23.2375 41.2719C23.2566 41.2909 23.2824 41.3016 23.3094 41.3016C23.3364 41.3016 23.3623 41.2909 23.3814 41.2719C23.4005 41.2528 23.4113 41.227 23.4113 41.2V40.6756C23.4113 40.6623 23.4087 40.649 23.4036 40.6366C23.3985 40.6243 23.391 40.613 23.3815 40.6036C23.372 40.5941 23.3608 40.5866 23.3484 40.5815C23.3361 40.5764 23.3228 40.5737 23.3094 40.5737Z" fill="#2F2E41"/>
<path d="M23.7511 45.4623C24.6019 45.4623 25.2916 44.7726 25.2916 43.9218C25.2916 43.071 24.6019 42.3813 23.7511 42.3813C22.9003 42.3813 22.2106 43.071 22.2106 43.9218C22.2106 44.7726 22.9003 45.4623 23.7511 45.4623Z" fill="#FFB8B8"/>
<path d="M34.513 45.7582C35.3638 45.7582 36.0535 45.0685 36.0535 44.2177C36.0535 43.3669 35.3638 42.6772 34.513 42.6772C33.6622 42.6772 32.9725 43.3669 32.9725 44.2177C32.9725 45.0685 33.6622 45.7582 34.513 45.7582Z" fill="#FFB8B8"/>
<path d="M50.4136 25.6239C50.2614 25.3721 50.081 25.1033 49.7985 25.0211C49.4714 24.9259 49.1353 25.115 48.8503 25.3016C47.9978 25.8598 47.1768 26.4647 46.3911 27.1135L46.392 27.1233C47.0037 27.0811 47.5113 28.7075 48.123 28.6653C48.5649 28.6349 49.1261 26.9315 49.5166 26.7225C49.6648 26.6432 49.8093 26.5372 49.9772 26.5298C50.1859 26.5206 50.3678 26.6663 50.5108 26.8186C51.3565 27.7191 51.6012 29.0963 52.55 29.8875C51.9517 28.4121 51.2374 26.9864 50.4136 25.6239Z" fill="#3F3D56"/>
<path d="M52.0413 27.8111C52.4874 28.6169 52.9606 29.4067 53.4609 30.1805V30.1811C53.4579 30.2083 53.4538 30.2356 53.4496 30.2628C53.3892 30.1704 53.3293 30.0776 53.2701 29.9844C52.821 29.2799 52.3942 28.562 51.9897 27.8306C51.7977 27.4829 51.6105 27.1323 51.428 26.779C51.287 26.5052 51.149 26.2299 51.0139 25.953C50.9754 25.8736 50.938 25.7942 50.9007 25.7143C50.813 25.527 50.7265 25.3386 50.6341 25.1538C50.5286 24.9428 50.4 24.7224 50.2063 24.5808C50.1182 24.5136 50.0127 24.473 49.9023 24.4635C49.7468 24.4644 49.5945 24.5081 49.4621 24.5897C48.4598 25.1165 47.5243 25.7616 46.6756 26.5112C45.8259 27.2577 45.0663 28.101 44.4123 29.0239C44.3921 29.0524 44.3447 29.0251 44.3649 28.9961C44.4449 28.8835 44.5254 28.7727 44.6084 28.6625C45.6365 27.2954 46.8969 26.1198 48.3322 25.1893C48.5734 25.0329 48.8193 24.8838 49.0699 24.742C49.1961 24.6703 49.3229 24.5998 49.452 24.5334C49.5757 24.4609 49.7144 24.4179 49.8573 24.4078C50.3491 24.4001 50.6039 24.957 50.7786 25.3315C50.8332 25.4494 50.8886 25.5671 50.9451 25.6846C51.1578 26.129 51.3788 26.5698 51.6081 27.0071C51.7492 27.2767 51.8935 27.5447 52.0413 27.8111Z" fill="#3F3D56"/>
<path d="M46.6275 26.2362C46.5989 26.2043 46.5705 26.1725 46.5418 26.1406C46.3151 25.8899 46.0718 25.6421 45.7604 25.4983C45.612 25.4276 45.4499 25.3901 45.2855 25.3882C45.1159 25.3929 44.9486 25.4294 44.7924 25.4958C44.7182 25.5254 44.6456 25.5591 44.5741 25.5949C44.4924 25.6361 44.4121 25.6799 44.3322 25.7241C44.1823 25.8071 44.0343 25.8937 43.8883 25.984C43.5977 26.1636 43.3162 26.3569 43.0438 26.5639C42.9026 26.6712 42.7643 26.7821 42.6289 26.8965C42.503 27.0028 42.3796 27.1119 42.2588 27.2239C42.233 27.2477 42.1944 27.2091 42.2202 27.1853C42.2521 27.1556 42.2843 27.1261 42.3165 27.097C42.4075 27.0148 42.4999 26.9341 42.5938 26.855C42.765 26.7105 42.9407 26.5716 43.1207 26.4383C43.4008 26.2309 43.6905 26.0375 43.9898 25.8582C44.1394 25.7687 44.291 25.6829 44.4447 25.6009C44.4911 25.5762 44.538 25.552 44.5855 25.5291C44.6933 25.4747 44.8052 25.4291 44.9203 25.3928C45.0834 25.34 45.2558 25.3231 45.426 25.3431C45.5903 25.367 45.7486 25.4218 45.8925 25.5045C46.1982 25.6754 46.4353 25.9396 46.6661 26.1974C46.6894 26.2236 46.651 26.2624 46.6275 26.2362Z" fill="#3F3D56"/>
<path d="M44.3904 27.4423C44.3127 27.4462 44.236 27.4242 44.1721 27.3798C44.0029 27.2516 44.0073 26.9438 44.1856 26.4387C44.2341 26.3018 44.3102 26.1764 44.4091 26.0701C44.508 25.9638 44.6277 25.8788 44.7607 25.8206C44.8853 25.7649 45.0201 25.7357 45.1566 25.7349C45.2931 25.7341 45.4283 25.7617 45.5536 25.8159C45.5754 25.8254 45.597 25.8356 45.6183 25.8465C45.7632 25.9277 45.8992 26.0241 46.0237 26.1341C46.1295 26.226 46.2425 26.3094 46.3614 26.3836L46.4011 26.4068L46.3634 26.4333C45.4036 27.109 44.7529 27.4423 44.3904 27.4423Z" fill="#3F3D56"/>
<path d="M48.081 23.4211C47.7654 23.421 47.4596 23.3115 47.2158 23.1111C46.972 22.9107 46.8052 22.6319 46.7441 22.3223C46.4802 22.3757 46.238 22.5061 46.0482 22.697C45.8583 22.8879 45.7293 23.1308 45.6773 23.395C45.6254 23.6592 45.6529 23.9328 45.7563 24.1814C45.8597 24.43 46.0345 24.6424 46.2585 24.7917C46.4825 24.9411 46.7457 25.0208 47.0149 25.0207C47.2842 25.0206 47.5474 24.9408 47.7713 24.7913C47.9952 24.6417 48.1698 24.4293 48.2731 24.1806C48.3763 23.9319 48.4036 23.6583 48.3515 23.3941C48.2625 23.4121 48.1719 23.4211 48.081 23.4211Z" fill="#3F3D56"/>
<path opacity="0.74" d="M11.6026 25.6136C12.7257 25.6136 13.6362 24.7031 13.6362 23.58C13.6362 22.4569 12.7257 21.5464 11.6026 21.5464C10.4794 21.5464 9.56897 22.4569 9.56897 23.58C9.56897 24.7031 10.4794 25.6136 11.6026 25.6136Z" fill="#3F3D56"/>
<path opacity="0.74" d="M13.6363 25.6136C14.7594 25.6136 15.6699 24.7031 15.6699 23.58C15.6699 22.4569 14.7594 21.5464 13.6363 21.5464C12.5131 21.5464 11.6027 22.4569 11.6027 23.58C11.6027 24.7031 12.5131 25.6136 13.6363 25.6136Z" fill="#6C63FF"/>
<path opacity="0.74" d="M12.6364 23.9925C13.7595 23.9925 14.67 23.082 14.67 21.9589C14.67 20.8358 13.7595 19.9253 12.6364 19.9253C11.5133 19.9253 10.6028 20.8358 10.6028 21.9589C10.6028 23.082 11.5133 23.9925 12.6364 23.9925Z" fill="#FF6584"/>
<path d="M17.9542 21.3765L12.7307 23.0176L12.7662 23.1306L17.9897 21.4896L17.9542 21.3765Z" fill="#3F3D56"/>
<path d="M17.9875 21.6508C18.1184 21.6508 18.2245 21.5446 18.2245 21.4138C18.2245 21.2829 18.1184 21.1768 17.9875 21.1768C17.8566 21.1768 17.7505 21.2829 17.7505 21.4138C17.7505 21.5446 17.8566 21.6508 17.9875 21.6508Z" fill="#3F3D56"/>
<path d="M51.898 32.0783C52.2452 32.323 52.5788 32.5725 52.9604 32.7609C52.9533 32.7899 52.9456 32.8195 52.9385 32.8486C52.8917 32.8266 52.846 32.8035 52.8004 32.7798C52.4135 32.5772 52.0805 32.3017 51.7173 32.0623C51.5373 31.9379 51.3406 31.8393 51.1331 31.7696C50.9168 31.7046 50.6908 31.6782 50.4654 31.6914C49.5251 31.7376 48.7193 32.2987 47.8454 32.5813C47.4176 32.72 46.9625 32.794 46.5164 32.7069C46.0702 32.6199 45.6739 32.3829 45.2798 32.1684C44.8912 31.9563 44.4675 31.743 44.0137 31.743C43.644 31.7436 43.2553 31.8917 43.0574 32.2187C43.0512 32.2285 43.0415 32.2355 43.0303 32.2382C43.0191 32.2409 43.0073 32.2392 42.9973 32.2333C42.9874 32.2275 42.9801 32.218 42.977 32.2068C42.974 32.1957 42.9754 32.1838 42.981 32.1737C43.0252 32.0992 43.0797 32.0312 43.1427 31.9717C43.401 31.727 43.7808 31.6304 44.1298 31.6588C44.5813 31.6956 44.9931 31.9089 45.3835 32.1233C45.7977 32.3509 46.2219 32.5956 46.7007 32.6453C47.1735 32.6951 47.6415 32.5713 48.08 32.4048C48.929 32.0819 49.7668 31.5439 50.7113 31.6037C51.1568 31.6322 51.5384 31.8253 51.898 32.0783Z" fill="#3F3D56"/>
<path d="M14.7344 14.9425V15.0628C14.6946 15.0549 14.6541 15.051 14.6135 15.051H13.9938V16.3817C13.9936 16.5787 13.9153 16.7677 13.776 16.907C13.6367 17.0463 13.4478 17.1246 13.2508 17.1247H12.3348V17.3297C12.3348 17.4119 12.3511 17.4933 12.3828 17.5691H12.256C12.2295 17.4921 12.2161 17.4112 12.2163 17.3297V17.1247H11.7126V17.0062H12.2163V15.6755C12.2164 15.4784 12.2947 15.2895 12.434 15.1502C12.5733 15.0109 12.7622 14.9326 12.9593 14.9325H13.8753V14.7251H13.9938V14.9325H14.6135C14.654 14.9325 14.6944 14.9359 14.7344 14.9425Z" fill="#6C63FF"/>
<path d="M13.2506 13.9849H11.5964C11.3994 13.985 11.2104 14.0633 11.0711 14.2026C10.9318 14.3419 10.8535 14.5308 10.8534 14.7279V16.3821C10.8535 16.5791 10.9318 16.768 11.0711 16.9074C11.2104 17.0467 11.3994 17.125 11.5964 17.1251H13.2506C13.4477 17.125 13.6366 17.0467 13.7759 16.9074C13.9152 16.768 13.9935 16.5791 13.9936 16.3821V14.7255C13.9929 14.5289 13.9143 14.3405 13.7751 14.2017C13.6358 14.0629 13.4473 13.9849 13.2506 13.9849ZM13.8751 16.3821C13.8749 16.5477 13.809 16.7064 13.692 16.8234C13.5749 16.9405 13.4162 17.0064 13.2506 17.0066H11.5964C11.4308 17.0064 11.2721 16.9405 11.155 16.8234C11.038 16.7064 10.9721 16.5477 10.9719 16.3821V14.7279C10.9721 14.5623 11.038 14.4036 11.155 14.2865C11.2721 14.1695 11.4308 14.1036 11.5964 14.1034H13.2506C13.4158 14.1036 13.5742 14.1691 13.6912 14.2856C13.8082 14.4022 13.8743 14.5603 13.8751 14.7255V16.3821Z" fill="#3F3D56"/>
<path d="M12.2159 17.0064V17.1249H12.3344V17.0064H12.2159ZM12.2159 17.0064V17.1249H12.3344V17.0064H12.2159ZM14.7341 14.9427C14.6941 14.936 14.6537 14.9327 14.6132 14.9326H12.9589C12.7619 14.9327 12.573 15.011 12.4337 15.1504C12.2944 15.2897 12.2161 15.4786 12.2159 15.6756V17.3299C12.2157 17.4113 12.2291 17.4922 12.2556 17.5692C12.3057 17.7161 12.4004 17.8436 12.5265 17.9339C12.6526 18.0242 12.8038 18.0728 12.9589 18.0728H14.6132C14.8102 18.0727 14.9991 17.9944 15.1384 17.8551C15.2777 17.7158 15.3561 17.5269 15.3562 17.3299V15.6756C15.3561 15.4995 15.2936 15.3292 15.1796 15.195C15.0657 15.0607 14.9078 14.9713 14.7341 14.9427ZM15.2377 17.3299C15.2375 17.4954 15.1716 17.6541 15.0545 17.7712C14.9375 17.8883 14.7787 17.9541 14.6132 17.9543H12.9589C12.7934 17.9541 12.6347 17.8882 12.5176 17.7712C12.4005 17.6541 12.3347 17.4954 12.3344 17.3299V15.6756C12.3347 15.5101 12.4005 15.3513 12.5176 15.2343C12.6347 15.1172 12.7934 15.0513 12.9589 15.0511H14.6132C14.7788 15.0512 14.9376 15.117 15.0547 15.2341C15.1718 15.3512 15.2376 15.51 15.2377 15.6756V17.3299ZM12.2159 17.0064V17.1249H12.3344V17.0064H12.2159Z" fill="#3F3D56"/>
<path d="M11.0459 32.4521H4.01884C3.96993 32.4522 3.92301 32.4716 3.88837 32.5061C3.85373 32.5406 3.83417 32.5875 3.83398 32.6364V33.0529C4.06582 33.9409 4.3465 34.8154 4.67474 35.6724H11.0459C11.0701 35.6724 11.094 35.6676 11.1164 35.6584C11.1388 35.6491 11.1591 35.6356 11.1762 35.6185C11.1933 35.6013 11.2069 35.581 11.2161 35.5586C11.2254 35.5363 11.2301 35.5123 11.2301 35.4881V32.6364C11.2301 32.5876 11.2106 32.5407 11.1761 32.5062C11.1415 32.4716 11.0947 32.4522 11.0459 32.4521Z" fill="#6C63FF"/>
<path d="M10.3766 36.5972H5.05005C5.11345 36.7459 5.17803 36.8934 5.24498 37.0404H10.3766C10.6657 37.0445 10.6628 36.593 10.3766 36.5972Z" fill="#E4E4E4"/>
<path d="M10.3766 37.6128H5.51221C5.5833 37.7615 5.65638 37.9093 5.73143 38.056H10.3766C10.6657 38.0601 10.6628 37.6093 10.3766 37.6128Z" fill="#E4E4E4"/>
<path d="M10.3765 38.6289H6.03052C6.10991 38.7777 6.19167 38.9252 6.27462 39.0721H10.3765C10.6656 39.0763 10.6627 38.6248 10.3765 38.6289Z" fill="#E4E4E4"/>
<path d="M46.806 11.3169H46.7723C46.8774 11.317 46.981 11.3415 47.075 11.3885H46.9213C46.7558 11.3887 46.5971 11.4545 46.48 11.5716C46.3629 11.6887 46.2971 11.8474 46.2969 12.013V13.6673C46.2971 13.8328 46.3629 13.9915 46.48 14.1086C46.5971 14.2257 46.7558 14.2915 46.9213 14.2917H47.0193C46.9406 14.3226 46.8568 14.3385 46.7723 14.3386H46.806C46.9873 14.3384 47.1611 14.2663 47.2893 14.1381C47.4174 14.01 47.4895 13.8362 47.4897 13.6549V12.0006C47.4895 11.8193 47.4174 11.6456 47.2893 11.5174C47.1611 11.3892 46.9873 11.3171 46.806 11.3169Z" fill="#3F3D56"/>
<path opacity="0.21" d="M46.806 11.3169H46.7723C46.8774 11.317 46.981 11.3415 47.075 11.3885H46.9213C46.7558 11.3887 46.5971 11.4545 46.48 11.5716C46.3629 11.6887 46.2971 11.8474 46.2969 12.013V13.6673C46.2971 13.8328 46.3629 13.9915 46.48 14.1086C46.5971 14.2257 46.7558 14.2915 46.9213 14.2917H47.0193C46.9406 14.3226 46.8568 14.3385 46.7723 14.3386H46.806C46.9873 14.3384 47.1611 14.2663 47.2893 14.1381C47.4174 14.01 47.4895 13.8362 47.4897 13.6549V12.0006C47.4895 11.8193 47.4174 11.6456 47.2893 11.5174C47.1611 11.3892 46.9873 11.3171 46.806 11.3169Z" fill="black"/>
<path d="M42.4216 11.3169H42.3879C42.493 11.317 42.5966 11.3415 42.6906 11.3885H42.5369C42.3714 11.3887 42.2127 11.4545 42.0956 11.5716C41.9785 11.6887 41.9127 11.8474 41.9125 12.013V13.6673C41.9127 13.8328 41.9785 13.9915 42.0956 14.1086C42.2127 14.2257 42.3714 14.2915 42.5369 14.2917H42.6349C42.5562 14.3226 42.4724 14.3385 42.3879 14.3386H42.4216C42.6029 14.3384 42.7767 14.2663 42.9049 14.1381C43.033 14.01 43.1051 13.8362 43.1053 13.6549V12.0006C43.1051 11.8193 43.033 11.6456 42.9049 11.5174C42.7767 11.3892 42.6029 11.3171 42.4216 11.3169Z" fill="#6C63FF"/>
<path opacity="0.21" d="M42.4216 11.3169H42.3879C42.493 11.317 42.5966 11.3415 42.6906 11.3885H42.5369C42.3714 11.3887 42.2127 11.4545 42.0956 11.5716C41.9785 11.6887 41.9127 11.8474 41.9125 12.013V13.6673C41.9127 13.8328 41.9785 13.9915 42.0956 14.1086C42.2127 14.2257 42.3714 14.2915 42.5369 14.2917H42.6349C42.5562 14.3226 42.4724 14.3385 42.3879 14.3386H42.4216C42.6029 14.3384 42.7767 14.2663 42.9049 14.1381C43.033 14.01 43.1051 13.8362 43.1053 13.6549V12.0006C43.1051 11.8193 43.033 11.6456 42.9049 11.5174C42.7767 11.3892 42.6029 11.3171 42.4216 11.3169Z" fill="black"/>
<path d="M42.5437 14.2966C42.3782 14.2964 42.2195 14.2306 42.1024 14.1135C41.9853 13.9964 41.9195 13.8377 41.9193 13.6721V12.0178C41.9195 11.8523 41.9853 11.6936 42.1024 11.5765C42.2195 11.4594 42.3782 11.3936 42.5437 11.3934H42.6974C42.6034 11.3464 42.4998 11.3219 42.3947 11.3218H40.7404C40.5591 11.322 40.3853 11.3941 40.2571 11.5223C40.129 11.6504 40.0568 11.8242 40.0566 12.0055V13.6598C40.0568 13.8411 40.129 14.0148 40.2571 14.143C40.3853 14.2712 40.5591 14.3433 40.7404 14.3435H42.3947C42.4792 14.3434 42.563 14.3275 42.6417 14.2966L42.5437 14.2966Z" fill="#6C63FF"/>
<path d="M46.9283 14.2966C46.7627 14.2964 46.604 14.2306 46.4869 14.1135C46.3698 13.9964 46.304 13.8377 46.3038 13.6721V12.0178C46.304 11.8523 46.3698 11.6936 46.4869 11.5765C46.604 11.4594 46.7627 11.3936 46.9283 11.3934H47.0819C46.9879 11.3464 46.8843 11.3219 46.7792 11.3218H45.1249C44.9436 11.322 44.7698 11.3941 44.6416 11.5223C44.5135 11.6504 44.4414 11.8242 44.4412 12.0055V13.6598C44.4414 13.8411 44.5135 14.0148 44.6416 14.143C44.7698 14.2712 44.9436 14.3433 45.1249 14.3435H46.7792C46.8637 14.3434 46.9475 14.3275 47.0262 14.2966L46.9283 14.2966Z" fill="#3F3D56"/>
<path d="M48.8815 11.7334C49.4886 12.5686 50.044 13.4402 50.5446 14.3433H49.5089C49.3277 14.3431 49.1539 14.271 49.0258 14.1428C48.8976 14.0146 48.8255 13.8409 48.8252 13.6596V12.0054C48.8251 11.9118 48.8443 11.8192 48.8815 11.7334Z" fill="#FF6584"/>
<path d="M46.8051 15.2115L46.2256 14.3435L45.802 13.7089C45.7772 13.6719 45.7425 13.6426 45.7018 13.6244C45.6611 13.6063 45.6161 13.6001 45.5721 13.6064C45.528 13.6128 45.4866 13.6316 45.4527 13.6605C45.4188 13.6895 45.3939 13.7274 45.3807 13.77L45.2023 14.3435L44.8433 15.4959C44.8291 15.5418 44.8293 15.591 44.8437 15.6368C44.8582 15.6826 44.8863 15.7229 44.9243 15.7523C44.9623 15.7818 45.0084 15.7989 45.0563 15.8015C45.1043 15.804 45.152 15.7919 45.1929 15.7667L45.3203 15.6879C45.3459 15.6721 45.3751 15.6631 45.4052 15.6617C45.4353 15.6604 45.4653 15.6668 45.4922 15.6802C45.5191 15.6937 45.5422 15.7138 45.5592 15.7387C45.5762 15.7636 45.5865 15.7924 45.5892 15.8224L45.706 17.0962C45.7114 17.1548 45.7385 17.2091 45.7819 17.2488C45.8252 17.2884 45.8818 17.3105 45.9406 17.3107C45.9477 17.3107 45.9548 17.3101 45.9625 17.3095L46.1415 17.2935C46.1723 17.2907 46.2023 17.2819 46.2298 17.2675C46.2572 17.253 46.2815 17.2334 46.3013 17.2095C46.3211 17.1857 46.3361 17.1582 46.3452 17.1286C46.3544 17.099 46.3576 17.0679 46.3548 17.037L46.2345 15.7217C46.2316 15.6908 46.237 15.6596 46.25 15.6315C46.2629 15.6033 46.2831 15.579 46.3085 15.5611C46.3338 15.5432 46.3634 15.5323 46.3943 15.5295C46.4252 15.5267 46.4563 15.5321 46.4845 15.5451L46.5106 15.5569C46.5573 15.5784 46.6097 15.5841 46.6599 15.573C46.7101 15.562 46.7553 15.5348 46.7886 15.4957C46.822 15.4566 46.8416 15.4077 46.8446 15.3564C46.8475 15.3051 46.8337 15.2542 46.8051 15.2115Z" fill="#CCCCCC"/>
</g>
<defs>
<clipPath id="clip0_1275_9656">
<rect width="53.4729" height="51.9689" fill="white"/>
</clipPath>
</defs>
</svg>
