<svg width="50" height="29" viewBox="0 0 50 29" fill="none" xmlns="http://www.w3.org/2000/svg">
<g clip-path="url(#clip0_1238_8605)">
<path fill-rule="evenodd" clip-rule="evenodd" d="M7.36491 1.74561V25.1628H42.5334V1.74561H7.36491ZM43.3919 0C43.8761 0 44.2749 0.398763 44.2749 0.882975V25.769C44.2749 26.18 43.9941 26.5259 43.6117 26.6235H48.9665C49.5361 26.6235 50 27.0874 50 27.6571C50 28.2267 49.5361 28.6906 48.9665 28.6906H1.03353C0.463867 28.6906 0 28.2267 0 27.6571C0 27.0874 0.463867 26.6235 1.03353 26.6235H6.15641C5.778 26.5259 5.49316 26.1759 5.49316 25.769V0.882975C5.49316 0.398763 5.89193 0 6.37614 0H43.3919ZM23.5474 27.0142H26.4526C26.7253 27.0142 26.9491 27.238 26.9491 27.5106C26.9491 27.7832 26.7253 28.007 26.4526 28.007H23.5474C23.2747 28.007 23.0509 27.7832 23.0509 27.5106C23.0509 27.2339 23.2747 27.0142 23.5474 27.0142Z" fill="#7073BE"/>
<g clip-path="url(#clip1_1238_8605)">
<path fill-rule="evenodd" clip-rule="evenodd" d="M31.0085 13.6998L29.7335 13.6082L29.4835 12.3582C29.0669 10.2165 27.1835 8.6665 25.0002 8.6665C23.2835 8.6665 21.7335 9.6165 20.9335 11.1332L20.5169 11.9248L19.6252 12.0165C17.9419 12.1998 16.6669 13.6248 16.6669 15.3332C16.6669 17.1748 18.1585 18.6665 20.0002 18.6665H30.8335C32.2085 18.6665 33.3335 17.5415 33.3335 16.1665C33.3335 14.8748 32.3169 13.7832 31.0085 13.6998ZM26.2085 14.4998V16.9998H23.7835V14.4998H21.6669L25.0002 11.1665L28.3335 14.4998H26.2085Z" fill="white"/>
<path fill-rule="evenodd" clip-rule="evenodd" d="M31.125 12.0333C30.5583 9.15833 28.0333 7 25 7C22.5917 7 20.5 8.36667 19.4583 10.3667C16.95 10.6333 15 12.7583 15 15.3333C15 18.0917 17.2417 20.3333 20 20.3333H30.8333C33.1333 20.3333 35 18.4667 35 16.1667C35 13.9667 33.2917 12.1833 31.125 12.0333ZM30.8333 18.6667H20C18.1583 18.6667 16.6667 17.175 16.6667 15.3333C16.6667 13.625 17.9417 12.2 19.6333 12.025L20.525 11.9333L20.9417 11.1417C21.7333 9.61667 23.2833 8.66667 25 8.66667C27.1833 8.66667 29.0667 10.2167 29.4917 12.3583L29.7417 13.6083L31.0167 13.7C32.3167 13.7833 33.3333 14.875 33.3333 16.1667C33.3333 17.5417 32.2083 18.6667 30.8333 18.6667ZM21.6667 14.5H23.7917V17H26.2083V14.5H28.3333L25 11.1667L21.6667 14.5Z" fill="#27AE60"/>
</g>
</g>
<defs>
<clipPath id="clip0_1238_8605">
<rect width="50" height="28.6906" fill="white"/>
</clipPath>
<clipPath id="clip1_1238_8605">
<rect width="20" height="13.3333" fill="white" transform="translate(15 7)"/>
</clipPath>
</defs>
</svg>
