<svg width="16" height="22" viewBox="0 0 16 22" fill="none" xmlns="http://www.w3.org/2000/svg">
<path d="M10.1038 21.6194C9.92158 21.6194 9.75315 21.5096 9.68611 21.3391C9.60877 21.1483 9.67752 20.9305 9.85111 20.814C11.0903 19.9834 12.3502 18.0772 12.3674 15.6899C12.3794 13.9881 11.7744 11.4202 8.97627 8.51454C9.11893 12.1343 7.57033 15.1851 7.49643 15.327C7.40533 15.5059 7.20424 15.6005 7.00658 15.5599C6.80721 15.5194 6.66111 15.354 6.64736 15.1564C6.64736 15.1396 6.53565 13.7163 5.56111 12.5311C5.32565 13.2875 5.0644 13.8902 4.82893 14.4372C4.37861 15.4755 4.02455 16.2961 4.02455 17.6974C4.02455 18.7678 4.90799 20.0256 5.75705 20.6891C5.89455 20.7651 5.98736 20.9086 5.98736 21.0757C5.98736 21.3188 5.78627 21.5164 5.53705 21.5164C5.53361 21.5164 5.5319 21.5164 5.52846 21.5164C5.48033 21.5164 5.43049 21.5079 5.38236 21.4927C1.94143 20.3261 0.0473633 17.9624 0.0473633 14.8373C0.0473633 12.1799 1.28658 10.0374 2.59799 7.7683C3.77877 5.72542 5.11768 3.41072 5.77596 0.341336C5.81033 0.187698 5.92549 0.0610732 6.07846 0.0121117C6.23315 -0.0368499 6.40158 0.00198169 6.52018 0.110035C12.7455 5.7575 15.9046 9.57988 15.9046 14.7867C15.9046 18.2123 13.4399 21.1483 10.1691 21.616C10.1467 21.6194 10.1244 21.6194 10.1038 21.6194Z" fill="#FF8A00"/>
</svg>
