<svg width="20" height="20" viewBox="0 0 20 20" fill="none" xmlns="http://www.w3.org/2000/svg">
<path d="M16.3999 0.400391H11.5999C11.1903 0.400391 10.7807 0.556391 10.4687 0.869191L0.868746 10.4692C0.243946 11.094 0.243946 12.1068 0.868746 12.7316L7.26875 19.1316C7.89355 19.7564 8.90635 19.7564 9.53115 19.1316C9.84395 18.8188 18.8183 9.84439 19.1311 9.53159C19.4439 9.21959 19.5999 8.80999 19.5999 8.40039V3.60039C19.5999 1.83319 18.1671 0.400391 16.3999 0.400391ZM13.3551 10.8876L12.2703 9.80279C12.6527 9.31399 12.5375 8.61879 11.9799 8.06119C11.4031 7.48439 10.7535 7.36999 10.3335 7.78999C9.99355 8.12999 10.0623 8.58839 10.5703 9.37079L11.0935 10.1764C11.9679 11.5172 11.9679 12.4716 11.1127 13.3276C10.1439 14.2972 8.85515 14.2892 7.62475 13.3548L6.57675 14.4028L5.59915 13.4244L6.64395 12.3796C5.74155 11.1996 5.69195 9.93799 6.55275 9.00359L7.66795 10.1188C7.27435 10.6188 7.43835 11.3564 8.08795 12.0052C8.68795 12.6052 9.40235 12.7388 9.81835 12.3228C10.1695 11.9716 10.0975 11.494 9.56635 10.6732L9.00075 9.80279C8.20635 8.58759 8.23675 7.57239 9.07755 6.73239C9.97195 5.83799 11.2239 5.83159 12.3663 6.65879L13.4215 5.60359L14.3991 6.58119L13.3447 7.63559C14.1463 8.74519 14.1719 10.01 13.3551 10.8876ZM16.3999 5.20039C15.5159 5.20039 14.7999 4.48439 14.7999 3.60039C14.7999 2.71639 15.5159 2.00039 16.3999 2.00039C17.2839 2.00039 17.9999 2.71639 17.9999 3.60039C17.9999 4.48439 17.2839 5.20039 16.3999 5.20039Z" fill="#7073BE"/>
</svg>
