<svg width="18" height="18" viewBox="0 0 18 18" fill="none" xmlns="http://www.w3.org/2000/svg">
<path d="M7.34083 7.57294C6.195 7.33808 4.49 7.54476 3.28 8.54057C1.20833 5.98529 0.75 0.818359 0.75 0.818359C0.75 0.818359 5.79167 1.28808 8.285 3.41122C7.31333 4.65128 7.11167 6.39864 7.34083 7.57294ZM10.6592 10.9737C11.805 11.2086 13.51 11.0019 14.72 10.0061C16.7917 12.5614 17.25 17.7283 17.25 17.7283C17.25 17.7283 12.2083 17.2586 9.715 15.1354C10.6867 13.8954 10.8883 12.148 10.6592 10.9737ZM2.58333 15.8494C10.8517 15.8306 8.81667 10.4007 8.35833 9.93094C7.9 9.46122 2.60167 7.37566 2.58333 15.8494ZM15.4167 2.69724C15.3983 11.171 10.1 9.08544 9.64167 8.61572C9.18333 8.146 7.14833 2.71603 15.4167 2.69724Z" fill="#27AE60"/>
</svg>
