<svg width="21" height="21" viewBox="0 0 21 21" fill="none" xmlns="http://www.w3.org/2000/svg">
<path d="M15.17 0.759766C14.5628 0.759766 14.0858 1.21187 14.0709 1.79531L13.282 8.72875C13.2217 8.69707 13.153 8.67977 13.08 8.67977H12.64V6.47977C12.64 6.32709 12.5605 6.1856 12.4312 6.10508C12.3014 6.02456 12.1396 6.01841 12.0032 6.08617L6.92001 8.6282V6.91977C6.92001 6.76709 6.84054 6.6256 6.71118 6.54508C6.58138 6.46412 6.41961 6.45841 6.28321 6.52617L1.00321 9.16617C0.854053 9.24097 0.76001 9.39301 0.76001 9.55977V18.7998C0.76001 19.0431 0.95713 19.2398 1.20001 19.2398H13.52V20.9998H21V20.5598V14.8329L18.855 12.6295L18.2122 1.83312C18.2122 1.8274 18.2122 1.8221 18.2113 1.81594C18.1519 1.22414 17.6705 0.759766 17.1139 0.759766H15.17ZM2.96001 11.3198H4.28001V13.0798H2.96001V11.3198ZM6.04001 11.3198H7.36001V13.0798H6.04001V11.3198ZM9.12001 11.3198H10.44V13.0798H9.12001V11.3198ZM14.4 12.6398H17.04V15.7198H20.12V20.1198H14.4V12.6398ZM17.92 12.9311L19.7788 14.8398H17.92V12.9311ZM2.96001 14.8398H4.28001V16.5998H2.96001V14.8398ZM6.04001 14.8398H7.36001V16.5998H6.04001V14.8398ZM9.12001 14.8398H10.44V16.5998H9.12001V14.8398Z" fill="#7073BE"/>
</svg>
