<svg width="40" height="40" viewBox="0 0 40 40" fill="none" xmlns="http://www.w3.org/2000/svg">
<circle cx="20" cy="20" r="20" fill="#FAFBFD"/>
<path d="M20 23C18.575 23 17.375 24.2 17.375 25.625C17.375 27.05 18.575 28.25 20 28.25C21.425 28.25 22.625 27.05 22.625 25.625C22.625 24.2 21.425 23 20 23Z" fill="#7073BE"/>
<path d="M20.0001 19.25C18.2001 19.25 16.4751 20 15.2751 21.35C14.9751 21.65 15.0501 22.1 15.3501 22.4C15.6501 22.7 16.1001 22.625 16.4001 22.325C17.3001 21.275 18.6501 20.75 20.0001 20.75C21.3501 20.75 22.7001 21.35 23.6001 22.325C23.7501 22.475 23.9751 22.55 24.1251 22.55C24.2751 22.55 24.5001 22.475 24.6501 22.325C24.9501 22.025 24.9501 21.575 24.7251 21.275C23.5251 20 21.8001 19.25 20.0001 19.25Z" fill="#7073BE"/>
<path d="M20 15.5C17.225 15.5 14.6 16.625 12.65 18.65C12.35 18.95 12.35 19.4 12.65 19.7C12.95 20 13.4 20 13.7 19.7C15.35 17.975 17.6 17 20 17C22.4 17 24.65 17.975 26.3 19.7C26.45 19.85 26.675 19.925 26.825 19.925C26.975 19.925 27.2 19.85 27.35 19.7C27.65 19.4 27.65 18.95 27.35 18.65C25.4 16.625 22.775 15.5 20 15.5Z" fill="#7073BE"/>
<path d="M29.975 16.025C27.35 13.25 23.825 11.75 20 11.75C16.175 11.75 12.65 13.25 10.025 16.025C9.72505 16.325 9.72505 16.775 10.025 17.075C10.325 17.375 10.775 17.375 11.075 17.075C13.4 14.6 16.625 13.25 20 13.25C23.375 13.25 26.6 14.6 28.925 17.075C29.075 17.225 29.3 17.3 29.4501 17.3C29.6 17.3 29.825 17.225 29.975 17.075C30.275 16.775 30.275 16.325 29.975 16.025Z" fill="#7073BE"/>
</svg>
