<svg width="18" height="20" viewBox="0 0 18 20" fill="none" xmlns="http://www.w3.org/2000/svg">
<path d="M13 0C11.7603 0 10.6304 0.238487 9.72461 0.691406C8.81877 1.14433 8 1.90728 8 3V6.57617C7.14312 6.20405 6.12082 6 5 6C3.76032 6 2.63045 6.23849 1.72461 6.69141C0.818772 7.14433 0 7.90728 0 9V13V17C0 18.0928 0.818726 18.8557 1.72461 19.3086C2.63049 19.7615 3.76045 20 5 20C6.23955 20 7.36951 19.7615 8.27539 19.3086C9.06434 18.9142 9.78552 18.2841 9.95898 17.4062C10.8239 17.7899 11.8615 18 13 18C14.2396 18 15.3695 17.7615 16.2754 17.3086C17.1813 16.8557 18 16.0928 18 15V3C18 1.90728 17.1812 1.14433 16.2754 0.691406C15.3696 0.238488 14.2397 0 13 0ZM13 2C13.9695 2 14.839 2.20953 15.3809 2.48047C15.9227 2.75141 16 2.98816 16 3C16 3.01184 15.9227 3.24859 15.3809 3.51953C14.839 3.79047 13.9695 4 13 4C12.0305 4 11.161 3.79047 10.6191 3.51953C10.0773 3.24859 10 3.01184 10 3C10 2.98816 10.0773 2.75141 10.6191 2.48047C11.161 2.20953 12.0305 2 13 2ZM10 5.42383C10.8569 5.79595 11.8792 6 13 6C14.1208 6 15.1431 5.79595 16 5.42383V7C16 7.01223 15.9227 7.24864 15.3809 7.51953C14.839 7.79042 13.9694 8 13 8C12.0306 8 11.161 7.79042 10.6191 7.51953C10.0773 7.24864 10 7.01223 10 7V5.42383ZM5 8C5.96946 8 6.83898 8.20953 7.38086 8.48047C7.92274 8.75141 8 8.98816 8 9C8 9.01184 7.92274 9.24859 7.38086 9.51953C6.83898 9.79047 5.96946 10 5 10C4.03054 10 3.16102 9.79047 2.61914 9.51953C2.07726 9.24859 2 9.01184 2 9C2 8.98816 2.07726 8.75141 2.61914 8.48047C3.16102 8.20953 4.03054 8 5 8ZM10 9.42383C10.8569 9.79591 11.8793 10 13 10C14.1207 10 15.1431 9.79591 16 9.42383V11C16 11.0122 15.9227 11.2486 15.3809 11.5195C14.839 11.7904 13.9694 12 13 12C12.0306 12 11.161 11.7904 10.6191 11.5195C10.0773 11.2486 10 11.0122 10 11V9.42383ZM2 11.4238C2.85688 11.7959 3.87918 12 5 12C6.12082 12 7.14312 11.7959 8 11.4238V13C8 13.0122 7.92273 13.2486 7.38086 13.5195C6.83899 13.7904 5.96945 14 5 14C4.03055 14 3.16101 13.7904 2.61914 13.5195C2.07727 13.2486 2 13.0122 2 13V11.4238ZM10 13.4238C10.8569 13.7959 11.8793 14 13 14C14.1207 14 15.1431 13.7959 16 13.4238V15C16 15.0122 15.9227 15.2486 15.3809 15.5195C14.839 15.7904 13.9694 16 13 16C12.0306 16 11.161 15.7904 10.6191 15.5195C10.0773 15.2486 10 15.0122 10 15V13.4238ZM2 15.4238C2.85692 15.7959 3.87929 16 5 16C6.12071 16 7.14307 15.7959 8 15.4238V17C8 17.0122 7.92273 17.2486 7.38086 17.5195C6.83899 17.7904 5.96945 18 5 18C4.03055 18 3.16101 17.7904 2.61914 17.5195C2.07727 17.2486 2 17.0122 2 17V15.4238Z" fill="#516FAD"/>
</svg>
