<svg width="27" height="37" viewBox="0 0 27 37" fill="none" xmlns="http://www.w3.org/2000/svg">
<rect width="27" height="37" rx="4" fill="#7073BE"/>
<path d="M13.2423 18.0483C14.1103 18.0483 14.8897 17.9269 15.5803 17.6843C16.271 17.4416 16.8543 17.1056 17.3303 16.6763C17.8157 16.2469 18.1843 15.7429 18.4363 15.1643C18.6977 14.5763 18.8283 13.9369 18.8283 13.2463C18.8283 11.7249 18.3617 10.5536 17.4283 9.73227C16.495 8.91093 15.0997 8.50027 13.2423 8.50027H9.56032V18.0483H13.2423ZM13.2423 7.36627C15.5663 7.36627 17.3163 7.87493 18.4923 8.89227C19.6777 9.9096 20.2703 11.3609 20.2703 13.2463C20.2703 14.1143 20.107 14.9123 19.7803 15.6403C19.4537 16.3683 18.987 16.9983 18.3803 17.5303C17.7737 18.0529 17.0363 18.4636 16.1683 18.7623C15.3003 19.0516 14.325 19.1963 13.2423 19.1963H9.56032V27.1763H8.11832V7.36627H13.2423Z" fill="white"/>
</svg>
