<svg width="84" height="33" viewBox="0 0 84 33" fill="none" xmlns="http://www.w3.org/2000/svg">
<path d="M4.895 7.322C5.687 7.322 6.257 7.133 6.605 6.755C6.953 6.377 7.127 5.849 7.127 5.171C7.127 4.871 7.082 4.598 6.992 4.352C6.902 4.106 6.764 3.896 6.578 3.722C6.398 3.542 6.167 3.404 5.885 3.308C5.609 3.212 5.279 3.164 4.895 3.164H3.311V7.322H4.895ZM4.895 0.887C5.819 0.887 6.611 0.998 7.271 1.22C7.937 1.436 8.483 1.736 8.909 2.12C9.341 2.504 9.659 2.957 9.863 3.479C10.067 4.001 10.169 4.565 10.169 5.171C10.169 5.825 10.064 6.425 9.854 6.971C9.644 7.517 9.323 7.985 8.891 8.375C8.459 8.765 7.91 9.071 7.244 9.293C6.584 9.509 5.801 9.617 4.895 9.617H3.311V14H0.269V0.887H4.895ZM17.7283 8.987L16.5133 5.396C16.4233 5.168 16.3273 4.901 16.2253 4.595C16.1233 4.283 16.0213 3.947 15.9193 3.587C15.8293 3.953 15.7333 4.292 15.6313 4.604C15.5293 4.916 15.4333 5.186 15.3433 5.414L14.1373 8.987H17.7283ZM22.5613 14H20.2033C19.9393 14 19.7263 13.94 19.5643 13.82C19.4023 13.694 19.2793 13.535 19.1953 13.343L18.4213 11.057H13.4353L12.6613 13.343C12.5953 13.511 12.4753 13.664 12.3013 13.802C12.1333 13.934 11.9233 14 11.6713 14H9.2953L14.3713 0.887H17.4853L22.5613 14ZM28.4533 9.014V14H25.4113V9.014L20.6593 0.887H23.3413C23.6053 0.887 23.8123 0.95 23.9623 1.076C24.1183 1.196 24.2473 1.352 24.3493 1.544L26.2033 5.36C26.3593 5.66 26.5003 5.942 26.6263 6.206C26.7523 6.464 26.8633 6.719 26.9593 6.971C27.0493 6.713 27.1513 6.455 27.2653 6.197C27.3853 5.933 27.5233 5.654 27.6793 5.36L29.5153 1.544C29.5573 1.466 29.6083 1.388 29.6683 1.31C29.7283 1.232 29.7973 1.163 29.8753 1.103C29.9593 1.037 30.0523 0.985999 30.1543 0.95C30.2623 0.908 30.3793 0.887 30.5053 0.887H33.2053L28.4533 9.014ZM52.0949 0.887L48.0449 14H45.2909L42.8249 5.873C42.7769 5.747 42.7319 5.609 42.6899 5.459C42.6479 5.303 42.6059 5.141 42.5639 4.973C42.5219 5.141 42.4799 5.303 42.4379 5.459C42.3959 5.609 42.3509 5.747 42.3029 5.873L39.8009 14H37.0469L32.9969 0.887H35.5529C35.8169 0.887 36.0359 0.947 36.2099 1.067C36.3899 1.187 36.5069 1.346 36.5609 1.544L38.3609 8.384C38.4149 8.6 38.4689 8.837 38.5229 9.095C38.5769 9.347 38.6309 9.611 38.6849 9.887C38.7929 9.323 38.9249 8.822 39.0809 8.384L41.2049 1.544C41.2589 1.376 41.3729 1.226 41.5469 1.094C41.7269 0.956 41.9429 0.887 42.1949 0.887H43.0949C43.3589 0.887 43.5719 0.95 43.7339 1.076C43.8959 1.196 44.0189 1.352 44.1029 1.544L46.2089 8.384C46.3649 8.804 46.4969 9.281 46.6049 9.815C46.6529 9.545 46.7009 9.293 46.7489 9.059C46.8029 8.819 46.8569 8.594 46.9109 8.384L48.7109 1.544C48.7589 1.37 48.8729 1.217 49.0529 1.085C49.2329 0.953 49.4489 0.887 49.7009 0.887H52.0949ZM59.406 8.987L58.191 5.396C58.101 5.168 58.005 4.901 57.903 4.595C57.801 4.283 57.699 3.947 57.597 3.587C57.507 3.953 57.411 4.292 57.309 4.604C57.207 4.916 57.111 5.186 57.021 5.414L55.815 8.987H59.406ZM64.239 14H61.881C61.617 14 61.404 13.94 61.242 13.82C61.08 13.694 60.957 13.535 60.873 13.343L60.099 11.057H55.113L54.339 13.343C54.273 13.511 54.153 13.664 53.979 13.802C53.811 13.934 53.601 14 53.349 14H50.973L56.049 0.887H59.163L64.239 14ZM73.1749 11.57V14H65.2729V0.887H68.3149V11.57H73.1749ZM82.6319 11.57V14H74.7299V0.887H77.7719V11.57H82.6319ZM3.329 21.227V24.548H7.811V26.897H3.329V32H0.269V18.887H8.711V21.227H3.329ZM14.5143 32H11.4543V18.887H14.5143V32ZM29.4822 18.887V32H27.8982C27.6642 32 27.4662 31.964 27.3042 31.892C27.1482 31.814 26.9922 31.682 26.8362 31.496L20.6532 23.675C20.6772 23.909 20.6922 24.137 20.6982 24.359C20.7102 24.575 20.7162 24.779 20.7162 24.971V32H18.0342V18.887H19.6362C19.7682 18.887 19.8792 18.893 19.9692 18.905C20.0592 18.917 20.1402 18.941 20.2122 18.977C20.2842 19.007 20.3532 19.052 20.4192 19.112C20.4852 19.172 20.5602 19.253 20.6442 19.355L26.8812 27.23C26.8512 26.978 26.8302 26.735 26.8182 26.501C26.8062 26.261 26.8002 26.036 26.8002 25.826V18.887H29.4822ZM39.9463 26.987L38.7313 23.396C38.6413 23.168 38.5453 22.901 38.4433 22.595C38.3413 22.283 38.2393 21.947 38.1373 21.587C38.0473 21.953 37.9513 22.292 37.8493 22.604C37.7473 22.916 37.6513 23.186 37.5613 23.414L36.3553 26.987H39.9463ZM44.7793 32H42.4213C42.1573 32 41.9443 31.94 41.7823 31.82C41.6203 31.694 41.4973 31.535 41.4133 31.343L40.6393 29.057H35.6533L34.8793 31.343C34.8133 31.511 34.6933 31.664 34.5193 31.802C34.3513 31.934 34.1413 32 33.8893 32H31.5133L36.5893 18.887H39.7033L44.7793 32ZM58.2512 18.887V32H56.6672C56.4332 32 56.2352 31.964 56.0732 31.892C55.9172 31.814 55.7612 31.682 55.6052 31.496L49.4222 23.675C49.4462 23.909 49.4612 24.137 49.4672 24.359C49.4792 24.575 49.4852 24.779 49.4852 24.971V32H46.8032V18.887H48.4052C48.5372 18.887 48.6482 18.893 48.7382 18.905C48.8282 18.917 48.9092 18.941 48.9812 18.977C49.0532 19.007 49.1222 19.052 49.1882 19.112C49.2542 19.172 49.3292 19.253 49.4132 19.355L55.6502 27.23C55.6202 26.978 55.5992 26.735 55.5872 26.501C55.5752 26.261 55.5692 26.036 55.5692 25.826V18.887H58.2512ZM70.6234 28.607C70.6954 28.607 70.7674 28.622 70.8394 28.652C70.9114 28.676 70.9804 28.721 71.0464 28.787L72.2524 30.056C71.7244 30.746 71.0614 31.268 70.2634 31.622C69.4714 31.97 68.5324 32.144 67.4464 32.144C66.4504 32.144 65.5564 31.976 64.7644 31.64C63.9784 31.298 63.3094 30.83 62.7574 30.236C62.2114 29.636 61.7914 28.928 61.4974 28.112C61.2034 27.29 61.0564 26.399 61.0564 25.439C61.0564 24.461 61.2154 23.564 61.5334 22.748C61.8514 21.926 62.2984 21.218 62.8744 20.624C63.4504 20.03 64.1404 19.568 64.9444 19.238C65.7484 18.908 66.6334 18.743 67.5994 18.743C68.0914 18.743 68.5534 18.788 68.9854 18.878C69.4234 18.962 69.8314 19.082 70.2094 19.238C70.5874 19.388 70.9354 19.571 71.2534 19.787C71.5714 20.003 71.8534 20.237 72.0994 20.489L71.0734 21.866C71.0074 21.95 70.9294 22.028 70.8394 22.1C70.7494 22.166 70.6234 22.199 70.4614 22.199C70.3534 22.199 70.2514 22.175 70.1554 22.127C70.0594 22.079 69.9574 22.022 69.8494 21.956C69.7414 21.884 69.6214 21.809 69.4894 21.731C69.3634 21.647 69.2104 21.572 69.0304 21.506C68.8564 21.434 68.6494 21.374 68.4094 21.326C68.1754 21.278 67.8994 21.254 67.5814 21.254C67.0774 21.254 66.6154 21.347 66.1954 21.533C65.7814 21.719 65.4214 21.992 65.1154 22.352C64.8154 22.706 64.5814 23.144 64.4134 23.666C64.2514 24.182 64.1704 24.773 64.1704 25.439C64.1704 26.111 64.2604 26.708 64.4404 27.23C64.6264 27.752 64.8754 28.193 65.1874 28.553C65.5054 28.907 65.8744 29.177 66.2944 29.363C66.7144 29.549 67.1644 29.642 67.6444 29.642C67.9204 29.642 68.1724 29.63 68.4004 29.606C68.6284 29.576 68.8414 29.531 69.0394 29.471C69.2374 29.405 69.4234 29.321 69.5974 29.219C69.7714 29.111 69.9484 28.976 70.1284 28.814C70.2004 28.754 70.2784 28.706 70.3624 28.67C70.4464 28.628 70.5334 28.607 70.6234 28.607ZM77.6303 21.227V24.287H81.7523V26.537H77.6303V29.66H83.0123V32H74.5703V18.887H83.0123V21.227H77.6303Z" fill="#7073BE"/>
</svg>
