<svg width="84" height="25" viewBox="0 0 84 25" fill="none" xmlns="http://www.w3.org/2000/svg">
<path d="M28.7603 6.3625C29.3103 6.3625 29.7061 6.23125 29.9478 5.96875C30.1894 5.70625 30.3103 5.33958 30.3103 4.86875C30.3103 4.66042 30.279 4.47083 30.2165 4.3C30.154 4.12917 30.0582 3.98333 29.929 3.8625C29.804 3.7375 29.6436 3.64167 29.4478 3.575C29.2561 3.50833 29.0269 3.475 28.7603 3.475H27.6603V6.3625H28.7603ZM28.7603 1.89375C29.4019 1.89375 29.9519 1.97083 30.4103 2.125C30.8728 2.275 31.2519 2.48333 31.5478 2.75C31.8478 3.01667 32.0686 3.33125 32.2103 3.69375C32.3519 4.05625 32.4228 4.44792 32.4228 4.86875C32.4228 5.32292 32.3498 5.73958 32.204 6.11875C32.0582 6.49792 31.8353 6.82292 31.5353 7.09375C31.2353 7.36458 30.854 7.57708 30.3915 7.73125C29.9332 7.88125 29.3894 7.95625 28.7603 7.95625H27.6603V11H25.5478V1.89375H28.7603ZM37.6723 7.51875L36.8285 5.025C36.766 4.86667 36.6993 4.68125 36.6285 4.46875C36.5577 4.25208 36.4868 4.01875 36.416 3.76875C36.3535 4.02292 36.2868 4.25833 36.216 4.475C36.1452 4.69167 36.0785 4.87917 36.016 5.0375L35.1785 7.51875H37.6723ZM41.0285 11H39.391C39.2077 11 39.0598 10.9583 38.9473 10.875C38.8348 10.7875 38.7493 10.6771 38.691 10.5437L38.1535 8.95625H34.691L34.1535 10.5437C34.1077 10.6604 34.0243 10.7667 33.9035 10.8625C33.7868 10.9542 33.641 11 33.466 11H31.816L35.341 1.89375H37.5035L41.0285 11ZM45.1202 7.5375V11H43.0077V7.5375L39.7077 1.89375H41.5702C41.7535 1.89375 41.8973 1.9375 42.0015 2.025C42.1098 2.10833 42.1994 2.21667 42.2702 2.35L43.5577 5C43.666 5.20833 43.764 5.40417 43.8515 5.5875C43.939 5.76667 44.016 5.94375 44.0827 6.11875C44.1452 5.93958 44.216 5.76042 44.2952 5.58125C44.3785 5.39792 44.4744 5.20417 44.5827 5L45.8577 2.35C45.8869 2.29583 45.9223 2.24167 45.964 2.1875C46.0056 2.13333 46.0535 2.08542 46.1077 2.04375C46.166 1.99792 46.2306 1.9625 46.3015 1.9375C46.3765 1.90833 46.4577 1.89375 46.5452 1.89375H48.4202L45.1202 7.5375ZM61.538 1.89375L58.7255 11H56.813L55.1005 5.35625C55.0672 5.26875 55.0359 5.17292 55.0067 5.06875C54.9776 4.96042 54.9484 4.84792 54.9192 4.73125C54.8901 4.84792 54.8609 4.96042 54.8317 5.06875C54.8026 5.17292 54.7713 5.26875 54.738 5.35625L53.0005 11H51.088L48.2755 1.89375H50.0505C50.2338 1.89375 50.3859 1.93542 50.5067 2.01875C50.6317 2.10208 50.713 2.2125 50.7505 2.35L52.0005 7.1C52.038 7.25 52.0755 7.41458 52.113 7.59375C52.1505 7.76875 52.188 7.95208 52.2255 8.14375C52.3005 7.75208 52.3922 7.40417 52.5005 7.1L53.9755 2.35C54.013 2.23333 54.0922 2.12917 54.213 2.0375C54.338 1.94167 54.488 1.89375 54.663 1.89375H55.288C55.4713 1.89375 55.6192 1.9375 55.7317 2.025C55.8442 2.10833 55.9297 2.21667 55.988 2.35L57.4505 7.1C57.5588 7.39167 57.6505 7.72292 57.7255 8.09375C57.7588 7.90625 57.7922 7.73125 57.8255 7.56875C57.863 7.40208 57.9005 7.24583 57.938 7.1L59.188 2.35C59.2213 2.22917 59.3005 2.12292 59.4255 2.03125C59.5505 1.93958 59.7005 1.89375 59.8755 1.89375H61.538ZM66.6151 7.51875L65.7714 5.025C65.7089 4.86667 65.6422 4.68125 65.5714 4.46875C65.5006 4.25208 65.4297 4.01875 65.3589 3.76875C65.2964 4.02292 65.2297 4.25833 65.1589 4.475C65.0881 4.69167 65.0214 4.87917 64.9589 5.0375L64.1214 7.51875H66.6151ZM69.9714 11H68.3339C68.1506 11 68.0026 10.9583 67.8901 10.875C67.7776 10.7875 67.6922 10.6771 67.6339 10.5437L67.0964 8.95625H63.6339L63.0964 10.5437C63.0506 10.6604 62.9672 10.7667 62.8464 10.8625C62.7297 10.9542 62.5839 11 62.4089 11H60.7589L64.2839 1.89375H66.4464L69.9714 11ZM76.1769 9.3125V11H70.6894V1.89375H72.8019V9.3125H76.1769ZM82.7442 9.3125V11H77.2567V1.89375H79.3692V9.3125H82.7442ZM27.6728 15.5187V17.825H30.7853V19.4562H27.6728V23H25.5478V13.8937H31.4103V15.5187H27.6728ZM35.4403 23H33.3153V13.8937H35.4403V23ZM45.8347 13.8937V23H44.7347C44.5722 23 44.4347 22.975 44.3222 22.925C44.2138 22.8708 44.1055 22.7792 43.9972 22.65L39.7034 17.2187C39.7201 17.3812 39.7305 17.5396 39.7347 17.6937C39.743 17.8437 39.7472 17.9854 39.7472 18.1187V23H37.8847V13.8937H38.9972C39.0888 13.8937 39.1659 13.8979 39.2284 13.9062C39.2909 13.9146 39.3472 13.9312 39.3972 13.9562C39.4472 13.9771 39.4951 14.0083 39.5409 14.05C39.5868 14.0917 39.6388 14.1479 39.6972 14.2187L44.0284 19.6875C44.0076 19.5125 43.993 19.3437 43.9847 19.1812C43.9763 19.0146 43.9722 18.8583 43.9722 18.7125V13.8937H45.8347ZM53.1015 19.5187L52.2577 17.025C52.1952 16.8667 52.1285 16.6812 52.0577 16.4687C51.9869 16.2521 51.916 16.0187 51.8452 15.7687C51.7827 16.0229 51.716 16.2583 51.6452 16.475C51.5744 16.6917 51.5077 16.8792 51.4452 17.0375L50.6077 19.5187H53.1015ZM56.4577 23H54.8202C54.6369 23 54.489 22.9583 54.3765 22.875C54.264 22.7875 54.1785 22.6771 54.1202 22.5437L53.5827 20.9562H50.1202L49.5827 22.5437C49.5369 22.6604 49.4535 22.7667 49.3327 22.8625C49.216 22.9542 49.0702 23 48.8952 23H47.2452L50.7702 13.8937H52.9327L56.4577 23ZM65.8132 13.8937V23H64.7132C64.5507 23 64.4132 22.975 64.3007 22.925C64.1924 22.8708 64.084 22.7792 63.9757 22.65L59.6819 17.2187C59.6986 17.3812 59.709 17.5396 59.7132 17.6937C59.7215 17.8437 59.7257 17.9854 59.7257 18.1187V23H57.8632V13.8937H58.9757C59.0674 13.8937 59.1444 13.8979 59.2069 13.9062C59.2694 13.9146 59.3257 13.9312 59.3757 13.9562C59.4257 13.9771 59.4736 14.0083 59.5194 14.05C59.5653 14.0917 59.6174 14.1479 59.6757 14.2187L64.0069 19.6875C63.9861 19.5125 63.9715 19.3437 63.9632 19.1812C63.9549 19.0146 63.9507 18.8583 63.9507 18.7125V13.8937H65.8132ZM74.405 20.6437C74.455 20.6437 74.505 20.6542 74.555 20.675C74.605 20.6917 74.6529 20.7229 74.6987 20.7687L75.5362 21.65C75.1696 22.1292 74.7091 22.4917 74.155 22.7375C73.605 22.9792 72.9529 23.1 72.1987 23.1C71.5071 23.1 70.8862 22.9833 70.3362 22.75C69.7904 22.5125 69.3258 22.1875 68.9425 21.775C68.5633 21.3583 68.2716 20.8667 68.0675 20.3C67.8633 19.7292 67.7612 19.1104 67.7612 18.4437C67.7612 17.7646 67.8716 17.1417 68.0925 16.575C68.3133 16.0042 68.6237 15.5125 69.0237 15.1C69.4237 14.6875 69.9029 14.3667 70.4612 14.1375C71.0196 13.9083 71.6341 13.7937 72.305 13.7937C72.6466 13.7937 72.9675 13.825 73.2675 13.8875C73.5716 13.9458 73.855 14.0292 74.1175 14.1375C74.38 14.2417 74.6216 14.3687 74.8425 14.5187C75.0633 14.6687 75.2591 14.8312 75.43 15.0062L74.7175 15.9625C74.6716 16.0208 74.6175 16.075 74.555 16.125C74.4925 16.1708 74.405 16.1937 74.2925 16.1937C74.2175 16.1937 74.1466 16.1771 74.08 16.1437C74.0133 16.1104 73.9425 16.0708 73.8675 16.025C73.7925 15.975 73.7091 15.9229 73.6175 15.8687C73.53 15.8104 73.4237 15.7583 73.2987 15.7125C73.1779 15.6625 73.0341 15.6208 72.8675 15.5875C72.705 15.5542 72.5133 15.5375 72.2925 15.5375C71.9425 15.5375 71.6216 15.6021 71.33 15.7312C71.0425 15.8604 70.7925 16.05 70.58 16.3C70.3716 16.5458 70.2091 16.85 70.0925 17.2125C69.98 17.5708 69.9237 17.9812 69.9237 18.4437C69.9237 18.9104 69.9862 19.325 70.1112 19.6875C70.2404 20.05 70.4133 20.3562 70.63 20.6062C70.8508 20.8521 71.1071 21.0396 71.3987 21.1687C71.6904 21.2979 72.0029 21.3625 72.3362 21.3625C72.5279 21.3625 72.7029 21.3542 72.8612 21.3375C73.0196 21.3167 73.1675 21.2854 73.305 21.2437C73.4425 21.1979 73.5716 21.1396 73.6925 21.0687C73.8133 20.9937 73.9362 20.9 74.0612 20.7875C74.1112 20.7458 74.1654 20.7125 74.2237 20.6875C74.2821 20.6583 74.3425 20.6437 74.405 20.6437ZM79.2709 15.5187V17.6437H82.1334V19.2062H79.2709V21.375H83.0084V23H77.1459V13.8937H83.0084V15.5187H79.2709Z" fill="#EFF2F7"/>
<rect width="18.2432" height="25" rx="2.7027" fill="#EFF2F7"/>
<path d="M8.94749 12.3031C9.53398 12.3031 10.0606 12.2212 10.5272 12.0572C10.9939 11.8932 11.388 11.6662 11.7097 11.3761C12.0376 11.086 12.2867 10.7455 12.457 10.3545C12.6335 9.95719 12.7218 9.52521 12.7218 9.05854C12.7218 8.03061 12.4065 7.23917 11.7759 6.68422C11.1452 6.12926 10.2024 5.85178 8.94749 5.85178H6.45965V12.3031H8.94749ZM8.94749 5.08557C10.5178 5.08557 11.7002 5.42926 12.4948 6.11665C13.2957 6.80403 13.6961 7.78467 13.6961 9.05854C13.6961 9.64503 13.5858 10.1842 13.3651 10.6761C13.1443 11.168 12.829 11.5937 12.4191 11.9531C12.0092 12.3063 11.511 12.5838 10.9245 12.7856C10.338 12.9811 9.67902 13.0788 8.94749 13.0788H6.45965V18.4707H5.48533V5.08557H8.94749Z" fill="#7073BE"/>
</svg>
