<svg width="13" height="14" viewBox="0 0 13 14" fill="none" xmlns="http://www.w3.org/2000/svg">
<path opacity="0.3" d="M5.55556 0.75C8.61762 0.75 11.1111 3.24349 11.1111 6.30556C11.1111 7.63585 10.6445 8.85547 9.86111 9.8125L12.5 12.4514L11.7014 13.25L9.0625 10.6111C8.10547 11.3945 6.88585 11.8611 5.55556 11.8611C2.49349 11.8611 -9.53674e-07 9.36762 -9.53674e-07 6.30556C-9.53674e-07 3.24349 2.49349 0.75 5.55556 0.75ZM5.55556 1.86111C3.09462 1.86111 1.11111 3.84462 1.11111 6.30556C1.11111 8.76649 3.09462 10.75 5.55556 10.75C8.01649 10.75 10 8.76649 10 6.30556C10 3.84462 8.01649 1.86111 5.55556 1.86111Z" fill="#19233C"/>
</svg>
